<svg id="Capa_1" enable-background="new 0 0 512.002 512.002" height="512" viewBox="0 0 512.002 512.002" width="512" xmlns="http://www.w3.org/2000/svg"><g><path d="m256.001 152c-77.196 0-140 62.804-140 140s62.804 140 140 140 140-62.804 140-140-62.804-140-140-140zm0 240c-55.14 0-100-44.86-100-100s44.86-100 100-100 100 44.86 100 100-44.86 100-100 100z"/><path d="m256.001 232c-11.046 0-20 8.954-20 20v31.716l-22.411 22.411c-7.811 7.811-7.811 20.474 0 28.284 7.811 7.811 20.474 7.811 28.284 0l28.184-28.183c3.663-3.62 5.935-8.643 5.943-14.197 0-.005 0-40.031 0-40.031 0-11.046-8.954-20-20-20z"/><path d="m412.001 36c-42.113 0-79.942 26.604-94.132 66.199-3.715 10.365 1.65 21.77 11.982 25.534.301.156.591.327.903.469 63.935 29.232 105.247 93.526 105.247 163.798 0 99.252-80.748 180-180 180s-180-80.748-180-180 80.748-180 180-180c11.046 0 20-8.954 20-20v-52h20c11.046 0 20-8.954 20-20s-8.954-20-20-20h-80c-11.046 0-20 8.954-20 20s8.954 20 20 20h20v32.891c-17.466 1.564-34.504 5.175-50.836 10.71-17.955-29.098-50.075-47.601-85.164-47.601-55.14 0-100 44.86-100 100 0 35.093 18.507 67.216 47.61 85.17-7.629 22.512-11.61 46.364-11.61 70.83 0 58.764 22.884 114.011 64.437 155.563.23.23.466.452.697.68l-21.775 32.663c-6.127 9.191-3.644 21.608 5.547 27.735 9.19 6.127 21.608 3.643 27.735-5.547l19.485-29.227c36.228 24.788 79.023 38.133 123.874 38.133s87.646-13.345 123.874-38.132l19.484 29.227c6.127 9.191 18.544 11.674 27.735 5.547 9.19-6.127 11.674-18.544 5.547-27.735l-21.775-32.662c.231-.229.467-.45.697-.68 41.553-41.552 64.437-96.799 64.437-155.563 0-24.3-3.967-48.171-11.652-70.804 29.127-17.949 47.652-50.086 47.652-85.196.001-55.142-44.859-100.002-99.999-100.002zm-372 100c0-33.084 26.916-60 60-60 19.233 0 36.978 9.263 48.119 24.168-17.253 9.737-33.292 21.877-47.683 36.268-14.39 14.39-26.537 30.425-36.275 47.678-14.901-11.141-24.161-28.884-24.161-48.114zm407.785 48.154c-2.405-4.267-4.95-8.467-7.65-12.587-19.457-29.694-45.604-54.091-76.292-71.361 11.128-14.927 28.89-24.206 48.157-24.206 33.084 0 60 26.916 60 60 0 19.253-9.282 37.015-24.215 48.154z"/></g></svg>