<svg id="Capa_1" enable-background="new 0 0 512 512" height="512" viewBox="0 0 512 512" width="512" xmlns="http://www.w3.org/2000/svg"><g><path d="m156 60c0 11.046 8.954 20 20 20s20-8.954 20-20c0-11.028 8.972-20 20-20h80c11.028 0 20 8.972 20 20 0 11.046 8.954 20 20 20s20-8.954 20-20c0-33.084-26.916-60-60-60h-80c-33.084 0-60 26.916-60 60z"/><path d="m452 120h-392c-33.084 0-60 26.916-60 60v40c0 32.646 15.727 61.687 40 79.949v152.051c0 33.084 26.916 60 60 60h312c33.084 0 60-26.916 60-60v-152.051c24.273-18.262 40-47.303 40-79.949v-40c0-33.084-26.916-60-60-60zm20 100c0 33.084-26.916 60-60 60h-76c-11.046 0-20 8.954-20 20s8.954 20 20 20h76c6.847 0 13.536-.693 20-2.011v134.011c0 11.028-8.972 20-20 20h-312c-11.028 0-20-8.972-20-20v-134.011c6.464 1.317 13.153 2.011 20 2.011h76c11.046 0 20-8.954 20-20s-8.954-20-20-20h-76c-33.084 0-60-26.916-60-60v-40c0-11.028 8.972-20 20-20h392c11.028 0 20 8.972 20 20z"/><path d="m256 280c-11.046 0-20 8.954-20 20v40c0 11.046 8.954 20 20 20s20-8.954 20-20v-40c0-11.046-8.954-20-20-20z"/></g></svg>