<svg id="Capa_1" enable-background="new 0 0 512 512" height="512" viewBox="0 0 512 512" width="512" xmlns="http://www.w3.org/2000/svg"><g><path d="m452 96h-96v-20c0-33.084-26.916-60-60-60h-80c-33.084 0-60 26.916-60 60v20h-96c-33.084 0-60 26.916-60 60v80c0 25.957 16.301 48.309 40 56.597v143.403c0 33.084 26.916 60 60 60h312c33.084 0 60-26.916 60-60v-143.403c23.698-8.289 40-30.641 40-56.597v-80c0-33.084-26.916-60-60-60zm-256-20c0-11.028 8.972-20 20-20h80c11.028 0 20 8.972 20 20v20h-120zm276 160c0 9.864-7.044 18.166-16.748 19.74l-122.557 20.535c-10.895 1.825-18.246 12.136-16.42 23.03 1.825 10.893 12.137 18.246 23.029 16.42l92.696-15.532v135.807c0 11.028-8.972 20-20 20h-312c-11.028 0-20-8.972-20-20v-135.807l92.695 15.532c10.894 1.822 21.205-5.526 23.03-16.42s-5.526-21.205-16.42-23.03l-122.557-20.535c-9.705-1.574-16.748-9.876-16.748-19.74v-80c0-11.028 8.972-20 20-20h392c11.028 0 20 8.972 20 20z"/><path d="m276 276c0-11.046-8.954-20-20-20s-20 8.954-20 20v80c0 11.046 8.954 20 20 20s20-8.954 20-20z"/></g></svg>