<svg id="Capa_1" enable-background="new 0 0 512 512" height="512" viewBox="0 0 512 512" width="512" xmlns="http://www.w3.org/2000/svg"><path d="m243 512h-123c-66.168 0-120-53.832-120-120v-164c0-66.168 53.832-120 120-120h272c66.168 0 120 53.832 120 120v12c-.983 26.508-39.026 26.488-40 0v-12c0-44.112-35.888-80-80-80h-272c-44.112 0-80 35.888-80 80v164c0 44.112 35.888 80 80 80h123c26.508.983 26.488 39.026 0 40zm-132-285c0 11.046 8.954 20 20 20 26.501-.98 26.494-39.024 0-40-11.046 0-20 8.954-20 20zm86 0c0 11.046 8.954 20 20 20 26.501-.98 26.494-39.024 0-40-11.046 0-20 8.954-20 20zm-86 173c0 11.046 8.954 20 20 20 26.501-.98 26.494-39.023 0-40-11.046 0-20 8.954-20 20zm86 0c0 11.046 8.954 20 20 20 26.501-.98 26.494-39.023 0-40-11.046 0-20 8.954-20 20zm-86-86c0 11.046 8.954 20 20 20 26.501-.98 26.494-39.023 0-40-11.046 0-20 8.954-20 20zm86 0c0 11.046 8.954 20 20 20 26.501-.98 26.494-39.023 0-40-11.046 0-20 8.954-20 20zm86-87c0 11.046 8.954 20 20 20 26.501-.98 26.494-39.024 0-40-11.046 0-20 8.954-20 20zm86 0c0 11.046 8.954 20 20 20 26.501-.98 26.494-39.024 0-40-11.046 0-20 8.954-20 20zm33.006 195h-19.567c-7.303 0-13.789-4.613-16.109-11.457l-6.448-19.017c-2.361-6.963.129-14.635 6.148-18.94l15.931-11.397c5.812-4.157 13.638-4.259 19.558-.254l16.087 10.885c6.12 4.141 8.815 11.726 6.659 18.74l-6.003 19.529c-2.176 7.075-8.776 11.911-16.256 11.911zm-260.006-422c-33.084 0-60 26.916-60 60 0 11.046 8.954 20 20 20s20-8.954 20-20c1.007-26.5 39-26.486 40 0 0 11.046 8.954 20 20 20s20-8.954 20-20c0-33.084-26.916-60-60-60zm190 80c11.046 0 20-8.954 20-20 0-11.028 8.972-20 20-20s20 8.972 20 20c0 11.046 8.954 20 20 20s20-8.954 20-20c-3.018-79.492-116.997-79.464-120 .001 0 11.045 8.954 19.999 20 19.999zm180 312c0 66.168-53.832 120-120 120-158.978-6.033-158.934-233.991.002-240 66.166 0 119.998 53.832 119.998 120zm-120 80c4.894 0 9.686-.442 14.339-1.288l-.196-.156 9.885-25.758c2.93-7.634 10.344-11.987 18.519-11.792h26.123c5.482-9.146 9.189-19.473 10.643-30.5l-22.088-16.684c-6.252-5.107-8.618-13.594-5.908-21.199l8.965-25.162c-7.671-8.791-17.229-15.894-28.037-20.673l-20.79 14.193c-6.642 4.77-15.219 5.356-21.943.702l-21.615-14.958c-10.817 4.758-20.389 11.843-28.076 20.618l9.007 25.28c2.709 7.605.344 16.092-5.908 21.199l-22.22 16.783c1.462 10.99 5.163 21.282 10.629 30.401h26.123c8.175-.194 15.589 4.158 18.519 11.792l9.885 25.758-.196.156c4.654.846 9.446 1.288 14.34 1.288z"/></svg>