<svg id="Capa_1" enable-background="new 0 0 512.003 512.003" height="512" viewBox="0 0 512.003 512.003" width="512" xmlns="http://www.w3.org/2000/svg"><path d="m508.009 361.119c6.41 12.778 4.888 28.31-3.923 40.822l-58.839 100.187c-3.726 6.343-10.405 9.875-17.265 9.875-3.442.001-6.928-.889-10.109-2.757-9.525-5.594-12.712-17.85-7.118-27.374l59.316-101c.174-.296.354-.586.543-.872h-46.613c-11.046 0-20-8.954-20-20s8.954-20 20-20h48.029c15.659 0 29.445 8.093 35.979 21.119zm-216.008-11.119c11.046 0 20-8.954 20-20v-122c0-11.046-8.954-20-20-20s-20 8.954-20 20v52h-16c-5.514 0-10-4.486-10-10v-42c0-11.046-8.954-20-20-20s-20 8.954-20 20v42c0 27.57 22.43 50 50 50h16v30c0 11.046 8.955 20 20 20zm100-242h-272c-66.168 0-120 53.832-120 120v164c0 66.168 53.832 120 120 120h228c11.046 0 20-8.954 20-20s-8.954-20-20-20h-228c-44.112 0-80-35.888-80-80v-164c0-44.112 35.888-80 80-80h272c44.112 0 80 35.888 80 80v55c0 11.046 8.954 20 20 20s20-8.954 20-20v-55c0-66.168-53.832-120-120-120zm-207 137c0-31.43-25.346-57-56.5-57-22.517 0-38.726 11.67-40.5 13l.013.018c-4.857 3.649-8.013 9.439-8.013 15.982 0 11.046 8.954 20 20 20 4.503 0 8.644-1.506 11.987-4.018l.013.018-.221.162c.073-.052 7.429-5.162 16.721-5.162 9.099 0 16.5 7.626 16.5 17 0 3.94-3.143 6.677-17.697 15.41-12.235 7.342-27.463 16.479-39.585 32.544-9.271 12.289-11.271 25.997-5.486 37.608 6.154 12.353 19.545 19.438 36.739 19.438h44.029c11.046 0 20-8.954 20-20s-8.954-20-20-20h-36.961c6.533-6.102 14.285-10.754 21.846-15.291 16.535-9.922 37.115-22.271 37.115-49.709zm128.457 196.084c2.761 1.304 5.667 1.921 8.529 1.921 7.496 0 14.684-4.235 18.098-11.462l77-163c4.718-9.987.446-21.909-9.541-26.627-9.99-4.718-21.909-.445-26.627 9.541l-77 163c-4.717 9.987-.446 21.909 9.541 26.627zm18.543-361.084c11.046 0 20-8.954 20-20 0-11.028 8.972-20 20-20s20 8.972 20 20c0 11.046 8.954 20 20 20s20-8.954 20-20c0-33.084-26.916-60-60-60s-60 26.916-60 60c0 11.046 8.955 20 20 20zm-230 0c11.046 0 20-8.954 20-20 0-11.028 8.972-20 20-20s20 8.972 20 20c0 11.046 8.954 20 20 20s20-8.954 20-20c0-33.084-26.916-60-60-60s-60 26.916-60 60c0 11.046 8.955 20 20 20z"/></svg>