<svg id="Capa_1" enable-background="new 0 0 512 512" height="512" viewBox="0 0 512 512" width="512" xmlns="http://www.w3.org/2000/svg"><g><path d="m392 352v-20c0-11.046-8.954-20-20-20s-20 8.954-20 20v40c0 11.046 8.954 20 20 20h40c11.046 0 20-8.954 20-20s-8.954-20-20-20z"/><path d="m80 432h96.019c11.046 0 20-8.954 20-20s-8.954-20-20-20h-96.019c-22.056 0-40-17.944-40-40v-232c0-22.056 17.944-40 40-40v20c0 11.046 8.954 20 20 20s20-8.954 20-20v-20h76v20c0 11.046 8.954 20 20 20s20-8.954 20-20v-20h76v20c0 11.046 8.954 20 20 20s20-8.954 20-20v-20c22.056 0 40 17.944 40 40v52c0 11.046 8.954 20 20 20s20-8.954 20-20v-52c0-44.112-35.888-80-80-80v-20c0-11.046-8.954-20-20-20s-20 8.954-20 20v20h-76v-20c0-11.046-8.954-20-20-20s-20 8.954-20 20v20h-76v-20c0-11.046-8.954-20-20-20s-20 8.954-20 20v20c-44.112 0-80 35.888-80 80v232c0 44.112 35.888 80 80 80z"/><path d="m372 232c-77.196 0-140 62.804-140 140s62.804 140 140 140 140-62.804 140-140-62.804-140-140-140zm0 240c-55.141 0-100-44.86-100-100s44.859-100 100-100 100 44.86 100 100-44.859 100-100 100z"/><circle cx="100" cy="172" r="20"/><circle cx="176" cy="172" r="20"/><circle cx="256" cy="172" r="20"/><circle cx="100" cy="252" r="20"/><circle cx="176" cy="252" r="20"/><circle cx="100" cy="332" r="20"/><circle cx="176" cy="332" r="20"/><circle cx="332" cy="172" r="20"/></g></svg>