<svg id="Capa_1" enable-background="new 0 0 512 512" height="512" viewBox="0 0 512 512" width="512" xmlns="http://www.w3.org/2000/svg"><g id="Calendar"><g><g><path d="m416 192h-320c-11.046 0-20-8.954-20-20s8.954-20 20-20h320c11.046 0 20 8.954 20 20s-8.954 20-20 20z"/></g><g><path d="m452 40c-11.046 0-20 8.954-20 20s8.954 20 20 20c11.028 0 20 8.972 20 20v352c0 11.028-8.972 20-20 20h-392c-11.028 0-20-8.972-20-20v-352c0-11.028 8.972-20 20-20h56v20c0 11.046 8.954 20 20 20s20-8.954 20-20v-20h200v20c0 11.046 8.954 20 20 20s20-8.954 20-20v-80c0-11.046-8.954-20-20-20s-20 8.954-20 20v20h-200v-20c0-11.046-8.954-20-20-20s-20 8.954-20 20v20h-56c-33.084 0-60 26.916-60 60v352c0 33.084 26.916 60 60 60h392c33.084 0 60-26.916 60-60v-352c0-33.084-26.916-60-60-60z"/><path d="m136 232h-40c-11.046 0-20 8.954-20 20s8.954 20 20 20h40c11.046 0 20-8.954 20-20s-8.954-20-20-20z"/><path d="m136 312h-40c-11.046 0-20 8.954-20 20s8.954 20 20 20h40c11.046 0 20-8.954 20-20s-8.954-20-20-20z"/><path d="m276 312h-40c-11.046 0-20 8.954-20 20s8.954 20 20 20h40c11.046 0 20-8.954 20-20s-8.954-20-20-20z"/><path d="m276 232h-40c-11.046 0-20 8.954-20 20s8.954 20 20 20h40c11.046 0 20-8.954 20-20s-8.954-20-20-20z"/><path d="m356 252c0 11.046 8.954 20 20 20h40c11.046 0 20-8.954 20-20s-8.954-20-20-20h-40c-11.046 0-20 8.954-20 20z"/><path d="m416 312h-40c-11.046 0-20 8.954-20 20s8.954 20 20 20h40c11.046 0 20-8.954 20-20s-8.954-20-20-20z"/><path d="m136 392h-40c-11.046 0-20 8.954-20 20s8.954 20 20 20h40c11.046 0 20-8.954 20-20s-8.954-20-20-20z"/><path d="m276 392h-40c-11.046 0-20 8.954-20 20s8.954 20 20 20h40c11.046 0 20-8.954 20-20s-8.954-20-20-20z"/><path d="m416 392h-40c-11.046 0-20 8.954-20 20s8.954 20 20 20h40c11.046 0 20-8.954 20-20s-8.954-20-20-20z"/></g></g></g></svg>