<svg id="Capa_1" enable-background="new 0 0 512 512" height="512" viewBox="0 0 512 512" width="512" xmlns="http://www.w3.org/2000/svg"><g id="Calendar_2_"><path d="m404.284 332 25.858-25.858c7.811-7.811 7.811-20.474 0-28.284s-20.474-7.811-28.284 0l-25.858 25.858-25.858-25.858c-7.811-7.811-20.474-7.811-28.284 0s-7.811 20.474 0 28.284l25.858 25.858-25.858 25.858c-7.811 7.811-7.811 20.474 0 28.284 7.811 7.811 20.474 7.811 28.284 0l25.858-25.858 25.858 25.858c7.811 7.811 20.474 7.811 28.284 0 7.811-7.811 7.811-20.474 0-28.284z"/><g><path d="m216 80h80c11.046 0 20-8.954 20-20s-8.954-20-20-20h-80c-11.046 0-20 8.954-20 20s8.954 20 20 20z"/><path d="m432 40h-36v-20c0-11.046-8.954-20-20-20s-20 8.954-20 20v96h-20c-11.046 0-20 8.954-20 20s8.954 20 20 20h80c11.046 0 20-8.954 20-20s-8.954-20-20-20h-20v-36h36c22.056 0 40 17.944 40 40v312c0 22.056-17.944 40-40 40h-352c-22.056 0-40-17.944-40-40v-312c0-22.056 17.944-40 40-40h36v36h-20c-11.046 0-20 8.954-20 20s8.954 20 20 20h80c11.046 0 20-8.954 20-20s-8.954-20-20-20h-20v-96c0-11.046-8.954-20-20-20s-20 8.954-20 20v20h-36c-44.112 0-80 35.888-80 80v312c0 44.112 35.888 80 80 80h352c44.112 0 80-35.888 80-80v-312c0-44.112-35.888-80-80-80z"/><path d="m236 252c0-33.084-26.916-60-60-60s-60 26.916-60 60 26.916 60 60 60 60-26.916 60-60zm-60 20c-11.028 0-20-8.972-20-20s8.972-20 20-20 20 8.972 20 20-8.972 20-20 20z"/><path d="m76 392v20c0 11.046 8.954 20 20 20h160c11.046 0 20-8.954 20-20v-20c0-44.112-35.888-80-80-80h-20-20c-44.112 0-80 35.888-80 80zm120-40c22.056 0 40 17.944 40 40h-120c0-22.056 17.944-40 40-40z"/></g></g></svg>