<svg id="Capa_1" enable-background="new 0 0 512 512" height="512" viewBox="0 0 512 512" width="512" xmlns="http://www.w3.org/2000/svg"><g id="Calendar"><g><path d="m292 80h-72c-11.046 0-20-8.954-20-20s8.954-20 20-20h72c11.046 0 20 8.954 20 20s-8.954 20-20 20z"/></g><g><path d="m432 40h-40v-20c0-11.046-8.954-20-20-20s-20 8.954-20 20v80c0 11.046 8.954 20 20 20s20-8.954 20-20v-20h40c22.056 0 40 17.944 40 40v40h-432v-40c0-22.056 17.944-40 40-40h40v20c0 11.046 8.954 20 20 20s20-8.954 20-20v-80c0-11.046-8.954-20-20-20s-20 8.954-20 20v20h-40c-44.112 0-80 35.888-80 80v312c0 44.112 35.888 80 80 80h352c44.112 0 80-35.888 80-80v-312c0-44.112-35.888-80-80-80zm0 432h-352c-22.056 0-40-17.944-40-40v-232h432v232c0 22.056-17.944 40-40 40z"/><path d="m372 240c-33.084 0-60 26.916-60 60v16h-112v-16c0-33.084-26.916-60-60-60s-60 26.916-60 60v72c0 33.084 26.916 60 60 60s60-26.916 60-60v-16h112v16c0 33.084 26.916 60 60 60s60-26.916 60-60v-72c0-33.084-26.916-60-60-60zm-212 132c0 11.028-8.972 20-20 20s-20-8.972-20-20v-72c0-11.028 8.972-20 20-20s20 8.972 20 20zm232 0c0 11.028-8.972 20-20 20s-20-8.972-20-20v-72c0-11.028 8.972-20 20-20s20 8.972 20 20z"/></g></g></svg>