<svg id="Capa_1" enable-background="new 0 0 512 512" height="512" viewBox="0 0 512 512" width="512" xmlns="http://www.w3.org/2000/svg"><g id="Calendar_1_"><path d="m456 200c11.046 0 20-8.954 20-20v-80c0-33.084-26.916-60-60-60h-20v-20c0-11.046-8.954-20-20-20s-20 8.954-20 20v20h-80v-20c0-11.046-8.954-20-20-20s-20 8.954-20 20v20h-80v-20c0-11.046-8.954-20-20-20s-20 8.954-20 20v20h-20c-33.084 0-60 26.916-60 60v352c0 33.084 26.916 60 60 60h320c33.084 0 60-26.916 60-60v-196c0-11.046-8.954-20-20-20s-20 8.954-20 20v196c0 11.028-8.972 20-20 20h-320c-11.028 0-20-8.972-20-20v-252zm-360-120h20v20c0 11.046 8.954 20 20 20s20-8.954 20-20v-20h80v20c0 11.046 8.954 20 20 20s20-8.954 20-20v-20h80v20c0 11.046 8.954 20 20 20s20-8.954 20-20v-20h20c11.028 0 20 8.972 20 20v60h-360v-60c0-11.028 8.972-20 20-20z"/><g><circle cx="176" cy="256" r="20"/></g><g><circle cx="256" cy="256" r="20"/></g><g><circle cx="336" cy="256" r="20"/></g><g><circle cx="336" cy="336" r="20"/></g><g><circle cx="256" cy="336" r="20"/></g><g><circle cx="176" cy="336" r="20"/></g><g><circle cx="176" cy="416" r="20"/></g><g><circle cx="256" cy="416" r="20"/></g><g><circle cx="336" cy="416" r="20"/></g></g></svg>