<svg id="Capa_1" enable-background="new 0 0 512.005 512.005" height="512" viewBox="0 0 512.005 512.005" width="512" xmlns="http://www.w3.org/2000/svg"><g><circle cx="196.002" cy="100" r="20"/><circle cx="316.002" cy="100" r="20"/><path d="m416.002 140v-80c0-33.084-26.916-60-60-60h-200c-33.084 0-60 26.916-60 60v80c0 26.073 16.722 48.303 40 56.56v46.881c-23.278 8.256-40 30.487-40 56.56 0 24.337 14.573 45.321 35.445 54.724l-34.786 132.185c-2.811 10.682 3.569 21.62 14.251 24.431 10.68 2.812 21.62-3.57 24.431-14.251l36.077-137.09h169.164l36.076 137.09c2.816 10.7 13.771 17.06 24.432 14.251 10.682-2.811 17.062-13.749 14.252-24.431l-34.786-132.187c20.871-9.403 35.444-30.386 35.444-54.723 0-26.073-16.722-48.303-40-56.56v-46.88c23.278-8.257 40-30.487 40-56.56zm-280-80c0-11.028 8.972-20 20-20h200c11.028 0 20 8.972 20 20v80c0 11.028-8.972 20-20 20h-200c-11.028 0-20-8.972-20-20zm20 220h120c11.046 0 20-8.954 20-20s-8.954-20-20-20h-100v-40h160v60c0 11.046 8.954 20 20 20 11.028 0 20 8.972 20 20s-8.972 20-20 20h-200c-11.028 0-20-8.972-20-20s8.973-20 20-20z"/></g></svg>