<svg id="Capa_1" enable-background="new 0 0 512 512" height="512" viewBox="0 0 512 512" width="512" xmlns="http://www.w3.org/2000/svg"><g><path d="m125.857 310.142c7.81 7.81 20.475 7.81 28.285 0 7.811-7.811 7.811-20.474 0-28.284l-25.858-25.858 25.858-25.858c7.811-7.811 7.811-20.474 0-28.284s-20.475-7.811-28.285 0l-40 40c-7.811 7.811-7.811 20.474 0 28.284z"/><path d="m285.857 310.142c7.81 7.81 20.475 7.81 28.285 0l40-40c7.811-7.811 7.811-20.474 0-28.284l-40-40c-7.811-7.811-20.475-7.811-28.285 0s-7.811 20.474 0 28.284l25.859 25.858-25.858 25.858c-7.811 7.81-7.811 20.474-.001 28.284z"/><path d="m195.149 355.403c10.716 2.679 21.574-3.837 24.254-14.552l40-160c2.679-10.716-3.837-21.575-14.553-24.254-10.717-2.679-21.574 3.835-24.254 14.552l-40 160c-2.678 10.716 3.838 21.575 14.553 24.254z"/><path d="m80 512h280c44.112 0 80-35.888 80-80v-312c0-44.112-35.888-80-80-80h-43.44c-8.257-23.278-30.487-40-56.56-40h-80c-26.073 0-48.303 16.722-56.56 40h-43.44c-44.112 0-80 35.888-80 80v312c0 44.112 35.888 80 80 80zm100-472h80c11.028 0 20 8.972 20 20s-8.972 20-20 20h-80c-11.028 0-20-8.972-20-20s8.972-20 20-20zm-140 80c0-22.056 17.944-40 40-40h43.44c8.256 23.278 30.487 40 56.56 40h80c26.073 0 48.303-16.722 56.56-40h43.44c22.056 0 40 17.944 40 40v312c0 22.056-17.944 40-40 40h-280c-22.056 0-40-17.944-40-40z"/><path d="m492 436c11.046 0 20-8.954 20-20v-280c0-11.046-8.954-20-20-20s-20 8.954-20 20v280c0 11.046 8.954 20 20 20z"/><path d="m140 436h160c11.046 0 20-8.954 20-20s-8.954-20-20-20h-160c-11.046 0-20 8.954-20 20s8.954 20 20 20z"/></g></svg>