<svg id="Capa_1" enable-background="new 0 0 512 512" height="512" viewBox="0 0 512 512" width="512" xmlns="http://www.w3.org/2000/svg"><g id="Clipboard"><g><circle cx="156" cy="212" r="20"/></g><g><circle cx="156" cy="292" r="20"/></g><g><circle cx="156" cy="372" r="20"/></g><g><path d="m216 212c0 11.046 8.954 20 20 20h120c11.046 0 20-8.954 20-20s-8.954-20-20-20h-120c-11.046 0-20 8.954-20 20z"/><path d="m356 272h-120c-11.046 0-20 8.954-20 20s8.954 20 20 20h120c11.046 0 20-8.954 20-20s-8.954-20-20-20z"/><path d="m356 352h-120c-11.046 0-20 8.954-20 20s8.954 20 20 20h120c11.046 0 20-8.954 20-20s-8.954-20-20-20z"/><path d="m396 40c-11.046 0-20 8.954-20 20s8.954 20 20 20c11.028 0 20 8.972 20 20v352c0 11.028-8.972 20-20 20h-280c-11.028 0-20-8.972-20-20v-352c0-11.028 8.972-20 20-20h63.44c8.256 23.278 30.487 40 56.56 40h40c33.084 0 60-26.916 60-60s-26.916-60-60-60h-40c-26.073 0-48.303 16.722-56.56 40h-63.44c-33.084 0-60 26.916-60 60v352c0 33.084 26.916 60 60 60h280c33.084 0 60-26.916 60-60v-352c0-33.084-26.916-60-60-60zm-160 0h40c11.028 0 20 8.972 20 20s-8.972 20-20 20h-40c-11.028 0-20-8.972-20-20s8.972-20 20-20z"/></g></g></svg>