<svg id="Capa_1" enable-background="new 0 0 512 512" height="512" viewBox="0 0 512 512" width="512" xmlns="http://www.w3.org/2000/svg"><g><circle cx="256" cy="96" r="20"/><circle cx="256" cy="416" r="20"/><circle cx="96" cy="256" r="20"/><circle cx="416" cy="256" r="20"/><path d="m256 156c-11.046 0-20 8.954-20 20v71.716l-50.688 50.688c-7.811 7.811-7.811 20.474 0 28.284 7.811 7.811 20.474 7.811 28.284 0l56.545-56.545c3.752-3.752 5.859-8.839 5.859-14.143v-80c0-11.046-8.954-20-20-20z"/><path d="m256 0c-143.551 0-256 112.448-256 256s112.449 256 256 256 256-112.448 256-256-112.449-256-256-256zm0 472c-121.122 0-216-94.879-216-216s94.878-216 216-216 216 94.879 216 216-94.878 216-216 216z"/></g></svg>