<svg id="Capa_1" enable-background="new 0 0 512 512" height="512" viewBox="0 0 512 512" width="512" xmlns="http://www.w3.org/2000/svg"><g><path d="m256 512c33.084 0 60-26.916 60-60 0-26.073-16.722-48.303-40-56.56v-23.44c0-11.046-8.954-20-20-20s-20 8.954-20 20v23.44c-23.278 8.256-40 30.487-40 56.56 0 33.084 26.916 60 60 60zm0-80c11.028 0 20 8.972 20 20s-8.972 20-20 20-20-8.972-20-20 8.972-20 20-20z"/><path d="m472.867 150.747c5.936-9.315 3.195-21.679-6.12-27.614l-178.534-113.759c-9.626-6.133-20.765-9.374-32.213-9.374-11.449 0-22.588 3.242-32.212 9.375l-178.535 113.758c-9.315 5.936-12.056 18.299-6.12 27.614 5.935 9.315 18.298 12.055 27.614 6.12l28.5-18.16 21.549 131.075c4.785 29.098 29.683 50.218 59.204 50.218h160c29.521 0 54.419-21.119 59.204-50.218l21.549-131.075 28.5 18.159c9.315 5.937 21.678 3.196 27.614-6.119zm-117.134 112.546c-1.591 9.681-9.89 16.707-19.733 16.707h-160c-9.843 0-18.142-7.026-19.733-16.707l-24.327-147.966 113.342-72.219c3.192-2.033 6.898-3.108 10.718-3.108s7.527 1.075 10.718 3.108l113.341 72.219z"/><path d="m196 180c0 33.084 26.916 60 60 60s60-26.916 60-60-26.916-60-60-60-60 26.916-60 60zm80 0c0 11.028-8.972 20-20 20s-20-8.972-20-20 8.972-20 20-20 20 8.972 20 20z"/></g></svg>