<svg id="Capa_1" enable-background="new 0 0 512 512" height="512" viewBox="0 0 512 512" width="512" xmlns="http://www.w3.org/2000/svg"><g><path d="m176 512h160c11.046 0 20-8.954 20-20s-8.954-20-20-20h-60v-92c0-11.046-8.954-20-20-20s-20 8.954-20 20v92h-60c-11.046 0-20 8.954-20 20s8.954 20 20 20z"/><path d="m336 396c11.046 0 20-8.954 20-20v-56c44.112 0 80-35.888 80-80 0-5.935-.656-11.862-1.951-17.62l-39.513-175.59c-6.043-26.858-30.034-46.79-58.536-46.79h-160c-28.536 0-52.499 19.961-58.537 46.79l-39.511 175.589c-1.295 5.754-1.952 11.682-1.952 17.621 0 44.112 35.888 80 80 80h160v56c0 11.046 8.954 20 20 20zm-220-156c0-2.989.328-5.962.976-8.838l39.512-175.59c2.03-9.023 10.236-15.572 19.512-15.572h160c9.275 0 17.481 6.549 19.513 15.572l39.512 175.587c.647 2.879.976 5.854.976 8.842 0 22.056-17.944 40-40 40h-200.001c-22.056-.001-40-17.945-40-40.001z"/></g></svg>