<svg id="Capa_1" enable-background="new 0 0 512 512" height="512" viewBox="0 0 512 512" width="512" xmlns="http://www.w3.org/2000/svg"><g><path d="m296 80h-80c-11.046 0-20 8.954-20 20s8.954 20 20 20h80c11.046 0 20-8.954 20-20s-8.954-20-20-20z"/><path d="m456 232h-40c-27.631 0-50.946 18.78-57.885 44.242-6.849-2.726-14.306-4.242-22.115-4.242-11.046 0-20 8.954-20 20s8.954 20 20 20c11.028 0 20 8.972 20 20s-8.972 20-20 20h-160c-11.028 0-20-8.972-20-20s8.972-20 20-20h80c11.046 0 20-8.954 20-20v-60h20c55.14 0 100-44.86 100-100v-32c0-55.14-44.86-100-100-100h-80c-55.14 0-100 44.86-100 100v32c0 55.14 44.86 100 100 100h20v40h-60c-7.809 0-15.266 1.516-22.115 4.242-6.939-25.462-30.254-44.242-57.885-44.242h-40c-11.046 0-20 8.954-20 20s8.954 20 20 20h40c11.028 0 20 8.972 20 20v40c0 33.084 26.916 60 60 60h60v40h-60c-33.084 0-60 26.916-60 60 0 11.046 8.954 20 20 20s20-8.954 20-20c0-11.028 8.972-20 20-20h60v20c0 11.046 8.954 20 20 20s20-8.954 20-20v-20h60c11.028 0 20 8.972 20 20 0 11.046 8.954 20 20 20s20-8.954 20-20c0-33.084-26.916-60-60-60h-60v-40h60c33.084 0 60-26.916 60-60v-40c0-11.028 8.972-20 20-20h40c11.046 0 20-8.954 20-20s-8.954-20-20-20zm-300-100v-32c0-33.084 26.916-60 60-60h80c33.084 0 60 26.916 60 60v32c0 33.084-26.916 60-60 60h-80c-33.084 0-60-26.916-60-60z"/></g></svg>