<svg id="Capa_1" enable-background="new 0 0 512 512" height="512" viewBox="0 0 512 512" width="512" xmlns="http://www.w3.org/2000/svg"><g><g><path d="m452 200h-272v-40h40c33.084 0 60-26.916 60-60v-40c0-33.084-26.916-60-60-60h-120c-33.084 0-60 26.916-60 60v40c0 33.084 26.916 60 60 60h40v40h-80c-33.084 0-60 26.916-60 60 0 26.073 16.722 48.303 40 56.56v175.44c0 11.046 8.954 20 20 20s20-8.954 20-20v-172h372c33.084 0 60-26.916 60-60s-26.916-60-60-60zm-372-100v-40c0-11.028 8.972-20 20-20h120c11.028 0 20 8.972 20 20v40c0 11.028-8.972 20-20 20h-120c-11.028 0-20-8.972-20-20zm372 180h-392c-11.028 0-20-8.972-20-20s8.972-20 20-20h392c11.028 0 20 8.972 20 20s-8.972 20-20 20z"/><path d="m476 492v-112c0-11.046-8.954-20-20-20s-20 8.954-20 20v112c0 11.046 8.954 20 20 20s20-8.954 20-20z"/></g><g><g><path d="m336 160c-11.046 0-20-8.954-20-20v-80c0-11.046 8.954-20 20-20s20 8.954 20 20v80c0 11.046-8.954 20-20 20z"/></g><g><path d="m412 160c-11.046 0-20-8.954-20-20v-80c0-11.046 8.954-20 20-20s20 8.954 20 20v80c0 11.046-8.954 20-20 20z"/></g></g></g></svg>