<svg id="Capa_1" enable-background="new 0 0 512 512" height="512" viewBox="0 0 512 512" width="512" xmlns="http://www.w3.org/2000/svg"><g id="Digital_Clock"><g><circle cx="256" cy="236" r="20"/></g><g><circle cx="256" cy="316" r="20"/></g><g><path d="m452 136h-20v-20c0-33.084-26.916-60-60-60h-232c-33.084 0-60 26.916-60 60v20h-20c-33.084 0-60 26.916-60 60v160c0 33.084 26.916 60 60 60h20v20c0 11.046 8.954 20 20 20s20-8.954 20-20v-20h272v20c0 11.046 8.954 20 20 20s20-8.954 20-20v-20h20c33.084 0 60-26.916 60-60v-160c0-33.084-26.916-60-60-60zm20 220c0 11.028-8.972 20-20 20h-392c-11.028 0-20-8.972-20-20v-160c0-11.028 8.972-20 20-20h272c11.046 0 20-8.954 20-20s-8.954-20-20-20h-212v-20c0-11.028 8.972-20 20-20h232c11.028 0 20 8.972 20 20v40c0 11.046 8.954 20 20 20h40c11.028 0 20 8.972 20 20z"/><path d="m100 216c-11.046 0-20 8.954-20 20v80c0 11.046 8.954 20 20 20s20-8.954 20-20v-80c0-11.046-8.954-20-20-20z"/><path d="m180 216c-11.046 0-20 8.954-20 20v80c0 11.046 8.954 20 20 20s20-8.954 20-20v-80c0-11.046-8.954-20-20-20z"/><path d="m372 216c-33.084 0-60 26.916-60 60s26.916 60 60 60 60-26.916 60-60-26.916-60-60-60zm0 80c-11.028 0-20-8.972-20-20s8.972-20 20-20 20 8.972 20 20-8.972 20-20 20z"/></g></g></svg>