<svg id="Capa_1" enable-background="new 0 0 512.003 512.003" height="512" viewBox="0 0 512.003 512.003" width="512" xmlns="http://www.w3.org/2000/svg"><g><path d="m296.001 116h-80c-11.046 0-20 8.954-20 20s8.954 20 20 20h80c11.046 0 20-8.954 20-20s-8.954-20-20-20z"/><path d="m136.001 0c-11.046 0-20 8.954-20 20v255.44c-23.278 8.256-40 30.487-40 56.56 0 33.084 26.916 60 60 60h13.945l70 46.667-55.038 36.692c-9.19 6.127-11.675 18.544-5.547 27.735 6.127 9.191 18.544 11.674 27.734 5.547l68.906-45.938 68.906 45.938c9.19 6.127 21.608 3.643 27.734-5.547 6.128-9.191 3.644-21.608-5.547-27.735l-55.038-36.692 70-46.667h13.945c33.084 0 60-26.916 60-60s-26.916-60-60-60h-220v-40h220c11.046 0 20-8.954 20-20v-192c0-11.046-8.954-20-20-20s-20 8.954-20 20v20h-200v-20c0-11.046-8.954-20-20-20zm120 414.63-33.944-22.63h67.889zm140-82.63c0 11.028-8.972 20-20 20h-240c-11.028 0-20-8.972-20-20s8.972-20 20-20h240c11.029 0 20 8.972 20 20zm-40-252v112h-200v-112z"/></g></svg>