<svg id="Layer_1" enable-background="new 0 0 512 512" height="512" viewBox="0 0 512 512" width="512" xmlns="http://www.w3.org/2000/svg"><path d="m458 329.361v-26.361c0-33.084-26.916-60-60-60s-60 26.916-60 60v26.022c-31.902 10.524-55 40.596-55 75.978v27c0 44.112 35.888 80 80 80h69c44.112 0 80-35.888 80-80v-27c0-35.011-22.617-64.82-54-75.639zm-60-46.361c11.028 0 20 8.972 20 20v22h-40v-22c0-11.028 8.972-20 20-20zm74 149c0 22.056-17.944 40-40 40h-69c-22.056 0-40-17.944-40-40v-27c0-22.056 17.944-40 40-40h69c22.056 0 40 17.944 40 40zm-218 60c0 11.046-8.954 20-20 20h-114c-66.168 0-120-53.832-120-120v-272c0-66.168 53.832-120 120-120h177c66.168 0 120 53.832 120 120v63c0 11.046-8.954 20-20 20s-20-8.954-20-20v-63c0-44.112-35.888-80-80-80h-177c-44.112 0-80 35.888-80 80v272c0 44.112 35.888 80 80 80h114c11.046 0 20 8.954 20 20zm62-288h-34c-38.598 0-70-31.402-70-70v-34c0-11.046 8.954-20 20-20s20 8.954 20 20v34c0 16.542 13.458 30 30 30h34c11.046 0 20 8.954 20 20s-8.954 20-20 20zm-89 191h-92c-11.046 0-20-8.954-20-20s8.954-20 20-20h92c11.046 0 20 8.954 20 20s-8.954 20-20 20zm66-97c0-11.046-8.954-20-20-20h-138c-11.046 0-20 8.954-20 20s8.954 20 20 20h138c11.046 0 20-8.954 20-20zm-175-88c0 13.807 11.193 25 25 25s25-11.193 25-25-11.193-25-25-25-25 11.193-25 25zm280 184c-13.807 0-25 11.193-25 25s11.193 25 25 25 25-11.193 25-25-11.193-25-25-25z"/></svg>