<svg id="Capa_1" enable-background="new 0 0 512 512" height="512" viewBox="0 0 512 512" width="512" xmlns="http://www.w3.org/2000/svg"><g id="Document_1_"><path d="m16 212v240c0 33.084 26.916 60 60 60h200c33.084 0 60-26.916 60-60v-20h100c33.084 0 60-26.916 60-60v-312c0-33.084-26.916-60-60-60h-200c-33.084 0-60 26.916-60 60v32c0 11.046 8.954 20 20 20s20-8.954 20-20v-32c0-11.028 8.972-20 20-20h200c11.028 0 20 8.972 20 20v312c0 11.028-8.972 20-20 20s-20-8.972-20-20v-160c0-33.084-26.916-60-60-60h-280c-33.084 0-60 26.916-60 60zm320 180v-180c0-11.028 8.972-20 20-20s20 8.972 20 20v160c0 7.011 1.22 13.74 3.44 20zm-280-180c0-11.028 8.972-20 20-20h223.427c-2.219 6.258-3.427 12.991-3.427 20v240c0 11.028-8.972 20-20 20h-200c-11.028 0-20-8.972-20-20z"/><g><path d="m116 272h120c11.046 0 20-8.954 20-20s-8.954-20-20-20h-120c-11.046 0-20 8.954-20 20s8.954 20 20 20z"/></g><g><path d="m116 352h120c11.046 0 20-8.954 20-20s-8.954-20-20-20h-120c-11.046 0-20 8.954-20 20s8.954 20 20 20z"/></g><g><path d="m116 432h120c11.046 0 20-8.954 20-20s-8.954-20-20-20h-120c-11.046 0-20 8.954-20 20s8.954 20 20 20z"/></g></g></svg>