<svg id="Capa_1" enable-background="new 0 0 511.994 511.994" height="512" viewBox="0 0 511.994 511.994" width="512" xmlns="http://www.w3.org/2000/svg"><path d="m489.523 135.144c.323-.322-.298.343 0 0zm22.462-55.706c.046 20.958-7.92 40.687-22.462 55.706-18.461 18.461-33.95 28.344-45.648 35.482-19.464 11.878-32.321 19.725-57.142 73.979-5.356 11.708-16.19 20.072-28.98 22.373-2.398.432-4.811.644-7.205.644-10.67.001-21.023-4.204-28.685-11.868l-66.017-66.049c-9.427-9.43-13.609-22.912-11.188-36.064 2.358-12.815 10.794-23.618 22.564-28.896 52.599-23.59 56.692-30.765 65.662-46.487 6.871-12.044 16.28-28.539 41.95-54.311 31.388-31.511 82.305-31.985 113.503-1.06 15.203 15.068 23.6 35.152 23.648 56.551zm-40 .089c-.023-10.683-4.217-20.708-11.806-28.231-15.576-15.437-41.147-15.042-57.005.88-21.907 21.994-29.47 35.251-35.547 45.902-13.161 23.071-22.232 35.411-83.643 62.988.006.115.041.251.151.361l66.018 66.05c.112.112.248.145.36.147 13.362-29.161 25.347-49.324 37.7-63.43 12.154-13.879 23.679-20.911 34.823-27.713 10.702-6.53 22.604-14.171 37.27-28.676 7.555-7.551 11.703-17.595 11.679-28.278zm-210.729 197.482c-7.637 7.977-7.505 21.264.312 29.08l6.56 6.56c7.81 7.811 7.81 20.475 0 28.285l-159.324 159.324c-7.531 7.553-17.58 11.729-28.275 11.736h-.031c-10.685 0-20.727-4.159-28.283-11.715l-40.515-40.514c-15.573-15.574-15.591-40.932-.04-56.527l159.386-159.387c3.752-3.751 8.839-5.857 14.143-5.857h.058c5.325.016 10.424 2.153 14.166 5.94l5.014 5.072c3.763 3.806 8.78 5.9 14.132 5.9h.025c5.354-.007 10.37-2.109 14.127-5.921.043-.043.086-.087.129-.13.001-.001.003-.001.004-.005l9-9c7.811-7.811 20.475-7.811 28.285 0s7.81 20.475 0 28.285zm-181.271 114.472-40.021 40.021 40.021 39.979zm72-72-32 32v81.026l32-32zm74.394 6.631c-6.51-9.384-10.08-20.257-10.697-31.271-8.35-.392-16.38-2.484-23.696-6.114v71.78z"/></svg>