<svg id="Capa_1" enable-background="new 0 0 512 512" height="512" viewBox="0 0 512 512" width="512" xmlns="http://www.w3.org/2000/svg"><g id="File"><g><g><g><path d="m452 256h-332v-174.26c0-14.193 11.547-25.74 25.739-25.74h220.521c14.193 0 25.74 11.547 25.74 25.74v118.359c0 11.046 8.954 20 20 20s20-8.954 20-20v-118.359c0-36.249-29.49-65.74-65.739-65.74h-220.522c-36.249 0-65.739 29.491-65.739 65.74v174.26h-20c-33.084 0-60 26.916-60 60v80c0 55.14 44.859 100 100 100h312c55.141 0 100-44.86 100-100v-80c0-33.084-26.916-60-60-60zm20 140c0 33.084-26.916 60-60 60h-312c-33.084 0-60-26.916-60-60v-80c0-11.028 8.972-20 20-20h392c11.028 0 20 8.972 20 20z"/><path d="m332 336c-11.046 0-20 8.954-20 20 0 11.028-8.972 20-20 20h-72c-11.028 0-20-8.972-20-20 0-11.046-8.954-20-20-20s-20 8.954-20 20c0 33.084 26.916 60 60 60h72c33.084 0 60-26.916 60-60 0-11.046-8.954-20-20-20z"/></g><g><path d="m332 136h-152c-11.046 0-20-8.954-20-20s8.954-20 20-20h152c11.046 0 20 8.954 20 20s-8.954 20-20 20z"/></g><g><path d="m332 216h-152c-11.046 0-20-8.954-20-20s8.954-20 20-20h152c11.046 0 20 8.954 20 20s-8.954 20-20 20z"/></g></g></g></g></svg>