<svg id="Capa_1" enable-background="new 0 0 512 512" height="512" viewBox="0 0 512 512" width="512" xmlns="http://www.w3.org/2000/svg"><g id="File_1_"><g><circle cx="136" cy="232" r="20"/></g><g><circle cx="136" cy="312" r="20"/></g><g><circle cx="136" cy="392" r="20"/></g><g><path d="m416 80c-11.046 0-20 8.954-20 20s8.954 20 20 20c11.028 0 20 8.972 20 20v312c0 11.028-8.972 20-20 20h-320c-11.028 0-20-8.972-20-20v-312c0-11.028 8.972-20 20-20h60v20c0 11.046 8.954 20 20 20h160c11.046 0 20-8.954 20-20v-40c0-33.084-26.916-60-60-60h-20v-20c0-11.046-8.954-20-20-20s-20 8.954-20 20v20h-20c-26.073 0-48.303 16.722-56.56 40h-63.44c-33.084 0-60 26.916-60 60v312c0 33.084 26.916 60 60 60h320c33.084 0 60-26.916 60-60v-312c0-33.084-26.916-60-60-60zm-200 0h80c11.028 0 20 8.972 20 20v20h-120v-20c0-11.028 8.972-20 20-20z"/><path d="m196 232c0 11.046 8.954 20 20 20h160c11.046 0 20-8.954 20-20s-8.954-20-20-20h-160c-11.046 0-20 8.954-20 20z"/><path d="m376 372h-160c-11.046 0-20 8.954-20 20s8.954 20 20 20h160c11.046 0 20-8.954 20-20s-8.954-20-20-20z"/><path d="m376 292h-160c-11.046 0-20 8.954-20 20s8.954 20 20 20h160c11.046 0 20-8.954 20-20s-8.954-20-20-20z"/></g></g></svg>