<svg id="Capa_1" enable-background="new 0 0 512 512" height="512" viewBox="0 0 512 512" width="512" xmlns="http://www.w3.org/2000/svg"><g id="Files"><path d="m456 200c-11.046 0-20 8.954-20 20v152c0 11.028-8.972 20-20 20h-240c-11.028 0-20-8.972-20-20v-312c0-11.028 8.972-20 20-20h140v60c0 33.084 26.916 60 60 60h80c8.089 0 15.382-4.873 18.478-12.346 3.096-7.474 1.385-16.076-4.335-21.796l-120-120c-3.844-3.843-9.075-5.858-14.143-5.858h-160c-33.084 0-60 26.916-60 60v20h-20c-33.084 0-60 26.916-60 60v312c0 33.084 26.916 60 60 60h240c33.084 0 60-26.916 60-60v-20h20c33.084 0 60-26.916 60-60v-152c0-11.046-8.954-20-20-20zm-80-80c-11.028 0-20-8.972-20-20v-31.716l51.715 51.716zm-20 332c0 11.028-8.972 20-20 20h-240c-11.028 0-20-8.972-20-20v-312c0-11.028 8.972-20 20-20h20v252c0 33.084 26.916 60 60 60h180z"/><g><path d="m376 240h-160c-11.046 0-20-8.954-20-20s8.954-20 20-20h160c11.046 0 20 8.954 20 20s-8.954 20-20 20z"/></g><g><path d="m376 320h-160c-11.046 0-20-8.954-20-20s8.954-20 20-20h160c11.046 0 20 8.954 20 20s-8.954 20-20 20z"/></g></g></svg>