<svg id="Capa_1" enable-background="new 0 0 512 512" height="512" viewBox="0 0 512 512" width="512" xmlns="http://www.w3.org/2000/svg"><g><g><path d="m336 472h-240c-11.028 0-20-8.972-20-20v-392c0-11.028 8.972-20 20-20h140v60c0 33.084 26.916 60 60 60h60v52c0 11.046 8.954 20 20 20s20-8.954 20-20v-72c0-5.088-2.036-10.322-5.857-14.142l-119.999-119.998c-.004-.004-.007-.007-.011-.01-3.703-3.7-8.869-5.85-14.133-5.85h-160c-33.084 0-60 26.916-60 60v392c0 33.084 26.916 60 60 60h240c11.046 0 20-8.954 20-20s-8.954-20-20-20zm-40-352c-11.028 0-20-8.972-20-20v-31.716l51.716 51.716z"/><path d="m416 272h-200c-33.084 0-60 26.916-60 60v40c0 33.084 26.916 60 60 60h200c33.084 0 60-26.916 60-60v-40c0-33.084-26.916-60-60-60zm20 100c0 11.028-8.972 20-20 20h-200c-11.028 0-20-8.972-20-20v-40c0-11.028 8.972-20 20-20h200c11.028 0 20 8.972 20 20z"/><path d="m136 196c-11.046 0-20 8.954-20 20s8.954 20 20 20h120c11.046 0 20-8.954 20-20s-8.954-20-20-20z"/></g><g><path d="m176 160h-40c-11.046 0-20-8.954-20-20s8.954-20 20-20h40c11.046 0 20 8.954 20 20s-8.954 20-20 20z"/></g></g></svg>