<svg id="Capa_1" enable-background="new 0 0 512.004 512.004" height="512" viewBox="0 0 512.004 512.004" width="512" xmlns="http://www.w3.org/2000/svg"><g id="Fireworks"><g><path d="m256.002 280.004c-22.881 0-43.453-12.719-53.688-33.194l-17.706-35.413-35.275-17.639c-20.531-10.161-33.331-30.773-33.331-53.755 0-22.98 12.799-43.592 33.401-53.792l35.202-17.602 17.639-35.277c10.168-20.532 30.779-33.328 53.758-33.328s43.592 12.797 53.792 33.398l17.604 35.208 35.412 17.707c20.473 10.234 33.191 30.806 33.191 53.687 0 22.879-12.718 43.45-33.191 53.687l-35.414 17.707-17.707 35.414c-10.239 20.474-30.81 33.192-53.687 33.192zm0-240c-7.664 0-14.541 4.272-17.946 11.149l-20.654 41.309c-1.936 3.871-5.074 7.009-8.944 8.944l-41.235 20.618c-6.947 3.44-11.22 10.316-11.22 17.98s4.271 14.539 11.146 17.942l41.312 20.657c3.871 1.935 7.009 5.073 8.944 8.944l20.688 41.377c3.417 6.835 10.278 11.081 17.909 11.081 7.63 0 14.492-4.246 17.911-11.082l20.688-41.375c1.936-3.871 5.074-7.009 8.944-8.944l41.377-20.688c6.835-3.417 11.08-10.28 11.08-17.91 0-7.631-4.244-14.493-11.077-17.909-.001 0-41.378-20.69-41.378-20.69-3.871-1.935-7.009-5.073-8.944-8.944l-20.62-41.24c-3.44-6.948-10.316-11.219-17.981-11.219z"/></g><g><path d="m256.002 512.004c-11.046 0-20-8.954-20-20v-156c0-11.046 8.954-20 20-20s20 8.954 20 20v156c0 11.045-8.954 20-20 20z"/></g><g><path d="m100.002 392.004c-11.046 0-20-8.954-20-20v-40c0-11.046 8.954-20 20-20s20 8.954 20 20v40c0 11.045-8.954 20-20 20z"/></g><g><path d="m100.002 512.004c-11.046 0-20-8.954-20-20v-40c0-11.046 8.954-20 20-20s20 8.954 20 20v40c0 11.045-8.954 20-20 20z"/></g><g><path d="m60.002 432.004h-40c-11.046 0-20-8.954-20-20s8.954-20 20-20h40c11.046 0 20 8.954 20 20s-8.954 20-20 20z"/></g><g><path d="m180.002 432.004h-40c-11.046 0-20-8.954-20-20s8.954-20 20-20h40c11.046 0 20 8.954 20 20s-8.954 20-20 20z"/></g><g><path d="m412.002 392.004c-11.046 0-20-8.954-20-20v-40c0-11.046 8.954-20 20-20s20 8.954 20 20v40c0 11.045-8.954 20-20 20z"/></g><g><path d="m412.002 512.004c-11.046 0-20-8.954-20-20v-40c0-11.046 8.954-20 20-20s20 8.954 20 20v40c0 11.045-8.954 20-20 20z"/></g><g><path d="m372.002 432.004h-40c-11.046 0-20-8.954-20-20s8.954-20 20-20h40c11.046 0 20 8.954 20 20s-8.954 20-20 20z"/></g><g><path d="m492.002 432.004h-40c-11.046 0-20-8.954-20-20s8.954-20 20-20h40c11.046 0 20 8.954 20 20s-8.954 20-20 20z"/></g><g><path d="m492.002 160.004h-40c-11.046 0-20-8.954-20-20s8.954-20 20-20h40c11.046 0 20 8.954 20 20s-8.954 20-20 20z"/></g><g><path d="m60.002 160.004h-40c-11.046 0-20-8.954-20-20s8.954-20 20-20h40c11.046 0 20 8.954 20 20s-8.954 20-20 20z"/></g><g><path d="m411.887 50.004c-5.523-9.566-2.245-21.797 7.32-27.32l34.641-20c9.565-5.523 21.798-2.246 27.32 7.32 5.523 9.566 2.245 21.797-7.32 27.32l-34.641 20c-9.524 5.499-21.773 2.288-27.32-7.32z"/></g><g><path d="m30.836 270.004c-5.523-9.566-2.245-21.797 7.32-27.32l34.641-20c9.565-5.524 21.798-2.246 27.32 7.32 5.523 9.566 2.245 21.797-7.32 27.32l-34.641 20c-9.524 5.499-21.773 2.288-27.32-7.32z"/></g><g><path d="m453.848 277.324-34.641-20c-9.565-5.523-12.844-17.754-7.32-27.32 5.522-9.565 17.757-12.843 27.32-7.32l34.641 20c9.565 5.523 12.844 17.754 7.32 27.32-5.539 9.593-17.782 12.829-27.32 7.32z"/></g><g><path d="m72.797 57.324-34.641-20c-9.565-5.523-12.844-17.754-7.32-27.32 5.523-9.565 17.757-12.843 27.32-7.32l34.641 20c9.565 5.523 12.844 17.754 7.32 27.32-5.538 9.593-17.782 12.829-27.32 7.32z"/></g></g></svg>