<svg id="Capa_1" enable-background="new 0 0 512 512" height="512" viewBox="0 0 512 512" width="512" xmlns="http://www.w3.org/2000/svg"><g><path d="m134.756 326c-5.523-9.566-17.754-12.844-27.32-7.32l-34.604 19.979c-9.566 5.522-12.843 17.754-7.32 27.32 5.524 9.567 17.753 12.844 27.32 7.32l34.604-19.979c9.566-5.522 12.843-17.754 7.32-27.32z"/><path d="m419.168 138.701-34.604 19.979c-9.566 5.523-12.844 17.755-7.32 27.321 5.524 9.567 17.753 12.843 27.32 7.32l34.604-19.979c9.566-5.523 12.844-17.755 7.32-27.321s-17.755-12.844-27.32-7.32z"/><path d="m186 377.244c-9.566-5.524-21.797-2.246-27.32 7.32l-19.979 34.604c-5.523 9.566-2.246 21.797 7.32 27.32s21.798 2.246 27.32-7.32l19.979-34.604c5.523-9.566 2.246-21.797-7.32-27.32z"/><path d="m326 134.757c9.567 5.522 21.797 2.246 27.32-7.321l19.979-34.604c5.523-9.566 2.245-21.798-7.32-27.321-9.567-5.521-21.798-2.245-27.32 7.321l-19.979 34.604c-5.524 9.566-2.245 21.798 7.32 27.321z"/><path d="m353.32 384.564c-5.522-9.566-17.755-12.843-27.32-7.321-9.565 5.523-12.844 17.755-7.32 27.321l19.979 34.604c5.523 9.568 17.752 12.844 27.32 7.321 9.565-5.523 12.844-17.755 7.32-27.321z"/><path d="m173.341 72.832c-5.524-9.567-17.756-12.843-27.32-7.32-9.566 5.523-12.843 17.754-7.32 27.32l19.979 34.604c5.524 9.567 17.753 12.844 27.32 7.32 9.566-5.523 12.843-17.754 7.32-27.32z"/><path d="m439.168 338.659-34.604-19.979c-9.563-5.522-21.797-2.246-27.32 7.32s-2.246 21.798 7.32 27.321l34.604 19.979c9.565 5.524 21.798 2.245 27.32-7.32 5.524-9.566 2.246-21.798-7.32-27.321z"/><path d="m65.511 146.021c-5.523 9.566-2.246 21.798 7.32 27.32l34.604 19.979c9.566 5.523 21.798 2.246 27.32-7.32 5.523-9.566 2.246-21.798-7.32-27.32l-34.604-19.979c-9.565-5.525-21.797-2.246-27.32 7.32z"/><path d="m276 96v-76c0-11.046-8.954-20-20-20s-20 8.954-20 20v76c0 11.046 8.954 20 20 20s20-8.954 20-20z"/><path d="m236 416v76c0 11.046 8.954 20 20 20s20-8.954 20-20v-76c0-11.046-8.954-20-20-20s-20 8.954-20 20z"/><path d="m61.858 90.142c7.811 7.811 20.474 7.811 28.284 0 7.811-7.811 7.811-20.474 0-28.284l-56-56c-7.811-7.811-20.474-7.811-28.284 0s-7.811 20.474 0 28.284z"/><path d="m90.142 421.858c-7.811-7.811-20.474-7.811-28.284 0l-56 56c-7.811 7.811-7.811 20.474 0 28.284 7.811 7.811 20.474 7.811 28.284 0l56-56c7.811-7.81 7.811-20.474 0-28.284z"/><path d="m20 276h76c11.046 0 20-8.954 20-20s-8.954-20-20-20h-76c-11.046 0-20 8.954-20 20s8.954 20 20 20z"/><path d="m492 236h-76c-11.046 0-20 8.954-20 20s8.954 20 20 20h76c11.046 0 20-8.954 20-20s-8.954-20-20-20z"/><path d="m156 256c0 55.14 44.86 100 100 100 55.141 0 100-44.86 100-100s-44.859-100-100-100c-55.14 0-100 44.86-100 100zm100-60c33.084 0 60 26.916 60 60s-26.916 60-60 60-60-26.916-60-60 26.916-60 60-60z"/><path d="m450.143 90.142 56-56c7.81-7.811 7.81-20.474 0-28.284-7.811-7.811-20.475-7.811-28.285 0l-56 56c-7.81 7.811-7.81 20.474 0 28.284 7.81 7.811 20.474 7.811 28.285 0z"/><path d="m450.143 421.858c-7.811-7.811-20.475-7.811-28.285 0s-7.81 20.474 0 28.284l56 56c7.81 7.81 20.475 7.81 28.285 0 7.81-7.811 7.81-20.474 0-28.284z"/></g></svg>