<svg id="Capa_1" enable-background="new 0 0 512.529 512.529" height="512" viewBox="0 0 512.529 512.529" width="512" xmlns="http://www.w3.org/2000/svg"><g id="Files"><g><g><g><circle cx="100.269" cy="100.507" r="20"/></g><g><path d="m140.269 512.507h-80c-33.084 0-60-26.916-60-60v-392c0-33.084 26.916-60 60-60h80c33.084 0 60 26.916 60 60v392c0 33.084-26.916 60-60 60zm-80-472c-11.028 0-20 8.972-20 20v392c0 11.028 8.972 20 20 20h80c11.028 0 20-8.972 20-20v-392c0-11.028-8.972-20-20-20z"/></g></g><g><path d="m100.269 432.507c-11.046 0-20-8.954-20-20v-112c0-11.046 8.954-20 20-20s20 8.954 20 20v112c0 11.046-8.954 20-20 20z"/></g></g><g><g><g><g><g><path d="m355.026 507.832c-14.781-6.195-26.264-17.776-32.335-32.608l-88.932-217.281c-4.184-10.223.711-21.901 10.934-26.085 10.222-4.184 21.901.711 26.085 10.934l88.932 217.281c2.023 4.944 5.852 8.804 10.778 10.869 4.927 2.066 10.363 2.088 15.307.064l74.039-30.304c4.944-2.023 8.804-5.851 10.869-10.778s2.088-10.363.064-15.307c-.027-.069-143.551-362.277-143.551-362.277-4.207-10.149-15.873-15.016-26.051-10.849l-35.527 14.542c-10.224 4.183-21.901-.711-26.086-10.934-4.184-10.223.711-21.902 10.934-26.086l35.528-14.542c30.619-12.531 65.725 2.183 78.257 32.802.028.069 143.563 362.305 143.563 362.305 12.45 30.592-2.266 65.626-32.848 78.144l-74.038 30.304c-14.449 5.913-30.763 6.16-45.922-.194z"/></g><g><circle cx="287.066" cy="112.109" r="20"/></g></g><g><path d="m381.578 407.901-45.455-111.058c-4.184-10.223.711-21.901 10.934-26.085 10.224-4.183 21.901.711 26.085 10.934l45.455 111.058c4.184 10.223-.711 21.901-10.934 26.085s-21.901-.711-26.085-10.934z"/></g></g></g></g></g></svg>