<svg id="Capa_1" enable-background="new 0 0 512.022 512.022" height="512" viewBox="0 0 512.022 512.022" width="512" xmlns="http://www.w3.org/2000/svg"><g id="Link"><g><path d="m327.147 396.035c-7.811-7.811-7.811-20.474 0-28.284l56.569-56.569c7.811-7.811 20.474-7.811 28.284 0s7.811 20.474 0 28.284l-56.569 56.569c-7.809 7.809-20.472 7.811-28.284 0z"/></g><g><path d="m440.284 396.035c-7.811-7.811-7.811-20.474 0-28.284l14.142-14.142c23.448-23.448 23.451-61.402 0-84.853-23.448-23.448-61.402-23.45-84.853 0l-14.143 14.142c-7.812 7.811-20.475 7.81-28.285 0-7.81-7.811-7.81-20.474 0-28.284l14.143-14.142c39.079-39.079 102.336-39.085 141.421 0 39.08 39.079 39.085 102.336 0 141.421l-14.142 14.142c-7.809 7.81-20.472 7.81-28.283 0z"/></g><g><path d="m256.437 466.745c-39.08-39.079-39.085-102.337 0-141.421l14.142-14.142c7.811-7.811 20.474-7.811 28.284 0s7.811 20.474 0 28.284l-14.142 14.142c-23.448 23.448-23.451 61.402 0 84.853 23.394 23.394 61.458 23.394 84.853 0l14.142-14.142c7.811-7.811 20.474-7.81 28.284 0 7.811 7.811 7.811 20.474 0 28.284l-14.142 14.142c-38.99 38.989-102.43 38.991-141.421 0z"/></g><g><path d="m172.267 376.035h-112.267c-33.084 0-60-26.916-60-60v-240c0-33.084 26.916-60 60-60h95.432c16.026 0 31.094 6.241 42.426 17.573l22.426 22.427h111.716c33.084 0 60 26.916 60 60v40.267c0 11.046-8.954 20-20 20s-20-8.954-20-20v-40.267c0-11.028-8.972-20-20-20h-120c-5.304 0-10.392-2.107-14.142-5.858l-28.284-28.284c-3.777-3.777-8.8-5.858-14.142-5.858h-95.432c-11.028 0-20 8.972-20 20v240c0 11.028 8.972 20 20 20h112.267c11.046 0 20 8.954 20 20s-8.955 20-20 20z"/></g></g></svg>