<svg id="Capa_1" enable-background="new 0 0 512 512" height="512" viewBox="0 0 512 512" width="512" xmlns="http://www.w3.org/2000/svg"><g><path d="m219.825 427.419c6.737 3.543 14.905 2.952 21.062-1.522 6.159-4.475 9.243-12.058 7.956-19.561l-7.762-45.251 32.878-32.048c5.452-5.314 7.414-13.262 5.062-20.502s-8.611-12.517-16.146-13.612l-45.436-6.603-20.319-41.171c-3.368-6.827-10.32-11.149-17.933-11.149s-14.565 4.322-17.935 11.149l-20.319 41.171-45.436 6.603c-7.533 1.095-13.793 6.372-16.146 13.611-2.353 7.24-.391 15.188 5.062 20.502l32.877 32.048-7.761 45.251c-1.287 7.503 1.798 15.086 7.956 19.561 6.16 4.474 14.324 5.065 21.062 1.522l40.639-21.365zm-64.021-54.263 2.688-15.674c1.113-6.488-1.038-13.108-5.752-17.703l-11.388-11.101 15.738-2.287c6.515-.946 12.146-5.038 15.059-10.941l7.038-14.26 7.038 14.26c2.913 5.903 8.544 9.995 15.059 10.941l15.737 2.287-11.388 11.101c-4.714 4.595-6.865 11.215-5.752 17.703l2.688 15.673-14.076-7.4c-5.826-3.063-12.787-3.063-18.613 0z"/><path d="m432 200h-152c0-44.112-35.888-80-80-80h-80v-40c0-22.056 17.944-40 40-40h196c22.056 0 40 17.944 40 40v60c0 11.046 8.954 20 20 20s20-8.954 20-20v-60c0-44.112-35.888-80-80-80h-196c-44.112 0-80 35.888-80 80v40c-44.112 0-80 35.888-80 80v232c0 44.112 35.888 80 80 80h352c44.112 0 80-35.888 80-80v-152c0-44.112-35.888-80-80-80zm40 232c0 22.056-17.944 40-40 40h-352c-22.056 0-40-17.944-40-40v-232c0-22.056 17.944-40 40-40h120c22.056 0 40 17.944 40 40v20c0 11.046 8.954 20 20 20h172c22.056 0 40 17.944 40 40z"/></g></svg>