<svg id="Capa_1" enable-background="new 0 0 512 512" height="512" viewBox="0 0 512 512" width="512" xmlns="http://www.w3.org/2000/svg"><path d="m199 178c0 11.046-8.954 20-20 20h-80c-11.046 0-20-8.954-20-20s8.954-20 20-20h80c11.046 0 20 8.954 20 20zm-20-98h-80c-11.046 0-20 8.954-20 20s8.954 20 20 20h80c11.046 0 20-8.954 20-20s-8.954-20-20-20zm236 0h-80c-11.046 0-20 8.954-20 20s8.954 20 20 20h80c11.046 0 20-8.954 20-20s-8.954-20-20-20zm97 20v312c0 55.14-44.86 100-100 100h-76c-32.676 0-61.741-15.752-80-40.063-18.259 24.311-47.324 40.063-80 40.063h-76c-55.14 0-100-44.86-100-100v-312c0-55.14 44.86-100 100-100h76c32.676 0 61.741 15.752 80 40.063 18.259-24.311 47.324-40.063 80-40.063h76c55.14 0 100 44.86 100 100zm-276 0c0-33.084-26.916-60-60-60h-76c-33.084 0-60 26.916-60 60v312c0 33.084 26.916 60 60 60h76c33.084 0 60-26.916 60-60v-135h-137c-11.046 0-20-8.954-20-20s8.954-20 20-20h137zm236 0c0-33.084-26.916-60-60-60h-76c-33.084 0-60 26.916-60 60v312c0 33.084 26.916 60 60 60h76c33.084 0 60-26.916 60-60v-135h-137c-11.046 0-20-8.954-20-20s8.954-20 20-20h137zm-57 58h-80c-11.046 0-20 8.954-20 20s8.954 20 20 20h80c11.046 0 20-8.954 20-20s-8.954-20-20-20zm-336 214c0-33.084 26.916-60 60-60s60 26.916 60 60-26.916 60-60 60-60-26.916-60-60zm40 0c0 11.028 8.972 20 20 20s20-8.972 20-20-8.972-20-20-20-20 8.972-20 20zm196 0c0-33.084 26.916-60 60-60s60 26.916 60 60-26.916 60-60 60-60-26.916-60-60zm40 0c0 11.028 8.972 20 20 20s20-8.972 20-20-8.972-20-20-20-20 8.972-20 20z"/></svg>