<svg id="Capa_1" enable-background="new 0 0 512 512" height="512" viewBox="0 0 512 512" width="512" xmlns="http://www.w3.org/2000/svg"><g id="Folder"><g><path d="m419.639 512h-327.278c-50.928 0-92.361-41.433-92.361-92.36v-207.279c0-50.928 41.433-92.361 92.361-92.361h38.918c35.209 0 66.863 19.563 82.61 51.056 8.926 17.853 26.872 28.944 46.832 28.944h158.918c50.928 0 92.361 41.433 92.361 92.361v127.279c0 50.927-41.433 92.36-92.361 92.36zm-327.278-352c-28.872 0-52.361 23.489-52.361 52.361v207.279c0 28.871 23.489 52.36 52.361 52.36h327.278c28.872 0 52.361-23.489 52.361-52.36v-127.279c0-28.872-23.489-52.361-52.361-52.361h-158.918c-35.209 0-66.863-19.563-82.61-51.056-8.926-17.853-26.872-28.944-46.832-28.944z"/></g><g><path d="m416 160c-11.046 0-20-8.954-20-20v-80c0-11.028-8.972-20-20-20h-240c-11.028 0-20 8.972-20 20 0 11.046-8.954 20-20 20s-20-8.954-20-20c0-33.084 26.916-60 60-60h240c33.084 0 60 26.916 60 60v80c0 11.046-8.954 20-20 20z"/></g><path d="m376 312h-240c-11.046 0-20 8.954-20 20s8.954 20 20 20h40.051c-12.583 16.725-20.051 37.506-20.051 60 0 11.046 8.954 20 20 20s20-8.954 20-20c0-33.084 26.916-60 60-60s60 26.916 60 60c0 11.046 8.954 20 20 20s20-8.954 20-20c0-22.494-7.468-43.275-20.051-60h40.051c11.046 0 20-8.954 20-20s-8.954-20-20-20z"/></g></svg>