<svg id="Capa_1" enable-background="new 0 0 512 512" height="512" viewBox="0 0 512 512" width="512" xmlns="http://www.w3.org/2000/svg"><g><path d="m161.858 390.142c7.811 7.811 20.474 7.811 28.284 0 7.811-7.811 7.811-20.474 0-28.284l-25.858-25.858 25.858-25.858c7.811-7.811 7.811-20.474 0-28.284s-20.474-7.811-28.284 0l-40 40c-7.811 7.811-7.811 20.474 0 28.284z"/><path d="m321.857 390.142c7.81 7.81 20.475 7.81 28.285 0l40-40c7.811-7.811 7.811-20.474 0-28.284l-40-40c-7.811-7.811-20.475-7.811-28.285 0s-7.811 20.474 0 28.284l25.859 25.858-25.858 25.858c-7.811 7.81-7.811 20.474-.001 28.284z"/><path d="m231.149 435.403c10.715 2.68 21.574-3.837 24.253-14.552l40-160c2.679-10.716-3.837-21.575-14.553-24.254-10.716-2.68-21.575 3.836-24.253 14.552l-40 160c-2.678 10.716 3.838 21.575 14.553 24.254z"/><path d="m432 0h-352c-44.112 0-80 35.888-80 80v352c0 44.112 35.888 80 80 80h352c44.112 0 80-35.888 80-80v-192c0-44.112-35.888-80-80-80h-196c0-44.112-35.888-80-80-80h-76c-14.566 0-28.223 3.932-40 10.763v-10.763c0-22.056 17.944-40 40-40h352c22.056 0 40 17.944 40 40v33.522c0 11.046 8.954 20 20 20s20-8.954 20-20v-33.522c0-44.112-35.888-80-80-80zm-352 120h76c22.056 0 40 17.944 40 40v20c0 11.046 8.954 20 20 20h216c22.056 0 40 17.944 40 40v192c0 22.056-17.944 40-40 40h-352c-22.056 0-40-17.944-40-40v-272c0-22.056 17.944-40 40-40z"/><path d="m432 100c0-11.046-8.954-20-20-20h-116c-11.046 0-20 8.954-20 20s8.954 20 20 20h116c11.046 0 20-8.954 20-20z"/></g></svg>