<svg id="Capa_1" enable-background="new 0 0 512 512" height="512" viewBox="0 0 512 512" width="512" xmlns="http://www.w3.org/2000/svg"><g id="Folder_2_"><g><path d="m432 512h-352c-44.112 0-80-35.888-80-80v-200c0-44.112 35.888-80 80-80h96.001c14.778 0 28.98 5.423 39.989 15.269h.001l66.685 59.647c3.666 3.278 8.397 5.084 13.324 5.084h136c44.112 0 80 35.888 80 80v120c0 44.112-35.888 80-80 80zm-352-320c-22.056 0-40 17.944-40 40v200c0 22.056 17.944 40 40 40h352c22.056 0 40-17.944 40-40v-120c0-22.056-17.944-40-40-40h-136c-14.779 0-28.981-5.423-39.99-15.269l-66.686-59.647c-3.666-3.278-8.397-5.084-13.323-5.084z"/></g><g><path d="m416 192c-11.046 0-20-8.954-20-20v-92c0-22.056-17.944-40-40-40h-200c-22.056 0-40 17.944-40 40v12c0 11.046-8.954 20-20 20s-20-8.954-20-20v-12c0-44.112 35.888-80 80-80h200c44.112 0 80 35.888 80 80v92c0 11.046-8.954 20-20 20z"/></g><path d="m284.285 372 25.858-25.858c7.811-7.811 7.811-20.474 0-28.284s-20.475-7.811-28.285 0l-25.858 25.857-25.857-25.857c-7.811-7.811-20.475-7.811-28.285 0s-7.811 20.474 0 28.284l25.857 25.858-25.858 25.858c-7.811 7.811-7.811 20.474 0 28.284 7.81 7.81 20.475 7.81 28.285 0l25.858-25.857 25.857 25.857c7.81 7.81 20.475 7.81 28.285 0 7.811-7.811 7.811-20.474 0-28.284z"/><g><path d="m136 272h-36c-11.046 0-20-8.954-20-20s8.954-20 20-20h36c11.046 0 20 8.954 20 20s-8.954 20-20 20z"/></g><g><path d="m336 120h-160c-11.046 0-20-8.954-20-20s8.954-20 20-20h160c11.046 0 20 8.954 20 20s-8.954 20-20 20z"/></g></g></svg>