<svg id="Layer_1" enable-background="new 0 0 512 512" height="512" viewBox="0 0 512 512" width="512" xmlns="http://www.w3.org/2000/svg"><path d="m261 492c0 11.046-8.955 20-20 20h-121c-66.168 0-120-53.832-120-120v-272c0-66.168 53.832-120 120-120h95c33.887 0 66.355 14.432 89.08 39.595 7.403 8.198 6.759 20.845-1.438 28.248s-20.844 6.759-28.248-1.438c-15.154-16.781-36.803-26.405-59.394-26.405h-95c-44.112 0-80 35.888-80 80v272c0 44.112 35.888 80 80 80h121c11.045 0 20 8.954 20 20zm151-390h-230c-55.14 0-100 44.86-100 100v201c0 11.046 8.954 20 20 20s20-8.954 20-20v-201c0-33.084 26.916-60 60-60h230c33.084 0 60 26.916 60 60v34c0 11.046 8.954 20 20 20s20-8.954 20-20v-34c0-55.14-44.86-100-100-100zm100 303v27c0 44.112-35.888 80-80 80h-69c-44.112 0-80-35.888-80-80v-27c0-35.382 23.098-65.454 55-75.978v-26.022c0-33.084 26.916-60 60-60s60 26.916 60 60v26.361c31.383 10.819 54 40.628 54 75.639zm-134-102v22h40v-22c0-11.028-8.972-20-20-20s-20 8.972-20 20zm94 102c0-22.056-17.944-40-40-40h-69c-22.056 0-40 17.944-40 40v27c0 22.056 17.944 40 40 40h69c22.056 0 40-17.944 40-40zm-74-11c-13.807 0-25 11.193-25 25s11.193 25 25 25 25-11.193 25-25-11.193-25-25-25z"/></svg>