<svg id="Capa_1" enable-background="new 0 0 512 512" height="512" viewBox="0 0 512 512" width="512" xmlns="http://www.w3.org/2000/svg"><g><path d="m256 436c77.196 0 140-62.804 140-140s-62.804-140-140-140-140 62.804-140 140 62.804 140 140 140zm0-240c55.14 0 100 44.86 100 100s-44.86 100-100 100-100-44.86-100-100 44.86-100 100-100z"/><path d="m241.873 338.411 28.184-28.183c3.663-3.619 5.935-8.643 5.943-14.197 0-.005 0-40.031 0-40.031 0-11.046-8.954-20-20-20s-20 8.954-20 20v31.716l-22.411 22.411c-7.811 7.811-7.811 20.474 0 28.284 7.81 7.811 20.473 7.811 28.284 0z"/><path d="m452 80h-236c-11.128 0-20.133-9.068-19.998-20.252.19-15.677-5.838-30.518-16.973-41.789-11.275-11.413-26.959-17.959-43.029-17.959h-76c-33.084 0-60 26.916-60 60v392c0 33.084 26.916 60 60 60h392c33.084 0 60-26.916 60-60v-312c0-33.084-26.916-60-60-60zm20 372c0 11.028-8.972 20-20 20h-392c-11.028 0-20-8.972-20-20v-392c0-11.028 8.972-20 20-20h76c5.45 0 10.762 2.213 14.574 6.071 3.562 3.605 5.491 8.29 5.431 13.192-.405 33.454 26.539 60.737 59.995 60.737h236c11.028 0 20 8.972 20 20z"/></g></svg>