<svg id="Capa_1" enable-background="new 0 0 511.949 511.949" height="512" viewBox="0 0 511.949 511.949" width="512" xmlns="http://www.w3.org/2000/svg"><path d="m167.038 59.609c2.985-79.439 116.965-79.477 120-.121-.989 26.506-39.021 26.491-40-.001 0-10.961-8.972-19.878-20-19.878s-20 8.972-20 20c-.969 26.488-39.025 26.502-40 0zm-82.857 50.279c18.049-19.44-8.867-46.325-28.285-28.284l-50 50c-7.811 7.811-7.811 20.474 0 28.284 7.811 7.811 20.474 7.811 28.285 0zm143.823 70.824c-11.046 0-20 8.955-20 20v84.67c-20.271 18.01-7.453 52.371 20.035 52.33 27.533.039 40.324-34.418 19.965-52.391v-84.609c0-11.046-8.954-20-20-20zm0-79c-113.037 0-205 91.962-205 205-1.319 126.67 118.574 225.897 242.691 201.539 25.883-5.817 18.904-43.205-7.314-39.326-99.913 19.6-196.438-60.227-195.376-162.214 1.803-177.92 243.524-228.258 316.238-66.084 4.429 10.118 16.22 14.733 26.341 10.304 10.119-4.429 14.732-16.222 10.304-26.341-32.669-74.646-106.417-122.878-187.884-122.878zm222.177 28.892-50-50c-19.439-18.048-46.326 8.865-28.285 28.284l50 50c7.811 7.811 20.474 7.811 28.285 0 7.81-7.811 7.81-20.474 0-28.284zm-120.143 245.005c-11.046 0-20-8.954-20-20v-72.829c-22.127 6.541-36.195-22.789-16.861-35.878 0 0 10.565-6.828 10.76-6.945 9.39-5.628 21.14-5.773 30.666-.377 9.521 5.393 15.436 15.54 15.436 26.479v89.549c-.001 11.047-8.955 20.001-20.001 20.001zm114.62-88.948c-9.358-5.865-21.701-3.034-27.567 6.327l-94 150c-5.865 9.359-3.033 21.702 6.327 27.567 9.216 5.815 21.666 3.111 27.567-6.327l94-150c5.865-9.359 3.033-21.701-6.327-27.567zm47.38 184.948h-25.085c3.719-3.224 7.909-6.288 12.021-9.293 13.792-10.083 30.956-22.631 30.956-44.682 0-25.378-20.515-47.394-45.648-46.025-20.243 1.103-32.776 11.516-32.776 11.516-4.554 3.666-7.467 9.286-7.467 15.587-.155 16.952 20.364 26.241 32.982 15.214 4.283-2.797 12.236-4.3 12.907 3.539-1.234 2.817-9.557 8.901-14.561 12.56-9.26 6.77-19.755 14.442-28.062 25.562-8.237 11.028-9.603 25.364-3.562 37.414 5.753 11.479 17.374 18.609 30.328 18.609h37.967c26.508-.985 26.488-39.027 0-40.001z"/></svg>