<svg id="Capa_1" enable-background="new 0 0 512.04 512.04" height="512" viewBox="0 0 512.04 512.04" width="512" xmlns="http://www.w3.org/2000/svg"><g id="Job_Loss_2_"><g><path d="m165.794 109.517-33.887-21.254c-9.357-5.869-12.186-18.213-6.316-27.57 5.87-9.358 18.214-12.185 27.57-6.316l33.887 21.254c9.357 5.869 12.186 18.213 6.316 27.57-5.87 9.358-18.211 12.186-27.57 6.316z"/></g><g><path d="m242.188 62.998-33.886-21.253c-9.357-5.869-12.186-18.213-6.316-27.57 5.87-9.358 18.214-12.186 27.57-6.316l33.886 21.253c9.357 5.869 12.186 18.212 6.316 27.57s-18.212 12.186-27.57 6.316z"/></g><path d="m474.22 359.279c-.033-.021-.065-.041-.098-.061l-24.089-14.798c5.112-4.09 9.637-9.085 13.308-14.936.044-.071.088-.142.131-.213l39.45-64.679c8.457-13.552 11.149-29.584 7.581-45.16-3.578-15.622-13.026-28.915-26.604-37.43l10.627-16.943c8.516-13.577 11.234-29.658 7.655-45.28s-13.027-28.915-26.604-37.43l-33.887-21.255c-28.028-17.579-65.131-9.076-82.71 18.949l-10.626 16.942c-28.03-17.579-65.132-9.076-82.71 18.95-.044.071-.088.142-.131.212l-39.447 64.674c-4.138 6.63-6.802 13.766-8.114 21.028l-126.326-77.603c-9.486-5.891-20.421-9.005-31.626-9.005-33.084 0-60 26.916-60 60v272c0 33.084 26.916 60 60 60h372c44.112 0 80-35.888 80-80 0-27.835-14.124-53.242-37.78-67.962zm-53.782-264.298 33.886 21.254c9.343 5.86 12.177 18.228 6.316 27.57l-10.627 16.943-33.879-21.25c-.002-.001-.004-.003-.007-.005s-.005-.002-.007-.004l-33.879-21.25 10.627-16.943c5.859-9.341 18.228-12.174 27.57-6.315zm-160.415 106.981c.044-.07.088-.142.131-.212l39.433-64.651c5.884-9.271 18.204-12.065 27.514-6.226l16.936 10.623c.002.001.004.003.006.004s.005.002.007.004l33.88 21.25-10.627 16.943c-5.869 9.357-3.041 21.701 6.316 27.57 9.358 5.869 21.701 3.041 27.57-6.316l10.627-16.943 50.829 31.881c4.525 2.838 7.675 7.269 8.868 12.476 1.192 5.208.286 10.567-2.553 15.093-.044.071-.088.142-.131.213l-39.432 64.649c-5.883 9.273-18.201 12.068-27.514 6.228l-135.546-85.014c-9.34-5.861-12.174-18.229-6.314-27.572zm171.977 265.279h-372c-11.028 0-20-8.972-20-20v-272c0-11.028 8.972-20 20-20 3.745 0 7.389 1.035 10.537 2.994.032.02.064.04.097.06l382.501 234.976c11.814 7.374 18.865 20.068 18.865 33.97 0 22.057-17.944 40-40 40z"/></g></svg>