<svg id="Capa_1" enable-background="new 0 0 512 512" height="512" viewBox="0 0 512 512" width="512" xmlns="http://www.w3.org/2000/svg"><g id="Interview_1_"><g><path d="m247.056 213.891c-9.879-4.94-13.884-16.954-8.944-26.833l25.528-51.056h-47.64c-6.932 0-13.369-3.589-17.013-9.485s-3.975-13.259-.875-19.459l40-80c4.94-9.879 16.954-13.883 26.833-8.944 9.879 4.94 13.884 16.954 8.944 26.833l-25.528 51.056h47.639c6.932 0 13.369 3.589 17.013 9.485s3.975 13.259.875 19.459l-40 80c-4.939 9.879-16.953 13.883-26.832 8.944z"/></g><g><path d="m120 76.002c0-33.084-26.916-60-60-60s-60 26.916-60 60 26.916 60 60 60 60-26.916 60-60zm-60 20c-11.028 0-20-8.972-20-20s8.972-20 20-20 20 8.972 20 20-8.972 20-20 20z"/><path d="m140 336.002h-20v-140c0-33.084-26.916-60-60-60s-60 26.916-60 60v120c0 33.084 26.916 60 60 60h80c11.028 0 20 8.972 20 20v80c0 11.046 8.954 20 20 20s20-8.954 20-20v-80c0-33.084-26.916-60-60-60zm-100-20v-120c0-11.028 8.972-20 20-20s20 8.972 20 20v140h-20c-11.028 0-20-8.972-20-20z"/><path d="m512 76.002c0-33.084-26.916-60-60-60s-60 26.916-60 60 26.916 60 60 60 60-26.916 60-60zm-60 20c-11.028 0-20-8.972-20-20s8.972-20 20-20 20 8.972 20 20-8.972 20-20 20z"/><path d="m452 136.002c-33.084 0-60 26.916-60 60v140h-20c-33.084 0-60 26.916-60 60v80c0 11.046 8.954 20 20 20s20-8.954 20-20v-80c0-11.028 8.972-20 20-20h80c33.084 0 60-26.916 60-60v-120c0-33.084-26.916-60-60-60zm20 180c0 11.028-8.972 20-20 20h-20v-140c0-11.028 8.972-20 20-20s20 8.972 20 20z"/><path d="m180 296.002h152c11.046 0 20-8.954 20-20s-8.954-20-20-20h-152c-11.046 0-20 8.954-20 20s8.954 20 20 20z"/></g></g></svg>