<svg id="Capa_1" enable-background="new 0 0 512 512" height="512" viewBox="0 0 512 512" width="512" xmlns="http://www.w3.org/2000/svg"><g><path d="m256 272c5.118 0 10.237-1.953 14.143-5.858l40-40c7.811-7.811 7.811-20.474 0-28.284s-20.475-7.811-28.285 0l-25.858 25.858-25.857-25.858c-7.811-7.811-20.475-7.811-28.285 0s-7.811 20.474 0 28.284l40 40c3.905 3.905 9.024 5.858 14.142 5.858z"/><path d="m368.306 72.617c-33.986-3.404-67.21 7.468-92.306 29.945v-42.562c0-11.028 8.972-20 20-20 11.046 0 20-8.954 20-20s-8.954-20-20-20c-33.084 0-60 26.916-60 60v42.563c-25.097-22.478-58.324-33.348-92.306-29.946-62.294 6.236-107.694 62.48-107.694 125.086v34.307c0 92.576 34.835 184.569 102.062 255.157 15.253 16.014 35.829 24.833 57.938 24.833 18.079 0 35.142-5.887 49.344-17.026 6.074-4.765 15.237-4.766 21.313.001 14.201 11.138 31.264 17.025 49.343 17.025 22.113 0 42.689-8.82 57.938-24.834 65.535-68.811 102.062-160.131 102.062-255.157v-34.307c0-62.606-45.399-118.849-107.694-125.085zm-23.335 386.964c-7.625 8.008-17.914 12.419-28.971 12.419-9.041 0-17.567-2.939-24.656-8.499-10.241-8.033-22.791-12.048-35.344-12.048-12.551 0-25.104 4.017-35.343 12.048-7.09 5.561-15.616 8.5-24.657 8.5-11.055 0-21.344-4.411-28.973-12.42-58.7-61.637-91.027-142.456-91.027-227.572v-34.307c0-43.799 31.485-81.261 71.679-85.285 24.371-2.438 48.151 6.072 65.229 23.354 11.575 11.715 26.88 18.166 43.093 18.166s31.518-6.451 43.093-18.166c17.078-17.281 40.853-25.79 65.229-23.354 40.192 4.025 71.677 41.486 71.677 85.286v34.307c0 27.27-3.335 54.093-9.776 79.991h-271.109c-11.046 0-20 8.954-20 20s8.954 20 20 20h.885v20c0 11.046 8.954 20 20 20s20-8.954 20-20v-20h40v40c0 11.046 8.954 20 20 20s20-8.954 20-20v-40h40v20c0 11.046 8.954 20 20 20s20-8.954 20-20v-20h57.503c-15.429 39.544-38.524 76.072-68.532 107.58z"/></g></svg>