<svg id="Capa_1" enable-background="new 0 0 512.01 512.01" height="512" viewBox="0 0 512.01 512.01" width="512" xmlns="http://www.w3.org/2000/svg"><g id="Lamp_desk"><g><g><g><path d="m477.997 229.99c-3.394 0-6.832-.864-9.981-2.683l-34.641-20c-9.565-5.523-12.844-17.754-7.32-27.32s17.757-12.843 27.32-7.32l34.641 20c9.565 5.523 12.844 17.754 7.32 27.32-3.704 6.416-10.427 10.003-17.339 10.003z"/></g></g><g><g><path d="m434.047 119.281c-2.859-10.669 3.473-21.636 14.142-24.495l38.637-10.353c10.676-2.861 21.636 3.473 24.495 14.142s-3.473 21.636-14.142 24.495l-38.637 10.353c-10.669 2.86-21.636-3.472-24.495-14.142z"/></g></g><g><g><path d="m373.689 280.393-10.353-38.637c-2.859-10.669 3.473-21.636 14.142-24.495 10.677-2.861 21.636 3.473 24.495 14.142l10.353 38.637c2.859 10.669-3.473 21.636-14.143 24.495-10.668 2.861-21.635-3.473-24.494-14.142z"/></g></g></g><path d="m203.981 120.037c.007 42.54 22.577 82.317 59.913 103.873 9.426 5.442 19.727 8.027 29.9 8.026 20.751-.001 40.962-10.762 52.062-29.988l60-103.923c8.014-13.88 10.142-30.049 5.993-45.53-4.147-15.48-14.076-28.418-27.955-36.431-37.336-21.556-83.069-21.214-119.913.05l-14.01-8.088c-28.646-16.54-65.417-6.691-81.961 21.961-11.303 19.578-10.311 42.995.765 61.255l-88.573 104.276c-6.316-2.265-13.115-3.508-20.2-3.508-33.084 0-60 26.916-60 60s26.916 60 60 60c6.248 0 12.274-.963 17.942-2.743l62.058 82.743h-40c-55.141 0-100 44.86-100 100 0 11.046 8.954 20 20 20h320c11.046 0 20-8.954 20-20 0-55.14-44.859-100-100-100h-70l-80.075-106.767c6.359-9.521 10.075-20.95 10.075-33.233 0-11.429-3.215-22.119-8.783-31.221l87.943-103.534zm112.595 351.973h-273.147c8.255-23.281 30.498-40 56.573-40 0 0 80.004.001 80.016.001.008 0 .017-.001.025-.001h79.959c26.075 0 48.319 16.718 56.574 40zm-113.925-422.022c5.513-9.549 17.771-12.833 27.32-7.321l24.632 14.221c6.88 3.973 15.46 3.496 21.859-1.216 25.64-18.879 59.959-20.83 87.432-4.967 4.627 2.671 7.936 6.983 9.318 12.144 1.383 5.16.674 10.55-1.997 15.176l-60 103.923c-5.514 9.551-17.769 12.835-27.321 7.32-27.475-15.863-42.945-46.559-39.414-78.202.881-7.896-2.996-15.566-9.877-19.539l-24.632-14.221c-9.496-5.481-12.803-17.822-7.32-27.318zm-162.649 202.022c0-11.028 8.972-20 20-20s20 8.972 20 20-8.972 20-20 20-20-8.973-20-20z"/></g></svg>