<svg id="Capa_1" enable-background="new 0 0 512 512" height="512" viewBox="0 0 512 512" width="512" xmlns="http://www.w3.org/2000/svg"><g id="New_File"><g><path d="m356 232c-77.196 0-140 62.804-140 140s62.804 140 140 140 140-62.804 140-140-62.804-140-140-140zm0 240c-55.14 0-100-44.86-100-100s44.86-100 100-100 100 44.86 100 100-44.86 100-100 100z"/><path d="m116 160h40c11.046 0 20-8.954 20-20s-8.954-20-20-20h-40c-11.046 0-20 8.954-20 20s8.954 20 20 20z"/><path d="m116 240h80c11.046 0 20-8.954 20-20s-8.954-20-20-20h-80c-11.046 0-20 8.954-20 20s8.954 20 20 20z"/><path d="m196 472h-120c-11.028 0-20-8.972-20-20v-392c0-11.028 8.972-20 20-20h140v60c0 33.084 26.916 60 60 60h60v20c0 11.046 8.954 20 20 20s20-8.954 20-20v-40c0-4.982-1.916-10.133-5.86-14.144l-120.007-120.007c-3.523-3.519-8.597-5.849-14.133-5.849h-160c-33.084 0-60 26.916-60 60v392c0 33.084 26.916 60 60 60h120c11.046 0 20-8.954 20-20s-8.954-20-20-20zm80-352c-11.028 0-20-8.972-20-20v-31.716l51.716 51.716z"/></g><path d="m396 352h-20v-20c0-11.046-8.954-20-20-20s-20 8.954-20 20v20h-20c-11.046 0-20 8.954-20 20s8.954 20 20 20h20v20c0 11.046 8.954 20 20 20s20-8.954 20-20v-20h20c11.046 0 20-8.954 20-20s-8.954-20-20-20z"/></g></svg>