<svg id="Capa_1" enable-background="new 0 0 512 512" height="512" viewBox="0 0 512 512" width="512" xmlns="http://www.w3.org/2000/svg"><g id="Newspaper"><g><g><path d="m372 316h-72c-33.084 0-60-26.916-60-60v-80c0-33.084 26.916-60 60-60h72c33.084 0 60 26.916 60 60v80c0 33.084-26.916 60-60 60zm-72-160c-11.028 0-20 8.972-20 20v80c0 11.028 8.972 20 20 20h72c11.028 0 20-8.972 20-20v-80c0-11.028-8.972-20-20-20z"/></g></g><g><path d="m412 36h-312c-55.141 0-100 44.86-100 100v200c0 33.084 26.916 60 60 60h20v20c0 33.084 26.916 60 60 60s60-26.916 60-60v-280c0-22.494-7.468-43.275-20.051-60h232.051c33.084 0 60 26.916 60 60v280c0 11.028-8.972 20-20 20h-192c-11.046 0-20 8.954-20 20s8.954 20 20 20h192c33.084 0 60-26.916 60-60v-280c0-55.14-44.859-100-100-100zm-252 380c0 11.028-8.972 20-20 20s-20-8.972-20-20v-160c0-11.028 8.972-20 20-20h20zm0-280v60h-20c-33.084 0-60 26.916-60 60v100h-20c-11.028 0-20-8.972-20-20v-200c0-33.084 26.916-60 60-60s60 26.916 60 60z"/><path d="m260 396h152c11.046 0 20-8.954 20-20s-8.954-20-20-20h-152c-11.046 0-20 8.954-20 20s8.954 20 20 20z"/></g></g></svg>