<svg id="Capa_1" enable-background="new 0 0 512 512" height="512" viewBox="0 0 512 512" width="512" xmlns="http://www.w3.org/2000/svg"><g><path d="m100 356h72c11.046 0 20-8.954 20-20s-8.954-20-20-20h-72c-11.046 0-20 8.954-20 20s8.954 20 20 20z"/><path d="m100 436h72c11.046 0 20-8.954 20-20s-8.954-20-20-20h-72c-11.046 0-20 8.954-20 20s8.954 20 20 20z"/><path d="m432.005 0c-.001 0-.002 0-.002 0h-352.003c-44.112 0-80 35.888-80 80v352c0 44.112 35.888 80 80 80h105.522c11.046 0 20-8.954 20-20s-8.954-20-20-20h-105.522c-22.056 0-40-17.944-40-40v-352c0-22.056 17.944-40 40-40h282.763c-6.831 11.777-10.763 25.434-10.763 40v176c0 11.046 8.954 20 20 20s20-8.954 20-20v-96h60c33.084 0 60-26.916 60-60v-20c0-44.11-35.885-79.997-79.995-80zm39.995 100c0 11.028-8.972 20-20 20h-60v-40c0-22.056 17.944-40 40-40s40 17.944 40 40z"/><path d="m452 316h-200c-11.046 0-20 8.954-20 20v96c0 44.112 35.888 80 80 80h40c44.112 0 80-35.888 80-80v-76h20c11.028 0 20 8.972 20 20v36c0 11.046 8.954 20 20 20s20-8.954 20-20v-36c0-33.084-26.916-60-60-60zm-60 116c0 22.056-17.944 40-40 40h-40c-22.056 0-40-17.944-40-40v-76h120z"/><path d="m100 276h192c11.046 0 20-8.954 20-20s-8.954-20-20-20h-192c-11.046 0-20 8.954-20 20s8.954 20 20 20z"/><path d="m140 196h112c33.084 0 60-26.916 60-60s-26.916-60-60-60h-112c-33.084 0-60 26.916-60 60s26.916 60 60 60zm0-80h112c11.028 0 20 8.972 20 20s-8.972 20-20 20h-112c-11.028 0-20-8.972-20-20s8.972-20 20-20z"/></g></svg>