<svg id="Capa_1" enable-background="new 0 0 512 512" height="512" viewBox="0 0 512 512" width="512" xmlns="http://www.w3.org/2000/svg"><g id="Office_Desk"><g><circle cx="392" cy="372" r="20"/></g><path d="m492 312c11.046 0 20-8.954 20-20v-40c0-33.084-26.916-60-60-60h-292v-32h60c33.084 0 60-26.916 60-60v-40c0-33.084-26.916-60-60-60h-160c-33.084 0-60 26.916-60 60v40c0 33.084 26.916 60 60 60h60v32h-60c-33.084 0-60 26.916-60 60v240c0 11.046 8.954 20 20 20s20-8.954 20-20v-180h232v180c0 11.046 8.954 20 20 20s20-8.954 20-20v-20h160v20c0 11.046 8.954 20 20 20s20-8.954 20-20v-120c0-11.046-8.954-20-20-20s-20 8.954-20 20v60h-160v-120zm-452-212v-40c0-11.028 8.972-20 20-20h160c11.028 0 20 8.972 20 20v40c0 11.028-8.972 20-20 20h-160c-11.028 0-20-8.972-20-20zm0 152c0-11.028 8.972-20 20-20h392c11.028 0 20 8.972 20 20v20h-432z"/></g></svg>