<svg id="Capa_1" enable-background="new 0 0 512 512" height="512" viewBox="0 0 512 512" width="512" xmlns="http://www.w3.org/2000/svg"><g id="Office_chair"><path d="m436 152c-33.084 0-60 26.916-60 60v63.44c-6.26-2.22-12.989-3.44-20-3.44h-80v-40h20c33.084 0 60-26.916 60-60v-112c0-33.084-26.916-60-60-60h-80c-33.084 0-60 26.916-60 60v112c0 33.084 26.916 60 60 60h20v40h-80c-7.011 0-13.74 1.22-20 3.44v-63.44c0-33.084-26.916-60-60-60-11.046 0-20 8.954-20 20s8.954 20 20 20c11.028 0 20 8.972 20 20v120c0 33.084 26.916 60 60 60h80v40h-60c-33.084 0-60 26.916-60 60 0 11.046 8.954 20 20 20s20-8.954 20-20c0-11.028 8.972-20 20-20h60v20c0 11.046 8.954 20 20 20s20-8.954 20-20v-20h60c11.028 0 20 8.972 20 20 0 11.046 8.954 20 20 20s20-8.954 20-20c0-33.084-26.916-60-60-60h-60v-40h80c33.084 0 60-26.916 60-60v-120c0-11.028 8.972-20 20-20 11.046 0 20-8.954 20-20s-8.954-20-20-20zm-240 20v-112c0-11.028 8.972-20 20-20h80c11.028 0 20 8.972 20 20v112c0 11.028-8.972 20-20 20h-80c-11.028 0-20-8.972-20-20zm160 180h-200c-11.028 0-20-8.972-20-20s8.972-20 20-20h200c11.028 0 20 8.972 20 20s-8.972 20-20 20z"/></g></svg>