<svg id="Capa_1" enable-background="new 0 0 512 512" height="512" viewBox="0 0 512 512" width="512" xmlns="http://www.w3.org/2000/svg"><g><path d="m216 196h80c11.046 0 20-8.954 20-20s-8.954-20-20-20h-80c-11.046 0-20 8.954-20 20s8.954 20 20 20z"/><path d="m216 276h80c11.046 0 20-8.954 20-20s-8.954-20-20-20h-80c-11.046 0-20 8.954-20 20s8.954 20 20 20z"/><path d="m216 356h80c11.046 0 20-8.954 20-20s-8.954-20-20-20h-80c-11.046 0-20 8.954-20 20s8.954 20 20 20z"/><path d="m471.112 227.956-75.112-26.167v-61.789c0-33.084-26.916-60-60-60h-20v-20c0-11.046-8.954-20-20-20s-20 8.954-20 20v20h-40v-60c0-11.046-8.954-20-20-20s-20 8.954-20 20v60h-20c-33.084 0-60 26.916-60 60v136h-56c-33.084 0-60 26.916-60 60v116c0 33.084 26.916 60 60 60h236c11.046 0 20-8.954 20-20v-40c0-33.084-26.916-60-60-60s-60 26.916-60 60v20h-40v-332c0-11.028 8.972-20 20-20h160c11.028 0 20 8.972 20 20v352c0 11.046 8.954 20 20 20h76c33.084 0 60-26.916 60-60v-167.17c0-25.817-16.426-48.655-40.888-56.874zm-235.112 224.044c0-11.028 8.972-20 20-20s20 8.972 20 20v20h-40zm-196 0v-116c0-11.028 8.972-20 20-20h56v156h-56c-11.028 0-20-8.972-20-20zm432 0c0 11.028-8.972 20-20 20h-56v-227.854s62.239 21.682 62.324 21.71c8.18 2.727 13.676 10.352 13.676 18.974z"/></g></svg>