<svg id="Capa_1" enable-background="new 0 0 512 512" height="512" viewBox="0 0 512 512" width="512" xmlns="http://www.w3.org/2000/svg"><g><path d="m116 140v40c0 11.046 8.954 20 20 20s20-8.954 20-20v-40c0-11.046-8.954-20-20-20s-20 8.954-20 20z"/><path d="m236 140c0-11.046-8.954-20-20-20s-20 8.954-20 20v40c0 11.046 8.954 20 20 20s20-8.954 20-20z"/><path d="m316 140c0-11.046-8.954-20-20-20s-20 8.954-20 20v40c0 11.046 8.954 20 20 20s20-8.954 20-20z"/><path d="m376 120c-11.046 0-20 8.954-20 20v40c0 11.046 8.954 20 20 20s20-8.954 20-20v-40c0-11.046-8.954-20-20-20z"/><path d="m156 260c0-11.046-8.954-20-20-20s-20 8.954-20 20v40c0 11.046 8.954 20 20 20s20-8.954 20-20z"/><path d="m216 240c-11.046 0-20 8.954-20 20v40c0 11.046 8.954 20 20 20s20-8.954 20-20v-40c0-11.046-8.954-20-20-20z"/><path d="m296 240c-11.046 0-20 8.954-20 20v40c0 11.046 8.954 20 20 20s20-8.954 20-20v-40c0-11.046-8.954-20-20-20z"/><path d="m376 240c-11.046 0-20 8.954-20 20v40c0 11.046 8.954 20 20 20s20-8.954 20-20v-40c0-11.046-8.954-20-20-20z"/><path d="m492 472h-18.625c1.703-5.408 2.625-11.159 2.625-17.122v-334.878c0-44.112-35.888-80-80-80h-120v-20c0-11.046-8.954-20-20-20s-20 8.954-20 20v20h-120c-44.112 0-80 35.888-80 80v332c0 7.011 1.22 13.74 3.44 20h-19.44c-11.046 0-20 8.954-20 20s8.954 20 20 20h276c11.046 0 20-8.954 20-20v-72c0-33.084-26.916-60-60-60s-60 26.916-60 60v52h-100c-11.028 0-20-8.972-20-20v-332c0-22.056 17.944-40 40-40h280c22.056 0 40 17.944 40 40v334.878c0 9.441-7.681 17.122-17.122 17.122h-42.878c-11.046 0-20 8.954-20 20s8.954 20 20 20h116c11.046 0 20-8.954 20-20s-8.954-20-20-20zm-256-52c0-11.028 8.972-20 20-20s20 8.972 20 20v52h-40z"/></g></svg>