<svg id="Capa_1" enable-background="new 0 0 512 512" height="512" viewBox="0 0 512 512" width="512" xmlns="http://www.w3.org/2000/svg"><g id="Office_2_"><path d="m452 320c-11.028 0-20-8.972-20-20v-200c0-33.084-26.916-60-60-60h-56v-20c0-11.046-8.954-20-20-20s-20 8.954-20 20v20h-40v-20c0-11.046-8.954-20-20-20s-20 8.954-20 20v20h-56c-33.084 0-60 26.916-60 60v200c0 11.028-8.972 20-20 20-33.084 0-60 26.916-60 60v72c0 33.084 26.916 60 60 60h196c11.046 0 20-8.954 20-20s-8.954-20-20-20h-60v-52c0-11.028 8.972-20 20-20h80c11.028 0 20 8.972 20 20v72c0 11.046 8.954 20 20 20h116c33.084 0 60-26.916 60-60v-72c0-33.084-26.916-60-60-60zm20 132c0 11.028-8.972 20-20 20h-96v-52c0-33.084-26.916-60-60-60h-80c-33.084 0-60 26.916-60 60v52h-96c-11.028 0-20-8.972-20-20v-72c0-11.028 8.972-20 20-20 33.084 0 60-26.916 60-60v-200c0-11.028 8.972-20 20-20h232c11.028 0 20 8.972 20 20v200c0 33.084 26.916 60 60 60 11.028 0 20 8.972 20 20z"/><g><path d="m216 320h-36c-11.046 0-20-8.954-20-20s8.954-20 20-20h36c11.046 0 20 8.954 20 20s-8.954 20-20 20z"/></g><g><path d="m332 320h-36c-11.046 0-20-8.954-20-20s8.954-20 20-20h36c11.046 0 20 8.954 20 20s-8.954 20-20 20z"/></g><g><path d="m216 240h-36c-11.046 0-20-8.954-20-20s8.954-20 20-20h36c11.046 0 20 8.954 20 20s-8.954 20-20 20z"/></g><g><path d="m332 240h-36c-11.046 0-20-8.954-20-20s8.954-20 20-20h36c11.046 0 20 8.954 20 20s-8.954 20-20 20z"/></g><g><path d="m332 160h-36c-11.046 0-20-8.954-20-20s8.954-20 20-20h36c11.046 0 20 8.954 20 20s-8.954 20-20 20z"/></g><g><path d="m216 160h-36c-11.046 0-20-8.954-20-20s8.954-20 20-20h36c11.046 0 20 8.954 20 20s-8.954 20-20 20z"/></g></g></svg>