<svg id="Capa_1" enable-background="new 0 0 512 512" height="512" viewBox="0 0 512 512" width="512" xmlns="http://www.w3.org/2000/svg"><g id="Office_Building"><g><path d="m180 312c-11.046 0-20-8.954-20-20v-36c0-11.046 8.954-20 20-20s20 8.954 20 20v36c0 11.046-8.954 20-20 20z"/></g><g><path d="m180 196c-11.046 0-20-8.954-20-20v-36c0-11.046 8.954-20 20-20s20 8.954 20 20v36c0 11.046-8.954 20-20 20z"/></g><g><path d="m100 312c-11.046 0-20-8.954-20-20v-36c0-11.046 8.954-20 20-20s20 8.954 20 20v36c0 11.046-8.954 20-20 20z"/></g><g><path d="m100 196c-11.046 0-20-8.954-20-20v-36c0-11.046 8.954-20 20-20s20 8.954 20 20v36c0 11.046-8.954 20-20 20z"/></g><g><path d="m412 272h-72c-11.046 0-20-8.954-20-20s8.954-20 20-20h72c11.046 0 20 8.954 20 20s-8.954 20-20 20z"/></g><g><path d="m412 352h-72c-11.046 0-20-8.954-20-20s8.954-20 20-20h72c11.046 0 20 8.954 20 20s-8.954 20-20 20z"/></g><path d="m452 152h-112c-11.046 0-20 8.954-20 20s8.954 20 20 20h112c11.028 0 20 8.972 20 20v260h-76v-60c0-11.046-8.954-20-20-20s-20 8.954-20 20v60h-76v-372c0-33.084-26.916-60-60-60h-60v-20c0-11.046-8.954-20-20-20s-20 8.954-20 20v20h-60c-33.084 0-60 26.916-60 60v392c0 11.046 8.954 20 20 20h472c11.046 0 20-8.954 20-20v-280c0-33.084-26.916-60-60-60zm-392-72h160c11.028 0 20 8.972 20 20v372h-40v-100c0-11.046-8.954-20-20-20h-80c-11.046 0-20 8.954-20 20v100h-40v-372c0-11.028 8.972-20 20-20zm100 392h-40v-80h40z"/></g></svg>