<svg id="Capa_1" enable-background="new 0 0 512 512" height="512" viewBox="0 0 512 512" width="512" xmlns="http://www.w3.org/2000/svg"><path d="m127.028 96.625c-.023.962-.005-.959 0 0zm384.972 257.375c0 17.128-11.438 58.954-33.996 124.314-6.953 20.149-25.947 33.686-47.264 33.686h-337.908c-18.569 0-35.506-10.202-44.199-26.624-22.186-41.907-48.633-98.717-48.633-131.376 0-38.047 30.953-69 69-69h91.102c-11.28-44.476-32.927-139.145-33.074-188.375.599-25.432 10.913-49.423 29.043-67.553s42.121-28.445 67.553-29.043c15.162-.354 29.853 2.662 43.228 8.728.987-.619 2.043-1.159 3.162-1.61 12.514-5.043 25.756-7.437 39.361-7.118 25.433.599 49.423 10.913 67.554 29.043 18.13 18.13 28.445 42.121 29.043 67.553 0 49.348-35.669 142.284-55.309 188.375h92.337c38.047 0 69 30.953 69 69zm-206.456-313.983c12.635 16.95 19.456 37.409 19.456 58.983 0 48.99-12.024 142.631-17.979 186h.062c20.28-45.81 58.835-143.638 58.897-187.548-.79-30.952-26.581-56.707-57.546-57.435-.967-.022-1.93-.022-2.89 0zm111.8 431.983c-4.659-9.739-10.879-23.031-17.153-37.303-23.476-53.405-26.191-71.632-26.191-80.697 0-10.353 2.292-20.179 6.394-29h-96.394c-5.812 0-11.335-2.528-15.135-6.925-3.799-4.398-5.497-10.23-4.653-15.98.208-1.416 20.788-142.282 20.788-203.095 0-16.022-6.314-31.013-17.779-42.211-11.459-11.193-26.589-17.134-42.655-16.771-31.003.729-56.819 26.546-57.549 57.549.02 15.484 5.931 31.557 16.771 42.655 11.199 11.464 26.19 17.778 42.212 17.778 11.046 0 20 8.954 20 20s-8.954 20-20 20c-16.885 0-33.088-4.179-47.459-12.053 11.187 56.415 26.512 112.901 26.755 113.792 1.64 6.014.382 12.448-3.402 17.402s-9.66 7.859-15.894 7.859h-117c-15.991 0-29 13.009-29 29 0 18.245 16.854 61.414 43.984 112.661 1.744 3.293 5.134 5.339 8.848 5.339zm54.656-118c0-15.991-13.009-29-29-29s-29 13.009-29 29c0 2.119 1.097 15.187 22.748 64.461 3.796 8.639 7.611 16.985 11.053 24.358 17.7-53.263 24.199-81.034 24.199-88.819zm-141 38h-209c-11.046 0-20 8.954-20 20s8.954 20 20 20h209c11.046 0 20-8.954 20-20s-8.954-20-20-20zm-105-313c-11.046 0-20 8.954-20 20s8.954 20 20 20 20-8.954 20-20-8.954-20-20-20z"/></svg>