<svg id="Capa_1" enable-background="new 0 0 512 512" height="512" viewBox="0 0 512 512" width="512" xmlns="http://www.w3.org/2000/svg"><g id="Paper_Clip"><g><path d="m512 312c0-44.112-35.888-80-80-80h-56c-11.046 0-20 8.954-20 20s8.954 20 20 20h56c22.056 0 40 17.944 40 40 0 6.074-1.32 11.897-3.924 17.309l-68.648 142.691h-286.856l-68.648-142.692c-2.604-5.411-3.924-11.234-3.924-17.308 0-22.056 17.944-40 40-40h56.02c11.046 0 20-8.954 20-20s-8.954-20-20-20h-56.02c-44.112 0-80 35.888-80 80 0 12.127 2.651 23.785 7.879 34.65l60.305 125.35h-8.184c-11.046 0-20 8.954-20 20s8.954 20 20 20h392c11.046 0 20-8.954 20-20s-8.954-20-20-20h-8.184l60.305-125.349c5.228-10.866 7.879-22.524 7.879-34.651z"/><g><g><path d="m328.856 418.667-47.164-133.389c-3.777-10.679-5.692-21.876-5.692-33.278 0-7.958.944-15.891 2.808-23.578.021-.084 36.487-142.435 36.487-142.435.468-1.967.705-3.981.705-5.987 0-21.682-27.477-40-60-40s-60 18.318-60 40c0 2.006.237 4.02.705 5.987 0 0 36.467 142.351 36.487 142.435 1.864 7.687 2.808 15.62 2.808 23.578 0 11.402-1.915 22.599-5.692 33.279l-47.164 133.388c-3.683 10.414-15.111 15.87-25.523 12.188-10.414-3.682-15.871-15.109-12.189-25.523l47.166-133.389c2.256-6.386 3.402-13.096 3.402-19.943 0-4.747-.557-9.469-1.654-14.038 0 0-36.469-142.36-36.489-142.444-1.232-5.083-1.857-10.305-1.857-15.518 0-22.149 11.456-43.445 31.432-58.426 18.548-13.912 42.9-21.574 68.568-21.574s50.02 7.662 68.568 21.574c19.976 14.981 31.432 36.277 31.432 58.426 0 5.213-.625 10.435-1.856 15.518-.021.084-36.49 142.448-36.49 142.448-1.098 4.568-1.654 9.288-1.654 14.034 0 6.847 1.146 13.557 3.403 19.942l47.166 133.39c3.682 10.414-1.775 21.841-12.189 25.523-10.414 3.683-21.841-1.774-25.524-12.188z"/></g></g></g></g></svg>