<svg id="Capa_1" enable-background="new 0 0 512 512" height="512" viewBox="0 0 512 512" width="512" xmlns="http://www.w3.org/2000/svg"><g id="Paper_Shredder"><g><circle cx="176" cy="220" r="20"/></g><g><circle cx="256" cy="220" r="20"/></g><g><circle cx="336" cy="220" r="20"/></g><path d="m412 120h-256v-60c0-11.028 8.972-20 20-20h160c11.028 0 20 8.972 20 20 0 11.046 8.954 20 20 20s20-8.954 20-20c0-33.084-26.916-60-60-60h-160c-33.084 0-60 26.916-60 60v60h-16c-55.14 0-100 44.86-100 100v232c0 33.084 26.916 60 60 60h392c33.084 0 60-26.916 60-60v-232c0-55.14-44.86-100-100-100zm-236 312c11.046 0 20-8.954 20-20v-92h40v52c0 11.046 8.954 20 20 20s20-8.954 20-20v-52h40v92c0 11.046 8.954 20 20 20s20-8.954 20-20v-92h16c11.028 0 20 8.972 20 20v132h-272v-132c0-11.028 8.972-20 20-20h16v92c0 11.046 8.954 20 20 20zm296 20c0 11.028-8.972 20-20 20h-20v-132c0-33.084-26.916-60-60-60h-232c-33.084 0-60 26.916-60 60v132h-20c-11.028 0-20-8.972-20-20v-232c0-33.084 26.916-60 60-60h312c33.084 0 60 26.916 60 60z"/></g></svg>