<svg id="Capa_1" enable-background="new 0 0 512 512" height="512" viewBox="0 0 512 512" width="512" xmlns="http://www.w3.org/2000/svg"><path d="m130 0h-10c-66.168 0-120 53.832-120 120v272c0 66.168 53.832 120 120 120h10c11.046 0 20-8.954 20-20v-472c0-11.046-8.954-20-20-20zm-20 471.378c-39.409-4.938-70-38.653-70-79.378v-272c0-40.725 30.591-74.441 70-79.378zm402-351.378v272c0 66.168-53.832 120-120 120h-182c-11.046 0-20-8.954-20-20s8.954-20 20-20h182c44.112 0 80-35.888 80-80v-272c0-44.112-35.888-80-80-80h-182c-11.046 0-20-8.954-20-20s8.954-20 20-20h182c66.168 0 120 53.832 120 120zm-282-1v39h182c11.046 0 20 8.954 20 20s-8.954 20-20 20h-182v39h182c11.046 0 20 8.954 20 20s-8.954 20-20 20h-182v39h182c11.046 0 20 8.954 20 20s-8.954 20-20 20h-182v39h182c11.046 0 20 8.954 20 20s-8.954 20-20 20h-202c-11.046 0-20-8.954-20-20v-316c0-11.046 8.954-20 20-20h202c11.046 0 20 8.954 20 20s-8.954 20-20 20z"/></svg>