<svg id="Capa_1" enable-background="new 0 0 512 512" height="512" viewBox="0 0 512 512" width="512" xmlns="http://www.w3.org/2000/svg"><path d="m237 314c0 11.046-8.954 20-20 20s-20-8.954-20-20 8.954-20 20-20 20 8.954 20 20zm37 158h-154c-44.112 0-80-35.888-80-80v-164c0-44.112 35.888-80 80-80h272c44.112 0 80 35.888 80 80 0 11.046 8.954 20 20 20s20-8.954 20-20c0-66.168-53.832-120-120-120h-272c-66.168 0-120 53.832-120 120v164c0 66.168 53.832 120 120 120h154c11.046 0 20-8.954 20-20s-8.954-20-20-20zm-57-92c-11.046 0-20 8.954-20 20s8.954 20 20 20 20-8.954 20-20-8.954-20-20-20zm192-153c0-11.046-8.954-20-20-20s-20 8.954-20 20 8.954 20 20 20 20-8.954 20-20zm-192-20c-11.046 0-20 8.954-20 20s8.954 20 20 20 20-8.954 20-20-8.954-20-20-20zm86 173c-11.046 0-20 8.954-20 20s8.954 20 20 20 20-8.954 20-20-8.954-20-20-20zm0-86c-11.046 0-20 8.954-20 20s8.954 20 20 20 20-8.954 20-20-8.954-20-20-20zm-172 0c-11.046 0-20 8.954-20 20s8.954 20 20 20 20-8.954 20-20-8.954-20-20-20zm172-87c-11.046 0-20 8.954-20 20s8.954 20 20 20 20-8.954 20-20-8.954-20-20-20zm-172 173c-11.046 0-20 8.954-20 20s8.954 20 20 20 20-8.954 20-20-8.954-20-20-20zm0-173c-11.046 0-20 8.954-20 20s8.954 20 20 20 20-8.954 20-20-8.954-20-20-20zm201-127c11.046 0 20-8.954 20-20 0-11.028 8.972-20 20-20s20 8.972 20 20c0 11.046 8.954 20 20 20s20-8.954 20-20c0-33.084-26.916-60-60-60s-60 26.916-60 60c0 11.046 8.954 20 20 20zm-230 0c11.046 0 20-8.954 20-20 0-11.028 8.972-20 20-20s20 8.972 20 20c0 11.046 8.954 20 20 20s20-8.954 20-20c0-33.084-26.916-60-60-60s-60 26.916-60 60c0 11.046 8.954 20 20 20zm326.848 330h-11.695c-45.851 0-83.153 36.785-83.153 82 0 11.046 8.954 20 20 20s20-8.954 20-20c0-23.159 19.358-42 43.152-42h11.695c23.795 0 43.153 18.841 43.153 42 0 11.046 8.954 20 20 20s20-8.954 20-20c0-45.215-37.302-82-83.152-82zm-65.848-80c0-33.084 26.916-60 60-60s60 26.916 60 60-26.916 60-60 60-60-26.916-60-60zm40 0c0 11.028 8.972 20 20 20s20-8.972 20-20-8.972-20-20-20-20 8.972-20 20z"/></svg>