<svg id="Capa_1" enable-background="new 0 0 512 512" height="512" viewBox="0 0 512 512" width="512" xmlns="http://www.w3.org/2000/svg"><g><path d="m36 332v160c0 11.046 8.954 20 20 20s20-8.954 20-20v-60h20c33.084 0 60-26.916 60-60s-26.916-60-60-60h-40c-11.046 0-20 8.954-20 20zm40 20h20c11.028 0 20 8.972 20 20s-8.972 20-20 20h-20z"/><path d="m376 312c-11.046 0-20 8.954-20 20v160c0 11.046 8.954 20 20 20s20-8.954 20-20v-60h20c33.084 0 60-26.916 60-60s-26.916-60-60-60zm60 60c0 11.028-8.972 20-20 20h-20v-40h20c11.028 0 20 8.972 20 20z"/><path d="m296 512c11.046 0 20-8.954 20-20v-160c0-11.046-8.954-20-20-20s-20 8.954-20 20v60h-40v-60c0-11.046-8.954-20-20-20s-20 8.954-20 20v160c0 11.046 8.954 20 20 20s20-8.954 20-20v-60h40v60c0 11.046 8.954 20 20 20z"/><path d="m373.574 29.29c-18.887-18.888-44-29.29-70.711-29.29h-126.863c-55.141 0-100 44.86-100 100v156c0 11.046 8.954 20 20 20s20-8.954 20-20v-156c0-33.084 26.916-60 60-60h100v60c0 33.084 26.916 60 60 60h60v96c0 11.046 8.954 20 20 20s20-8.954 20-20v-122.863c0-26.711-10.402-51.823-29.289-70.711zm-57.574 70.71v-58.547c11.009 2.448 21.122 7.953 29.289 16.121l33.137 33.137c8.168 8.167 13.674 18.281 16.122 29.29h-58.548c-11.028-.001-20-8.973-20-20.001z"/><path d="m216 156h-40c-11.046 0-20 8.954-20 20s8.954 20 20 20h40c11.046 0 20-8.954 20-20s-8.954-20-20-20z"/><path d="m176 276h160c11.046 0 20-8.954 20-20s-8.954-20-20-20h-160c-11.046 0-20 8.954-20 20s8.954 20 20 20z"/></g></svg>