<svg id="Capa_1" enable-background="new 0 0 512 512" height="512" viewBox="0 0 512 512" width="512" xmlns="http://www.w3.org/2000/svg"><g id="Portfolio_1_"><g><path d="m140 200c-33.084 0-60-26.916-60-60s26.916-60 60-60 60 26.916 60 60-26.916 60-60 60zm0-80c-11.028 0-20 8.972-20 20s8.972 20 20 20 20-8.972 20-20-8.972-20-20-20z"/></g><g><path d="m172 472h-112c-11.028 0-20-8.972-20-20v-392c0-11.028 8.972-20 20-20h172c11.028 0 20 8.972 20 20v20c0 33.084 26.916 60 60 60h20c11.028 0 20 8.972 20 20v12c0 11.046 8.954 20 20 20s20-8.954 20-20v-52c0-66.168-53.832-120-120-120h-212c-33.084 0-60 26.916-60 60v392c0 33.084 26.916 60 60 60h112c11.046 0 20-8.954 20-20s-8.954-20-20-20zm178.118-369.198c-5.719-1.816-11.805-2.802-18.118-2.802h-20c-11.028 0-20-8.972-20-20v-20c0-6.313-.986-12.399-2.802-18.118 30.328 6.672 54.248 30.592 60.92 60.92z"/><path d="m452 312h-20v-20c0-33.084-26.916-60-60-60s-60 26.916-60 60v20h-20c-33.084 0-60 26.916-60 60v80c0 33.084 26.916 60 60 60h160c33.084 0 60-26.916 60-60v-80c0-33.084-26.916-60-60-60zm-100-20c0-11.028 8.972-20 20-20s20 8.972 20 20v20h-40zm-60 60h160c11.028 0 20 8.972 20 20s-8.972 20-20 20h-160c-11.028 0-20-8.972-20-20s8.972-20 20-20zm160 120h-160c-11.028 0-20-8.972-20-20v-23.44c6.26 2.22 12.989 3.44 20 3.44h160c7.011 0 13.74-1.22 20-3.44v23.44c0 11.028-8.972 20-20 20z"/><path d="m272 260c0-11.046-8.954-20-20-20h-152c-11.046 0-20 8.954-20 20s8.954 20 20 20h152c11.046 0 20-8.954 20-20z"/><path d="m100 320c-11.046 0-20 8.954-20 20s8.954 20 20 20h40c11.046 0 20-8.954 20-20s-8.954-20-20-20z"/></g></g></svg>