<svg id="Capa_1" enable-background="new 0 0 512 512" height="512" viewBox="0 0 512 512" width="512" xmlns="http://www.w3.org/2000/svg"><g id="Remote_Working"><g><path d="m432 0h-352c-44.112 0-80 35.888-80 80v240c0 44.112 35.888 80 80 80h352c44.112 0 80-35.888 80-80v-240c0-44.112-35.888-80-80-80zm40 320c0 22.056-17.944 40-40 40h-352c-22.056 0-40-17.944-40-40v-240c0-22.056 17.944-40 40-40h352c22.056 0 40 17.944 40 40z"/><path d="m336 472h-60v-12c0-11.046-8.954-20-20-20s-20 8.954-20 20v12h-60c-11.046 0-20 8.954-20 20s8.954 20 20 20h160c11.046 0 20-8.954 20-20s-8.954-20-20-20z"/></g><path d="m316 160v-20c0-33.084-26.916-60-60-60s-60 26.916-60 60v20c-33.084 0-60 26.916-60 60v40c0 33.084 26.916 60 60 60h120c33.084 0 60-26.916 60-60v-40c0-33.084-26.916-60-60-60zm-80-20c0-11.028 8.972-20 20-20s20 8.972 20 20v20h-40zm100 120c0 11.028-8.972 20-20 20h-120c-11.028 0-20-8.972-20-20v-40c0-11.028 8.972-20 20-20h40v20c0 11.046 8.954 20 20 20s20-8.954 20-20v-20h40c11.028 0 20 8.972 20 20z"/></g></svg>