<svg id="Capa_1" enable-background="new 0 0 512 512" height="512" viewBox="0 0 512 512" width="512" xmlns="http://www.w3.org/2000/svg"><g><path d="m136 320h23.44c-2.22 6.26-3.44 12.989-3.44 20v152c0 11.046 8.954 20 20 20s20-8.954 20-20v-92h200v92c0 11.046 8.954 20 20 20s20-8.954 20-20v-152c0-26.073-16.722-48.303-40-56.56v-46.88c23.278-8.256 40-30.487 40-56.56v-120c0-33.084-26.916-60-60-60h-160c-33.084 0-60 26.916-60 60v60h-20c-33.084 0-60 26.916-60 60v80c0 33.084 26.916 60 60 60zm60 20c0-11.028 8.972-20 20-20h160c11.028 0 20 8.972 20 20v20h-200zm0-280c0-11.028 8.972-20 20-20h160c11.028 0 20 8.972 20 20v120c0 11.028-8.972 20-20 20-11.046 0-20 8.954-20 20v60h-120v-40h60c11.046 0 20-8.954 20-20s-8.954-20-20-20h-80c-11.028 0-20-8.972-20-20v-20h20c11.046 0 20-8.954 20-20s-8.954-20-20-20h-20zm-80 120c0-11.028 8.972-20 20-20h20v20c0 26.073 16.722 48.303 40 56.56v43.44h-60c-11.028 0-20-8.972-20-20z"/><path d="m276 120h40c11.046 0 20-8.954 20-20s-8.954-20-20-20h-40c-11.046 0-20 8.954-20 20s8.954 20 20 20z"/></g></svg>