<svg id="Capa_1" enable-background="new 0 0 512.432 512.432" height="512" viewBox="0 0 512.432 512.432" width="512" xmlns="http://www.w3.org/2000/svg"><path d="m468.789 33.957c-21.899-21.9-51.009-33.957-81.977-33.957h-.054c-30.988.014-60.109 12.1-81.954 33.984l-217.529 216.476c-14.186 14.218-20.301 34.465-16.357 54.158l13.24 66.128c4.78 23.869 23.297 42.348 47.174 47.077l65.8 13.033c3.902.772 7.821 1.15 11.713 1.15 15.764 0 31.029-6.213 42.369-17.578l217.648-216.588c45.123-45.203 45.09-118.721-.073-163.883zm-28.189 135.577-9.9 9.852-66.838-66.558c-7.827-7.794-20.49-7.767-28.284.06s-7.768 20.49.06 28.284l66.709 66.43-179.398 178.524c-4.73 4.74-11.479 6.795-18.044 5.492l-65.801-13.033c-7.959-1.576-14.131-7.735-15.724-15.692l-13.24-66.128c-1.314-6.564.724-13.313 5.402-18.002l217.525-216.473c14.339-14.365 33.413-22.281 53.709-22.29h.035c20.282 0 39.351 7.898 53.694 22.241 29.58 29.581 29.602 77.733.095 107.293zm-321.754 266.281c7.916 7.703 8.088 20.365.385 28.281l-41.148 42.284c-3.802 3.907-8.989 6.052-14.333 6.052-1.283 0-2.573-.123-3.857-.375-6.633-1.304-12.158-5.869-14.689-12.138l-34-84.213c-3.033-7.513-1.234-16.113 4.556-21.78l22.7-22.219c7.893-7.727 20.556-7.59 28.283.303 7.726 7.894 7.591 20.557-.303 28.283l-13.131 12.854 17.503 43.353 19.752-20.3c7.704-7.916 20.367-8.088 28.282-.385zm202.046-253.957c7.811 7.811 7.811 20.474 0 28.284l-50.929 50.929 5.753 5.613c7.907 7.713 8.063 20.376.349 28.282-7.712 7.906-20.375 8.062-28.282.349l-6.107-5.958-52.785 52.785c-3.905 3.905-9.023 5.857-14.142 5.857s-10.237-1.952-14.142-5.857c-7.811-7.811-7.811-20.475 0-28.285l52.435-52.435-6.259-6.107c-7.907-7.713-8.063-20.375-.349-28.282 7.713-7.907 20.376-8.063 28.282-.349l6.613 6.452 51.278-51.278c7.811-7.811 20.474-7.811 28.285 0z"/></svg>