<svg id="Capa_1" enable-background="new 0 0 512 512" height="512" viewBox="0 0 512 512" width="512" xmlns="http://www.w3.org/2000/svg"><g><path d="m36 296v116c0 55.14 44.859 100 100 100h240c55.141 0 100-44.86 100-100v-116c0-26.073-16.722-48.303-40-56.56v-99.44c0-10.04-2.534-19.982-7.329-28.75l-55.122-100.843c-3.507-6.416-10.237-10.407-17.549-10.407s-14.042 3.991-17.549 10.407l-55.122 100.841c-4.795 8.77-7.329 18.712-7.329 28.752v96h-40v-176c0-33.084-26.916-60-60-60h-40c-33.084 0-60 26.916-60 60v179.44c-23.278 8.257-40 30.487-40 56.56zm320-234.302 31.869 58.302h-63.738zm-220-21.698h40c11.028 0 20 8.972 20 20v20h-20c-11.046 0-20 8.954-20 20s8.954 20 20 20h20v40h-20c-11.046 0-20 8.954-20 20s8.954 20 20 20h20v36h-80v-176c0-11.028 8.972-20 20-20zm-60 256c0-11.028 8.972-20 20-20h240c11.046 0 20-8.954 20-20s-8.954-20-20-20h-20v-76h80v96c0 11.046 8.954 20 20 20 11.028 0 20 8.972 20 20v116c0 33.084-26.916 60-60 60h-240c-33.084 0-60-26.916-60-60z"/><path d="m176 316c-33.084 0-60 26.916-60 60s26.916 60 60 60h160c33.084 0 60-26.916 60-60s-26.916-60-60-60zm180 60c0 11.028-8.972 20-20 20h-160c-11.028 0-20-8.972-20-20s8.972-20 20-20h160c11.028 0 20 8.972 20 20z"/></g></svg>