<svg id="Capa_1" enable-background="new 0 0 512.002 512.002" height="512" viewBox="0 0 512.002 512.002" width="512" xmlns="http://www.w3.org/2000/svg"><path d="m106.996 347c-11.046 0-20-8.954-20-20s8.954-20 20-20 20 8.954 20 20-8.954 20-20 20zm53 60c0 11.046 8.954 20 20 20s20-8.954 20-20-8.954-20-20-20-20 8.954-20 20zm351.835 82.437-49.732-384.817c-7.709-59.643-58.872-104.62-119.011-104.62h-196.74c-30.106 0-58.908 11.206-81.099 31.552-22.19 20.347-35.846 48.07-38.451 78.063l-26.459 304.597c-2.177 25.062 6.325 50.07 23.327 68.612 17.001 18.542 41.179 29.176 66.335 29.176h156.491c27.594 0 53.991-10.269 74.332-28.915 20.34-18.646 32.859-44.054 35.253-71.543l25.844-296.807c.958-11.004-7.186-20.701-18.189-21.66-11.029-.956-20.702 7.187-21.66 18.19l-9.469 108.735h-216.607c-11.046 0-20 8.954-20 20s8.954 20 20 20h213.125l-12.894 148.072c-3.172 36.445-33.152 63.928-69.735 63.928h-156.491c-14.181 0-27.269-5.756-36.853-16.208-9.584-10.453-14.187-23.99-12.96-38.118l26.459-304.596c3.62-41.661 37.883-73.078 79.701-73.078h196.74c40.093 0 74.201 29.984 79.341 69.747l49.732 384.817c1.303 10.084 9.905 17.439 19.81 17.438.854 0 1.719-.055 2.589-.167 10.954-1.416 18.687-11.444 17.271-22.398zm-431.835-82.437c0 11.046 8.954 20 20 20s20-8.954 20-20-8.954-20-20-20-20 8.954-20 20zm207-80c0-11.046-8.954-20-20-20s-20 8.954-20 20 8.954 20 20 20 20-8.954 20-20zm-47 80c0 11.046 8.954 20 20 20s20-8.954 20-20-8.954-20-20-20-20 8.954-20 20zm-33-80c0-11.046-8.954-20-20-20s-20 8.954-20 20 8.954 20 20 20 20-8.954 20-20zm5.182-235.504c-20.442-16.166-49.342-15.25-68.719 2.177-.309.278-.609.565-.899.861l-32.837 33.457c-7.737 7.883-7.619 20.546.264 28.283 7.884 7.737 20.548 7.62 28.283-.265l32.304-32.913c4.655-3.895 11.311-4.148 16.24-.64l62.438 59.072c3.866 3.658 8.809 5.472 13.742 5.472 5.304 0 10.598-2.098 14.531-6.255 7.591-8.024 7.24-20.682-.783-28.273l-63.225-59.817c-.429-.406-.876-.793-1.339-1.159zm98.818 4.504c0-11.046-8.954-20-20-20s-20 8.954-20 20 8.954 20 20 20 20-8.954 20-20z"/></svg>