<svg id="Capa_1" enable-background="new 0 0 512 512" height="512" viewBox="0 0 512 512" width="512" xmlns="http://www.w3.org/2000/svg"><g><path d="m506.567 378.297-76.289-81.102c-15.061-16.012-36.302-25.195-58.278-25.195s-43.217 9.183-58.278 25.195l-76.29 81.102c-7.568 8.045-7.181 20.703.865 28.271 8.044 7.567 20.703 7.181 28.271-.865l5.432-5.775v52.072c0 33.084 26.916 60 60 60h80c33.084 0 60-26.916 60-60v-52.072l5.433 5.775c3.936 4.185 9.247 6.297 14.571 6.297 4.913 0 9.838-1.8 13.699-5.432 8.046-7.568 8.433-20.226.864-28.271zm-74.567 73.703c0 11.028-8.972 20-20 20h-20v-60c0-11.046-8.954-20-20-20s-20 8.954-20 20v60h-20c-11.028 0-20-8.972-20-20v-94.595l30.856-32.803c7.645-8.127 17.995-12.602 29.144-12.602s21.499 4.475 29.144 12.602l30.856 32.802z"/><path d="m240 60c0-33.084-26.916-60-60-60h-120c-33.084 0-60 26.916-60 60v200c0 33.084 26.916 60 60 60h120c33.084 0 60-26.916 60-60zm-40 200c0 11.028-8.972 20-20 20h-40v-20c0-11.046-8.954-20-20-20s-20 8.954-20 20v20h-40c-11.028 0-20-8.972-20-20v-200c0-11.028 8.972-20 20-20h120c11.028 0 20 8.972 20 20z"/><path d="m140 80h-40c-11.046 0-20 8.954-20 20s8.954 20 20 20h40c11.046 0 20-8.954 20-20s-8.954-20-20-20z"/><path d="m140 160h-40c-11.046 0-20 8.954-20 20s8.954 20 20 20h40c11.046 0 20-8.954 20-20s-8.954-20-20-20z"/><path d="m176 399h-120c-11.046 0-20 8.954-20 20s8.954 20 20 20h71.716l-5.858 5.858c-7.811 7.811-7.811 20.474 0 28.284 3.905 3.905 9.023 5.858 14.142 5.858s10.237-1.953 14.142-5.858l40-40c5.72-5.72 7.431-14.322 4.335-21.796-3.095-7.473-10.388-12.346-18.477-12.346z"/><path d="m300 123h120c11.046 0 20-8.954 20-20s-8.954-20-20-20h-71.716l5.858-5.858c7.81-7.811 7.81-20.474 0-28.284-7.811-7.811-20.475-7.811-28.285 0l-40 40c-5.72 5.72-7.431 14.322-4.335 21.796 3.096 7.473 10.389 12.346 18.478 12.346z"/></g></svg>