<svg id="Capa_1" enable-background="new 0 0 512 512" height="512" viewBox="0 0 512 512" width="512" xmlns="http://www.w3.org/2000/svg"><g id="Time_Management"><g><path d="m256 512c-27.88 0-51.067-20.479-55.307-47.185-18.53-4.912-36.312-12.326-53.106-22.141-21.732 15.924-52.674 14.276-72.605-5.656-19.916-19.914-21.59-50.86-5.655-72.604-9.814-16.792-17.229-34.576-22.141-53.106-26.707-4.241-47.186-27.428-47.186-55.308s20.479-51.067 47.185-55.307c4.912-18.531 12.326-36.313 22.141-53.107-15.924-21.734-14.276-52.674 5.656-72.606 19.949-19.95 50.899-21.56 72.607-5.653 16.792-9.814 34.575-17.229 53.104-22.141 4.24-26.707 27.427-47.186 55.307-47.186s51.066 20.479 55.307 47.185c18.529 4.912 36.311 12.326 53.104 22.141 21.735-15.926 52.678-14.274 72.607 5.653 19.753 19.753 21.638 50.71 5.652 72.601 9.817 16.797 17.232 34.581 22.144 53.113 26.707 4.24 47.186 27.427 47.186 55.307s-20.479 51.067-47.186 55.307c-4.911 18.529-12.324 36.312-22.14 53.106 15.925 21.735 14.275 52.677-5.656 72.605-19.946 19.947-50.892 21.564-72.605 5.655-16.792 9.814-34.576 17.229-53.106 22.141-4.241 26.707-27.427 47.186-55.307 47.186zm-110.682-114.402c3.82 0 7.662 1.091 11.035 3.324l2.725 1.804c19.075 12.63 39.833 21.284 61.697 25.723l3.204.65c9.322 1.892 16.021 10.088 16.021 19.6v7.3c0 8.822 7.178 16 16 16s16-7.178 16-16v-7.3c0-9.512 6.699-17.708 16.021-19.6l3.204-.65c21.863-4.439 42.621-13.093 61.696-25.723l2.728-1.805c7.929-5.25 18.46-4.188 25.184 2.537l5.276 5.278c6.266 6.268 16.358 6.265 22.625-.002 6.269-6.268 6.27-16.358.001-22.625l-5.277-5.277c-6.726-6.725-7.786-17.255-2.535-25.185l1.805-2.726c12.63-19.076 21.283-39.833 25.721-61.695l.65-3.205c1.892-9.321 10.088-16.021 19.6-16.021h7.301c8.822 0 16-7.178 16-16s-7.178-16-16-16h-7.301c-9.513 0-17.708-6.7-19.601-16.022l-.65-3.205c-4.438-21.861-13.091-42.619-25.721-61.695l-1.805-2.725c-5.251-7.93-4.19-18.461 2.535-25.186l5.278-5.277c6.236-6.237 6.237-16.388-.002-22.627-6.265-6.266-16.363-6.265-22.628 0l-5.278 5.279c-6.724 6.723-17.254 7.785-25.182 2.536l-2.726-1.804c-19.077-12.631-39.834-21.286-61.695-25.724l-3.204-.65c-9.321-1.892-16.02-10.088-16.02-19.6v-7.3c0-8.822-7.178-16-16-16s-16 7.178-16 16v7.3c0 9.512-6.699 17.708-16.021 19.6l-3.204.65c-21.861 4.438-42.618 13.093-61.693 25.722l-2.728 1.806c-7.928 5.249-18.457 4.189-25.181-2.535l-5.28-5.28c-6.266-6.266-16.36-6.267-22.626-.001-6.268 6.269-6.269 16.361 0 22.629l5.278 5.278c6.724 6.724 7.783 17.252 2.535 25.181l-1.804 2.726c-12.63 19.076-21.285 39.833-25.724 61.698l-.65 3.204c-1.894 9.323-10.09 16.022-19.602 16.022h-7.3c-8.822 0-16 7.178-16 16s7.178 16 16 16h7.3c9.512 0 17.708 6.699 19.6 16.021l.65 3.204c4.439 21.864 13.093 42.622 25.722 61.695l1.806 2.728c5.249 7.929 4.189 18.458-2.535 25.182l-5.278 5.278c-6.267 6.267-6.268 16.359 0 22.626 6.268 6.268 16.359 6.269 22.626.001l5.278-5.278c3.865-3.865 8.987-5.859 14.149-5.859z"/></g><g><path d="m256 396c-77.196 0-140-62.804-140-140s62.804-140 140-140 140 62.804 140 140-62.804 140-140 140zm0-240c-55.14 0-100 44.86-100 100s44.86 100 100 100c55.141 0 100-44.86 100-100s-44.859-100-100-100z"/></g><g><path d="m296 276h-40c-11.046 0-20-8.954-20-20v-40c0-11.046 8.954-20 20-20s20 8.954 20 20v20h20c11.046 0 20 8.954 20 20s-8.954 20-20 20z"/></g></g></svg>