<svg id="Capa_1" enable-background="new 0 0 512.315 512.315" height="512" viewBox="0 0 512.315 512.315" width="512" xmlns="http://www.w3.org/2000/svg"><path d="m248.19 501.336h-132.591c-63.637 0-115.408-51.771-115.408-115.408v-270.184c-3.765-105.61 155.238-162.657 164.03-66.786v18.127c0 10.015 8.148 18.163 18.164 18.163h54.611c4.786 0 9.673-2.339 13.405-6.417 7.458-8.146 20.111-8.706 28.257-1.248 8.147 7.458 8.707 20.109 1.249 28.257-11.291 12.334-26.932 19.409-42.911 19.409h-54.611c-32.072 0-58.164-26.092-58.164-58.163v-18.128c0-4.754-3.868-8.623-8.622-8.623-41.58 0-75.408 33.828-75.408 75.408v270.184c0 41.58 33.828 75.408 75.408 75.408h132.591c26.508.984 26.488 39.027 0 40.001zm-94.006-72c-4.823 0-9.66-1.734-13.499-5.248-8.147-7.458-8.706-20.109-1.247-28.257 11.291-12.334 26.944-19.408 42.946-19.408h42.806c26.508.983 26.488 39.026 0 40h-42.806c-4.809 0-9.709 2.339-13.442 6.418-3.944 4.308-9.343 6.495-14.758 6.495zm56.006-90c-42.002 0-77.226-29.579-85.935-69h-23.065c-26.508-.983-26.488-39.026 0-40h23.532c22.806-88.796 148.164-88.736 170.936 0h24.532c26.508.983 26.488 39.026 0 40h-24.065c-8.709 39.421-43.933 69-85.935 69zm-44.079-69c16.484 38.433 71.69 38.411 88.158 0zm.921-40h86.316c-17.196-35.78-69.134-35.76-86.316 0zm232.158-23c-11.046 0-20-8.954-20-20v-71.592c0-41.58-33.828-75.408-75.408-75.408h-90.592c-26.508-.983-26.488-39.026 0-40h90.592c63.637 0 115.408 51.772 115.408 115.408v71.592c0 11.046-8.954 20-20 20zm.172 304.97c.882 0-.885.02 0 0zm-117.156-116.243c-.022-.534-.022.527 0 0zm229.967-1.107c-.411-23.759-7.679-46.128-20.784-64.71l7.783-7.608c7.898-7.722 8.042-20.384.32-28.283-7.725-7.899-20.387-8.041-28.282-.32l-21.088 20.614c-7.966 7.48-7.956 21.154.02 28.622 46.574 45.606 14.74 128.595-51.672 129.046-20.374.45-39.52-7.097-53.928-21.263-14.466-14.222-22.395-33.312-22.337-53.771.001-.155.002-.309 0-.463-.699-33.913 24.026-65.575 56.886-73.029v48.717c-23.283 18.597-10.023 56.803 20.087 56.828 30.534-.157 43.179-38.486 19.913-57.363v-105.737c-.983-26.508-39.026-26.488-40 0v16.812c-54.304 7.423-97.722 57.944-96.885 113.015.036 31.134 12.196 61.791 34.294 83.515 21.549 21.186 52.595 32.73 82.862 32.729 30.837-.689 59.508-13.23 80.732-35.316 21.22-22.08 32.612-51.214 32.079-82.035z"/></svg>