<svg id="Capa_1" enable-background="new 0 0 512 512" height="512" viewBox="0 0 512 512" width="512" xmlns="http://www.w3.org/2000/svg"><g><path d="m255.403 376.851 40-160c2.679-10.716-3.837-21.574-14.553-24.253-10.717-2.678-21.574 3.836-24.253 14.552l-40 160c-2.679 10.716 3.836 21.574 14.552 24.253 10.715 2.679 21.575-3.837 24.254-14.552z"/><path d="m192 240c-6.627-8.837-19.164-10.627-28-4.001l-31.988 23.99c-10.026 7.52-16.012 19.487-16.012 32.011s5.986 24.491 16.013 32.011l31.987 23.989c8.836 6.626 21.374 4.835 28-4.001 6.627-8.837 4.836-21.373-4.001-28l-31.988-24.01 31.988-23.989c8.837-6.627 10.628-19.163 4.001-28z"/><path d="m379.987 259.989-31.988-23.989c-8.837-6.627-21.372-4.835-27.999 4.001-6.628 8.837-4.836 21.373 4.001 28l31.988 24.01-31.988 23.989c-8.837 6.627-10.629 19.163-4.001 28 6.625 8.835 19.165 10.627 27.999 4.001l31.99-23.99c10.025-7.52 16.011-19.487 16.011-32.011s-5.986-24.491-16.013-32.011z"/><path d="m256 512c121.596 0 220-98.404 220-220 0-115.046-88.041-209.069-200-219.094v-32.906h20c11.046 0 20-8.954 20-20s-8.954-20-20-20h-80c-11.046 0-20 8.954-20 20s8.954 20 20 20h20v32.906c-111.843 10.014-200 103.921-200 219.094 0 121.596 98.404 220 220 220zm0-400c99.252 0 180 80.748 180 180s-80.748 180-180 180-180-80.748-180-180 80.747-180 180-180z"/><path d="m496.417 140.437c7.81-7.811 7.811-20.474 0-28.284l-56.568-56.569c-7.811-7.811-20.473-7.81-28.285 0-7.81 7.811-7.811 20.474 0 28.284l56.568 56.569c7.811 7.81 20.473 7.81 28.285 0z"/><path d="m43.868 140.437 56.568-56.569c7.811-7.811 7.811-20.474 0-28.284s-20.474-7.811-28.284 0l-56.568 56.569c-7.811 7.811-7.811 20.474 0 28.284 7.81 7.81 20.473 7.81 28.284 0z"/></g></svg>