<svg id="Capa_1" enable-background="new 0 0 511.998 511.998" height="512" viewBox="0 0 511.998 511.998" width="512" xmlns="http://www.w3.org/2000/svg"><g><path d="m49.898 321.284c-6.568-21.19-9.898-43.157-9.898-65.288 0-121.119 94.877-215.996 215.996-215.996 73.904 0 134.483 32.117 172.567 85.208 5.648 7.874 16.131 10.565 24.872 6.389 9.57-4.572 14.656-16.3 9.726-26.748l-22.176-80.439c-2.935-10.65-13.951-16.901-24.595-13.966-10.648 2.936-16.901 13.948-13.965 24.596l2.979 10.81c-54.08-38.735-113.271-45.85-149.408-45.85-143.549 0-255.996 112.447-255.996 255.996 0 26.15 3.934 52.1 11.69 77.13 3.27 10.55 14.474 16.453 25.024 13.183 10.552-3.27 16.453-14.474 13.184-25.025z"/><path d="m109.573 476.958-2.979-10.809c54.08 38.735 113.272 45.85 149.408 45.85 143.549 0 255.996-112.447 255.996-255.996 0-26.15-3.934-52.101-11.69-77.13-3.271-10.55-14.47-16.454-25.024-13.183-10.551 3.27-16.452 14.474-13.183 25.024 6.567 21.191 9.897 43.157 9.897 65.288 0 121.119-94.877 215.996-215.996 215.996-41.62 0-119.383-11.07-172.567-85.209-5.648-7.874-16.129-10.566-24.872-6.388-8.744 4.177-13.235 14.021-10.659 23.363l23.109 83.825c2.936 10.649 13.947 16.9 24.596 13.965 10.648-2.936 16.901-13.948 13.964-24.596z"/><path d="m255.999 435.999c99.252 0 180-80.748 180-180s-80.748-180-180-180-180 80.748-180 180 80.748 180 180 180zm0-320c77.196 0 140 62.804 140 140s-62.804 140-140 140-140-62.804-140-140 62.804-140 140-140z"/><path d="m213.6 326.683 56.542-56.542c3.75-3.751 5.857-8.838 5.857-14.142v-80c0-11.046-8.954-20-20-20s-20 8.954-20 20v71.716l-50.685 50.684c-7.81 7.81-7.81 20.474 0 28.284 7.812 7.81 20.474 7.81 28.286 0z"/></g></svg>