<svg id="Capa_1" enable-background="new 0 0 512 512" height="512" viewBox="0 0 512 512" width="512" xmlns="http://www.w3.org/2000/svg"><path d="m111 313c0-11.046 8.954-20 20-20s20 8.954 20 20-8.954 20-20 20-20-8.954-20-20zm86 0c0 11.046 8.954 20 20 20s20-8.954 20-20-8.954-20-20-20-20 8.954-20 20zm192 66c-11.046 0-20 8.954-20 20s8.954 20 20 20 20-8.954 20-20-8.954-20-20-20zm0-173c-11.046 0-20 8.954-20 20s8.954 20 20 20 20-8.954 20-20-8.954-20-20-20zm123 22v164c0 66.168-53.832 120-120 120h-272c-66.168 0-120-53.832-120-120v-164c0-66.168 53.832-120 120-120h272c66.168 0 120 53.832 120 120zm-40 0c0-44.112-35.888-80-80-80h-272c-44.112 0-80 35.888-80 80v164c0 44.112 35.888 80 80 80h272c44.112 0 80-35.888 80-80zm-370-148c11.046 0 20-8.954 20-20 0-11.028 8.972-20 20-20s20 8.972 20 20c0 11.046 8.954 20 20 20s20-8.954 20-20c0-33.084-26.916-60-60-60s-60 26.916-60 60c0 11.046 8.954 20 20 20zm230 0c11.046 0 20-8.954 20-20 0-11.028 8.972-20 20-20s20 8.972 20 20c0 11.046 8.954 20 20 20s20-8.954 20-20c0-33.084-26.916-60-60-60s-60 26.916-60 60c0 11.046 8.954 20 20 20zm-201 166h172c11.046 0 20-8.954 20-20s-8.954-20-20-20h-172c-11.046 0-20 8.954-20 20s8.954 20 20 20zm172 133h-172c-11.046 0-20 8.954-20 20s8.954 20 20 20h172c11.046 0 20-8.954 20-20s-8.954-20-20-20zm86-86h-86c-11.046 0-20 8.954-20 20s8.954 20 20 20h86c11.046 0 20-8.954 20-20s-8.954-20-20-20z"/></svg>