<svg id="Capa_1" enable-background="new 0 0 512 512" height="512" viewBox="0 0 512 512" width="512" xmlns="http://www.w3.org/2000/svg"><g id="Time_Management"><g><path d="m256 512c-11.144 0-42.304-6.462-52.523-35.971-2.439-7.042-8.111-12.637-15.174-14.966-10.077-3.323-19.995-7.434-29.476-12.219-6.525-3.293-14.67-3.362-21.269-.179-6.763 3.263-14.024 4.917-21.582 4.917-19.329 0-35.269-10.835-40.997-16.564-7.876-7.876-25.337-34.475-11.696-62.574 3.255-6.706 3.199-14.675-.151-21.316-4.784-9.486-8.893-19.404-12.212-29.479-2.321-7.043-7.895-12.71-14.911-15.16-29.393-10.262-36.009-42.133-36.009-52.489 0-11.144 6.462-42.304 35.971-52.523 7.042-2.439 12.637-8.111 14.966-15.174 3.323-10.077 7.434-19.993 12.218-29.474 3.343-6.624 3.41-14.575.18-21.27-13.531-28.045 4.325-55.258 11.646-62.579 6.189-6.188 21.774-16.66 40.936-16.66 7.571 0 14.852 1.67 21.638 4.964 6.627 3.217 14.761 3.156 21.319-.151 9.481-4.782 19.399-8.892 29.478-12.213 7.043-2.321 12.71-7.895 15.159-14.911 10.26-29.394 42.133-36.009 52.489-36.009 11.144 0 42.303 6.462 52.523 35.97 2.439 7.042 8.112 12.637 15.174 14.966 10.074 3.322 19.991 7.433 29.476 12.22 6.528 3.295 14.672 3.362 21.269.18 6.763-3.263 14.024-4.917 21.583-4.917 19.327 0 35.266 10.833 40.994 16.561 7.879 7.879 25.339 34.48 11.699 62.577-3.256 6.707-3.2 14.676.15 21.317 4.782 9.482 8.891 19.399 12.212 29.477 2.321 7.044 7.896 12.712 14.912 15.161 29.393 10.259 36.008 42.132 36.008 52.488 0 11.144-6.462 42.302-35.971 52.523-7.042 2.439-12.637 8.111-14.966 15.174-3.323 10.078-7.435 19.995-12.219 29.476-3.342 6.623-3.409 14.574-.179 21.269 13.53 28.046-4.325 55.256-11.646 62.577-14.324 14.325-40.541 22.394-62.574 11.697-6.622-3.214-14.758-3.157-21.317.151-9.481 4.782-19.399 8.891-29.479 12.213-7.043 2.321-12.71 7.895-15.159 14.912-10.261 29.393-42.134 36.008-52.49 36.008zm.235-39.996h.01zm-108.217-65.726c9.975 0 19.945 2.37 28.832 6.855 7.715 3.894 15.783 7.239 23.981 9.942 18.831 6.21 33.95 21.113 40.444 39.864 2.437 7.036 12.903 8.788 14.699 9.033 2.627-.337 12.493-2.696 14.75-9.164 6.522-18.683 21.627-33.532 40.406-39.72 8.2-2.702 16.269-6.045 23.983-9.936 8.891-4.484 18.855-6.854 28.818-6.854 9.635 0 19.311 2.225 27.982 6.434 5.154 2.503 12.744-.67 16.748-3.954 1.575-2.014 6.978-10.737 3.978-16.956-8.601-17.828-8.416-39.014.496-56.672 3.893-7.714 7.238-15.782 9.942-23.981 6.21-18.83 21.111-33.949 39.862-40.443 7.036-2.437 8.789-12.903 9.035-14.699-.337-2.627-2.696-12.493-9.164-14.75-18.683-6.522-33.532-21.627-39.72-40.407-2.702-8.199-6.045-16.268-9.936-23.983-8.933-17.71-9.089-38.944-.418-56.802 3.239-6.671-2.851-15.263-3.986-16.764-4.311-3.346-11.721-6.471-16.925-3.959-8.624 4.16-18.25 6.36-27.839 6.36-9.976 0-19.946-2.37-28.834-6.856-7.717-3.895-15.785-7.24-23.979-9.942-18.831-6.21-33.95-21.112-40.444-39.863-2.437-7.035-12.903-8.788-14.699-9.033-2.626.337-12.493 2.696-14.751 9.163-6.521 18.683-21.626 33.531-40.406 39.719-8.198 2.701-16.267 6.044-23.982 9.936-8.891 4.484-18.855 6.855-28.818 6.856-9.636 0-19.312-2.224-27.983-6.434-5.226-2.536-12.849.755-16.749 3.952-1.577 2.017-6.978 10.739-3.978 16.956 8.602 17.829 8.417 39.016-.496 56.674-3.892 7.714-7.237 15.782-9.941 23.98-6.209 18.83-21.112 33.949-39.864 40.443-7.034 2.436-8.787 12.901-9.032 14.699.337 2.627 2.697 12.492 9.165 14.75 18.682 6.522 33.53 21.627 39.718 40.406 2.701 8.196 6.044 16.266 9.937 23.984 8.932 17.707 9.089 38.941.421 56.798-3.241 6.675 2.851 15.268 3.984 16.764 1.716 1.333 7.301 4.905 12.724 4.905 1.511 0 2.885-.309 4.201-.944 8.622-4.158 18.249-6.357 27.838-6.357z"/></g><g><path d="m255.886 396.026c-37.874 0-73.205-15.432-98.842-41.07-15.783-15.783-27.693-35.3-34.443-56.439-7.193-22.526-8.538-46.004-3.997-69.782 5.178-27.117 18.566-52.031 38.719-72.047 20.143-20.007 45.141-33.234 72.292-38.251 29.884-5.521 59.879-1.631 86.743 11.249 28.75 13.784 52.173 37.208 65.957 65.956 12.88 26.864 16.771 56.86 11.249 86.743-10.23 55.37-54.99 100.45-110.298 111.011-9.184 1.755-18.325 2.63-27.38 2.63zm.09-240.02c-6.325 0-12.709.586-19.095 1.766-39.063 7.217-71.545 39.484-78.988 78.466-6.419 33.618 3.58 66.58 27.435 90.434 19.117 19.117 44.087 29.335 70.553 29.337 6.559 0 13.205-.627 19.882-1.902 38.982-7.443 71.248-39.925 78.466-78.989 3.973-21.501 1.212-43.004-7.983-62.182-9.86-20.565-26.616-37.321-47.181-47.181-13.484-6.464-28.117-9.749-43.089-9.749z"/></g><g><path d="m296 276h-40c-11.046 0-20-8.954-20-20v-40c0-11.046 8.954-20 20-20s20 8.954 20 20v20h20c11.046 0 20 8.954 20 20s-8.954 20-20 20z"/></g></g></svg>