<svg id="Capa_1" enable-background="new 0 0 512 512" height="512" viewBox="0 0 512 512" width="512" xmlns="http://www.w3.org/2000/svg"><g><path d="m477.858 381.858-45.858 45.858-25.858-25.858c-7.811-7.811-20.474-7.811-28.284 0s-7.811 20.474 0 28.284l40 40c3.905 3.905 9.023 5.858 14.142 5.858s10.237-1.953 14.142-5.858l60-60c7.811-7.811 7.811-20.474 0-28.284s-20.474-7.811-28.284 0z"/><path d="m256 0c-143.551 0-256 112.448-256 256s112.449 256 256 256c33.542 0 66.199-6.301 97.063-18.729 10.246-4.125 15.208-15.776 11.083-26.023s-15.776-15.208-26.023-11.082c-26.094 10.507-53.724 15.834-82.123 15.834-121.122 0-216-94.879-216-216s94.878-216 216-216 216 94.879 216 216c0 16.727-1.881 33.389-5.592 49.524-2.476 10.765 4.244 21.498 15.009 23.974 10.764 2.476 21.498-4.244 23.974-15.009 4.385-19.071 6.609-38.749 6.609-58.489 0-143.552-112.449-256-256-256z"/><path d="m350.142 350.142c7.811-7.811 7.811-20.474 0-28.284l-74.142-74.142v-71.716c0-11.046-8.954-20-20-20s-20 8.954-20 20v80c0 5.304 2.107 10.391 5.858 14.142l80 80c7.81 7.811 20.474 7.811 28.284 0z"/><circle cx="256" cy="96" r="20"/><circle cx="256" cy="416" r="20"/><circle cx="100" cy="256" r="20"/><circle cx="412" cy="256" r="20"/></g></svg>