<svg id="Capa_1" enable-background="new 0 0 512 512" height="512" viewBox="0 0 512 512" width="512" xmlns="http://www.w3.org/2000/svg"><path d="m146 231c0 11.046-8.954 20-20 20s-20-8.954-20-20 8.954-20 20-20 20 8.954 20 20zm66-20c-11.046 0-20 8.954-20 20s8.954 20 20 20 20-8.954 20-20-8.954-20-20-20zm0 173c-11.046 0-20 8.954-20 20s8.954 20 20 20 20-8.954 20-20-8.954-20-20-20zm-86 0c-11.046 0-20 8.954-20 20s8.954 20 20 20 20-8.954 20-20-8.954-20-20-20zm0-86c-11.046 0-20 8.954-20 20s8.954 20 20 20 20-8.954 20-20-8.954-20-20-20zm86 0c-11.046 0-20 8.954-20 20s8.954 20 20 20 20-8.954 20-20-8.954-20-20-20zm172-87c-11.046 0-20 8.954-20 20s8.954 20 20 20 20-8.954 20-20-8.954-20-20-20zm-86 173c-11.046 0-20 8.954-20 20s8.954 20 20 20 20-8.954 20-20-8.954-20-20-20zm214-204v212c0 66.168-53.832 120-120 120h-272c-66.168 0-120-53.832-120-120v-212c0-33.084 26.916-60 60-60h392c33.084 0 60 26.916 60 60zm-40 0c0-11.028-8.972-20-20-20h-392c-11.028 0-20 8.972-20 20v212c0 44.112 35.888 80 80 80h272c44.112 0 80-35.888 80-80zm-88 118c-11.046 0-20 8.954-20 20s8.954 20 20 20 20-8.954 20-20-8.954-20-20-20zm-86-87c-11.046 0-20 8.954-20 20s8.954 20 20 20 20-8.954 20-20-8.954-20-20-20zm0 87c-11.046 0-20 8.954-20 20s8.954 20 20 20 20-8.954 20-20-8.954-20-20-20zm-278-218h180.428c16.925 0 32.076-10.713 37.701-26.658 2.815-7.981 10.399-13.342 18.871-13.342s16.056 5.361 18.871 13.341c5.625 15.946 20.776 26.659 37.701 26.659h178.428c11.046 0 20-8.954 20-20s-8.954-20-20-20l-178.408.033c-8.448-23.945-31.191-40.033-56.592-40.033s-48.144 16.088-56.572 40h-180.428c-11.046 0-20 8.954-20 20s8.954 20 20 20z"/></svg>