<svg id="Capa_1" enable-background="new 0 0 512 512" height="512" viewBox="0 0 512 512" width="512" xmlns="http://www.w3.org/2000/svg"><g><path d="m256 212c-11.046 0-20 8.954-20 20v80c0 11.046 8.954 20 20 20h80c11.046 0 20-8.954 20-20s-8.954-20-20-20h-60v-60c0-11.046-8.954-20-20-20z"/><path d="m236.563 55.25c2.179-8.979 10.172-15.25 19.437-15.25s17.258 6.271 19.437 15.25l3.12 12.856c2.605 10.734 13.419 17.323 24.153 14.719 10.734-2.605 17.324-13.419 14.719-24.153l-3.12-12.856c-6.547-26.976-30.524-45.816-58.309-45.816-27.712 0-51.636 18.741-58.257 45.604l-21.927 83.194c-70.472 30.964-119.816 101.423-119.816 183.202 0 110.28 89.72 200 200 200s200-89.72 200-200-89.72-200-200-200c-12.01 0-23.776 1.066-35.209 3.105 0 0 15.741-59.728 15.772-59.855zm179.437 256.75c0 88.224-71.776 160-160 160s-160-71.776-160-160 71.776-160 160-160 160 71.776 160 160z"/></g></svg>