<svg id="Capa_1" enable-background="new 0 0 512 512" height="512" viewBox="0 0 512 512" width="512" xmlns="http://www.w3.org/2000/svg"><g><path d="m256 80c-11.046 0-20 8.954-20 20v31.716l-22.411 22.411c-7.811 7.811-7.811 20.474 0 28.284 7.811 7.811 20.474 7.811 28.284 0l28.184-28.183c3.663-3.62 5.935-8.643 5.943-14.197 0-.005 0-40.031 0-40.031 0-11.046-8.954-20-20-20z"/><path d="m396 140c0-77.196-62.804-140-140-140s-140 62.804-140 140v232c0 77.196 62.804 140 140 140s140-62.804 140-140v-72c0-11.046-8.954-20-20-20s-20 8.954-20 20v72c0 55.14-44.859 100-100 100-55.14 0-100-44.86-100-100v-134.128c21.018 21.471 48.87 36.221 80 40.693v36.875c-23.278 8.256-40 30.487-40 56.56 0 33.084 26.916 60 60 60s60-26.916 60-60c0-26.073-16.722-48.304-40-56.56v-36.875c67.755-9.734 120-68.159 120-138.565zm-240 0c0-55.14 44.86-100 100-100 55.141 0 100 44.86 100 100s-44.859 100-100 100c-55.14 0-100-44.86-100-100zm100 252c-11.028 0-20-8.972-20-20s8.972-20 20-20 20 8.972 20 20-8.972 20-20 20z"/></g></svg>