<svg id="Capa_1" enable-background="new 0 0 512 512" height="512" viewBox="0 0 512 512" width="512" xmlns="http://www.w3.org/2000/svg"><g><path d="m76 400c0-11.046-8.954-20-20-20s-20 8.954-20 20v92c0 11.046 8.954 20 20 20s20-8.954 20-20z"/><path d="m452 220h-20v-20c0-11.046-8.954-20-20-20s-20 8.954-20 20v20h-40v-20c0-11.046-8.954-20-20-20s-20 8.954-20 20v20h-116v-40h60c33.084 0 60-26.916 60-60v-60c0-33.084-26.916-60-60-60h-160c-33.084 0-60 26.916-60 60v60c0 33.084 26.916 60 60 60h60v40h-96c-33.084 0-60 26.916-60 60s26.916 60 60 60h212v152c0 11.046 8.954 20 20 20s20-8.954 20-20v-20h120v20c0 11.046 8.954 20 20 20s20-8.954 20-20v-155.44c23.278-8.256 40-30.487 40-56.56 0-33.084-26.916-60-60-60zm-376-100v-60c0-11.028 8.972-20 20-20h160c11.028 0 20 8.972 20 20v60c0 11.028-8.972 20-20 20h-160c-11.028 0-20-8.972-20-20zm236 312v-92h120v92zm140-132h-392c-11.028 0-20-8.972-20-20s8.972-20 20-20h392c11.028 0 20 8.972 20 20s-8.972 20-20 20z"/></g></svg>