<svg id="Capa_1" enable-background="new 0 0 512 512" height="512" viewBox="0 0 512 512" width="512" xmlns="http://www.w3.org/2000/svg"><g><path d="m492 512c-11.046 0-20-8.954-20-20v-19h-432v19c0 11.046-8.954 20-20 20s-20-8.954-20-20v-412c0-44.112 35.888-80 80-80h352c44.112 0 80 35.888 80 80v412c0 11.046-8.954 20-20 20zm-216-79h196v-50h-196zm-236 0h196v-50h-136c-11.046 0-20-8.954-20-20s8.954-20 20-20h136v-90h-160c-19.851 0-36 16.149-36 36zm236-90h196v-54c0-19.851-16.149-36-36-36h-160zm-20-130h180c13.017 0 25.278 3.289 36 9.08v-142.08c0-22.056-17.944-40-40-40h-352c-22.056 0-40 17.944-40 40v142.08c10.722-5.791 22.983-9.08 36-9.08z"/><path d="m376 279c11.046 0 20 8.954 20 20s-8.954 20-20 20-20-8.954-20-20 8.954-20 20-20zm-260 20c0 11.046 8.954 20 20 20s20-8.954 20-20-8.954-20-20-20-20 8.954-20 20zm120-137c0 11.046 8.954 20 20 20s20-8.954 20-20-8.954-20-20-20-20 8.954-20 20zm0 0c0 11.046 8.954 20 20 20s20-8.954 20-20-8.954-20-20-20-20 8.954-20 20zm0-70c0 11.046 8.954 20 20 20s20-8.954 20-20-8.954-20-20-20-20 8.954-20 20zm79 70c0 11.046 8.954 20 20 20s20-8.954 20-20-8.954-20-20-20-20 8.954-20 20zm0-70c0 11.046 8.954 20 20 20s20-8.954 20-20-8.954-20-20-20-20 8.954-20 20zm79 70c0 11.046 8.954 20 20 20s20-8.954 20-20-8.954-20-20-20-20 8.954-20 20zm0-70c0 11.046 8.954 20 20 20s20-8.954 20-20-8.954-20-20-20-20 8.954-20 20zm-316 70c0 11.046 8.954 20 20 20s20-8.954 20-20-8.954-20-20-20-20 8.954-20 20zm0-70c0 11.046 8.954 20 20 20s20-8.954 20-20-8.954-20-20-20-20 8.954-20 20zm79 70c0 11.046 8.954 20 20 20s20-8.954 20-20-8.954-20-20-20-20 8.954-20 20zm0-70c0 11.046 8.954 20 20 20s20-8.954 20-20-8.954-20-20-20-20 8.954-20 20z"/></g></svg>