<svg id="Capa_1" enable-background="new 0 0 512 512" height="512" viewBox="0 0 512 512" width="512" xmlns="http://www.w3.org/2000/svg"><g id="Workplace_2_"><g><path d="m452 512c-11.046 0-20-8.954-20-20v-72c0-11.046 8.954-20 20-20s20 8.954 20 20v72c0 11.046-8.954 20-20 20z"/></g><path d="m512 220c0-33.084-26.916-60-60-60h-72c-33.084 0-60 26.916-60 60 0 7.011 1.22 13.74 3.44 20h-163.44v-40h60c33.084 0 60-26.916 60-60v-80c0-33.084-26.916-60-60-60h-160c-33.084 0-60 26.916-60 60v80c0 33.084 26.916 60 60 60h60v40h-60c-33.084 0-60 26.916-60 60 0 26.073 16.722 48.303 40 56.56v135.44c0 11.046 8.954 20 20 20s20-8.954 20-20v-132h372c33.084 0 60-26.916 60-60 0-15.355-5.805-29.376-15.327-40 9.522-10.624 15.327-24.645 15.327-40zm-472-80v-80c0-11.028 8.972-20 20-20h160c11.028 0 20 8.972 20 20v80c0 11.028-8.972 20-20 20h-160c-11.028 0-20-8.972-20-20zm320 80c0-11.028 8.972-20 20-20h72c11.028 0 20 8.972 20 20s-8.972 20-20 20h-72c-11.028 0-20-8.972-20-20zm92 100h-392c-11.028 0-20-8.972-20-20s8.972-20 20-20h392c11.028 0 20 8.972 20 20s-8.972 20-20 20z"/></g></svg>