<svg id="Capa_1" enable-background="new 0 0 512 512" height="512" viewBox="0 0 512 512" width="512" xmlns="http://www.w3.org/2000/svg"><g><path d="m56 512c11.046 0 20-8.954 20-20v-80c0-11.046-8.954-20-20-20s-20 8.954-20 20v80c0 11.046 8.954 20 20 20z"/><circle cx="392" cy="412" r="20"/><path d="m472 152h20c11.046 0 20-8.954 20-20s-8.954-20-20-20h-140c-22.056 0-40 17.944-40 40v40c0 14.566 3.932 28.223 10.763 40h-166.763v-40h56c33.084 0 60-26.916 60-60v-72c0-33.084-26.916-60-60-60h-152c-33.084 0-60 26.916-60 60v72c0 33.084 26.916 60 60 60h56v40h-56c-33.084 0-60 26.916-60 60s26.916 60 60 60h412v100c0 11.028-8.972 20-20 20h-120c-11.028 0-20-8.972-20-20v-40c0-11.046-8.954-20-20-20s-20 8.954-20 20v40c0 33.084 26.916 60 60 60h120c33.084 0 60-26.916 60-60v-160c0-30.075-22.244-55.046-51.142-59.341 7.068-11.924 11.142-25.822 11.142-40.659zm-432-20v-72c0-11.028 8.972-20 20-20h152c11.028 0 20 8.972 20 20v72c0 11.028-8.972 20-20 20h-152c-11.028 0-20-8.972-20-20zm312 60v-40h80v40c0 22.056-17.944 40-40 40s-40-17.944-40-40zm120 100v20h-412c-11.028 0-20-8.972-20-20s8.972-20 20-20h392c11.028 0 20 8.972 20 20z"/></g></svg>