<svg id="Capa_1" enable-background="new 0 0 512 512" height="512" viewBox="0 0 512 512" width="512" xmlns="http://www.w3.org/2000/svg"><g><circle cx="372" cy="220" r="20"/><path d="m392 100c0-11.046-8.954-20-20-20s-20 8.954-20 20v40c0 11.046 8.954 20 20 20s20-8.954 20-20z"/><path d="m139.761 512h.239c33.084 0 60-26.916 60-60v-80c0-33.084-26.916-60-60-60-11.028 0-20-8.972-20-20v-72c0-11.028 8.972-20 20-20 33.084 0 60-26.916 60-60v-80c0-33.084-26.916-60-60-60h-.239c-78.112 0-139.761 64.473-139.761 149.443v213.114c0 83.974 60.609 149.443 139.761 149.443zm-99.761-362.557c0-62.393 42.888-109.443 99.761-109.443h.239c11.028 0 20 8.972 20 20v80c0 11.028-8.972 20-20 20-33.084 0-60 26.916-60 60v72c0 33.084 26.916 60 60 60 11.028 0 20 8.972 20 20v80c0 11.028-8.972 20-20 20h-.239c-56.873 0-99.761-47.05-99.761-109.443z"/><path d="m372 0c-77.196 0-140 62.804-140 140v120c0 11.028-8.972 20-20 20-11.046 0-20 8.954-20 20s8.954 20 20 20h160c77.196 0 140-62.804 140-140v-40c0-77.196-62.804-140-140-140zm100 180c0 55.14-44.86 100-100 100h-103.427c2.219-6.258 3.427-12.991 3.427-20v-120c0-55.14 44.86-100 100-100s100 44.86 100 100z"/></g></svg>