<svg id="Capa_1" enable-background="new 0 0 511.967 511.967" height="512" viewBox="0 0 511.967 511.967" width="512" xmlns="http://www.w3.org/2000/svg"><path d="m362 487.5c-.004 11.043-8.959 19.992-20 19.992h-.008l-66-.026c-26.503-.994-26.474-39.025.008-40h.008l66 .026c11.046.004 19.996 8.962 19.992 20.008zm133.422-78.418c-10.949-11.368-25.482-17.629-40.927-17.629l-54.209.014c5.976-17.701 1.765-39.296-9.791-53.237 23.332-23.911 19.464-65.78-7.411-85.147 22.667-37.193-5.769-87.21-49.578-86.591l-90.458-.029c21.097-45.686 39.537-88.368 26.35-124.376-5.932-15.037-17.466-26.415-33.356-32.904-15.905-6.496-32.588-6.263-46.975.659-13.183 6.341-23.923 18.127-30.327 33.253-26.823 51.502-56.585 81.258-92.982 110.037-20.365 16.104-37.112 36.946-48.432 60.277-11.335 23.363-17.326 49.427-17.326 75.373v98.684c0 66.16 53.825 119.992 119.987 120h78.013c26.508-.983 26.488-39.026 0-40h-78.01c-44.106-.006-79.99-35.894-79.99-80v-98.684c0-40.856 18.431-78.862 50.568-104.273 35.147-27.791 72.082-62.017 104.068-123.742.277-.535.049.023.277-.535 2.602-6.371 6.994-12.179 11.494-14.343 4.179-2.012 9.062-1.9 14.514.325 32.206 12.014-2.617 79.774-27.808 131.258-6.743 12.837 3.304 29.317 17.881 28.981l122.506.039c23.19.883 23.172 34.126 0 35h-39.5c-26.508.983-26.488 39.026 0 40h54.5c23.19.883 23.172 34.126 0 35h-54.5c-26.508.983-26.488 39.026 0 40h51.5c22.794.825 23.35 33.323.671 34.987l-52.176.013c-26.504.99-26.48 39.026.005 40l160.5-.039c22.226 1.147 23.95 35.038.5 36.039h-37c-26.508.983-26.488 39.026 0 40h37c51.074-.004 75.659-62.244 40.422-98.41z"/></svg>