<svg id="Capa_1" enable-background="new 0 0 512.023 512.023" height="512" viewBox="0 0 512.023 512.023" width="512" xmlns="http://www.w3.org/2000/svg"><path d="m511.95 379.625c-.824-18.673-8.545-36.235-21.741-49.453-.082-.082-.163-.162-.246-.242l-34.757-33.635c-17.362-17.304-42.041-24.705-66.05-19.805-24.106 4.921-43.976 21.506-53.153 44.364-6.18 15.396-10.971 23.56-12.358 25.594-10.66 10.467-21.702 15.557-33.734 15.557-29.657 0-63.152-30.117-85.766-52.771-69.691-69.811-57.831-100.659-39.198-119.645 2.519-1.81 11.947-7.164 26.726-13.191 22.625-9.228 39.031-29.066 43.884-53.068 4.856-24.02-2.537-48.703-19.781-66.069l-33.84-35.165c-.085-.088-.17-.175-.257-.262-13.249-13.272-30.86-21.003-49.592-21.77-18.655-.769-36.842 5.446-51.194 17.487-6.787 5.694-13.393 11.797-19.634 18.141-51.271 52.108-70.92 117.622-56.823 189.458 12.086 61.593 49.366 125.87 104.971 180.99 55.181 54.698 119.372 90.957 180.75 102.097 13.94 2.529 27.631 3.786 41.028 3.786 55.151-.001 105.251-21.305 146.639-62.764 5.878-5.889 11.547-12.098 16.852-18.456 11.963-14.341 18.097-32.517 17.274-51.178zm-47.99 25.554c-4.545 5.448-9.406 10.771-14.447 15.821-42.343 42.416-93.555 58.522-152.214 47.879-53.506-9.711-110.233-42.081-159.732-91.147-49.978-49.542-83.319-106.465-93.879-160.284-11.601-59.119 3.904-110.832 46.085-153.702 5.352-5.44 11.014-10.672 16.83-15.55 6.575-5.517 14.528-8.245 22.435-8.245 8.783 0 17.508 3.368 24.215 10.025l33.818 35.143c.085.088.17.175.257.262 7.976 7.99 11.264 18.932 9.022 30.022-2.226 11.005-9.436 19.738-19.783 23.958-7.123 2.905-31.019 13.04-39.434 21.47-27.714 27.762-33.865 62.468-17.788 100.367 13.033 30.721 38.482 58.257 56.491 76.297 29.983 30.035 70.045 64.512 114.075 64.512 23.088 0 44.163-9.382 62.633-27.883 8.039-8.056 17.784-31.402 20.579-38.365 4.216-10.501 12.976-17.817 24.034-20.075 11.027-2.249 21.913 1.031 29.873 9.005.081.082.163.162.246.242l34.736 33.615c12.644 12.776 13.491 32.796 1.948 46.633zm-151.937-305.178c0-11.046 8.954-20 20-20h60v-60c0-11.046 8.954-20 20-20s20 8.954 20 20v60h60c11.046 0 20 8.954 20 20s-8.954 20-20 20h-60v60c0 11.046-8.954 20-20 20s-20-8.954-20-20v-60h-60c-11.046 0-20-8.954-20-20z"/></svg>