<svg id="Capa_1" enable-background="new 0 0 512.032 512.032" height="512" viewBox="0 0 512.032 512.032" width="512" xmlns="http://www.w3.org/2000/svg"><g><path d="m392.031 42.027v-22.011c0-11.046-8.954-20-20-20s-20 8.954-20 20v22.011c-12.749 2.598-24.621 7.634-35.113 14.591l-15.597-15.597c-7.812-7.811-20.475-7.81-28.284 0-7.811 7.81-7.812 20.474-.001 28.284l15.597 15.597c-6.957 10.493-11.993 22.365-14.591 35.114h-22.011c-11.046 0-20 8.954-20 20s8.954 20 20 20h22.011c2.598 12.749 7.634 24.621 14.591 35.114l-15.597 15.597c-7.811 7.811-7.81 20.474.001 28.284 7.811 7.811 20.474 7.811 28.284 0l15.597-15.597c10.492 6.957 22.364 11.993 35.113 14.591v22.011c0 11.046 8.954 20 20 20s20-8.954 20-20v-22.011c12.749-2.598 24.621-7.634 35.113-14.591l15.597 15.597c7.811 7.81 20.474 7.811 28.284 0 7.811-7.81 7.812-20.474.001-28.284l-15.596-15.597c6.957-10.493 11.993-22.365 14.591-35.114h22.011c11.046 0 20-8.954 20-20s-8.954-20-20-20h-22.011c-2.598-12.749-7.634-24.621-14.591-35.114l15.597-15.597c7.811-7.811 7.81-20.474-.001-28.284-7.811-7.811-20.474-7.811-28.284 0l-15.597 15.597c-10.493-6.957-22.364-11.993-35.114-14.591zm-20 157.989c-33.084 0-60-26.916-60-60s26.916-60 60-60 60 26.916 60 60-26.916 60-60 60z"/><circle cx="372.031" cy="140.016" r="20"/><path d="m210.741 471.077c54.588 54.586 143.403 54.586 197.991 0 23.394-23.394 23.394-61.458 0-84.853l-56.569-56.569c-23.393-23.393-61.459-23.393-84.854.001-7.816 7.816-20.467 7.816-28.283 0l-56.568-56.568c-7.817-7.816-7.818-20.469 0-28.284 23.394-23.394 23.394-61.459 0-84.853l-56.568-56.568c-23.395-23.394-61.46-23.394-84.853 0-54.716 54.714-54.716 143.274-.001 197.99zm-141.42-339.411c7.797-7.798 20.487-7.798 28.284 0l56.568 56.568c7.816 7.815 7.817 20.469.001 28.284-23.45 23.449-23.45 61.403-.001 84.853l56.568 56.568c23.396 23.396 61.461 23.394 84.855 0 7.816-7.816 20.467-7.816 28.283 0l56.568 56.569c7.799 7.798 7.799 20.486 0 28.284-38.989 38.99-102.432 38.99-141.421 0l-169.705-169.705c-39.082-39.084-39.082-102.338 0-141.421z"/><path d="m479.612 459.113c-10.436 8.268-23.558 12.851-36.949 12.903-11.045.044-19.964 9.033-19.921 20.079.044 11.019 8.988 19.921 19.998 19.921h.081c22.313-.088 44.201-7.741 61.631-21.55 8.657-6.859 10.116-19.438 3.257-28.096-6.861-8.658-19.441-10.115-28.097-3.257z"/></g></svg>