<svg id="Capa_1" enable-background="new 0 0 512 512" height="512" viewBox="0 0 512 512" width="512" xmlns="http://www.w3.org/2000/svg"><g><path d="m276 392h-40c-11.046 0-20 8.954-20 20s8.954 20 20 20h40c11.046 0 20-8.954 20-20s-8.954-20-20-20z"/><path d="m452 120h-36v-60c0-33.084-26.916-60-60-60h-200c-33.084 0-60 26.916-60 60v20h-36c-33.084 0-60 26.916-60 60v72c0 33.084 26.916 60 60 60h36v180c0 33.084 26.916 60 60 60h200c33.084 0 60-26.916 60-60v-80c0-11.046-8.954-20-20-20s-20 8.954-20 20v80c0 11.028-8.972 20-20 20h-200c-11.028 0-20-8.972-20-20v-180h31.716l34.142 34.142c3.827 3.826 8.941 5.858 14.147 5.858 2.575 0 5.175-.498 7.648-1.523 7.474-3.095 12.347-10.388 12.347-18.477v-152c0-33.084-26.916-60-60-60h-40v-20c0-11.028 8.972-20 20-20h80v20c0 11.046 8.954 20 20 20s20-8.954 20-20v-20h80c11.028 0 20 8.972 20 20v60h-40c-33.084 0-60 26.916-60 60v152c0 8.089 4.873 15.382 12.347 18.478 7.473 3.095 16.076 1.384 21.796-4.335l34.141-34.143h107.716c33.084 0 60-26.916 60-60v-72c0-33.084-26.916-60-60-60zm-256 20v103.716l-5.857-5.858c-3.751-3.751-8.838-5.858-14.143-5.858h-116c-11.028 0-20-8.972-20-20v-72c0-11.028 8.972-20 20-20h116c11.028 0 20 8.972 20 20zm276 112c0 11.028-8.972 20-20 20h-116c-5.305 0-10.392 2.107-14.143 5.858l-5.857 5.858v-103.716c0-11.028 8.972-20 20-20h116c11.028 0 20 8.972 20 20z"/></g></svg>