<svg id="Capa_1" enable-background="new 0 0 512 512" height="512" viewBox="0 0 512 512" width="512" xmlns="http://www.w3.org/2000/svg"><g id="Chat"><g><g><circle cx="252" cy="392" r="20"/></g><g><circle cx="332" cy="392" r="20"/></g><g><circle cx="412" cy="392" r="20"/></g><g><circle cx="100" cy="120" r="20"/></g><g><circle cx="180" cy="120" r="20"/></g><g><circle cx="260" cy="120" r="20"/></g></g><g><g><path d="m412 512h-320c-8.239 0-15.635-5.052-18.631-12.727s-.979-16.402 5.08-21.983l60.64-55.859c8.326-7.669 12.911-18.121 12.911-29.431v-20c0-55.14 44.859-100 100-100h160c55.141 0 100 44.86 100 100v40c0 55.14-44.859 100-100 100zm-268.769-40h268.769c33.084 0 60-26.916 60-60v-40c0-33.084-26.916-60-60-60h-160c-33.084 0-60 26.916-60 60v20c0 22.292-9.407 43.743-25.811 58.852z"/></g><g><path d="m420 240h-320c-55.141 0-100-44.86-100-100v-40c0-55.14 44.859-100 100-100h160c55.141 0 100 44.86 100 100v20c0 11.31 4.585 21.762 12.91 29.431l60.641 55.859c6.06 5.582 8.076 14.309 5.08 21.983-2.996 7.675-10.392 12.727-18.631 12.727zm-320-200c-33.084 0-60 26.916-60 60v40c0 33.084 26.916 60 60 60h268.769l-22.959-21.149c-16.403-15.108-25.81-36.559-25.81-58.851v-20c0-33.084-26.916-60-60-60z"/></g></g></g></svg>