<svg id="Capa_1" enable-background="new 0 0 512 512" height="512" viewBox="0 0 512 512" width="512" xmlns="http://www.w3.org/2000/svg"><g id="Chat_2_"><path d="m380.285 236 25.858-25.858c7.811-7.811 7.811-20.474 0-28.284s-20.475-7.811-28.285 0l-25.858 25.857-25.857-25.857c-7.811-7.811-20.475-7.811-28.285 0s-7.811 20.474 0 28.284l25.857 25.858-25.858 25.858c-7.811 7.811-7.811 20.474 0 28.284 7.81 7.81 20.475 7.81 28.285 0l25.858-25.857 25.857 25.857c7.81 7.81 20.475 7.81 28.285 0 7.811-7.811 7.811-20.474 0-28.284z"/><g><path d="m261.778 436.098c-10.986-1.087-20.786 6.934-21.878 17.926-1.017 10.248-9.572 17.976-19.9 17.976h-60v-20c0-11.046-8.954-20-20-20s-20 8.954-20 20v20h-60c-11.028 0-20-8.972-20-20v-392c0-11.028 8.972-20 20-20h160c6.964 0 13.323 3.54 17.011 9.47 5.833 9.381 18.166 12.256 27.545 6.424 9.38-5.833 12.257-18.165 6.424-27.545-11.037-17.751-30.095-28.349-50.98-28.349h-160c-33.084 0-60 26.916-60 60v392c0 33.084 26.916 60 60 60h160c30.979 0 56.647-23.225 59.705-54.024 1.091-10.991-6.934-20.787-17.927-21.878z"/><path d="m352 76c-88.225 0-160 71.776-160 160v60c0 33.084-26.916 60-60 60-11.046 0-20 8.954-20 20s8.954 20 20 20h220c88.225 0 160-71.776 160-160s-71.775-160-160-160zm0 280h-140.047c12.58-16.724 20.047-37.508 20.047-60v-60c0-66.168 53.832-120 120-120s120 53.832 120 120-53.832 120-120 120z"/><ellipse cx="140" cy="100" rx="20" ry="20" transform="matrix(.987 -.16 .16 .987 -14.211 23.717)"/></g></g></svg>