<svg id="Capa_1" enable-background="new 0 0 512 512" height="512" viewBox="0 0 512 512" width="512" xmlns="http://www.w3.org/2000/svg"><g><circle cx="200" cy="100" r="20"/><path d="m200 160c-11.046 0-20 8.954-20 20v40c0 11.046 8.954 20 20 20s20-8.954 20-20v-40c0-11.046-8.954-20-20-20z"/><path d="m145.837 338.718c10.055-11.895 24.756-18.718 40.332-18.718h53.831c87.926 0 160-72.074 160-160 0-87.927-72.073-160-160-160h-80c-87.928 0-160 72.072-160 160 0 29.583 8.281 58.564 23.949 83.809 10.5 16.92 16.051 36.328 16.051 56.191 0 33.084 26.916 60 60 60 17.697 0 34.403-7.756 45.837-21.282zm-30.548-25.822c-3.816 4.515-9.39 7.104-15.289 7.104-11.028 0-20-8.972-20-20.065 0-27.258-7.63-53.959-22.064-77.219-11.734-18.906-17.936-40.593-17.936-62.716 0-66.168 53.832-120 120-120h80c66.168 0 120 53.832 120 120s-53.832 120-120 120h-53.831c-27.375 0-53.21 11.99-70.88 32.896z"/><path d="m458.193 192.684c-8.243-7.351-20.886-6.629-28.238 1.615s-6.629 20.886 1.615 28.238c25.694 22.914 40.43 55.522 40.43 89.463 0 22.123-6.202 43.81-17.936 62.716-14.434 23.259-22.064 49.983-22.064 77.284 0 11.028-8.972 20-20 20-5.899 0-11.473-2.589-15.288-7.103-17.671-20.907-43.506-32.897-70.881-32.897h-53.831c-38.675 0-75.303-19.113-97.979-51.128-6.385-9.015-18.868-11.146-27.881-4.761-9.014 6.385-11.145 18.868-4.76 27.881 30.163 42.585 78.993 68.008 130.62 68.008h53.831c15.576 0 30.277 6.823 40.333 18.719 11.433 13.525 28.14 21.281 45.836 21.281 33.084 0 60-26.916 60-60 0-19.841 5.551-39.271 16.051-56.191 15.668-25.245 23.949-54.226 23.949-83.809 0-45.332-19.611-88.821-53.807-119.316z"/></g></svg>