<svg id="Capa_1" enable-background="new 0 0 512.004 512.004" height="512" viewBox="0 0 512.004 512.004" width="512" xmlns="http://www.w3.org/2000/svg"><g><path d="m512.004 100.002c0-.026-.004-20-.004-20 0-44.112-35.888-80-80-80h-352c-44.112 0-80 35.888-80 80v352c0 44.112 35.888 80 80 80h352c44.112 0 80-35.888 80-80v-331.923c0-.026.004-.051.004-.077zm-40.004-20h-232c-22.056 0-40-17.944-40-40h232c22.056 0 40 17.944 40 40zm-40 392h-352c-22.056 0-40-17.944-40-40v-352c0-22.056 17.944-40 40-40h80c0 44.112 35.888 80 80 80h232v312c0 22.056-17.944 40-40 40z"/><path d="m336.002 156.002c-33.084 0-60 26.916-60 60 0 2.508.173 4.975.473 7.402l-58.863 29.432c-10.796-10.411-25.463-16.834-41.61-16.834-33.084 0-60 26.916-60 60s26.916 60 60 60c16.147 0 30.814-6.423 41.61-16.834l12.852 6.426c9.879 4.94 21.893.935 26.833-8.944 4.939-9.879.936-21.893-8.944-26.833l-12.824-6.412c.3-2.428.473-4.895.473-7.402s-.173-4.975-.473-7.402l58.863-29.432c10.796 10.411 25.463 16.834 41.61 16.834 33.084 0 60-26.916 60-60s-26.916-60.001-60-60.001zm-160 160c-11.028 0-20-8.972-20-20s8.972-20 20-20 20 8.972 20 20-8.972 20-20 20zm160-80c-11.028 0-20-8.972-20-20s8.972-20 20-20 20 8.972 20 20-8.972 20-20 20z"/><path d="m336.002 316.002c-33.084 0-60 26.916-60 60s26.916 60 60 60 60-26.916 60-60-26.916-60-60-60zm0 80c-11.028 0-20-8.972-20-20s8.972-20 20-20 20 8.972 20 20-8.972 20-20 20z"/></g></svg>