<svg id="Capa_1" enable-background="new 0 0 512.031 512.031" height="512" viewBox="0 0 512.031 512.031" width="512" xmlns="http://www.w3.org/2000/svg"><g><path d="m454.555 60c0-33.084-26.916-60-60-60s-60 26.916-60 60 26.916 60 60 60 60-26.916 60-60zm-60 20c-11.028 0-20-8.972-20-20s8.972-20 20-20 20 8.972 20 20-8.972 20-20 20z"/><g><path d="m474.555 240h-160c-15.263 0-24.909-16.462-17.447-29.778l27.623-49.29c14.148-25.248 40.903-40.932 69.824-40.932s55.676 15.685 69.824 40.933l27.623 49.289c7.462 13.316-2.184 29.778-17.447 29.778zm-125.865-40h91.73l-10.936-19.512c-7.081-12.638-20.465-20.488-34.929-20.488s-27.849 7.85-34.93 20.487v.001z"/></g><path d="m196.981 103.299-56.568-56.568c-23.394-23.395-61.46-23.395-84.853 0-54.586 54.586-54.586 143.404 0 197.99l226.274 226.274c54.715 54.715 143.275 54.715 197.99 0 23.45-23.45 23.45-61.403 0-84.853l-56.568-56.568c-23.394-23.395-61.459-23.395-84.853 0-7.798 7.798-20.486 7.798-28.284 0l-113.137-113.137c-7.798-7.798-7.798-20.486 0-28.284 23.393-23.395 23.393-61.46-.001-84.854zm84.853 254.559c23.396 23.395 61.46 23.394 84.853 0 7.798-7.798 20.487-7.797 28.285 0l56.568 56.568c7.798 7.798 7.798 20.486 0 28.285-38.99 38.99-102.431 38.99-141.421 0l-226.275-226.274c-39.082-39.083-39.082-102.339 0-141.421 7.817-7.817 20.467-7.816 28.284 0l56.568 56.568c7.798 7.798 7.798 20.486 0 28.285-23.394 23.394-23.394 61.458 0 84.853z"/></g></svg>