<svg id="Capa_1" enable-background="new 0 0 512 512" height="512" viewBox="0 0 512 512" width="512" xmlns="http://www.w3.org/2000/svg"><g id="Earphones_1_"><g><path d="m176 512c-11.046 0-20-8.954-20-20v-40c0-11.046 8.954-20 20-20s20 8.954 20 20v40c0 11.046-8.954 20-20 20z"/></g><g><path d="m116 0h-16c-55.14 0-100 44.86-100 100v40c0 26.707 9.515 51.636 26.793 70.196 17.892 19.22 42.47 29.804 69.207 29.804 11.028 0 20 8.972 20 20v72c0 33.084 26.916 60 60 60s60-26.916 60-60v-212c0-66.168-53.832-120-120-120zm80 332c0 11.028-8.972 20-20 20s-20-8.972-20-20v-72c0-33.084-26.916-60-60-60-31.925 0-56-25.794-56-60v-40c0-33.084 26.916-60 60-60h16c44.112 0 80 35.888 80 80z"/><path d="m412 40h-16c-66.168 0-120 53.832-120 120v212c0 26.073 16.722 48.303 40 56.56v63.44c0 11.046 8.954 20 20 20s20-8.954 20-20v-63.44c23.278-8.256 40-30.487 40-56.56v-72c0-11.028 8.972-20 20-20 26.737 0 51.315-10.584 69.207-29.804 17.277-18.56 26.793-43.489 26.793-70.196v-40c0-55.14-44.859-100-100-100zm60 140c0 34.206-24.075 60-56 60-33.084 0-60 26.916-60 60v72c0 11.028-8.972 20-20 20s-20-8.972-20-20v-212c0-44.112 35.888-80 80-80h16c33.084 0 60 26.916 60 60z"/><path d="m100 80c-11.046 0-20 8.954-20 20v40c0 11.046 8.954 20 20 20s20-8.954 20-20v-40c0-11.046-8.954-20-20-20z"/><path d="m412 120c-11.046 0-20 8.954-20 20v40c0 11.046 8.954 20 20 20s20-8.954 20-20v-40c0-11.046-8.954-20-20-20z"/></g></g></svg>