<svg id="Capa_1" enable-background="new 0 0 512 512" height="512" viewBox="0 0 512 512" width="512" xmlns="http://www.w3.org/2000/svg"><g id="Earphones"><g><path d="m452 0h-36c-55.14 0-100 44.86-100 100v160c0 26.073 16.722 48.303 40 56.56v55.44c0 11.028-8.972 20-20 20-11.046 0-20 8.954-20 20s8.954 20 20 20c33.084 0 60-26.916 60-60v-55.44c23.278-8.256 40-30.487 40-56.56v-60h16c33.084 0 60-26.916 60-60v-80c0-33.084-26.916-60-60-60zm-76 280c-11.028 0-20-8.972-20-20v-80.051c11.634 8.753 25.229 15.03 40 18.04v62.011c0 11.028-8.972 20-20 20zm96-140c0 11.028-8.972 20-20 20h-36c-33.084 0-60-26.916-60-60s26.916-60 60-60h36c11.028 0 20 8.972 20 20z"/><path d="m96 0h-36c-33.084 0-60 26.916-60 60v80c0 33.084 26.916 60 60 60h36c22.494 0 43.275-7.468 60-20.051v80.051c0 11.028-8.972 20-20 20s-20-8.972-20-20c0-11.046-8.954-20-20-20s-20 8.954-20 20c0 26.073 16.722 48.303 40 56.56v55.44c0 33.084 26.916 60 60 60 11.046 0 20-8.954 20-20s-8.954-20-20-20c-11.028 0-20-8.972-20-20v-55.44c23.278-8.256 40-30.487 40-56.56v-160c0-55.14-44.86-100-100-100zm0 160h-36c-11.028 0-20-8.972-20-20v-80c0-11.028 8.972-20 20-20h36c33.084 0 60 26.916 60 60s-26.916 60-60 60z"/></g><g><path d="m416 512h-120c-33.084 0-60-26.916-60-60v-40c0-11.046 8.954-20 20-20s20 8.954 20 20v40c0 11.028 8.972 20 20 20h120c11.046 0 20 8.954 20 20s-8.954 20-20 20z"/></g></g></svg>