<svg id="Capa_1" enable-background="new 0 0 512 512" height="512" viewBox="0 0 512 512" width="512" xmlns="http://www.w3.org/2000/svg"><g id="Email"><path d="m492 352c-11.046 0-20 8.954-20 20v80c0 11.028-8.972 20-20 20h-392c-11.028 0-20-8.972-20-20v-141.888s185.109 113.332 185.16 113.362c9.297 5.578 19.961 8.526 30.84 8.526s21.543-2.948 30.84-8.525c.051-.031 196.091-120.055 196.091-120.055 17.934-10.804 29.069-30.496 29.069-51.42 0-20.958-11.173-40.682-29.159-51.475l-50.841-30.504v-110.021c0-33.084-26.916-60-60-60h-232c-33.084 0-60 26.916-60 60v110.021l-50.841 30.504c-17.986 10.793-29.159 30.517-29.159 51.475v200c0 33.084 26.916 60 60 60h392c33.084 0 60-26.916 60-60v-80c0-11.046-8.954-20-20-20zm-29.739-117.175c6.099 3.66 9.739 10.08 9.739 17.175s-3.641 13.515-9.739 17.175c-.052.03-30.261 18.525-30.261 18.525v-71.032zm-322.261-194.825h232c11.028 0 20 8.972 20 20v252.19l-125.805 77.023c-3.066 1.824-6.59 2.787-10.195 2.787s-7.129-.963-10.195-2.787l-125.805-77.023v-252.19c0-11.028 8.972-20 20-20zm-90.261 194.825 30.261-18.156v71.031s-30.209-18.495-30.261-18.525c-6.098-3.66-9.739-10.08-9.739-17.175s3.641-13.516 9.739-17.175z"/><g><path d="m332 152h-152c-11.046 0-20-8.954-20-20s8.954-20 20-20h152c11.046 0 20 8.954 20 20s-8.954 20-20 20z"/></g><g><path d="m332 232h-152c-11.046 0-20-8.954-20-20s8.954-20 20-20h152c11.046 0 20 8.954 20 20s-8.954 20-20 20z"/></g><g><path d="m296 312h-80c-11.046 0-20-8.954-20-20s8.954-20 20-20h80c11.046 0 20 8.954 20 20s-8.954 20-20 20z"/></g></g></svg>