<svg id="Capa_1" enable-background="new 0 0 512 512" height="512" viewBox="0 0 512 512" width="512" xmlns="http://www.w3.org/2000/svg"><g><path d="m296 76h-80c-33.084 0-60 26.916-60 60v80c0 33.084 26.916 60 60 60h80c33.084 0 60-26.916 60-60v-80c0-33.084-26.916-60-60-60zm20 140c0 11.028-8.972 20-20 20h-80c-11.028 0-20-8.972-20-20v-80c0-11.028 8.972-20 20-20h20v20c0 11.046 8.954 20 20 20s20-8.954 20-20v-20h20c11.028 0 20 8.972 20 20z"/><path d="m432 127.715v-67.715c0-33.084-26.916-60-60-60h-232c-33.084 0-60 26.916-60 60v67.715l-50.71 50.711c-18.888 18.888-29.29 44-29.29 70.711v202.863c0 33.084 26.916 60 60 60h392c33.084 0 60-26.916 60-60v-202.863c0-26.711-10.402-51.823-29.29-70.711zm-292-87.715h232c11.028 0 20 8.972 20 20v218.182l-122.716 108.77c-3.658 3.255-8.377 5.048-13.284 5.048s-9.626-1.793-13.313-5.074l-122.687-108.744v-218.182c0-11.028 8.972-20 20-20zm332 412c0 11.028-8.972 20-20 20h-392c-11.028 0-20-8.972-20-20v-202.863c0-16.027 6.241-31.094 17.574-42.427l22.426-22.425v102.896c0 5.723 2.451 11.171 6.734 14.967l129.392 114.687c10.991 9.779 25.151 15.165 39.874 15.165s28.883-5.386 39.845-15.14l129.421-114.712c4.283-3.796 6.734-9.244 6.734-14.967v-102.896l22.426 22.426c11.333 11.332 17.574 26.399 17.574 42.426z"/><path d="m140 392h-40c-11.046 0-20 8.954-20 20s8.954 20 20 20h40c11.046 0 20-8.954 20-20s-8.954-20-20-20z"/></g></svg>