<svg id="Layer_1" enable-background="new 0 0 512 512" height="512" viewBox="0 0 512 512" width="512" xmlns="http://www.w3.org/2000/svg"><path d="m512 120v112c0 11.046-8.954 20-20 20s-20-8.954-20-20v-112c0-44.112-35.888-80-80-80h-272c-44.112 0-80 35.888-80 80v162c0 44.112 35.888 80 80 80h103c11.046 0 20 8.954 20 20s-8.954 20-20 20h-103c-66.168 0-120-53.832-120-120v-162c0-66.168 53.832-120 120-120h272c66.168 0 120 53.832 120 120zm0 285v27c0 44.112-35.888 80-80 80h-69c-44.112 0-80-35.888-80-80v-27c0-35.382 23.098-65.454 55-75.978v-26.022c0-33.084 26.916-60 60-60s60 26.916 60 60v26.361c31.383 10.819 54 40.628 54 75.639zm-134-102v22h40v-22c0-11.028-8.972-20-20-20s-20 8.972-20 20zm94 102c0-22.056-17.944-40-40-40h-69c-22.056 0-40 17.944-40 40v27c0 22.056 17.944 40 40 40h69c22.056 0 40-17.944 40-40zm-216.001-143.075c-25.675 0-51.349-8.17-72.772-24.51l-95.355-72.729c-8.783-6.698-10.473-19.249-3.773-28.031 6.698-8.784 19.247-10.473 28.031-3.773l95.355 72.729c28.566 21.787 68.465 21.787 97.031 0l96.354-73.511c8.782-6.7 21.333-5.012 28.031 3.77 6.7 8.782 5.013 21.332-3.77 28.032l-96.355 73.512c-21.425 16.34-47.101 24.511-72.777 24.511zm142.001 132.075c-13.807 0-25 11.193-25 25s11.193 25 25 25 25-11.193 25-25-11.193-25-25-25z"/></svg>