<svg id="Capa_1" enable-background="new 0 0 512 512" height="512" viewBox="0 0 512 512" width="512" xmlns="http://www.w3.org/2000/svg"><g><path d="m176 152h160c11.046 0 20-8.954 20-20s-8.954-20-20-20h-160c-11.046 0-20 8.954-20 20s8.954 20 20 20z"/><path d="m176 232h160c11.046 0 20-8.954 20-20s-8.954-20-20-20h-160c-11.046 0-20 8.954-20 20s8.954 20 20 20z"/><path d="m96 193.46c11.046 0 20-8.954 20-20v-73.46c0-33.084 26.916-60 60-60h160c33.084 0 60 26.916 60 60v73.46c0 11.046 8.954 20 20 20s20-8.954 20-20v-73.46c0-55.14-44.859-100-100-100h-160c-55.141 0-100 44.86-100 100v73.46c0 11.045 8.954 20 20 20z"/><path d="m432 232c-17.196 0-34.243 5.682-48 16-.097.073-104.133 81.099-104.133 81.099-14.076 10.466-33.658 10.466-47.734 0 0 0-104.036-81.026-104.133-81.099-13.757-10.318-30.804-16-48-16-44.112 0-80 35.888-80 80v120c0 44.112 35.888 80 80 80h352c44.112 0 80-35.888 80-80v-120c0-44.112-35.888-80-80-80zm40 200c0 22.056-17.944 40-40 40h-352c-22.056 0-40-17.944-40-40v-120c0-22.056 17.944-40 40-40 8.544 0 17.013 2.805 23.868 7.902 0 0 104.034 81.025 104.132 81.098 13.956 10.467 30.555 16 48 16s34.044-5.533 48-16c.098-.073 104.132-81.098 104.132-81.098 6.855-5.097 15.324-7.902 23.868-7.902 22.056 0 40 17.944 40 40z"/></g></svg>