<svg id="Capa_1" enable-background="new 0 0 512 512" height="512" viewBox="0 0 512 512" width="512" xmlns="http://www.w3.org/2000/svg"><g id="Email"><path d="m452 200c-6.903 0-13.648 1.177-20 3.419v-63.419c0-5.153-2.053-10.337-5.86-14.144l-120.007-120.007c-3.834-3.829-9.059-5.849-14.133-5.849h-152c-33.084 0-60 26.916-60 60v80c0 11.046 8.954 20 20 20s20-8.954 20-20v-80c0-11.028 8.972-20 20-20h132v60c0 33.084 26.916 60 60 60h60v74.786l-122.295 119.78c-3.723 3.505-8.585 5.434-13.705 5.434s-9.982-1.929-13.705-5.434l-140.718-137.824c-.067-.065-.134-.13-.202-.195-11.205-10.671-25.898-16.547-41.375-16.547-33.084 0-60 26.916-60 60v192c0 33.084 26.916 60 60 60h392c33.084 0 60-26.916 60-60v-192c0-33.084-26.916-60-60-60zm-120-80c-11.028 0-20-8.972-20-20v-31.716l51.716 51.716zm140 332c0 11.028-8.972 20-20 20h-392c-11.028 0-20-8.972-20-20v-192c0-11.028 8.972-20 20-20 5.12 0 9.982 1.929 13.705 5.434l140.718 137.824c.067.065.134.13.202.195 11.205 10.671 25.898 16.547 41.375 16.547s30.17-5.876 41.375-16.547c.067-.064.135-.129.202-.195l140.718-137.824c3.723-3.505 8.585-5.434 13.705-5.434 11.028 0 20 8.972 20 20z"/><g><path d="m332 240h-152c-11.046 0-20-8.954-20-20s8.954-20 20-20h152c11.046 0 20 8.954 20 20s-8.954 20-20 20z"/></g><g><path d="m216 160h-36c-11.046 0-20-8.954-20-20s8.954-20 20-20h36c11.046 0 20 8.954 20 20s-8.954 20-20 20z"/></g></g></svg>