<svg id="Capa_1" enable-background="new 0 0 512 512" height="512" viewBox="0 0 512 512" width="512" xmlns="http://www.w3.org/2000/svg"><g id="Headphone_1_"><g><path d="m256 512c-33.084 0-60-26.916-60-60s26.916-60 60-60 60 26.916 60 60-26.916 60-60 60zm0-80c-11.028 0-20 8.972-20 20s8.972 20 20 20 20-8.972 20-20-8.972-20-20-20z"/></g><path d="m471.256 206.548c-3.521-22.164-19.227-40.314-40.01-47.373-3.703-41.57-21.112-79.6-49.967-108.455-32.708-32.707-77.199-50.72-125.279-50.72s-92.572 18.013-125.279 50.721c-28.855 28.855-46.264 66.885-49.967 108.455-20.783 7.059-36.489 25.209-40.01 47.373-24.823 14.003-40.744 40.455-40.744 69.451s15.921 55.448 40.744 69.452c4.545 28.61 29.387 50.548 59.256 50.548 33.084 0 60-26.916 60-60v-120c0-25.742-16.299-47.745-39.116-56.245 7.544-69.309 63.101-119.755 135.116-119.755s127.572 50.446 135.116 119.755c-22.817 8.5-39.116 30.503-39.116 56.245v120c0 26.073 16.722 48.304 40 56.56v23.44c0 11.028-8.972 20-20 20-11.046 0-20 8.954-20 20s8.954 20 20 20c33.084 0 60-26.916 60-60v-23.443c20.407-7.238 35.778-25.211 39.256-47.105 24.823-14.004 40.744-40.456 40.744-69.452s-15.921-55.448-40.744-69.452zm-351.256 129.452c0 11.028-8.972 20-20 20s-20-8.972-20-20v-3.672c0-8.463-5.327-16.01-13.301-18.845-15.97-5.676-26.699-20.739-26.699-37.483s10.729-31.807 26.699-37.483c7.974-2.835 13.301-10.382 13.301-18.845v-3.672c0-11.028 8.972-20 20-20s20 8.972 20 20zm325.301-22.517c-7.974 2.835-13.301 10.382-13.301 18.845v3.672c0 11.028-8.972 20-20 20s-20-8.972-20-20v-120c0-11.028 8.972-20 20-20s20 8.972 20 20v3.672c0 8.463 5.327 16.01 13.301 18.845 15.97 5.676 26.699 20.739 26.699 37.483s-10.729 31.807-26.699 37.483z"/></g></svg>