<svg id="Capa_1" enable-background="new 0 0 512 512" height="512" viewBox="0 0 512 512" width="512" xmlns="http://www.w3.org/2000/svg"><g id="Headphone"><g><path d="m372 512h-116c-11.046 0-20-8.954-20-20s8.954-20 20-20h116c9.478 0 17.721-6.72 19.6-15.979 2.196-10.827 12.755-17.822 23.578-15.624 10.825 2.197 17.819 12.753 15.623 23.578-5.647 27.827-30.376 48.025-58.801 48.025z"/></g><path d="m472 220.051v-.051c0-121.955-94.825-220-216-220-121.555 0-216 98.445-216 220v.051c-24.273 18.262-40 47.303-40 79.949 0 55.14 44.859 100 100 100 33.084 0 60-26.916 60-60v-80c0-33.084-26.916-60-60-60-6.548 0-12.949.64-19.15 1.847 8.635-92.101 82.459-161.847 175.15-161.847s166.515 69.746 175.15 161.847c-6.201-1.207-12.602-1.847-19.15-1.847-33.084 0-60 26.916-60 60v80c0 33.084 26.916 60 60 60 55.141 0 100-44.86 100-100 0-32.646-15.727-61.687-40-79.949zm-352 39.949v80c0 11.028-8.972 20-20 20-33.084 0-60-26.916-60-60s26.916-60 60-60c11.028 0 20 8.972 20 20zm292 100c-11.028 0-20-8.972-20-20v-80c0-11.028 8.972-20 20-20 33.084 0 60 26.916 60 60s-26.916 60-60 60z"/></g></svg>