<svg id="Capa_1" enable-background="new 0 0 512 512" height="512" viewBox="0 0 512 512" width="512" xmlns="http://www.w3.org/2000/svg"><g id="Headphone"><g><path d="m413.582 106.638c-41.832-42.972-97.796-66.638-157.582-66.638s-115.75 23.666-157.582 66.638c-7.703 7.914-20.366 8.086-28.282.38-7.914-7.705-8.085-20.367-.38-28.282 23.978-24.631 52.06-43.996 83.466-57.559 32.54-14.052 67.119-21.177 102.778-21.177s70.238 7.125 102.778 21.177c31.406 13.563 59.488 32.928 83.466 57.559 7.705 7.915 7.534 20.577-.38 28.282-7.914 7.703-20.575 7.536-28.282-.38z"/></g><path d="m512 340c0-48.595-34.844-89.198-80.859-98.154-8.622-90.819-81.747-161.846-175.141-161.846-93.427 0-166.523 71.065-175.141 161.846-46.015 8.956-80.859 49.559-80.859 98.154 0 55.14 44.859 100 100 100 33.084 0 60-26.916 60-60v-80c0-25.745-16.302-47.749-39.123-56.247 7.594-70.577 64.21-123.753 135.123-123.753s127.529 53.176 135.123 123.753c-22.821 8.498-39.123 30.502-39.123 56.247v80c0 26.073 16.722 48.303 40 56.56v15.44c0 11.028-8.972 20-20 20h-156c-11.046 0-20 8.954-20 20s8.954 20 20 20h156c33.084 0 60-26.916 60-60v-14.011c45.59-9.291 80-49.696 80-97.989zm-392 40c0 11.028-8.972 20-20 20-33.084 0-60-26.916-60-60s26.916-60 60-60c11.028 0 20 8.972 20 20zm292 20c-11.028 0-20-8.972-20-20v-80c0-11.028 8.972-20 20-20 33.084 0 60 26.916 60 60s-26.916 60-60 60z"/></g></svg>