<svg id="Capa_1" enable-background="new 0 0 512 512" height="512" viewBox="0 0 512 512" width="512" xmlns="http://www.w3.org/2000/svg"><g id="Mail_2_"><path d="m284.284 180 25.858-25.858c7.811-7.811 7.811-20.474 0-28.284s-20.474-7.811-28.284 0l-25.858 25.858-25.858-25.858c-7.811-7.811-20.474-7.811-28.284 0s-7.811 20.474 0 28.284l25.858 25.858-25.858 25.858c-7.811 7.811-7.811 20.474 0 28.284 7.811 7.811 20.474 7.811 28.284 0l25.858-25.858 25.858 25.858c7.811 7.811 20.474 7.811 28.284 0 7.811-7.811 7.811-20.474 0-28.284z"/><path d="m485.298 180.339-89.298-82.689v-37.65c0-33.084-26.916-60-60-60h-160c-33.084 0-60 26.916-60 60v37.651l-89.294 82.685c-16.974 15.17-26.706 36.905-26.706 59.664v192c0 44.112 35.888 80 80 80h352c44.112 0 80-35.888 80-80v-192c0-22.758-9.73-44.49-26.702-59.661zm-309.298-140.339h160c11.028 0 20 8.972 20 20v224.63l-73.441 65.281c-7.319 6.506-16.751 10.089-26.559 10.089s-19.24-3.583-26.559-10.089l-73.441-65.281v-224.63c0-11.028 8.972-20 20-20zm296 392c0 22.056-17.944 40-40 40h-352c-22.056 0-40-17.944-40-40v-192c0-11.416 4.899-22.318 13.441-29.911.102-.09.202-.181.302-.273l62.257-57.65v96.909l-6.713-5.967c-8.255-7.339-20.896-6.594-28.235 1.661-7.338 8.256-6.595 20.897 1.661 28.236l120.154 106.803c14.649 13.021 33.518 20.192 53.133 20.192s38.484-7.171 53.133-20.192l120.154-106.803c8.256-7.338 9-19.98 1.661-28.236-7.337-8.255-19.979-8.999-28.235-1.661l-6.713 5.967v-96.909l62.257 57.649c.1.092.2.183.302.273 8.542 7.594 13.441 18.496 13.441 29.912z"/></g></svg>