<svg id="Capa_1" enable-background="new 0 0 512 512" height="512" viewBox="0 0 512 512" width="512" xmlns="http://www.w3.org/2000/svg"><g id="Mail"><g><path d="m452 200c-15.477 0-30.17 5.876-41.375 16.547-.067.064-140.92 138.019-140.92 138.019-3.723 3.505-8.585 5.434-13.705 5.434s-9.982-1.929-13.705-5.434l-122.295-119.78v-169.046c0-14.193 11.547-25.74 25.74-25.74h220.52c14.193 0 25.74 11.547 25.74 25.74v78.359c0 11.046 8.954 20 20 20s20-8.954 20-20v-78.359c0-36.249-29.491-65.74-65.74-65.74h-220.52c-36.249 0-65.74 29.491-65.74 65.74v137.679c-6.352-2.242-13.097-3.419-20-3.419-33.084 0-60 26.916-60 60v192c0 33.084 26.916 60 60 60h392c33.084 0 60-26.916 60-60v-192c0-33.084-26.916-60-60-60zm20 252c0 11.028-8.972 20-20 20h-392c-11.028 0-20-8.972-20-20v-192c0-11.028 8.972-20 20-20 5.12 0 9.982 1.929 13.705 5.434 0 0 140.853 137.955 140.92 138.019 11.205 10.671 25.898 16.547 41.375 16.547s30.17-5.876 41.375-16.547c.067-.064 140.92-138.019 140.92-138.019 3.723-3.505 8.585-5.434 13.705-5.434 11.028 0 20 8.972 20 20z"/><g><path d="m332 120h-152c-11.046 0-20-8.954-20-20s8.954-20 20-20h152c11.046 0 20 8.954 20 20s-8.954 20-20 20z"/></g><g><path d="m332 200h-152c-11.046 0-20-8.954-20-20s8.954-20 20-20h152c11.046 0 20 8.954 20 20s-8.954 20-20 20z"/></g></g></g></svg>