<svg id="Capa_1" enable-background="new 0 0 512 512" height="512" viewBox="0 0 512 512" width="512" xmlns="http://www.w3.org/2000/svg"><g><path d="m380 160h112c11.046 0 20-8.954 20-20s-8.954-20-20-20h-63.716l5.858-5.858c7.811-7.811 7.811-20.474 0-28.284s-20.474-7.811-28.284 0l-40 40c-5.72 5.72-7.431 14.322-4.335 21.796 3.095 7.473 10.388 12.346 18.477 12.346z"/><path d="m132 352h-112c-11.046 0-20 8.954-20 20s8.954 20 20 20h63.716l-5.858 5.858c-7.811 7.811-7.811 20.474 0 28.284 3.905 3.905 9.023 5.858 14.142 5.858s10.237-1.953 14.142-5.858l40-40c5.72-5.72 7.431-14.322 4.335-21.796-3.095-7.473-10.388-12.346-18.477-12.346z"/><path d="m60 240h200c33.084 0 60-26.916 60-60v-120c0-32.958-26.842-60-60-60h-200c-33.188 0-60 27.062-60 60v120c0 33.084 26.916 60 60 60zm200-40h-200c-11.028 0-20-8.972-20-20v-118.81l106.799 93.834c3.775 3.318 8.488 4.976 13.201 4.976s9.426-1.658 13.201-4.975l106.799-93.835v118.81c0 11.028-8.972 20-20 20zm-183.516-160h167.031l-83.515 73.377z"/><path d="m492 375.494c-11.046 0-20 8.954-20 20v56.506c0 11.028-8.972 20-20 20h-200c-11.028 0-20-8.972-20-20v-118.81l106.799 93.834c7.55 6.633 18.852 6.633 26.401 0l125.823-110.549c4.371-3.84 6.853-9.393 6.798-15.211s-2.639-11.324-7.081-15.082c-10.808-9.145-24.567-14.182-38.74-14.182h-200c-33.078 0-60 26.909-60 60v120c0 33.084 26.916 60 60 60h200c33.084 0 60-26.916 60-60v-56.506c0-11.046-8.954-20-20-20zm-56.484-63.494-83.516 73.377-83.516-73.377z"/></g></svg>