<svg id="Capa_1" enable-background="new 0 0 512 512" height="512" viewBox="0 0 512 512" width="512" xmlns="http://www.w3.org/2000/svg"><g><path d="m136 476h40c11.046 0 20-8.954 20-20s-8.954-20-20-20h-24.385l-16.213-64.851c-2.679-10.716-13.54-17.23-24.253-14.552-10.716 2.679-17.231 13.538-14.552 24.253l20 80c2.226 8.904 10.225 15.15 19.403 15.15z"/><path d="m492 196h-20v-100c0-33.084-26.916-60-60-60-7.98 0-15.742 1.548-23.068 4.601-.049.02-177.015 75.399-177.015 75.399h-111.917c-55.141 0-100 44.86-100 100s44.859 100 100 100h111.917s176.965 75.379 177.014 75.399c7.327 3.053 15.089 4.601 23.069 4.601 33.084 0 60-26.916 60-60v-40c0-11.046-8.954-20-20-20s-20 8.954-20 20v40c0 11.028-8.972 20-20 20-2.648 0-5.212-.504-7.62-1.497l-168.38-71.723v-133.56l168.371-71.719c2.41-.996 4.977-1.501 7.629-1.501 11.028 0 20 8.972 20 20v116.299c-2.313 12.349 7.167 23.701 19.658 23.701h40.342c11.046 0 20-8.954 20-20s-8.954-20-20-20zm-452 20c0-33.084 26.916-60 60-60h96v120h-96c-33.084 0-60-26.916-60-60z"/></g></svg>