<svg id="Capa_1" enable-background="new 0 0 512 512" height="512" viewBox="0 0 512 512" width="512" xmlns="http://www.w3.org/2000/svg"><g><path d="m200 452v-72c0-11.046-8.954-20-20-20s-20 8.954-20 20v72c0 11.028-8.972 20-20 20s-20-8.972-20-20v-72c0-11.046-8.954-20-20-20s-20 8.954-20 20v72c0 33.084 26.916 60 60 60s60-26.916 60-60z"/><path d="m492 200h-20v-140c0-33.084-26.916-60-60-60s-60 26.916-60 60-26.916 60-60 60h-192c-55.141 0-100 44.86-100 100s44.859 100 100 100h192c33.084 0 60 26.916 60 60s26.916 60 60 60 60-26.916 60-60v-140h20c11.046 0 20-8.954 20-20s-8.954-20-20-20zm-452 20c0-33.084 26.916-60 60-60h60v120h-60c-33.084 0-60-26.916-60-60zm392 160c0 11.028-8.972 20-20 20s-20-8.972-20-20c0-55.14-44.859-100-100-100h-92v-120h92c55.141 0 100-44.86 100-100 0-11.028 8.972-20 20-20s20 8.972 20 20z"/></g></svg>