<svg id="Capa_1" enable-background="new 0 0 512.026 512.026" height="512" viewBox="0 0 512.026 512.026" width="512" xmlns="http://www.w3.org/2000/svg"><g><path d="m54.731 429.01-48.873 48.873c-7.811 7.811-7.811 20.474 0 28.284 7.81 7.81 20.475 7.81 28.285 0l48.873-48.873c7.811-7.811 7.811-20.474 0-28.284s-20.474-7.81-28.285 0z"/><path d="m196.153 400.726 81.681-81.681c7.811-7.81 7.812-20.474.001-28.284-7.811-7.811-20.474-7.81-28.284 0l-81.683 81.681c-7.797 7.798-20.485 7.798-28.284 0-7.816-7.816-7.816-20.469.001-28.284l120.28-120.28c3.984 5.305 8.366 10.368 13.141 15.143 50.136 50.137 128.32 54.092 182.846 13.141l15.143 15.143c7.812 7.811 20.474 7.811 28.285 0 7.81-7.81 7.811-20.474 0-28.284l-15.144-15.144c40.918-54.483 37.04-132.666-13.141-182.846-50.147-50.148-128.331-54.084-182.846-13.141l-15.143-15.143c-7.811-7.811-20.475-7.811-28.285 0-7.81 7.81-7.811 20.474 0 28.284l15.144 15.144c-29.169 38.838-34.869 88.567-19.789 130.924l-128.776 128.774c-23.45 23.449-23.45 61.403-.001 84.853 23.396 23.394 61.458 23.394 84.854 0zm246.558-331.411c34.49 34.492 38.274 87.405 12.733 125.87l-138.603-138.604c38.421-25.512 91.34-21.797 125.87 12.734zm-15.551 154.155c-38.421 25.512-91.339 21.797-125.87-12.734-8.184-8.184-14.771-17.538-19.613-27.683-.101-.209-.188-.423-.297-.629-14.41-30.75-12.395-68.082 7.177-97.558z"/></g></svg>