<svg id="Capa_1" enable-background="new 0 0 511.935 511.935" height="512" viewBox="0 0 511.935 511.935" width="512" xmlns="http://www.w3.org/2000/svg"><g><path d="m456.853 253.072 14.143-14.143c54.586-54.586 54.585-143.404 0-197.99s-143.404-54.586-197.99 0l-14.142 14.143-14.143-14.142c-7.811-7.811-20.474-7.811-28.284 0s-7.811 20.474 0 28.284l15.551 15.551c-10.77 16.22-16.556 35.245-16.556 55.16 0 12.716 2.363 25.068 6.871 36.561-11.49 11.49-149.02 149.02-159.876 159.875-26.311 26.311-30.427 66.538-12.352 97.205l-44.217 44.216c-7.811 7.811-7.811 20.474 0 28.284 7.81 7.81 20.473 7.811 28.284 0l44.217-44.217c30.563 18.014 70.808 14.044 97.205-12.352l112.458-112.457c7.811-7.811 7.811-20.474 0-28.284s-20.474-7.811-28.284 0l-112.459 112.458c-15.596 15.595-40.972 15.595-56.569 0-15.596-15.596-15.596-40.973 0-56.569l76.853-76.853 14.142 14.142c7.809 7.809 20.472 7.812 28.284 0 7.811-7.81 7.811-20.474 0-28.284l-14.142-14.142 48.873-48.873 56.569 56.568c19.495 19.495 45.103 29.243 70.71 29.243 19.248 0 38.495-5.508 55.147-16.522l15.564 15.564c7.81 7.81 20.473 7.811 28.284 0s7.811-20.474 0-28.284zm-155.564-183.848c38.99-38.989 102.431-38.991 141.422 0 39.08 39.081 39.084 102.335 0 141.421l-14.143 14.143-141.421-141.422zm70.711 187.279c-16.026 0-31.094-6.241-42.426-17.573l-56.569-56.569c-18.436-18.437-22.332-45.979-11.709-68.278l136.581 136.582c-7.977 3.818-16.771 5.838-25.877 5.838z"/><g><path d="m92 199.935h-40c-11.046 0-20-8.954-20-20s8.954-20 20-20h20v-100c0-8.089 4.873-15.382 12.346-18.478 7.474-3.096 16.076-1.384 21.796 4.335l40 40c7.811 7.811 7.811 20.474 0 28.284s-20.474 7.811-28.284 0l-5.858-5.857v71.716c0 11.045-8.954 20-20 20z"/></g></g></svg>