<svg id="Capa_1" enable-background="new 0 0 511.979 511.979" height="512" viewBox="0 0 511.979 511.979" width="512" xmlns="http://www.w3.org/2000/svg"><g id="Microphone"><g><path d="m335.989 151.979h-40c-11.046 0-20-8.954-20-20s8.954-20 20-20h20v-12c0-17.628-7.711-34.296-21.156-45.731-13.631-11.592-31.056-16.364-49.068-13.433-28.377 4.616-49.775 31.891-49.775 63.444v7.72h20c11.046 0 20 8.954 20 20s-8.954 20-20 20h-40c-11.046 0-20-8.954-20-20v-27.72c0-24.045 8.086-47.643 22.769-66.446 15.356-19.667 36.873-32.622 60.585-36.479 29.352-4.774 59.021 3.407 81.404 22.444 22.396 19.048 35.242 46.823 35.242 76.202v32c-.001 11.044-8.955 19.999-20.001 19.999z"/></g><path d="m435.989 251.979c0-33.084-26.916-60-60-60h-240c-33.084 0-60 26.916-60 60 0 92.492 70.126 168.901 160 178.883v41.117h-60c-11.046 0-20 8.954-20 20s8.954 20 20 20h160c11.046 0 20-8.954 20-20s-8.954-20-20-20h-60v-41.117c89.874-9.982 160-86.391 160-178.883zm-240-20h120v15.72c0 31.553-21.398 58.828-49.775 63.444-18.012 2.929-35.438-1.841-49.067-13.433-13.446-11.435-21.157-28.104-21.157-45.732v-19.999zm-80 20c0-11.028 8.972-20 20-20h20v20c0 29.379 12.846 57.154 35.242 76.202 18.197 15.476 41.207 23.776 64.947 23.776 5.463 0 10.967-.44 16.457-1.333 23.712-3.857 45.229-16.812 60.585-36.479 14.683-18.803 22.769-42.401 22.769-66.446v-15.72h20c11.028 0 20 8.972 20 20 0 77.196-62.804 140-140 140s-140-62.804-140-140z"/></g></svg>