<svg id="Capa_1" enable-background="new 0 0 512.014 512.014" height="512" viewBox="0 0 512.014 512.014" width="512" xmlns="http://www.w3.org/2000/svg"><g id="Microphone_2_"><path d="m494.427 74.135-56.568-56.569c-23.395-23.394-61.459-23.394-84.854 0l-56.567 56.568c-5.441 5.441-9.694 11.749-12.661 18.605-22.402-12.845-52.221-10.292-72.193 9.679l-56.567 56.568c-23.45 23.449-23.45 61.403-.001 84.853l14.142 14.142-98.994 98.995c-18.828 18.827-22.188 46.467-11.736 68.303l-52.57 52.57c-7.81 7.81-7.811 20.474 0 28.284 7.81 7.81 20.475 7.81 28.285 0l52.57-52.569c21.849 10.459 49.485 7.082 68.303-11.735l56.568-56.569c7.811-7.811 7.81-20.474 0-28.284-7.811-7.811-20.475-7.811-28.285 0l-56.568 56.569c-7.815 7.816-20.462 7.816-28.28.004-.001-.001-.002-.002-.003-.004-.001-.001-.003-.002-.004-.004-7.813-7.817-7.812-20.466.004-28.28l98.994-98.995 70.71 70.71c23.394 23.394 61.46 23.394 84.854 0l56.567-56.568c19.714-19.713 22.728-49.467 9.664-72.222 6.765-2.915 13.104-7.114 18.621-12.631l56.567-56.568c23.451-23.448 23.451-61.402.002-84.852zm-113.138 197.99-56.568 56.569c-7.798 7.799-20.488 7.798-28.284 0l-84.852-84.852s0 0 0-.001 0 0 0-.001l-28.285-28.284c-7.817-7.816-7.817-20.469 0-28.284l56.567-56.569c7.818-7.816 20.468-7.817 28.284 0l84.852 84.851c.001.001.001.001.002.002s.002.002.004.004l28.281 28.281c7.816 7.816 7.816 20.468-.001 28.284zm84.853-141.422-56.568 56.569c-7.797 7.798-20.486 7.798-28.283 0-.001-.001-.003-.003-.004-.004 0 0-56.564-56.564-56.565-56.565-7.816-7.816-7.816-20.469.001-28.284l56.568-56.569c7.798-7.798 20.485-7.798 28.283 0l56.569 56.569c7.816 7.817 7.816 20.469-.001 28.284z"/><g><path d="m296.438 272.125-56.569-56.569c-7.811-7.81-7.812-20.474-.001-28.284s20.474-7.81 28.284 0l56.569 56.569c7.811 7.811 7.812 20.474.001 28.284s-20.474 7.811-28.284 0z"/></g></g></svg>