<svg id="Capa_1" enable-background="new 0 0 512 512" height="512" viewBox="0 0 512 512" width="512" xmlns="http://www.w3.org/2000/svg"><g id="Microphone_2_"><g><path d="m190.882 352c62.444 0 114.002-47.768 119.515-109.151.988-11.001-7.129-20.721-18.131-21.709-11.005-.994-20.721 7.13-21.709 18.131-3.724 41.462-37.977 72.729-79.675 72.729-44.112 0-80-35.888-80-80v-112c0-44.112 35.888-80 80-80 7.767 0 15.436 1.106 22.795 3.289 10.59 3.14 21.721-2.898 24.861-13.487 3.141-10.59-2.897-21.721-13.487-24.861-11.054-3.279-22.55-4.941-34.169-4.941-66.168 0-120 53.832-120 120v112c0 66.168 53.831 120 120 120z"/><path d="m367.304 273.143c-10.413-3.679-21.84 1.777-25.522 12.192-22.549 63.8-83.192 106.665-150.9 106.665s-128.351-42.865-150.901-106.665c-3.682-10.415-15.108-15.872-25.522-12.192-10.414 3.681-15.873 15.107-12.192 25.522 25.947 73.41 92.234 124.645 168.615 132.329v41.006h-60c-11.046 0-20 8.954-20 20s8.954 20 20 20h160c11.046 0 20-8.954 20-20s-8.954-20-20-20h-60v-41.006c76.38-7.684 142.668-58.919 168.615-132.329 3.68-10.415-1.778-21.841-12.193-25.522z"/></g><g><path d="m370.882 40h-20v-20c0-11.046-8.954-20-20-20s-20 8.954-20 20v20h-20c-11.046 0-20 8.954-20 20s8.954 20 20 20h20v92c0 11.046 8.954 20 20 20s20-8.954 20-20v-92h20c11.046 0 20-8.954 20-20s-8.954-20-20-20z"/><path d="m490.882 112h-20v-92c0-11.046-8.954-20-20-20s-20 8.954-20 20v92h-20c-11.046 0-20 8.954-20 20s8.954 20 20 20h20v20c0 11.046 8.954 20 20 20s20-8.954 20-20v-20h20c11.046 0 20-8.954 20-20s-8.954-20-20-20z"/></g></g></svg>