<svg id="Capa_1" enable-background="new 0 0 512 512" height="512" viewBox="0 0 512 512" width="512" xmlns="http://www.w3.org/2000/svg"><g><path d="m96 120c11.046 0 20-8.954 20-20v-40c0-11.046-8.954-20-20-20s-20 8.954-20 20v40c0 11.046 8.954 20 20 20z"/><path d="m20 160c11.046 0 20-8.954 20-20v-120c0-11.046-8.954-20-20-20s-20 8.954-20 20v120c0 11.046 8.954 20 20 20z"/><path d="m436 100v-40c0-11.046-8.954-20-20-20s-20 8.954-20 20v40c0 11.046 8.954 20 20 20s20-8.954 20-20z"/><path d="m492 0c-11.046 0-20 8.954-20 20v120c0 11.046 8.954 20 20 20s20-8.954 20-20v-120c0-11.046-8.954-20-20-20z"/><path d="m256 356c55.14 0 100-44.86 100-100v-156c0-55.14-44.86-100-100-100s-100 44.86-100 100v156c0 55.14 44.86 100 100 100zm0-316c33.084 0 60 26.916 60 60v16h-20c-11.046 0-20 8.954-20 20s8.954 20 20 20h20v40h-20c-11.046 0-20 8.954-20 20s8.954 20 20 20h20v20c0 33.084-26.916 60-60 60s-60-26.916-60-60v-20h20c11.046 0 20-8.954 20-20s-8.954-20-20-20h-20v-40h20c11.046 0 20-8.954 20-20s-8.954-20-20-20h-20v-16c0-33.084 26.916-60 60-60z"/><path d="m436 256v-40c0-11.046-8.954-20-20-20s-20 8.954-20 20v40c0 77.196-62.804 140-140 140s-140-62.804-140-140v-40c0-11.046-8.954-20-20-20s-20 8.954-20 20v40c0 99.252 80.748 180 180 180s180-80.748 180-180z"/><path d="m216 472c-11.046 0-20 8.954-20 20s8.954 20 20 20h80c11.046 0 20-8.954 20-20s-8.954-20-20-20z"/></g></svg>