<svg id="Capa_1" enable-background="new 0 0 512 512" height="512" viewBox="0 0 512 512" width="512" xmlns="http://www.w3.org/2000/svg"><g><path d="m452 0h-160c-33.084 0-60 26.916-60 60v160c0 8.089 4.873 15.382 12.347 18.478 7.474 3.095 16.076 1.385 21.796-4.335l34.141-34.143h151.716c33.084 0 60-26.916 60-60v-80c0-33.084-26.916-60-60-60zm20 140c0 11.028-8.972 20-20 20h-160c-5.305 0-10.392 2.107-14.143 5.858l-5.857 5.858v-111.716c0-11.028 8.972-20 20-20h160c11.028 0 20 8.972 20 20z"/><circle cx="412" cy="100" r="20"/><circle cx="332" cy="100" r="20"/><path d="m472 395.44v-143.313c0-11.046-8.954-20-20-20s-20 8.954-20 20v139.873h-352v-232c0-22.056 17.944-40 40-40h53.104c11.046 0 20-8.954 20-20s-8.954-20-20-20h-53.104c-44.112 0-80 35.888-80 80v235.44c-23.278 8.256-40 30.487-40 56.56 0 33.084 26.916 60 60 60h392c33.084 0 60-26.916 60-60 0-26.073-16.722-48.304-40-56.56zm-20 76.56h-392c-11.028 0-20-8.972-20-20s8.972-20 20-20h392c11.028 0 20 8.972 20 20s-8.972 20-20 20z"/><path d="m120 300c0 33.084 26.916 60 60 60s60-26.916 60-60-26.916-60-60-60-60 26.916-60 60zm80 0c0 11.028-8.972 20-20 20s-20-8.972-20-20 8.972-20 20-20 20 8.972 20 20z"/></g></svg>