<svg id="Capa_1" enable-background="new 0 0 512 512" height="512" viewBox="0 0 512 512" width="512" xmlns="http://www.w3.org/2000/svg"><g id="Phone"><g><path d="m416 160h-120c-11.046 0-20-8.954-20-20s8.954-20 20-20h120c11.046 0 20 8.954 20 20s-8.954 20-20 20z"/></g><g><path d="m452 40h-215.44c-8.257-23.278-30.487-40-56.56-40h-40c-26.073 0-48.303 16.722-56.56 40h-23.44c-33.084 0-60 26.916-60 60v240c0 33.084 26.916 60 60 60h23.44c8.256 23.278 30.487 40 56.56 40v12c0 33.084 26.916 60 60 60h100c33.084 0 60-26.916 60-60v-52h92c33.084 0 60-26.916 60-60v-240c0-33.084-26.916-60-60-60zm-412 300v-240c0-11.028 8.972-20 20-20h20v280h-20c-11.028 0-20-8.972-20-20zm80 40v-320c0-11.028 8.972-20 20-20h40c11.028 0 20 8.972 20 20v320c0 11.028-8.972 20-20 20h-40c-11.028 0-20-8.972-20-20zm352-40c0 11.028-8.972 20-20 20h-152c-11.046 0-20 8.954-20 20s8.954 20 20 20h20v52c0 11.028-8.972 20-20 20h-100c-11.028 0-20-8.972-20-20v-12c33.084 0 60-26.916 60-60v-300h212c11.028 0 20 8.972 20 20z"/><path d="m316 200h-20c-11.046 0-20 8.954-20 20s8.954 20 20 20h20c11.046 0 20-8.954 20-20s-8.954-20-20-20z"/><path d="m416 200h-20c-11.046 0-20 8.954-20 20s8.954 20 20 20h20c11.046 0 20-8.954 20-20s-8.954-20-20-20z"/><path d="m416 280h-20c-11.046 0-20 8.954-20 20s8.954 20 20 20h20c11.046 0 20-8.954 20-20s-8.954-20-20-20z"/><path d="m316 280h-20c-11.046 0-20 8.954-20 20s8.954 20 20 20h20c11.046 0 20-8.954 20-20s-8.954-20-20-20z"/></g></g></svg>