<svg id="Capa_1" enable-background="new 0 0 512 512" height="512" viewBox="0 0 512 512" width="512" xmlns="http://www.w3.org/2000/svg"><g><path d="m460.143 181.858c-7.811-7.811-20.475-7.811-28.285 0l-45.858 45.858-25.857-25.858c-7.811-7.811-20.475-7.811-28.285 0s-7.81 20.474 0 28.284l40 40c3.905 3.905 9.024 5.858 14.142 5.858s10.237-1.953 14.143-5.858l60-60c7.809-7.81 7.809-20.474 0-28.284z"/><path d="m286 176c0-33.084-26.916-60-60-60s-60 26.916-60 60 26.916 60 60 60 60-26.916 60-60zm-60 20c-11.028 0-20-8.972-20-20s8.972-20 20-20 20 8.972 20 20-8.972 20-20 20z"/><g><path d="m306 356h-160c-15.264 0-24.909-16.462-17.447-29.778l27.623-49.29c14.148-25.248 40.903-40.932 69.824-40.932s55.676 15.685 69.824 40.933l27.623 49.289c7.462 13.316-2.183 29.778-17.447 29.778zm-125.865-40h91.73l-10.936-19.512c-7.08-12.638-20.465-20.488-34.929-20.488s-27.849 7.85-34.93 20.487v.001z"/></g><path d="m386 162.875c11.046 0 20-8.954 20-20v-42.875c0-55.14-44.859-100-100-100h-160c-55.141 0-100 44.86-100 100v312c0 55.14 44.859 100 100 100h160c55.141 0 100-44.86 100-100v-76c0-11.046-8.954-20-20-20s-20 8.954-20 20v76c0 33.084-26.916 60-60 60h-160c-33.084 0-60-26.916-60-60v-312c0-33.084 26.916-60 60-60h160c33.084 0 60 26.916 60 60v42.875c0 11.046 8.954 20 20 20z"/><path d="m206 396c-11.046 0-20 8.954-20 20s8.954 20 20 20h40c11.046 0 20-8.954 20-20s-8.954-20-20-20z"/></g></svg>