<svg id="Capa_1" enable-background="new 0 0 512 512" height="512" viewBox="0 0 512 512" width="512" xmlns="http://www.w3.org/2000/svg"><g id="Phone_2_"><g><path d="m396 160h-160c-11.046 0-20-8.954-20-20s8.954-20 20-20h160c11.046 0 20 8.954 20 20s-8.954 20-20 20z"/></g><g><path d="m436 40h-263.44c-8.257-23.278-30.487-40-56.56-40h-40c-33.084 0-60 26.916-60 60v320c0 33.084 26.916 60 60 60v12c0 33.084 26.916 60 60 60h100c33.084 0 60-26.916 60-60v-52h140c33.084 0 60-26.916 60-60v-240c0-33.084-26.916-60-60-60zm-380 340v-320c0-11.028 8.972-20 20-20h40c11.028 0 20 8.972 20 20v320c0 11.028-8.972 20-20 20h-40c-11.028 0-20-8.972-20-20zm400-40c0 11.028-8.972 20-20 20h-200c-11.046 0-20 8.954-20 20s8.954 20 20 20h20v52c0 11.028-8.972 20-20 20h-100c-11.028 0-20-8.972-20-20v-12c33.084 0 60-26.916 60-60v-300h260c11.028 0 20 8.972 20 20z"/><circle cx="316" cy="220" r="20"/><circle cx="396" cy="220" r="20"/><circle cx="316" cy="300" r="20"/><circle cx="236" cy="220" r="20"/><circle cx="236" cy="300" r="20"/><circle cx="396" cy="300" r="20"/></g></g></svg>