<svg id="Capa_1" enable-background="new 0 0 512 512" height="512" viewBox="0 0 512 512" width="512" xmlns="http://www.w3.org/2000/svg"><g id="Phone_3_"><g><path d="m416 352c11.046 0 20-8.954 20-20v-272c0-33.084-26.916-60-60-60h-240c-33.084 0-60 26.916-60 60v392c0 33.084 26.916 60 60 60h240c33.084 0 60-26.916 60-60v-40c0-11.046-8.954-20-20-20h-300v-332c0-11.028 8.972-20 20-20h240c11.028 0 20 8.972 20 20v272c0 11.046 8.954 20 20 20zm-20 80v20c0 11.028-8.972 20-20 20h-240c-11.028 0-20-8.972-20-20v-20z"/><path d="m236 80c-11.046 0-20 8.954-20 20s8.954 20 20 20h40c11.046 0 20-8.954 20-20s-8.954-20-20-20z"/></g><g><path d="m322.731 257.559c-36.796-32.624-96.667-32.624-133.463 0-8.264 7.328-20.906 6.569-28.233-1.696-7.328-8.265-6.568-20.906 1.696-28.233 25.068-22.226 58.191-34.467 93.269-34.467s68.2 12.241 93.269 34.467c8.265 7.328 9.024 19.968 1.696 28.233-7.329 8.264-19.969 9.024-28.234 1.696z"/></g><g><path d="m270.142 317.857c-3.777-3.777-8.8-5.857-14.142-5.857s-10.365 2.08-14.142 5.857c-7.811 7.811-20.474 7.812-28.284.001-7.811-7.81-7.811-20.474-.001-28.284 11.332-11.333 26.4-17.574 42.427-17.574s31.095 6.241 42.427 17.574c7.81 7.811 7.81 20.474-.001 28.284-7.81 7.81-20.473 7.811-28.284-.001z"/></g></g></svg>