<svg id="Capa_1" enable-background="new 0 0 512 512" height="512" viewBox="0 0 512 512" width="512" xmlns="http://www.w3.org/2000/svg"><g><path d="m216 156c11.046 0 20-8.954 20-20v-40c0-33.084-26.916-60-60-60h-116c-33.084 0-60 26.916-60 60v320c0 33.084 26.916 60 60 60h116c33.084 0 60-26.916 60-60v-120c0-11.046-8.954-20-20-20s-20 8.954-20 20v60h-156v-260c0-11.028 8.972-20 20-20h116c11.028 0 20 8.972 20 20v40c0 11.046 8.954 20 20 20zm-20 240v20c0 11.028-8.972 20-20 20h-116c-11.028 0-20-8.972-20-20v-20z"/><path d="m452 36h-116c-33.084 0-60 26.916-60 60v40c0 11.046 8.954 20 20 20s20-8.954 20-20v-40c0-11.028 8.972-20 20-20h116c11.028 0 20 8.972 20 20v260h-156v-60c0-11.046-8.954-20-20-20s-20 8.954-20 20v120c0 33.084 26.916 60 60 60h116c33.084 0 60-26.916 60-60v-320c0-33.084-26.916-60-60-60zm0 400h-116c-11.028 0-20-8.972-20-20v-20h156v20c0 11.028-8.972 20-20 20z"/><path d="m154.146 190.142c7.811-7.811 7.811-20.474 0-28.284s-20.475-7.811-28.285 0l-40 40c-7.811 7.811-7.811 20.474 0 28.284l40 40c3.905 3.905 9.024 5.858 14.143 5.858s10.237-1.953 14.143-5.858c7.811-7.811 7.811-20.474 0-28.284l-5.858-5.858h215.431l-5.858 5.858c-7.811 7.811-7.811 20.474 0 28.284 3.905 3.905 9.024 5.858 14.143 5.858s10.237-1.953 14.143-5.858l40-40c7.811-7.811 7.811-20.474 0-28.284l-40-40c-7.811-7.811-20.475-7.811-28.285 0s-7.811 20.474 0 28.284l5.858 5.858h-215.432z"/></g></svg>