<svg id="Capa_1" enable-background="new 0 0 516 516" height="512" viewBox="0 0 516 516" width="512" xmlns="http://www.w3.org/2000/svg"><g id="Speech_Bubble_2_"><path d="m496 2h-40c-33.084 0-60 26.916-60 60v15.44c-6.26-2.22-12.989-3.44-20-3.44-33.084 0-60 26.916-60 60s26.916 60 60 60 60-26.916 60-60v-72c0-11.028 8.972-20 20-20h40c11.046 0 20-8.954 20-20s-8.954-20-20-20zm-120 152c-11.028 0-20-8.972-20-20s8.972-20 20-20 20 8.972 20 20-8.972 20-20 20z"/><g><path d="m256 394c-11.046 0-20-8.954-20-20v-200c0-11.046 8.954-20 20-20s20 8.954 20 20v200c0 11.046-8.954 20-20 20z"/></g><g><path d="m176 314c-11.046 0-20-8.954-20-20v-80c0-11.046 8.954-20 20-20s20 8.954 20 20v80c0 11.046-8.954 20-20 20z"/></g><g><path d="m336 354c-11.046 0-20-8.954-20-20v-86.854c0-11.046 8.954-20 20-20s20 8.954 20 20v86.854c0 11.046-8.954 20-20 20z"/></g><g><path d="m96 514c-3.396 0-6.794-.864-9.854-2.596-6.27-3.55-10.146-10.198-10.146-17.404v-47.713c0-16.669-7.4-32.753-20.836-45.29-36.088-33.673-55.164-77.587-55.164-126.997 0-54.627 27.032-105.463 76.115-143.144 47.76-36.664 111.645-56.856 179.885-56.856 2.406 0 4.844.025 7.247.076 11.043.231 19.808 9.371 19.577 20.414s-9.376 19.801-20.414 19.577c-2.125-.044-4.281-.067-6.41-.067-59.481 0-114.715 17.254-155.527 48.585-38.996 29.937-60.473 69.505-60.473 111.415 0 38.579 14.283 71.467 42.452 97.75 21.634 20.185 33.548 46.656 33.548 74.537v12.389l25.74-15.444c20.497-12.298 43.659-17.048 65.213-13.378 16.158 2.751 32.66 4.146 49.047 4.146 59.481 0 114.715-17.254 155.527-48.585 38.996-29.937 60.473-69.505 60.473-111.415 0-21.755-5.968-42.871-17.738-62.76-5.625-9.506-2.479-21.772 7.027-27.397s21.772-2.479 27.397 7.027c15.47 26.141 23.314 54.11 23.314 83.13 0 54.627-27.032 105.463-76.115 143.144-47.76 36.664-111.645 56.856-179.885 56.856-18.63 0-37.391-1.586-55.762-4.714-12.143-2.068-25.609.86-37.918 8.245l-56.03 33.618c-3.164 1.899-6.726 2.851-10.29 2.851z"/></g></g></svg>