<svg id="Capa_1" enable-background="new 0 0 512 512" height="512" viewBox="0 0 512 512" width="512" xmlns="http://www.w3.org/2000/svg"><g><path d="m213.861 294.039c-1.083-10.993-10.876-19.016-21.865-17.943-10.993 1.083-19.026 10.872-17.943 21.865l11.429 116c1.083 10.994 10.87 19.023 21.865 17.943 10.993-1.083 19.026-10.872 17.943-21.865z"/><path d="m320.003 276.096c-10.995-1.078-20.782 6.951-21.864 17.943l-11.428 116c-1.083 10.993 6.95 20.782 17.942 21.865 11.032 1.082 20.785-6.985 21.864-17.943l11.428-116c1.083-10.993-6.95-20.782-17.942-21.865z"/><path d="m119.108 236h296.892c33.084 0 60-26.916 60-60s-26.916-60-60-60h-20v-56c0-33.084-26.916-60-60-60-11.046 0-20 8.954-20 20s8.954 20 20 20c11.028 0 20 8.972 20 20v56h-200v-56c0-11.028 8.972-20 20-20 11.046 0 20-8.954 20-20s-8.954-20-20-20c-33.084 0-60 26.916-60 60v56h-20c-33.084 0-60 26.916-60 60 0 26.926 17.83 49.764 42.303 57.333l34.589 238.667h-16.892c-11.046 0-20 8.954-20 20s8.954 20 20 20h320c11.046 0 20-8.954 20-20s-8.954-20-20-20h-16.873l25.236-173.12c1.593-10.93-5.976-21.082-16.906-22.676-10.924-1.588-21.082 5.976-22.676 16.906l-26.077 178.89h-205.393zm-23.108-80h320c11.028 0 20 8.972 20 20s-8.972 20-20 20h-320c-11.028 0-20-8.972-20-20s8.972-20 20-20z"/></g></svg>