<svg id="Capa_1" enable-background="new 0 0 512 512" height="512" viewBox="0 0 512 512" width="512" xmlns="http://www.w3.org/2000/svg"><g id="Speech_Bubble"><g><path d="m256 512c-26.584 0-51.583-10.303-70.437-29.019l-48.309-44.914c-7.519 1.752-15.153 2.611-22.742 2.612-26.083.001-51.677-10.146-70.645-29.115-3.751-3.751-5.858-8.838-5.858-14.142s2.107-10.392 5.858-14.142l19.554-19.553-34.43-37.316c-18.698-18.855-28.991-43.843-28.991-70.411 0-26.584 10.302-51.583 29.021-70.441l44.911-48.305c-7.77-33.362 2.018-68.899 26.506-93.387 7.811-7.81 20.474-7.81 28.284 0l19.553 19.553 37.317-34.431c18.849-18.698 43.836-28.989 70.408-28.989 26.585 0 51.584 10.302 70.437 29.017l48.309 44.914c33.362-7.77 68.898 2.017 93.387 26.506 7.811 7.81 7.811 20.474 0 28.284l-19.553 19.553 34.427 37.313c18.701 18.854 28.993 43.842 28.993 70.413 0 26.582-10.302 51.581-29.021 70.438l-44.911 48.305c7.771 33.363-2.018 68.901-26.506 93.388-7.81 7.81-20.472 7.81-28.284-.001l-19.553-19.552-37.317 34.431c-18.85 18.699-43.837 28.991-70.408 28.991zm-113.499-116.362c4.97 0 9.857 1.853 13.621 5.353 0 0 57.282 53.263 57.454 53.435 11.331 11.333 26.397 17.574 42.424 17.574s31.093-6.241 42.424-17.573c.19-.19.384-.376.581-.558l51.717-47.716c7.888-7.278 20.115-7.032 27.704.557l16.526 16.526c6.783-14.39 7.711-31.28 1.946-46.762-2.639-7.088-1.055-15.058 4.095-20.597 0 0 53.26-57.279 53.432-57.45 11.333-11.335 17.575-26.402 17.575-42.427 0-16.027-6.242-31.094-17.575-42.428-.189-.189-.375-.383-.557-.58l-47.714-51.714c-7.278-7.888-7.032-20.115.557-27.704l16.526-16.526c-14.392-6.783-31.281-7.712-46.761-1.947-7.088 2.639-15.059 1.055-20.598-4.095 0 0-57.282-53.263-57.454-53.435-11.329-11.331-26.396-17.571-42.424-17.571s-31.095 6.24-42.424 17.571c-.19.19-.384.376-.581.558l-51.717 47.716c-7.888 7.278-20.116 7.032-27.704-.557l-16.525-16.526c-6.783 14.391-7.712 31.281-1.947 46.762 2.639 7.088 1.055 15.058-4.095 20.597 0 0-53.26 57.279-53.432 57.45-11.333 11.335-17.575 26.402-17.575 42.429 0 16.025 6.242 31.092 17.575 42.425.189.189.375.383.557.58l47.716 51.716c7.278 7.888 7.032 20.116-.558 27.705l-16.526 16.525c14.391 6.783 31.28 7.71 46.76 1.945 2.271-.846 4.633-1.258 6.977-1.258z"/></g><g><path d="m336 236h-160c-11.046 0-20-8.954-20-20s8.954-20 20-20h160c11.046 0 20 8.954 20 20s-8.954 20-20 20z"/></g><g><path d="m336 316h-160c-11.046 0-20-8.954-20-20s8.954-20 20-20h160c11.046 0 20 8.954 20 20s-8.954 20-20 20z"/></g></g></svg>