<svg id="Capa_1" enable-background="new 0 0 512 512" height="512" viewBox="0 0 512 512" width="512" xmlns="http://www.w3.org/2000/svg"><g><path d="m316 60c0-33.084-26.916-60-60-60s-60 26.916-60 60 26.916 60 60 60 60-26.916 60-60zm-60 20c-11.028 0-20-8.972-20-20s8.972-20 20-20 20 8.972 20 20-8.972 20-20 20z"/><path d="m56 240h23.44c-2.22 6.26-3.44 12.989-3.44 20 0 4.305.574 8.296 1.073 11.292l40.125 192.68c5.511 27.837 30.219 48.028 58.802 48.028h160c28.583 0 53.291-20.191 58.801-48.028l40.125-192.68c.5-2.996 1.073-6.986 1.073-11.292 0-7.011-1.22-13.74-3.44-20h23.441c11.046 0 20-8.954 20-20s-8.954-20-20-20h-20v-60c0-33.084-26.916-60-60-60-11.046 0-20 8.954-20 20s8.954 20 20 20c11.028 0 20 8.972 20 20v60h-43.44c2.22-6.26 3.44-12.989 3.44-20 0-33.084-26.916-60-60-60h-80c-33.084 0-60 26.916-60 60 0 7.011 1.22 13.74 3.44 20h-43.44v-60c0-11.028 8.972-20 20-20 11.046 0 20-8.954 20-20s-8.954-20-20-20c-33.084 0-60 26.916-60 60v60h-20c-11.046 0-20 8.954-20 20s8.954 20 20 20zm160-80h80c11.028 0 20 8.972 20 20s-8.972 20-20 20h-80c-11.028 0-20-8.972-20-20s8.972-20 20-20zm160 80c11.028 0 20 8.972 20 20 0 1.254-.237 2.926-.466 4.331 0 0-39.947 191.75-39.963 191.83-1.795 9.178-10.026 15.839-19.571 15.839h-160c-9.545 0-17.776-6.661-19.571-15.839-.016-.08-39.963-191.83-39.963-191.83-.229-1.405-.466-3.077-.466-4.331 0-11.028 8.972-20 20-20z"/><path d="m216 432c11.046 0 20-8.954 20-20v-112c0-11.046-8.954-20-20-20s-20 8.954-20 20v112c0 11.046 8.954 20 20 20z"/><path d="m296 432c11.046 0 20-8.954 20-20v-112c0-11.046-8.954-20-20-20s-20 8.954-20 20v112c0 11.046 8.954 20 20 20z"/></g></svg>