<svg id="Capa_1" enable-background="new 0 0 512 512" height="512" viewBox="0 0 512 512" width="512" xmlns="http://www.w3.org/2000/svg"><g id="Telephone"><g><circle cx="256" cy="252" r="20"/><circle cx="336" cy="252" r="20"/><circle cx="416" cy="252" r="20"/><circle cx="256" cy="332" r="20"/><circle cx="336" cy="332" r="20"/><circle cx="416" cy="332" r="20"/><path d="m412 72h-156.001c-11.046 0-20 8.954-20 20s8.954 20 20 20h156.001c33.084 0 60 26.916 60 60v160c0 33.084-26.916 60-60 60h-252v-43.44c23.278-8.256 40-30.487 40-56.56v-232c0-33.084-26.916-60-60-60s-60 26.916-60 60v14.011c-45.589 9.291-80 49.696-80 97.989v160c0 55.14 44.86 100 100 100h22.011c9.291 45.589 49.697 80 97.989 80 11.046 0 20-8.954 20-20s-8.954-20-20-20c-26.073 0-48.303-16.722-56.56-40h248.56c55.14 0 100-44.86 100-100v-160c0-55.14-44.86-100-100-100zm-292-12c0-11.028 8.972-20 20-20s20 8.972 20 20v232c0 11.028-8.972 20-20 20s-20-8.972-20-20zm-80 272v-160c0-26.073 16.722-48.303 40-56.56v176.56c0 26.073 16.722 48.303 40 56.56v43.44h-20c-33.084 0-60-26.916-60-60z"/></g><g><path d="m416 192h-160c-11.046 0-20-8.954-20-20s8.954-20 20-20h160c11.046 0 20 8.954 20 20s-8.954 20-20 20z"/></g></g></svg>