<svg id="Capa_1" enable-background="new 0 0 512 512" height="512" viewBox="0 0 512 512" width="512" xmlns="http://www.w3.org/2000/svg"><g><path d="m196 432c11.046 0 20-8.954 20-20s-8.954-20-20-20h-40c-11.046 0-20 8.954-20 20s8.954 20 20 20z"/><path d="m296 100c0 11.046 8.954 20 20 20s20-8.954 20-20c0-55.14-44.859-100-100-100h-120c-55.141 0-100 44.86-100 100v312c0 55.14 44.859 100 100 100h120c55.141 0 100-44.86 100-100 0-11.046-8.954-20-20-20s-20 8.954-20 20c0 33.084-26.916 60-60 60h-120c-33.084 0-60-26.916-60-60v-312c0-33.084 26.916-60 60-60h120c33.084 0 60 26.916 60 60z"/><path d="m496 312v-112c0-22.056-17.944-40-40-40-8.726 0-17.021 2.763-23.988 7.99l-25.732 19.3c-10.718-16.418-29.253-27.29-50.28-27.29h-120c-33.084 0-60 26.916-60 60v72c0 33.084 26.916 60 60 60h120c21.027 0 39.562-10.872 50.279-27.29l25.73 19.298c6.97 5.229 15.265 7.992 23.991 7.992 22.056 0 40-17.944 40-40zm-88-36c-6.069-4.552-14.178-5.272-20.944-1.889-6.776 3.388-11.056 10.314-11.056 17.889 0 11.028-8.972 20-20 20h-120c-11.028 0-20-8.972-20-20v-72c0-11.028 8.972-20 20-20h120c11.028 0 20 8.972 20 20 0 7.575 4.28 14.501 11.056 17.889 6.775 3.386 14.883 2.657 20.944-1.889l48-36v112l.012.01z"/><circle cx="176" cy="100" r="20"/></g></svg>