<svg id="Capa_1" enable-background="new 0 0 512 512" height="512" viewBox="0 0 512 512" width="512" xmlns="http://www.w3.org/2000/svg"><g id="Voice_Mail"><g><path d="m361.858 490.142-80-80c-7.811-7.811-7.811-20.474 0-28.284s20.474-7.811 28.284 0l45.858 45.858v-31.716c0-11.046 8.954-20 20-20h56c22.056 0 40-17.944 40-40v-240c0-22.056-17.944-40-40-40h-352c-22.056 0-40 17.944-40 40v240c0 22.056 17.944 40 40 40h136c11.046 0 20 8.954 20 20s-8.954 20-20 20h-136c-44.112 0-80-35.888-80-80v-240c0-44.112 35.888-80 80-80h352c44.112 0 80 35.888 80 80v240c0 44.112-35.888 80-80 80h-36v60c0 8.089-4.873 15.382-12.346 18.478-7.459 3.089-16.064 1.396-21.796-4.336z"/></g><g><path d="m256 336c-11.046 0-20-8.954-20-20v-200c0-11.046 8.954-20 20-20s20 8.954 20 20v200c0 11.045-8.954 20-20 20z"/></g><g><path d="m176 296c-11.046 0-20-8.954-20-20v-120c0-11.046 8.954-20 20-20s20 8.954 20 20v120c0 11.045-8.954 20-20 20z"/></g><g><path d="m336 296c-11.046 0-20-8.954-20-20v-120c0-11.046 8.954-20 20-20s20 8.954 20 20v120c0 11.045-8.954 20-20 20z"/></g><g><path d="m96 256c-11.046 0-20-8.954-20-20v-40c0-11.046 8.954-20 20-20s20 8.954 20 20v40c0 11.045-8.954 20-20 20z"/></g><g><path d="m416 256c-11.046 0-20-8.954-20-20v-40c0-11.046 8.954-20 20-20s20 8.954 20 20v40c0 11.045-8.954 20-20 20z"/></g></g></svg>