<svg id="Capa_1" enable-background="new 0 0 512.061 512.061" height="512" viewBox="0 0 512.061 512.061" width="512" xmlns="http://www.w3.org/2000/svg"><g><path d="m244.607 117.648c-.017 0-.035 0-.052 0-.29.007.228 0 .052 0z"/><path d="m501.269 439.525c-6.598 8.942-19.168 10.733-27.969 4.214-8.888-6.56-10.774-19.082-4.215-27.968 3.41-4.62 3.712-10.976 1.06-16.073-4.192-8.052-13.574-8.87-20.529-6.232-41.651 15.809-105.51 40.044-181.957 40.181-22.599.183-44.974-2.463-64.736-7.656-10.683-2.807-17.067-13.743-14.26-24.426s13.739-17.067 24.426-14.26c16.152 4.244 34.61 6.441 53.421 6.342 17.977-.156 33.65-2.286 44.718-6.333 7.591-2.775 13.104-7.332 15.522-12.831 1.973-4.482 1.863-9.443-.324-14.746-2.821-6.835-8.438-9.672-12.654-10.848-3.777-1.054-8.36-1.257-13.248-.594-69.225 11.081-129.697-14.022-170.466-39.148-21.154-12.011-37.863-21.5-54.051-21.5-21.048 0-34.27 4.146-50.026 9.087-10.542 3.301-21.762-2.571-25.061-13.113s2.572-21.762 13.113-25.061c16.963-5.32 34.8-10.913 61.974-10.913 76.198 4.705 104.526 76.745 219.127 61.014 43.222-6.921 80.014 27.666 71.813 70.736 25.647-7.073 49.208-16.015 68.478-23.329 27.634-10.488 57.317.404 70.356 25.454 9.774 18.781 8.041 40.996-4.512 58.003z"/><path d="m414.447 445.131c-20.534 8.382-44.743 15.039-74.013 20.35-10.868 1.972-18.079 12.381-16.107 23.25 1.922 10.934 12.641 18.115 23.25 16.108 32.034-5.813 58.853-13.23 81.987-22.674 10.227-4.175 15.133-15.849 10.958-26.076-4.176-10.227-15.854-15.131-26.075-10.958z"/></g><path d="m497.979 252.735c-52.288 16.997-84.433 16.032-135.777-15.806-35.999-20.444-76.804-43.616-145.323-34.294-10.389 1.414-20.276.842-29.385-1.699-17.813-4.968-31.986-17.405-38.884-34.122-4.73-11.466-5.912-23.527-3.545-34.916-25.647 7.073-49.207 16.015-68.477 23.329-7.169 2.721-14.47 4.023-21.573 4.024-20.271.001-39.137-10.949-48.794-29.498-13.833-26.571-3.608-59.655 22.787-73.756 120.852-70.999 284.152-78.048 423.81 2.564 19.846 10.769 32.856 8.932 34.44 8.653 26.599-5.282 34.878 32.567 8.783 39.026-5.875 1.285-30.102 4.95-62.299-12.52-120.734-69.672-266.9-71.952-385.886-2.441-7.148 3.818-9.733 13.13-5.98 20.338 4.182 8.034 13.567 8.849 20.52 6.212 41.651-15.809 105.507-40.044 181.957-40.181 22.583-.179 44.973 2.463 64.736 7.656 10.683 2.807 17.067 13.743 14.261 24.426-2.807 10.684-13.741 17.07-24.427 14.261-16.138-4.241-35.501-6.441-54.316-6.343-.013 0-.03 0-.052 0-17.978.156-32.704 2.287-43.77 6.333-7.591 2.775-13.104 7.333-15.523 12.832-1.972 4.482-1.863 9.443.325 14.745 2.821 6.836 8.438 9.673 12.654 10.849 3.777 1.054 8.358 1.257 13.249.594 81.914-11.144 133.095 17.924 170.466 39.146 21.154 12.013 37.862 21.502 54.051 21.502 21.048 0 34.271-4.146 50.026-9.087 10.541-3.302 21.762 2.572 25.061 13.113 3.298 10.541-2.573 21.761-13.115 25.06z"/><path d="m290.118 491.648c0 11.046-8.954 20-20 20-84.59 0-161.392-32.038-210.925-58.914-19.849-10.771-32.862-8.932-34.44-8.653-26.604 5.282-34.877-32.577-8.775-39.028 5.89-1.286 30.107-4.941 62.292 12.522 45.462 24.667 115.65 54.072 191.849 54.072 11.044.001 19.999 8.955 19.999 20.001z"/></svg>