<svg id="Capa_1" enable-background="new 0 0 512 512" height="512" viewBox="0 0 512 512" width="512" xmlns="http://www.w3.org/2000/svg"><g><path d="m349.29 125.084-7.761 45.252c-1.287 7.503 1.797 15.087 7.956 19.561 6.16 4.475 14.324 5.065 21.062 1.522l40.639-21.365 40.639 21.365c6.738 3.543 14.904 2.952 21.062-1.522 6.159-4.475 9.243-12.058 7.957-19.561l-7.761-45.252 32.877-32.047c5.451-5.314 7.413-13.262 5.061-20.502-2.353-7.24-8.611-12.517-16.145-13.612l-45.436-6.603-20.319-41.172c-3.369-6.826-10.322-11.148-17.934-11.148s-14.565 4.322-17.935 11.149l-20.319 41.171-45.436 6.602c-7.534 1.095-13.792 6.372-16.145 13.612s-.391 15.188 5.061 20.502zm39.8-34.691c6.514-.947 12.146-5.038 15.059-10.941l7.038-14.26 7.038 14.26c2.913 5.903 8.544 9.994 15.059 10.941l15.737 2.287-11.388 11.1c-4.713 4.595-6.864 11.215-5.752 17.703l2.688 15.674-14.076-7.4c-5.826-3.063-12.787-3.063-18.613 0l-14.076 7.4 2.688-15.674c1.113-6.488-1.039-13.108-5.752-17.703l-11.388-11.1z"/><path d="m452 232h-156c-33.084 0-60 26.916-60 60v20h-60c-33.084 0-60 26.916-60 60v20h-56c-33.084 0-60 26.916-60 60s26.916 60 60 60h272c11.046 0 20-8.954 20-20s-8.954-20-20-20h-272c-11.028 0-20-8.972-20-20s8.972-20 20-20h76c11.046 0 20-8.954 20-20v-40c0-11.028 8.972-20 20-20h80c11.046 0 20-8.954 20-20v-40c0-11.028 8.972-20 20-20h156c11.028 0 20 8.972 20 20v160c0 11.028-8.972 20-20 20h-40c-11.046 0-20 8.954-20 20s8.954 20 20 20h40c33.084 0 60-26.916 60-60v-160c0-33.084-26.916-60-60-60z"/><path d="m56 352c11.046 0 20-8.954 20-20 0-33.084 26.916-60 60-60h40c11.046 0 20-8.954 20-20 0-33.084 26.916-60 60-60h36c11.046 0 20-8.954 20-20s-8.954-20-20-20h-36c-48.292 0-88.699 34.412-97.991 80h-22.009c-55.14 0-100 44.86-100 100 0 11.046 8.954 20 20 20z"/></g></svg>