<svg id="Capa_1" enable-background="new 0 0 512 512" height="512" viewBox="0 0 512 512" width="512" xmlns="http://www.w3.org/2000/svg"><path d="m453.5 492c0 11.046-8.954 20-20 20s-20-8.954-20-20c0-51.217-25.745-97.356-67.841-122.796-4.744 17.59-18.635 35.073-41.47 52.135-15.958 11.924-31.8 20.271-36.903 22.849-3.012 1.795-6.518 2.812-10.22 2.812h-.132c-3.761 0-7.322-1.049-10.368-2.896-5.11-2.623-20.684-10.961-36.364-22.847-22.457-17.021-36.14-34.441-40.851-51.951-33.031 20.332-58.129 54.13-66.563 90.375-.96 4.125.789 7.123 1.916 8.543 1.12 1.41 3.624 3.776 7.819 3.776h144.977c11.046 0 20 8.954 20 20s-8.954 20-20 20h-144.977c-15.339 0-29.607-6.89-39.146-18.902-9.551-12.029-13.032-27.514-9.549-42.482 5.928-25.479 18.159-50.308 35.368-71.802 16.706-20.864 37.769-38.226 60.914-50.208.049-.025.097-.05.146-.075 11.693-5.933 23.785-6.028 33.177-.262 8.871 5.447 13.988 15.308 14.065 27.083 0 .064.001.127.001.191 0 14.322 26.515 35.751 49.572 48.831 23.424-13.073 50.428-34.532 50.428-48.831 0-.064 0-.127.001-.191.078-11.775 5.194-21.637 14.065-27.083 9.391-5.766 21.483-5.671 33.177.262 29.422 14.927 54.211 37.951 71.686 66.583 17.711 29.019 27.072 62.521 27.072 96.886zm-395-167c0-111.808 39.661-174.014 73.286-211.851-1.438-4.12-2.22-8.545-2.22-13.149 0-.106-.066-18.125-.066-40 0-33.084 26.916-60 60-60h135.934c33.084 0 60 26.916 60 60 0 21.798.065 39.748.066 39.926 0 5.843-1.251 11.395-3.499 16.401 32.99 38.119 70.499 99.939 70.499 208.673 0 11.046-8.954 20-20 20s-20-8.954-20-20c0-97.54-32.156-150.321-62.933-185h-35.488c-8.254 23.281-30.498 40-56.573 40s-48.318-16.719-56.573-40h-39.5c-30.776 34.679-62.933 87.464-62.933 185 0 11.046-8.954 20-20 20s-20-8.954-20-20zm219.006-205c0-11.028-8.972-20-20-20s-20 8.972-20 20 8.972 20 20 20 20-8.972 20-20zm71.933 19.856c-.013-.015-.026-.03-.039-.044-.162.015-.133.03.039.044zm-179.939-79.856c0 21.798.065 39.748.066 39.926l31.376.049c8.262-23.267 30.499-39.975 56.564-39.975 26.075 0 48.318 16.719 56.573 40h31.421c0-.106-.066-18.125-.066-40 0-11.028-8.972-20-20-20h-135.934c-11.028 0-20 8.972-20 20zm189 412h-28c-11.046 0-20 8.954-20 20s8.954 20 20 20h28c11.046 0 20-8.954 20-20s-8.954-20-20-20zm-35.779-264.881c-10.659 29.087-37.045 47.881-67.221 47.881-30.339 0-56.694-19.102-67.143-48.665-3.681-10.414-15.109-15.874-25.522-12.192-10.414 3.681-15.873 15.107-12.192 25.522 16.176 45.764 57.335 75.335 104.857 75.335 47.151 0 88.279-29.093 104.779-74.119 3.801-10.371-1.526-21.859-11.897-25.66-10.372-3.8-21.86 1.526-25.661 11.898z"/></svg>