<svg id="Capa_1" enable-background="new 0 0 512 512" height="512" viewBox="0 0 512 512" width="512" xmlns="http://www.w3.org/2000/svg"><path d="m451.496 492c0 11.046-8.954 20-20 20s-20-8.954-20-20c0-51.217-25.745-97.355-67.841-122.796-4.744 17.59-18.636 35.073-41.471 52.135-15.957 11.923-31.799 20.27-36.902 22.849-3.013 1.795-6.519 2.812-10.221 2.812h-.132c-3.762 0-7.322-1.048-10.368-2.896-5.109-2.623-20.683-10.961-36.363-22.847-22.457-17.021-36.141-34.441-40.852-51.951-33.03 20.332-58.129 54.13-66.562 90.375-.96 4.125.788 7.123 1.916 8.543 1.119 1.41 3.624 3.776 7.819 3.776h144.977c11.046 0 20 8.954 20 20s-8.954 20-20 20h-144.977c-15.34 0-29.607-6.89-39.146-18.903-9.552-12.03-13.032-27.514-9.549-42.482 5.929-25.479 18.158-50.308 35.368-71.801 16.705-20.864 37.77-38.226 60.913-50.208.049-.025.098-.05.146-.074 11.693-5.933 23.787-6.027 33.177-.262 8.871 5.447 13.988 15.308 14.065 27.083.001.064.001.127.001.191 0 14.322 26.515 35.751 49.572 48.831 23.424-13.073 50.428-34.532 50.428-48.831 0-.063 0-.127.001-.191.077-11.775 5.194-21.636 14.065-27.083 9.393-5.766 21.483-5.67 33.177.262 29.422 14.927 54.211 37.951 71.686 66.583 17.712 29.018 27.073 62.52 27.073 96.885zm-95-20h-28c-11.046 0-20 8.954-20 20s8.954 20 20 20h28c11.046 0 20-8.954 20-20s-8.954-20-20-20zm-237.935-372c-.001-.106-.065-18.125-.065-40 0-33.084 26.916-60 60-60h149c33.084 0 60 26.916 60 60 0 21.798.064 39.748.065 39.927 0 22.129-17.944 40.073-40 40.073h-35.486c-8.255 23.281-30.498 40-56.573 40s-48.318-16.719-56.573-40h-40.367c-22.056 0-40.001-17.944-40.001-40zm156.941 20c0-11.028-8.972-20-20-20s-20 8.972-20 20 8.972 20 20 20 20-8.972 20-20zm-117.006-60c0 21.798.064 39.748.065 39.927l40.375.052c8.261-23.27 30.498-39.979 56.566-39.979 26.075 0 48.318 16.719 56.573 40h35.486c-.001-.106-.065-18.125-.065-40 0-11.028-8.972-20-20-20h-149c-11.028 0-20 8.972-20 20zm187.563 123.545c-7.972 45.46-47.322 78.455-93.563 78.455-46.242 0-85.592-32.995-93.563-78.455-1.908-10.879-12.276-18.156-23.153-16.245-10.88 1.908-18.153 12.274-16.245 23.154 11.333 64.634 67.252 111.546 132.961 111.546 65.708 0 121.627-46.912 132.962-111.545 1.908-10.88-5.364-21.246-16.244-23.154-10.885-1.911-21.246 5.365-23.155 16.244z"/></svg>