<svg id="Capa_1" enable-background="new 0 0 512.004 512.004" height="512" viewBox="0 0 512.004 512.004" width="512" xmlns="http://www.w3.org/2000/svg"><g id="Healthy_Food"><path d="m300 235.897c-11.046 0-20 8.954-20 20v44.105c0 26.073-16.722 48.303-40 56.56v-112.213c0-11.046-8.954-20-20-20s-20 8.954-20 20v112.212c-23.278-8.256-40-30.487-40-56.56v-67.201c0-11.046-8.954-20-20-20s-20 8.954-20 20v67.201c0 48.293 34.41 88.698 80 97.989v94.011c0 11.046 8.954 20 20 20s20-8.954 20-20v-94.011c45.59-9.291 80-49.697 80-97.989v-44.105c0-11.044-8.954-19.999-20-19.999z"/><path d="m501.713 122.519-40.53-22.517 40.53-22.517c9.655-5.364 13.135-17.54 7.771-27.196-5.363-9.655-17.54-13.134-27.196-7.77l-47.282 26.268c-13.144-39.9-50.762-68.785-95.006-68.785-4.813 0-9.654.347-14.388 1.03l-274.235 39.587c-29.29 4.229-51.377 29.757-51.377 59.383s22.087 55.154 51.377 59.383l274.234 39.587c4.733.684 9.574 1.03 14.389 1.03 44.244 0 81.862-28.885 95.005-68.785l47.282 26.268c9.655 5.364 21.832 1.885 27.196-7.77 5.365-9.656 1.885-21.832-7.77-27.196zm-161.713 37.483c-2.907 0-5.825-.208-8.673-.62l-274.235-39.587c-9.744-1.407-17.092-9.916-17.092-19.793s7.348-18.386 17.092-19.793l182.908-26.404v26.197c0 11.046 8.954 20 20 20s20-8.954 20-20v-31.971l51.327-7.409h.001c2.847-.411 5.765-.62 8.672-.62 33.084 0 60 26.916 60 60s-26.916 60-60 60z"/></g></svg>