<svg id="Capa_1" enable-background="new 0 0 512 512" height="512" viewBox="0 0 512 512" width="512" xmlns="http://www.w3.org/2000/svg"><g id="Health_Report"><g><g><path d="m216 261.185c-15.364 0-30.729-5.848-42.426-17.544l-42.427-42.426c-23.394-23.394-23.394-61.459-.001-84.853 23.45-23.449 61.404-23.45 84.854 0 23.447-23.448 61.404-23.448 84.853 0 23.394 23.395 23.394 61.459.001 84.853l-42.428 42.427c-11.697 11.694-27.062 17.543-42.426 17.543zm-14.143-45.83c7.799 7.798 20.486 7.797 28.285 0l42.427-42.426c7.797-7.798 7.797-20.487-.001-28.285-7.815-7.815-20.469-7.815-28.283 0l-14.144 14.143c-7.811 7.81-20.473 7.81-28.283 0l-14.143-14.142c-7.816-7.816-20.469-7.816-28.285 0-7.797 7.797-7.797 20.486.001 28.285z"/></g></g><g><path d="m376 352h-160c-11.046 0-20-8.954-20-20s8.954-20 20-20h160c11.046 0 20 8.954 20 20s-8.954 20-20 20z"/></g><g><circle cx="136" cy="332" r="20"/></g><g><path d="m376 432h-160c-11.046 0-20-8.954-20-20s8.954-20 20-20h160c11.046 0 20 8.954 20 20s-8.954 20-20 20z"/></g><g><circle cx="136" cy="412" r="20"/></g><g><path d="m396 512h-280c-44.112 0-80-35.888-80-80v-352c0-44.112 35.888-80 80-80h243.432c16.025 0 31.093 6.241 42.426 17.573l56.569 56.569c11.332 11.332 17.573 26.399 17.573 42.426v3.432c0 11.046-8.954 20-20 20h-60c-33.084 0-60-26.916-60-60v-40h-220c-22.056 0-40 17.944-40 40v352c0 22.056 17.944 40 40 40h280c22.056 0 40-17.944 40-40v-232c0-11.046 8.954-20 20-20s20 8.954 20 20v232c0 44.112-35.888 80-80 80zm-20-463.716v31.716c0 11.028 8.972 20 20 20h31.716z"/></g></g></svg>