<svg id="Capa_1" enable-background="new 0 0 512 512" height="512" viewBox="0 0 512 512" width="512" xmlns="http://www.w3.org/2000/svg"><path d="m276.5 242c0 11.046-8.954 20-20 20s-20-8.954-20-20 8.954-20 20-20 20 8.954 20 20zm61 61c-11.046 0-20 8.954-20 20s8.954 20 20 20 20-8.954 20-20-8.954-20-20-20zm42.388-277.573c-10.634-2.974-21.673 3.235-24.648 13.873-2.976 10.637 3.235 21.673 13.872 24.648 34.378 9.617 58.388 41.302 58.388 77.052v251c0 44.112-35.888 80-80 80h-21v-51c0-22.056-17.944-40-40-40h-60c-22.056 0-40 17.944-40 40v51h-22.021c-44.101 0-79.979-35.878-79.979-79.979v-251.021c0-35.75 24.01-67.435 58.388-77.052 10.637-2.976 16.848-14.011 13.872-24.648s-14.01-16.848-24.648-13.873c-51.585 14.431-87.612 61.956-87.612 115.573v251.021c0 66.157 53.823 119.979 119.979 119.979h42.021c11.046 0 20-8.954 20-20v-71h60v71c0 11.046 8.954 20 20 20h41c66.168 0 120-53.832 120-120v-251c0-53.617-36.027-101.142-87.612-115.573zm-62.388 135.573c0 11.046 8.954 20 20 20s20-8.954 20-20-8.954-20-20-20-20 8.954-20 20zm20 61c-11.046 0-20 8.954-20 20s8.954 20 20 20 20-8.954 20-20-8.954-20-20-20zm-81 81c-11.046 0-20 8.954-20 20s8.954 20 20 20 20-8.954 20-20-8.954-20-20-20zm-82 0c-11.046 0-20 8.954-20 20s8.954 20 20 20 20-8.954 20-20-8.954-20-20-20zm0-81c-11.046 0-20 8.954-20 20s8.954 20 20 20 20-8.954 20-20-8.954-20-20-20zm0-41c11.046 0 20-8.954 20-20s-8.954-20-20-20-20 8.954-20 20 8.954 20 20 20zm31-91h30v30c0 11.046 8.954 20 20 20s20-8.954 20-20v-30h30c11.046 0 20-8.954 20-20s-8.954-20-20-20h-30v-30c0-11.046-8.954-20-20-20s-20 8.954-20 20v30h-30c-11.046 0-20 8.954-20 20s8.954 20 20 20z"/></svg>