<svg id="Capa_1" enable-background="new 0 0 513 513" height="512" viewBox="0 0 513 513" width="512" xmlns="http://www.w3.org/2000/svg"><path d="m489.71 268.415c14.374 14.308 22.29 33.337 22.29 53.585v76c0 33.972-22.858 62.706-54 71.633v22.867c0 11.046-8.954 20-20 20s-20-8.954-20-20v-20h-318v20c0 11.046-8.954 20-20 20s-20-8.954-20-20v-21.416c-34.164-6.766-60-36.964-60-73.084v-160.5c0-44.112 35.888-80 80-80h46c44.112 0 80 35.888 80 80v29c0 11.046-8.954 20-20 20h-85c-11.046 0-20-8.954-20-20s8.954-20 20-20h65v-9c0-22.056-17.944-40-40-40h-46c-22.056 0-40 17.944-40 40v160.5c0 19.023 15.477 34.5 34.5 34.5h363c19.023 0 34.5-15.477 34.5-34.5v-76c0-9.528-3.731-18.49-10.508-25.234-6.694-6.663-15.494-10.294-24.898-10.266h-150.594v66h126c11.046 0 20 8.954 20 20s-8.954 20-20 20h-146c-11.046 0-20-8.954-20-20v-106c0-11.046 8.954-20 20-20 0 0 170.738-.001 170.856-.001 19.857 0 38.647 7.775 52.854 21.916zm-156.71-147.915h60v60c0 11.046 8.954 20 20 20s20-8.954 20-20v-60h60c11.046 0 20-8.954 20-20s-8.954-20-20-20h-60v-60c0-11.046-8.954-20-20-20s-20 8.954-20 20v60h-60c-11.046 0-20 8.954-20 20s8.954 20 20 20z"/></svg>