<svg id="Capa_1" enable-background="new 0 0 512 512" height="512" viewBox="0 0 512 512" width="512" xmlns="http://www.w3.org/2000/svg"><path d="m366.962 163.026-34.462-14.359v-29.932c17.233-4.451 30-20.13 30-38.734v-20.001c0-33.084-26.916-60-60-60h-93c-33.084 0-60 26.916-60 60v20c0 18.604 12.767 34.283 30 38.734v29.932l-34.462 14.359c-37.383 15.577-61.538 51.81-61.538 92.308v136.667c0 66.168 53.832 120 120 120h105c66.168 0 120-53.832 120-120v-136.667c0-40.498-24.155-76.731-61.538-92.307zm21.538 228.974c0 44.112-35.888 80-80 80h-105c-44.112 0-80-35.888-80-80v-136.667c0-24.299 14.493-46.039 36.923-55.385l46.77-19.487c7.453-3.105 12.308-10.387 12.308-18.461v-42h22c11.046 0 20-8.954 20-20s-8.954-20-20-20h-52v-20c0-11.028 8.972-20 20-20h93c11.028 0 20 8.972 20 20v20h-10c-11.046 0-20 8.954-20 20v62c0 8.074 4.854 15.356 12.308 18.461l46.77 19.487c18.225 7.594 31.209 23.369 35.438 42.051h-100.517c-22.056 0-40 17.944-40 40v50c0 22.056 17.944 40 40 40h102zm0-60h-102v-50h102zm-225-34c0-11.046 8.954-20 20-20s20 8.954 20 20-8.954 20-20 20-20-8.954-20-20zm120 120c0-11.046 8.954-20 20-20s20 8.954 20 20-8.954 20-20 20-20-8.954-20-20zm-90-180c0-11.046 8.954-20 20-20s20 8.954 20 20-8.954 20-20 20-20-8.954-20-20zm10 180c0 11.046-8.954 20-20 20s-20-8.954-20-20 8.954-20 20-20 20 8.954 20 20zm10-40c-11.046 0-20-8.954-20-20s8.954-20 20-20 20 8.954 20 20-8.954 20-20 20zm50 40c0 11.046-8.954 20-20 20s-20-8.954-20-20 8.954-20 20-20 20 8.954 20 20z"/></svg>