<svg id="Capa_1" enable-background="new 0 0 512 512" height="512" viewBox="0 0 512 512" width="512" xmlns="http://www.w3.org/2000/svg"><path d="m370.171 273.412c-6.278-3.548-10.16-10.201-10.16-17.412s3.882-13.864 10.161-17.412l67.954-38.401c6.977-3.942 12-10.365 14.146-18.086s1.156-15.815-2.787-22.792l-10.823-19.153c-8.138-14.401-26.476-19.498-40.878-11.359l-70.922 40.078c-6.191 3.5-13.775 3.447-19.919-.138-6.143-3.584-9.92-10.162-9.92-17.274v-81.463c0-16.542-13.458-30-30-30h-22c-16.542 0-30 13.458-30 30v81.463c0 7.112-3.777 13.689-9.92 17.274-6.144 3.585-13.729 3.637-19.919.138l-70.922-40.078c-14.402-8.138-32.74-3.042-40.878 11.359l-10.823 19.153c-3.942 6.977-4.932 15.071-2.787 22.792s7.169 14.144 14.145 18.086l67.955 38.401c6.278 3.548 10.161 10.201 10.161 17.412s-3.882 13.864-10.16 17.412l-67.955 38.401c-6.977 3.942-12 10.365-14.146 18.086s-1.156 15.814 2.787 22.791l10.824 19.153c3.942 6.977 10.366 12 18.086 14.146s15.814 1.157 22.791-2.786l70.923-40.078c6.191-3.498 13.776-3.445 19.919.138 6.143 3.585 9.92 10.162 9.92 17.274v81.463c0 16.542 13.458 30 30 30h22c16.542 0 30-13.458 30-30v-81.463c0-11.046 8.954-20 20-20s20 8.954 20 20v81.463c0 38.598-31.402 70-70 70h-22c-38.598 0-70-31.402-70-70v-47.188l-41.083 23.216c-16.277 9.198-35.165 11.509-53.179 6.502-18.015-5.006-33.002-16.728-42.201-33.006l-10.826-19.154c-9.199-16.278-11.508-35.165-6.502-53.18 5.006-18.016 16.728-33.003 33.007-42.201l37.141-20.989-37.143-20.989c-33.604-18.989-45.493-61.777-26.504-95.38l10.823-19.153c18.99-33.604 61.778-45.495 95.381-26.504l41.083 23.216v-47.19c0-38.598 31.402-70 70-70h22c38.598 0 70 31.402 70 70v47.188l41.083-23.216c33.605-18.99 76.391-7.098 95.381 26.504l10.823 19.154c18.989 33.604 7.1 76.391-26.504 95.38l-37.141 20.99 37.142 20.989c9.616 5.435 13.006 17.636 7.572 27.252-5.434 9.615-17.633 13.006-27.252 7.572zm105.251 71.935c-9.748-5.191-21.861-1.496-27.053 8.253l-9.816 18.436c-3.951 6.877-10.327 11.829-17.978 13.954-7.721 2.146-15.815 1.155-22.791-2.786-9.617-5.434-21.817-2.043-27.252 7.572-5.434 9.616-2.044 21.817 7.572 27.252 10.652 6.02 22.42 9.089 34.331 9.089 6.291 0 12.622-.856 18.849-2.587 18.015-5.006 33.002-16.728 42.201-33.006.082-.146 10.19-19.123 10.19-19.123 5.192-9.751 1.497-21.863-8.253-27.054z"/></svg>