<svg id="Capa_1" enable-background="new 0 0 512 512" height="512" viewBox="0 0 512 512" width="512" xmlns="http://www.w3.org/2000/svg"><g><path d="m96 156c-33.084 0-60 26.916-60 60v236c0 33.084 26.916 60 60 60h320c33.084 0 60-26.916 60-60s-26.916-60-60-60h-80c-33.084 0-60 26.916-60 60 0 7.011 1.22 13.74 3.44 20h-183.44c-11.028 0-20-8.972-20-20v-236c0-11.028 8.972-20 20-20 33.084 0 60-26.916 60-60v-16h120v16c0 33.084 26.916 60 60 60 11.028 0 20 8.972 20 20v116c0 11.046 8.954 20 20 20s20-8.954 20-20v-116c0-33.084-26.916-60-60-60-11.028 0-20-8.972-20-20v-19.44c23.278-8.256 40-30.487 40-56.56 0-33.084-26.916-60-60-60h-160c-33.084 0-60 26.916-60 60 0 26.073 16.722 48.304 40 56.56v19.44c0 11.028-8.972 20-20 20zm300 276h20c11.028 0 20 8.972 20 20s-8.972 20-20 20h-20zm-60 0h20v40h-20c-11.028 0-20-8.972-20-20s8.972-20 20-20zm-200-392h160c11.028 0 20 8.972 20 20s-8.972 20-20 20h-160c-11.028 0-20-8.972-20-20s8.972-20 20-20z"/><path d="m276 292h-39.999v-40c0-11.045-8.954-20-20-20-11.045 0-20 8.955-20 20v40h-40.001c-11.046 0-20 8.954-20 20s8.954 20 20 20h40v40c0 11.045 8.954 20 20 20 11.045 0 20-8.955 20-20v-40h40c11.046 0 20-8.954 20-20s-8.954-20-20-20z"/></g></svg>