<svg id="Capa_1" enable-background="new 0 0 512 512" height="512" viewBox="0 0 512 512" width="512" xmlns="http://www.w3.org/2000/svg"><g><path d="m160.517 170.772c38.324-10.078 68.664-14.772 95.483-14.772 28.334 0 62.734 5.108 99.483 14.772 10.683 2.809 21.62-3.573 24.43-14.256 2.809-10.682-3.574-21.62-14.256-24.429-40.021-10.524-77.94-16.087-109.657-16.087-30.347 0-63.92 5.112-105.657 16.087-10.682 2.809-17.064 13.746-14.256 24.429 2.809 10.683 13.746 17.064 24.43 14.256z"/><path d="m512 80c0-44.112-35.888-80-80-80-15.034 0-29.692 4.2-42.392 12.145-5.249 3.285-11.118 4.398-16.522 3.137-30.495-7.115-71.363-15.282-117.086-15.282s-86.591 8.167-117.087 15.282c-5.402 1.261-11.272.147-16.522-3.138-12.699-7.944-27.357-12.144-42.391-12.144-44.112 0-80 35.888-80 80 0 15.101 4.234 29.814 12.245 42.55 2.281 3.627 4.666 9.385 3.07 16.218-10.591 45.342-15.315 81.498-15.315 117.232 0 48.284 8.805 91.912 17.436 126.156-11.192 14.071-17.436 31.667-17.436 49.844 0 44.112 35.888 80 80 80 15.034 0 29.692-4.199 42.392-12.145 5.248-3.285 11.114-4.399 16.522-3.137 30.496 7.115 71.364 15.282 117.086 15.282s86.59-8.167 117.087-15.282c5.4-1.261 11.271-.147 16.522 3.138 12.699 7.945 27.357 12.144 42.391 12.144 44.112 0 80-35.888 80-80 0-15.099-4.233-29.812-12.244-42.549-2.282-3.629-4.668-9.388-3.072-16.217 10.592-45.344 15.316-81.5 15.316-117.234 0-45.724-8.167-86.591-15.283-117.086-1.261-5.406-.146-11.274 3.138-16.523 7.945-12.698 12.145-27.356 12.145-42.391zm-54.236 68.003c7.04 30.171 14.236 66.596 14.236 107.997 0 32.546-4.4 65.896-14.268 108.135-3.694 15.814-.795 32.368 8.164 46.612 3.994 6.349 6.104 13.699 6.104 21.253 0 22.056-17.944 40-40 40-7.522 0-14.844-2.094-21.173-6.054-10.281-6.433-21.736-9.748-33.239-9.748-4.546 0-9.1.518-13.59 1.566-30.173 7.039-66.6 14.236-107.998 14.236s-77.825-7.197-107.997-14.236c-15.854-3.699-32.486-.793-46.829 8.182-6.33 3.96-13.652 6.054-21.174 6.054-22.056 0-40-17.944-40-40 0-11.366 4.624-21.855 13.021-29.532 5.489-5.019 7.739-12.67 5.842-19.862-8.783-33.287-18.863-77.76-18.863-126.606 0-32.546 4.4-65.895 14.267-108.133 3.695-15.817.796-32.371-8.162-46.614-3.995-6.349-6.105-13.698-6.105-21.253 0-22.056 17.944-40 40-40 7.522 0 14.844 2.093 21.173 6.054 14.344 8.976 30.977 11.882 46.829 8.182 30.173-7.04 66.599-14.236 107.998-14.236 41.4 0 77.826 7.197 107.998 14.236 15.854 3.699 32.485.793 46.828-8.182 6.33-3.961 13.652-6.054 21.174-6.054 22.056 0 40 17.944 40 40 0 7.522-2.094 14.844-6.055 21.173-8.974 14.345-11.881 30.976-8.181 46.83z"/></g></svg>