<svg id="Capa_1" enable-background="new 0 0 511.858 511.858" height="512" viewBox="0 0 511.858 511.858" width="512" xmlns="http://www.w3.org/2000/svg"><path d="m467.715 44.146c-58.86-58.86-154.635-58.861-213.495-.002l-210.061 210.012c-58.875 58.875-58.875 154.671 0 213.546 29.438 29.438 68.104 44.156 106.772 44.156s77.337-14.719 106.775-44.157l210.066-210.115c58.799-58.862 58.773-154.611-.057-213.44zm-28.236 185.164-210.058 210.108c-43.279 43.278-113.698 43.278-156.978 0-43.279-43.279-43.279-113.699-.001-156.976l210.061-210.012c21.633-21.632 50.048-32.449 78.464-32.449s56.831 10.816 78.464 32.449c43.242 43.242 43.261 113.621.048 156.88zm-127.28 54.352c7.811 7.811 7.811 20.474 0 28.284-3.905 3.905-9.023 5.858-14.142 5.858s-10.237-1.953-14.142-5.858l-77-77c-7.811-7.811-7.811-20.474 0-28.284s20.474-7.811 28.284 0z"/></svg>