<svg id="Capa_1" enable-background="new 0 0 512 512" height="512" viewBox="0 0 512 512" width="512" xmlns="http://www.w3.org/2000/svg"><g><path d="m477.858 5.858-82.227 82.227c-30.667-18.075-70.894-13.958-97.205 12.352l-143.828 143.828c-2.902-6.063-6.841-11.656-11.735-16.549-23.393-23.394-61.458-23.394-84.853 0-23.45 23.45-23.449 61.403 0 84.853 18.495 18.494 46.024 22.31 68.278 11.709l61.409 61.409c-10.458 21.848-7.083 49.485 11.734 68.303 23.449 23.45 61.403 23.45 84.853 0 23.449-23.449 23.45-61.404 0-84.853-4.894-4.894-10.486-8.833-16.549-11.735l143.829-143.829c15.11-15.11 23.432-35.2 23.432-56.568 0-14.53-3.856-28.463-11.069-40.647l82.216-82.216c7.811-7.811 7.811-20.474 0-28.284s-20.475-7.811-28.285 0zm-363.279 278.426c-7.798 7.798-20.487 7.798-28.284 0-7.816-7.817-7.816-20.467 0-28.284 7.798-7.798 20.487-7.798 28.284 0 7.816 7.817 7.816 20.468 0 28.284zm141.421 141.421c-7.817 7.816-20.468 7.817-28.284 0-7.817-7.817-7.816-20.467 0-28.284s20.467-7.816 28.284 0c7.816 7.817 7.816 20.468 0 28.284zm127.279-240.416-14.142-14.142c-7.811-7.811-20.474-7.811-28.284 0s-7.811 20.474 0 28.284l14.142 14.142-28.284 28.285-14.142-14.142c-7.811-7.811-20.474-7.811-28.284 0s-7.811 20.474 0 28.284l14.142 14.142-28.284 28.284-14.143-14.142c-7.811-7.811-20.474-7.811-28.284 0s-7.811 20.474 0 28.284l14.142 14.142-28.284 28.284-56.569-56.569 169.705-169.704c15.596-15.596 40.973-15.596 56.569 0 7.555 7.555 11.716 17.6 11.716 28.284s-4.161 20.729-11.716 28.284z"/><path d="m90.711 506.142c7.811 7.811 20.474 7.811 28.284 0 7.811-7.811 7.811-20.474 0-28.284l-28.285-28.284 38.01-38.01c7.811-7.81 7.811-20.474 0-28.284-7.811-7.811-20.474-7.811-28.284 0l-38.01 38.01-28.284-28.284c-7.811-7.811-20.474-7.811-28.284 0s-7.811 20.474 0 28.284z"/></g></svg>