<svg id="Capa_1" enable-background="new 0 0 512 512" height="512" viewBox="0 0 512 512" width="512" xmlns="http://www.w3.org/2000/svg"><path d="m364 98c0 38.598-31.402 70-70 70h-76c-38.598 0-70-31.402-70-70 0-11.046 8.954-20 20-20s20 8.954 20 20c0 16.542 13.458 30 30 30h76c16.542 0 30-13.458 30-30 0-11.046 8.954-20 20-20s20 8.954 20 20zm104 22v272c0 66.168-53.832 120-120 120h-184c-66.168 0-120-53.832-120-120v-272c0-66.168 53.832-120 120-120h184c66.168 0 120 53.832 120 120zm-40 0c0-44.112-35.888-80-80-80h-184c-44.112 0-80 35.888-80 80v272c0 44.112 35.888 80 80 80h184c44.112 0 80-35.888 80-80zm-101 174h-50v-50c0-11.046-8.954-20-20-20s-20 8.954-20 20v50h-50c-11.046 0-20 8.954-20 20s8.954 20 20 20h50v50c0 11.046 8.954 20 20 20s20-8.954 20-20v-50h50c11.046 0 20-8.954 20-20s-8.954-20-20-20z"/></svg>