<svg id="Capa_1" enable-background="new 0 0 512 512" height="512" viewBox="0 0 512 512" width="512" xmlns="http://www.w3.org/2000/svg"><g><path d="m481.166 126c-20.011-34.662-63.274-51.817-121.822-48.302-.155.009-.311.023-.466.032-21.334-42.331-55.88-77.73-102.878-77.73-39.699 0-75.849 27.621-101.928 77.796-47.683-3.152-99.551 7.176-123.239 48.204-20.012 34.662-13.236 80.706 19.081 129.652.078.118.16.235.238.353-13.702 20.653-22.923 40.915-27.428 60.386-6.004 25.95-3.2 50.02 8.11 69.61 18.299 31.696 56.042 48.752 107.133 48.752 4.781 0 9.679-.149 14.689-.45.155-.009.311-.023.466-.032 10.993 21.813 24.095 39.421 39.073 52.429 19.058 16.551 41.122 25.3 63.805 25.3 40.067 0 76.524-28.121 102.657-79.183 26.71-52.191 37.343-117.655 37.343-176.817 0-6.051-.112-12.086-.327-18.096 12.077 12.379 23.504 26.052 33.033 40.484 23.191 35.125 29.687 67.059 17.82 87.612-4.237 7.338-10.827 13.403-19.587 18.026-9.769 5.155-13.51 17.253-8.355 27.022 5.155 9.768 17.254 13.509 27.022 8.355 15.532-8.196 27.496-19.434 35.561-33.403 20.012-34.662 13.236-80.706-19.081-129.652-.078-.118-.16-.235-.238-.353 26.021-39.219 42.954-89.056 19.318-129.995zm-292.216-28.594c18.672-36.482 43.11-57.406 67.05-57.406 22.438 0 43.402 15.272 60.46 43.535-42.275 8.729-87.304 26.305-130.46 51.221-5.113 2.952-10.161 5.986-15.138 9.096 4.9-16.887 10.953-32.504 18.088-46.446zm-123.476 48.594c10.604-18.366 36.682-28.533 71.865-28.725-14.981 43.86-21.339 92.75-21.339 138.725 0 6.051.112 12.086.327 18.096-12.075-12.377-23.505-26.054-33.033-40.484-23.191-35.125-29.687-67.059-17.82-87.612zm84.784 248.374c-42.018 2.521-72.918-7.82-84.784-28.373-10.561-18.292-6.401-45.81 10.847-76.227 28.708 32.284 66.478 62.529 109.678 87.47 5.24 3.026 10.523 5.946 15.836 8.765-16.76 4.269-34.312 7.328-51.577 8.365zm172.791 20.22c-18.671 36.482-43.11 57.406-67.049 57.406-22.438 0-43.402-15.272-60.46-43.535 42.275-8.729 87.304-26.305 130.46-51.221 5.113-2.952 10.161-5.986 15.138-9.096-4.901 16.887-10.954 32.504-18.089 46.446zm29.531-102.815c-14.577 11.024-30.211 21.373-46.58 30.824-16.519 9.537-33.275 17.889-49.957 24.953-16.856-7.117-33.656-15.492-50.043-24.953-16.519-9.537-32.13-19.872-46.589-30.788-2.264-18.156-3.411-36.892-3.411-55.815 0-19.141 1.164-37.841 3.42-55.779 14.577-11.024 30.211-21.373 46.58-30.824 16.519-9.537 33.275-17.889 49.957-24.953 16.856 7.117 33.656 15.492 50.043 24.953 16.519 9.537 32.13 19.872 46.589 30.788 2.263 18.156 3.411 36.892 3.411 55.815 0 19.141-1.164 37.841-3.42 55.779zm83.098-89.552c-28.708-32.284-66.478-62.529-109.678-87.471-5.24-3.026-10.523-5.946-15.836-8.765 16.76-4.27 34.312-7.329 51.577-8.365 42.018-2.522 72.917 7.82 84.784 28.373 10.561 18.293 6.401 45.81-10.847 76.228z"/><path d="m256 316c33.084 0 60-26.916 60-60s-26.916-60-60-60-60 26.916-60 60 26.916 60 60 60zm0-80c11.028 0 20 8.972 20 20s-8.972 20-20 20-20-8.972-20-20 8.972-20 20-20z"/></g></svg>