<svg id="Capa_1" enable-background="new 0 0 512 512" height="512" viewBox="0 0 512 512" width="512" xmlns="http://www.w3.org/2000/svg"><g id="Atom"><g><path d="m256 336c-44.112 0-80-35.888-80-80s35.888-80 80-80 80 35.888 80 80-35.888 80-80 80zm0-120c-22.056 0-40 17.944-40 40s17.944 40 40 40 40-17.944 40-40-17.944-40-40-40z"/></g><path d="m433.959 139.833c-47.341-28.266-110.541-43.833-177.959-43.833-29.601 0-58.387 3.003-85.376 8.762 1.16-2.103 2.339-4.182 3.552-6.214 22.544-37.756 51.602-58.548 81.824-58.548 16.469 0 32.584 6.405 47.897 19.036 8.522 7.029 21.128 5.818 28.155-2.703 7.028-8.521 5.818-21.126-2.702-28.155-22.349-18.434-47.713-28.178-73.35-28.178-44.863 0-86.118 27.716-116.167 78.042-7.65 12.812-14.361 26.794-20.094 41.698-14.905 5.733-28.886 12.443-41.698 20.093-50.325 30.049-78.041 71.304-78.041 116.167s27.716 86.118 78.041 116.167c47.341 28.266 110.541 43.833 177.959 43.833 29.601 0 58.387-3.003 85.376-8.762-1.16 2.103-2.339 4.182-3.552 6.214-22.544 37.756-51.602 58.548-81.824 58.548-16.469 0-32.584-6.405-47.897-19.036-8.524-7.03-21.128-5.819-28.155 2.703-7.028 8.521-5.818 21.126 2.702 28.155 22.349 18.434 47.713 28.178 73.35 28.178 44.863 0 86.118-27.716 116.167-78.042 7.65-12.812 14.361-26.794 20.094-41.698 14.905-5.733 28.886-12.443 41.698-20.093 50.325-30.049 78.041-71.304 78.041-116.167s-27.716-86.118-78.041-116.167zm-393.959 116.167c0-30.222 20.792-59.28 58.547-81.823 2.033-1.214 4.112-2.393 6.215-3.553-5.759 26.989-8.762 55.775-8.762 85.376 0 29.178 2.979 58.06 8.689 85.335-2.078-1.147-4.133-2.312-6.142-3.512-37.755-22.543-58.547-51.601-58.547-81.823zm216 120c-37.571 0-73.439-5.265-105.115-15.187-9.744-32.134-14.885-68.139-14.885-104.813 0-37.48 5.241-73.264 15.116-104.883 31.62-9.876 67.404-15.117 104.884-15.117 37.571 0 73.439 5.265 105.115 15.187 9.744 32.134 14.885 68.139 14.885 104.813 0 37.48-5.241 73.264-15.116 104.883-31.62 9.876-67.404 15.117-104.884 15.117zm157.453-38.177c-2.033 1.214-4.112 2.393-6.215 3.553 5.759-26.989 8.762-55.775 8.762-85.376 0-29.178-2.979-58.06-8.689-85.335 2.078 1.147 4.133 2.312 6.142 3.512 37.755 22.543 58.547 51.601 58.547 81.823s-20.792 59.28-58.547 81.823z"/></g></svg>