<svg id="Capa_1" enable-background="new 0 0 512 512" height="512" viewBox="0 0 512 512" width="512" xmlns="http://www.w3.org/2000/svg"><g><circle cx="336" cy="176" r="20"/><circle cx="176" cy="336" r="20"/><path d="m492 236h-16.906c-3.994-44.604-21.313-86.417-50.029-120.781l65.077-65.077c7.811-7.811 7.811-20.474 0-28.284s-20.474-7.811-28.284 0l-65.077 65.077c-34.364-28.716-76.177-46.036-120.781-50.029v-16.906c0-11.046-8.954-20-20-20s-20 8.954-20 20v16.906c-44.604 3.994-86.417 21.313-120.781 50.029l-65.076-65.077c-7.811-7.811-20.474-7.811-28.284 0s-7.811 20.474 0 28.284l65.077 65.077c-28.717 34.364-46.036 76.177-50.03 120.781h-16.906c-11.046 0-20 8.954-20 20s8.954 20 20 20h16.906c3.994 44.604 21.313 86.417 50.029 120.781l-65.077 65.077c-7.811 7.811-7.811 20.474 0 28.284 7.811 7.811 20.474 7.811 28.284 0l65.077-65.077c34.363 28.716 76.177 46.036 120.781 50.029v16.906c0 11.046 8.954 20 20 20s20-8.954 20-20v-16.91c45.007-4.094 86.977-21.89 120.786-50.021l65.072 65.072c7.811 7.811 20.474 7.811 28.284 0 7.811-7.811 7.811-20.474 0-28.284l-65.06-65.06c13.103-15.724 24.144-33.427 32.604-52.79 4.422-10.122-.198-21.912-10.32-26.334-10.119-4.422-21.912.198-26.334 10.32-9.134 20.905-21.938 39.448-37.456 55.019-.097.093-.201.172-.296.268-.094.094-.173.197-.265.293-33.139 32.959-78.512 52.427-127.015 52.427-99.252 0-180-80.748-180-180s80.748-180 180-180 180 80.748 180 180c0 11.046 8.954 20 20 20h36c11.046 0 20-8.954 20-20s-8.954-20-20-20z"/><path d="m136 196c0 33.084 26.916 60 60 60s60-26.916 60-60-26.916-60-60-60-60 26.916-60 60zm80 0c0 11.028-8.972 20-20 20s-20-8.972-20-20 8.972-20 20-20 20 8.972 20 20z"/><path d="m336 236c-33.084 0-60 26.916-60 60s26.916 60 60 60 60-26.916 60-60-26.916-60-60-60zm0 80c-11.028 0-20-8.972-20-20s8.972-20 20-20 20 8.972 20 20-8.972 20-20 20z"/></g></svg>