<svg id="Capa_1" enable-background="new 0 0 512 512" height="512" viewBox="0 0 512 512" width="512" xmlns="http://www.w3.org/2000/svg"><g><path d="m492 80h-179.44c2.22-6.26 3.44-12.989 3.44-20 0-33.084-26.916-60-60-60s-60 26.916-60 60c0 7.011 1.22 13.74 3.44 20h-179.44c-11.046 0-20 8.954-20 20s8.954 20 20 20h20v252c0 33.084 26.916 60 60 60h136v40h-20c-11.046 0-20 8.954-20 20s8.954 20 20 20h80c11.046 0 20-8.954 20-20s-8.954-20-20-20h-20v-40h136c33.084 0 60-26.916 60-60v-196c0-11.046-8.954-20-20-20s-20 8.954-20 20v196c0 11.028-8.972 20-20 20h-312c-11.028 0-20-8.972-20-20v-252h412c11.046 0 20-8.954 20-20s-8.954-20-20-20zm-236 0c-11.028 0-20-8.972-20-20s8.972-20 20-20 20 8.972 20 20-8.972 20-20 20z"/><path d="m372 236h-72c-11.046 0-20 8.954-20 20s8.954 20 20 20h72c11.046 0 20-8.954 20-20s-8.954-20-20-20z"/><path d="m372 156h-72c-11.046 0-20 8.954-20 20s8.954 20 20 20h72c11.046 0 20-8.954 20-20s-8.954-20-20-20z"/><path d="m372 316h-72c-11.046 0-20 8.954-20 20s8.954 20 20 20h72c11.046 0 20-8.954 20-20s-8.954-20-20-20z"/><path d="m140 356c11.046 0 20-8.954 20-20 0-16.978 8.562-32.421 20-47.842 11.438 15.421 20 30.864 20 47.842 0 11.046 8.954 20 20 20s20-8.954 20-20c0-32.165-16.606-57.624-34.268-80 17.662-22.376 34.268-47.835 34.268-80 0-11.046-8.954-20-20-20s-20 8.954-20 20c0 16.978-8.562 32.421-20 47.842-11.438-15.421-20-30.864-20-47.842 0-11.046-8.954-20-20-20s-20 8.954-20 20c0 32.165 16.606 57.624 34.268 80-17.662 22.376-34.268 47.835-34.268 80 0 11.046 8.954 20 20 20z"/></g></svg>