<svg id="Capa_1" enable-background="new 0 0 512 512" height="512" viewBox="0 0 512 512" width="512" xmlns="http://www.w3.org/2000/svg"><g><path d="m356 60c0 11.046 8.954 20 20 20s20-8.954 20-20c0-33.084-26.916-60-60-60h-200c-55.141 0-100 44.86-100 100v312c0 55.14 44.859 100 100 100h240c11.046 0 20-8.954 20-20v-40c0-15.353-5.796-29.377-15.315-40 9.52-10.623 15.315-24.647 15.315-40v-152c0-11.046-8.954-20-20-20s-20 8.954-20 20v92h-220c-22.494 0-43.275 7.468-60 20.051v-232.051c0-33.084 26.916-60 60-60h200c11.028 0 20 8.972 20 20zm-220 292h220v20c0 11.028-8.972 20-20 20h-200c-11.046 0-20 8.954-20 20s8.954 20 20 20h200c11.028 0 20 8.972 20 20v20h-220c-33.084 0-60-26.916-60-60s26.916-60 60-60z"/><path d="m256 80c-11.046 0-20 8.954-20 20 0 16.978-8.562 32.421-20 47.842-11.438-15.421-20-30.864-20-47.842 0-11.046-8.954-20-20-20s-20 8.954-20 20c0 32.165 16.605 57.624 34.268 80-17.663 22.376-34.268 47.835-34.268 80 0 11.046 8.954 20 20 20s20-8.954 20-20c0-16.978 8.562-32.421 20-47.842 11.438 15.421 20 30.864 20 47.842 0 11.046 8.954 20 20 20s20-8.954 20-20c0-32.165-16.605-57.624-34.268-80 17.663-22.376 34.268-47.835 34.268-80 0-11.046-8.954-20-20-20z"/><path d="m456 80c-11.046 0-20 8.954-20 20 0 11.028-8.972 20-20 20h-40c-11.046 0-20 8.954-20 20s8.954 20 20 20h40c33.084 0 60-26.916 60-60 0-11.046-8.954-20-20-20z"/></g></svg>