<svg id="Capa_1" enable-background="new 0 0 512 512" height="512" viewBox="0 0 512 512" width="512" xmlns="http://www.w3.org/2000/svg"><g><path d="m257.022 56.013c-.343-.008-.684-.013-1.022-.013s-.679.005-1.022.013c-98.835.553-178.978 81.15-178.978 179.987 0 11.046 8.954 20 20 20s20-8.954 20-20c0-6.79.496-13.466 1.435-20h59.012c-.294 6.596-.447 13.271-.447 20 0 11.046 8.954 20 20 20s20-8.954 20-20c0-6.757.176-13.428.495-20h79.01c.319 6.572.495 13.243.495 20 0 11.046 8.954 20 20 20s20-8.954 20-20c0-6.729-.153-13.404-.447-20h59.012c.939 6.534 1.435 13.21 1.435 20 0 11.046 8.954 20 20 20s20-8.954 20-20c0-98.837-80.143-179.434-178.978-179.987zm-127.496 119.987c14.106-29.614 38.311-53.523 68.135-67.25-.953 2.271-1.892 4.63-2.815 7.091-6.554 17.478-11.517 37.945-14.702 60.16h-50.618zm91.061 0c2.75-17.069 6.684-32.705 11.712-46.115 10.374-27.66 20.849-33.885 23.701-33.885s13.327 6.225 23.7 33.885c5.028 13.409 8.962 29.046 11.712 46.115zm111.268 0c-3.185-22.215-8.147-42.682-14.702-60.16-.923-2.46-1.862-4.82-2.815-7.091 29.824 13.728 54.029 37.637 68.135 67.25h-50.618z"/><path d="m20 416h196c11.028 0 20 8.972 20 20 0 11.046 8.954 20 20 20s20-8.954 20-20c0-11.028 8.972-20 20-20h196c11.046 0 20-8.954 20-20s-8.954-20-20-20h-20v-20c0-33.084-26.916-60-60-60h-116c-15.353 0-29.377 5.796-40 15.315-10.623-9.519-24.647-15.315-40-15.315h-116c-33.084 0-60 26.916-60 60v20h-20c-11.046 0-20 8.954-20 20s8.954 20 20 20zm276-80h116c11.028 0 20 8.972 20 20v20h-136c-7.011 0-13.74 1.221-20 3.441v-23.441c0-11.028 8.972-20 20-20zm-216 20c0-11.028 8.972-20 20-20h116c11.028 0 20 8.972 20 20v23.441c-6.26-2.22-12.989-3.441-20-3.441h-136z"/></g></svg>