<svg id="Capa_1" enable-background="new 0 0 512 512" height="512" viewBox="0 0 512 512" width="512" xmlns="http://www.w3.org/2000/svg"><g id="Book_1_"><path d="m492 152c-11.028 0-20-8.972-20-20s8.972-20 20-20c11.046 0 20-8.954 20-20s-8.954-20-20-20h-72c-11.046 0-20 8.954-20 20s8.954 20 20 20h15.44c-2.22 6.26-3.44 12.989-3.44 20s1.22 13.74 3.44 20h-15.44c-11.046 0-20 8.954-20 20s8.954 20 20 20h72c11.046 0 20-8.954 20-20s-8.954-20-20-20z"/><g><path d="m340 312c11.046 0 20-8.954 20-20v-232c0-33.084-26.916-60-60-60h-220c-44.112 0-80 35.888-80 80v352c0 44.112 35.888 80 80 80h200c44.112 0 80-35.888 80-80v-60c0-11.046-8.954-20-20-20h-260c-14.566 0-28.223 3.932-40 10.763v-282.763c0-22.056 17.944-40 40-40h220c11.028 0 20 8.972 20 20v232c0 11.046 8.954 20 20 20zm-260 80h240v40c0 22.056-17.944 40-40 40h-200c-22.056 0-40-17.944-40-40s17.944-40 40-40z"/><path d="m280 212v-80c0-11.046-8.954-20-20-20h-160c-11.046 0-20 8.954-20 20v80c0 11.046 8.954 20 20 20h160c11.046 0 20-8.954 20-20zm-40-20h-120v-40h120z"/><path d="m140 272c-11.046 0-20 8.954-20 20s8.954 20 20 20h80c11.046 0 20-8.954 20-20s-8.954-20-20-20z"/></g></g></svg>