<svg id="Capa_1" enable-background="new 0 0 512.031 512.031" height="512" viewBox="0 0 512.031 512.031" width="512" xmlns="http://www.w3.org/2000/svg"><g id="Brainstorm"><path d="m495.006 333.706-33.278-99.841c-3.629-10.887-5.395-22.746-6.929-37.203-6.541-61.62-39.214-117.991-89.643-154.659-50.993-37.08-113.656-50.214-176.447-36.987-85.402 17.992-153.305 88.006-168.968 174.22-6.626 36.471-4.447 72.445 6.476 106.923 10.247 32.344 28.267 62.39 52.11 86.888 11.414 11.727 17.7 26.729 17.701 42.243l.002 36.743c.001 33.083 26.917 59.998 60 59.998h200.001c33.084 0 60-26.916 60-60v-32c0-11.046-8.954-20-20-20h-40c-11.046 0-20 8.954-20 20s8.954 20 20 20h20v12c0 11.028-8.972 20-20 20h-200c-11.027 0-20-8.972-20-20l-.002-36.742c0-25.993-10.313-50.903-29.036-70.14-41.097-42.226-58.555-100.092-47.896-158.762 12.789-70.395 68.189-127.552 137.858-142.229 51.572-10.865 102.955-.141 144.677 30.197 41.292 30.025 68.042 76.144 73.39 126.53 1.459 13.74 3.459 29.729 8.759 45.63l24.504 73.516h-52.252c-11.046 0-20 8.954-20 20s8.954 20 20 20h80c6.429 0 12.466-3.09 16.225-8.306s4.781-11.92 2.748-18.019z"/><path d="m316.032 120.031h-43.427c-8.254-23.281-30.498-40-56.573-40s-48.318 16.719-56.573 40h-3.427c-33.084 0-60 26.916-60 60s26.916 60 60 60h47.639l-25.528 51.056c-3.1 6.2-2.769 13.562.875 19.459 3.645 5.896 10.082 9.485 17.013 9.485h47.639l-25.528 51.056c-4.939 9.88-.935 21.893 8.944 26.833 9.88 4.939 21.893.935 26.833-8.944l40-80c3.1-6.2 2.769-13.562-.876-19.459-3.644-5.896-10.081-9.485-17.013-9.485h-47.639l20-40h67.639c33.084 0 60-26.916 60-60s-26.914-60.001-59.998-60.001zm0 80h-160c-11.028 0-20-8.972-20-20s8.972-20 20-20h20c11.046 0 20-8.954 20-20 0-11.028 8.972-20 20-20s20 8.972 20 20c0 11.046 8.954 20 20 20h60c11.028 0 20 8.972 20 20s-8.972 20-20 20z"/></g></svg>