<svg id="Capa_1" enable-background="new 0 0 512 512" height="512" viewBox="0 0 512 512" width="512" xmlns="http://www.w3.org/2000/svg"><g><path d="m492 56c11.046 0 20-8.954 20-20s-8.954-20-20-20h-160c-11.046 0-20 8.954-20 20s8.954 20 20 20h20v80h-39.44c-8.256-23.278-30.487-40-56.56-40s-48.303 16.722-56.56 40h-39.44v-80h20c11.046 0 20-8.954 20-20s-8.954-20-20-20h-160c-11.046 0-20 8.954-20 20s8.954 20 20 20h20v80h-20c-11.046 0-20 8.954-20 20s8.954 20 20 20h20v100c0 33.084 26.916 60 60 60s60-26.916 60-60v-100h39.44c6.036 17.018 19.541 30.524 36.56 36.56v183.44c0 11.046 8.954 20 20 20s20-8.954 20-20v-183.44c17.018-6.036 30.524-19.541 36.56-36.56h39.44v100c0 33.084 26.916 60 60 60s60-26.916 60-60v-100h20c11.046 0 20-8.954 20-20s-8.954-20-20-20h-20v-80zm-412 0h40v80h-40zm40 220c0 11.028-8.972 20-20 20s-20-8.972-20-20v-100h40zm136-100c-11.028 0-20-8.972-20-20s8.972-20 20-20 20 8.972 20 20-8.972 20-20 20zm176 100c0 11.028-8.972 20-20 20s-20-8.972-20-20v-100h40zm0-140h-40v-80h40z"/><path d="m376 456h-240c-11.046 0-20 8.954-20 20s8.954 20 20 20h240c11.046 0 20-8.954 20-20s-8.954-20-20-20z"/></g></svg>