<svg id="Capa_1" enable-background="new 0 0 512 512" height="512" viewBox="0 0 512 512" width="512" xmlns="http://www.w3.org/2000/svg"><g><path d="m491.416 171.821c-12.86-11.329-29.881-16.598-46.7-14.461-45.785 5.821-87.193 20.449-126.592 44.719-20.852 12.846-41.284 28.402-62.344 47.573-26.978-24.277-53.001-43.11-79.141-57.274-34.261-18.564-70.031-30.019-109.355-35.019-16.819-2.139-33.84 3.132-46.7 14.461-13.082 11.525-20.584 28.091-20.584 45.451v234.347c0 17.36 7.502 33.926 20.584 45.45 12.889 11.354 29.916 16.594 46.7 14.461 45.785-5.821 87.193-20.448 126.592-44.719 35.002-21.562 68.816-50.757 106.417-91.879 4.126-4.513 8.213-8.856 12.268-13.035 47.068 40.955 96.486 67.302 159.44 71.84v17.881c0 5.876-2.561 11.502-7.024 15.435-2.494 2.197-7.787 5.74-15.215 4.796-43.033-5.471-78.95-19.307-120.097-46.264-9.238-6.052-21.635-3.47-27.689 5.77-6.053 9.239-3.47 21.636 5.77 27.689 45.937 30.095 88.181 46.283 136.972 52.486 16.764 2.132 33.803-3.1 46.7-14.461 13.082-11.524 20.584-28.09 20.584-45.45v-234.347c-.002-17.36-7.504-33.926-20.586-45.45zm-451.416 45.45c0-5.876 2.561-11.502 7.025-15.435 2.493-2.197 7.787-5.74 15.214-4.796 60.129 7.645 110.332 32.028 164.819 80.582-5.054 5.229-23.564 25.192-27.618 29.37-46.965-40.865-96.371-67.294-159.44-71.84zm130.275 117.373c-16.905 14.57-33.496 26.228-50.275 35.244v-70.455c16.708 9.054 33.296 20.715 50.275 35.211zm-130.275-59.343c13.778 1.186 27.042 3.632 40 7.462v103.566c-12.941 3.748-26.206 6.144-40 7.298zm352 94.155c-16.708-9.054-33.296-20.715-50.275-35.211 16.905-14.57 33.496-26.228 50.275-35.244zm80 24.132c-13.778-1.186-27.042-3.632-40-7.462v-103.566c12.941-3.748 26.206-6.144 40-7.298zm0-158.448c-83.198 5.899-144.159 50.376-201.229 112.801-71.573 78.279-131.989 114.177-208.532 123.908-7.429.947-12.721-2.599-15.215-4.796-4.463-3.933-7.024-9.559-7.024-15.435v-17.869c83.198-5.899 144.159-50.376 201.229-112.801 60.786-66.48 121.434-112.835 208.532-123.908 7.431-.944 12.721 2.6 15.214 4.796 4.464 3.933 7.025 9.559 7.025 15.435z"/><path d="m169.397 150.004c5.524 9.567 17.753 12.844 27.32 7.32l20.331-11.738c5.54 4.741 11.946 8.493 18.951 10.978v23.44c0 11.046 8.954 20 20 20s20-8.954 20-20v-23.44c7.005-2.484 13.411-6.236 18.951-10.978l20.331 11.738c9.566 5.523 21.798 2.246 27.32-7.32 5.523-9.566 2.246-21.798-7.32-27.32l-20.303-11.722c.659-3.555 1.021-7.214 1.021-10.958s-.362-7.402-1.021-10.958l20.303-11.722c9.566-5.522 12.843-17.754 7.32-27.32s-17.755-12.843-27.32-7.32l-20.331 11.738c-5.54-4.741-11.946-8.493-18.951-10.978v-23.44c0-11.046-8.954-20-20-20s-20 8.954-20 20v23.44c-7.005 2.484-13.411 6.236-18.951 10.978l-20.331-11.738c-9.566-5.523-21.798-2.246-27.32 7.32-5.523 9.566-2.246 21.798 7.32 27.32l20.303 11.722c-.658 3.555-1.02 7.214-1.02 10.958s.362 7.402 1.021 10.958l-20.303 11.722c-9.566 5.522-12.843 17.754-7.321 27.32zm106.603-50c0 11.028-8.972 20-20 20s-20-8.972-20-20 8.972-20 20-20 20 8.972 20 20z"/></g></svg>