<svg id="Capa_1" enable-background="new 0 0 512 512" height="512" viewBox="0 0 512 512" width="512" xmlns="http://www.w3.org/2000/svg"><g id="Ebook_1_"><path d="m396 0h-280c-33.084 0-60 26.916-60 60v392c0 33.084 26.916 60 60 60h280c33.084 0 60-26.916 60-60v-392c0-33.084-26.916-60-60-60zm0 472h-280c-11.028 0-20-8.972-20-20v-392c0-11.028 8.972-20 20-20h280c11.028 0 20 8.972 20 20v292h-260c-11.046 0-20 8.954-20 20s8.954 20 20 20h80v20c0 11.046 8.954 20 20 20s20-8.954 20-20v-20h140v60c0 11.028-8.972 20-20 20z"/><g><path d="m236 136h-20v-20c0-11.046-8.954-20-20-20s-20 8.954-20 20v20h-20c-11.046 0-20 8.954-20 20s8.954 20 20 20h20v100c0 11.046 8.954 20 20 20s20-8.954 20-20v-100h20c11.046 0 20-8.954 20-20s-8.954-20-20-20z"/><path d="m356 216h-20v-100c0-11.046-8.954-20-20-20s-20 8.954-20 20v100h-20c-11.046 0-20 8.954-20 20s8.954 20 20 20h20v20c0 11.046 8.954 20 20 20s20-8.954 20-20v-20h20c11.046 0 20-8.954 20-20s-8.954-20-20-20z"/></g></g></svg>