<svg id="Capa_1" enable-background="new 0 0 512 512" height="512" viewBox="0 0 512 512" width="512" xmlns="http://www.w3.org/2000/svg"><g id="Graduation"><g><path d="m492 276c-33.084 0-60-26.916-60-60v-80c0-11.046 8.954-20 20-20s20 8.954 20 20v80c0 11.028 8.972 20 20 20 11.046 0 20 8.954 20 20s-8.954 20-20 20z"/></g><g><path d="m492 36h-472c-11.046 0-20 8.954-20 20s8.954 20 20 20h96v60c0 22.879 12.718 43.451 33.191 53.688l80 40c8.26 4.13 17.53 6.312 26.809 6.312s18.549-2.183 26.81-6.312l79.999-40c20.473-10.237 33.191-30.809 33.191-53.688v-60h96c11.046 0 20-8.954 20-20s-8.954-20-20-20zm-136 100c0 7.63-4.245 14.493-11.08 17.91l-80 40c-2.773 1.387-5.774 2.09-8.92 2.09s-6.147-.703-8.92-2.09l-80-40c-6.834-3.417-11.08-10.28-11.08-17.91v-60h200z"/><path d="m444.675 309.814c-19.906-16.319-45.8-22.785-71.043-17.736l-97.632 19.526v-15.604c0-11.046-8.954-20-20-20s-20 8.954-20 20v15.604l-97.631-19.526c-25.243-5.048-51.137 1.417-71.044 17.736-19.908 16.32-31.325 40.444-31.325 66.186s11.417 49.866 31.325 66.186c19.907 16.319 45.8 22.784 71.044 17.736l97.631-19.526v15.604c0 11.046 8.954 20 20 20s20-8.954 20-20v-15.604l97.631 19.526c5.625 1.125 11.281 1.678 16.897 1.678 19.587 0 38.676-6.731 54.146-19.415 19.908-16.319 31.326-40.443 31.326-66.185s-11.418-49.866-31.325-66.186zm-314.151 110.885c-13.445 2.69-27.236-.754-37.84-9.446-10.603-8.693-16.684-21.542-16.684-35.253s6.081-26.56 16.684-35.252c10.604-8.692 24.396-12.135 37.84-9.446l105.476 21.094v47.207zm288.791-9.447c-10.604 8.692-24.399 12.134-37.84 9.446l-105.475-21.094v-47.207l105.477-21.095c13.438-2.69 27.235.754 37.839 9.446 10.603 8.692 16.684 21.541 16.684 35.252s-6.081 26.56-16.685 35.252z"/></g></g></svg>