<svg id="Capa_1" enable-background="new 0 0 512 512" height="512" viewBox="0 0 512 512" width="512" xmlns="http://www.w3.org/2000/svg"><path d="m511.501 19.993c.004 11.042-8.942 19.999-19.985 20.007-4.421.003-8.018 3.603-8.018 8.024v159.976c0 11.046-8.954 20-20 20s-20-8.954-20-20v-159.976c0-2.732.229-5.415.671-8.024h-101.338c.441 2.609.671 5.292.671 8.024v159.976c0 11.046-8.954 20-20 20s-20-8.954-20-20v-159.976c0-4.421-3.597-8.021-8.019-8.024-11.042-.008-19.988-8.965-19.984-20.007.003-11.043 8.957-19.993 20-19.993h196.003c11.042 0 19.996 8.95 19.999 19.993zm-295-19.993h-196.002c-11.043 0-19.996 8.95-20 19.993-.004 11.042 8.942 19.999 19.984 20.007 4.422.003 8.019 3.603 8.019 8.024v59.976c0 11.046 8.954 20 20 20s20-8.954 20-20v-59.976c0-2.732-.229-5.415-.671-8.024h101.339c-.441 2.609-.671 5.292-.671 8.024v59.976c0 11.046 8.954 20 20 20s20-8.954 20-20v-59.976c0-4.421 3.597-8.021 8.018-8.024 11.043-.008 19.989-8.965 19.985-20.007-.004-11.043-8.958-19.993-20.001-19.993zm-8 200v222c0 49.626-40.374 90-90 90s-90-40.374-90-90v-222c0-22.056 17.944-40 40-40h100c22.056 0 40 17.944 40 40zm-40 0h-100v222c0 27.57 22.43 50 50 50s50-22.43 50-50zm315 100v122c0 49.626-40.374 90-90 90s-90-40.374-90-90v-122c0-22.056 17.944-40 40-40h100c22.056 0 40 17.944 40 40zm-40 0h-100c-.018 0-.025.001-.025.001l.025 121.999c0 27.57 22.43 50 50 50s50-22.43 50-50z"/></svg>