<svg id="Capa_1" enable-background="new 0 0 512 512" height="512" viewBox="0 0 512 512" width="512" xmlns="http://www.w3.org/2000/svg"><g id="Manual_Book"><g><circle cx="256" cy="216" r="20"/><path d="m376 196h-22.011c-2.598-12.749-7.634-24.621-14.591-35.114l15.597-15.597c7.811-7.811 7.811-20.474 0-28.284-7.81-7.811-20.474-7.811-28.284 0l-15.597 15.597c-10.493-6.957-22.364-11.993-35.114-14.591v-22.011c0-11.046-8.954-20-20-20s-20 8.954-20 20v22.011c-12.749 2.598-24.621 7.634-35.114 14.591l-15.597-15.597c-7.811-7.811-20.475-7.81-28.284 0-7.811 7.811-7.811 20.474 0 28.284l15.597 15.597c-6.957 10.493-11.993 22.364-14.591 35.114h-22.011c-11.046 0-20 8.954-20 20s8.954 20 20 20h22.011c2.598 12.749 7.634 24.621 14.591 35.114l-15.597 15.597c-7.811 7.811-7.811 20.474 0 28.284 7.81 7.811 20.474 7.81 28.284 0l15.597-15.597c10.493 6.957 22.364 11.993 35.114 14.591v22.011c0 11.046 8.954 20 20 20s20-8.954 20-20v-22.011c12.749-2.598 24.621-7.634 35.114-14.591l15.597 15.597c7.81 7.81 20.475 7.81 28.284 0 7.811-7.811 7.811-20.474 0-28.284l-15.597-15.597c6.957-10.493 11.993-22.364 14.591-35.114h22.011c11.046 0 20-8.954 20-20s-8.954-20-20-20zm-120 80c-33.084 0-60-26.916-60-60s26.916-60 60-60 60 26.916 60 60-26.916 60-60 60z"/></g><g><path d="m456 512h-360c-33.084 0-60-26.916-60-60v-392c0-33.084 26.916-60 60-60h320c33.084 0 60 26.916 60 60v312c0 33.084-26.916 60-60 60h-320c-11.028 0-20 8.972-20 20s8.972 20 20 20h360c11.046 0 20 8.954 20 20s-8.954 20-20 20zm-360-472c-11.028 0-20 8.972-20 20v335.427c6.258-2.219 12.991-3.427 20-3.427h320c11.028 0 20-8.972 20-20v-312c0-11.028-8.972-20-20-20z"/></g></g></svg>