<svg id="Capa_1" enable-background="new 0 0 512 512" height="512" viewBox="0 0 512 512" width="512" xmlns="http://www.w3.org/2000/svg"><g id="Note_Book"><g><path d="m340 432c-11.046 0-20 8.954-20 20 0 11.028-8.972 20-20 20h-240c-11.028 0-20-8.972-20-20v-352c0-11.028 8.972-20 20-20h20v20c0 11.046 8.954 20 20 20s20-8.954 20-20v-20h60c11.046 0 20-8.954 20-20s-8.954-20-20-20h-60v-20c0-11.046-8.954-20-20-20s-20 8.954-20 20v20h-20c-33.084 0-60 26.916-60 60v352c0 33.084 26.916 60 60 60h240c33.084 0 60-26.916 60-60 0-11.046-8.954-20-20-20z"/><path d="m260 120c11.046 0 20-8.954 20-20v-20h20c11.028 0 20 8.972 20 20v112c0 11.046 8.954 20 20 20s20-8.954 20-20v-112c0-33.084-26.916-60-60-60h-20v-20c0-11.046-8.954-20-20-20s-20 8.954-20 20v80c0 11.046 8.954 20 20 20z"/><path d="m452 272h-175.432c-41.821 0-81.139 16.286-110.711 45.858-7.81 7.811-7.81 20.474 0 28.284 29.573 29.572 68.89 45.858 110.711 45.858h175.432c33.084 0 60-26.916 60-60s-26.916-60-60-60zm-240.782 60c19.134-13.007 41.705-20 65.351-20h43.431v40h-43.432c-23.645 0-46.216-6.993-65.35-20zm240.782 20h-92v-40h92c11.028 0 20 8.972 20 20s-8.972 20-20 20z"/></g><g><path d="m260 200h-160c-11.046 0-20-8.954-20-20s8.954-20 20-20h160c11.046 0 20 8.954 20 20s-8.954 20-20 20z"/></g><g><path d="m140 280h-40c-11.046 0-20-8.954-20-20s8.954-20 20-20h40c11.046 0 20 8.954 20 20s-8.954 20-20 20z"/></g></g></svg>