<svg id="Capa_1" enable-background="new 0 0 512 512" height="512" viewBox="0 0 512 512" width="512" xmlns="http://www.w3.org/2000/svg"><g><path d="m292 0h-192c-55.141 0-100 44.86-100 100v312c0 55.14 44.859 100 100 100h192c33.084 0 60-26.916 60-60v-392c0-33.084-26.916-60-60-60zm-100 40h40v91.716l-5.857-5.858c-7.811-7.811-20.475-7.811-28.285 0l-5.858 5.858zm120 412c0 11.028-8.972 20-20 20h-192c-33.084 0-60-26.916-60-60v-312c0-33.084 26.916-60 60-60h52v140c0 8.089 4.873 15.382 12.347 18.478 7.475 3.096 16.076 1.384 21.796-4.335l25.857-25.859 25.857 25.858c3.827 3.826 8.941 5.858 14.147 5.858 2.575 0 5.175-.498 7.648-1.523 7.475-3.095 12.348-10.388 12.348-18.477v-140h20c11.028 0 20 8.972 20 20z"/><path d="m492 160h-80c-11.046 0-20 8.954-20 20v183.432c0 41.821 16.286 81.138 45.857 110.71 3.751 3.751 8.838 5.858 14.143 5.858s10.392-2.107 14.143-5.858c29.571-29.572 45.857-68.89 45.857-110.71v-183.432c0-11.046-8.954-20-20-20zm-20 203.432c0 23.645-6.993 46.216-20 65.35-13.007-19.134-20-41.706-20-65.35v-163.432h40z"/><path d="m412 120c11.046 0 20-8.954 20-20 0-11.028 8.972-20 20-20s20 8.972 20 20c0 11.046 8.954 20 20 20s20-8.954 20-20c0-33.084-26.916-60-60-60s-60 26.916-60 60c0 11.046 8.954 20 20 20z"/><path d="m100 80c-11.046 0-20 8.954-20 20v312c0 11.046 8.954 20 20 20s20-8.954 20-20v-312c0-11.046-8.954-20-20-20z"/></g></svg>