<svg id="Capa_1" enable-background="new 0 0 512.003 512.003" height="512" viewBox="0 0 512.003 512.003" width="512" xmlns="http://www.w3.org/2000/svg"><path d="m509.185 453.319c-10.447 17.547-25.302 32.244-42.958 42.502-18.218 10.585-39.039 16.18-60.211 16.18h-300.016c-21.172 0-41.992-5.595-60.212-16.18-17.655-10.258-32.51-24.955-42.957-42.502-5.651-9.491-2.538-21.766 6.953-27.417 9.486-5.649 21.766-2.539 27.416 6.953 14.377 24.146 40.739 39.146 68.8 39.146h300.016c28.061 0 54.423-15 68.8-39.146 5.651-9.491 17.928-12.603 27.416-6.953 9.491 5.652 12.603 17.927 6.953 27.417zm2.815-333.318v192c0 66.168-53.832 120-120 120h-272c-66.168 0-120-53.832-120-120v-192c0-66.168 53.832-120 120-120h272c66.168 0 120 53.832 120 120zm-40 0c0-44.112-35.888-80-80-80h-272c-44.112 0-80 35.888-80 80v192c0 44.112 35.888 80 80 80h272c44.112 0 80-35.888 80-80zm-178 36c11.046 0 20-8.954 20-20s-8.954-20-20-20h-18v-16c0-11.046-8.954-20-20-20s-20 8.954-20 20v16h-18c-11.046 0-20 8.954-20 20s8.954 20 20 20h18v40h-18c-11.046 0-20 8.954-20 20s8.954 20 20 20h18v40h-18c-11.046 0-20 8.954-20 20s8.954 20 20 20h18v16c0 11.046 8.954 20 20 20s20-8.954 20-20v-16h18c11.046 0 20-8.954 20-20s-8.954-20-20-20h-18v-40h18c11.046 0 20-8.954 20-20s-8.954-20-20-20h-18v-40z"/></svg>