<svg id="Capa_1" enable-background="new 0 0 512 512" height="512" viewBox="0 0 512 512" width="512" xmlns="http://www.w3.org/2000/svg"><g id="Notebook"><g><g><path d="m156 432c-11.046 0-20-8.954-20-20v-312c0-11.046 8.954-20 20-20s20 8.954 20 20v312c0 11.046-8.954 20-20 20z"/></g><g><path d="m396 512h-240c-55.14 0-100-44.86-100-100v-312c0-55.14 44.86-100 100-100h240c33.084 0 60 26.916 60 60v76c0 11.046-8.954 20-20 20s-20-8.954-20-20v-76c0-11.028-8.972-20-20-20h-240c-33.084 0-60 26.916-60 60v312c0 33.084 26.916 60 60 60h240c11.028 0 20-8.972 20-20v-136h-100c-5.304 0-10.392-2.107-14.142-5.858l-40-40c-7.811-7.81-7.811-20.474 0-28.284l40-40c3.75-3.751 8.838-5.858 14.142-5.858h120c11.046 0 20 8.954 20 20v236c0 33.084-26.916 60-60 60zm-71.716-236h91.716v-40h-91.716l-20 20z"/></g></g></g></svg>