<svg id="Capa_1" enable-background="new 0 0 512 512" height="512" viewBox="0 0 512 512" width="512" xmlns="http://www.w3.org/2000/svg"><g><path d="m256 112c11.046 0 20-8.954 20-20v-72c0-11.046-8.954-20-20-20s-20 8.954-20 20v72c0 11.046 8.954 20 20 20z"/><path d="m180.468 500.339c10.652 7.52 23.271 11.661 35.532 11.661 15.353 0 29.377-5.796 40-15.315 10.623 9.519 24.647 15.315 40 15.315 12.262 0 24.882-4.142 35.534-11.662 58.84-41.648 104.466-120.985 104.466-208.338 0-55.14-44.859-100-100-100-22.494 0-43.275 7.466-60 20.048v-40.048c0-11.046-8.954-20-20-20s-20 8.954-20 20v40.048c-16.725-12.582-37.506-20.048-60-20.048-55.141 0-100 44.86-100 100 0 86.903 45.52 166.783 104.468 208.339zm-4.468-268.339c33.084 0 60 26.916 60 60 0 11.046 8.954 20 20 20s20-8.954 20-20c0-33.084 26.916-60 60-60s60 26.916 60 60c0 68.772-32.793 134.468-87.745 175.807-3.909 2.706-8.252 4.193-12.255 4.193-11.028 0-20-8.972-20-20 0-11.046-8.954-20-20-20s-20 8.954-20 20c0 11.028-8.972 20-20 20-4.002 0-8.346-1.488-12.256-4.194-54.946-41.339-87.744-107.038-87.744-175.806 0-33.084 26.916-60 60-60z"/><path d="m176 152c11.046 0 20-8.954 20-20v-112c0-11.046-8.954-20-20-20s-20 8.954-20 20v112c0 11.046 8.954 20 20 20z"/><path d="m336 152c11.046 0 20-8.954 20-20v-112c0-11.046-8.954-20-20-20s-20 8.954-20 20v112c0 11.046 8.954 20 20 20z"/></g></svg>