<svg id="Capa_1" enable-background="new 0 0 512 512" height="512" viewBox="0 0 512 512" width="512" xmlns="http://www.w3.org/2000/svg"><path d="m237 227c0 11.046-8.954 20-20 20s-20-8.954-20-20 8.954-20 20-20 20 8.954 20 20zm86 0c0-11.046-8.954-20-20-20s-20 8.954-20 20 8.954 20 20 20 20-8.954 20-20zm-106 67c-11.046 0-20 8.954-20 20s8.954 20 20 20 20-8.954 20-20-8.954-20-20-20zm-86 86c-11.046 0-20 8.954-20 20s8.954 20 20 20 20-8.954 20-20-8.954-20-20-20zm261-272h-272c-66.168 0-120 53.832-120 120v164c0 66.168 53.832 120 120 120h95c11.046 0 20-8.954 20-20s-8.954-20-20-20h-95c-44.112 0-80-35.888-80-80v-164c0-44.112 35.888-80 80-80h272c44.112 0 80 35.888 80 80v18c0 11.046 8.954 20 20 20s20-8.954 20-20v-18c0-66.168-53.832-120-120-120zm-261 186c-11.046 0-20 8.954-20 20s8.954 20 20 20 20-8.954 20-20-8.954-20-20-20zm0-87c-11.046 0-20 8.954-20 20s8.954 20 20 20 20-8.954 20-20-8.954-20-20-20zm-29-127c11.046 0 20-8.954 20-20 0-11.028 8.972-20 20-20s20 8.972 20 20c0 11.046 8.954 20 20 20s20-8.954 20-20c0-33.084-26.916-60-60-60s-60 26.916-60 60c0 11.046 8.954 20 20 20zm230 0c11.046 0 20-8.954 20-20 0-11.028 8.972-20 20-20s20 8.972 20 20c0 11.046 8.954 20 20 20s20-8.954 20-20c0-33.084-26.916-60-60-60s-60 26.916-60 60c0 11.046 8.954 20 20 20zm180 341.92c0 29.269-23.493 53.08-52.371 53.08h-36.266c-2.841 21.143-21.154 37-42.878 37s-40.037-15.857-42.878-37h-38.236c-28.878 0-52.371-23.812-52.371-53.08 0-19.599 10.641-36.922 27.097-45.911l5.567-35.89c3.997-28.208 19.667-53.257 43.01-68.744 15.914-10.56 35.945-16.375 56.402-16.375 20.456 0 40.487 5.815 56.402 16.375 23.338 15.484 39.006 40.526 43.007 68.729l5.556 35.485c16.797 8.891 27.959 26.588 27.959 46.331zm-40 0c0-5.866-4.157-10.965-9.884-12.124-8.199-1.659-14.499-8.245-15.793-16.51l-7.38-47.146c-.017-.104-.031-.21-.047-.315-2.375-16.941-11.682-31.929-25.533-41.12-9.433-6.258-21.609-9.705-34.287-9.705s-24.854 3.446-34.287 9.705c-13.853 9.191-23.159 24.179-25.533 41.119-.014.097-.028.193-.043.289l-7.342 47.329c-1.255 8.09-7.312 14.598-15.291 16.428-5.552 1.273-9.58 6.342-9.58 12.05 0 6.968 5.781 13.08 12.371 13.08h160.258c6.59 0 12.371-6.112 12.371-13.08zm-81-56.92h-26c-11.046 0-20 8.954-20 20s8.954 20 20 20h26c11.046 0 20-8.954 20-20s-8.954-20-20-20z"/></svg>