<svg id="Capa_1" enable-background="new 0 0 512 512" height="512" viewBox="0 0 512 512" width="512" xmlns="http://www.w3.org/2000/svg"><g id="Scalability"><g><path d="m256 512h-196c-33.084 0-60-26.916-60-60v-196c0-33.084 26.916-60 60-60h122.875c11.046 0 20 8.954 20 20s-8.954 20-20 20h-122.875c-11.028 0-20 8.972-20 20v196c0 11.028 8.972 20 20 20h196c11.028 0 20-8.972 20-20v-122.875c0-11.046 8.954-20 20-20s20 8.954 20 20v122.875c0 33.084-26.916 60-60 60z"/></g><g><path d="m20 156c-11.046 0-20-8.954-20-20v-56c0-44.112 35.888-80 80-80h56c11.046 0 20 8.954 20 20s-8.954 20-20 20h-56c-22.056 0-40 17.944-40 40v56c0 11.046-8.954 20-20 20z"/></g><g><path d="m296 40h-80c-11.046 0-20-8.954-20-20s8.954-20 20-20h80c11.046 0 20 8.954 20 20s-8.954 20-20 20z"/></g><g><path d="m492 156c-11.046 0-20-8.954-20-20v-56c0-22.056-17.944-40-40-40h-56c-11.046 0-20-8.954-20-20s8.954-20 20-20h56c44.112 0 80 35.888 80 80v56c0 11.046-8.954 20-20 20z"/></g><g><path d="m432 512h-56c-11.046 0-20-8.954-20-20s8.954-20 20-20h56c22.056 0 40-17.944 40-40v-56c0-11.046 8.954-20 20-20s20 8.954 20 20v56c0 44.112-35.888 80-80 80z"/></g><g><path d="m492 316c-11.046 0-20-8.954-20-20v-80c0-11.046 8.954-20 20-20s20 8.954 20 20v80c0 11.046-8.954 20-20 20z"/></g><path d="m412 80h-60c-11.046 0-20 8.954-20 20s8.954 20 20 20h11.716l-207.716 207.716v-11.716c0-11.046-8.954-20-20-20s-20 8.954-20 20v60c0 11.046 8.954 20 20 20h60c11.046 0 20-8.954 20-20s-8.954-20-20-20h-11.716l207.716-207.716v11.716c0 11.046 8.954 20 20 20s20-8.954 20-20v-60c0-11.046-8.954-20-20-20z"/></g></svg>