<svg id="Capa_1" enable-background="new 0 0 512 512" height="512" viewBox="0 0 512 512" width="512" xmlns="http://www.w3.org/2000/svg"><g><path d="m452 272h-20v-89.587l12.876 10.617c8.522 7.027 21.128 5.815 28.154-2.707 7.027-8.522 5.815-21.127-2.707-28.154-60.636-49.998-21.267-16.927-175.773-148.211-.219-.187-.443-.368-.67-.545-11.28-8.775-24.379-13.413-37.88-13.413s-26.6 4.638-37.88 13.413c-.228.177-.451.358-.67.545-154.38 131.176-115.172 98.241-175.774 148.211-8.522 7.027-9.734 19.632-2.707 28.154 7.027 8.523 19.632 9.734 28.154 2.707l12.877-10.617v89.587h-20c-33.084 0-60 26.916-60 60v120c0 33.084 26.916 60 60 60h392c33.084 0 60-26.916 60-60v-120c0-33.084-26.916-60-60-60zm-412 180v-120c0-11.028 8.972-20 20-20h20v100c0 11.046 8.954 20 20 20s20-8.954 20-20v-262.749l122.976-104.493c2.939-2.224 7.501-4.758 13.024-4.758s10.085 2.534 13.024 4.758l122.976 104.493v322.749h-36v-140c0-33.084-26.916-60-60-60h-80c-33.084 0-60 26.916-60 60v140h-96c-11.028 0-20-8.972-20-20zm276-100h-120v-20c0-11.028 8.972-20 20-20h80c11.028 0 20 8.972 20 20zm-120 40h40v80h-40zm80 0h40v80h-40zm196 60c0 11.028-8.972 20-20 20h-20v-160h20c11.028 0 20 8.972 20 20z"/><path d="m316 180c0-33.084-26.916-60-60-60s-60 26.916-60 60 26.916 60 60 60 60-26.916 60-60zm-60 20c-11.028 0-20-8.972-20-20s8.972-20 20-20 20 8.972 20 20-8.972 20-20 20z"/></g></svg>