<svg id="Capa_1" enable-background="new 0 0 512 512" height="512" viewBox="0 0 512 512" width="512" xmlns="http://www.w3.org/2000/svg"><g><path d="m376 352h-60v-20c24.927-18.75 40-48.431 40-80v-81.273l40.008-14.15c23.921-8.459 39.992-31.196 39.992-56.577s-16.071-48.118-39.991-56.577l-106.66-37.721c-10.698-3.784-21.918-5.702-33.349-5.702s-22.651 1.918-33.349 5.702l-106.659 37.721c-23.921 8.459-39.992 31.196-39.992 56.577s16.071 48.118 39.991 56.577l40.009 14.15v81.273c0 31.569 15.073 61.25 40 80v20h-60c-55.14 0-100 44.86-100 100 0 33.084 26.916 60 60 60h320c33.084 0 60-26.916 60-60 0-55.14-44.86-100-100-100zm-260-252c0-8.465 5.356-16.046 13.328-18.866l106.66-37.722c6.403-2.264 13.136-3.412 20.012-3.412s13.609 1.148 20.012 3.413l106.66 37.722c7.972 2.819 13.328 10.4 13.328 18.865s-5.356 16.046-13.328 18.866l-32.256 11.408c-9.549-20.508-30.343-34.765-54.416-34.765h-80c-24.073 0-44.867 14.257-54.416 34.765l-32.256-11.408c-7.972-2.82-13.328-10.401-13.328-18.866zm100 292c11.046 0 20-8.954 20-20v-50.703c0-7.139-3.806-13.737-9.986-17.312-18.513-10.709-30.014-30.629-30.014-51.985v-96.492c0-11.028 8.972-20 20-20h80c11.028 0 20 8.972 20 20v40.492h-60c-11.046 0-20 8.954-20 20s8.954 20 20 20h60v16c0 21.356-11.501 41.276-30.014 51.985-6.18 3.575-9.986 10.172-9.986 17.312v50.703c0 11.046 8.954 20 20 20h31.716l-71.716 71.716-71.716-71.716zm-140 60c0-30.451 22.808-55.659 52.235-59.48l79.481 79.48h-111.716c-11.028 0-20-8.972-20-20zm340 20h-111.716l79.481-79.48c29.427 3.821 52.235 29.029 52.235 59.48 0 11.028-8.972 20-20 20z"/><path d="m416 193.138c-11.046 0-20 8.954-20 20v78.862c0 11.046 8.954 20 20 20s20-8.954 20-20v-78.862c0-11.046-8.954-20-20-20z"/></g></svg>