<svg id="Capa_1" enable-background="new 0 0 512 512" height="512" viewBox="0 0 512 512" width="512" xmlns="http://www.w3.org/2000/svg"><g><path d="m401.976 60.654c-35.47-28.796-80.208-44.654-125.976-44.654-101.917 0-186.265 76.629-198.474 175.296l-5.433-7.245c-6.628-8.838-19.164-10.627-28-4.001-8.837 6.627-10.628 19.163-4.001 28l23.99 31.988c7.52 10.027 19.486 16.013 32.011 16.013.304 0 .605-.02.908-.027.026 0 .051.003.077.003.418 0 .839-.017 1.262-.043.308-.018.613-.052.92-.077.015-.001.029-.002.044-.003h.004c11.334-.928 21.925-6.701 28.797-15.865l23.989-31.988c6.627-8.836 4.836-21.373-4-28-8.835-6.626-21.372-4.836-28 4l-1.19 1.585c14.226-73.752 79.252-129.636 157.096-129.636 36.615 0 72.4 12.682 100.765 35.708 8.576 6.962 21.17 5.656 28.133-2.922 6.961-8.575 5.653-21.17-2.922-28.132z"/><path d="m140 296h-80c-33.084 0-60 26.916-60 60v80c0 33.084 26.916 60 60 60h80c33.084 0 60-26.916 60-60v-80c0-33.084-26.916-60-60-60zm20 140c0 11.028-8.972 20-20 20h-80c-11.028 0-20-8.972-20-20v-80c0-11.028 8.972-20 20-20h20v20c0 11.046 8.954 20 20 20s20-8.954 20-20v-20h20c11.028 0 20 8.972 20 20z"/><path d="m452 136h-80c-33.084 0-60 26.916-60 60v80c0 15.355 5.805 29.376 15.327 40-9.522 10.624-15.327 24.645-15.327 40v80c0 33.084 26.916 60 60 60h80c33.084 0 60-26.916 60-60v-80c0-15.355-5.805-29.376-15.327-40 9.522-10.624 15.327-24.645 15.327-40v-80c0-33.084-26.916-60-60-60zm-100 60c0-11.028 8.972-20 20-20h20v20c0 11.046 8.954 20 20 20s20-8.954 20-20v-20h20c11.028 0 20 8.972 20 20v80c0 11.028-8.972 20-20 20h-80c-11.028 0-20-8.972-20-20zm120 240c0 11.028-8.972 20-20 20h-80c-11.028 0-20-8.972-20-20v-80c0-11.028 8.972-20 20-20h20v20c0 11.046 8.954 20 20 20s20-8.954 20-20v-20h20c11.028 0 20 8.972 20 20z"/></g></svg>