<svg id="Capa_1" enable-background="new 0 0 512 512" height="512" viewBox="0 0 512 512" width="512" xmlns="http://www.w3.org/2000/svg"><g id="Api"><path d="m452 392c-21.009 0-39.519 10.863-50.24 27.258 0 0-30.266-7.763-30.391-7.793-9.049-2.136-15.369-10.141-15.369-19.465v-72h56c55.14 0 100-44.86 100-100 0-26.708-9.515-51.637-26.793-70.197-13.712-14.73-31.354-24.388-50.883-28.096-8.619-46.435-49.43-81.707-98.324-81.707-7.003 0-13.688.677-20.18 2.053-26.018-26.879-61.696-42.053-99.82-42.053-37.456 0-72.629 14.545-99.042 40.957-22.085 22.085-35.875 50.3-39.8 80.85-19.323 3.78-36.774 13.397-50.366 27.997-17.277 18.56-26.792 43.489-26.792 70.196 0 55.14 44.86 100 100 100h56v72c0 9.324-6.32 17.329-15.369 19.465-.125.03-30.391 7.793-30.391 7.793-10.721-16.395-29.231-27.258-50.24-27.258-33.084 0-60 26.916-60 60s26.916 60 60 60c31.015 0 56.609-23.655 59.689-53.871l30.343-7.784c27.076-6.493 45.968-30.454 45.968-58.345v-72h60c11.046 0 20-8.954 20-20s-8.954-20-20-20h-156c-33.084 0-60-26.916-60-60 0-34.206 24.075-60 56-60 11.046 0 20-8.954 20-20 0-55.14 44.86-100 100-100 30.482 0 58.744 13.573 77.539 37.238 5.421 6.826 14.64 9.354 22.784 6.25 6.16-2.347 12.596-3.488 19.677-3.488 33.084 0 60 26.916 60 60 0 11.046 8.954 20 20 20 31.925 0 56 25.794 56 60 0 33.084-26.916 60-60 60h-76c-11.046 0-20 8.954-20 20v92c0 27.891 18.892 51.852 45.968 58.345l30.343 7.784c3.08 30.216 28.674 53.871 59.689 53.871 33.084 0 60-26.916 60-60s-26.916-60-60-60zm-392 80c-11.028 0-20-8.972-20-20s8.972-20 20-20 20 8.972 20 20-8.972 20-20 20zm392 0c-11.028 0-20-8.972-20-20s8.972-20 20-20 20 8.972 20 20-8.972 20-20 20z"/><g><path d="m256 512c-11.046 0-20-8.954-20-20v-120c0-11.046 8.954-20 20-20s20 8.954 20 20v120c0 11.046-8.954 20-20 20z"/></g></g></svg>