<svg id="Capa_1" enable-background="new 0 0 512 512" height="512" viewBox="0 0 512 512" width="512" xmlns="http://www.w3.org/2000/svg"><g id="Appetizer"><g><path d="m176 40h-80c-11.046 0-20-8.954-20-20s8.954-20 20-20h80c11.046 0 20 8.954 20 20s-8.954 20-20 20z"/></g><g><path d="m416 40h-80c-11.046 0-20-8.954-20-20s8.954-20 20-20h80c11.046 0 20 8.954 20 20s-8.954 20-20 20z"/></g><g><path d="m196 212c0-26.073-16.722-48.303-40-56.56v-55.44c0-11.046-8.954-20-20-20s-20 8.954-20 20v55.44c-23.278 8.256-40 30.487-40 56.56 0 33.084 26.916 60 60 60s60-26.916 60-60zm-60 20c-11.028 0-20-8.972-20-20s8.972-20 20-20 20 8.972 20 20-8.972 20-20 20z"/><path d="m436 212c0-26.073-16.722-48.303-40-56.56v-55.44c0-11.046-8.954-20-20-20s-20 8.954-20 20v55.44c-23.278 8.256-40 30.487-40 56.56 0 33.084 26.916 60 60 60s60-26.916 60-60zm-60 20c-11.028 0-20-8.972-20-20s8.972-20 20-20 20 8.972 20 20-8.972 20-20 20z"/><path d="m492 392h-19.44c2.22-6.26 3.44-12.989 3.44-20 0-55.14-44.859-100-100-100s-100 44.86-100 100c0 7.011 1.22 13.74 3.44 20h-46.88c2.22-6.26 3.44-12.989 3.44-20 0-55.14-44.859-100-100-100s-100 44.86-100 100c0 7.011 1.22 13.74 3.44 20h-19.44c-11.046 0-20 8.954-20 20 0 55.14 44.859 100 100 100h312c55.141 0 100-44.86 100-100 0-11.046-8.954-20-20-20zm-176-20c0-33.084 26.916-60 60-60s60 26.916 60 60c0 11.028-8.972 20-20 20h-80c-11.028 0-20-8.972-20-20zm-240 0c0-33.084 26.916-60 60-60s60 26.916 60 60c0 11.028-8.972 20-20 20h-80c-11.028 0-20-8.972-20-20zm336 100h-312c-26.075 0-48.318-16.719-56.573-40h425.146c-8.255 23.281-30.498 40-56.573 40z"/></g></g></svg>