<svg id="Capa_1" enable-background="new 0 0 512 512" height="512" viewBox="0 0 512 512" width="512" xmlns="http://www.w3.org/2000/svg"><g><path d="m335.998 0c-32.676 0-61.741 15.755-80 40.066-18.259-24.311-47.324-40.066-80-40.066h-40c-11.046 0-20 8.954-20 20 0 55.14 44.86 100 100 100h40c11.046 0 20-8.954 20-20 0-33.084 26.916-60 60-60 11.046 0 20-8.954 20-20s-8.954-20-20-20zm-120 80c-26.075 0-48.318-16.719-56.573-40h16.573c26.075 0 48.318 16.719 56.573 40z"/><path d="m315.998 152c-14.343 0-28.738 2.292-42.817 6.824-11.25 3.64-23.114 3.646-34.34.008-14.067-4.534-28.481-6.833-42.843-6.833-90.238.001-152.278 83.023-139.846 182.481 5.807 46.455 24.048 90.273 51.365 123.384 28.8 34.91 64.485 54.136 100.481 54.136 12.384 0 24.743-2.469 36.691-7.32 7.393-2.981 15.23-2.975 22.621.002 11.977 4.856 24.32 7.318 36.688 7.318 35.996 0 71.681-19.226 100.481-54.136 27.316-33.11 45.558-76.929 51.365-123.384 12.495-99.962-50.081-182.48-139.846-182.48zm100.154 177.52c-4.877 39.019-19.98 75.559-42.528 102.89-21.063 25.529-45.79 39.59-69.626 39.59-7.191 0-14.479-1.476-21.702-4.404-8.485-3.417-17.394-5.127-26.303-5.127-8.91 0-17.821 1.71-26.307 5.132-7.19 2.919-14.487 4.399-21.688 4.399-23.836 0-48.563-14.061-69.626-39.591-22.547-27.331-37.651-63.871-42.528-102.89-8.956-71.642 31.291-137.519 100.154-137.519 10.19 0 20.476 1.65 30.542 4.894 19.26 6.241 39.646 6.237 58.927-.003 10.083-3.245 20.355-4.891 30.532-4.891 68.161 0 109.243 64.806 100.153 137.52z"/></g></svg>