<svg id="Capa_1" enable-background="new 0 0 512 512" height="512" viewBox="0 0 512 512" width="512" xmlns="http://www.w3.org/2000/svg"><g><circle cx="100" cy="216" r="20"/><circle cx="100" cy="296" r="20"/><circle cx="100" cy="376" r="20"/><path d="m472 79.44v-23.44c0-11.046-8.954-20-20-20s-20 8.954-20 20v23.44c-23.278 8.256-40 30.487-40 56.56v183.432c0 38.968 14.146 75.76 40 104.522v32.046c0 11.046 8.954 20 20 20s20-8.954 20-20v-32.046c25.854-28.762 40-65.554 40-104.523v-23.431c0-11.046-8.954-20-20-20s-20 8.954-20 20v23.432c0 23.645-6.993 46.216-20 65.351-13.007-19.134-20-41.706-20-65.351v-83.432h60c11.046 0 20-8.954 20-20v-80c0-26.073-16.722-48.303-40-56.56zm0 116.56h-40v-60c0-11.028 8.972-20 20-20s20 8.972 20 20z"/><path d="m80 512h200c44.112 0 80-35.888 80-80v-312c0-44.112-35.888-80-80-80h-3.44c-8.257-23.278-30.487-40-56.56-40h-80c-26.073 0-48.303 16.722-56.56 40h-3.44c-44.112 0-80 35.888-80 80v312c0 44.112 35.888 80 80 80zm60-472h80c11.028 0 20 8.972 20 20s-8.972 20-20 20h-80c-11.028 0-20-8.972-20-20s8.972-20 20-20zm-100 80c0-22.056 17.944-40 40-40h3.44c8.256 23.278 30.487 40 56.56 40h80c26.073 0 48.303-16.722 56.56-40h3.44c22.056 0 40 17.944 40 40v312c0 22.056-17.944 40-40 40h-200c-22.056 0-40-17.944-40-40z"/><path d="m180 236h80c11.046 0 20-8.954 20-20s-8.954-20-20-20h-80c-11.046 0-20 8.954-20 20s8.954 20 20 20z"/><path d="m180 316h80c11.046 0 20-8.954 20-20s-8.954-20-20-20h-80c-11.046 0-20 8.954-20 20s8.954 20 20 20z"/><path d="m180 396h80c11.046 0 20-8.954 20-20s-8.954-20-20-20h-80c-11.046 0-20 8.954-20 20s8.954 20 20 20z"/></g></svg>