<svg id="Capa_1" enable-background="new 0 0 512 512" height="512" viewBox="0 0 512 512" width="512" xmlns="http://www.w3.org/2000/svg"><g><circle cx="176" cy="376" r="20"/><circle cx="336" cy="376" r="20"/><path d="m452 36c-33.084 0-60 26.916-60 60v240c0 33.084 26.916 60 60 60 11.028 0 20 8.972 20 20s-8.972 20-20 20h-392c-11.028 0-20-8.972-20-20v-240c0-11.028 8.972-20 20-20h276c11.046 0 20-8.954 20-20s-8.954-20-20-20h-276c-33.084 0-60 26.916-60 60v240c0 33.084 26.916 60 60 60h392c33.084 0 60-26.916 60-60v-320c0-33.084-26.916-60-60-60zm20 323.427c-6.258-2.219-12.991-3.427-20-3.427-11.028 0-20-8.972-20-20v-240c0-11.028 8.972-20 20-20s20 8.972 20 20z"/><path d="m80 216v160c0 11.046 8.954 20 20 20s20-8.954 20-20v-160c0-11.046-8.954-20-20-20s-20 8.954-20 20z"/><path d="m156 216v80c0 11.046 8.954 20 20 20s20-8.954 20-20v-80c0-11.046-8.954-20-20-20s-20 8.954-20 20z"/><path d="m236 216v160c0 11.046 8.954 20 20 20s20-8.954 20-20v-160c0-11.046-8.954-20-20-20s-20 8.954-20 20z"/><path d="m336 196c-11.046 0-20 8.954-20 20v80c0 11.046 8.954 20 20 20s20-8.954 20-20v-80c0-11.046-8.954-20-20-20z"/></g></svg>