<svg id="Capa_1" enable-background="new 0 0 512 512" height="512" viewBox="0 0 512 512" width="512" xmlns="http://www.w3.org/2000/svg"><g id="Barcode"><g><path d="m20 120c-11.046 0-20-8.954-20-20v-40c0-33.084 26.916-60 60-60h40c11.046 0 20 8.954 20 20s-8.954 20-20 20h-40c-11.028 0-20 8.972-20 20v40c0 11.046-8.954 20-20 20z"/></g><g><path d="m80 360h-20c-33.084 0-60-26.916-60-60v-40c0-11.046 8.954-20 20-20s20 8.954 20 20v40c0 11.028 8.972 20 20 20h20c11.046 0 20 8.954 20 20s-8.954 20-20 20z"/></g><g><path d="m492 120c-11.046 0-20-8.954-20-20v-40c0-11.028-8.972-20-20-20h-40c-11.046 0-20-8.954-20-20s8.954-20 20-20h40c33.084 0 60 26.916 60 60v40c0 11.046-8.954 20-20 20z"/></g><g><path d="m452 360h-20c-11.046 0-20-8.954-20-20s8.954-20 20-20h20c11.028 0 20-8.972 20-20v-40c0-11.046 8.954-20 20-20s20 8.954 20 20v40c0 33.084-26.916 60-60 60z"/></g><g><path d="m492 160h-56v-60c0-11.046-8.954-20-20-20s-20 8.954-20 20v60h-40v-60c0-11.046-8.954-20-20-20s-20 8.954-20 20v60h-40v-60c0-11.046-8.954-20-20-20s-20 8.954-20 20v60h-40.258l.258-59.914c.047-11.046-8.868-20.039-19.914-20.086-.03 0-.059 0-.088 0-11.005 0-19.95 8.898-19.998 19.914l-.259 60.086h-39.741v-60c0-11.046-8.954-20-20-20s-20 8.954-20 20v60h-56c-11.046 0-20 8.954-20 20s8.954 20 20 20h472c11.046 0 20-8.954 20-20s-8.954-20-20-20z"/><path d="m356 240h-200c-11.046 0-20 8.954-20 20v40c0 33.084 26.916 60 60 60v92c0 33.084 26.916 60 60 60s60-26.916 60-60l-.025-91.999s.008-.001.025-.001c33.084 0 60-26.916 60-60v-40c0-11.046-8.954-20-20-20zm-20 60c0 11.028-8.972 20-20 20-22.056 0-40 17.944-40 40v92c0 11.028-8.972 20-20 20s-20-8.972-20-20v-92c0-22.056-17.944-40-40-40-11.028 0-20-8.972-20-20v-20h160z"/></g></g></svg>