<svg id="Capa_1" enable-background="new 0 0 512 512" height="512" viewBox="0 0 512 512" width="512" xmlns="http://www.w3.org/2000/svg"><g><path d="m442.605 59.415c-7.801 7.821-7.784 20.484.036 28.284 18.933 18.884 29.359 44.014 29.359 70.762s-10.426 51.878-29.358 70.762c-7.82 7.8-7.837 20.463-.036 28.284 7.799 7.821 20.464 7.836 28.284.037 26.51-26.443 41.11-61.631 41.11-99.083s-14.6-72.64-41.11-99.083c-7.821-7.799-20.484-7.784-28.285.037z"/><path d="m386.142 200.887c7.81 7.81 20.475 7.81 28.285 0 11.332-11.333 17.573-26.4 17.573-42.426s-6.241-31.094-17.573-42.426c-7.811-7.811-20.475-7.811-28.285 0s-7.81 20.474 0 28.284c3.778 3.778 5.858 8.8 5.858 14.142s-2.08 10.364-5.858 14.142c-7.81 7.811-7.81 20.474 0 28.284z"/><path d="m60 258.461h6.804l-25.639 128.192c-.773 3.868-1.165 7.841-1.165 11.808 0 33.084 26.916 60 60 60 28.506 0 53.249-20.267 58.834-48.189l14.362-71.811h26.804c11.046 0 20-8.954 20-20s-8.954-20-20-20h-43.2c-9.533 0-17.742 6.729-19.611 16.078l-17.577 87.888c-1.858 9.291-10.106 16.035-19.611 16.035-11.028 0-20-8.972-20-20 0-1.34.131-2.675.389-3.966l27.207-136.034h148.403c22.88 0 43.451-12.718 53.688-33.191l40-80c4.13-8.26 6.312-17.53 6.312-26.809 0-33.084-26.916-60-60-60h-236c-33.084 0-60 26.916-60 60v80c0 33.083 26.916 59.999 60 59.999zm-20-140c0-11.028 8.972-20 20-20h236c11.028 0 20 8.972 20 20 0 3.146-.703 6.147-2.09 8.92l-40 80c-3.417 6.833-10.279 11.079-17.91 11.079h-196c-11.028 0-20-8.972-20-20z"/><path d="m176 178.461h55.293c11.046 0 20-8.954 20-20s-8.954-20-20-20h-55.293c-11.046 0-20 8.954-20 20s8.954 20 20 20z"/></g></svg>