<svg id="Capa_1" enable-background="new 0 0 512 512" height="512" viewBox="0 0 512 512" width="512" xmlns="http://www.w3.org/2000/svg"><g id="Barcode_1_"><path d="m332 36h-28.399c-.036-.001-.071 0-.107 0h-183.494c-66.168 0-120 53.832-120 120 0 40.399 20.068 76.197 50.758 97.955l-47.688 143.064c-2.037 6.112-3.07 12.499-3.07 18.981 0 33.084 26.916 60 60 60h80c33.084 0 60-26.916 60-60 0-29.012-14.65-49.055-41.252-56.435-3.942-1.094-7.313-3.81-9.251-7.452-1.797-3.379-2.245-7.271-1.261-10.96 2.846-10.673-3.499-21.632-14.172-24.478-10.674-2.848-21.632 3.5-24.478 14.172-3.597 13.491-1.965 27.713 4.595 40.048 7.064 13.283 19.411 23.202 33.874 27.214 6.768 1.878 11.945 4.388 11.945 17.891 0 11.028-8.972 20-20 20h-80c-11.028 0-20-8.972-20-20 0-2.176.343-4.308 1.018-6.333l46.084-138.252c10.458 2.985 21.495 4.585 32.898 4.585h172c25.874 0 48.752-16.484 56.93-41.018l40-120.001c2.037-6.112 3.07-12.498 3.07-18.981 0-33.084-26.916-60-60-60zm-292 120c0-44.112 35.888-80 80-80h155.423l-53.333 160h-102.09c-44.112 0-80-35.888-80-80zm310.982-53.667-40 120c-2.725 8.175-10.353 13.667-18.982 13.667h-27.746l53.333-160h14.413c11.028 0 20 8.972 20 20 0 2.176-.343 4.308-1.018 6.333z"/><g><path d="m492 236h-73.502c-11.046 0-20-8.954-20-20s8.954-20 20-20h73.502c11.046 0 20 8.954 20 20s-8.954 20-20 20z"/></g><g><path d="m492 156h-46.836c-11.046 0-20-8.954-20-20s8.954-20 20-20h46.836c11.046 0 20 8.954 20 20s-8.954 20-20 20z"/></g></g></svg>