<svg id="Layer_1" enable-background="new 0 0 512 512" height="512" viewBox="0 0 512 512" width="512" xmlns="http://www.w3.org/2000/svg"><path d="m263 512h-143c-66.168 0-120-53.832-120-120v-272c0-66.168 53.832-120 120-120h272c66.168 0 120 53.832 120 120v74c0 11.046-8.954 20-20 20s-20-8.954-20-20v-74c0-44.112-35.888-80-80-80h-272c-44.112 0-80 35.888-80 80v272c0 44.112 35.888 80 80 80h143c11.046 0 20 8.954 20 20s-8.954 20-20 20zm180.563-20.841 18.743-18.642c30.653-30.487 49.694-73.275 49.694-111.667v-42.851c0-29.886-12.877-47.078-23.68-56.237-15.537-13.174-36.624-18.353-59.382-14.582-2.104.349-4.206.708-6.307 1.068-10.792 1.847-20.986 3.592-30.584 3.66-9.468.076-19.482-1.584-30.063-3.333-1.605-.265-3.21-.531-4.814-.79-20.877-3.374-42.068 2.528-58.128 16.199-15.915 13.548-25.042 33.281-25.042 54.139v35.048c0 45.089 17.648 87.474 49.693 119.346l18.743 18.643c13.94 13.865 32.252 20.798 50.563 20.798 18.314 0 36.625-6.933 50.564-20.799zm-51.232-199.251c22.669 0 41.114-4.929 43.148-5.266 10.968-1.819 20.548.181 26.973 5.628 7.892 6.691 9.548 17.685 9.548 25.729v42.851c0 27.707-14.877 60.407-37.9 83.307l-18.744 18.642c-12.325 12.26-32.383 12.262-44.712 0l-18.744-18.642c-24.44-24.309-37.9-56.622-37.9-90.986v-35.048c0-9.248 3.896-17.658 10.97-23.68 5.799-4.937 13.119-7.586 20.655-7.586 10.375 0 21.375 5.051 46.706 5.051zm39.669-162.908c0-11.046-8.954-20-20-20h-312c-11.046 0-20 8.954-20 20s8.954 20 20 20h312c11.046 0 20-8.954 20-20z"/></svg>