<svg id="Capa_1" enable-background="new 0 0 512 512" height="512" viewBox="0 0 512 512" width="512" xmlns="http://www.w3.org/2000/svg"><g id="Browser"><g><circle cx="100" cy="100" r="20"/></g><g><circle cx="180" cy="100" r="20"/></g><g><circle cx="260" cy="100" r="20"/></g><g><g><path d="m412 512h-312c-55.141 0-100-44.86-100-100v-312c0-55.14 44.859-100 100-100h312c55.141 0 100 44.86 100 100 0 11.046-8.954 20-20 20s-20-8.954-20-20c0-33.084-26.916-60-60-60h-312c-33.084 0-60 26.916-60 60v60h452c11.046 0 20 8.954 20 20v232c0 55.14-44.859 100-100 100zm-372-312v212c0 33.084 26.916 60 60 60h312c33.084 0 60-26.916 60-60v-212z"/></g><g><path d="m180 436h-40c-33.084 0-60-26.916-60-60v-80c0-33.084 26.916-60 60-60h40c33.084 0 60 26.916 60 60v80c0 33.084-26.916 60-60 60zm-40-160c-11.028 0-20 8.972-20 20v80c0 11.028 8.972 20 20 20h40c11.028 0 20-8.972 20-20v-80c0-11.028-8.972-20-20-20z"/></g><g><path d="m412 276h-112c-11.046 0-20-8.954-20-20s8.954-20 20-20h112c11.046 0 20 8.954 20 20s-8.954 20-20 20z"/></g><g><path d="m412 356h-112c-11.046 0-20-8.954-20-20s8.954-20 20-20h112c11.046 0 20 8.954 20 20s-8.954 20-20 20z"/></g><g><path d="m412 436h-112c-11.046 0-20-8.954-20-20s8.954-20 20-20h112c11.046 0 20 8.954 20 20s-8.954 20-20 20z"/></g></g></g></svg>