<svg id="Capa_1" enable-background="new 0 0 512 512" height="512" viewBox="0 0 512 512" width="512" xmlns="http://www.w3.org/2000/svg"><g><path d="m121.856 310.142c7.811 7.811 20.474 7.811 28.284 0 7.811-7.811 7.811-20.474 0-28.284l-25.858-25.858 25.858-25.858c7.811-7.811 7.811-20.474 0-28.284s-20.474-7.811-28.284 0l-40 40c-7.811 7.811-7.811 20.474 0 28.284z"/><path d="m281.855 310.142c7.81 7.81 20.475 7.81 28.285 0l40-40c7.811-7.811 7.811-20.474 0-28.284l-40-40c-7.811-7.811-20.475-7.811-28.285 0s-7.811 20.474 0 28.284l25.859 25.858-25.858 25.858c-7.811 7.81-7.811 20.474-.001 28.284z"/><path d="m191.147 355.403c10.715 2.68 21.574-3.837 24.253-14.552l40-160c2.679-10.716-3.836-21.575-14.552-24.254s-21.574 3.836-24.253 14.552l-40 160c-2.679 10.716 3.837 21.575 14.552 24.254z"/><path d="m491.998 140c-11.046 0-20 8.954-20 20v272c0 22.056-17.944 40-40 40h-272c-11.046 0-20 8.954-20 20s8.954 20 20 20h272c44.112 0 80-35.888 80-80v-272c0-11.046-8.954-20-20-20z"/><path d="m352.002 0h-272c-44.112 0-80 35.888-80 80v272c0 44.112 35.888 80 80 80h272c44.112 0 80-35.888 80-80v-272c0-44.112-35.888-80-80-80zm40 80h-192c-22.056 0-40-17.944-40-40h192c22.056 0 40 17.944 40 40zm-40 312h-272c-22.056 0-40-17.944-40-40v-272c0-22.056 17.944-40 40-40h40c0 44.112 35.888 80 80 80h192v232c0 22.056-17.944 40-40 40z"/></g></svg>