<svg id="Capa_1" enable-background="new 0 0 512 512" height="512" viewBox="0 0 512 512" width="512" xmlns="http://www.w3.org/2000/svg"><g><path d="m240 256c0-33.084-26.916-60-60-60s-60 26.916-60 60 26.916 60 60 60 60-26.916 60-60zm-60 20c-11.028 0-20-8.972-20-20s8.972-20 20-20 20 8.972 20 20-8.972 20-20 20z"/><path d="m260.023 436h-160c-15.263 0-24.909-16.462-17.447-29.778l27.623-49.29c14.148-25.248 40.903-40.932 69.824-40.932s55.676 15.685 69.824 40.933l27.623 49.289c7.462 13.316-2.184 29.778-17.447 29.778zm-125.865-40h91.73l-10.936-19.512c-7.081-12.638-20.465-20.488-34.929-20.488s-27.849 7.85-34.93 20.487v.001z"/><path d="m432 0h-352c-44.112 0-80 35.888-80 80v352c0 44.112 35.888 80 80 80h352c44.112 0 80-35.888 80-80v-212c0-11.046-8.954-20-20-20s-20 8.954-20 20v212c0 22.056-17.944 40-40 40h-352c-22.056 0-40-17.944-40-40v-352c0-22.056 17.944-40 40-40h32v40c0 44.112 35.888 80 80 80h300c11.046 0 20-8.954 20-20v-60c0-44.112-35.888-80-80-80zm40 120h-280c-22.056 0-40-17.944-40-40v-40h80v20c0 11.046 8.954 20 20 20s20-8.954 20-20v-20h40v20c0 11.046 8.954 20 20 20s20-8.954 20-20v-20h40v20c0 11.046 8.954 20 20 20s20-8.954 20-20v-20c22.056 0 40 17.944 40 40z"/><path d="m412 236h-72c-11.046 0-20 8.954-20 20s8.954 20 20 20h72c11.046 0 20-8.954 20-20s-8.954-20-20-20z"/><path d="m412 316h-72c-11.046 0-20 8.954-20 20s8.954 20 20 20h72c11.046 0 20-8.954 20-20s-8.954-20-20-20z"/><path d="m412 396h-72c-11.046 0-20 8.954-20 20s8.954 20 20 20h72c11.046 0 20-8.954 20-20s-8.954-20-20-20z"/></g></svg>