<svg id="Capa_1" enable-background="new 0 0 512 512" height="512" viewBox="0 0 512 512" width="512" xmlns="http://www.w3.org/2000/svg"><g><path d="m140 436c33.084 0 60-26.916 60-60s-26.916-60-60-60-60 26.916-60 60 26.916 60 60 60zm0-80c11.028 0 20 8.972 20 20s-8.972 20-20 20-20-8.972-20-20 8.972-20 20-20z"/><path d="m80 512h272c44.112 0 80-35.888 80-80v-196c0-44.112-35.888-80-80-80h-272c-44.112 0-80 35.888-80 80v196c0 44.112 35.888 80 80 80zm80-316h192c22.056 0 40 17.944 40 40h-212c-11.028 0-20-8.972-20-20zm-120 40c0-22.056 17.944-40 40-40h40v20c0 33.084 26.916 60 60 60h212v156c0 22.056-17.944 40-40 40h-272c-22.056 0-40-17.944-40-40z"/><path d="m432 0h-276c-44.112 0-80 35.888-80 80v16c0 11.046 8.954 20 20 20s20-8.954 20-20v-16c0-22.056 17.944-40 40-40h40v20c0 33.084 26.916 60 60 60h216v156c0 11.046 8.954 20 20 20s20-8.954 20-20v-196c0-44.112-35.888-80-80-80zm-176 80c-11.028 0-20-8.972-20-20v-20h196c22.056 0 40 17.944 40 40z"/><path d="m252 356h80c11.046 0 20-8.954 20-20s-8.954-20-20-20h-80c-11.046 0-20 8.954-20 20s8.954 20 20 20z"/><path d="m252 436h80c11.046 0 20-8.954 20-20s-8.954-20-20-20h-80c-11.046 0-20 8.954-20 20s8.954 20 20 20z"/></g></svg>