<svg id="Capa_1" enable-background="new 0 0 512 512" height="512" viewBox="0 0 512 512" width="512" xmlns="http://www.w3.org/2000/svg"><g id="Browser_2_"><g><path d="m236 280h-20v-20c0-11.046-8.954-20-20-20s-20 8.954-20 20v20h-20c-11.046 0-20 8.954-20 20s8.954 20 20 20h20v92c0 11.046 8.954 20 20 20s20-8.954 20-20v-92h20c11.046 0 20-8.954 20-20s-8.954-20-20-20z"/><path d="m356 352h-20v-92c0-11.046-8.954-20-20-20s-20 8.954-20 20v92h-20c-11.046 0-20 8.954-20 20s8.954 20 20 20h20v20c0 11.046 8.954 20 20 20s20-8.954 20-20v-20h20c11.046 0 20-8.954 20-20s-8.954-20-20-20z"/></g><g><path d="m300 200c33.084 0 60-26.916 60-60 0-11.028 8.972-20 20-20h112c11.046 0 20-8.954 20-20v-40c0-33.084-26.916-60-60-60h-392c-33.084 0-60 26.916-60 60v392c0 33.084 26.916 60 60 60h392c33.084 0 60-26.916 60-60v-272c0-11.046-8.954-20-20-20s-20 8.954-20 20v272c0 11.028-8.972 20-20 20h-392c-11.028 0-20-8.972-20-20v-252zm-240-160h392c11.028 0 20 8.972 20 20v20h-92c-33.084 0-60 26.916-60 60 0 11.028-8.972 20-20 20h-260v-100c0-11.028 8.972-20 20-20z"/><circle cx="100" cy="100" r="20"/><circle cx="180" cy="100" r="20"/><circle cx="260" cy="100" r="20"/></g></g></svg>