<svg id="Capa_1" enable-background="new 0 0 512.009 512.009" height="512" viewBox="0 0 512.009 512.009" width="512" xmlns="http://www.w3.org/2000/svg"><g><path d="m20.004 336.002h96v20c0 7.199.547 14.272 1.601 21.181-47.552 6.058-88.314 35.525-111.266 81.428l-4.223 8.446c-4.94 9.879-.936 21.893 8.943 26.833s21.893.936 26.833-8.943l4.224-8.446c18.204-36.407 49.859-58.099 87.508-60.3 22.55 47.151 70.723 79.801 126.381 79.801s103.83-32.65 126.38-79.801c37.649 2.201 69.304 23.892 87.508 60.299l4.223 8.446c4.939 9.879 16.953 13.884 26.833 8.945s13.884-16.953 8.945-26.833l-4.223-8.446c-22.952-45.904-63.715-75.371-111.267-81.429 1.053-6.909 1.601-13.982 1.601-21.181v-20h96c11.046 0 20-8.954 20-20s-8.955-20-20-20l-116 .001c-11.046 0-20 8.954-20 20v39.999c0 55.14-44.859 100-100 100s-100-44.86-100-100v-140c0-22.056 17.944-40 40-40h120c22.056 0 40 17.944 40 40v20c0 11.045 8.955 20 20 20 55.328 0 103.801-30.882 129.666-82.61l4.223-8.446c4.939-9.88.935-21.893-8.945-26.833-9.879-4.939-21.893-.934-26.833 8.945l-4.223 8.445c-15.967 31.933-42.28 52.556-73.91 58.627-.667-28.953-16.805-54.135-40.439-67.632-3.029-31.595-21.063-60.67-49.662-77.19 6.388-9.535 10.122-20.992 10.122-33.306 0-11.046-8.954-20-20-20s-20 8.954-20 20c0 11.028-8.972 20-20 20s-20-8.972-20-20c0-11.046-8.954-20-20-20s-20 8.954-20 20c0 12.119 3.623 23.402 9.826 32.846-27.635 15.538-46.263 44.605-49.354 77.645-23.635 13.493-39.751 38.677-40.425 67.627-31.64-6.066-57.966-26.676-73.936-58.616l-4.223-8.446c-4.94-9.879-16.953-13.884-26.833-8.944-9.879 4.94-13.884 16.954-8.943 26.833l4.223 8.445c22.694 45.389 62.798 74.722 109.666 81.231v41.379h-96c-11.046 0-20 8.954-20 20s8.954 20 19.999 20zm292.532-200h-113.257c13.513-40.417 52.905-40.023 57.73-39.941 32.615.551 49.973 24.28 55.527 39.941z"/><path d="m256.004 216.002c-11.046 0-20 8.954-20 20v160c0 11.046 8.954 20 20 20s20-8.954 20-20v-160c0-11.045-8.954-20-20-20z"/></g></svg>