<svg id="Capa_1" enable-background="new 0 0 512 512" height="512" viewBox="0 0 512 512" width="512" xmlns="http://www.w3.org/2000/svg"><g id="Bug"><g><path d="m216 356c-33.084 0-60-26.916-60-60v-40c0-33.084 26.916-60 60-60s60 26.916 60 60v40c0 33.084-26.916 60-60 60zm0-120c-11.028 0-20 8.972-20 20v40c0 11.028 8.972 20 20 20s20-8.972 20-20v-40c0-11.028-8.972-20-20-20z"/></g><g><path d="m20 0c-11.046 0-20 8.954-20 20v120c0 11.046 8.954 20 20 20s20-8.954 20-20v-120c0-11.046-8.954-20-20-20z"/><path d="m276 20c0-11.046-8.954-20-20-20s-20 8.954-20 20v120c0 11.046 8.954 20 20 20s20-8.954 20-20z"/><path d="m20 196c-11.046 0-20 8.954-20 20v120c0 11.046 8.954 20 20 20s20-8.954 20-20v-120c0-11.046-8.954-20-20-20z"/><path d="m96 196c-11.046 0-20 8.954-20 20v120c0 11.046 8.954 20 20 20s20-8.954 20-20v-120c0-11.046-8.954-20-20-20z"/><path d="m336 160c11.046 0 20-8.954 20-20v-120c0-11.046-8.954-20-20-20s-20 8.954-20 20v120c0 11.046 8.954 20 20 20z"/><path d="m136 0c-33.084 0-60 26.916-60 60v40c0 33.084 26.916 60 60 60s60-26.916 60-60v-40c0-33.084-26.916-60-60-60zm20 100c0 11.028-8.972 20-20 20s-20-8.972-20-20v-40c0-11.028 8.972-20 20-20s20 8.972 20 20z"/><path d="m452 0c-33.084 0-60 26.916-60 60v40c0 33.084 26.916 60 60 60s60-26.916 60-60v-40c0-33.084-26.916-60-60-60zm20 100c0 11.028-8.972 20-20 20s-20-8.972-20-20v-40c0-11.028 8.972-20 20-20s20 8.972 20 20z"/><path d="m492 392c11.046 0 20-8.954 20-20s-8.954-20-20-20h-23.44c-4.499-12.685-13.15-23.412-24.311-30.557 4.925-8.705 7.751-18.748 7.751-29.443 0-19.523-9.377-36.893-23.859-47.856l18.001-18.001c7.811-7.811 7.811-20.474 0-28.284s-20.474-7.811-28.284 0l-25.858 25.857-25.858-25.858c-7.811-7.811-20.474-7.811-28.284 0s-7.811 20.474 0 28.284l18.001 18.001c-14.482 10.964-23.859 28.334-23.859 47.857 0 10.695 2.826 20.738 7.751 29.443-11.162 7.145-19.812 17.873-24.311 30.557h-23.44c-11.046 0-20 8.954-20 20s8.954 20 20 20h20v40h-20c-11.046 0-20 8.954-20 20s8.954 20 20 20h30.763c13.854 23.888 39.691 40 69.237 40s55.383-16.112 69.237-40h30.763c11.046 0 20-8.954 20-20s-8.954-20-20-20h-20v-40zm-120-100c0-11.028 8.972-20 20-20s20 8.972 20 20-8.972 20-20 20-20-8.972-20-20zm20 180c-22.056 0-40-17.944-40-40v-60c0-11.028 8.972-20 20-20h40c11.028 0 20 8.972 20 20v60c0 22.056-17.944 40-40 40z"/></g></g></svg>