<svg id="Capa_1" enable-background="new 0 0 512 512" height="512" viewBox="0 0 512 512" width="512" xmlns="http://www.w3.org/2000/svg"><g><path d="m190.142 201.858c-7.811-7.811-20.474-7.811-28.284 0l-40 40c-7.811 7.811-7.811 20.474 0 28.284l40 40c3.905 3.905 9.023 5.858 14.142 5.858s10.237-1.953 14.142-5.858c7.811-7.811 7.811-20.474 0-28.284l-25.858-25.858 25.858-25.858c7.811-7.81 7.811-20.474 0-28.284z"/><path d="m321.858 310.142c3.905 3.905 9.023 5.858 14.142 5.858s10.237-1.953 14.142-5.858l40-40c7.811-7.811 7.811-20.474 0-28.284l-40-40c-7.811-7.811-20.474-7.811-28.284 0-7.811 7.81-7.811 20.474 0 28.284l25.858 25.858-25.858 25.858c-7.811 7.81-7.811 20.474 0 28.284z"/><path d="m256 80c11.046 0 20-8.954 20-20v-40c0-11.046-8.954-20-20-20s-20 8.954-20 20v40c0 11.046 8.954 20 20 20z"/><path d="m492 276c11.046 0 20-8.954 20-20s-8.954-20-20-20h-20v-40h20c11.046 0 20-8.954 20-20s-8.954-20-20-20h-20v-16c0-55.14-44.86-100-100-100h-16v-20c0-11.046-8.954-20-20-20s-20 8.954-20 20v40c0 11.046 8.954 20 20 20h36c33.084 0 60 26.916 60 60v232c0 33.084-26.916 60-60 60h-232c-33.084 0-60-26.916-60-60v-232c0-33.084 26.916-60 60-60h36c3.452 0 6.699-.874 9.533-2.414 6.235-3.387 10.467-9.992 10.467-17.586v-40c0-11.046-8.954-20-20-20s-20 8.954-20 20v20h-16c-55.14 0-100 44.86-100 100v16h-20c-11.046 0-20 8.954-20 20s8.954 20 20 20h20v40h-20c-11.046 0-20 8.954-20 20s8.954 20 20 20h20v40h-20c-11.046 0-20 8.954-20 20s8.954 20 20 20h20v16c0 55.14 44.86 100 100 100h16v20c0 11.046 8.954 20 20 20s20-8.954 20-20v-20h40v20c0 11.046 8.954 20 20 20s20-8.954 20-20v-20h40v20c0 11.046 8.954 20 20 20s20-8.954 20-20v-20h16c55.14 0 100-44.86 100-100v-16h20c11.046 0 20-8.954 20-20s-8.954-20-20-20h-20v-40z"/><path d="m231.149 355.403c1.628.407 3.26.602 4.866.602 8.961 0 17.116-6.067 19.388-15.154l40-160c2.679-10.716-3.836-21.575-14.552-24.254-10.715-2.679-21.574 3.836-24.253 14.552l-40 160c-2.68 10.716 3.836 21.575 14.551 24.254z"/></g></svg>