<svg id="Capa_1" enable-background="new 0 0 512.004 512.004" height="512" viewBox="0 0 512.004 512.004" width="512" xmlns="http://www.w3.org/2000/svg"><g><path d="m256.002 292.004c0 11.046 8.954 20 20 20s20-8.954 20-20c0-55.14-44.859-100-100-100h-20v-12c0-33.084-26.916-60-60-60h-40c-11.028 0-20-8.972-20-20s8.972-20 20-20h40c33.084 0 60-26.916 60-60 0-11.046-8.954-20-20-20s-20 8.954-20 20c0 11.028-8.972 20-20 20h-40c-33.084 0-60 26.916-60 60s26.916 60 60 60h40c11.028 0 20 8.972 20 20v12h-20c-55.141 0-100 44.86-100 100v80c0 77.196 62.804 140 140 140s140-62.804 140-140c0-11.046-8.954-20-20-20s-20 8.954-20 20c0 55.14-44.859 100-100 100s-100-44.86-100-100v-80c0-33.084 26.916-60 60-60h80c33.084 0 60 26.916 60 60z"/><path d="m136.002 292.004v40c0 11.046 8.954 20 20 20s20-8.954 20-20v-40c0-11.046-8.954-20-20-20s-20 8.955-20 20z"/><path d="m290.144 45.862c-7.811-7.811-20.475-7.811-28.285 0l-40 40c-7.811 7.811-7.811 20.474 0 28.284l40 40c3.905 3.905 9.024 5.858 14.143 5.858s10.237-1.953 14.143-5.858c7.811-7.811 7.811-20.474 0-28.284l-25.858-25.858 25.858-25.858c7.81-7.81 7.81-20.473-.001-28.284z"/><path d="m490.144 85.862-40-40c-7.811-7.811-20.475-7.811-28.285 0s-7.811 20.474 0 28.284l25.858 25.858-25.858 25.858c-7.811 7.811-7.811 20.474 0 28.284 3.905 3.905 9.024 5.858 14.143 5.858s10.237-1.953 14.143-5.858l40-40c7.81-7.81 7.81-20.473-.001-28.284z"/><path d="m380.97.631c-10.703-2.742-21.598 3.705-24.341 14.406l-40 156c-2.744 10.7 3.706 21.597 14.405 24.341 1.667.427 3.337.632 4.982.632 8.914 0 17.042-6.004 19.358-15.037l40-156c2.745-10.701-3.705-21.599-14.404-24.342z"/></g></svg>