<svg id="Capa_1" enable-background="new 0 0 512 512" height="512" viewBox="0 0 512 512" width="512" xmlns="http://www.w3.org/2000/svg"><g id="Computer"><g><path d="m376 236c-33.084 0-60-26.916-60-60s26.916-60 60-60 60 26.916 60 60-26.916 60-60 60zm0-80c-11.028 0-20 8.972-20 20s8.972 20 20 20 20-8.972 20-20-8.972-20-20-20z"/></g><g><path d="m218.426 150.142c-23.395-23.393-61.459-23.393-84.853 0l-51.716 51.716c-7.811 7.811-7.811 20.474 0 28.284s20.474 7.811 28.284 0l51.716-51.715c7.798-7.798 20.487-7.798 28.284 0l102.019 102.018c7.81 7.81 20.474 7.811 28.285 0 7.81-7.811 7.81-20.474 0-28.284z"/><path d="m412 0h-312c-55.14 0-100 44.86-100 100v192c0 55.14 44.86 100 100 100h312c55.141 0 100-44.86 100-100v-192c0-55.14-44.859-100-100-100zm60 292c0 33.084-26.916 60-60 60h-312c-33.084 0-60-26.916-60-60v-192c0-33.084 26.916-60 60-60h312c33.084 0 60 26.916 60 60z"/><path d="m376 472h-21.993c-1.835-9.171-4.959-18.474-9.493-28.347-4.609-10.037-16.483-14.438-26.521-9.828-10.038 4.609-14.438 16.484-9.828 26.521 1.882 4.099 3.394 7.948 4.576 11.653h-113.481c1.182-3.706 2.694-7.555 4.576-11.654 4.609-10.038.208-21.912-9.83-26.521-10.038-4.608-21.912-.208-26.521 9.83-4.533 9.873-7.656 19.175-9.491 28.346h-21.994c-11.046 0-20 8.954-20 20s8.954 20 20 20h240c11.046 0 20-8.954 20-20s-8.954-20-20-20z"/></g></g></svg>