<svg id="Capa_1" enable-background="new 0 0 512 512" height="512" viewBox="0 0 512 512" width="512" xmlns="http://www.w3.org/2000/svg"><g id="Computer"><g><path d="m296 240h-80c-11.046 0-20-8.954-20-20s8.954-20 20-20h80c11.046 0 20 8.954 20 20s-8.954 20-20 20z"/></g><g><path d="m176 352h160c33.084 0 60-26.916 60-60v-152c0-4.918-1.839-10.02-5.86-14.145l-120.01-120.009c-3.73-3.72-8.896-5.846-14.13-5.846h-80c-33.084 0-60 26.916-60 60v232c0 33.084 26.916 60 60 60zm100-283.716 51.716 51.716h-31.716c-11.028 0-20-8.972-20-20zm-120-8.284c0-11.028 8.972-20 20-20h60v60c0 33.084 26.916 60 60 60h60v132c0 11.028-8.972 20-20 20h-160c-11.028 0-20-8.972-20-20z"/><path d="m452 120c-11.046 0-20 8.954-20 20s8.954 20 20 20c11.028 0 20 8.972 20 20v192c0 11.028-8.972 20-20 20h-392c-11.028 0-20-8.972-20-20v-192c0-11.028 8.972-20 20-20 11.046 0 20-8.954 20-20s-8.954-20-20-20c-33.084 0-60 26.916-60 60v192c0 33.084 26.916 60 60 60h176v40h-60c-11.046 0-20 8.954-20 20s8.954 20 20 20h160c11.046 0 20-8.954 20-20s-8.954-20-20-20h-60v-40h176c33.084 0 60-26.916 60-60v-192c0-33.084-26.916-60-60-60z"/></g></g></svg>