<svg id="Capa_1" enable-background="new 0 0 512 512" height="512" viewBox="0 0 512 512" width="512" xmlns="http://www.w3.org/2000/svg"><g><path d="m412 0h-312c-55.141 0-100 44.86-100 100v200c0 55.14 44.859 100 100 100h87.62l-25.714 72h-25.906c-11.046 0-20 8.954-20 20s8.954 20 20 20h240c11.046 0 20-8.954 20-20s-8.954-20-20-20h-25.906l-35.26-98.727c-2.842-7.96-10.382-13.273-18.834-13.273h-196c-33.084 0-60-26.916-60-60v-200c0-33.084 26.916-60 60-60h312c33.084 0 60 26.916 60 60v200c0 33.084-26.916 60-60 60h-36c-11.046 0-20 8.954-20 20s8.954 20 20 20h36c55.141 0 100-44.86 100-100v-200c0-55.14-44.859-100-100-100zm-104.38 472h-103.24l25.714-72h51.811z"/><path d="m396 140c0-11.046-8.954-20-20-20h-160c-8.608 0-16.251 5.509-18.974 13.676l-24.731 74.193-18.406-36.813c-4.939-9.879-16.95-13.884-26.833-8.944-9.88 4.94-13.884 16.953-8.944 26.833l40 80c3.604 7.207 11.201 11.578 19.307 11.005 8.068-.573 14.998-5.951 17.556-13.625l35.44-106.325h145.585c11.046 0 20-8.954 20-20z"/><path d="m253.573 282.426c7.81 7.81 20.475 7.81 28.285 0l14.142-14.141 14.142 14.142c7.81 7.81 20.475 7.81 28.285 0 7.81-7.811 7.81-20.474 0-28.284l-14.142-14.143 14.142-14.142c7.81-7.811 7.81-20.474 0-28.284-7.811-7.811-20.475-7.811-28.285 0l-14.142 14.141-14.142-14.142c-7.811-7.811-20.475-7.811-28.285 0s-7.81 20.474 0 28.284l14.142 14.143-14.142 14.142c-7.809 7.811-7.809 20.474 0 28.284z"/></g></svg>