<svg id="Capa_1" enable-background="new 0 0 512 512" height="512" viewBox="0 0 512 512" width="512" xmlns="http://www.w3.org/2000/svg"><g id="Computer"><g><circle cx="256" cy="252" r="20"/></g><path d="m452 0h-392c-33.084 0-60 26.916-60 60v232c0 33.084 26.916 60 60 60h128.682l-33.609 106.055c-2.644 8.341-10.308 13.945-19.073 13.945h-20c-11.046 0-20 8.954-20 20s8.954 20 20 20h280c11.046 0 20-8.954 20-20s-8.954-20-20-20h-20c-8.765 0-16.43-5.604-19.072-13.945l-16.51-52.097c-3.337-10.529-14.574-16.362-25.107-13.023-10.529 3.337-16.36 14.578-13.023 25.107 0 0 16.924 53.341 17.141 53.958h-126.856c.217-.616.432-1.234.631-1.861l37.438-118.139h221.358c33.084 0 60-26.916 60-60v-232c0-33.084-26.916-60-60-60zm20 292c0 11.028-8.972 20-20 20h-392c-11.028 0-20-8.972-20-20v-232c0-11.028 8.972-20 20-20h392c11.028 0 20 8.972 20 20z"/></g></svg>