<svg id="Capa_1" enable-background="new 0 0 512 512" height="512" viewBox="0 0 512 512" width="512" xmlns="http://www.w3.org/2000/svg"><g><path d="m340 156h72c11.046 0 20-8.954 20-20s-8.954-20-20-20h-72c-11.046 0-20 8.954-20 20s8.954 20 20 20z"/><path d="m340 236h72c11.046 0 20-8.954 20-20s-8.954-20-20-20h-72c-11.046 0-20 8.954-20 20s8.954 20 20 20z"/><path d="m340 316h72c11.046 0 20-8.954 20-20s-8.954-20-20-20h-72c-11.046 0-20 8.954-20 20s8.954 20 20 20z"/><path d="m452 0h-392c-33.084 0-60 26.916-60 60v316c0 33.084 26.916 60 60 60h176v36h-60c-11.046 0-20 8.954-20 20s8.954 20 20 20h160c11.046 0 20-8.954 20-20s-8.954-20-20-20h-60v-56c0-11.046-8.955-20-20-20h-196c-11.028 0-20-8.972-20-20v-316c0-11.028 8.972-20 20-20h392c11.028 0 20 8.972 20 20v316c0 11.028-8.972 20-20 20h-116c-11.046 0-20 8.954-20 20s8.954 20 20 20h116c33.084 0 60-26.916 60-60v-316c0-33.084-26.916-60-60-60z"/><path d="m270 167.131c9.566-5.523 12.843-17.755 7.32-27.321-5.524-9.566-17.755-12.843-27.321-7.32l-10 5.773-40-23.096v-19.167c0-11.046-8.954-20-20-20s-20 8.954-20 20v19.168l-40 23.096-10-5.773c-9.566-5.522-21.798-2.247-27.321 7.32-5.523 9.565-2.246 21.797 7.32 27.321l10 5.774v46.186l-10 5.774c-9.566 5.523-12.843 17.755-7.32 27.321 5.524 9.567 17.753 12.844 27.321 7.32l10-5.773 40 23.096v19.17c0 11.046 8.954 20 20 20s20-8.954 20-20v-19.171l40-23.096 10 5.773c9.567 5.523 21.797 2.246 27.321-7.32 5.523-9.565 2.246-21.797-7.32-27.321l-10-5.774v-46.186zm-50 51.961-40 23.096-40-23.096v-46.187l40-23.096 40 23.096z"/></g></svg>