<svg id="Capa_1" enable-background="new 0 0 512 512" height="512" viewBox="0 0 512 512" width="512" xmlns="http://www.w3.org/2000/svg"><g id="Computer"><g><path d="m372 296h-76c-33.084 0-60-26.916-60-60v-80c0-33.084 26.916-60 60-60h76c33.084 0 60 26.916 60 60v80c0 33.084-26.916 60-60 60zm-76-160c-11.028 0-20 8.972-20 20v80c0 11.028 8.972 20 20 20h76c11.028 0 20-8.972 20-20v-80c0-11.028-8.972-20-20-20z"/></g><g><path d="m176 176h-76c-11.046 0-20 8.954-20 20s8.954 20 20 20h76c11.046 0 20-8.954 20-20s-8.954-20-20-20z"/><path d="m176 96h-76c-11.046 0-20 8.954-20 20s8.954 20 20 20h76c11.046 0 20-8.954 20-20s-8.954-20-20-20z"/><path d="m176 256h-76c-11.046 0-20 8.954-20 20s8.954 20 20 20h76c11.046 0 20-8.954 20-20s-8.954-20-20-20z"/><path d="m452 16h-392c-33.084 0-60 26.916-60 60v240c0 33.084 26.916 60 60 60h136v20c0 33.084-26.916 60-60 60h-40c-11.046 0-20 8.954-20 20s8.954 20 20 20h320c11.046 0 20-8.954 20-20s-8.954-20-20-20h-40c-33.084 0-60-26.916-60-60v-40c0-11.046-8.954-20-20-20h-236c-11.028 0-20-8.972-20-20v-240c0-11.028 8.972-20 20-20h392c11.028 0 20 8.972 20 20v240c0 11.028-8.972 20-20 20h-76c-11.046 0-20 8.954-20 20s8.954 20 20 20h76c33.084 0 60-26.916 60-60v-240c0-33.084-26.916-60-60-60zm-236.051 440c12.583-16.725 20.051-37.506 20.051-60v-20h40v20c0 22.494 7.468 43.275 20.051 60z"/></g></g></svg>