<svg id="Capa_1" enable-background="new 0 0 512 512" height="512" viewBox="0 0 512 512" width="512" xmlns="http://www.w3.org/2000/svg"><g id="Computer"><path d="m412 0h-312c-55.141 0-100 44.86-100 100v200c0 55.14 44.859 100 100 100h136v72h-60c-11.046 0-20 8.954-20 20s8.954 20 20 20h160c11.046 0 20-8.954 20-20s-8.954-20-20-20h-60v-92c0-11.046-8.954-20-20-20h-156c-33.084 0-60-26.916-60-60v-200c0-33.084 26.916-60 60-60h312c33.084 0 60 26.916 60 60v200c0 33.084-26.916 60-60 60h-76c-11.046 0-20 8.954-20 20s8.954 20 20 20h76c55.141 0 100-44.86 100-100v-200c0-55.14-44.859-100-100-100z"/><g><path d="m256 280h-116c-11.028 0-20-8.972-20-20v-160c0-11.046-8.954-20-20-20s-20 8.954-20 20v160c0 33.084 26.916 60 60 60h116c11.046 0 20-8.954 20-20s-8.954-20-20-20z"/><path d="m372 80h-196c-11.046 0-20 8.954-20 20s8.954 20 20 20h20v80h-20c-11.046 0-20 8.954-20 20s8.954 20 20 20h80c11.046 0 20-8.954 20-20s-8.954-20-20-20h-20v-80h136c11.028 0 20 8.972 20 20v20h-56c-11.046 0-20 8.954-20 20s8.954 20 20 20h56v60c0 11.028-8.972 20-20 20h-36c-11.046 0-20 8.954-20 20s8.954 20 20 20h36c33.084 0 60-26.916 60-60v-120c0-33.084-26.916-60-60-60z"/></g></g></svg>