<svg id="Capa_1" enable-background="new 0 0 512 512" height="512" viewBox="0 0 512 512" width="512" xmlns="http://www.w3.org/2000/svg"><g id="Computer"><g><path d="m196 196h-20v-20c0-11.046-8.954-20-20-20s-20 8.954-20 20v20h-20c-11.046 0-20 8.954-20 20s8.954 20 20 20h20v100c0 11.046 8.954 20 20 20s20-8.954 20-20v-100h20c11.046 0 20-8.954 20-20s-8.954-20-20-20z"/><path d="m316 276h-20v-100c0-11.046-8.954-20-20-20s-20 8.954-20 20v100h-20c-11.046 0-20 8.954-20 20s8.954 20 20 20h20v20c0 11.046 8.954 20 20 20s20-8.954 20-20v-20h20c11.046 0 20-8.954 20-20s-8.954-20-20-20z"/></g><path d="m452 0h-80c-33.084 0-60 26.916-60 60v16h-252c-33.084 0-60 26.916-60 60v240c0 33.084 26.916 60 60 60h136v36h-20c-11.046 0-20 8.954-20 20s8.954 20 20 20h80c11.046 0 20-8.954 20-20s-8.954-20-20-20h-20v-36h16c11.046 0 20-8.954 20-20s-8.954-20-20-20h-192c-11.028 0-20-8.972-20-20v-240c0-11.028 8.972-20 20-20h312c11.028 0 20 8.972 20 20v240c0 11.028-8.972 20-20 20h-40c-11.046 0-20 8.954-20 20v36c0 33.084 26.916 60 60 60h80c33.084 0 60-26.916 60-60v-392c0-33.084-26.916-60-60-60zm20 452c0 11.028-8.972 20-20 20h-80c-11.028 0-20-8.972-20-20v-16h20c33.084 0 60-26.916 60-60v-240c0-33.084-26.916-60-60-60h-20v-16c0-11.028 8.972-20 20-20h80c11.028 0 20 8.972 20 20z"/></g></svg>