<svg id="Capa_1" enable-background="new 0 0 512 512" height="512" viewBox="0 0 512 512" width="512" xmlns="http://www.w3.org/2000/svg"><g id="Cpu_Tower"><g><path d="m376 512h-240c-33.084 0-60-26.916-60-60v-392c0-33.084 26.916-60 60-60h240c33.084 0 60 26.916 60 60v392c0 33.084-26.916 60-60 60zm-240-472c-11.028 0-20 8.972-20 20v392c0 11.028 8.972 20 20 20h240c11.028 0 20-8.972 20-20v-392c0-11.028-8.972-20-20-20z"/></g><g><path d="m256 432c-55.14 0-100-44.86-100-100 0-12.979 2.464-25.636 7.324-37.62 4.151-10.235 15.813-15.168 26.05-11.018 10.236 4.151 15.169 15.814 11.018 26.05-2.914 7.187-4.392 14.786-4.392 22.588 0 33.084 26.916 60 60 60s60-26.916 60-60c0-7.803-1.478-15.402-4.392-22.588-4.15-10.236.782-21.899 11.019-26.05 10.236-4.15 21.898.783 26.05 11.018 4.859 11.983 7.323 24.641 7.323 37.62 0 55.14-44.859 100-100 100z"/></g><g><path d="m256 352c-11.046 0-20-8.954-20-20v-72c0-11.046 8.954-20 20-20s20 8.954 20 20v72c0 11.046-8.954 20-20 20z"/></g><g><path d="m336 200h-160c-11.046 0-20-8.954-20-20v-80c0-11.046 8.954-20 20-20h160c11.046 0 20 8.954 20 20v80c0 11.046-8.954 20-20 20zm-140-40h120v-40h-120z"/></g></g></svg>