<svg id="Capa_1" enable-background="new 0 0 512 512" height="512" viewBox="0 0 512 512" width="512" xmlns="http://www.w3.org/2000/svg"><g id="Cpu_1_"><g><path d="m336 120h-160c-11.046 0-20-8.954-20-20s8.954-20 20-20h160c11.046 0 20 8.954 20 20s-8.954 20-20 20z"/></g><g><path d="m336 200h-160c-11.046 0-20-8.954-20-20s8.954-20 20-20h160c11.046 0 20 8.954 20 20s-8.954 20-20 20z"/></g><g><path d="m376 0h-240c-33.084 0-60 26.916-60 60v352c0 26.073 16.722 48.303 40 56.56v23.44c0 11.046 8.954 20 20 20s20-8.954 20-20v-20h140c11.046 0 20-8.954 20-20s-8.954-20-20-20h-160c-11.028 0-20-8.972-20-20v-352c0-11.028 8.972-20 20-20h240c11.028 0 20 8.972 20 20v352c0 11.028-8.972 20-20 20-11.046 0-20 8.954-20 20v40c0 11.046 8.954 20 20 20s20-8.954 20-20v-23.44c23.278-8.256 40-30.487 40-56.56v-352c0-33.084-26.916-60-60-60z"/><path d="m336 312h-23.44c-8.256-23.278-30.487-40-56.56-40s-48.303 16.722-56.56 40h-23.44c-11.046 0-20 8.954-20 20s8.954 20 20 20h23.44c8.256 23.278 30.487 40 56.56 40s48.303-16.722 56.56-40h23.44c11.046 0 20-8.954 20-20s-8.954-20-20-20zm-80 40c-11.028 0-20-8.972-20-20s8.972-20 20-20 20 8.972 20 20-8.972 20-20 20z"/></g></g></svg>