<svg id="Capa_1" enable-background="new 0 0 512 512" height="512" viewBox="0 0 512 512" width="512" xmlns="http://www.w3.org/2000/svg"><g id="Cpu_3_"><g><path d="m236 196h-20v-20c0-11.046-8.954-20-20-20s-20 8.954-20 20v20h-20c-11.046 0-20 8.954-20 20s8.954 20 20 20h20v100c0 11.046 8.954 20 20 20s20-8.954 20-20v-100h20c11.046 0 20-8.954 20-20s-8.954-20-20-20z"/><path d="m356 276h-20v-100c0-11.046-8.954-20-20-20s-20 8.954-20 20v100h-20c-11.046 0-20 8.954-20 20s8.954 20 20 20h20v20c0 11.046 8.954 20 20 20s20-8.954 20-20v-20h20c11.046 0 20-8.954 20-20s-8.954-20-20-20z"/></g><path d="m492 276c11.046 0 20-8.954 20-20s-8.954-20-20-20h-56c-11.046 0-20 8.954-20 20v140c0 11.028-8.972 20-20 20h-280c-11.028 0-20-8.972-20-20v-280c0-11.028 8.972-20 20-20h280c11.028 0 20 8.972 20 20v60c0 11.046 8.954 20 20 20h56c11.046 0 20-8.954 20-20s-8.954-20-20-20h-36v-40c0-33.084-26.916-60-60-60h-40v-36c0-11.046-8.954-20-20-20s-20 8.954-20 20v36h-40v-36c0-11.046-8.954-20-20-20s-20 8.954-20 20v36h-40v-36c0-11.046-8.954-20-20-20s-20 8.954-20 20v36h-40c-33.084 0-60 26.916-60 60v40h-36c-11.046 0-20 8.954-20 20s8.954 20 20 20h36v40h-36c-11.046 0-20 8.954-20 20s8.954 20 20 20h36v40h-36c-11.046 0-20 8.954-20 20s8.954 20 20 20h36v40c0 33.084 26.916 60 60 60h40v36c0 11.046 8.954 20 20 20s20-8.954 20-20v-36h40v36c0 11.046 8.954 20 20 20s20-8.954 20-20v-36h40v36c0 11.046 8.954 20 20 20s20-8.954 20-20v-36h40c33.084 0 60-26.916 60-60v-40h36c11.046 0 20-8.954 20-20s-8.954-20-20-20h-36v-40z"/></g></svg>