<svg id="Capa_1" enable-background="new 0 0 512 512" height="512" viewBox="0 0 512 512" width="512" xmlns="http://www.w3.org/2000/svg"><g id="Cpu"><g><circle cx="216" cy="216" r="20"/></g><g><circle cx="296" cy="216" r="20"/></g><g><circle cx="296" cy="296" r="20"/></g><g><circle cx="216" cy="296" r="20"/></g><path d="m452 316h-76c-11.046 0-20 8.954-20 20 0 11.028-8.972 20-20 20h-160c-11.028 0-20-8.972-20-20v-160c0-11.028 8.972-20 20-20h160c11.028 0 20 8.972 20 20v80c0 11.046 8.954 20 20 20h76c11.046 0 20-8.954 20-20s-8.954-20-20-20h-56v-40h56c33.084 0 60-26.916 60-60 0-11.046-8.954-20-20-20s-20 8.954-20 20c0 11.028-8.972 20-20 20h-59.427c-6.035-17.022-19.552-30.525-36.573-36.562v-59.438c0-11.028 8.972-20 20-20 11.046 0 20-8.954 20-20s-8.954-20-20-20c-33.084 0-60 26.916-60 60v56h-40v-56c0-11.046-8.954-20-20-20s-20 8.954-20 20v56h-40v-56c0-33.084-26.916-60-60-60-11.046 0-20 8.954-20 20s8.954 20 20 20c11.028 0 20 8.972 20 20v59.44c-17.018 6.036-30.524 19.541-36.56 36.56h-59.44c-11.028 0-20-8.972-20-20 0-11.046-8.954-20-20-20s-20 8.954-20 20c0 33.084 26.916 60 60 60h56v40h-56c-11.046 0-20 8.954-20 20s8.954 20 20 20h56v40h-56c-33.084 0-60 26.916-60 60 0 11.046 8.954 20 20 20s20-8.954 20-20c0-11.028 8.972-20 20-20h59.44c6.036 17.018 19.541 30.524 36.56 36.56v59.44c0 11.028-8.972 20-20 20-11.046 0-20 8.954-20 20s8.954 20 20 20c33.084 0 60-26.916 60-60v-56h40v56c0 11.046 8.954 20 20 20s20-8.954 20-20v-56h40v56c0 33.084 26.916 60 60 60 11.046 0 20-8.954 20-20s-8.954-20-20-20c-11.028 0-20-8.972-20-20v-59.438c17.021-6.036 30.538-19.54 36.573-36.562h59.427c11.028 0 20 8.972 20 20 0 11.046 8.954 20 20 20s20-8.954 20-20c0-33.084-26.916-60-60-60z"/></g></svg>