<svg id="Capa_1" enable-background="new 0 0 512 512" height="512" viewBox="0 0 512 512" width="512" xmlns="http://www.w3.org/2000/svg"><g id="Cpu"><path d="m356 216c0-33.084-26.916-60-60-60h-20v-20c0-11.046-8.954-20-20-20s-20 8.954-20 20v20h-60c-11.046 0-20 8.954-20 20s8.954 20 20 20h20v120h-20c-11.046 0-20 8.954-20 20s8.954 20 20 20h60v20c0 11.046 8.954 20 20 20s20-8.954 20-20v-20h20c33.084 0 60-26.916 60-60 0-15.356-5.805-29.376-15.327-40 9.522-10.624 15.327-24.644 15.327-40zm-40 0c0 11.028-8.972 20-20 20h-60v-40h60c11.028 0 20 8.972 20 20zm-20 100h-60v-40h60c11.028 0 20 8.972 20 20s-8.972 20-20 20z"/><g><path d="m492 356h-16v-20c0-11.046-8.954-20-20-20s-20 8.954-20 20v40c0 33.084-26.916 60-60 60h-240c-33.084 0-60-26.916-60-60v-240c0-33.084 26.916-60 60-60h240c33.084 0 60 26.916 60 60v40c0 11.046 8.954 20 20 20s20-8.954 20-20v-20h16c11.046 0 20-8.954 20-20s-8.954-20-20-20h-18.011c-7.973-39.125-38.863-70.016-77.989-77.989v-18.011c0-11.046-8.954-20-20-20s-20 8.954-20 20v16h-80v-16c0-11.046-8.954-20-20-20s-20 8.954-20 20v16h-80v-16c0-11.046-8.954-20-20-20s-20 8.954-20 20v18.011c-39.125 7.973-70.016 38.864-77.989 77.989h-18.011c-11.046 0-20 8.954-20 20s8.954 20 20 20h16v80h-16c-11.046 0-20 8.954-20 20s8.954 20 20 20h16v80h-16c-11.046 0-20 8.954-20 20s8.954 20 20 20h18.011c7.974 39.125 38.864 70.016 77.989 77.989v18.011c0 11.046 8.954 20 20 20s20-8.954 20-20v-16h80v16c0 11.046 8.954 20 20 20s20-8.954 20-20v-16h80v16c0 11.046 8.954 20 20 20s20-8.954 20-20v-18.011c39.126-7.974 70.016-38.864 77.989-77.989h18.011c11.046 0 20-8.954 20-20s-8.954-20-20-20z"/><path d="m492 236h-36c-11.046 0-20 8.954-20 20s8.954 20 20 20h36c11.046 0 20-8.954 20-20s-8.954-20-20-20z"/></g></g></svg>