<svg id="Capa_1" enable-background="new 0 0 512 512" height="512" viewBox="0 0 512 512" width="512" xmlns="http://www.w3.org/2000/svg"><g id="Cpu"><g><circle cx="256" cy="256" r="20"/><path d="m376 236h-22.011c-2.598-12.75-7.634-24.621-14.591-35.114l15.597-15.597c7.811-7.811 7.811-20.474 0-28.284s-20.474-7.811-28.284 0l-15.597 15.597c-10.493-6.957-22.364-11.993-35.114-14.591v-22.011c0-11.046-8.954-20-20-20s-20 8.954-20 20v22.011c-12.749 2.598-24.621 7.634-35.114 14.591l-15.597-15.597c-7.811-7.811-20.474-7.811-28.284 0s-7.811 20.474 0 28.284l15.597 15.597c-6.957 10.493-11.993 22.364-14.591 35.114h-22.011c-11.046 0-20 8.954-20 20s8.954 20 20 20h22.011c2.598 12.75 7.634 24.621 14.591 35.114l-15.597 15.597c-7.811 7.811-7.811 20.474 0 28.284 7.811 7.811 20.474 7.811 28.284 0l15.597-15.597c10.493 6.957 22.364 11.993 35.114 14.591v22.011c0 11.046 8.954 20 20 20s20-8.954 20-20v-22.011c12.749-2.598 24.621-7.634 35.114-14.591l15.597 15.597c7.811 7.811 20.474 7.811 28.284 0 7.811-7.811 7.811-20.474 0-28.284l-15.597-15.597c6.957-10.493 11.993-22.364 14.591-35.114h22.011c11.046 0 20-8.954 20-20s-8.954-20-20-20zm-120 80c-33.084 0-60-26.916-60-60s26.916-60 60-60 60 26.916 60 60-26.916 60-60 60z"/></g><path d="m492 276c11.046 0 20-8.954 20-20s-8.954-20-20-20h-16v-80h16c11.046 0 20-8.954 20-20s-8.954-20-20-20h-18.011c-7.973-39.125-38.864-70.016-77.989-77.989v-18.011c0-11.046-8.954-20-20-20s-20 8.954-20 20v16h-80v-16c0-11.046-8.954-20-20-20s-20 8.954-20 20v16h-80v-16c0-11.046-8.954-20-20-20s-20 8.954-20 20v18.011c-39.125 7.973-70.016 38.864-77.989 77.989h-18.011c-11.046 0-20 8.954-20 20s8.954 20 20 20h16v80h-16c-11.046 0-20 8.954-20 20s8.954 20 20 20h16v80h-16c-11.046 0-20 8.954-20 20s8.954 20 20 20h18.011c7.974 39.125 38.864 70.016 77.989 77.989v18.011c0 11.046 8.954 20 20 20s20-8.954 20-20v-16h80v16c0 11.046 8.954 20 20 20s20-8.954 20-20v-16h80v16c0 11.046 8.954 20 20 20s20-8.954 20-20v-18.011c39.125-7.974 70.016-38.864 77.989-77.989h18.011c11.046 0 20-8.954 20-20s-8.954-20-20-20h-16v-80zm-116 160h-240c-33.084 0-60-26.916-60-60v-240c0-33.084 26.916-60 60-60h240c33.084 0 60 26.916 60 60v240c0 33.084-26.916 60-60 60z"/></g></svg>