<svg id="Capa_1" enable-background="new 0 0 512 512" height="512" viewBox="0 0 512 512" width="512" xmlns="http://www.w3.org/2000/svg"><g id="Settings_8_"><g><circle cx="116" cy="20" r="20"/></g><g><circle cx="256" cy="20" r="20"/></g><g><path d="m196 220c0-33.084-26.916-60-60-60v-60c0-11.046-8.954-20-20-20s-20 8.954-20 20v60c-33.084 0-60 26.916-60 60s26.916 60 60 60v212c0 11.046 8.954 20 20 20s20-8.954 20-20v-212c33.084 0 60-26.916 60-60zm-60 20h-40c-11.028 0-20-8.972-20-20s8.972-20 20-20h40c11.028 0 20 8.972 20 20s-8.972 20-20 20z"/><path d="m276 312v-212c0-11.046-8.954-20-20-20s-20 8.954-20 20v212c-33.084 0-60 26.916-60 60s26.916 60 60 60v60c0 11.046 8.954 20 20 20s20-8.954 20-20v-60c33.084 0 60-26.916 60-60s-26.916-60-60-60zm0 80h-40c-11.028 0-20-8.972-20-20s8.972-20 20-20h40c11.028 0 20 8.972 20 20s-8.972 20-20 20z"/><path d="m416 160v-60c0-11.046-8.954-20-20-20s-20 8.954-20 20v60c-33.084 0-60 26.916-60 60s26.916 60 60 60v212c0 11.046 8.954 20 20 20s20-8.954 20-20v-212c33.084 0 60-26.916 60-60s-26.916-60-60-60zm0 80h-40c-11.028 0-20-8.972-20-20s8.972-20 20-20h40c11.028 0 20 8.972 20 20s-8.972 20-20 20z"/></g><g><circle cx="396" cy="20" r="20"/></g></g></svg>