<svg id="Capa_1" enable-background="new 0 0 512 512" height="512" viewBox="0 0 512 512" width="512" xmlns="http://www.w3.org/2000/svg"><g id="Settings_2_"><g><path d="m236 196h-20v-20c0-11.046-8.954-20-20-20s-20 8.954-20 20v20h-20c-11.046 0-20 8.954-20 20s8.954 20 20 20h20v100c0 11.046 8.954 20 20 20s20-8.954 20-20v-100h20c11.046 0 20-8.954 20-20s-8.954-20-20-20z"/><path d="m356 276h-20v-100c0-11.046-8.954-20-20-20s-20 8.954-20 20v100h-20c-11.046 0-20 8.954-20 20s8.954 20 20 20h20v20c0 11.046 8.954 20 20 20s20-8.954 20-20v-20h20c11.046 0 20-8.954 20-20s-8.954-20-20-20z"/></g><g><path d="m276 512h-40c-33.084 0-60-26.916-60-60v-.893c0-7.524-4.162-14.344-10.861-17.798-5.84-3.011-11.604-6.358-17.132-9.948-6.354-4.126-14.371-4.34-20.924-.557l-4.289 2.476c-13.877 8.014-30.047 10.144-45.528 5.995-15.48-4.147-28.419-14.076-36.433-27.956l-20-34.642c-16.541-28.649-6.689-65.417 21.96-81.961l3.547-2.048c6.507-3.757 10.421-11.04 9.969-18.554-.205-3.411-.309-6.814-.309-10.114 0-3.301.104-6.704.309-10.116.459-7.631-3.361-14.741-9.97-18.557l-3.544-2.045c-28.65-16.542-38.503-53.309-21.963-81.962l20.001-34.642c16.545-28.65 53.313-38.502 81.961-21.962l4.292 2.478c6.552 3.783 14.57 3.568 20.924-.557 5.528-3.59 11.291-6.936 17.129-9.946 6.699-3.454 10.861-10.274 10.861-17.799v-.892c0-33.084 26.916-60 60-60h40c33.084 0 60 26.916 60 60v.893c0 7.524 4.161 14.344 10.86 17.798 5.838 3.01 11.602 6.356 17.129 9.946 6.354 4.126 14.371 4.338 20.925.558l4.292-2.478c28.65-16.542 65.416-6.689 81.961 21.96l20 34.642c16.541 28.654 6.688 65.421-21.961 81.962l-3.546 2.047c-6.508 3.757-10.422 11.041-9.97 18.554.205 3.409.31 6.813.31 10.118 0 3.304-.104 6.708-.31 10.117-.459 7.627 3.361 14.737 9.971 18.553l3.544 2.045c28.651 16.545 38.503 53.312 21.962 81.962l-20 34.641c-8.014 13.88-20.952 23.809-36.433 27.957-15.48 4.148-31.649 2.02-45.53-5.996l-4.288-2.477c-6.45-3.724-14.665-3.506-20.924.559-5.533 3.593-11.297 6.939-17.132 9.947-6.698 3.454-10.86 10.274-10.86 17.799v.893c0 33.084-26.916 60-60 60zm-138.9-131.92c11.37 0 22.716 3.256 32.693 9.735 4.415 2.867 9.016 5.539 13.676 7.941 20.066 10.345 32.531 30.788 32.531 53.351v.893c0 11.028 8.972 20 20 20h40c11.028 0 20-8.972 20-20v-.892c0-22.564 12.466-43.007 32.531-53.352 4.656-2.4 9.257-5.072 13.676-7.941 19.036-12.361 43.064-12.993 62.71-1.652l4.29 2.478c4.626 2.671 10.015 3.38 15.174 1.999 5.16-1.383 9.474-4.692 12.146-9.32l20-34.641c5.514-9.55 2.229-21.806-7.322-27.321l-3.542-2.045c-19.819-11.443-31.275-32.747-29.899-55.6.156-2.613.236-5.208.236-7.713 0-2.506-.08-5.101-.237-7.713-1.376-22.854 10.081-44.159 29.898-55.6l3.546-2.047c9.549-5.513 12.832-17.769 7.318-27.321l-19.999-34.64c-5.514-9.549-17.77-12.834-27.32-7.32l-4.293 2.479c-19.646 11.342-43.676 10.708-62.709-1.652-4.415-2.867-9.016-5.539-13.674-7.94-20.065-10.348-32.53-30.791-32.53-53.353v-.893c0-11.028-8.972-20-20-20h-40c-11.028 0-20 8.972-20 20v.892c0 22.563-12.465 43.006-32.53 53.352-4.658 2.402-9.259 5.073-13.674 7.94-19.033 12.361-43.062 12.994-62.708 1.652l-4.293-2.479c-9.552-5.514-21.808-2.229-27.322 7.322l-19.999 34.64c-5.514 9.551-2.23 21.807 7.32 27.32l3.544 2.046c19.819 11.443 31.275 32.748 29.898 55.601-.156 2.613-.236 5.21-.236 7.714 0 2.503.08 5.099.237 7.714 1.375 22.852-10.08 44.156-29.897 55.597l-3.546 2.047c-9.548 5.514-12.833 17.77-7.319 27.32l20 34.641c2.671 4.627 6.985 7.937 12.145 9.32 5.158 1.382 10.548.673 15.174-1.999l4.29-2.477c9.348-5.397 19.692-8.083 30.016-8.083zm336.747-21.402h.01z"/></g></g></svg>