<svg id="Capa_1" enable-background="new 0 0 512 512" height="512" viewBox="0 0 512 512" width="512" xmlns="http://www.w3.org/2000/svg"><g><path d="m472 395.44v-31.313c0-11.046-8.954-20-20-20s-20 8.954-20 20v27.873h-352v-236c0-22.056 17.944-40 40-40h132c11.046 0 20-8.954 20-20s-8.954-20-20-20h-132c-44.112 0-80 35.888-80 80v239.44c-23.278 8.257-40 30.487-40 56.56 0 33.084 26.916 60 60 60h392c33.084 0 60-26.916 60-60 0-26.073-16.722-48.303-40-56.56zm-20 76.56h-392c-11.028 0-20-8.972-20-20s8.972-20 20-20h392c11.028 0 20 8.972 20 20s-8.972 20-20 20z"/><path d="m452 0h-80c-33.084 0-60 26.916-60 60v192c0 33.084 26.916 60 60 60h80c33.084 0 60-26.916 60-60v-192c0-33.084-26.916-60-60-60zm-80 40h80c11.028 0 20 8.972 20 20v132h-120v-132c0-11.028 8.972-20 20-20zm80 232h-80c-11.028 0-20-8.972-20-20v-20h120v20c0 11.028-8.972 20-20 20z"/><path d="m197.857 350.142c3.906 3.905 9.025 5.858 14.143 5.858s10.237-1.953 14.143-5.858l40-40c5.72-5.72 7.431-14.322 4.335-21.796-3.096-7.473-10.389-12.346-18.478-12.346h-112c-11.046 0-20 8.954-20 20s8.954 20 20 20h63.716l-5.858 5.858c-7.81 7.81-7.81 20.474-.001 28.284z"/><path d="m252 196h-63.716l5.858-5.858c7.81-7.811 7.81-20.474 0-28.284-7.811-7.811-20.475-7.811-28.285 0l-40 40c-5.72 5.72-7.431 14.322-4.335 21.796 3.096 7.473 10.389 12.346 18.478 12.346h112c11.046 0 20-8.954 20-20s-8.954-20-20-20z"/></g></svg>