<svg id="Capa_1" enable-background="new 0 0 512 512" height="512" viewBox="0 0 512 512" width="512" xmlns="http://www.w3.org/2000/svg"><g><path d="m383.279 96.963c7.81-7.811 7.81-20.474 0-28.284-70.184-70.182-184.375-70.182-254.559 0-7.81 7.811-7.81 20.474 0 28.284 7.811 7.811 20.475 7.811 28.285 0 54.584-54.586 143.404-54.586 197.988 0 7.812 7.81 20.476 7.81 28.286 0z"/><path d="m326.711 153.532c7.811-7.811 7.811-20.474 0-28.284-38.99-38.99-102.432-38.99-141.422 0-7.811 7.811-7.811 20.474 0 28.284s20.475 7.811 28.285 0c23.393-23.394 61.459-23.394 84.852 0 7.81 7.81 20.474 7.81 28.285 0z"/><circle cx="256" cy="195.958" r="20"/><path d="m60 415.958h40v40h-20c-11.046 0-20 8.954-20 20s8.954 20 20 20h80c11.046 0 20-8.954 20-20s-8.954-20-20-20h-20v-40h40c33.084 0 60-26.916 60-60v-80c0-33.084-26.916-60-60-60h-120c-33.084 0-60 26.916-60 60v80c0 33.084 26.916 60 60 60zm-20-140c0-11.028 8.972-20 20-20h120c11.028 0 20 8.972 20 20v80c0 11.028-8.972 20-20 20h-120c-11.028 0-20-8.972-20-20z"/><path d="m452 215.958h-120c-33.084 0-60 26.916-60 60v80c0 33.084 26.916 60 60 60h40v40h-20c-11.046 0-20 8.954-20 20s8.954 20 20 20h80c11.046 0 20-8.954 20-20s-8.954-20-20-20h-20v-40h40c33.084 0 60-26.916 60-60v-80c0-33.084-26.916-60-60-60zm20 140c0 11.028-8.972 20-20 20h-120c-11.028 0-20-8.972-20-20v-80c0-11.028 8.972-20 20-20h120c11.028 0 20 8.972 20 20z"/></g></svg>