<svg id="Capa_1" enable-background="new 0 0 512 512" height="512" viewBox="0 0 512 512" width="512" xmlns="http://www.w3.org/2000/svg"><g id="Drawing_Tablet"><g><circle cx="412" cy="296.002" r="20"/></g><g><path d="m412 496.002h-312c-55.141 0-100-44.86-100-100v-200c0-55.14 44.859-100 100-100h60c11.046 0 20 8.954 20 20s-8.954 20-20 20h-60c-33.084 0-60 26.916-60 60v200c0 33.084 26.916 60 60 60h312c33.084 0 60-26.916 60-60v-200c0-33.084-26.916-60-60-60h-100c-11.046 0-20-8.954-20-20s8.954-20 20-20h100c55.141 0 100 44.86 100 100v200c0 55.14-44.859 100-100 100z"/></g><g><path d="m140 416.002h-40c-11.046 0-20-8.954-20-20v-40c0-11.046 8.954-20 20-20s20 8.954 20 20v20h20c11.046 0 20 8.954 20 20s-8.954 20-20 20z"/></g><g><path d="m100 256.002c-11.046 0-20-8.954-20-20v-40c0-11.046 8.954-20 20-20h40c11.046 0 20 8.954 20 20s-8.954 20-20 20h-20v20c0 11.045-8.954 20-20 20z"/></g><g><path d="m372 416.002h-40c-11.046 0-20-8.954-20-20s8.954-20 20-20h20v-20c0-11.046 8.954-20 20-20s20 8.954 20 20v40c0 11.045-8.954 20-20 20z"/></g><g><path d="m372 256.002c-11.046 0-20-8.954-20-20v-20h-20c-11.046 0-20-8.954-20-20s8.954-20 20-20h40c11.046 0 20 8.954 20 20v40c0 11.045-8.954 20-20 20z"/></g><g><path d="m212.712 295.73c-10.896-1.816-18.256-12.121-16.439-23.016l40-240c1.815-10.896 12.129-18.255 23.016-16.44 10.896 1.816 18.256 12.121 16.439 23.016l-40 240c-1.816 10.895-12.122 18.255-23.016 16.44z"/></g></g></svg>