<svg id="Capa_1" enable-background="new 0 0 512.003 512.003" height="512" viewBox="0 0 512.003 512.003" width="512" xmlns="http://www.w3.org/2000/svg"><g id="Laptop_1_"><path d="m511.884 371.118c-.729-15.24-7.594-29.358-19.329-39.752-11.188-9.908-25.589-15.364-40.554-15.364h-47.716c-23.581 0-45.752 9.183-62.427 25.858-9.119 9.12-21.244 14.142-34.142 14.142h-103.43c-12.897 0-25.022-5.022-34.142-14.142-16.675-16.675-38.845-25.858-62.426-25.858h-27.716v-220c0-11.028 8.972-20 20-20h312c11.028 0 20 8.972 20 20v160c0 11.046 8.954 20 20 20s20-8.954 20-20v-160c0-33.084-26.916-60-60-60h-312c-33.084 0-60 26.916-60 60v223.368c-7.51 2.595-14.504 6.638-20.553 11.996-11.737 10.394-18.602 24.512-19.33 39.752-1.323 27.654 8.441 53.89 27.494 73.876 19.062 19.996 44.77 31.008 72.389 31.008h312c27.618 0 53.327-11.012 72.389-31.008 19.052-19.986 28.816-46.222 27.493-73.876zm-56.446 46.276c-11.439 12-26.865 18.608-43.437 18.608h-312c-16.571 0-31.997-6.608-43.437-18.608-11.43-11.99-17.287-27.746-16.492-44.365.441-9.23 9.568-17.027 19.929-17.027h47.716c12.897 0 25.022 5.022 34.142 14.142 16.675 16.675 38.845 25.858 62.426 25.858h103.432c23.581 0 45.752-9.183 62.427-25.858 9.119-9.12 21.244-14.142 34.142-14.142h47.716c10.361 0 19.487 7.797 19.928 17.027.795 16.619-5.062 32.375-16.492 44.365z"/><g><path d="m326.763 225.36c-17.873-17.919-43.665-28.196-70.762-28.196s-52.889 10.277-70.762 28.196c-7.8 7.821-20.463 7.836-28.284.036-7.82-7.8-7.837-20.463-.037-28.284 25.323-25.388 61.437-39.948 99.083-39.948s73.76 14.561 99.082 39.948c7.801 7.821 7.784 20.484-.036 28.284-7.819 7.8-20.484 7.785-28.284-.036z"/></g><g><path d="m270.143 281.859c-3.777-3.777-8.799-5.857-14.142-5.857s-10.365 2.08-14.142 5.857c-7.811 7.811-20.474 7.812-28.284.001-7.811-7.81-7.811-20.474-.001-28.284 11.332-11.333 26.399-17.574 42.427-17.574s31.095 6.241 42.427 17.574c7.811 7.811 7.81 20.474-.001 28.284-7.81 7.809-20.472 7.811-28.284-.001z"/></g></g></svg>