<svg id="Capa_1" enable-background="new 0 0 512 512" height="512" viewBox="0 0 512 512" width="512" xmlns="http://www.w3.org/2000/svg"><g id="Laptop"><g><g><path d="m216 316h-40c-33.084 0-60-26.916-60-60v-80c0-33.084 26.916-60 60-60h40c33.084 0 60 26.916 60 60v80c0 33.084-26.916 60-60 60zm-40-160c-11.028 0-20 8.972-20 20v80c0 11.028 8.972 20 20 20h40c11.028 0 20-8.972 20-20v-80c0-11.028-8.972-20-20-20z"/></g><g><path d="m492 356h-412v-220c0-33.084 26.916-60 60-60h232c33.084 0 60 26.916 60 60v160c0 11.046 8.954 20 20 20s20-8.954 20-20v-160c0-55.14-44.86-100-100-100h-232c-55.14 0-100 44.86-100 100v220h-20c-11.046 0-20 8.954-20 20 0 55.14 44.86 100 100 100h312c55.14 0 100-44.86 100-100 0-11.046-8.954-20-20-20zm-80 80h-312c-26.075 0-48.318-16.719-56.573-40h425.146c-8.255 23.281-30.498 40-56.573 40z"/><path d="m376 116h-40c-11.046 0-20 8.954-20 20s8.954 20 20 20h40c11.046 0 20-8.954 20-20s-8.954-20-20-20z"/><path d="m376 196h-40c-11.046 0-20 8.954-20 20s8.954 20 20 20h40c11.046 0 20-8.954 20-20s-8.954-20-20-20z"/><path d="m376 276h-40c-11.046 0-20 8.954-20 20s8.954 20 20 20h40c11.046 0 20-8.954 20-20s-8.954-20-20-20z"/></g></g></g></svg>