<svg id="Capa_1" enable-background="new 0 0 512 512" height="512" viewBox="0 0 512 512" width="512" xmlns="http://www.w3.org/2000/svg"><g id="Laptop_2_"><path d="m452 356h-352c-11.028 0-20-8.972-20-20v-240c0-11.028 8.972-20 20-20h312c11.028 0 20 8.972 20 20v200c0 11.046 8.954 20 20 20s20-8.954 20-20v-200c0-33.084-26.916-60-60-60h-312c-33.084 0-60 26.916-60 60v240c0 7.809 1.515 15.266 4.242 22.115-25.462 6.939-44.242 30.254-44.242 57.885 0 33.084 26.916 60 60 60h392c33.084 0 60-26.916 60-60s-26.916-60-60-60zm0 80h-392c-11.028 0-20-8.972-20-20s8.972-20 20-20h392c11.028 0 20 8.972 20 20s-8.972 20-20 20z"/><g><path d="m236 156h-20v-20c0-11.046-8.954-20-20-20s-20 8.954-20 20v20h-20c-11.046 0-20 8.954-20 20s8.954 20 20 20h20v100c0 11.046 8.954 20 20 20s20-8.954 20-20v-100h20c11.046 0 20-8.954 20-20s-8.954-20-20-20z"/><path d="m356 236h-20v-100c0-11.046-8.954-20-20-20s-20 8.954-20 20v100h-20c-11.046 0-20 8.954-20 20s8.954 20 20 20h20v20c0 11.046 8.954 20 20 20s20-8.954 20-20v-20h20c11.046 0 20-8.954 20-20s-8.954-20-20-20z"/></g></g></svg>