<svg id="Capa_1" enable-background="new 0 0 512 512" height="512" viewBox="0 0 512 512" width="512" xmlns="http://www.w3.org/2000/svg"><path d="m452 357c-11.046 0-20-8.954-20-20v-46c0-11.046 8.954-20 20-20s20 8.954 20 20v46c0 11.046-8.954 20-20 20zm-392 0c11.046 0 20-8.954 20-20v-147c0-44.112 35.888-80 80.015-80l58-.042c11.045-.008 19.993-8.969 19.985-20.015-.008-11.041-8.96-19.985-20-19.985h-.015l-57.985.042c-66.168 0-120 53.832-120 120v147c0 11.046 8.954 20 20 20zm452 95c0 33.084-26.916 60-60 60h-392c-33.084 0-60-26.916-60-60s26.916-60 60-60h392c33.084 0 60 26.916 60 60zm-40 0c0-11.028-8.972-20-20-20h-392c-11.028 0-20 8.972-20 20s8.972 20 20 20h392c11.028 0 20-8.972 20-20zm40-350v60c0 38.599-31.402 70-70 70h-95c-38.598 0-70-31.401-70-70v-60c0-28.689 17.348-53.403 42.105-64.201v-17.799c0-11.046 8.954-20 20-20s20 8.954 20 20v12h70.789v-12c0-11.046 8.954-20 20-20s20 8.954 20 20v17.799c24.758 10.798 42.106 35.512 42.106 64.201zm-40 0c0-16.542-13.458-30-30-30h-95c-16.542 0-30 13.458-30 30h95c11.046 0 20 8.954 20 20s-8.954 20-20 20h-95v20c0 16.542 13.458 30 30 30h95c16.542 0 30-13.458 30-30z"/></svg>