<svg id="Capa_1" enable-background="new 0 0 512 512" height="512" viewBox="0 0 512 512" width="512" xmlns="http://www.w3.org/2000/svg"><g><path d="m100 496h312c55.141 0 100-44.86 100-100 0-33.084-26.916-60-60-60h-372v-260c0-11.028 8.972-20 20-20h312c11.028 0 20 8.972 20 20v200.001c0 11.046 8.954 20 20 20s20-8.954 20-20v-200.001c0-33.084-26.916-60-60-60h-312c-33.084 0-60 26.916-60 60v263.44c-23.278 8.257-40 30.487-40 56.56 0 55.14 44.86 100 100 100zm-40.014-119.999c.005 0 .01.001.014.001.01 0 .019-.001.029-.001h175.971v20c0 11.046 8.954 20 20 20s20-8.954 20-20v-20h176c11.028 0 20 8.972 20 20 0 33.084-26.916 60-60 60h-312c-33.084 0-60-26.916-60-60 0-11.024 8.964-19.992 19.986-20z"/><path d="m140 96c-11.046 0-20 8.954-20 20v160c0 11.046 8.954 20 20 20h80c11.046 0 20-8.954 20-20v-160c0-11.046-8.954-20-20-20zm60 160h-40v-120h40z"/><path d="m372 256h-72c-11.046 0-20 8.954-20 20s8.954 20 20 20h72c11.046 0 20-8.954 20-20s-8.954-20-20-20z"/><path d="m372 176h-72c-11.046 0-20 8.954-20 20s8.954 20 20 20h72c11.046 0 20-8.954 20-20s-8.954-20-20-20z"/><path d="m280 116c0 11.046 8.954 20 20 20h72c11.046 0 20-8.954 20-20s-8.954-20-20-20h-72c-11.046 0-20 8.954-20 20z"/></g></svg>