<svg id="Capa_1" enable-background="new 0 0 512 512" height="512" viewBox="0 0 512 512" width="512" xmlns="http://www.w3.org/2000/svg"><g id="Mobile_Pay"><g><path d="m236 116h-20v-20c0-11.046-8.954-20-20-20s-20 8.954-20 20v20h-60c-11.046 0-20 8.954-20 20s8.954 20 20 20h20v120h-20c-11.046 0-20 8.954-20 20s8.954 20 20 20h60v20c0 11.046 8.954 20 20 20s20-8.954 20-20v-20h20c33.084 0 60-26.916 60-60 0-15.355-5.805-29.376-15.327-40 9.522-10.624 15.327-24.645 15.327-40 0-33.084-26.916-60-60-60zm20 60c0 11.028-8.972 20-20 20h-60v-40h60c11.028 0 20 8.972 20 20zm-20 100h-60v-40h60c11.028 0 20 8.972 20 20s-8.972 20-20 20z"/><path d="m336 100v192c0 11.046 8.954 20 20 20s20-8.954 20-20v-192c0-55.14-44.86-100-100-100h-160c-55.14 0-100 44.86-100 100v312c0 55.14 44.86 100 100 100h170.714c11.046 0 20-8.954 20-20s-8.954-20-20-20h-170.714c-33.084 0-60-26.916-60-60v-312c0-33.084 26.916-60 60-60h160c33.084 0 60 26.916 60 60z"/><path d="m356 392h120c8.089 0 15.382-4.873 18.478-12.346 3.096-7.474 1.385-16.076-4.335-21.796l-40-40c-7.811-7.811-20.475-7.811-28.285 0s-7.81 20.474 0 28.284l5.858 5.858h-71.716c-11.046 0-20 8.954-20 20s8.954 20 20 20z"/><path d="m476 432h-120c-8.089 0-15.382 4.873-18.478 12.346-3.096 7.474-1.385 16.076 4.335 21.796l40 40c3.905 3.905 9.025 5.858 14.143 5.858s10.237-1.953 14.143-5.858c7.81-7.811 7.81-20.474 0-28.284l-5.859-5.858h71.716c11.046 0 20-8.954 20-20s-8.954-20-20-20z"/><path d="m176 392c-11.046 0-20 8.954-20 20s8.954 20 20 20h40c11.046 0 20-8.954 20-20s-8.954-20-20-20z"/></g></g></svg>