<svg id="Capa_1" enable-background="new 0 0 512 512" height="512" viewBox="0 0 512 512" width="512" xmlns="http://www.w3.org/2000/svg"><path d="m214 81c11.046 0 20 8.955 20 20s-8.955 20-20 20h-50c-11.046 0-20-8.955-20-20s8.955-20 20-20zm144.61 335.948c-9.967-4.756-21.906-.53-26.662 9.441-13.217 27.708-41.85 45.611-72.948 45.611h-139c-44.112 0-80-35.888-80-80v-272c0-44.112 35.888-80 80-80h139.001c34.505 0 65.067 21.86 76.05 54.396 3.531 10.464 14.874 16.085 25.346 12.553 10.466-3.533 16.086-14.88 12.553-25.346-16.475-48.808-62.268-81.602-113.949-81.603h-139.001c-66.168 0-120 53.832-120 120v272c0 66.168 53.832 120 120 120h139c46.429 0 89.234-26.845 109.052-68.39 4.755-9.968.528-21.906-9.442-26.662zm153.39-168.948v60c0 38.599-31.401 70-70 70h-95c-38.599 0-70-31.401-70-70v-60c0-28.689 17.348-53.403 42.105-64.201v-17.799c0-11.046 8.954-20 20-20s20 8.954 20 20v12h70.789v-12c0-11.046 8.954-20 20-20s20 8.954 20 20v17.799c24.758 10.798 42.106 35.512 42.106 64.201zm-40 0c0-16.542-13.458-30-30-30h-95c-16.542 0-30 13.458-30 30h95c11.046 0 20 8.954 20 20s-8.954 20-20 20h-95v20c0 16.542 13.458 30 30 30h95c16.542 0 30-13.458 30-30z"/></svg>