<svg id="Capa_1" enable-background="new 0 0 512 512" height="512" viewBox="0 0 512 512" width="512" xmlns="http://www.w3.org/2000/svg"><g id="Monitor"><g><path d="m383.278 172.721c-33.935-33.935-79.136-52.624-127.278-52.624s-93.344 18.689-127.278 52.624c-7.811 7.811-20.475 7.811-28.285 0s-7.81-20.474 0-28.284c41.49-41.49 96.736-64.339 155.563-64.339s114.073 22.85 155.563 64.339c7.81 7.811 7.81 20.474 0 28.284-7.81 7.809-20.472 7.812-28.285 0z"/></g><g><path d="m326.71 229.289c-18.852-18.853-43.964-29.235-70.71-29.235s-51.858 10.382-70.71 29.235c-7.811 7.811-20.474 7.811-28.284 0s-7.812-20.474-.001-28.284c26.407-26.408 61.564-40.951 98.995-40.951s72.588 14.543 98.995 40.951c7.811 7.811 7.81 20.474-.001 28.284-7.807 7.808-20.47 7.813-28.284 0z"/></g><g><path d="m270.142 285.858c-3.777-3.777-8.8-5.858-14.142-5.858s-10.364 2.081-14.142 5.858c-7.811 7.811-20.475 7.811-28.285 0s-7.81-20.474 0-28.284c23.395-23.395 61.459-23.395 84.854 0 7.81 7.811 7.81 20.474 0 28.284-7.811 7.81-20.475 7.81-28.285 0z"/></g><path d="m452 0h-392c-33.084 0-60 26.916-60 60v272c0 33.084 26.916 60 60 60h136v60c0 11.028-8.972 20-20 20h-40c-11.046 0-20 8.954-20 20s8.954 20 20 20h240c11.046 0 20-8.954 20-20s-8.954-20-20-20h-40c-11.028 0-20-8.972-20-20 0-11.046-8.954-20-20-20s-20 8.954-20 20c0 7.009 1.208 13.742 3.427 20h-46.854c2.219-6.258 3.427-12.991 3.427-20v-60h216c33.084 0 60-26.916 60-60v-272c0-33.084-26.916-60-60-60zm20 332c0 11.028-8.972 20-20 20h-392c-11.028 0-20-8.972-20-20v-272c0-11.028 8.972-20 20-20h392c11.028 0 20 8.972 20 20z"/></g></svg>