<svg id="Capa_1" enable-background="new 0 0 512 512" height="512" viewBox="0 0 512 512" width="512" xmlns="http://www.w3.org/2000/svg"><g id="Networking"><g><path d="m468.133 379.279c-23.395-23.395-61.46-23.393-84.854 0-16.633 16.634-21.427 40.683-14.405 61.604-34.025 20.406-72.701 31.117-112.874 31.117-20.675 0-41.13-2.861-60.797-8.503-10.616-3.045-21.694 3.092-24.74 13.709s3.092 21.694 13.709 24.74c23.255 6.671 47.421 10.054 71.828 10.054 49.211 0 96.534-13.608 137.81-39.488 23.294 14.626 54.258 11.684 74.323-8.38 23.449-23.45 23.449-61.403 0-84.853zm-28.284 56.569c-7.799 7.798-20.486 7.799-28.285.001-7.798-7.798-7.798-20.487 0-28.285 7.797-7.798 20.487-7.798 28.284 0 7.816 7.815 7.817 20.468.001 28.284z"/><path d="m256 40c20.675 0 41.13 2.861 60.798 8.503 10.616 3.046 21.693-3.092 24.739-13.71 3.046-10.617-3.092-21.694-13.71-24.74-23.254-6.67-47.421-10.053-71.827-10.053-49.205 0-96.522 13.605-137.796 39.478-22.876-14.426-53.905-12.042-74.336 8.389-23.449 23.449-23.45 61.403 0 84.853 23.449 23.45 61.403 23.45 84.853 0 16.66-16.66 21.498-40.634 14.435-61.621 34.017-20.394 72.683-31.099 112.844-31.099zm-155.563 64.437c-7.817 7.816-20.468 7.817-28.284 0-7.817-7.817-7.816-20.467 0-28.284 7.816-7.816 20.468-7.816 28.284 0s7.816 20.467 0 28.284z"/></g><g><path d="m71.1 368.844c-20.395-34.017-31.1-72.683-31.1-112.844 0-20.676 2.861-41.131 8.503-60.798 3.046-10.617-3.092-21.694-13.709-24.74-10.619-3.046-21.693 3.092-24.74 13.709-6.671 23.254-10.054 47.421-10.054 71.829 0 49.205 13.605 96.522 39.479 137.796-14.424 22.872-12.045 53.902 8.39 74.336 23.449 23.45 61.404 23.449 84.853 0s23.45-61.404 0-84.853c-16.662-16.66-40.635-21.498-61.622-14.435zm33.337 71.004c-7.816 7.816-20.468 7.816-28.284 0-7.816-7.817-7.817-20.468 0-28.284 7.816-7.817 20.467-7.816 28.284 0 7.816 7.816 7.816 20.467 0 28.284z"/><path d="m472.521 118.205c14.427-22.876 12.043-53.905-8.389-74.337-23.393-23.394-61.46-23.393-84.853 0-.001 0-.001 0-.001.001-23.393 23.394-23.393 61.458 0 84.852 16.39 16.389 40.308 21.554 61.605 14.406 20.406 34.024 31.117 72.7 31.117 112.873 0 20.676-2.861 41.131-8.504 60.798-3.046 10.617 3.092 21.694 13.709 24.74 10.616 3.046 21.694-3.092 24.74-13.708 6.672-23.255 10.055-47.421 10.055-71.83 0-49.205-13.604-96.522-39.479-137.795zm-64.958-17.768c-7.798-7.798-7.798-20.487 0-28.285 7.8-7.798 20.486-7.798 28.284 0 7.817 7.816 7.817 20.469 0 28.284-7.797 7.798-20.486 7.799-28.284.001z"/><path d="m396 296h-20v-100c0-33.084-26.916-60-60-60h-120c-33.084 0-60 26.916-60 60v100h-20c-11.046 0-20 8.954-20 20s8.954 20 20 20h280c11.046 0 20-8.954 20-20s-8.954-20-20-20zm-220-100c0-11.028 8.972-20 20-20h120c11.028 0 20 8.972 20 20v100h-160z"/></g></g></svg>