<svg id="Capa_1" enable-background="new 0 0 512 512" height="512" viewBox="0 0 512 512" width="512" xmlns="http://www.w3.org/2000/svg"><g><path d="m492 200h-23.44c2.22-6.26 3.44-12.989 3.44-20v-120c0-33.084-26.916-60-60-60h-160c-33.084 0-60 26.916-60 60v120c0 7.011 1.22 13.74 3.44 20h-23.44c-11.046 0-20 8.954-20 20s8.954 20 20 20h320c11.046 0 20-8.954 20-20s-8.954-20-20-20zm-80 0h-160c-11.028 0-20-8.972-20-20v-120c0-11.028 8.972-20 20-20h160c11.028 0 20 8.972 20 20v120c0 11.028-8.972 20-20 20z"/><path d="m20 472h240c11.028 0 20-8.972 20-20v-120c0-11.028-8.972-20-20-20h-160c-11.028 0-20 8.972-20 20v80c0 11.046-8.954 20-20 20s-20-8.954-20-20v-80c0-33.084 26.916-60 60-60h160c33.084 0 60 26.916 60 60v120c0 7.011-1.22 13.74-3.44 20h23.44c11.046 0 20 8.954 20 20s-8.954 20-20 20h-320c-11.046 0-20-8.954-20-20s8.954-20 20-20z"/><circle cx="136" cy="136" r="20"/><circle cx="456" cy="296" r="20"/><circle cx="456" cy="376" r="20"/><circle cx="376" cy="376" r="20"/><circle cx="56" cy="136" r="20"/><circle cx="56" cy="216" r="20"/></g></svg>