<svg id="Capa_1" enable-background="new 0 0 512 512" height="512" viewBox="0 0 512 512" width="512" xmlns="http://www.w3.org/2000/svg"><g id="Network"><path d="m459.205 304.039c-3.221-1.859-6.569-3.388-10-4.609v-23.43c0-11.046-8.954-20-20-20s-20 8.954-20 20v23.446c-13.492 4.748-24.734 14.036-31.961 26.554-7.336 12.706-9.471 27.007-7.087 40.434l-74.821 40.317c-10.542-9.176-24.296-14.751-39.336-14.751s-28.794 5.575-39.335 14.751l-74.821-40.317c2.384-13.427.249-27.727-7.086-40.433-7.228-12.519-18.47-21.807-31.962-26.555v-86.892c13.492-4.748 24.734-14.036 31.961-26.554 7.336-12.706 9.471-27.007 7.087-40.434l74.821-40.317c10.541 9.176 24.295 14.751 39.335 14.751s28.794-5.575 39.335-14.751l74.821 40.317c-2.384 13.427-.249 27.727 7.086 40.433 16.582 28.721 53.241 38.543 81.962 21.962 28.651-16.542 38.503-53.31 21.962-81.961-16.582-28.721-53.239-38.542-81.962-21.962-3.395 1.96-6.517 4.213-9.371 6.694l-74.763-40.286c.6-3.395.93-6.882.93-10.446 0-33.084-26.916-60-60-60s-60 26.916-60 60c0 3.564.33 7.051.929 10.446l-74.763 40.286c-2.854-2.481-5.976-4.733-9.371-6.693-28.722-16.579-65.38-6.759-81.961 21.961-16.542 28.651-6.69 65.419 21.961 81.962 3.222 1.86 6.569 3.396 10 4.616v86.852c-3.43 1.221-6.779 2.749-10 4.608-28.651 16.542-38.503 53.311-21.962 81.962 16.582 28.721 53.241 38.543 81.962 21.962 3.395-1.96 6.517-4.212 9.371-6.693l74.763 40.286c-.599 3.394-.929 6.881-.929 10.445 0 33.084 26.916 60 60 60s60-26.916 60-60c0-3.564-.33-7.051-.929-10.446l74.763-40.286c2.854 2.481 5.976 4.733 9.371 6.694 28.715 16.576 65.384 6.752 81.961-21.962 16.542-28.651 6.69-65.419-21.961-81.961zm-12.68-158.039c5.514 9.551 2.23 21.807-7.32 27.32-9.574 5.527-21.794 2.254-27.32-7.32-5.514-9.551-2.23-21.807 7.32-27.321 9.573-5.527 21.794-2.253 27.32 7.321zm-190.525-106c11.028 0 20 8.972 20 20s-8.972 20-20 20-20-8.972-20-20 8.972-20 20-20zm-190.524 106c5.512-9.551 17.728-12.859 27.319-7.32 9.551 5.514 12.834 17.77 7.319 27.321-5.525 9.574-17.746 12.846-27.319 7.32-9.551-5.514-12.834-17.77-7.319-27.321zm-.001 220c-5.514-9.551-2.23-21.807 7.32-27.321 9.573-5.527 21.794-2.253 27.32 7.321 5.514 9.551 2.23 21.807-7.32 27.32-9.575 5.526-21.794 2.254-27.32-7.32zm190.525 106c-11.028 0-20-8.972-20-20s8.972-20 20-20 20 8.972 20 20-8.972 20-20 20zm190.524-106c-5.525 9.574-17.746 12.846-27.319 7.32-9.551-5.514-12.834-17.77-7.319-27.321 5.523-9.571 17.75-12.846 27.319-7.32 9.551 5.515 12.834 17.77 7.319 27.321z"/><path d="m336 236h-63.44c-8.256-23.278-30.487-40-56.56-40-33.084 0-60 26.916-60 60s26.916 60 60 60c26.073 0 48.303-16.722 56.56-40h43.44v20c0 11.046 8.954 20 20 20s20-8.954 20-20v-40c0-11.046-8.954-20-20-20zm-120 40c-11.028 0-20-8.972-20-20s8.972-20 20-20 20 8.972 20 20-8.972 20-20 20z"/></g></svg>