<svg id="Capa_1" enable-background="new 0 0 512 512" height="512" viewBox="0 0 512 512" width="512" xmlns="http://www.w3.org/2000/svg"><g><circle cx="216" cy="396" r="20"/><circle cx="296" cy="396" r="20"/><circle cx="296" cy="276" r="20"/><circle cx="216" cy="276" r="20"/><circle cx="256" cy="336" r="20"/><path d="m116 260v152c0 55.14 44.86 100 100 100h80c55.141 0 100-44.86 100-100v-36c0-11.046-8.954-20-20-20s-20 8.954-20 20v36c0 33.084-26.916 60-60 60h-80c-33.084 0-60-26.916-60-60v-152c0-33.084 26.916-60 60-60h80c33.084 0 60 26.916 60 60v36c0 11.046 8.954 20 20 20s20-8.954 20-20v-36c0-47.374-33.113-87.16-77.411-97.427 7.486-24.61 30.386-42.573 57.411-42.573 11.046 0 20-8.954 20-20s-8.954-20-20-20h-55.278c-7.625 0-14.479-4.236-17.889-11.056l-28.944-57.889c-3.389-6.775-10.314-11.055-17.889-11.055s-14.5 4.28-17.889 11.056l-28.944 57.889c-3.41 6.819-10.264 11.055-17.888 11.055h-55.279c-11.046 0-20 8.954-20 20s8.954 20 20 20c27.025 0 49.925 17.963 57.411 42.573-44.297 10.267-77.411 50.053-77.411 97.427zm128.944-173.167 11.056-22.112 11.056 22.111c6.863 13.727 18.378 23.965 32.122 29.216-10.386 12.457-17.785 27.479-21.144 43.952h-44.045c-3.358-16.48-10.785-31.496-21.178-43.957 13.747-5.251 25.269-15.481 32.133-29.21z"/></g></svg>