<svg id="Capa_1" enable-background="new 0 0 512 512" height="512" viewBox="0 0 512 512" width="512" xmlns="http://www.w3.org/2000/svg"><g><path d="m176 218c11.046 0 20-8.954 20-20s-8.954-20-20-20c-33.084 0-60 26.916-60 60 0 11.028-8.972 20-20 20-11.046 0-20 8.954-20 20s8.954 20 20 20c11.028 0 20 8.972 20 20 0 33.084 26.916 60 60 60 11.046 0 20-8.954 20-20s-8.954-20-20-20c-11.028 0-20-8.972-20-20 0-15.355-5.805-29.376-15.327-40 9.522-10.624 15.327-24.645 15.327-40 0-11.028 8.972-20 20-20z"/><path d="m416 258c-11.028 0-20-8.972-20-20 0-33.084-26.916-60-60-60-11.046 0-20 8.954-20 20s8.954 20 20 20c11.028 0 20 8.972 20 20 0 15.355 5.805 29.376 15.327 40-9.522 10.624-15.327 24.645-15.327 40 0 11.028-8.972 20-20 20-11.046 0-20 8.954-20 20s8.954 20 20 20c33.084 0 60-26.916 60-60 0-11.028 8.972-20 20-20 11.046 0 20-8.954 20-20s-8.954-20-20-20z"/><circle cx="216" cy="278" r="20"/><circle cx="296" cy="278" r="20"/><path d="m432 18h-352c-44.112 0-80 35.888-80 80v316c0 44.112 35.888 80 80 80h352c44.112 0 80-35.888 80-80v-316c0-44.112-35.888-80-80-80zm40 396c0 22.056-17.944 40-40 40h-352c-22.056 0-40-17.944-40-40v-316c0-22.056 17.944-40 40-40h76v20c0 33.084 26.916 60 60 60h196c11.046 0 20-8.954 20-20s-8.954-20-20-20h-196c-11.028 0-20-8.972-20-20v-20h236c22.056 0 40 17.944 40 40z"/></g></svg>