<svg id="Capa_1" enable-background="new 0 0 512 512" height="512" viewBox="0 0 512 512" width="512" xmlns="http://www.w3.org/2000/svg"><g id="Qr_Code"><g><path d="m100 512h-40c-33.084 0-60-26.916-60-60v-40c0-11.046 8.954-20 20-20s20 8.954 20 20v40c0 11.028 8.972 20 20 20h40c11.046 0 20 8.954 20 20s-8.954 20-20 20z"/></g><g><path d="m452 512h-40c-11.046 0-20-8.954-20-20s8.954-20 20-20h40c11.028 0 20-8.972 20-20v-40c0-11.046 8.954-20 20-20s20 8.954 20 20v40c0 33.084-26.916 60-60 60z"/></g><g><path d="m20 120c-11.046 0-20-8.954-20-20v-40c0-33.084 26.916-60 60-60h40c11.046 0 20 8.954 20 20s-8.954 20-20 20h-40c-11.028 0-20 8.972-20 20v40c0 11.046-8.954 20-20 20z"/></g><g><path d="m492 120c-11.046 0-20-8.954-20-20v-40c0-11.028-8.972-20-20-20h-40c-11.046 0-20-8.954-20-20s8.954-20 20-20h40c33.084 0 60 26.916 60 60v40c0 11.046-8.954 20-20 20z"/></g><g><path d="m176 436h-40c-33.084 0-60-26.916-60-60v-40c0-33.084 26.916-60 60-60h40c33.084 0 60 26.916 60 60v40c0 33.084-26.916 60-60 60zm-40-120c-11.028 0-20 8.972-20 20v40c0 11.028 8.972 20 20 20h40c11.028 0 20-8.972 20-20v-40c0-11.028-8.972-20-20-20z"/></g><g><path d="m176 236h-40c-33.084 0-60-26.916-60-60v-40c0-33.084 26.916-60 60-60h40c33.084 0 60 26.916 60 60v40c0 33.084-26.916 60-60 60zm-40-120c-11.028 0-20 8.972-20 20v40c0 11.028 8.972 20 20 20h40c11.028 0 20-8.972 20-20v-40c0-11.028-8.972-20-20-20z"/></g><g><path d="m376 236h-40c-33.084 0-60-26.916-60-60v-40c0-33.084 26.916-60 60-60h40c33.084 0 60 26.916 60 60v40c0 33.084-26.916 60-60 60zm-40-120c-11.028 0-20 8.972-20 20v40c0 11.028 8.972 20 20 20h40c11.028 0 20-8.972 20-20v-40c0-11.028-8.972-20-20-20z"/></g><g><path d="m376 436h-40c-33.084 0-60-26.916-60-60v-40c0-33.084 26.916-60 60-60h40c33.084 0 60 26.916 60 60v40c0 33.084-26.916 60-60 60zm-40-120c-11.028 0-20 8.972-20 20v40c0 11.028 8.972 20 20 20h40c11.028 0 20-8.972 20-20v-40c0-11.028-8.972-20-20-20z"/></g></g></svg>