<svg id="Capa_1" enable-background="new 0 0 512 512" height="512" viewBox="0 0 512 512" width="512" xmlns="http://www.w3.org/2000/svg"><g><path d="m336 276h-40c-11.046 0-20 8.954-20 20s8.954 20 20 20h40c11.046 0 20-8.954 20-20s-8.954-20-20-20z"/><path d="m20 120c11.046 0 20-8.954 20-20v-40c0-11.028 8.972-20 20-20h40c11.046 0 20-8.954 20-20s-8.954-20-20-20h-40c-33.084 0-60 26.916-60 60v40c0 11.046 8.954 20 20 20z"/><path d="m512 60c0-33.084-26.916-60-60-60h-40c-11.046 0-20 8.954-20 20s8.954 20 20 20h40c11.028 0 20 8.972 20 20v40c0 11.046 8.954 20 20 20s20-8.954 20-20z"/><path d="m412 512h40c33.084 0 60-26.916 60-60v-40c0-11.046-8.954-20-20-20s-20 8.954-20 20v40c0 11.028-8.972 20-20 20h-40c-11.046 0-20 8.954-20 20s8.954 20 20 20z"/><path d="m60 512h40c11.046 0 20-8.954 20-20s-8.954-20-20-20h-40c-11.028 0-20-8.972-20-20v-40c0-11.046-8.954-20-20-20s-20 8.954-20 20v40c0 33.084 26.916 60 60 60z"/><path d="m236 136c0-33.084-26.916-60-60-60h-40c-33.084 0-60 26.916-60 60v40c0 33.084 26.916 60 60 60h40c33.084 0 60-26.916 60-60zm-40 40c0 11.028-8.972 20-20 20h-40c-11.028 0-20-8.972-20-20v-40c0-11.028 8.972-20 20-20h40c11.028 0 20 8.972 20 20z"/><path d="m276 136v40c0 33.084 26.916 60 60 60h40c33.084 0 60-26.916 60-60v-40c0-33.084-26.916-60-60-60h-40c-33.084 0-60 26.916-60 60zm40 0c0-11.028 8.972-20 20-20h40c11.028 0 20 8.972 20 20v40c0 11.028-8.972 20-20 20h-40c-11.028 0-20-8.972-20-20z"/><path d="m176 276h-40c-33.084 0-60 26.916-60 60v40c0 33.084 26.916 60 60 60h40c33.084 0 60-26.916 60-60v-40c0-33.084-26.916-60-60-60zm20 100c0 11.028-8.972 20-20 20h-40c-11.028 0-20-8.972-20-20v-40c0-11.028 8.972-20 20-20h40c11.028 0 20 8.972 20 20z"/><path d="m296 436h80c33.084 0 60-26.916 60-60v-80c0-11.046-8.954-20-20-20s-20 8.954-20 20v80c0 11.028-8.972 20-20 20h-20v-20c0-11.046-8.954-20-20-20s-20 8.954-20 20v20h-20c-11.046 0-20 8.954-20 20s8.954 20 20 20z"/></g></svg>