<svg id="Capa_1" enable-background="new 0 0 512 512" height="512" viewBox="0 0 512 512" width="512" xmlns="http://www.w3.org/2000/svg"><g id="Scrum"><g><path d="m256 240c-11.046 0-20-8.954-20-20v-80c0-11.046 8.954-20 20-20s20 8.954 20 20v80c0 11.046-8.954 20-20 20z"/></g><g><path d="m452 280h-365.758c-4.584-12.946-7.637-26.318-9.141-40h18.899c11.046 0 20-8.954 20-20s-8.954-20-20-20h-18.883c3.85-34.666 17.581-66.39 38.311-92.288l13.293 13.293c7.811 7.811 20.474 7.811 28.284 0 7.811-7.811 7.811-20.474 0-28.284l-13.293-13.293c25.898-20.73 57.622-34.461 92.288-38.311v18.883c0 11.046 8.954 20 20 20s20-8.954 20-20v-18.883c34.666 3.85 66.39 17.581 92.288 38.311l-13.293 13.293c-7.811 7.81-7.811 20.474 0 28.284 7.811 7.811 20.474 7.811 28.284 0l13.293-13.293c20.729 25.898 34.461 57.622 38.311 92.288h-18.883c-11.046 0-20 8.954-20 20s8.954 20 20 20h40c11.046 0 20-8.954 20-20 0-121.596-98.404-220-220-220s-220 98.404-220 220c0 21.208 2.969 41.946 8.839 61.945-25.767 6.734-44.839 30.207-44.839 58.055v72c0 33.084 26.916 60 60 60h36c11.028 0 20 8.972 20 20 0 11.046 8.954 20 20 20s20-8.954 20-20c0-11.028 8.972-20 20-20h160c11.028 0 20 8.972 20 20 0 11.046 8.954 20 20 20s20-8.954 20-20c0-11.028 8.972-20 20-20h36c33.084 0 60-26.916 60-60v-72c0-33.084-26.916-60-60-60zm20 132c0 11.028-8.972 20-20 20h-36c-15.353 0-29.377 5.796-40 15.315-10.623-9.519-24.647-15.315-40-15.315h-160c-15.353 0-29.377 5.796-40 15.315-10.623-9.519-24.647-15.315-40-15.315h-36c-11.028 0-20-8.972-20-20v-72c0-11.028 8.972-20 20-20h12.51c.047 0 .094.005.141.005.034 0 .067-.005.101-.005h379.248c11.028 0 20 8.972 20 20z"/><circle cx="256" cy="376" r="20"/><circle cx="336" cy="376" r="20"/><circle cx="176" cy="376" r="20"/></g></g></svg>