<svg id="Capa_1" enable-background="new 0 0 512 512" height="512" viewBox="0 0 512 512" width="512" xmlns="http://www.w3.org/2000/svg"><g id="Sever_1_"><g><path d="m452 236c33.084 0 60-26.916 60-60v-80c0-33.084-26.916-60-60-60h-392c-33.084 0-60 26.916-60 60v80c0 33.084 26.916 60 60 60h20v40h-20c-33.084 0-60 26.916-60 60v80c0 33.084 26.916 60 60 60h392c33.084 0 60-26.916 60-60v-80c0-33.084-26.916-60-60-60h-20v-40zm20 100v80c0 11.028-8.972 20-20 20h-392c-11.028 0-20-8.972-20-20v-80c0-11.028 8.972-20 20-20h392c11.028 0 20 8.972 20 20zm-352-60v-40h212c11.046 0 20-8.954 20-20s-8.954-20-20-20h-272c-11.028 0-20-8.972-20-20v-80c0-11.028 8.972-20 20-20h392c11.028 0 20 8.972 20 20v80c0 11.028-8.972 20-20 20h-40c-11.046 0-20 8.954-20 20v60z"/><path d="m252 116h-152c-11.046 0-20 8.954-20 20s8.954 20 20 20h152c11.046 0 20-8.954 20-20s-8.954-20-20-20z"/><circle cx="332" cy="136" r="20"/><circle cx="412" cy="136" r="20"/></g><g><circle cx="412" cy="376" r="20"/></g><g><circle cx="332" cy="376" r="20"/></g><g><path d="m252 396h-152c-11.046 0-20-8.954-20-20s8.954-20 20-20h152c11.046 0 20 8.954 20 20s-8.954 20-20 20z"/></g></g></svg>