<svg id="Capa_1" enable-background="new 0 0 512 512" height="512" viewBox="0 0 512 512" width="512" xmlns="http://www.w3.org/2000/svg"><g id="Server"><g><path d="m512 212c0-33.084-26.916-60-60-60h-20.504c-11.046 0-20 8.954-20 20s8.954 20 20 20h20.504c11.028 0 20 8.972 20 20v80c0 11.028-8.972 20-20 20h-392c-11.028 0-20-8.972-20-20v-80c0-11.028 8.972-20 20-20h20.505c11.046 0 20-8.954 20-20s-8.954-20-20-20h-20.505c-33.084 0-60 26.916-60 60v80c0 15.356 5.805 29.376 15.327 40-9.522 10.624-15.327 24.644-15.327 40v80c0 33.084 26.916 60 60 60h392c33.084 0 60-26.916 60-60v-80c0-15.356-5.805-29.376-15.327-40 9.522-10.624 15.327-24.644 15.327-40zm-40 240c0 11.028-8.972 20-20 20h-392c-11.028 0-20-8.972-20-20v-80c0-11.028 8.972-20 20-20h392c11.028 0 20 8.972 20 20z"/><path d="m416 392h-40c-11.046 0-20 8.954-20 20s8.954 20 20 20h40c11.046 0 20-8.954 20-20s-8.954-20-20-20z"/><path d="m376 272h40c11.046 0 20-8.954 20-20s-8.954-20-20-20h-40c-11.046 0-20 8.954-20 20s8.954 20 20 20z"/><circle cx="96" cy="412" r="20"/><circle cx="176" cy="412" r="20"/><circle cx="96" cy="252" r="20"/></g><g><path d="m256 272c-14.624 0-28.715-5.323-39.675-14.989l-39.655-34.973c-25.846-22.784-40.67-55.602-40.67-90.038v-52c0-14.806 8.119-28.333 21.188-35.305l70.601-37.658c8.631-4.604 18.386-7.037 28.211-7.037s19.58 2.433 28.211 7.037l70.602 37.658c13.068 6.971 21.187 20.499 21.187 35.305v52c0 34.428-14.819 67.242-40.657 90.028l-39.668 34.983c-10.96 9.666-25.05 14.989-39.675 14.989zm-79.986-192.012-.014 52.012c0 22.958 9.887 44.84 27.124 60.036l39.658 34.975c3.649 3.217 8.343 4.989 13.218 4.989s9.569-1.772 13.218-4.989l39.668-34.984c17.231-15.196 27.114-37.074 27.114-60.027v-52l-70.614-37.67c-2.899-1.546-6.057-2.33-9.386-2.33s-6.487.784-9.387 2.33z"/></g></g></svg>