<svg id="Capa_1" enable-background="new 0 0 512 512" height="512" viewBox="0 0 512 512" width="512" xmlns="http://www.w3.org/2000/svg"><g id="Server"><g><path d="m512 60c0-33.084-26.916-60-60-60h-392c-33.084 0-60 26.916-60 60v80c0 15.355 5.805 29.376 15.327 40-9.522 10.624-15.327 24.645-15.327 40v80c0 33.084 26.916 60 60 60h176v35.44c-17.018 6.036-30.524 19.541-36.56 36.56h-143.44c-11.046 0-20 8.954-20 20s8.954 20 20 20h143.44c8.256 23.278 30.487 40 56.56 40s48.303-16.722 56.56-40h143.44c11.046 0 20-8.954 20-20s-8.954-20-20-20h-143.44c-6.036-17.018-19.541-30.524-36.56-36.56v-35.44h176c33.084 0 60-26.916 60-60v-80c0-15.355-5.805-29.376-15.327-40 9.522-10.624 15.327-24.645 15.327-40zm-256 412c-11.028 0-20-8.972-20-20s8.972-20 20-20 20 8.972 20 20-8.972 20-20 20zm216-172c0 11.028-8.972 20-20 20h-392c-11.028 0-20-8.972-20-20v-80c0-11.028 8.972-20 20-20 11.046 0 20-8.954 20-20s-8.954-20-20-20c-11.028 0-20-8.972-20-20v-80c0-11.028 8.972-20 20-20h392c11.028 0 20 8.972 20 20v80c0 11.028-8.972 20-20 20h-312c-11.046 0-20 8.954-20 20s8.954 20 20 20h312c11.028 0 20 8.972 20 20z"/><circle cx="100" cy="260" r="20"/><circle cx="180" cy="260" r="20"/><circle cx="180" cy="100" r="20"/><circle cx="100" cy="100" r="20"/></g><g><path d="m412 280h-80c-11.046 0-20-8.954-20-20s8.954-20 20-20h80c11.046 0 20 8.954 20 20s-8.954 20-20 20z"/></g><g><path d="m412 120h-80c-11.046 0-20-8.954-20-20s8.954-20 20-20h80c11.046 0 20 8.954 20 20s-8.954 20-20 20z"/></g></g></svg>