<svg id="Capa_1" enable-background="new 0 0 512 512" height="512" viewBox="0 0 512 512" width="512" xmlns="http://www.w3.org/2000/svg"><g id="Server"><g><path d="m316 496h-120c-11.046 0-20-8.954-20-20s8.954-20 20-20h120c11.046 0 20 8.954 20 20s-8.954 20-20 20z"/></g><g><path d="m156 16h-76c-44.112 0-80 35.888-80 80v240c0 44.112 35.888 80 80 80h18v40h-78c-11.046 0-20 8.954-20 20s8.954 20 20 20h98c11.046 0 20-8.954 20-20v-60h18c44.112 0 80-35.888 80-80v-240c0-44.112-35.888-80-80-80zm40 320c0 22.056-17.944 40-40 40h-76c-22.056 0-40-17.944-40-40v-240c0-22.056 17.944-40 40-40h76c22.056 0 40 17.944 40 40z"/><circle cx="118" cy="116" r="20"/><circle cx="118" cy="196" r="20"/><path d="m138 296h-40c-11.046 0-20 8.954-20 20s8.954 20 20 20h40c11.046 0 20-8.954 20-20s-8.954-20-20-20z"/><path d="m432 416c44.112 0 80-35.888 80-80v-240c0-44.112-35.888-80-80-80h-76c-44.112 0-80 35.888-80 80v240c0 44.112 35.888 80 80 80h18v60c0 11.046 8.954 20 20 20h98c11.046 0 20-8.954 20-20s-8.954-20-20-20h-78v-40zm-116-80v-240c0-22.056 17.944-40 40-40h76c22.056 0 40 17.944 40 40v240c0 22.056-17.944 40-40 40h-76c-22.056 0-40-17.944-40-40z"/><circle cx="394" cy="116" r="20"/><circle cx="394" cy="196" r="20"/><path d="m434 316c0-11.046-8.954-20-20-20h-40c-11.046 0-20 8.954-20 20s8.954 20 20 20h40c11.046 0 20-8.954 20-20z"/></g></g></svg>