<svg id="Capa_1" enable-background="new 0 0 512 512" height="512" viewBox="0 0 512 512" width="512" xmlns="http://www.w3.org/2000/svg"><g id="Server"><g><path d="m492 472h-116c-11.046 0-20-8.954-20-20s8.954-20 20-20h116c11.046 0 20 8.954 20 20s-8.954 20-20 20z"/></g><g><path d="m136 472h-116c-11.046 0-20-8.954-20-20s8.954-20 20-20h116c11.046 0 20 8.954 20 20s-8.954 20-20 20z"/></g><g><path d="m512 120v-40c0-44.112-35.888-80-80-80h-352c-44.112 0-80 35.888-80 80v40c0 23.877 10.528 45.329 27.169 60-16.641 14.671-27.169 36.123-27.169 60v40c0 44.112 35.888 80 80 80h156v35.44c-23.278 8.256-40 30.487-40 56.56 0 33.084 26.916 60 60 60s60-26.916 60-60c0-26.073-16.722-48.304-40-56.56v-35.44h156c44.112 0 80-35.888 80-80v-40c0-23.877-10.528-45.329-27.169-60 16.641-14.671 27.169-36.123 27.169-60zm-256 352c-11.028 0-20-8.972-20-20s8.972-20 20-20 20 8.972 20 20-8.972 20-20 20zm216-192c0 22.056-17.944 40-40 40h-352c-22.056 0-40-17.944-40-40v-40c0-22.056 17.944-40 40-40h352c22.056 0 40 17.944 40 40zm0-160c0 22.056-17.944 40-40 40h-352c-22.056 0-40-17.944-40-40v-40c0-22.056 17.944-40 40-40h352c22.056 0 40 17.944 40 40z"/><circle cx="176" cy="100" r="20"/><circle cx="256" cy="100" r="20"/><circle cx="176" cy="260" r="20"/><circle cx="256" cy="260" r="20"/><circle cx="336" cy="100" r="20"/><circle cx="336" cy="260" r="20"/></g></g></svg>