<svg id="Capa_1" enable-background="new 0 0 512 512" height="512" viewBox="0 0 512 512" width="512" xmlns="http://www.w3.org/2000/svg"><g><path d="m492 392c11.046 0 20-8.954 20-20s-8.954-20-20-20h-22.011c-2.598-12.749-7.634-24.621-14.591-35.114l15.597-15.597c7.81-7.81 7.81-20.474 0-28.284-7.811-7.811-20.475-7.811-28.285 0l-15.597 15.597c-10.492-6.957-22.364-11.993-35.113-14.591v-22.011c0-11.046-8.954-20-20-20s-20 8.954-20 20v22.011c-12.749 2.598-24.621 7.634-35.113 14.591l-15.597-15.597c-7.811-7.811-20.475-7.811-28.285 0s-7.81 20.474 0 28.284l15.597 15.597c-6.957 10.493-11.993 22.364-14.591 35.114h-22.011c-11.046 0-20 8.954-20 20s8.954 20 20 20h22.011c2.598 12.749 7.634 24.621 14.591 35.114l-15.597 15.597c-7.81 7.81-7.81 20.474 0 28.284s20.475 7.81 28.285 0l15.597-15.597c10.492 6.957 22.364 11.993 35.113 14.591v22.011c0 11.046 8.954 20 20 20s20-8.954 20-20v-22.011c12.749-2.598 24.621-7.634 35.113-14.591l15.597 15.597c7.81 7.81 20.475 7.81 28.285 0 7.81-7.811 7.81-20.474 0-28.284l-15.597-15.597c6.957-10.493 11.993-22.364 14.591-35.114zm-120 40c-33.084 0-60-26.916-60-60s26.916-60 60-60 60 26.916 60 60-26.916 60-60 60z"/><path d="m180 492c11.046 0 20-8.954 20-20s-8.954-20-20-20c-80.128 0-140-31.677-140-60v-35.962c38.583 26.082 93.428 35.962 140 35.962 11.046 0 20-8.954 20-20s-8.954-20-20-20c-80.128 0-140-31.677-140-60v-31.962c38.583 26.082 93.428 35.962 140 35.962 11.046 0 20-8.954 20-20s-8.954-20-20-20c-80.128 0-140-31.677-140-60v-31.962c38.583 26.082 93.428 35.962 140 35.962 46.485 0 101.35-9.836 140-35.961v27.961c0 11.046 8.954 20 20 20s20-8.954 20-20v-92c0-58.557-81.632-100-180-100-98.276 0-180 41.379-180 100v292c0 58.535 81.588 100 180 100zm0-452c80.128 0 140 31.677 140 60s-59.872 60-140 60-140-31.677-140-60 59.872-60 140-60z"/><circle cx="372" cy="372" r="20"/></g></svg>