<svg id="Capa_1" enable-background="new 0 0 512 512" height="512" viewBox="0 0 512 512" width="512" xmlns="http://www.w3.org/2000/svg"><g><g id="Smartphone_00000130636228896598891290000007166178279792095675_"><g><path d="m402 396h-20c-11 0-20-9-20-20s9-20 20-20h20c11 0 20 9 20 20s-9 20-20 20z"/></g><g><path d="m220 316c-5.1 0-10.2-2-14.1-5.9l-40-40c-5.7-5.7-7.4-14.3-4.3-21.8s10.4-12.3 18.5-12.3h103.7l-5.9-5.9c-7.8-7.8-7.8-20.5 0-28.3s20.5-7.8 28.3 0l40 40c5.7 5.7 7.4 14.3 4.3 21.8s-10.4 12.3-18.5 12.3h-103.7l5.9 5.9c7.8 7.8 7.8 20.5 0 28.3-4 3.9-9.1 5.9-14.2 5.9z"/></g><g><path d="m160 476h-80c-44.1 0-80-35.9-80-80v-280c0-44.1 35.9-80 80-80h80c44.1 0 80 35.9 80 80v60c0 11-9 20-20 20s-20-9-20-20v-60c0-22.1-17.9-40-40-40h-80c-22.1 0-40 17.9-40 40v280c0 22.1 17.9 40 40 40h80c22.1 0 40-17.9 40-40v-20c0-11 9-20 20-20s20 9 20 20v20c0 44.1-35.9 80-80 80z"/></g><g><path d="m432 476h-80c-44.1 0-80-35.9-80-80v-60c0-11 9-20 20-20s20 9 20 20v60c0 22.1 17.9 40 40 40h80c22.1 0 40-17.9 40-40v-280c0-22.1-17.9-40-40-40h-80c-22.1 0-40 17.9-40 40v20c0 11-9 20-20 20s-20-9-20-20v-20c0-44.1 35.9-80 80-80h80c44.1 0 80 35.9 80 80v280c0 44.1-35.9 80-80 80z"/></g></g><g><path d="m130 396h-20c-11 0-20-9-20-20s9-20 20-20h20c11 0 20 9 20 20s-9 20-20 20z"/></g></g></svg>