<svg id="Capa_1" enable-background="new 0 0 512 512" height="512" viewBox="0 0 512 512" width="512" xmlns="http://www.w3.org/2000/svg"><g><circle cx="256" cy="216" r="20"/><path d="m242.242 350.517c3.858 3.655 8.808 5.483 13.758 5.483s9.9-1.828 13.758-5.483c12.042-11.409 86.242-84.073 86.242-134.517 0-55.14-44.859-100-100-100s-100 44.86-100 100c0 50.444 74.2 123.108 86.242 134.517zm13.758-194.517c33.084 0 60 26.916 60 60 0 20.958-31.615 62.046-59.93 91.67-18.17-19.082-60.07-66.819-60.07-91.67 0-33.084 26.916-60 60-60z"/><path d="m136 512h240c33.084 0 60-26.916 60-60v-392c0-33.084-26.916-60-60-60h-240c-33.084 0-60 26.916-60 60v392c0 33.084 26.916 60 60 60zm-20-452c0-11.028 8.972-20 20-20h100v20c0 11.046 8.954 20 20 20s20-8.954 20-20v-20h100c11.028 0 20 8.972 20 20v332h-220c-11.046 0-20 8.954-20 20s8.954 20 20 20h220v20c0 11.028-8.972 20-20 20h-240c-11.028 0-20-8.972-20-20z"/></g></svg>