<svg id="Capa_1" enable-background="new 0 0 512 512" height="512" viewBox="0 0 512 512" width="512" xmlns="http://www.w3.org/2000/svg"><g id="Smartphone"><path d="m176 256c0 77.196 62.804 140 140 140s140-62.804 140-140c0-70.406-52.245-128.831-120-138.565v-57.435c0-33.084-26.916-60-60-60h-160c-33.084 0-60 26.916-60 60v392c0 33.084 26.916 60 60 60h160c30.979 0 56.647-23.225 59.705-54.024 1.091-10.992-6.935-20.787-17.926-21.878-10.99-1.084-20.787 6.935-21.878 17.926-1.018 10.248-9.573 17.976-19.901 17.976h-60v-20c0-11.046-8.954-20-20-20s-20 8.954-20 20v20h-60c-11.028 0-20-8.972-20-20v-392c0-11.028 8.972-20 20-20h160c11.028 0 20 8.972 20 20v57.435c-67.755 9.734-120 68.159-120 138.565zm120.575 20h38.849c-2.545 43.399-12.971 69.987-19.425 78.185-6.453-8.198-16.879-34.786-19.424-78.185zm0-40c2.545-43.399 12.971-69.987 19.425-78.185 6.454 8.198 16.88 34.786 19.425 78.185zm-29.082-67.42c-6.116 19.675-9.714 43.165-10.975 67.42h-38.507c5.906-28.983 24.392-53.442 49.482-67.42zm-49.482 107.42h38.507c1.262 24.255 4.859 47.745 10.975 67.42-25.09-13.978-43.576-38.437-49.482-67.42zm146.496 67.42c6.116-19.675 9.714-43.165 10.975-67.42h38.506c-5.905 28.983-24.391 53.442-49.481 67.42zm49.482-107.42h-38.506c-1.262-24.255-4.859-47.745-10.975-67.42 25.089 13.978 43.575 38.437 49.481 67.42z"/><g><circle cx="196" cy="100" r="20"/></g></g></svg>