<svg id="Capa_1" enable-background="new 0 0 512 512" height="512" viewBox="0 0 512 512" width="512" xmlns="http://www.w3.org/2000/svg"><g><path d="m390.181 281.492c-7.864-7.757-20.525-7.672-28.284.191l-39.729 40.269c-7.758 7.863-7.672 20.526.19 28.283 7.864 7.758 20.527 7.672 28.284-.191l39.729-40.269c7.758-7.862 7.672-20.525-.19-28.283z"/><path d="m442.482 354.128c10.428 3.628 21.831-1.885 25.461-12.318 5.613-16.136 8.292-31.43 8.188-46.755-.519-76.986-62.983-139.056-139.971-139.056-77.765 0-140.547 63.18-140.023 140.944.104 15.326 2.988 30.583 8.819 46.641 3.769 10.383 15.243 15.744 25.625 11.973 10.383-3.77 15.743-15.243 11.973-25.625-4.246-11.695-6.346-22.573-6.417-33.258-.374-55.269 44.054-100.299 99.323-100.672 55.282-.343 100.299 44.043 100.671 99.324.073 10.683-1.879 21.589-5.968 33.341-3.628 10.433 1.887 21.832 12.319 25.461z"/><path d="m335.865 116c11.046 0 20-8.954 20-20v-36c0-33.084-26.916-60-60-60h-200c-33.084 0-60 26.916-60 60v392c0 33.084 26.916 60 60 60h200c33.084 0 60-26.916 60-60v-40c0-11.046-8.954-20-20-20s-20 8.954-20 20v40c0 11.028-8.972 20-20 20h-200c-11.028 0-20-8.972-20-20v-392c0-11.028 8.972-20 20-20h200c11.028 0 20 8.972 20 20v36c0 11.046 8.954 20 20 20z"/><path d="m175.865 392c-11.046 0-20 8.954-20 20s8.954 20 20 20h40c11.046 0 20-8.954 20-20s-8.954-20-20-20z"/></g></svg>