<svg id="Capa_1" enable-background="new 0 0 512 512" height="512" viewBox="0 0 512 512" width="512" xmlns="http://www.w3.org/2000/svg"><g id="Smartphone_2_"><g><path d="m372 40h-20v-20c0-11.046-8.954-20-20-20s-20 8.954-20 20v20h-20c-11.046 0-20 8.954-20 20s8.954 20 20 20h20v100c0 11.046 8.954 20 20 20s20-8.954 20-20v-100h20c11.046 0 20-8.954 20-20s-8.954-20-20-20z"/><path d="m492 120h-20v-100c0-11.046-8.954-20-20-20s-20 8.954-20 20v100h-20c-11.046 0-20 8.954-20 20s8.954 20 20 20h20v20c0 11.046 8.954 20 20 20s20-8.954 20-20v-20h20c11.046 0 20-8.954 20-20s-8.954-20-20-20z"/></g><g><path d="m252 109.296c-11.046 0-20 8.954-20 20v262.704h-132c-11.046 0-20 8.954-20 20s8.954 20 20 20h132v20c0 11.028-8.972 20-20 20h-152c-11.028 0-20-8.972-20-20v-392c0-11.028 8.972-20 20-20h152c1.705 0 3.391.211 5.01.627 10.699 2.749 21.6-3.69 24.351-14.388 2.751-10.697-3.69-21.6-14.388-24.351-4.871-1.253-9.91-1.888-14.973-1.888h-152c-33.084 0-60 26.916-60 60v392c0 33.084 26.916 60 60 60h152c33.084 0 60-26.916 60-60v-322.704c0-11.046-8.954-20-20-20z"/><path d="m120 80c-11.046 0-20 8.954-20 20s8.954 20 20 20h32c11.046 0 20-8.954 20-20s-8.954-20-20-20z"/></g></g></svg>