<svg id="Layer_1" enable-background="new 0 0 512 512" height="512" viewBox="0 0 512 512" width="512" xmlns="http://www.w3.org/2000/svg"><path d="m259 512h-139c-66.168 0-120-53.832-120-120v-272c0-66.168 53.832-120 120-120h6c11.046 0 20 8.954 20 20s-8.954 20-20 20h-6c-44.112 0-80 35.888-80 80v272c0 44.112 35.888 80 80 80h139c44.112 0 80-35.888 80-80v-69c0-11.046 8.954-20 20-20s20 8.954 20 20v69c0 66.168-53.832 120-120 120zm-78.858-253.858 1.808-1.808c9.733-9.733 24.53-12.164 36.818-6.045 18.274 9.098 38.014 13.711 58.668 13.71h.064 101.991.063c35.108 0 68.177-13.518 93.12-38.067 25.019-24.625 38.983-57.525 39.32-92.641.342-35.64-13.211-69.143-38.165-94.337-24.88-25.12-58.203-38.954-93.829-38.954h-102c-35.384 0-68.659 13.922-93.697 39.201-25.013 25.255-38.612 58.631-38.298 93.992l-.005 110.806c0 8.089 4.872 15.382 12.346 18.479 2.475 1.025 5.073 1.523 7.65 1.523 5.204-.001 10.32-2.033 14.146-5.859zm97.304-34.142c-14.421 0-28.165-3.202-40.851-9.518-16.079-8.006-34.054-9.527-50.594-5.107l.004-76.274c0-.064 0-.129-.001-.193-.237-24.642 9.252-47.924 26.719-65.559 17.468-17.636 40.65-27.349 65.277-27.349h102c24.869 0 48.099 9.625 65.409 27.103 17.384 17.552 26.826 40.921 26.586 65.805-.482 50.239-41.944 91.096-92.442 91.092-.015 0-.039-.001-.053 0h-102.009c-.015 0-.03 0-.045 0zm158.554-92c0 13.807-11.193 25-25 25s-25-11.193-25-25c0-13.807 11.193-25 25-25s25 11.193 25 25zm-80 0c0 13.807-11.193 25-25 25s-25-11.193-25-25c0-13.807 11.193-25 25-25s25 11.193 25 25zm-80 0c0 13.807-11.193 25-25 25s-25-11.193-25-25c0-13.807 11.193-25 25-25s25 11.193 25 25zm-60 270c0 13.807-11.193 25-25 25s-25-11.193-25-25c0-13.807 11.193-25 25-25s25 11.193 25 25z"/></svg>