<svg id="Capa_1" enable-background="new 0 0 512.014 512.014" height="512" viewBox="0 0 512.014 512.014" width="512" xmlns="http://www.w3.org/2000/svg"><g id="Tablet"><g><path d="m329.103 512.007h-269.103c-33.084 0-60-26.916-60-60v-392c0-33.084 26.916-60 60-60h280c33.084 0 60 26.916 60 60v103.484c0 11.046-8.954 20-20 20s-20-8.954-20-20v-103.484c0-11.028-8.972-20-20-20h-280c-11.028 0-20 8.972-20 20v392c0 11.028 8.972 20 20 20h269.103c5.342 0 10.365-2.081 14.143-5.858 7.811-7.811 20.474-7.811 28.284 0s7.811 20.474 0 28.284c-11.333 11.333-26.401 17.574-42.427 17.574z"/></g><g><path d="m409.574 447.717-138.883-138.975c-7.44-7.44-12.809-16.729-15.522-26.859 0 0 0 0 0-.001l-17.934-66.956c-1.849-6.901.125-14.265 5.177-19.316 5.052-5.052 12.413-7.026 19.317-5.177l66.956 17.934c10.13 2.713 19.419 8.082 26.864 15.527l138.882 138.976c23.447 23.447 23.442 61.402-.005 84.848-23.391 23.39-61.455 23.396-84.852-.001zm-115.767-176.184c.912 3.404 2.653 6.409 5.174 8.93l138.882 138.975c7.792 7.793 20.481 7.792 28.279-.005 7.817-7.817 7.816-20.467 0-28.284l-138.882-138.976c-2.516-2.516-5.521-4.256-8.924-5.168l-33.502-8.974z"/></g><g><path d="m300 432.007h-40c-11.046 0-20-8.954-20-20s8.954-20 20-20h40c11.046 0 20 8.954 20 20s-8.954 20-20 20z"/></g><g><circle cx="100" cy="412.007" r="20"/></g><g><circle cx="180" cy="412.007" r="20"/></g><g><path d="m100 200.007c-11.046 0-20-8.954-20-20s8.954-20 20-20c11.028 0 20-8.972 20-20 0-33.084 26.916-60 60-60s60 26.916 60 60c0 11.046-8.954 20-20 20s-20-8.954-20-20c0-11.028-8.972-20-20-20s-20 8.972-20 20c0 33.084-26.916 60-60 60z"/></g></g></svg>