<svg id="Capa_1" enable-background="new 0 0 512.004 512.004" height="512" viewBox="0 0 512.004 512.004" width="512" xmlns="http://www.w3.org/2000/svg"><g><path d="m80 512.002h352c44.112 0 80-35.888 80-80v-331.923c0-.026.004-.051.004-.077s-.004-.051-.004-.077v-19.923c0-44.112-35.888-80-80-80h-352c-44.112 0-80 35.888-80 80v352c0 44.112 35.888 80 80 80zm392-432h-272v-40h232c22.056 0 40 17.944 40 40zm-432 0c0-22.056 17.944-40 40-40h80v40h-60c-11.045 0-20 8.954-20 20s8.955 20 20 20h372v312c0 22.056-17.944 40-40 40h-352c-22.056 0-40-17.944-40-40z"/><path d="m213.336 418.187c.079.081.158.162.238.242 11.333 11.333 26.4 17.574 42.426 17.574 16.027 0 31.094-6.241 42.427-17.574.08-.08 116.134-120.134 116.134-120.134 11.248-11.317 17.439-26.329 17.439-42.293 0-16.027-6.241-31.095-17.574-42.426l-40-40c-11.333-11.333-26.4-17.574-42.427-17.574h-151.999c-16.026 0-31.094 6.241-42.426 17.574l-40 40c-11.333 11.331-17.574 26.399-17.574 42.426 0 15.964 6.191 30.975 17.44 42.292zm-87.478-176.327 40-40c3.778-3.777 8.8-5.858 14.142-5.858h152c5.342 0 10.365 2.081 14.143 5.858l40 40c3.777 3.777 5.857 8.799 5.857 14.142s-2.08 10.365-5.857 14.142c-.08.08-116.099 120.099-116.099 120.099-3.766 3.715-8.748 5.759-14.043 5.759-5.296 0-10.278-2.045-14.044-5.761 0 0-116.018-120.017-116.098-120.097-3.777-3.778-5.858-8.8-5.858-14.142s2.079-10.365 5.857-14.142z"/><path d="m216 236.002c-11.046 0-20 8.954-20 20s8.954 20 20 20h20v20c0 11.046 8.954 20 20 20s20-8.954 20-20v-20h20c11.046 0 20-8.954 20-20s-8.954-20-20-20z"/></g></svg>