<svg id="Capa_1" enable-background="new 0 0 512 512" height="512" viewBox="0 0 512 512" width="512" xmlns="http://www.w3.org/2000/svg"><g id="Webcam_1_"><g><path d="m400 60c0-11.046-8.954-20-20-20h-20v-20c0-11.046-8.954-20-20-20s-20 8.954-20 20v20h-20c-11.046 0-20 8.954-20 20s8.954 20 20 20h20v100c0 11.046 8.954 20 20 20s20-8.954 20-20v-100h20c11.046 0 20-8.954 20-20z"/><path d="m492 120h-20v-100c0-11.046-8.954-20-20-20s-20 8.954-20 20v100h-20c-11.046 0-20 8.954-20 20s8.954 20 20 20h20v20c0 11.046 8.954 20 20 20s20-8.954 20-20v-20h20c11.046 0 20-8.954 20-20s-8.954-20-20-20z"/></g><g><path d="m337.51 267.184c5.357-9.66 1.869-21.833-7.791-27.19-9.661-5.357-21.833-1.869-27.19 7.791-24.702 44.544-71.653 72.215-122.529 72.215-77.196 0-140-62.804-140-140s62.804-140 140-140c14.067 0 27.942 2.075 41.241 6.168 10.558 3.249 21.75-2.676 24.998-13.233 3.249-10.557-2.676-21.749-13.233-24.998-17.114-5.267-34.948-7.937-53.006-7.937-99.252 0-180 80.748-180 180 0 92.492 70.126 168.901 160 178.883v33.117h-60c-33.084 0-60 26.916-60 60s26.916 60 60 60h160c33.084 0 60-26.916 60-60s-26.916-60-60-60h-60v-33.135c57.52-6.434 109.028-40.321 137.51-91.681zm-57.51 184.816c0 11.028-8.972 20-20 20h-160c-11.028 0-20-8.972-20-20s8.972-20 20-20h160c11.028 0 20 8.972 20 20z"/><path d="m80 180c0 55.14 44.86 100 100 100s100-44.86 100-100-44.86-100-100-100-100 44.86-100 100zm160 0c0 33.084-26.916 60-60 60s-60-26.916-60-60 26.916-60 60-60 60 26.916 60 60z"/><circle cx="180" cy="180" r="20"/></g></g></svg>