<svg id="Capa_1" enable-background="new 0 0 512 512" height="512" viewBox="0 0 512 512" width="512" xmlns="http://www.w3.org/2000/svg"><g id="Webcam"><g><path d="m256 280c-55.14 0-100-44.86-100-100s44.86-100 100-100 100 44.86 100 100-44.86 100-100 100zm0-160c-33.084 0-60 26.916-60 60s26.916 60 60 60 60-26.916 60-60-26.916-60-60-60z"/></g><g><circle cx="256" cy="180" r="20"/><path d="m336 392c-11.046 0-20 8.954-20 20s8.954 20 20 20c11.028 0 20 8.972 20 20s-8.972 20-20 20h-160c-11.028 0-20-8.972-20-20s8.972-20 20-20h80c11.046 0 20-8.954 20-20v-53.117c89.874-9.981 160-86.391 160-178.883 0-99.252-80.748-180-180-180s-180 80.748-180 180c0 92.492 70.126 168.901 160 178.883v33.117h-60c-33.084 0-60 26.916-60 60s26.916 60 60 60h160c33.084 0 60-26.916 60-60s-26.916-60-60-60zm-220-212c0-77.196 62.804-140 140-140s140 62.804 140 140-62.804 140-140 140-140-62.804-140-140z"/></g></g></svg>