<svg id="Capa_1" enable-background="new 0 0 512 512" height="512" viewBox="0 0 512 512" width="512" xmlns="http://www.w3.org/2000/svg"><g><circle cx="256" cy="200" r="20"/><path d="m256 432c-11.046 0-20 8.954-20 20v20h-60c-11.046 0-20 8.954-20 20s8.954 20 20 20h160c11.046 0 20-8.954 20-20s-8.954-20-20-20h-60v-20c0-11.046-8.954-20-20-20z"/><path d="m456 200c0-110.276-89.724-200-200-200-110.72 0-200 90.115-200 200 0 110.281 89.72 200 200 200s200-89.719 200-200zm-153.215-153.016c7.824 2.789 13.215 10.496 13.215 19.11v133.906c0 35.837-31.818 65.412-70.225 59.165-28.377-4.616-49.775-31.891-49.775-63.445v-129.626c0-8.614 5.391-16.321 13.215-19.109 14.805-4.537 30.514-6.985 46.785-6.985s31.98 2.448 46.785 6.984zm-46.785 313.016c-88.225 0-160-71.776-160-160 0-50.417 23.446-95.453 60-124.801v120.521c0 54.359 41.1 104.261 99.812 104.258 55.822-.001 100.188-45.062 100.188-99.978v-124.801c36.554 29.348 60 74.385 60 124.801 0 88.224-71.775 160-160 160z"/></g></svg>