<svg id="Capa_1" enable-background="new 0 0 512 512" height="512" viewBox="0 0 512 512" width="512" xmlns="http://www.w3.org/2000/svg"><g id="Webcam_1_"><g><path d="m256 0c-121.596 0-220 98.404-220 220 0 65.208 28.039 123.672 73.923 164.517l-24.673 35.523c-5.123 7.373-9.25 19.657-9.25 31.96 0 33.084 26.916 60 60 60h240c33.084 0 60-26.916 60-60 0-12.403-4.184-24.668-9.25-31.96l-35.247-50.746c-3.088-4.446-7.846-7.45-13.188-8.327s-10.811.45-15.158 3.676c-31.164 23.131-68.219 35.357-107.157 35.357-99.252 0-180-80.748-180-180 0-92.492 70.126-168.901 160-178.883v18.883c0 11.046 8.954 20 20 20s20-8.954 20-20v-18.883c89.874 9.982 160 86.391 160 178.883 0 30.82-7.916 61.222-22.891 87.919-5.404 9.634-1.975 21.824 7.658 27.228s21.823 1.976 27.228-7.658c18.321-32.662 28.005-69.831 28.005-107.489 0-121.596-98.404-220-220-220zm-137.451 442.216 23.545-33.898c34.002 20.65 73.108 31.682 113.906 31.682 40.649 0 79.626-10.908 113.881-31.718l23.57 33.934c1.669 2.967 2.549 6.338 2.549 9.784 0 11.028-8.972 20-20 20h-240c-11.028 0-20-8.972-20-20 0-3.446.879-6.817 2.549-9.784z"/><path d="m156 220c0 55.14 44.86 100 100 100s100-44.86 100-100-44.86-100-100-100-100 44.86-100 100zm160 0c0 33.084-26.916 60-60 60s-60-26.916-60-60 26.916-60 60-60 60 26.916 60 60z"/></g><g><circle cx="256" cy="220" r="20"/></g></g></svg>