<svg id="Capa_1" enable-background="new 0 0 512 512" height="512" viewBox="0 0 512 512" width="512" xmlns="http://www.w3.org/2000/svg"><g><path d="m316 280c8.725 0 17.02-2.763 23.988-7.99l79.999-60c10.027-7.519 16.013-19.485 16.013-32.01 0-12.524-5.986-24.491-16.012-32.01l-80-59.999c-6.968-5.228-15.263-7.991-23.988-7.991-22.056 0-40 17.944-40 40v120c0 22.056 17.944 40 40 40zm79.988-100.01v.02l-79.988 59.99-.012-120.01z"/><path d="m432 0h-352c-44.112 0-80 35.888-80 80v240c0 44.112 35.888 80 80 80h156v72h-60c-11.046 0-20 8.954-20 20s8.954 20 20 20h160c11.046 0 20-8.954 20-20s-8.954-20-20-20h-60v-92c0-11.046-8.954-20-20-20h-176c-22.056 0-40-17.944-40-40v-240c0-22.056 17.944-40 40-40h352c22.056 0 40 17.944 40 40v240c0 22.056-17.944 40-40 40h-96c-11.046 0-20 8.954-20 20s8.954 20 20 20h96c44.112 0 80-35.888 80-80v-240c0-44.112-35.888-80-80-80z"/><path d="m216 140c0-33.084-26.916-60-60-60s-60 26.916-60 60 26.916 60 60 60 60-26.916 60-60zm-60 20c-11.028 0-20-8.972-20-20s8.972-20 20-20 20 8.972 20 20-8.972 20-20 20z"/><path d="m76 280v20c0 11.046 8.954 20 20 20h120c11.046 0 20-8.954 20-20v-20c0-44.112-35.888-80-80-80s-80 35.888-80 80zm80-40c22.056 0 40 17.944 40 40h-80c0-22.056 17.944-40 40-40z"/></g></svg>