<svg width="113" height="144" viewBox="0 0 113 144" fill="none" xmlns="http://www.w3.org/2000/svg">
<rect x="2.44949" y="22.7632" width="78.4863" height="122.791" rx="7.00505" transform="rotate(-15 2.44949 22.7632)" fill="white" stroke="black" stroke-width="4"/>
<rect x="34.2301" y="2.62954" width="78.4863" height="122.791" rx="7.00505" transform="rotate(15 34.2301 2.62954)" fill="white" stroke="black" stroke-width="4"/>
<rect x="17.1251" y="10.453" width="78.4863" height="122.791" rx="7.00505" fill="white" stroke="black" stroke-width="4"/>
<path d="M31.0641 32.9468C28.1825 32.9468 26.6516 31.0197 26.6516 29.1827C26.6516 26.247 29.4972 26.211 29.4972 24.5901V24.3379H32.1987V24.5901C32.1987 27.1835 29.4432 27.1295 29.4432 28.8585C29.4432 29.759 30.0735 30.4254 31.0641 30.4254C32.0907 30.4074 32.4869 29.6509 32.5949 29.3087L34.576 30.6775C33.9817 32.1904 32.5589 32.9468 31.0641 32.9468ZM30.884 23.1133C29.8574 23.1133 29.2451 22.3748 29.2451 21.5284C29.2451 20.6999 29.8574 19.9795 30.884 19.9795C31.8745 19.9795 32.5049 20.6999 32.5049 21.5284C32.5049 22.3748 31.8745 23.1133 30.884 23.1133Z" fill="#F52549"/>
<path d="M81.6725 110.75C84.5541 110.75 86.085 112.677 86.085 114.514C86.085 117.45 83.2394 117.486 83.2394 119.107V119.359H80.5379V119.107C80.5379 116.514 83.2934 116.568 83.2934 114.839C83.2934 113.938 82.6631 113.272 81.6725 113.272C80.6459 113.29 80.2497 114.046 80.1416 114.388L78.1605 113.02C78.7549 111.507 80.1777 110.75 81.6725 110.75ZM81.8526 120.584C82.8792 120.584 83.4915 121.322 83.4915 122.169C83.4915 122.997 82.8792 123.718 81.8526 123.718C80.862 123.718 80.2317 122.997 80.2317 122.169C80.2317 121.322 80.862 120.584 81.8526 120.584Z" fill="#F52549"/>
<path d="M54.1416 43.3926C67.2399 43.3926 74.1983 51.8503 74.1983 59.9128C74.1983 72.7971 61.2638 72.9552 61.2638 80.0692V81.1758H48.9842V80.0692C48.9842 68.6868 61.5094 68.9239 61.5094 61.3357C61.5094 57.3834 58.6441 54.4588 54.1416 54.4588C49.4754 54.5378 47.6743 57.8577 47.1832 59.3595L38.1781 53.3522C40.8796 46.7124 47.3469 43.3926 54.1416 43.3926ZM54.9602 86.5508C59.6265 86.5508 62.4099 89.7916 62.4099 93.5067C62.4099 97.1428 59.6265 100.305 54.9602 100.305C50.4577 100.305 47.5925 97.1428 47.5925 93.5067C47.5925 89.7916 50.4577 86.5508 54.9602 86.5508Z" fill="#F52549"/>
</svg>
