<svg width="819" height="144" viewBox="0 0 819 144" fill="none" xmlns="http://www.w3.org/2000/svg">
<path d="M569.177 132.603C567.065 132.603 565.055 132 563.295 131.045V132H558.268V96.8091H563.295V109.528C565.055 108.573 567.065 107.97 569.227 107.97C576.416 107.97 581.996 113.148 581.996 120.286C581.996 127.425 576.416 132.603 569.177 132.603ZM569.177 127.827C573.35 127.827 576.718 124.71 576.718 120.286C576.718 115.913 573.35 112.746 569.177 112.746C566.563 112.746 564.602 113.801 563.295 115.259V125.314C564.602 126.772 566.563 127.827 569.177 127.827ZM592.786 142.356H587.155L592.937 130.24L582.027 108.573H587.708L595.752 124.359L603.142 108.573H608.873L592.786 142.356Z" fill="#272727"/>
<path fill-rule="evenodd" clip-rule="evenodd" d="M702.723 45.7521L708.868 49.2929L697.163 69.5265H702.981L705.257 73.8686C707.173 77.5242 708.538 82.1469 709.425 86.2188C710.319 90.3246 710.893 94.6446 710.893 97.9243C710.893 103.745 709.474 109.785 703.986 113.328C701.59 114.875 699.055 115.482 697.006 115.763C694.979 116.041 692.878 116.064 691.126 116.064C689.374 116.064 687.274 116.041 685.247 115.763C683.198 115.482 680.663 114.875 678.267 113.328C672.778 109.785 671.36 103.745 671.36 97.9243C671.36 94.6446 671.933 90.3246 672.827 86.2188C673.714 82.1469 675.08 77.5242 676.996 73.8686L679.271 69.5265H688.97L702.723 45.7521ZM684.293 81.1825C682.267 86.5584 681.01 93.9186 681.01 97.9254C681.01 102.509 682.125 104.35 683.508 105.243C684.266 105.732 685.258 106.044 686.56 106.223C687.866 106.402 689.375 106.433 691.126 106.433C692.877 106.433 694.387 106.402 695.693 106.223C696.995 106.044 697.986 105.732 698.744 105.243C700.128 104.35 701.242 102.509 701.242 97.9254C701.242 93.9186 699.985 86.5584 697.96 81.1825H684.293ZM710.988 121.117H671.36V130.62H710.988V121.117Z" fill="#272727"/>
<path d="M761.791 69.5527H800.036V79.0666H771.323V104.857H790.503V114.486H771.323V121.134H800.036V130.648H761.791V69.5527Z" fill="#272727"/>
<path d="M726.799 79.0666V121.134H741.156C743.797 121.134 745.979 118.956 745.979 116.32V83.8809C745.979 81.2445 743.797 79.0666 741.156 79.0666H726.799ZM717.267 69.5527H745.979C751.148 69.5527 755.512 73.9085 755.512 79.0666V121.134C755.512 126.407 751.148 130.648 745.979 130.648H717.267V69.5527Z" fill="#272727"/>
<path d="M636.368 83.8809C636.368 81.2445 638.551 79.0666 641.077 79.0666H650.725C653.366 79.0666 655.549 81.2445 655.549 83.8809V89.383H665.081V79.0666C665.081 73.9085 660.717 69.5527 655.549 69.5527H636.368C631.085 69.5527 626.836 73.9085 626.836 79.0666V121.134C626.836 126.407 631.085 130.648 636.368 130.648H655.549C660.717 130.648 665.081 126.407 665.081 121.134V111.162H655.549V116.32C655.549 118.956 653.366 121.134 650.725 121.134H641.077C638.551 121.134 636.368 118.956 636.368 116.32V83.8809Z" fill="#272727"/>
<path d="M800.019 59.7257H798.362V45.8011H800.019V59.7257Z" fill="#272727"/>
<path d="M793.759 53.5901C794.178 53.5901 794.537 53.2515 794.537 52.8332V48.2116C794.537 47.7932 794.178 47.4546 793.759 47.4546H791.204V53.5901H793.759ZM793.759 55.2436H791.204V59.7257H789.547V45.7812H794.537C795.435 45.7812 796.194 46.5382 796.194 47.4546V53.5901C796.194 53.889 796.114 54.1878 795.974 54.4268C796.114 54.6659 796.194 54.9448 796.194 55.2436V59.7257H794.537V56.0205C794.537 55.6021 794.178 55.2436 793.759 55.2436Z" fill="#272727"/>
<path d="M784.944 53.5901C785.363 53.5901 785.722 53.2515 785.722 52.8332V48.2116C785.722 47.7932 785.363 47.4546 784.944 47.4546H782.389V53.5901H784.944ZM784.944 55.2436H782.389V59.7257H780.732V45.7812H785.722C786.62 45.7812 787.379 46.5382 787.379 47.4546V53.5901C787.379 53.889 787.299 54.1878 787.159 54.4268C787.299 54.6659 787.379 54.9448 787.379 55.2436V59.7257H785.722V56.0205C785.722 55.6021 785.363 55.2436 784.944 55.2436Z" fill="#272727"/>
<path d="M771.897 58.0723V45.8011H773.554V57.2555C773.554 57.6938 773.933 58.0723 774.372 58.0723H776.049C776.508 58.0723 776.887 57.6938 776.887 57.2555V45.8011H778.544V58.0723C778.544 58.9886 777.785 59.7257 776.887 59.7257H773.554C772.636 59.7257 771.897 58.9886 771.897 58.0723Z" fill="#272727"/>
<path d="M768.053 55.2435H764.72V59.7257H763.063V45.8011H764.72V53.5901H768.053V45.8011H769.709V59.7257H768.053V55.2435Z" fill="#272727"/>
<path d="M754.52 47.4546C754.52 46.5382 755.258 45.8011 756.176 45.8011H759.51C760.408 45.8011 761.166 46.5382 761.166 47.4546V50.2833H759.51V48.2912C759.51 47.8331 759.13 47.4546 758.671 47.4546H756.995C756.556 47.4546 756.176 47.8331 756.176 48.2912V57.2555C756.176 57.6938 756.556 58.0723 756.995 58.0723H758.671C759.13 58.0723 759.51 57.6938 759.51 57.2555V55.2435H761.166V58.0723C761.166 58.9886 760.408 59.7456 759.51 59.7456H756.176C755.258 59.7456 754.52 58.9886 754.52 58.0723V47.4546Z" fill="#272727"/>
<path d="M752.352 59.7257H750.695V45.8011H752.352V59.7257Z" fill="#272727"/>
<path d="M738.508 59.7257V45.8011H740.165L743.498 55.622L746.812 45.8011H748.488V59.7257H746.812V50.7016L744.317 58.0723H742.66L740.165 50.7016V59.7257H738.508Z" fill="#272727"/>
<path d="M736.301 59.7257H734.644V45.8011H736.301V59.7257Z" fill="#272727"/>
<path d="M730.78 55.2435H727.447V59.7257H725.79V45.8011H727.447V53.5901H730.78V45.8011H732.437V59.7257H730.78V55.2435Z" fill="#272727"/>
<path d="M717.247 47.4546C717.247 46.5382 717.985 45.8011 718.904 45.8011H722.237C723.135 45.8011 723.893 46.5382 723.893 47.4546V50.2833H722.237V48.2912C722.237 47.8331 721.858 47.4546 721.398 47.4546H719.722C719.283 47.4546 718.904 47.8331 718.904 48.2912V57.2555C718.904 57.6938 719.283 58.0723 719.722 58.0723H721.398C721.858 58.0723 722.237 57.6938 722.237 57.2555V55.2435H723.893V58.0723C723.893 58.9886 723.135 59.7456 722.237 59.7456H718.904C717.985 59.7456 717.247 58.9886 717.247 58.0723V47.4546Z" fill="#272727"/>
<rect x="2.44949" y="22.7632" width="78.4863" height="122.791" rx="7.00505" transform="rotate(-15 2.44949 22.7632)" fill="white" stroke="black" stroke-width="4"/>
<rect x="34.2301" y="2.62954" width="78.4863" height="122.791" rx="7.00505" transform="rotate(15 34.2301 2.62954)" fill="white" stroke="black" stroke-width="4"/>
<rect x="17.125" y="10.453" width="78.4863" height="122.791" rx="7.00505" fill="white" stroke="black" stroke-width="4"/>
<path d="M31.064 32.9468C28.1823 32.9468 26.6515 31.0197 26.6515 29.1827C26.6515 26.247 29.4971 26.211 29.4971 24.5901V24.3379H32.1986V24.5901C32.1986 27.1835 29.443 27.1295 29.443 28.8585C29.443 29.759 30.0734 30.4254 31.064 30.4254C32.0905 30.4074 32.4868 29.6509 32.5948 29.3087L34.5759 30.6775C33.9816 32.1904 32.5588 32.9468 31.064 32.9468ZM30.8839 23.1133C29.8573 23.1133 29.2449 22.3748 29.2449 21.5284C29.2449 20.6999 29.8573 19.9795 30.8839 19.9795C31.8744 19.9795 32.5048 20.6999 32.5048 21.5284C32.5048 22.3748 31.8744 23.1133 30.8839 23.1133Z" fill="#F52549"/>
<path d="M81.6724 110.75C84.554 110.75 86.0848 112.677 86.0848 114.514C86.0848 117.45 83.2393 117.486 83.2393 119.107V119.359H80.5377V119.107C80.5377 116.514 83.2933 116.568 83.2933 114.839C83.2933 113.938 82.6629 113.272 81.6724 113.272C80.6458 113.29 80.2496 114.046 80.1415 114.388L78.1604 113.02C78.7547 111.507 80.1775 110.75 81.6724 110.75ZM81.8525 120.584C82.879 120.584 83.4914 121.322 83.4914 122.169C83.4914 122.997 82.879 123.718 81.8525 123.718C80.8619 123.718 80.2316 122.997 80.2316 122.169C80.2316 121.322 80.8619 120.584 81.8525 120.584Z" fill="#F52549"/>
<path d="M54.1415 43.3926C67.2397 43.3926 74.1982 51.8503 74.1982 59.9128C74.1982 72.7971 61.2637 72.9552 61.2637 80.0692V81.1758H48.984V80.0692C48.984 68.6868 61.5093 68.9239 61.5093 61.3357C61.5093 57.3834 58.644 54.4588 54.1415 54.4588C49.4752 54.5378 47.6742 57.8577 47.183 59.3595L38.178 53.3522C40.8795 46.7124 47.3468 43.3926 54.1415 43.3926ZM54.9601 86.5508C59.6264 86.5508 62.4098 89.7916 62.4098 93.5067C62.4098 97.1428 59.6264 100.305 54.9601 100.305C50.4576 100.305 47.5924 97.1428 47.5924 93.5067C47.5924 89.7916 50.4576 86.5508 54.9601 86.5508Z" fill="#F52549"/>
<path d="M146.725 72.9C138.925 72.9 133 67.35 133 60.075C133 59.625 133.3 59.325 133.75 59.325H137.875C138.325 59.325 138.625 59.55 138.625 60.075C138.625 64.575 142 67.575 146.725 67.575C151.75 67.575 154.975 64.275 154.975 59.4C154.975 54.525 152.05 51.075 147.7 48.525L143.5 46.05C137.5 42.525 133.75 38.175 133.75 31.65C133.75 23.925 139.15 18.675 146.725 18.675C154.225 18.675 159.7 23.775 159.7 31.275C159.7 31.725 159.4 32.025 158.95 32.025H154.825C154.375 32.025 154.075 31.8 154.075 31.275C154.075 26.625 151.075 24 146.725 24C142.3 24 139.45 27.075 139.45 31.65C139.45 36.075 142.075 38.55 146.275 41.1L150.4 43.575C156.925 47.475 160.6 52.425 160.6 59.4C160.6 67.05 154.9 72.9 146.725 72.9ZM168.484 72C168.034 72 167.734 71.7 167.734 71.25V20.25C167.734 19.8 168.034 19.5 168.484 19.5H172.609C173.059 19.5 173.359 19.8 173.359 20.25V71.25C173.359 71.7 173.059 72 172.609 72H168.484ZM183.886 72C183.436 72 183.136 71.7 183.136 71.25V20.25C183.136 19.8 183.436 19.5 183.886 19.5H187.261C187.711 19.5 188.011 19.725 188.236 20.1L197.611 36.075C197.686 36.225 197.836 36.375 198.061 36.375C198.286 36.375 198.436 36.225 198.511 36.075L207.961 20.1C208.186 19.725 208.486 19.5 208.936 19.5H212.311C212.761 19.5 213.061 19.8 213.061 20.25V71.25C213.061 71.7 212.761 72 212.311 72H208.561C208.111 72 207.811 71.7 207.811 71.25V31.875C207.811 31.575 207.586 31.35 207.286 31.35C206.986 31.35 206.836 31.575 206.761 31.725L198.811 45.375C198.661 45.675 198.436 45.825 198.136 45.825C197.836 45.825 197.611 45.675 197.461 45.375L189.436 31.725C189.361 31.575 189.211 31.35 188.911 31.35C188.611 31.35 188.386 31.575 188.386 31.875V71.25C188.386 71.7 188.086 72 187.636 72H183.886ZM223.53 72C223.08 72 222.78 71.7 222.78 71.25V20.325C222.78 19.875 223.08 19.575 223.53 19.575H230.28C241.98 19.575 249.63 29.325 249.63 41.4C249.63 53.475 241.98 63.3 230.28 63.3H229.155C228.705 63.3 228.405 63.6 228.405 64.05V71.25C228.405 71.7 228.105 72 227.655 72H223.53ZM229.155 57.975H230.28C238.905 57.975 243.855 50.475 243.855 41.4C243.855 32.4 238.905 24.825 230.28 24.825H229.155C228.705 24.825 228.405 25.125 228.405 25.575V57.225C228.405 57.675 228.705 57.975 229.155 57.975ZM256.363 72C255.913 72 255.613 71.7 255.613 71.25V20.25C255.613 19.8 255.913 19.5 256.363 19.5H260.563C261.013 19.5 261.313 19.8 261.313 20.25V66C261.313 66.45 261.613 66.75 262.063 66.75H277.888C278.338 66.75 278.638 67.05 278.638 67.5V71.25C278.638 71.7 278.338 72 277.888 72H256.363ZM284.289 72C283.839 72 283.539 71.7 283.539 71.25V20.25C283.539 19.8 283.839 19.5 284.289 19.5H307.314C307.764 19.5 308.064 19.8 308.064 20.25V24.075C308.064 24.525 307.764 24.825 307.314 24.825H289.914C289.464 24.825 289.164 25.125 289.164 25.725V37.275C289.164 37.725 289.464 38.025 289.914 38.025H307.314C307.764 38.025 308.064 38.325 308.064 38.775V42.525C308.064 42.975 307.764 43.275 307.314 43.275H289.914C289.464 43.275 289.164 43.575 289.164 44.025V65.925C289.164 66.375 289.464 66.675 289.914 66.675H307.314C307.764 66.675 308.064 66.975 308.064 67.425V71.25C308.064 71.7 307.764 72 307.314 72H284.289Z" fill="#02B5B9"/>
<path d="M151.975 132.75C139.9 132.75 134.275 125.475 131.875 119.175L142.15 113.175C143.5 117.45 146.8 120.375 151.975 120.375C156.625 120.375 159.175 118.725 159.175 115.725C159.175 112.8 156.85 111.375 153.85 110.85L148.9 109.95C141.325 108.6 134.8 103.875 134.8 94.35C134.8 87.3 140.875 78.75 153.475 78.75C162.25 78.75 168.1 83.175 171.025 88.8L160.675 95.325C159.85 92.925 157.675 90.375 153.475 90.375C150.4 90.375 147.925 92.025 147.925 94.2C147.925 96.225 149.425 97.575 152.125 98.1L157.375 99.15C167.35 101.175 172.675 106.875 172.675 115.725C172.675 124.725 165.325 132.75 151.975 132.75ZM194.556 132.825C183.006 132.825 175.281 124.35 175.281 114.6C175.281 104.85 183.006 96.375 194.556 96.375C202.131 96.375 207.756 99.975 210.831 105.225L201.531 111.3C200.406 108.9 197.931 106.95 194.556 106.875C189.906 106.95 186.906 110.4 186.906 114.6C186.906 118.8 189.906 122.25 194.556 122.325C197.556 122.25 199.881 120.75 201.156 118.65L210.381 124.65C207.306 129.525 201.756 132.825 194.556 132.825ZM226.087 132H214.987V97.2H225.637V100.575C227.662 97.8 231.187 96.75 234.712 96.75H237.412V107.325H233.137C228.487 107.325 226.087 110.025 226.087 114.75V132ZM256.089 132.825C244.989 132.825 239.664 125.55 239.664 116.475V97.2H250.914V116.925C250.914 119.55 252.564 122.25 256.089 122.25C259.614 122.25 261.264 119.55 261.264 116.925V97.2H272.514V116.475C272.514 125.55 267.189 132.825 256.089 132.825ZM288.643 132H277.393V97.2H288.193V98.925C289.693 97.65 292.393 96.375 296.218 96.375C301.093 96.375 304.318 98.85 305.743 100.275C306.868 99.225 310.168 96.375 316.093 96.375C324.643 96.375 331.318 102.225 331.318 109.8V132H320.068V112.125C320.068 109.275 318.493 106.575 314.893 106.575C311.893 106.575 309.718 108.975 309.718 112.125V132H298.468V112.125C298.468 109.275 297.043 106.575 293.593 106.575C290.593 106.575 288.643 108.975 288.643 112.125V132ZM367.735 132H354.985V79.5H376.585C386.335 79.5 394.585 87.075 394.585 97.275C394.585 106.95 387.61 115.65 376.585 115.65H367.735V132ZM367.735 90.525V104.25H373.585C377.785 104.25 381.085 101.7 381.085 97.275C381.085 93 377.785 90.525 373.585 90.525H367.735ZM414.292 132.825C402.742 132.825 395.017 124.35 395.017 114.6C395.017 104.85 402.742 96.375 414.292 96.375C425.842 96.375 433.567 104.85 433.567 114.6C433.567 124.35 425.842 132.825 414.292 132.825ZM414.292 122.325C418.942 122.25 421.942 118.8 421.942 114.6C421.942 110.4 418.942 106.95 414.292 106.875C409.642 106.95 406.642 110.4 406.642 114.6C406.642 118.8 409.642 122.25 414.292 122.325ZM459.908 112.575L473.708 132H459.833L449.708 117.15V132H438.458V79.5H449.708V108.375L458.033 97.2H472.058L459.908 112.575ZM489.588 132.825C478.038 132.825 470.313 124.35 470.313 114.6C470.313 104.85 478.038 96.375 489.588 96.375C501.213 96.375 509.013 105.15 508.113 117.675H482.238C483.363 120.675 485.763 122.55 489.588 122.625C492.513 122.55 495.138 121.275 496.413 119.175L505.188 125.475C501.813 129.9 496.413 132.825 489.588 132.825ZM482.463 110.775H496.863C495.663 108.225 493.038 106.275 489.588 106.2C485.988 106.275 483.438 108.225 482.463 110.775ZM524.195 132H513.095V97.2H523.745V100.575C525.77 97.8 529.295 96.75 532.82 96.75H535.52V107.325H531.245C526.595 107.325 524.195 110.025 524.195 114.75V132Z" fill="black"/>
</svg>
