<svg id="Capa_1" enable-background="new 0 0 512 512" height="512" viewBox="0 0 512 512" width="512" xmlns="http://www.w3.org/2000/svg"><g id="Camera_Drone"><path d="m452 76h-20v-36h60c11.046 0 20-8.954 20-20s-8.954-20-20-20h-160c-11.046 0-20 8.954-20 20s8.954 20 20 20h60v56c0 11.046 8.954 20 20 20h40c11.028 0 20 8.972 20 20s-8.972 20-20 20h-76.004c-33.082 0-59.996 26.914-59.996 60.004 0 11.026-8.97 19.996-19.996 19.996h-80.008c-5.341 0-10.363-2.08-14.14-5.857s-5.856-8.8-5.856-14.141c.001-16.027-6.239-31.094-17.57-42.427-11.332-11.334-26.399-17.575-42.426-17.575h-76.004c-11.028 0-20-8.972-20-20s8.972-20 20-20h272c11.046 0 20-8.954 20-20s-8.954-20-20-20h-212v-36h60c11.046 0 20-8.954 20-20s-8.954-20-20-20h-160c-11.046 0-20 8.954-20 20s8.954 20 20 20h60v36h-20c-33.084 0-60 26.916-60 60s26.916 60 60 60h76.004c5.341 0 10.363 2.08 14.14 5.857s5.856 8.8 5.856 14.141c-.001 16.027 6.239 31.094 17.57 42.427 11.332 11.334 26.399 17.575 42.426 17.575h20.004v36h-20c-33.084 0-60 26.916-60 60v80c0 33.084 26.916 60 60 60h80c33.084 0 60-26.916 60-60v-80c0-33.084-26.916-60-60-60h-20v-36h20.004c33.082 0 59.996-26.914 59.996-60.004 0-11.026 8.97-19.996 19.996-19.996h76.004c33.084 0 60-26.916 60-60s-26.916-60-60-60zm-136 296v80c0 11.028-8.972 20-20 20h-80c-11.028 0-20-8.972-20-20v-80c0-11.028 8.972-20 20-20h80c11.028 0 20 8.972 20 20z"/><g><circle cx="256" cy="412" r="20"/></g></g></svg>