<svg id="Capa_1" enable-background="new 0 0 512 512" height="512" viewBox="0 0 512 512" width="512" xmlns="http://www.w3.org/2000/svg"><g id="Camera"><g><path d="m372 40h-20v-20c0-11.046-8.954-20-20-20s-20 8.954-20 20v20h-20c-11.046 0-20 8.954-20 20s8.954 20 20 20h20v92c0 11.046 8.954 20 20 20s20-8.954 20-20v-92h20c11.046 0 20-8.954 20-20s-8.954-20-20-20z"/><path d="m492 112h-20v-92c0-11.046-8.954-20-20-20s-20 8.954-20 20v92h-20c-11.046 0-20 8.954-20 20s8.954 20 20 20h20v20c0 11.046 8.954 20 20 20s20-8.954 20-20v-20h20c11.046 0 20-8.954 20-20s-8.954-20-20-20z"/></g><g><path d="m192 152c-11.046 0-20 8.954-20 20s8.954 20 20 20h40c11.046 0 20-8.954 20-20s-8.954-20-20-20z"/><path d="m112 332c0 55.14 44.86 100 100 100s100-44.86 100-100-44.86-100-100-100-100 44.86-100 100zm160 0c0 33.084-26.916 60-60 60s-60-26.916-60-60 26.916-60 60-60 60 26.916 60 60z"/><path d="m492 232h-40c-33.084 0-60 26.916-60 60v80c0 33.084 26.916 60 60 60h20v20c0 11.028-8.972 20-20 20h-392c-11.028 0-20-8.972-20-20v-240c0-11.028 8.972-20 20-20h20c33.084 0 60-26.916 60-60 0-11.028 8.972-20 20-20h62.704c11.046 0 20-8.954 20-20s-8.954-20-20-20h-62.704c-33.084 0-60 26.916-60 60 0 11.028-8.972 20-20 20h-20c-33.084 0-60 26.916-60 60v240c0 33.084 26.916 60 60 60h392c33.084 0 60-26.916 60-60v-200c0-11.046-8.954-20-20-20zm-40 160c-11.028 0-20-8.972-20-20v-80c0-11.028 8.972-20 20-20h20v120z"/></g></g></svg>