<svg id="Capa_1" enable-background="new 0 0 512 512" height="512" viewBox="0 0 512 512" width="512" xmlns="http://www.w3.org/2000/svg"><g><circle cx="100" cy="296" r="20"/><circle cx="180" cy="296" r="20"/><path d="m452 236c-6.855 0-13.588 1.152-20.01 3.423l-40.052 14.165c-.981-24.669-16.919-45.552-38.981-53.804 14.383-17.323 23.043-39.561 23.043-63.784 0-55.14-44.859-100-100-100-32.676 0-61.74 15.755-80 40.066-18.26-24.311-47.324-40.066-80-40.066-55.14 0-100 44.86-100 100 0 24.223 8.66 46.461 23.043 63.784-22.779 8.52-39.043 30.501-39.043 56.216v160c0 33.084 26.916 60 60 60h272c33.084 0 60-26.916 60-60v-120.006l53.329-18.86c2.127-.753 4.371-1.134 6.671-1.134 11.028 0 20 8.972 20 20v80c0 11.028-8.972 20-20 20-11.046 0-20 8.954-20 20s8.954 20 20 20c33.084 0 60-26.916 60-60v-80c0-33.084-26.916-60-60-60zm-176-160c33.084 0 60 26.916 60 60s-26.916 60-60 60-60-26.916-60-60 26.916-60 60-60zm-160 0c33.084 0 60 26.916 60 60s-26.916 60-60 60-60-26.916-60-60 26.916-60 60-60zm236 340c0 11.028-8.972 20-20 20h-272c-11.028 0-20-8.972-20-20v-160c0-11.028 8.972-20 20-20h272c11.028 0 20 8.972 20 20z"/><path d="m180 356h-80c-11.046 0-20 8.954-20 20s8.954 20 20 20h80c11.046 0 20-8.954 20-20s-8.954-20-20-20z"/><circle cx="276" cy="136" r="20"/><circle cx="116" cy="136" r="20"/></g></svg>