<svg id="Capa_1" enable-background="new 0 0 512 512" height="512" viewBox="0 0 512 512" width="512" xmlns="http://www.w3.org/2000/svg"><g><path d="m404.547 158.708c-9.566-5.522-21.798-2.246-27.32 7.32l-28.851 49.972-75.056-130c-5.522-9.566-17.756-12.844-27.32-7.32-9.565 5.522-12.844 17.754-7.32 27.32l28.868 50h-150.079c-11.046 0-20 8.954-20 20s8.954 20 20 20h57.702l-75.039 129.971c-5.523 9.566-2.245 21.798 7.32 27.32 9.565 5.524 21.798 2.245 27.32-7.32l28.852-49.971 75.056 130c5.523 9.567 17.754 12.844 27.32 7.32 9.565-5.522 12.844-17.754 7.32-27.32l-28.867-50h57.609c.036 0 .071.003.107.003.035 0 .07-.003.105-.003h92.256c11.046 0 20-8.954 20-20s-8.954-20-20-20h-57.702l75.039-129.972c5.524-9.566 2.245-21.798-7.32-27.32zm-183.188 157.292-34.641-60 34.641-60h69.283l34.64 60-34.641 60z"/><path d="m256 0c-143.552 0-256 112.449-256 256s112.448 256 256 256 256-112.449 256-256-112.448-256-256-256zm0 472c-121.121 0-216-94.878-216-216s94.879-216 216-216 216 94.878 216 216-94.879 216-216 216z"/></g></svg>