<svg id="Capa_1" enable-background="new 0 0 512 512" height="512" viewBox="0 0 512 512" width="512" xmlns="http://www.w3.org/2000/svg"><g id="Camera"><g><path d="m276 156h-40c-11.046 0-20-8.954-20-20s8.954-20 20-20h40c11.046 0 20 8.954 20 20s-8.954 20-20 20z"/></g><g><path d="m452 156h-47.113c-8.639 0-16.269-5.51-18.985-13.711 0 0-12.554-37.895-12.574-37.953-13.959-40.874-52.107-68.336-94.928-68.336h-44.8c-42.821 0-80.969 27.462-94.928 68.336-.02.058-12.574 37.953-12.574 37.953-2.716 8.201-10.346 13.711-18.985 13.711h-47.113c-33.084 0-60 26.916-60 60v200c0 33.084 26.916 60 60 60h196c77.196 0 140-62.804 140-140s-62.804-140-140-140-140 62.804-140 140c0 39.138 16.15 74.57 42.128 100h-98.128c-11.028 0-20-8.972-20-20v-60h20c11.046 0 20-8.954 20-20s-8.954-20-20-20h-20v-100c0-11.028 8.972-20 20-20h47.113c25.917 0 48.806-16.53 56.956-41.132l12.484-37.685c8.451-24.635 31.366-41.183 57.047-41.183h44.8c25.681 0 48.596 16.548 57.047 41.184l12.484 37.685c8.15 24.601 31.039 41.131 56.956 41.131h47.113c11.028 0 20 8.972 20 20v100h-20c-11.046 0-20 8.954-20 20s8.954 20 20 20h20v60c0 11.028-8.972 20-20 20h-36.099c-11.046 0-20 8.954-20 20s8.954 20 20 20h36.099c33.084 0 60-26.916 60-60v-200c0-33.084-26.916-60-60-60zm-296 180c0-55.14 44.86-100 100-100s100 44.86 100 100-44.86 100-100 100-100-44.86-100-100z"/><path d="m256 396c33.084 0 60-26.916 60-60s-26.916-60-60-60-60 26.916-60 60 26.916 60 60 60zm0-80c11.028 0 20 8.972 20 20s-8.972 20-20 20-20-8.972-20-20 8.972-20 20-20z"/></g></g></svg>