<svg id="Capa_1" enable-background="new 0 0 512 512" height="512" viewBox="0 0 512 512" width="512" xmlns="http://www.w3.org/2000/svg"><g id="Camera"><g><path d="m324.663 139.643c-10.849-2.079-17.958-12.558-15.879-23.406l4.81-25.099-26.486 13.243c-5.187 2.593-11.241 2.808-16.598.589-5.356-2.219-9.486-6.653-11.32-12.153l-3.19-9.569-3.189 9.568c-1.833 5.5-5.963 9.935-11.32 12.153-5.357 2.219-11.412 2.004-16.598-.589l-26.486-13.243 4.809 25.099c2.079 10.848-5.03 21.328-15.879 23.406-10.844 2.08-21.327-5.03-23.406-15.879l-12.427-64.853c-1.432-7.474 1.501-15.112 7.567-19.707 6.066-4.594 14.214-5.348 21.02-1.946l42.064 21.032 14.871-44.614c2.723-8.166 10.365-13.675 18.974-13.675s16.251 5.509 18.974 13.676l14.871 44.614 42.064-21.032c6.807-3.403 14.954-2.649 21.02 1.946 6.066 4.594 8.999 12.233 7.567 19.707l-12.427 64.854c-2.074 10.827-12.538 17.96-23.406 15.878z"/></g><g><path d="m256 232c-55.14 0-100 44.86-100 100s44.86 100 100 100c55.141 0 100-44.86 100-100s-44.859-100-100-100zm0 160c-33.084 0-60-26.916-60-60s26.916-60 60-60 60 26.916 60 60-26.916 60-60 60z"/><path d="m412 192h-39.432c-5.342 0-10.364-2.081-14.142-5.858l-16.569-16.569c-11.333-11.332-26.4-17.573-42.425-17.573h-86.863c-16.026 0-31.094 6.241-42.426 17.574l-16.568 16.568c-3.778 3.777-8.8 5.858-14.142 5.858h-19.433v-20c0-11.046-8.954-20-20-20s-20 8.954-20 20v22.011c-45.589 9.291-80 49.696-80 97.989v120c0 55.14 44.86 100 100 100h312c55.141 0 100-44.86 100-100v-120c0-55.14-44.859-100-100-100zm60 220c0 33.084-26.916 60-60 60h-312c-33.084 0-60-26.916-60-60v-120c0-33.084 26.916-60 60-60h39.432c16.026 0 31.094-6.241 42.426-17.574l16.568-16.568c3.778-3.777 8.8-5.858 14.142-5.858h86.863c5.342 0 10.364 2.081 14.142 5.858l16.569 16.569c11.333 11.332 26.4 17.573 42.426 17.573h39.432c33.084 0 60 26.916 60 60z"/><circle cx="412" cy="292" r="20"/></g></g></svg>