<svg id="Capa_1" enable-background="new 0 0 512 512" height="512" viewBox="0 0 512 512" width="512" xmlns="http://www.w3.org/2000/svg"><g><path d="m256 396c33.084 0 60-26.916 60-60s-26.916-60-60-60-60 26.916-60 60 26.916 60 60 60zm0-80c11.028 0 20 8.972 20 20s-8.972 20-20 20-20-8.972-20-20 8.972-20 20-20z"/><path d="m452 116h-16v-20c0-11.046-8.954-20-20-20s-20 8.954-20 20v20h-20c-11.028 0-20-8.972-20-20 0-33.084-26.916-60-60-60h-80c-33.084 0-60 26.916-60 60 0 11.028-8.972 20-20 20h-76c-33.084 0-60 26.916-60 60v240c0 33.084 26.916 60 60 60h392c33.084 0 60-26.916 60-60v-240c0-33.084-26.916-60-60-60zm-296 220c0-55.14 44.86-100 100-100s100 44.86 100 100-44.86 100-100 100-100-44.86-100-100zm316 80c0 11.028-8.972 20-20 20h-98.128c25.978-25.43 42.128-60.862 42.128-100 0-21.46-4.859-41.804-13.526-60h89.526zm0-180h-118.128c-25.261-24.728-59.814-40-97.872-40s-72.611 15.272-97.872 40h-58.128c-11.046 0-20 8.954-20 20s8.954 20 20 20h29.526c-8.667 18.196-13.526 38.54-13.526 60 0 39.138 16.15 74.57 42.128 100h-98.128c-11.028 0-20-8.972-20-20v-240c0-11.028 8.972-20 20-20h76c33.084 0 60-26.916 60-60 0-11.028 8.972-20 20-20h80c11.028 0 20 8.972 20 20 0 33.084 26.916 60 60 60h76c11.028 0 20 8.972 20 20z"/><path d="m276 116h-40c-11.046 0-20 8.954-20 20s8.954 20 20 20h40c11.046 0 20-8.954 20-20s-8.954-20-20-20z"/></g></svg>