<svg id="Capa_1" enable-background="new 0 0 512 512" height="512" viewBox="0 0 512 512" width="512" xmlns="http://www.w3.org/2000/svg"><g id="Digital_Camera_1_"><g><path d="m256 376c-55.141 0-100-44.86-100-100s44.859-100 100-100 100 44.86 100 100-44.859 100-100 100zm0-160c-33.084 0-60 26.916-60 60s26.916 60 60 60 60-26.916 60-60-26.916-60-60-60z"/></g><g><path d="m456 256h36c11.046 0 20-8.954 20-20v-40c0-33.084-26.916-60-60-60h-80c-10.055 0-18.545-7.408-19.748-17.231-.014-.111-.028-.222-.044-.333-2.581-18.496-2.459-18.159-3.013-20.051-7.418-25.352-30.402-42.385-57.195-42.385h-72c-26.793 0-49.777 17.033-57.195 42.384-.547 1.87-.355 1.007-3.013 20.051-.016.111-.03.222-.044.333-1.203 9.824-9.693 17.232-19.748 17.232h-20v-20c0-11.046-8.954-20-20-20s-20 8.954-20 20v20h-20c-33.084 0-60 26.916-60 60v200c0 33.084 26.916 60 60 60h392c33.084 0 60-26.916 60-60v-80c0-11.046-8.954-20-20-20s-20 8.954-20 20v20h-16c-11.028 0-20-8.972-20-20v-40c0-11.028 8.972-20 20-20zm0 120h16v20c0 11.028-8.972 20-20 20h-392c-11.028 0-20-8.972-20-20v-200c0-11.028 8.972-20 20-20h80c30.176 0 55.691-22.421 59.429-52.187l2.141-15.338c2.729-7.511 9.987-12.475 18.43-12.475h72c8.443 0 15.701 4.964 18.431 12.475l2.141 15.338c3.737 29.766 29.252 52.187 59.428 52.187h80c11.028 0 20 8.972 20 20v20h-16c-33.084 0-60 26.916-60 60v40c0 33.084 26.916 60 60 60z"/><circle cx="100" cy="236" r="20"/></g></g></svg>