<svg id="Capa_1" enable-background="new 0 0 512 512" height="512" viewBox="0 0 512 512" width="512" xmlns="http://www.w3.org/2000/svg"><path d="m132 511.56c-19.851 0-36-16.149-36-36v-24c0-11.046 8.954-20 20-20h32c11.046 0 20 8.954 20 20v24c0 19.85-16.149 36-36 36zm-112 0c-11.046 0-20-8.954-20-20 0-100.355 81.645-182 182-182h30c8.637 0 17.322.612 25.814 1.819 26.11 4.707 20.726 42.362-5.629 39.602-6.634-.943-13.426-1.421-20.186-1.421h-30c-78.299 0-142 63.701-142 142 .001 11.045-8.953 20-19.999 20zm175-242c-74.439 0-135-60.561-135-135 6.787-178.85 263.241-178.801 270 .002 0 74.437-60.561 134.998-135 134.998zm0-230c-52.383 0-95 42.617-95 95 4.776 125.857 185.243 125.823 190-.001 0-52.383-42.617-94.999-95-94.999zm197 232c-66.168 0-120 53.832-120 120 6.033 158.978 233.991 158.934 240-.002 0-66.167-53.832-119.998-120-119.998zm-14.339 198.712.196-.156-9.885-25.758c-2.93-7.634-10.344-11.987-18.519-11.792h-26.123c-5.466-9.119-9.167-19.411-10.629-30.401l22.219-16.783c6.252-5.107 8.617-13.594 5.908-21.199l-9.007-25.28c7.688-8.775 17.259-15.86 28.076-20.618l21.615 14.958c6.725 4.653 15.302 4.067 21.943-.702l20.79-14.193c10.808 4.778 20.366 11.882 28.037 20.673l-8.965 25.162c-2.709 7.605-.344 16.092 5.908 21.199l22.088 16.684c-1.453 11.027-5.16 21.354-10.643 30.5h-26.123c-8.175-.194-15.589 4.158-18.519 11.792l-9.885 25.758.196.156c-9.256 1.711-19.422 1.711-28.678 0zm24.345-48.712h-19.567c-7.303 0-13.789-4.613-16.109-11.457l-6.448-19.017c-2.361-6.963.129-14.635 6.148-18.94l15.931-11.397c5.812-4.157 13.638-4.259 19.558-.254l16.087 10.885c6.12 4.141 8.815 11.726 6.659 18.74l-6.003 19.529c-2.176 7.074-8.776 11.911-16.256 11.911z"/></svg>