<svg id="Capa_1" enable-background="new 0 0 512.049 512.049" height="512" viewBox="0 0 512.049 512.049" width="512" xmlns="http://www.w3.org/2000/svg"><path d="m132.025 512.049c-19.851 0-36-16.149-36-36v-24c0-11.046 8.954-20 20-20h32c11.046 0 20 8.954 20 20v24c0 19.851-16.15 36-36 36zm-112 0c-11.046 0-20-8.954-20-20 0-100.355 81.645-182 182-182h30c8.637 0 17.322.612 25.814 1.819 10.936 1.554 18.541 11.679 16.986 22.615-1.554 10.936-11.682 18.543-22.615 16.986-6.634-.943-13.426-1.421-20.186-1.421h-30c-78.299 0-142 63.701-142 142 .001 11.047-8.953 20.001-19.999 20.001zm.012-202.976c-.226 0-.45-.003-.677-.011-11.04-.367-19.691-9.614-19.324-20.654 3.272-98.357 21.49-169.582 55.692-217.745 55.084-86.926 205.028-94.337 271.85-18.438 33.123 35.436 55.037 89.613 65.133 161.025 1.546 10.937-6.067 21.057-17.003 22.603-10.938 1.546-21.057-6.067-22.603-17.003-8.923-63.121-27.344-109.992-54.75-139.312-50.415-57.604-168.667-52.158-210.012 14.286-29.108 40.985-45.367 106.9-48.329 195.914-.36 10.812-9.24 19.334-19.977 19.335zm178.988-39.047c-49.872 0-95.37-27.881-118.739-72.763-5.004-9.61-1.445-21.458 8.026-26.72.567-.316 59.027-33.355 90.753-84.117 5.854-9.367 18.193-12.213 27.56-6.36 9.367 5.854 12.214 18.193 6.36 27.56-25.689 41.103-64.6 71.288-87.24 86.6 41.048 53.467 126.096 45.185 156.541-15.437 5.101-9.797 17.178-13.604 26.976-8.502 9.797 5.101 13.604 17.179 8.502 26.976-23.37 44.882-68.868 72.763-118.739 72.763zm193 2.023c-66.168 0-120 53.832-120 120 6.033 158.978 233.992 158.934 240-.002 0-66.166-53.832-119.998-120-119.998zm-14.34 198.713.196-.156-9.885-25.758c-2.93-7.634-10.344-11.987-18.519-11.792h-26.123c-5.466-9.119-9.167-19.411-10.629-30.401l22.219-16.783c6.252-5.107 8.617-13.594 5.908-21.199l-9.007-25.28c7.688-8.775 17.259-15.86 28.076-20.618l21.616 14.958c6.724 4.653 15.301 4.067 21.943-.703l20.789-14.193c10.807 4.778 20.366 11.882 28.037 20.673l-8.965 25.162c-2.709 7.605-.344 16.092 5.908 21.199l22.088 16.684c-1.453 11.027-5.16 21.354-10.642 30.5h-26.123c-8.175-.194-15.589 4.158-18.519 11.792l-9.885 25.758.196.156c-9.257 1.712-19.422 1.712-28.679.001zm24.345-48.713h-19.567c-7.303 0-13.788-4.613-16.109-11.457l-6.448-19.017c-2.361-6.963.129-14.635 6.148-18.94l15.931-11.397c5.811-4.157 13.638-4.259 19.558-.254l16.088 10.885c6.12 4.141 8.815 11.726 6.659 18.74l-6.004 19.529c-2.175 7.075-8.775 11.911-16.256 11.911z"/></svg>