<svg id="Capa_1" enable-background="new 0 0 512 512" height="512" viewBox="0 0 512 512" width="512" xmlns="http://www.w3.org/2000/svg"><g id="Image"><g><path d="m332 416h-232c-55.14 0-100-44.86-100-100v-200c0-55.14 44.86-100 100-100h232c55.14 0 100 44.86 100 100v200c0 55.14-44.86 100-100 100zm-232-360c-33.084 0-60 26.916-60 60v200c0 33.084 26.916 60 60 60h232c33.084 0 60-26.916 60-60v-200c0-33.084-26.916-60-60-60z"/></g><g><path d="m412 496h-236c-11.046 0-20-8.954-20-20s8.954-20 20-20h236c33.084 0 60-26.916 60-60v-200c0-11.046 8.954-20 20-20s20 8.954 20 20v200c0 55.14-44.86 100-100 100z"/></g><g><path d="m307.196 331.364-119.699-99.749c-7.154-5.962-17.353-6.224-24.804-.636l-54.693 41.021c-8.836 6.626-21.373 4.837-28-4s-4.836-21.373 4-28l54.694-41.02c22.35-16.763 52.949-15.978 74.411 1.907l119.699 99.749c8.485 7.071 9.632 19.683 2.561 28.168-7.082 8.498-19.695 9.622-28.169 2.56z"/></g><g><path d="m296 216c-33.084 0-60-26.916-60-60s26.916-60 60-60 60 26.916 60 60-26.916 60-60 60zm0-80c-11.028 0-20 8.972-20 20s8.972 20 20 20 20-8.972 20-20-8.972-20-20-20z"/></g></g></svg>