<svg id="Capa_1" enable-background="new 0 0 512 512" height="512" viewBox="0 0 512 512" width="512" xmlns="http://www.w3.org/2000/svg"><g><path d="m256 236c-11.028 0-20-8.972-20-20s8.972-20 20-20c6.351 0 12.187 2.919 16.011 8.01 6.634 8.831 19.173 10.612 28.003 3.978 8.831-6.634 10.612-19.172 3.978-28.003-7.15-9.518-16.978-16.593-27.991-20.508v-23.477c0-11.046-8.954-20-20-20s-20 8.954-20 20v23.44c-23.278 8.256-40 30.487-40 56.56 0 33.084 26.916 60 60 60 11.028 0 20 8.972 20 20s-8.972 20-20 20c-6.351 0-12.187-2.919-16.011-8.01-6.634-8.832-19.173-10.613-28.003-3.978-8.831 6.634-10.612 19.172-3.978 28.003 7.15 9.518 16.978 16.593 27.991 20.508v23.477c0 11.046 8.954 20 20 20s20-8.954 20-20v-23.44c23.278-8.256 40-30.487 40-56.56 0-33.084-26.916-60-60-60z"/><path d="m474.931 194.792c-8.266-4.562-14.785-11.595-18.92-20.388-.17-.587-.367-1.167-.591-1.737-3.49-8.904-3.915-18.685-1.229-28.291 7.217-24.875.601-51.415-17.277-69.29-13.084-13.082-30.49-20.286-49.012-20.286-6.874 0-13.744 1.026-20.425 3.051-9.525 2.637-19.285 2.204-28.148-1.271-.569-.223-1.146-.419-1.731-.589-8.797-4.139-15.831-10.661-20.353-18.854-12.683-23.254-35.579-37.137-61.245-37.137s-48.564 13.89-61.208 37.068c-4.561 8.265-11.594 14.785-20.39 18.923-.585.169-1.162.366-1.731.589-8.902 3.49-18.689 3.916-28.31 1.226-6.619-1.918-13.426-2.892-20.232-2.892-18.618 0-36.035 7.165-49.042 20.173-18.16 18.159-24.749 44.774-17.218 69.499 2.627 9.14 2.241 19-1.089 27.778-.157.413-.3.831-.429 1.254-4.115 9.165-10.779 16.483-19.214 21.138-23.254 12.683-37.137 35.578-37.137 61.244 0 25.665 13.889 48.564 37.071 61.21 8.264 4.557 14.783 11.59 18.918 20.383.17.586.366 1.166.59 1.735 3.491 8.909 3.915 18.695 1.227 28.304-7.209 24.873-.593 51.41 17.281 69.281 18.798 18.797 45.475 24.499 69.438 17.235 9.521-2.637 19.28-2.203 28.146 1.272.568.223 1.146.419 1.73.589 8.785 4.133 15.812 10.644 20.38 18.9 12.69 23.226 35.572 37.091 61.219 37.091 25.646 0 48.528-13.867 61.225-37.101 4.561-8.248 11.588-14.757 20.373-18.89.585-.169 1.163-.366 1.731-.589 8.904-3.491 18.693-3.918 28.308-1.226 6.618 1.918 13.424 2.891 20.231 2.891 18.619 0 36.037-7.164 49.045-20.171 12.893-12.893 20.287-30.721 20.287-48.914 0-7.036-.998-13.753-3.051-20.524-2.645-9.547-2.205-19.275 1.271-28.146.223-.569.42-1.148.589-1.734 4.14-8.798 10.66-15.83 18.853-20.349 23.255-12.686 37.138-35.581 37.138-61.247s-13.89-48.564-37.069-61.208zm-19.305 87.383c-16.425 9.06-29.155 23.1-36.818 40.612l-.335.767c-.487 1.116-.87 2.271-1.146 3.45-5.917 16.476-6.486 34.226-1.629 51.494.043.152.088.304.134.456.935 3.041 1.369 5.915 1.369 9.046 0 7.664-3.124 15.183-8.571 20.629-5.452 5.453-12.826 8.456-20.761 8.456-3.056 0-6.134-.446-9.147-1.325-.062-.018-.122-.035-.183-.052-7.712-2.17-15.592-3.27-23.422-3.27-9.632 0-19.078 1.644-28.112 4.888-1.184.277-2.341.662-3.46 1.151l-.768.336c-17.496 7.657-31.531 20.378-40.589 36.788-.017.029-.032.059-.049.088-5.654 10.366-15.181 16.311-26.139 16.311s-20.482-5.938-26.129-16.293c-.017-.029-.032-.059-.049-.088-9.063-16.421-23.103-29.148-40.6-36.806l-.767-.335c-1.119-.489-2.276-.874-3.46-1.151-9.034-3.245-18.48-4.888-28.112-4.888-7.829 0-15.697 1.097-23.384 3.259-.153.043-.306.088-.458.135-10.812 3.321-22.002.465-29.673-7.205-7.57-7.569-10.303-19.03-7.13-29.91.018-.061.035-.121.052-.182 4.866-17.291 4.3-35.053-1.617-51.531-.276-1.18-.659-2.334-1.146-3.45l-.34-.776c-7.659-17.503-20.384-31.541-36.879-40.638-10.364-5.655-16.308-15.183-16.308-26.141s5.938-20.482 16.378-26.177c16.425-9.063 29.153-23.104 36.814-40.613l.335-.767c.385-.88.704-1.785.958-2.707.003-.012.007-.023.01-.034 6.11-16.664 6.737-35.234 1.751-52.398-.029-.1-.059-.199-.089-.298-3.253-10.578-.488-21.933 7.214-29.635 5.453-5.454 12.825-8.457 20.758-8.457 3.056 0 6.134.446 9.149 1.326.062.018.124.036.187.054 7.712 2.168 15.592 3.268 23.421 3.268 9.632 0 19.076-1.643 28.11-4.887 1.183-.277 2.341-.662 3.46-1.151l.768-.336c17.497-7.658 31.532-20.38 40.637-36.878 5.653-10.366 15.181-16.31 26.139-16.31s20.482 5.938 26.177 16.378c9.064 16.423 23.103 29.151 40.601 36.81l.767.335c1.119.489 2.277.874 3.46 1.151 9.034 3.244 18.479 4.887 28.11 4.887 7.828 0 15.695-1.096 23.383-3.257.154-.043.308-.088.461-.136 2.955-.908 5.965-1.368 8.944-1.368 7.838 0 15.199 3.044 20.729 8.572 7.57 7.57 10.303 19.029 7.13 29.907-.018.061-.035.121-.052.182-4.867 17.293-4.301 35.056 1.617 51.534.276 1.179.659 2.333 1.146 3.449l.339.776c7.657 17.5 20.381 31.537 36.88 40.641 10.364 5.653 16.308 15.181 16.308 26.139s-5.938 20.482-16.374 26.175z"/></g></svg>