<svg id="Capa_1" enable-background="new 0 0 509.99 509.99" height="512" viewBox="0 0 509.99 509.99" width="512" xmlns="http://www.w3.org/2000/svg"><g><path d="m54.995 469.99c-11.046 0-20 8.954-20 20s8.954 20 20 20h400c11.046 0 20-8.954 20-20s-8.954-20-20-20h-140v-52c0-11.046-8.954-20-20-20h-140c-44.112 0-80-35.888-80-80s35.888-80 80-80h51.715l78.995 78.995-14.142 14.142c-7.811 7.811-7.81 20.474 0 28.284s20.475 7.81 28.285 0l141.421-141.421c7.811-7.811 7.811-20.474 0-28.284s-20.475-7.81-28.285 0l-14.142 14.142-127.279-127.28c-23.392-23.394-61.458-23.393-84.853-.001l-28.283-28.284 14.142-14.142c7.811-7.81 7.81-20.474 0-28.284-7.811-7.811-20.475-7.811-28.285 0l-56.568 56.569c-7.811 7.81-7.81 20.474 0 28.284 7.811 7.81 20.475 7.81 28.285 0l14.142-14.142 28.283 28.284c-23.449 23.45-23.449 61.403 0 84.853l8.284 8.284h-11.715c-66.168 0-120 53.832-120 120s53.832 120 120 120v32h-100zm140-32h80v32h-80zm-8.284-304.853 28.283-28.284c7.799-7.798 20.486-7.799 28.285 0l127.279 127.279-56.568 56.568-127.28-127.279c-7.816-7.816-7.816-20.469.001-28.284z"/><path d="m454.995 397.99h-80c-11.046 0-20 8.954-20 20s8.954 20 20 20h80c11.046 0 20-8.954 20-20s-8.954-20-20-20z"/></g></svg>