<svg id="Capa_1" enable-background="new 0 0 512 512" height="512" viewBox="0 0 512 512" width="512" xmlns="http://www.w3.org/2000/svg"><g><path d="m279.44 120h-63.44c-77.196 0-140 62.804-140 140v32.051c-24.273 18.262-40 47.303-40 79.949v80c0 33.084 26.916 60 60 60h160c33.084 0 60-26.916 60-60v-20h140c11.046 0 20-8.954 20-20s-8.954-20-20-20h-220v-20c0-32.646-15.727-61.687-40-79.949v-32.051c0-11.028 8.972-20 20-20 11.046 0 20-8.954 20-20s-8.954-20-20-20c-33.084 0-60 26.916-60 60v14.011c-6.464-1.317-13.153-2.011-20-2.011s-13.536.693-20 2.011v-14.011c0-55.14 44.859-100 100-100h60v92c0 33.084 26.916 60 60 60h20v20c0 11.046 8.954 20 20 20s20-8.954 20-20v-20h20c33.084 0 60-26.916 60-60v-112c0-26.073-16.722-48.304-40-56.56v-43.44h20c11.046 0 20-8.954 20-20s-8.954-20-20-20h-160c-11.046 0-20 8.954-20 20s8.954 20 20 20h20v43.44c-17.018 6.037-30.524 19.541-36.56 36.56zm-83.44 252v40c0 11.046 8.954 20 20 20h60v20c0 11.028-8.972 20-20 20h-160c-11.028 0-20-8.972-20-20v-80c0-33.084 26.916-60 60-60s60 26.916 60 60zm240-120c0 11.028-8.972 20-20 20h-80c-11.028 0-20-8.972-20-20v-112c0-11.028 8.972-20 20-20h80c11.028 0 20 8.972 20 20zm-40-212v40h-40v-40z"/><circle cx="136" cy="372" r="20"/></g></svg>