<svg id="Capa_1" enable-background="new 0 0 512 512" height="512" viewBox="0 0 512 512" width="512" xmlns="http://www.w3.org/2000/svg"><g id="Microwave_Oven_1_"><g><path d="m176 176h-20v-20c0-11.046-8.954-20-20-20s-20 8.954-20 20v20h-20c-11.046 0-20 8.954-20 20s8.954 20 20 20h20v100c0 11.046 8.954 20 20 20s20-8.954 20-20v-100h20c11.046 0 20-8.954 20-20s-8.954-20-20-20z"/><path d="m296 256h-20v-100c0-11.046-8.954-20-20-20s-20 8.954-20 20v100h-20c-11.046 0-20 8.954-20 20s8.954 20 20 20h20v20c0 11.046 8.954 20 20 20s20-8.954 20-20v-20h20c11.046 0 20-8.954 20-20s-8.954-20-20-20z"/></g><path d="m452 56h-392c-33.084 0-60 26.916-60 60v240c0 26.073 16.722 48.303 40 56.56v23.44c0 11.046 8.954 20 20 20s20-8.954 20-20v-20h352v20c0 11.046 8.954 20 20 20s20-8.954 20-20v-23.44c23.278-8.256 40-30.487 40-56.56v-240c0-33.084-26.916-60-60-60zm0 320h-60v-220c0-11.046-8.954-20-20-20s-20 8.954-20 20v220h-292c-11.028 0-20-8.972-20-20v-240c0-11.028 8.972-20 20-20h392c11.028 0 20 8.972 20 20v20h-20c-11.046 0-20 8.954-20 20s8.954 20 20 20h20v40h-20c-11.046 0-20 8.954-20 20s8.954 20 20 20h20v100c0 11.028-8.972 20-20 20z"/></g></svg>