<svg id="Capa_1" enable-background="new 0 0 512 512" height="512" viewBox="0 0 512 512" width="512" xmlns="http://www.w3.org/2000/svg"><g><circle cx="256" cy="256" r="20"/><path d="m417.551 430.903c8.23 7.366 20.874 6.667 28.24-1.564 42.695-47.704 66.209-109.263 66.209-173.339 0-143.551-112.448-256-256-256-143.551 0-256 112.449-256 256s112.449 256 256 256h236c11.046 0 20-8.954 20-20s-8.954-20-20-20h-236c-121.122 0-216-94.878-216-216s94.878-216 216-216c121.121 0 216 94.878 216 216 0 54.218-19.893 106.304-56.014 146.662-7.367 8.23-6.666 20.874 1.565 28.241z"/><path d="m256 76c-33.084 0-60 26.916-60 60s26.916 60 60 60 60-26.916 60-60-26.916-60-60-60zm0 80c-11.028 0-20-8.972-20-20s8.972-20 20-20 20 8.972 20 20-8.972 20-20 20z"/><path d="m136 196c-33.084 0-60 26.916-60 60s26.916 60 60 60 60-26.916 60-60-26.916-60-60-60zm0 80c-11.028 0-20-8.972-20-20s8.972-20 20-20 20 8.972 20 20-8.972 20-20 20z"/><path d="m256 436c33.084 0 60-26.916 60-60s-26.916-60-60-60-60 26.916-60 60 26.916 60 60 60zm0-80c11.028 0 20 8.972 20 20s-8.972 20-20 20-20-8.972-20-20 8.972-20 20-20z"/><path d="m376 316c33.084 0 60-26.916 60-60s-26.916-60-60-60-60 26.916-60 60 26.916 60 60 60zm0-80c11.028 0 20 8.972 20 20s-8.972 20-20 20-20-8.972-20-20 8.972-20 20-20z"/></g></svg>