<svg id="Capa_1" enable-background="new 0 0 512 512" height="512" viewBox="0 0 512 512" width="512" xmlns="http://www.w3.org/2000/svg"><g id="Movie_Player_2_"><path d="m452 56h-392c-33.084 0-60 26.916-60 60v280c0 33.084 26.916 60 60 60h272c11.046 0 20-8.954 20-20s-8.954-20-20-20h-212v-320h272v340c0 11.046 8.954 20 20 20h40c33.084 0 60-26.916 60-60v-280c0-33.084-26.916-60-60-60zm-412 160h40v80h-40zm20-120h20v80h-40v-60c0-11.028 8.972-20 20-20zm-20 300v-60h40v80h-20c-11.028 0-20-8.972-20-20zm392-180h40v80h-40zm40-100v60h-40v-80h20c11.028 0 20 8.972 20 20zm-20 300h-20v-80h40v60c0 11.028-8.972 20-20 20z"/><g><path d="m206.146 333.404c-6.27-3.55-10.146-10.198-10.146-17.404v-120c0-7.205 3.876-13.854 10.146-17.404 6.268-3.55 13.964-3.454 20.144.254l100 60c6.024 3.615 9.71 10.125 9.71 17.15s-3.686 13.535-9.71 17.15l-100 60c-6.178 3.707-13.874 3.804-20.144.254zm29.854-102.08v49.353l41.127-24.677z"/></g></g></svg>