<svg id="Capa_1" enable-background="new 0 0 512 512" height="512" viewBox="0 0 512 512" width="512" xmlns="http://www.w3.org/2000/svg"><g id="Mp3_Player_1_"><g><circle cx="176" cy="412" r="20"/></g><g><path d="m452 120h40c11.046 0 20-8.954 20-20v-80c0-11.046-8.954-20-20-20h-40c-33.084 0-60 26.916-60 60v352c0 11.028-8.972 20-20 20h-20v-100c0-11.046-8.954-20-20-20h-292v-252c0-11.028 8.972-20 20-20h232c11.028 0 20 8.972 20 20v156c0 11.046 8.954 20 20 20s20-8.954 20-20v-156c0-33.084-26.916-60-60-60h-232c-33.084 0-60 26.916-60 60v392c0 33.084 26.916 60 60 60h232c26.073 0 48.303-16.722 56.56-40h23.44c33.084 0 60-26.916 60-60v-95.44c6.26 2.22 12.989 3.44 20 3.44h40c11.046 0 20-8.954 20-20v-80c0-11.046-8.954-20-20-20h-40c-7.011 0-13.74 1.22-20 3.44v-86.88c6.26 2.22 12.989 3.44 20 3.44zm-160 352h-232c-11.028 0-20-8.972-20-20v-100h272v100c0 11.028-8.972 20-20 20zm160-432h20v40h-20c-11.028 0-20-8.972-20-20s8.972-20 20-20zm0 200h20v40h-20c-11.028 0-20-8.972-20-20s8.972-20 20-20z"/><path d="m252 236h-36c-11.046 0-20 8.954-20 20s8.954 20 20 20h36c11.046 0 20-8.954 20-20s-8.954-20-20-20z"/><path d="m252 156h-36c-11.046 0-20 8.954-20 20s8.954 20 20 20h36c11.046 0 20-8.954 20-20s-8.954-20-20-20z"/><path d="m252 76h-36c-11.046 0-20 8.954-20 20s8.954 20 20 20h36c11.046 0 20-8.954 20-20s-8.954-20-20-20z"/><path d="m136 156h-36c-11.046 0-20 8.954-20 20s8.954 20 20 20h36c11.046 0 20-8.954 20-20s-8.954-20-20-20z"/><path d="m136 236h-36c-11.046 0-20 8.954-20 20s8.954 20 20 20h36c11.046 0 20-8.954 20-20s-8.954-20-20-20z"/><circle cx="252" cy="412" r="20"/><circle cx="100" cy="412" r="20"/></g></g></svg>