<svg id="Capa_1" enable-background="new 0 0 512 512" height="512" viewBox="0 0 512 512" width="512" xmlns="http://www.w3.org/2000/svg"><g id="Music"><g><path d="m176 432c-33.084 0-60-26.916-60-60s26.916-60 60-60 60 26.916 60 60-26.916 60-60 60zm0-80c-11.028 0-20 8.972-20 20s8.972 20 20 20 20-8.972 20-20-8.972-20-20-20z"/></g><g><path d="m456 472h-40c-11.028 0-20-8.972-20-20v-46.854c0-11.046-8.954-20-20-20s-20 8.954-20 20v46.854c0 33.084 26.916 60 60 60h40c11.046 0 20-8.954 20-20s-8.954-20-20-20z"/><path d="m356 292c0 33.084 26.916 60 60 60h40c11.046 0 20-8.954 20-20s-8.954-20-20-20h-40c-11.028 0-20-8.972-20-20v-212c0-44.112-35.888-80-80-80h-40c-44.112 0-80 35.888-80 80v32h-80c-44.112 0-80 35.888-80 80v240c0 44.112 35.888 80 80 80h120c44.112 0 80-35.888 80-80v-240c0-44.112-35.888-80-80-80v-32c0-22.056 17.944-40 40-40h40c22.056 0 40 17.944 40 40zm-120 180h-120c-22.056 0-40-17.944-40-40v-160h200v160c0 22.056-17.944 40-40 40zm40-280v40h-200v-40c0-22.056 17.944-40 40-40h120c22.056 0 40 17.944 40 40z"/></g></g></svg>