<svg id="Capa_1" enable-background="new 0 0 512 512" height="512" viewBox="0 0 512 512" width="512" xmlns="http://www.w3.org/2000/svg"><g><path d="m100 272h-40c-33.084 0-60 26.916-60 60s26.916 60 60 60h40c33.084 0 60-26.916 60-60v-162.079l106.327-35.46c10.479-3.495 16.14-14.822 12.646-25.3-3.494-10.479-14.825-16.14-25.3-12.646l-93.673 31.24v-27.755c0-8.629 5.492-16.257 13.667-18.982l119.997-40c2.028-.675 4.159-1.018 6.336-1.018 11.028 0 20 8.972 20 20v175.44c-6.26-2.22-12.989-3.44-20-3.44h-40c-33.084 0-60 26.916-60 60s26.916 60 60 60h40c33.084 0 60-26.916 60-60v-232c0-33.084-26.916-60-60-60-6.481 0-12.868 1.033-18.982 3.07l-120 40c-24.534 8.178-41.018 31.056-41.018 56.93v175.44c-6.26-2.22-12.989-3.44-20-3.44zm200 40h-40c-11.028 0-20-8.972-20-20s8.972-20 20-20h40c11.028 0 20 8.972 20 20s-8.972 20-20 20zm-200 40h-40c-11.028 0-20-8.972-20-20s8.972-20 20-20h40c11.028 0 20 8.972 20 20s-8.972 20-20 20z"/><path d="m432 212c0-11.046-8.954-20-20-20s-20 8.954-20 20v183.44c-6.26-2.22-12.989-3.44-20-3.44h-40c-33.084 0-60 26.916-60 60s26.916 60 60 60h40c33.084 0 60-26.916 60-60v-151.755c1.98 2.02 3.941 3.98 5.857 5.897 19.077 19.075 34.143 34.142 34.143 65.858 0 11.046 8.954 20 20 20s20-8.954 20-20c0-48.284-25.427-73.711-45.857-94.142-19.077-19.075-34.143-34.142-34.143-65.858zm-60 260h-40c-11.028 0-20-8.972-20-20s8.972-20 20-20h40c11.028 0 20 8.972 20 20s-8.972 20-20 20z"/></g></svg>