<svg id="Capa_1" enable-background="new 0 0 512.001 512.001" height="512" viewBox="0 0 512.001 512.001" width="512" xmlns="http://www.w3.org/2000/svg"><g id="Music"><g><path d="m492.001 312.001c-11.046 0-20 8.954-20 20v63.44c-6.26-2.22-12.989-3.44-20-3.44-33.084 0-60 26.916-60 60s26.916 60 60 60 60-26.916 60-60v-120c0-11.046-8.955-20-20-20zm-40 160c-11.028 0-20-8.972-20-20s8.972-20 20-20 20 8.972 20 20-8.972 20-20 20z"/><path d="m114.143 5.859c-5.721-5.719-14.321-7.433-21.796-4.335-7.474 3.096-12.347 10.388-12.347 18.478v63.44c-6.26-2.22-12.989-3.44-20-3.44-33.084 0-60 26.916-60 60s26.916 60 60 60 60-26.916 60-60v-71.717l5.857 5.858c7.811 7.811 20.475 7.811 28.285 0s7.81-20.474 0-28.284zm-54.142 154.142c-11.028 0-20-8.972-20-20s8.972-20 20-20 20 8.972 20 20-8.972 20-20 20z"/></g><g><path d="m357.889 115.764c-4.939-9.879-16.951-13.884-26.833-8.944l-80 40c-9.88 4.94-13.884 16.954-8.944 26.833 4.941 9.881 16.955 13.883 26.833 8.944l80-40c9.88-4.94 13.884-16.954 8.944-26.833z"/><path d="m380.001.001c-9.278 0-18.549 2.183-26.809 6.312l-160 80c-20.474 10.237-33.191 30.809-33.191 53.688v190.763c-11.777-6.83-25.434-10.763-40-10.763-44.112 0-80 35.888-80 80s35.888 80 80 80 80-35.888 80-80v-260c0-7.63 4.245-14.493 11.08-17.91l160-80c2.773-1.387 5.774-2.09 8.92-2.09 11.028 0 20 8.972 20 20v190.763c-11.777-6.83-25.434-10.763-40-10.763-44.112 0-80 35.888-80 80s35.888 80 80 80 80-35.888 80-80v-260c0-33.084-26.916-60-60-60zm-260 440c-22.056 0-40-17.944-40-40s17.944-40 40-40 40 17.944 40 40-17.945 40-40 40zm240-80c-22.056 0-40-17.944-40-40s17.944-40 40-40 40 17.944 40 40-17.945 40-40 40z"/></g></g></svg>