<svg id="Capa_1" enable-background="new 0 0 512 512" height="512" viewBox="0 0 512 512" width="512" xmlns="http://www.w3.org/2000/svg"><g id="Music_Files"><g><path d="m176 160h-40c-11.046 0-20-8.954-20-20s8.954-20 20-20h40c11.046 0 20 8.954 20 20s-8.954 20-20 20z"/></g><g><path d="m216 240h-80c-11.046 0-20-8.954-20-20s8.954-20 20-20h80c11.046 0 20 8.954 20 20s-8.954 20-20 20z"/></g><g><path d="m356 160v20c0 11.046 8.954 20 20 20s20-8.954 20-20v-40c0-5.167-2.084-10.369-5.857-14.142l-120-120c-3.712-3.712-8.894-5.858-14.143-5.858h-160c-33.084 0-60 26.916-60 60v392c0 33.084 26.916 60 60 60h120c11.046 0 20-8.954 20-20s-8.954-20-20-20h-120c-11.028 0-20-8.972-20-20v-392c0-11.028 8.972-20 20-20h140v60c0 33.084 26.916 60 60 60zm-80-60v-31.716l51.716 51.716h-31.716c-11.028 0-20-8.972-20-20z"/><path d="m416 312c-11.028 0-20-8.972-20-20v-32c0-11.046-8.954-20-20-20s-20 8.954-20 20v135.44c-6.26-2.22-12.989-3.44-20-3.44-33.084 0-60 26.916-60 60s26.916 60 60 60 60-26.916 60-60v-103.44c6.26 2.22 12.989 3.44 20 3.44 11.028 0 20 8.972 20 20v40c0 11.046 8.954 20 20 20s20-8.954 20-20v-40c0-33.084-26.916-60-60-60zm-80 160c-11.028 0-20-8.972-20-20s8.972-20 20-20 20 8.972 20 20-8.972 20-20 20z"/></g></g></svg>