<svg id="Capa_1" enable-background="new 0 0 512.002 512.002" height="512" viewBox="0 0 512.002 512.002" width="512" xmlns="http://www.w3.org/2000/svg"><g><path d="m350.144 506.144c7.811-7.811 7.811-20.474 0-28.284l-74.143-74.143v-31.715c0-11.046-8.954-20-20-20s-20 8.954-20 20v31.716l-74.143 74.142c-7.81 7.811-7.81 20.474 0 28.284s20.475 7.81 28.285 0l45.857-45.857v31.715c0 11.046 8.954 20 20 20s20-8.954 20-20v-31.716l45.857 45.858c7.812 7.811 20.476 7.811 28.287 0z"/><path d="m392.561 40.002c-8.256-23.278-30.487-40-56.56-40-32.653 0-61.698 15.732-79.96 40.013-3.303-4.38-6.987-8.53-11.048-12.402-19.986-19.052-46.213-28.82-73.876-27.494-15.24.729-29.357 7.594-39.752 19.33-5.357 6.049-9.4 13.043-11.996 20.553h-23.368c-33.084 0-60 26.916-60 60v152c0 33.084 26.916 60 60 60h320c33.084 0 60-26.916 60-60v-152c0-33.084-26.916-60-60-60zm-219.533.072c16.62-.796 32.375 5.062 44.364 16.492 12 11.439 18.608 26.865 18.608 43.436v96h-60c-11.028 0-20-8.972-20-20v-116c.001-10.361 7.799-19.487 17.028-19.928zm262.973 59.928v152c0 11.028-8.972 20-20 20h-320c-11.028 0-20-8.972-20-20v-152c0-11.028 8.972-20 20-20h20v96c0 33.084 26.916 60 60 60h160c33.084 0 60-26.916 60-60 0-11.046-8.954-20-20-20s-20 8.954-20 20c0 11.028-8.972 20-20 20h-60v-96c0-33.084 26.916-60 60-60 11.028 0 20 8.972 20 20v36c0 11.046 8.954 20 20 20s20-8.954 20-20v-16h20c11.028 0 20 8.972 20 20z"/></g></svg>