<svg id="Capa_1" enable-background="new 0 0 512 512" height="512" viewBox="0 0 512 512" width="512" xmlns="http://www.w3.org/2000/svg"><g id="Pandemic"><g><path d="m183.603 50c-5.523-9.566-17.754-12.844-27.32-7.32l-20.331 11.738c-5.54-4.741-11.946-8.493-18.951-10.978v-23.44c0-11.046-8.954-20-20-20s-20.001 8.954-20.001 20v23.44c-7.005 2.484-13.411 6.236-18.951 10.978l-20.331-11.738c-9.566-5.523-21.798-2.246-27.32 7.32-5.523 9.566-2.246 21.798 7.32 27.32l20.303 11.722c-.659 3.556-1.021 7.214-1.021 10.958s.362 7.402 1.021 10.958l-20.303 11.722c-9.566 5.522-12.843 17.754-7.32 27.32 5.524 9.567 17.753 12.844 27.32 7.32l20.331-11.738c5.54 4.741 11.946 8.493 18.951 10.978v23.44c0 11.046 8.954 20 20 20s20-8.954 20-20v-23.44c7.005-2.484 13.411-6.236 18.951-10.978l20.331 11.738c9.566 5.523 21.798 2.246 27.32-7.32 5.523-9.566 2.246-21.798-7.32-27.32l-20.303-11.722c.659-3.556 1.021-7.214 1.021-10.958s-.362-7.402-1.021-10.958l20.303-11.722c9.566-5.522 12.843-17.754 7.321-27.32zm-106.603 50c0-11.028 8.972-20 20-20s20 8.972 20 20-8.972 20-20 20-20-8.972-20-20z"/><path d="m496.282 122.68-20.303-11.722c.659-3.556 1.021-7.214 1.021-10.958s-.362-7.402-1.021-10.958l20.303-11.722c9.566-5.522 12.843-17.754 7.32-27.32s-17.754-12.844-27.32-7.32l-20.331 11.738c-5.54-4.741-11.946-8.493-18.951-10.978v-23.44c0-11.046-8.954-20-20-20s-20 8.954-20 20v23.44c-7.005 2.484-13.411 6.236-18.951 10.978l-20.331-11.738c-9.566-5.523-21.798-2.246-27.32 7.32-5.523 9.566-2.246 21.798 7.32 27.32l20.303 11.722c-.659 3.556-1.021 7.214-1.021 10.958s.362 7.402 1.021 10.958l-20.303 11.722c-9.566 5.522-12.843 17.754-7.32 27.32 5.524 9.567 17.753 12.844 27.32 7.32l20.331-11.738c5.54 4.741 11.946 8.493 18.951 10.978v23.44c0 11.046 8.954 20 20 20s20-8.954 20-20v-23.44c7.005-2.484 13.411-6.236 18.951-10.978l20.331 11.738c9.566 5.523 21.798 2.246 27.32-7.32 5.523-9.566 2.246-21.798-7.32-27.32zm-99.282-22.68c0-11.028 8.972-20 20-20s20 8.972 20 20-8.972 20-20 20-20-8.972-20-20z"/></g><g><circle cx="20" cy="210.736" r="20"/><circle cx="257" cy="100" r="20"/><circle cx="492" cy="220" r="20"/><path d="m467.29 282.85-179.42-107.652c-19.041-11.425-42.698-11.425-61.739 0l-179.421 107.652c-9.472 5.683-12.543 17.968-6.86 27.44s17.967 12.543 27.44 6.86l9.71-5.826v120.676c0 44.112 35.888 80 80 80h100c11.046 0 20-8.954 20-20v-60h20c33.084 0 60-26.916 60-60v-32c0-33.084-26.916-60-60-60h-80c-33.084 0-60 26.916-60 60v32c0 33.084 26.916 60 60 60h20v40h-80c-22.056 0-40-17.944-40-40v-144.676l129.71-77.826c6.348-3.809 14.233-3.809 20.58 0l129.71 77.826v144.676c0 22.056-17.944 40-40 40h-20c-11.046 0-20 8.954-20 20s8.954 20 20 20h20c44.112 0 80-35.888 80-80v-120.676l9.71 5.826c9.471 5.683 21.757 2.611 27.44-6.86 5.683-9.472 2.612-21.757-6.86-27.44zm-270.29 89.15v-32c0-11.028 8.972-20 20-20h80c11.028 0 20 8.972 20 20v32c0 11.028-8.972 20-20 20h-80c-11.028 0-20-8.972-20-20z"/></g></g></svg>