<svg id="Capa_1" enable-background="new 0 0 512 512" height="512" viewBox="0 0 512 512" width="512" xmlns="http://www.w3.org/2000/svg"><g><path d="m356 276c0-55.14-44.86-100-100-100s-100 44.86-100 100 44.86 100 100 100 100-44.86 100-100zm-100 60c-33.084 0-60-26.916-60-60s26.916-60 60-60 60 26.916 60 60-26.916 60-60 60z"/><circle cx="256" cy="276" r="20"/><path d="m452 136h-20v-20c0-11.046-8.954-20-20-20s-20 8.954-20 20v20h-16c-11.028 0-20-8.972-20-20 0-33.084-26.916-60-60-60h-80c-33.084 0-60 26.916-60 60 0 11.028-8.972 20-20 20h-76c-33.084 0-60 26.916-60 60v200c0 33.084 26.916 60 60 60h392c33.084 0 60-26.916 60-60v-200c0-33.084-26.916-60-60-60zm20 260c0 11.028-8.972 20-20 20h-392c-11.028 0-20-8.972-20-20v-200c0-11.028 8.972-20 20-20h76c33.084 0 60-26.916 60-60 0-11.028 8.972-20 20-20h80c11.028 0 20 8.972 20 20 0 33.084 26.916 60 60 60h76c11.028 0 20 8.972 20 20z"/></g></svg>