<svg id="Capa_1" enable-background="new 0 0 512 512" height="512" viewBox="0 0 512 512" width="512" xmlns="http://www.w3.org/2000/svg"><g id="Photo_Camera"><g><path d="m256 376c-33.084 0-60-26.916-60-60s26.916-60 60-60 60 26.916 60 60-26.916 60-60 60zm0-80c-11.028 0-20 8.972-20 20s8.972 20 20 20 20-8.972 20-20-8.972-20-20-20z"/></g><path d="m452 136h-56c-11.028 0-20-8.972-20-20 0-33.084-26.916-60-60-60h-120c-33.084 0-60 26.916-60 60 0 11.028-8.972 20-20 20h-16v-20c0-11.046-8.954-20-20-20s-20 8.954-20 20v20c-33.084 0-60 26.916-60 60v200c0 33.084 26.916 60 60 60h392c33.084 0 60-26.916 60-60v-200c0-33.084-26.916-60-60-60zm-392 280c-11.028 0-20-8.972-20-20v-200c0-11.028 8.972-20 20-20h56c33.084 0 60-26.916 60-60 0-11.028 8.972-20 20-20h120c11.028 0 20 8.972 20 20 0 33.084 26.916 60 60 60h56c11.028 0 20 8.972 20 20v100h-77.435c-9.735-67.755-68.159-120-138.565-120s-128.83 52.245-138.565 120h-21.435c-11.046 0-20 8.954-20 20s8.954 20 20 20h21.435c4.473 31.13 19.222 58.982 40.693 80zm196 0c-55.14 0-100-44.86-100-100s44.86-100 100-100c55.141 0 100 44.86 100 100s-44.859 100-100 100zm196 0h-98.128c21.471-21.018 36.221-48.87 40.693-80h77.435v60c0 11.028-8.972 20-20 20z"/></g></svg>