<svg id="Capa_1" enable-background="new 0 0 512 512" height="512" viewBox="0 0 512 512" width="512" xmlns="http://www.w3.org/2000/svg"><g><path d="m96 472c-11.046 0-20 8.954-20 20s8.954 20 20 20h320c11.046 0 20-8.954 20-20s-8.954-20-20-20h-140v-96c0-33.084 26.916-60 60-60 11.028 0 20 8.972 20 20 0 21.356-11.501 41.276-30.014 51.985-9.562 5.53-12.829 17.765-7.298 27.326 5.531 9.562 17.767 12.829 27.326 7.298 30.833-17.835 49.986-51.021 49.986-86.609 0-33.084-26.916-60-60-60-32.676 0-61.741 15.755-80 40.066-18.259-24.311-47.324-40.066-80-40.066-33.084 0-60 26.916-60 60 0 55.14 44.86 100 100 100h20v36zm120-76c-33.084 0-60-26.916-60-60 0-11.028 8.972-20 20-20 33.084 0 60 26.916 60 60v20z"/><path d="m376 20c0-11.046-8.954-20-20-20h-200c-11.046 0-20 8.954-20 20 0 66.168 53.832 120 120 120s120-53.832 120-120zm-197.469 20h154.938c-8.903 34.466-40.26 60-77.469 60s-68.566-25.534-77.469-60z"/><path d="m401.885 127.32 34.641 20c9.566 5.523 21.798 2.246 27.32-7.32 5.523-9.566 2.246-21.797-7.32-27.32l-34.641-20c-9.566-5.524-21.797-2.246-27.32 7.32s-2.246 21.797 7.32 27.32z"/><path d="m348.68 220.525c5.524 9.567 17.753 12.844 27.32 7.32 9.566-5.523 12.843-17.754 7.32-27.32l-20-34.641c-5.523-9.567-17.756-12.844-27.32-7.32-9.566 5.523-12.843 17.754-7.32 27.32z"/><path d="m256 180c-11.046 0-20 8.954-20 20v40c0 11.046 8.954 20 20 20s20-8.954 20-20v-40c0-11.046-8.954-20-20-20z"/><path d="m148.68 165.885-20 34.641c-5.523 9.566-2.246 21.797 7.32 27.32s21.798 2.246 27.32-7.32l20-34.641c5.523-9.566 2.246-21.797-7.32-27.32-9.566-5.524-21.798-2.247-27.32 7.32z"/><path d="m117.436 100c-5.523-9.566-17.756-12.844-27.32-7.32l-34.641 20c-9.566 5.523-12.843 17.754-7.32 27.32 5.524 9.567 17.753 12.844 27.32 7.32l34.641-20c9.565-5.523 12.842-17.754 7.32-27.32z"/><path d="m416 20c0 11.046 8.954 20 20 20h40c11.046 0 20-8.954 20-20s-8.954-20-20-20h-40c-11.046 0-20 8.954-20 20z"/><path d="m96 20c0-11.046-8.954-20-20-20h-40c-11.046 0-20 8.954-20 20s8.954 20 20 20h40c11.046 0 20-8.954 20-20z"/></g></svg>