<svg id="Capa_1" enable-background="new 0 0 512 512" height="512" viewBox="0 0 512 512" width="512" xmlns="http://www.w3.org/2000/svg"><g><circle cx="256" cy="336" r="20"/><path d="m416 236h-40c-11.046 0-20 8.954-20 20s8.954 20 20 20h40c11.046 0 20-8.954 20-20s-8.954-20-20-20z"/><path d="m452 160h-107.716l-10.71-10.71c-18.888-18.888-44-29.29-70.711-29.29h-13.726c-26.711 0-51.823 10.402-70.711 29.29l-10.71 10.71h-51.716v-20c0-11.046-8.954-20-20-20s-20 8.954-20 20v20h-16c-33.084 0-60 26.916-60 60v232c0 33.084 26.916 60 60 60h392c33.084 0 60-26.916 60-60v-232c0-33.084-26.916-60-60-60zm20 292c0 11.028-8.972 20-20 20h-392c-11.028 0-20-8.972-20-20v-96h118.011c9.291 45.589 49.697 80 97.989 80s88.698-34.411 97.989-80h118.011zm-276-116c0-33.084 26.916-60 60-60s60 26.916 60 60-26.916 60-60 60-60-26.916-60-60zm276-20h-118.011c-9.291-45.589-49.697-80-97.989-80s-88.698 34.411-97.989 80h-118.011v-96c0-11.028 8.972-20 20-20h116c5.304 0 10.392-2.107 14.142-5.858l16.568-16.568c11.333-11.333 26.4-17.574 42.427-17.574h13.726c16.027 0 31.094 6.241 42.427 17.574l16.568 16.568c3.75 3.751 8.838 5.858 14.142 5.858h116c11.028 0 20 8.972 20 20z"/><path d="m276 60v-40c0-11.046-8.954-20-20-20s-20 8.954-20 20v40c0 11.046 8.954 20 20 20s20-8.954 20-20z"/><path d="m145.29 97.574c7.811 7.811 20.474 7.811 28.284 0 7.811-7.811 7.811-20.474 0-28.284l-28.285-28.285c-7.811-7.811-20.474-7.811-28.284 0s-7.811 20.474 0 28.284z"/><path d="m366.71 97.574 28.285-28.285c7.811-7.811 7.811-20.474 0-28.284s-20.474-7.811-28.284 0l-28.285 28.285c-7.811 7.811-7.811 20.474 0 28.284s20.474 7.81 28.284 0z"/></g></svg>