<svg id="Capa_1" enable-background="new 0 0 512 512" height="512" viewBox="0 0 512 512" width="512" xmlns="http://www.w3.org/2000/svg"><g id="Camera"><g><path d="m256 80c-11.046 0-20-8.954-20-20v-40c0-11.046 8.954-20 20-20s20 8.954 20 20v40c0 11.046-8.954 20-20 20z"/></g><g><path d="m148.281 82.521-13.681-37.588c-3.778-10.379 1.573-21.856 11.953-25.635 10.381-3.78 21.856 1.574 25.635 11.953l13.682 37.587c3.778 10.379-1.573 21.856-11.953 25.635-10.403 3.787-21.866-1.596-25.636-11.952z"/></g><g><path d="m338.084 94.474c-10.38-3.778-15.731-15.255-11.953-25.635l13.682-37.587c3.778-10.379 15.255-15.729 25.635-11.953 10.38 3.778 15.731 15.255 11.953 25.635l-13.682 37.587c-3.766 10.345-15.223 15.741-25.635 11.953z"/></g><g><path d="m492 312h-138.011c-9.291-45.589-49.696-80-97.989-80s-88.698 34.411-97.989 80h-118.011v-60c0-33.084 26.916-60 60-60h76c11.046 0 20-8.954 20-20 0-11.028 8.972-20 20-20h80c11.028 0 20 8.972 20 20 0 11.046 8.954 20 20 20h76c33.084 0 60 26.916 60 60 0 11.046 8.954 20 20 20s20-8.954 20-20c0-55.14-44.859-100-100-100h-59.427c-8.255-23.281-30.498-40-56.573-40h-80c-26.075 0-48.318 16.719-56.573 40h-39.427v-20c0-11.046-8.954-20-20-20s-20 8.954-20 20v22.011c-45.59 9.291-80 49.696-80 97.989v160c0 55.14 44.859 100 100 100h312c55.141 0 100-44.86 100-100v-80c0-11.046-8.954-20-20-20zm-236-40c33.084 0 60 26.916 60 60s-26.916 60-60 60-60-26.916-60-60 26.916-60 60-60zm216 140c0 33.084-26.916 60-60 60h-312c-33.084 0-60-26.916-60-60v-60h118.011c9.291 45.589 49.696 80 97.989 80s88.698-34.411 97.989-80h118.011z"/><circle cx="412" cy="252" r="20"/></g></g></svg>