<svg id="Capa_1" enable-background="new 0 0 512 512" height="512" viewBox="0 0 512 512" width="512" xmlns="http://www.w3.org/2000/svg"><g><path d="m168.036 116.42c9.066 6.306 21.532 4.068 27.838-5l43.683-62.811c3.749-5.391 9.896-8.609 16.443-8.609s12.694 3.218 16.443 8.608l43.683 62.811c6.306 9.068 18.771 11.307 27.838 5 9.068-6.307 11.307-18.771 5-27.839l-43.683-62.812c-11.221-16.135-29.645-25.768-49.281-25.768s-38.06 9.633-49.282 25.769l-43.683 62.812c-6.306 9.068-4.067 21.532 5.001 27.839z"/><path d="m452 152h-392c-33.084 0-60 26.916-60 60v240c0 33.084 26.916 60 60 60h392c33.084 0 60-26.916 60-60v-240c0-33.084-26.916-60-60-60zm20 300c0 11.028-8.972 20-20 20h-267.01l136.042-153.266c3.799-4.28 9.254-6.734 14.968-6.734s11.169 2.454 14.968 6.734l50.075 56.414c7.333 8.261 19.973 9.014 28.234 1.681s9.013-19.973 1.681-28.234l-50.075-56.414c-11.384-12.826-27.743-20.181-44.883-20.181s-33.499 7.355-44.883 20.181l-159.612 179.819h-71.505c-11.028 0-20-8.972-20-20v-240c0-11.028 8.972-20 20-20h392c11.028 0 20 8.972 20 20z"/><path d="m136 232c-33.084 0-60 26.916-60 60s26.916 60 60 60 60-26.916 60-60-26.916-60-60-60zm0 80c-11.028 0-20-8.972-20-20s8.972-20 20-20 20 8.972 20 20-8.972 20-20 20z"/></g></svg>