<svg id="Capa_1" enable-background="new 0 0 512 512" height="512" viewBox="0 0 512 512" width="512" xmlns="http://www.w3.org/2000/svg"><g><circle cx="252" cy="416" r="20"/><circle cx="100" cy="176" r="20"/><path d="m452 0h-236c-33.084 0-60 26.916-60 60v20h-96c-33.084 0-60 26.916-60 60v312c0 33.084 26.916 60 60 60h232c33.084 0 60-26.916 60-60v-312c0-33.084-26.916-60-60-60h-96v-20c0-11.028 8.972-20 20-20h236c11.028 0 20 8.972 20 20v316c0 11.028-8.972 20-20 20h-40c-11.046 0-20 8.954-20 20s8.954 20 20 20h40c33.084 0 60-26.916 60-60v-316c0-33.084-26.916-60-60-60zm-140 140v312c0 11.028-8.972 20-20 20h-232c-11.028 0-20-8.972-20-20v-312c0-11.028 8.972-20 20-20h232c11.028 0 20 8.972 20 20z"/><path d="m159.914 207.547-56.568 76.569c-5.219 7.063-5.219 16.705 0 23.769l56.568 76.569c3.771 5.104 9.74 8.116 16.086 8.116s12.315-3.012 16.086-8.116l56.568-76.569c5.219-7.063 5.219-16.705 0-23.769l-56.568-76.569c-3.771-5.104-9.74-8.116-16.086-8.116s-12.315 3.012-16.086 8.116zm47.788 88.453-31.702 42.911-31.702-42.911 31.702-42.911z"/></g></svg>