<svg id="Capa_1" enable-background="new 0 0 512 512" height="512" viewBox="0 0 512 512" width="512" xmlns="http://www.w3.org/2000/svg"><g id="Stopwatch"><g><path d="m425.066 151.221 14.783-14.784c7.811-7.811 7.81-20.474-.001-28.285-7.811-7.81-20.474-7.81-28.284 0l-14.782 14.783c-39.458-32.972-88.736-50.935-140.782-50.935-121.596 0-220 98.404-220 220s98.404 220 220 220 220-98.404 220-220c0-52.045-17.962-101.323-50.934-140.779zm-169.066 320.779c-99.252 0-180-80.748-180-180s80.748-180 180-180 180 80.748 180 180-80.748 180-180 180z"/><path d="m216 40h80c11.046 0 20-8.954 20-20s-8.954-20-20-20h-80c-11.046 0-20 8.954-20 20s8.954 20 20 20z"/></g><g><path d="m256 432c-77.196 0-140-62.804-140-140s62.804-140 140-140c11.046 0 20 8.954 20 20v100h20c11.046 0 20 8.954 20 20s-8.954 20-20 20h-40c-11.046 0-20-8.954-20-20v-97.991c-45.587 9.292-80 49.699-80 97.991 0 55.14 44.86 100 100 100 55.141 0 100-44.86 100-100 0-11.046 8.954-20 20-20s20 8.954 20 20c0 77.196-62.804 140-140 140z"/></g></g></svg>