<svg id="Capa_1" enable-background="new 0 0 512 512" height="512" viewBox="0 0 512 512" width="512" xmlns="http://www.w3.org/2000/svg"><g><path d="m112 296c0-11.046-8.954-20-20-20h-72c-11.046 0-20 8.954-20 20s8.954 20 20 20h72c11.046 0 20-8.954 20-20z"/><path d="m60 236h45.707c11.046 0 20-8.954 20-20s-8.954-20-20-20h-45.707c-11.046 0-20 8.954-20 20s8.954 20 20 20z"/><path d="m125.707 376c0-11.046-8.954-20-20-20h-45.707c-11.046 0-20 8.954-20 20s8.954 20 20 20h45.707c11.046 0 20-8.954 20-20z"/><path d="m332 476c99.252 0 180-80.748 180-180 0-32.096-8.594-63.632-24.853-91.197-15.763-26.723-38.279-49.073-65.116-64.632-9.554-5.54-21.792-2.285-27.334 7.271-5.54 9.556-2.284 21.794 7.271 27.334 43.198 25.044 70.032 71.494 70.032 121.224 0 77.196-62.804 140-140 140s-140-62.804-140-140 62.804-140 140-140c11.046 0 20-8.954 20-20v-60h20c11.046 0 20-8.954 20-20s-8.954-20-20-20h-80c-11.046 0-20 8.954-20 20s8.954 20 20 20h20v41.117c-89.874 9.982-160 86.391-160 178.883 0 99.252 80.748 180 180 180z"/><path d="m312 216v71.716l-50.685 50.684c-3.75 3.751-5.857 8.838-5.857 14.143 0 5.304 2.107 10.392 5.858 14.142 18.907 18.904 44.009 29.315 70.684 29.315 55.141 0 100-44.86 100-100s-44.859-100-100-100c-11.046 0-20 8.954-20 20zm40 80v-56.573c23.281 8.254 40 30.498 40 56.573 0 33.084-26.916 60-60 60-9.093 0-17.885-2.021-25.864-5.852l40.006-40.006c3.751-3.751 5.858-8.838 5.858-14.142z"/></g></svg>