<svg id="Capa_1" enable-background="new 0 0 512.003 512.003" height="512" viewBox="0 0 512.003 512.003" width="512" xmlns="http://www.w3.org/2000/svg"><path d="m387.623 256.306c-32.04-52.15-76.63-96.51-132.531-131.848-23.771-15.027-54.309-11.566-74.323 8.476l-26.601 26.86c-26.135 26.169-40.663 60.96-40.907 97.966-.097 14.627-5.902 28.442-16.347 38.901l-72.47 72.562c-32.565 32.607-32.565 85.664 0 118.271 15.784 15.805 36.771 24.508 59.097 24.508 22.325 0 43.312-8.703 59.096-24.508l72.47-72.563c10.438-10.451 24.222-16.26 38.814-16.356 34.279-.227 62.771-6.047 90.408-33.719l34.627-34.673c19.705-19.729 23.269-50.108 8.667-73.877 0 .001 0 .001 0 0zm-36.969 45.612-19.704 19.729c-24.693-41.963-57.274-78.924-97.109-110.114-8.697-6.811-21.268-5.279-28.077 3.417s-5.279 21.268 3.418 28.077c38.044 29.787 68.696 65.349 91.277 105.862-13.254 7.753-27.483 9.558-46.802 9.685-25.187.168-48.928 10.144-66.852 28.091l-72.47 72.563c-8.227 8.237-19.163 12.773-30.793 12.773-11.631 0-22.567-4.536-30.794-12.773-17-17.021-17-44.719 0-61.74l72.47-72.562c17.917-17.941 27.877-41.701 28.043-66.903.174-26.43 10.548-51.277 29.27-70.023l26.601-26.86c3.846-3.851 9.012-5.853 14.186-5.853 3.613 0 7.23.977 10.402 2.982 50.693 32.046 91.007 72.076 119.822 118.977 4.876 7.939 3.69 18.086-2.888 24.672zm151.749-110.846c-3.254 1.987-6.852 2.934-10.404 2.934-6.74 0-13.318-3.406-17.088-9.58-35.532-58.187-85.213-107.829-147.664-147.547-9.321-5.928-12.071-18.289-6.143-27.609 5.927-9.32 18.29-12.071 27.609-6.143 67.649 43.024 121.594 97.009 160.336 160.453 5.756 9.426 2.78 21.735-6.646 27.492zm-341.282 160.788c7.811 7.811 7.811 20.475 0 28.285l-31.5 31.5c-3.905 3.904-9.023 5.857-14.142 5.857s-10.237-1.953-14.142-5.857c-7.811-7.811-7.811-20.475 0-28.285l31.5-31.5c7.811-7.809 20.474-7.809 28.284 0zm266.554-176.608c6.49 8.938 4.505 21.445-4.433 27.935-3.549 2.577-7.661 3.818-11.734 3.818-6.187 0-12.287-2.861-16.2-8.25-22.114-30.456-49.73-57.811-82.081-81.304-8.938-6.491-10.921-18.998-4.431-27.935 6.492-8.938 18.999-10.921 27.935-4.431 35.758 25.966 66.357 56.303 90.944 90.167z"/></svg>