<svg id="Capa_1" enable-background="new 0 0 512.003 512.003" height="512" viewBox="0 0 512.003 512.003" width="512" xmlns="http://www.w3.org/2000/svg"><g id="Video_Camera_2_"><g><path d="m20.001 240c-11.046 0-20-8.954-20-20v-80c0-11.046 8.954-20 20-20s20 8.954 20 20v80c0 11.046-8.954 20-20 20z"/></g><g><path d="m452.001 120c-10.529 0-20.895 2.772-29.976 8.017l-30.024 17.338v-5.355c0-33.084-26.916-60-60-60h-32c-11.046 0-20 8.954-20 20s8.954 20 20 20h32c11.028 0 20 8.972 20 20v160c0 11.028-8.972 20-20 20h-192c-11.028 0-20-8.972-20-20v-160c0-11.028 8.972-20 20-20h80c11.046 0 20-8.954 20-20v-40c0-11.028 8.972-20 20-20h152c11.046 0 20-8.954 20-20s-8.954-20-20-20h-232c-33.084 0-60 26.916-60 60v23.44c-23.278 8.256-40 30.487-40 56.56v160c0 33.084 26.916 60 60 60h58.902l-79.61 121.008c-6.071 9.228-3.512 21.63 5.716 27.701 9.229 6.07 21.63 3.513 27.701-5.716l83.292-126.603 83.292 126.603c6.071 9.229 18.472 11.788 27.701 5.716 9.228-6.071 11.787-18.473 5.716-27.701l-79.612-121.008h58.902c33.084 0 60-26.916 60-60v-5.355l30.024 17.339c9.082 5.245 19.447 8.017 29.976 8.017 33.084 0 60-26.916 60-60v-80c0-33.085-26.916-60.001-60-60.001zm-272-80h23.44c-2.22 6.26-3.44 12.989-3.44 20v20h-40v-20c0-11.028 8.972-20 20-20zm292 220c0 11.028-8.972 20-20 20-3.565 0-6.92-.894-9.973-2.656l-50.027-28.89v-56.909l50.028-28.89c3.051-1.762 6.406-2.655 9.972-2.655 11.028 0 20 8.972 20 20z"/><circle cx="180.001" cy="180" r="20"/></g></g></svg>