<svg id="Capa_1" enable-background="new 0 0 512 512" height="512" viewBox="0 0 512 512" width="512" xmlns="http://www.w3.org/2000/svg"><g><path d="m20 472h99.44c8.256 23.278 30.487 40 56.56 40 33.084 0 60-26.916 60-60s-26.916-60-60-60c-26.073 0-48.303 16.722-56.56 40h-99.44c-11.046 0-20 8.954-20 20s8.954 20 20 20zm156-40c11.028 0 20 8.972 20 20s-8.972 20-20 20-20-8.972-20-20 8.972-20 20-20z"/><path d="m492 432h-196c-11.046 0-20 8.954-20 20s8.954 20 20 20h196c11.046 0 20-8.954 20-20s-8.954-20-20-20z"/><path d="m136 360h240c55.14 0 100-44.86 100-100v-80c0-11.046-8.954-20-20-20s-20 8.954-20 20v80c0 33.084-26.916 60-60 60h-240c-33.084 0-60-26.916-60-60v-160c0-33.084 26.916-60 60-60h240c33.084 0 60 26.916 60 60 0 11.046 8.954 20 20 20s20-8.954 20-20c0-55.14-44.86-100-100-100h-240c-55.14 0-100 44.86-100 100v160c0 55.14 44.86 100 100 100z"/><path d="m216 280c9.279 0 18.549-2.183 26.809-6.313l80-40c20.473-10.236 33.191-30.808 33.191-53.687s-12.718-43.451-33.191-53.687l-80-40c-8.26-4.13-17.53-6.313-26.809-6.313-33.084 0-60 26.916-60 60v80c0 33.084 26.916 60 60 60zm-20-140c0-11.028 8.972-20 20-20 3.146 0 6.147.703 8.92 2.09l80 40c6.834 3.417 11.08 10.28 11.08 17.91s-4.246 14.493-11.08 17.91l-80 40c-2.773 1.386-5.774 2.09-8.92 2.09-11.028 0-20-8.972-20-20z"/></g></svg>