<svg id="Capa_1" enable-background="new 0 0 512 512" height="512" viewBox="0 0 512 512" width="512" xmlns="http://www.w3.org/2000/svg"><g id="Video_Camera_1_"><g><path d="m452 396c-6.855 0-13.588-1.152-20.011-3.424l-26.657-9.428c-10.414-3.683-15.87-15.11-12.188-25.524 3.683-10.414 15.117-15.87 25.523-12.187l26.659 9.428c2.13.754 4.374 1.135 6.674 1.135 11.028 0 20-8.972 20-20v-40c0-11.028-8.972-20-20-20-2.3 0-4.544.381-6.671 1.134l-26.661 9.429c-10.407 3.683-21.84-1.773-25.523-12.187s1.773-21.841 12.188-25.524l26.659-9.428c6.42-2.272 13.153-3.424 20.008-3.424 33.084 0 60 26.916 60 60v40c0 33.084-26.916 60-60 60z"/></g><g><path d="m452 56h-40c-26.073 0-48.303 16.722-56.56 40h-295.44c-33.084 0-60 26.916-60 60v240c0 33.084 26.916 60 60 60h232c33.084 0 60-26.916 60-60v-160c0-33.084-26.916-60-60-60h-72c-11.028 0-20-8.972-20-20v-20h155.44c8.256 23.278 30.487 40 56.56 40h40c33.084 0 60-26.916 60-60s-26.916-60-60-60zm-232 160h72c11.028 0 20 8.972 20 20v160c0 11.028-8.972 20-20 20h-232c-11.028 0-20-8.972-20-20v-240c0-11.028 8.972-20 20-20h100v20c0 33.084 26.916 60 60 60zm232-80h-40c-11.028 0-20-8.972-20-20s8.972-20 20-20h40c11.028 0 20 8.972 20 20s-8.972 20-20 20z"/><path d="m80 276c0 11.046 8.954 20 20 20h80c11.046 0 20-8.954 20-20s-8.954-20-20-20h-80c-11.046 0-20 8.954-20 20z"/><circle cx="100" cy="356" r="20"/><circle cx="180" cy="356" r="20"/></g></g></svg>