<svg id="Capa_1" enable-background="new 0 0 512 512" height="512" viewBox="0 0 512 512" width="512" xmlns="http://www.w3.org/2000/svg"><g id="Video_Card"><g><path d="m212 320c-33.084 0-60-26.916-60-60s26.916-60 60-60 60 26.916 60 60-26.916 60-60 60zm0-80c-11.028 0-20 8.972-20 20s8.972 20 20 20 20-8.972 20-20-8.972-20-20-20z"/></g><g><path d="m372 320c-33.084 0-60-26.916-60-60s26.916-60 60-60 60 26.916 60 60-26.916 60-60 60zm0-80c-11.028 0-20 8.972-20 20s8.972 20 20 20 20-8.972 20-20-8.972-20-20-20z"/></g><path d="m452 120h-340v-60c0-33.084-26.916-60-60-60h-32c-11.046 0-20 8.954-20 20s8.954 20 20 20h32c11.028 0 20 8.972 20 20v140.002h-19.999c-11.046 0-20 8.954-20 20s8.954 20 20 20h19.999v80h-19.999c-11.046 0-20 8.954-20 20s8.954 20 20 20h19.999v131.998c0 11.046 8.954 20 20 20s20-8.954 20-20v-52h100c11.046 0 20-8.954 20-20 0-5.342 2.081-10.365 5.858-14.142 3.778-3.777 8.8-5.857 14.142-5.857h20.001v20.001c0 11.046 8.954 20 20 20s20-8.954 20-20v-20.001h40v20c0 11.046 8.954 20 20 20s20-8.954 20-20v-40c0-10.355-7.87-18.873-17.955-19.897-.672-.068-1.354-.103-2.045-.103l-120-.001c-.001 0 0 0-.001 0-16.025 0-31.093 6.241-42.425 17.572-6.44 6.44-11.236 14.085-14.177 22.427h-83.398v-239.999h340c11.028 0 20 8.972 20 20v160c0 11.028-8.972 20-20 20-11.046 0-20 8.954-20 20s8.954 20 20 20c33.084 0 60-26.916 60-60v-160c0-33.084-26.916-60-60-60z"/></g></svg>