<svg id="Capa_1" enable-background="new 0 0 512 512" height="512" viewBox="0 0 512 512" width="512" xmlns="http://www.w3.org/2000/svg"><g id="Videocamera"><g><path d="m140 200c-33.084 0-60-26.916-60-60s26.916-60 60-60 60 26.916 60 60-26.916 60-60 60zm0-80c-11.028 0-20 8.972-20 20s8.972 20 20 20 20-8.972 20-20-8.972-20-20-20z"/></g><g><path d="m452 272h-112c-33.084 0-60 26.916-60 60v20h-40v-28.703c0-11.046-8.954-20-20-20s-20 8.954-20 20v88.703c0 33.084-26.916 60-60 60s-60-26.916-60-60v-145.526c18.195 8.667 38.54 13.526 60 13.526 77.196 0 140-62.804 140-140s-62.804-140-140-140-140 62.804-140 140c0 38.058 15.272 72.611 40 97.872v174.128c0 55.14 44.86 100 100 100s100-44.86 100-100v-20h40v20c0 33.084 26.916 60 60 60h112c33.084 0 60-26.916 60-60v-80c0-33.084-26.916-60-60-60zm-312-232c55.14 0 100 44.86 100 100s-44.86 100-100 100-100-44.86-100-100 44.86-100 100-100zm332 372c0 11.028-8.972 20-20 20h-112c-11.028 0-20-8.972-20-20v-80c0-11.028 8.972-20 20-20h52v20c0 11.046 8.954 20 20 20s20-8.954 20-20v-20h20c11.028 0 20 8.972 20 20z"/><circle cx="140" cy="412" r="20"/></g></g></svg>