<svg id="Capa_1" enable-background="new 0 0 512 512" height="512" viewBox="0 0 512 512" width="512" xmlns="http://www.w3.org/2000/svg"><g id="Video_Camera_2_"><g><path d="m140 200c33.084 0 60-26.916 60-60s-26.916-60-60-60-60 26.916-60 60 26.916 60 60 60zm0-80c11.028 0 20 8.972 20 20s-8.972 20-20 20-20-8.972-20-20 8.972-20 20-20z"/><path d="m452 240h-112c-33.084 0-60 26.916-60 60v40h-40v-16.703c0-11.046-8.954-20-20-20s-20 8.954-20 20v128.703c0 11.028-8.972 20-20 20h-80c-11.028 0-20-8.972-20-20v-185.526c18.196 8.667 38.54 13.526 60 13.526 77.196 0 140-62.804 140-140s-62.804-140-140-140-140 62.804-140 140c0 38.058 15.272 72.611 40 97.872v214.128c0 33.084 26.916 60 60 60h80c33.084 0 60-26.916 60-60v-72h40v40c0 33.084 26.916 60 60 60h112c33.084 0 60-26.916 60-60v-120c0-33.084-26.916-60-60-60zm-312-200c55.141 0 100 44.86 100 100s-44.859 100-100 100-100-44.86-100-100 44.859-100 100-100zm332 380c0 11.028-8.972 20-20 20h-112c-11.028 0-20-8.972-20-20v-40h20c11.046 0 20-8.954 20-20s-8.954-20-20-20h-20v-40c0-11.028 8.972-20 20-20h112c11.028 0 20 8.972 20 20z"/><circle cx="140" cy="340" r="20"/></g><g><path d="m400 60c0-11.046-8.954-20-20-20h-20v-20c0-11.046-8.954-20-20-20s-20 8.954-20 20v20h-20c-11.046 0-20 8.954-20 20s8.954 20 20 20h20v100c0 11.046 8.954 20 20 20s20-8.954 20-20v-100h20c11.046 0 20-8.954 20-20z"/><path d="m492 120h-20v-100c0-11.046-8.954-20-20-20s-20 8.954-20 20v100h-20c-11.046 0-20 8.954-20 20s8.954 20 20 20h20v20c0 11.046 8.954 20 20 20s20-8.954 20-20v-20h20c11.046 0 20-8.954 20-20s-8.954-20-20-20z"/></g></g></svg>