<svg id="Capa_1" enable-background="new 0 0 512 512" height="512" viewBox="0 0 512 512" width="512" xmlns="http://www.w3.org/2000/svg"><g id="Video"><path d="m452 336h-76c-33.084 0-60 26.916-60 60 0 11.028-8.972 20-20 20h-80c-11.028 0-20-8.972-20-20 0-33.084-26.916-60-60-60h-56v-220c0-11.028 8.972-20 20-20h312c11.028 0 20 8.972 20 20v160c0 11.046 8.954 20 20 20s20-8.954 20-20v-160c0-33.084-26.916-60-60-60h-312c-33.084 0-60 26.916-60 60v223.44c-23.278 8.257-40 30.487-40 56.56 0 33.084 26.916 60 60 60h392c33.084 0 60-26.916 60-60s-26.916-60-60-60zm-392 80c-11.028 0-20-8.972-20-20s8.972-20 20-20h76c11.028 0 20 8.972 20 20 0 7.009 1.208 13.742 3.427 20zm392 0h-99.427c2.219-6.258 3.427-12.991 3.427-20 0-11.028 8.972-20 20-20h76c11.028 0 20 8.972 20 20s-8.972 20-20 20z"/><g><path d="m206.146 293.404c-6.27-3.55-10.146-10.198-10.146-17.404v-120c0-7.206 3.876-13.854 10.146-17.404 6.271-3.55 13.966-3.452 20.144.254l100 60c6.024 3.615 9.71 10.125 9.71 17.15s-3.686 13.535-9.71 17.15l-100 60c-6.179 3.707-13.874 3.804-20.144.254zm29.854-102.08v49.353l41.127-24.677z"/></g></g></svg>