<svg id="Capa_1" enable-background="new 0 0 512 512" height="512" viewBox="0 0 512 512" width="512" xmlns="http://www.w3.org/2000/svg"><g id="Video"><g><path d="m412 360h-312c-55.141 0-100-44.86-100-100v-160c0-55.14 44.859-100 100-100h312c55.141 0 100 44.86 100 100v160c0 55.14-44.859 100-100 100zm-312-320c-33.084 0-60 26.916-60 60v160c0 33.084 26.916 60 60 60h312c33.084 0 60-26.916 60-60v-160c0-33.084-26.916-60-60-60z"/></g><g><path d="m236 280c-22.056 0-40-17.944-40-40v-120c0-22.056 17.944-40 40-40 8.724 0 17.019 2.763 23.987 7.989l80.001 60h.001c10.026 7.521 16.011 19.487 16.011 32.011s-5.985 24.49-16.011 32.01l-80.001 60c-6.969 5.227-15.264 7.99-23.988 7.99zm79.988-100.01-80-60 .012 120.01 79.988-59.99"/></g><g><path d="m60 512c-33.084 0-60-26.916-60-60s26.916-60 60-60 60 26.916 60 60-26.916 60-60 60zm0-80c-11.028 0-20 8.972-20 20s8.972 20 20 20 20-8.972 20-20-8.972-20-20-20z"/></g><g><path d="m492 472h-312c-11.046 0-20-8.954-20-20s8.954-20 20-20h312c11.046 0 20 8.954 20 20s-8.954 20-20 20z"/></g></g></svg>