<svg id="Capa_1" enable-background="new 0 0 512 512" height="512" viewBox="0 0 512 512" width="512" xmlns="http://www.w3.org/2000/svg"><g id="Video_File"><g><path d="m287.056 429.889c-6.776-3.388-11.056-10.313-11.056-17.889v-120c0-7.576 4.28-14.501 11.056-17.889s14.884-2.656 20.944 1.889l80 60c5.036 3.777 8 9.705 8 16s-2.964 12.223-8 16l-80 60c-6.061 4.545-14.168 5.276-20.944 1.889zm28.944-97.889v40l26.667-20z"/></g><g><path d="m116 472h-40c-11.028 0-20-8.972-20-20v-392c0-11.028 8.972-20 20-20h140v60c0 33.084 26.916 60 60 60h80c8.089 0 15.382-4.873 18.478-12.346 3.096-7.474 1.385-16.076-4.335-21.796l-120.013-120.012c-3.738-3.73-8.908-5.846-14.13-5.846h-160c-33.084 0-60 26.916-60 60v392c0 33.084 26.916 60 60 60h40c11.046 0 20-8.954 20-20s-8.954-20-20-20zm160-352c-11.028 0-20-8.972-20-20v-31.716l51.716 51.716z"/><path d="m436 192h-200c-33.084 0-60 26.916-60 60v200c0 33.084 26.916 60 60 60h200c33.084 0 60-26.916 60-60v-200c0-33.084-26.916-60-60-60zm20 260c0 11.028-8.972 20-20 20h-200c-11.028 0-20-8.972-20-20v-200c0-11.028 8.972-20 20-20h200c11.028 0 20 8.972 20 20z"/></g></g></svg>