<svg id="Capa_1" enable-background="new 0 0 512 512" height="512" viewBox="0 0 512 512" width="512" xmlns="http://www.w3.org/2000/svg"><g id="Video_Conference"><g><path d="m432 0h-352c-44.112 0-80 35.888-80 80v232c0 44.112 35.888 80 80 80h352c44.112 0 80-35.888 80-80v-232c0-44.112-35.888-80-80-80zm40 312c0 22.056-17.944 40-40 40h-352c-22.056 0-40-17.944-40-40v-232c0-22.056 17.944-40 40-40h352c22.056 0 40 17.944 40 40z"/><path d="m336 472h-60v-20c0-11.046-8.954-20-20-20s-20 8.954-20 20v20h-60c-11.046 0-20 8.954-20 20s8.954 20 20 20h160c11.046 0 20-8.954 20-20s-8.954-20-20-20z"/><path d="m216 172c0-33.084-26.916-60-60-60s-60 26.916-60 60 26.916 60 60 60 60-26.916 60-60zm-60 20c-11.028 0-20-8.972-20-20s8.972-20 20-20 20 8.972 20 20-8.972 20-20 20z"/><path d="m416 172c0-33.084-26.916-60-60-60s-60 26.916-60 60 26.916 60 60 60 60-26.916 60-60zm-60 20c-11.028 0-20-8.972-20-20s8.972-20 20-20 20 8.972 20 20-8.972 20-20 20z"/><path d="m156 232c-33.849 0-64.167 21.434-75.443 53.335-3.681 10.415 1.778 21.841 12.192 25.522 10.416 3.68 21.841-1.778 25.522-12.192 5.637-15.949 20.799-26.665 37.729-26.665s32.092 10.716 37.729 26.665c3.682 10.416 15.106 15.873 25.522 12.192 10.414-3.681 15.873-15.107 12.192-25.522-11.276-31.901-41.594-53.335-75.443-53.335z"/><path d="m356 232c-33.849 0-64.167 21.434-75.443 53.335-3.681 10.415 1.778 21.841 12.192 25.522 10.416 3.68 21.841-1.778 25.522-12.192 5.637-15.949 20.799-26.665 37.729-26.665s32.092 10.716 37.729 26.665c3.682 10.416 15.106 15.873 25.522 12.192 10.414-3.681 15.873-15.107 12.192-25.522-11.276-31.901-41.594-53.335-75.443-53.335z"/></g><g><circle cx="256" cy="100" r="20"/></g></g></svg>