<svg id="Capa_1" enable-background="new 0 0 512 512" height="512" viewBox="0 0 512 512" width="512" xmlns="http://www.w3.org/2000/svg"><g id="Voice_Recording_2_"><g><path d="m300 200c-11.046 0-20-8.954-20-20v-120c0-33.084 26.916-60 60-60h112c33.084 0 60 26.916 60 60v40c0 33.084-26.916 60-60 60h-112c-11.028 0-20 8.972-20 20 0 11.046-8.954 20-20 20zm40-160c-11.028 0-20 8.972-20 20v63.427c6.258-2.219 12.991-3.427 20-3.427h112c11.028 0 20-8.972 20-20v-40c0-11.028-8.972-20-20-20z"/></g><g><path d="m180 360c55.141 0 100-44.86 100-100 0-11.046-8.954-20-20-20s-20 8.954-20 20c0 33.084-26.916 60-60 60s-60-26.916-60-60v-20h60c11.046 0 20-8.954 20-20s-8.954-20-20-20h-60v-40h60c11.046 0 20-8.954 20-20s-8.954-20-20-20h-60v-20c0-33.084 26.916-60 60-60 11.523 0 22.709 3.27 32.348 9.455 9.296 5.966 21.667 3.266 27.634-6.03 5.966-9.296 3.266-21.668-6.03-27.634-16.098-10.331-34.754-15.791-53.952-15.791-55.141 0-100 44.86-100 100v160c0 55.14 44.859 100 100 100z"/><path d="m360 260c0-11.046-8.954-20-20-20s-20 8.954-20 20c0 77.194-62.8 139.996-139.992 140-.003 0-.005 0-.008 0s-.005 0-.008 0c-77.192-.004-139.992-62.806-139.992-140 0-11.046-8.954-20-20-20s-20 8.954-20 20c0 92.492 70.126 168.901 160 178.883v33.117h-60c-11.046 0-20 8.954-20 20s8.954 20 20 20h160c11.046 0 20-8.954 20-20s-8.954-20-20-20h-60v-33.117c89.874-9.982 160-86.391 160-178.883z"/></g></g></svg>