<svg id="Capa_1" enable-background="new 0 0 512 512" height="512" viewBox="0 0 512 512" width="512" xmlns="http://www.w3.org/2000/svg"><g id="Voice_Recorder"><g><path d="m436 316h-40c-11.046 0-20-8.954-20-20s8.954-20 20-20h40c11.046 0 20 8.954 20 20s-8.954 20-20 20z"/></g><g><path d="m436 356h-40c-11.046 0-20 8.954-20 20v76c0 11.028-8.972 20-20 20h-240c-11.028 0-20-8.972-20-20v-392c0-11.028 8.972-20 20-20h240c11.028 0 20 8.972 20 20v156c0 11.046 8.954 20 20 20h40c11.046 0 20-8.954 20-20s-8.954-20-20-20h-20v-136c0-33.084-26.916-60-60-60h-240c-33.084 0-60 26.916-60 60v392c0 33.084 26.916 60 60 60h240c33.084 0 60-26.916 60-60v-56h20c11.046 0 20-8.954 20-20s-8.954-20-20-20z"/><circle cx="316" cy="416" r="20"/><circle cx="236" cy="416" r="20"/><circle cx="156" cy="416" r="20"/><circle cx="276" cy="336" r="20"/><circle cx="196" cy="336" r="20"/><path d="m236 76c-55.14 0-100 44.86-100 100s44.86 100 100 100c55.148 0 100-44.852 100-100 0-55.14-44.86-100-100-100zm-38.951 145.582 14.31-8.262c9.566-5.523 12.843-17.755 7.32-27.321s-17.755-12.843-27.32-7.321l-14.338 8.278c-.659-3.554-1.021-7.213-1.021-10.956 0-26.073 16.722-48.304 40-56.56v16.56c0 11.046 8.954 20 20 20s20-8.954 20-20v-16.56c23.278 8.256 40 30.487 40 56.56 0 3.743-.362 7.402-1.021 10.958l-14.338-8.278c-9.566-5.523-21.798-2.246-27.32 7.321-5.523 9.566-2.246 21.798 7.32 27.321l14.31 8.262c-10.491 8.976-24.094 14.416-38.951 14.416s-28.46-5.44-38.951-14.418z"/></g></g></svg>