<svg id="Capa_1" enable-background="new 0 0 512 512" height="512" viewBox="0 0 512 512" width="512" xmlns="http://www.w3.org/2000/svg"><g id="Volume"><g><path d="m372 40h-20v-20c0-11.046-8.954-20-20-20s-20 8.954-20 20v20h-20c-11.046 0-20 8.954-20 20s8.954 20 20 20h20v92c0 11.046 8.954 20 20 20s20-8.954 20-20v-92h20c11.046 0 20-8.954 20-20s-8.954-20-20-20z"/><path d="m492 112h-20v-92c0-11.046-8.954-20-20-20s-20 8.954-20 20v92h-20c-11.046 0-20 8.954-20 20s8.954 20 20 20h20v20c0 11.046 8.954 20 20 20s20-8.954 20-20v-20h20c11.046 0 20-8.954 20-20s-8.954-20-20-20z"/></g><path d="m292 232h-20v-100c0-33.084-26.916-60-60-60-20.689 0-39.651 10.446-50.726 27.943l-52.35 82.723c-3.697 5.845-10.025 9.334-16.924 9.334h-32c-33.084 0-60 26.916-60 60v80c0 33.084 26.916 60 60 60h32c6.899 0 13.227 3.489 16.925 9.333l52.35 82.723c11.074 17.498 30.036 27.944 50.725 27.944 33.084 0 60-26.916 60-60v-100h20c33.084 0 60-26.916 60-60s-26.916-60-60-60zm-60 220c0 11.028-8.972 20-20 20-6.899 0-13.227-3.489-16.925-9.333l-52.35-82.723c-11.074-17.498-30.036-27.944-50.725-27.944h-32c-11.028 0-20-8.972-20-20v-80c0-11.028 8.972-20 20-20h32c20.689 0 39.652-10.446 50.726-27.944l52.349-82.722c3.698-5.845 10.026-9.334 16.925-9.334 11.028 0 20 8.972 20 20zm60-140h-20v-40h20c11.028 0 20 8.972 20 20s-8.972 20-20 20z"/></g></svg>