<svg id="Layer_1" enable-background="new 0 0 512 512" height="512" viewBox="0 0 512 512" width="512" xmlns="http://www.w3.org/2000/svg"><path d="m392 418h-272.021c-66.156 0-119.979-53.823-119.979-119.979v-164.021c0-66.168 53.832-120 120-120h155c11.046 0 20 8.954 20 20s-8.954 20-20 20h-155c-44.112 0-80 35.888-80 80v164.021c0 44.1 35.878 79.979 79.979 79.979h272.021c39.268 0 73.275-29.223 79.105-67.975 1.643-10.923 11.826-18.445 22.752-16.802 10.923 1.643 18.445 11.83 16.802 22.752-4.231 28.129-18.445 53.937-40.022 72.67-21.804 18.93-49.731 29.355-78.637 29.355zm120-244v-40c0-55.14-44.86-100-100-100h-13c-40.28 0-76.023 24.014-91.688 60h-86.991c-26.617 0-52.753 10.773-71.707 29.558-8.17 8.097-12.669 18.908-12.669 30.442s4.5 22.345 12.669 30.442c18.953 18.785 45.09 29.558 71.707 29.558h86.991c15.665 35.986 51.408 60 91.688 60h13c55.14 0 100-44.86 100-100zm-190.479-40c9.125 0 17.094-6.177 19.369-15.015 6.817-26.486 30.713-44.985 58.11-44.985h13c33.084 0 60 26.916 60 60v40c0 33.084-26.916 60-60 60h-13c-27.397 0-51.293-18.499-58.111-44.985-2.274-8.838-10.243-15.015-19.368-15.015h-101.2c-16.154 0-32.027-6.549-43.549-17.969-.684-.677-.827-1.479-.827-2.031s.143-1.354.827-2.032c11.521-11.419 27.395-17.968 43.549-17.968zm50.479 344c0-11.046-8.954-20-20-20h-192c-11.046 0-20 8.954-20 20s8.954 20 20 20h192c11.046 0 20-8.954 20-20zm45-349c-13.807 0-25 11.193-25 25s11.193 25 25 25 25-11.193 25-25-11.193-25-25-25z"/></svg>