<svg id="Layer_1" enable-background="new 0 0 512 512" height="512" viewBox="0 0 512 512" width="512" xmlns="http://www.w3.org/2000/svg"><path d="m73.983 396.819c-3.104 0-6.252-.724-9.196-2.252-39.962-20.74-64.787-61.574-64.787-106.567v-164c0-66.168 53.832-120 120-120h272c66.168 0 120 53.832 120 120v109c0 11.046-8.954 20-20 20s-20-8.954-20-20v-109c0-44.112-35.888-80-80-80h-272c-44.112 0-80 35.888-80 80v164c0 30 16.559 57.23 43.213 71.063 9.804 5.088 13.627 17.161 8.539 26.965-3.56 6.859-10.54 10.791-17.769 10.791zm438.017 11.181v-40c0-55.14-44.859-100-100-100h-13c-40.279 0-76.023 24.014-91.688 60h-86.991c-26.617 0-52.754 10.773-71.708 29.558-8.17 8.097-12.669 18.908-12.669 30.442s4.499 22.345 12.67 30.442c18.953 18.785 45.09 29.558 71.707 29.558h86.991c15.664 35.986 51.408 60 91.688 60h13c55.141 0 100-44.86 100-100zm-190.479-40c9.126 0 17.094-6.177 19.369-15.015 6.816-26.486 30.713-44.985 58.11-44.985h13c33.084 0 60 26.916 60 60v40c0 33.084-26.916 60-60 60h-13c-27.397 0-51.294-18.499-58.11-44.985-2.276-8.838-10.244-15.015-19.369-15.015h-101.2c-16.154 0-32.028-6.549-43.55-17.968-.684-.677-.827-1.479-.827-2.032s.144-1.354.826-2.031c11.523-11.42 27.397-17.969 43.551-17.969zm-65.009-102.071c-25.676 0-51.356-8.17-72.785-24.514-.033-.025-.066-.05-.099-.076l-93.855-72.512c-8.741-6.753-10.353-19.313-3.6-28.054 6.753-8.74 19.313-10.354 28.055-3.599l93.803 72.471c28.56 21.751 68.434 21.74 96.985-.035l96.893-73.541c8.801-6.677 21.345-4.958 28.022 3.84 6.679 8.798 4.959 21.344-3.839 28.022l-96.855 73.512c-21.401 16.322-47.061 24.486-72.725 24.486zm160.488 97.071c-13.807 0-25 11.193-25 25s11.193 25 25 25 25-11.193 25-25-11.193-25-25-25z"/></svg>