<svg id="Capa_1" enable-background="new 0 0 512 512" height="512" viewBox="0 0 512 512" width="512" xmlns="http://www.w3.org/2000/svg"><g id="Block"><path d="m412 232h-60v-100c0-33.084-26.916-60-60-60s-60 26.916-60 60v103.44c-6.26-2.22-12.989-3.44-20-3.44-33.084 0-60 26.916-60 60v40c0 99.252 80.748 180 180 180s180-80.748 180-180c0-55.14-44.86-100-100-100zm-80 240c-77.196 0-140-62.804-140-140v-40c0-11.028 8.972-20 20-20s20 8.972 20 20v40c0 11.046 8.954 20 20 20s20-8.954 20-20v-200c0-11.028 8.972-20 20-20s20 8.972 20 20v120c0 11.046 8.954 20 20 20h80c33.084 0 60 26.916 60 60 0 77.196-62.804 140-140 140z"/><path d="m100 0c-55.14 0-100 44.86-100 100 0 55.131 44.869 100 100 100 55.14 0 100-44.86 100-100 0-55.281-44.979-100-100-100zm0 40c9.251 0 18.019 2.108 25.852 5.864l-79.988 79.989c-3.756-7.834-5.864-16.601-5.864-25.853 0-33.084 26.916-60 60-60zm0 120c-9.251 0-18.019-2.108-25.852-5.864l79.988-79.989c3.756 7.834 5.864 16.601 5.864 25.853 0 33.084-26.916 60-60 60z"/></g></svg>