<svg id="Capa_1" enable-background="new 0 0 512 512" height="512" viewBox="0 0 512 512" width="512" xmlns="http://www.w3.org/2000/svg"><g><path d="m444.944 182.111-80-40c-5.631-2.815-12.258-2.815-17.889 0l-80 40c-6.747 3.364-11.055 10.35-11.055 17.889v100c0 7.575 4.28 14.5 11.056 17.889l68.944 34.472v39.639h-240v-312c0-22.056 17.944-40 40-40h160c22.056 0 40 17.944 40 40 0 11.046 8.954 20 20 20s20-8.954 20-20c0-44.112-35.888-80-80-80h-160c-44.112 0-80 35.888-80 80v352c0 44.112 35.888 80 80 80h160c44.112 0 80-35.888 80-80v-79.639l68.944-34.472c6.776-3.389 11.056-10.314 11.056-17.889v-100c0-7.529-4.317-14.53-11.056-17.889zm-148.944 289.889h-160c-22.056 0-40-17.944-40-40h240c0 22.056-17.944 40-40 40zm60-289.639 35.279 17.639-35.279 17.639-35.279-17.639zm60 105.278-60 30-60-30v-55.278l51.056 25.528c5.63 2.815 12.258 2.815 17.889 0l51.055-25.528z"/><path d="m156 216h40c11.046 0 20-8.954 20-20s-8.954-20-20-20h-40c-11.046 0-20 8.954-20 20s8.954 20 20 20z"/><path d="m156 296h40c11.046 0 20-8.954 20-20s-8.954-20-20-20h-40c-11.046 0-20 8.954-20 20s8.954 20 20 20z"/></g></svg>