<svg id="Capa_1" enable-background="new 0 0 512 512" height="512" viewBox="0 0 512 512" width="512" xmlns="http://www.w3.org/2000/svg"><g id="Blockchain_2_"><path d="m492 40h-59.44c-8.257-23.278-30.487-40-56.56-40h-40c-26.073 0-48.303 16.722-56.56 40h-46.88c-8.257-23.278-30.487-40-56.56-40h-40c-26.073 0-48.303 16.722-56.56 40h-59.44c-11.046 0-20 8.954-20 20s8.954 20 20 20h59.44c8.256 23.278 30.487 40 56.56 40h40c26.073 0 48.303-16.722 56.56-40h46.881c8.256 23.278 30.487 40 56.56 40h40c26.073 0 48.303-16.722 56.56-40h59.439c11.046 0 20-8.954 20-20s-8.954-20-20-20zm-316 40h-40c-11.028 0-20-8.972-20-20s8.972-20 20-20h40c11.028 0 20 8.972 20 20s-8.972 20-20 20zm200 0h-40c-11.028 0-20-8.972-20-20s8.972-20 20-20h40c11.028 0 20 8.972 20 20s-8.972 20-20 20z"/><g><path d="m336 312v-40c0-37.209-25.534-68.565-60-77.468v-54.532c0-11.046-8.954-20-20-20s-20 8.954-20 20v54.532c-34.466 8.903-60 40.259-60 77.468v40c-33.084 0-60 26.916-60 60v80c0 33.084 26.916 60 60 60h160c33.084 0 60-26.916 60-60v-80c0-33.084-26.916-60-60-60zm-120-40c0-22.056 17.944-40 40-40s40 17.944 40 40v40h-80zm140 180c0 11.028-8.972 20-20 20h-160c-11.028 0-20-8.972-20-20v-80c0-11.028 8.972-20 20-20h160c11.028 0 20 8.972 20 20z"/><circle cx="256" cy="412" r="20"/></g></g></svg>