<svg id="Capa_1" enable-background="new 0 0 512 512" height="512" viewBox="0 0 512 512" width="512" xmlns="http://www.w3.org/2000/svg"><g><path d="m216 392h20v20c0 11.046 8.954 20 20 20s20-8.954 20-20v-20h20c11.046 0 20-8.954 20-20s-8.954-20-20-20h-80c-11.046 0-20 8.954-20 20s8.954 20 20 20z"/><path d="m336 232c11.046 0 20-8.954 20-20v-112c0-55.14-44.86-100-100-100s-100 44.859-100 100v172h-20c-33.084 0-60 26.915-60 59.998v120.002c0 33.084 26.916 60 60 60h240c33.084 0 60-26.916 60-60v-120c0-33.084-26.916-60-60-60h-180v-172c0-33.084 26.916-60 60-60s60 26.916 60 60v112c0 11.046 8.954 20 20 20zm60 100v120c0 11.028-8.972 20-20 20h-240c-11.028 0-20-8.972-20-20v-120.002c0-11.027 8.972-19.998 20-19.998h240c11.028 0 20 8.972 20 20z"/></g></svg>