<svg id="Capa_1" enable-background="new 0 0 512 512" height="512" viewBox="0 0 512 512" width="512" xmlns="http://www.w3.org/2000/svg"><g id="Blockchain"><g><path d="m452 312h-80c-33.084 0-60 26.916-60 60v20h-52c-11.046 0-20 8.954-20 20s8.954 20 20 20h52v20c0 33.084 26.916 60 60 60h80c33.084 0 60-26.916 60-60v-80c0-33.084-26.916-60-60-60zm20 140c0 11.028-8.972 20-20 20h-80c-11.028 0-20-8.972-20-20v-80c0-11.028 8.972-20 20-20h80c11.028 0 20 8.972 20 20z"/><path d="m168.699 319.323 28.118-56.236c4.939-9.879.935-21.893-8.944-26.833-9.88-4.939-21.893-.935-26.833 8.944l-33.401 66.802h-67.639c-33.084 0-60 26.916-60 60v80c0 33.084 26.916 60 60 60h80c33.084 0 60-26.916 60-60v-80c0-22.694-12.667-42.484-31.301-52.677zm-8.699 132.677c0 11.028-8.972 20-20 20h-80c-11.028 0-20-8.972-20-20v-80c0-11.028 8.972-20 20-20 0 0 79.933.004 79.984.004.02 0 .041-.002.061-.002 11.007.025 19.955 8.985 19.955 19.998z"/><path d="m316.867 270.447c4.744 9.976 16.676 14.217 26.651 9.472 9.975-4.744 14.216-16.676 9.472-26.651l-28.71-60.369c18.862-10.124 31.72-30.036 31.72-52.899v-80c0-33.084-26.916-60-60-60h-80c-33.084 0-60 26.916-60 60v80c0 33.084 26.916 60 60 60h67.365zm-120.867-130.447v-80c0-11.028 8.972-20 20-20h80c11.028 0 20 8.972 20 20v80c0 11.028-8.972 20-20 20h-80c-11.028 0-20-8.972-20-20z"/></g><g><circle cx="256" cy="100" r="20"/></g><g><circle cx="412" cy="412" r="20"/></g><g><circle cx="100" cy="412" r="20"/></g></g></svg>