<svg id="Capa_1" enable-background="new 0 0 512 512" height="512" viewBox="0 0 512 512" width="512" xmlns="http://www.w3.org/2000/svg"><g id="Blockchain"><path d="m354.995 157.005c-23.451-23.45-61.403-23.45-84.854 0l-4.828 4.828c-7.811 7.811-7.81 20.474.001 28.284s20.474 7.81 28.284-.001l4.828-4.828c7.817-7.817 20.467-7.816 28.284 0 7.816 7.816 7.816 20.469-.001 28.284l-28.284 28.284c-7.796 7.797-20.484 7.799-28.284 0-23.393-23.394-61.458-23.393-84.853 0l-28.284 28.284c-23.449 23.45-23.449 61.404.001 84.853 23.392 23.393 61.457 23.394 84.853 0l4.828-4.828c7.811-7.811 7.81-20.474-.001-28.284s-20.474-7.81-28.284.001l-4.827 4.828c-7.799 7.798-20.486 7.798-28.285 0-7.816-7.816-7.816-20.469.001-28.284l28.283-28.284c7.8-7.798 20.487-7.797 28.285 0 11.696 11.697 27.062 17.545 42.426 17.545s30.729-5.848 42.427-17.545l28.284-28.284c23.449-23.45 23.449-61.403 0-84.853z"/><g><path d="m452 0h-80c-33.084 0-60 26.916-60 60v25.775c0 11.046 8.954 20 20 20s20-8.954 20-20v-25.775c0-11.028 8.972-20 20-20h80c11.028 0 20 8.972 20 20v80c0 11.028-8.972 20-20 20h-25.71c-11.046 0-20 8.954-20 20s8.954 20 20 20h25.71c33.084 0 60-26.916 60-60v-80c0-33.084-26.916-60-60-60z"/><path d="m452 312h-80c-33.084 0-60 26.916-60 60v20h-60c-11.046 0-20 8.954-20 20s8.954 20 20 20h60v20c0 33.084 26.916 60 60 60h80c33.084 0 60-26.916 60-60v-80c0-33.084-26.916-60-60-60zm20 140c0 11.028-8.972 20-20 20h-80c-11.028 0-20-8.972-20-20v-80c0-11.028 8.972-20 20-20h80c11.028 0 20 8.972 20 20z"/><path d="m180 406.148c-11.046 0-20 8.954-20 20v25.852c0 11.028-8.972 20-20 20h-80c-11.028 0-20-8.972-20-20v-80c0-11.028 8.972-20 20-20h25.71c11.046 0 20-8.954 20-20s-8.954-20-20-20h-25.71c-33.084 0-60 26.916-60 60v80c0 33.084 26.916 60 60 60h80c33.084 0 60-26.916 60-60v-25.852c0-11.045-8.954-20-20-20z"/><path d="m260 120c11.046 0 20-8.954 20-20s-8.954-20-20-20h-60v-20c0-33.084-26.916-60-60-60h-80c-33.084 0-60 26.916-60 60v80c0 33.084 26.916 60 60 60h80c33.084 0 60-26.916 60-60v-20zm-100 20c0 11.028-8.972 20-20 20h-80c-11.028 0-20-8.972-20-20v-80c0-11.028 8.972-20 20-20h80c11.028 0 20 8.972 20 20z"/><circle cx="100" cy="100" r="20"/><circle cx="412" cy="100" r="20"/><circle cx="100" cy="412" r="20"/><circle cx="412" cy="412" r="20"/></g></g></svg>