<svg id="Capa_1" enable-background="new 0 0 512 512" height="512" viewBox="0 0 512 512" width="512" xmlns="http://www.w3.org/2000/svg"><path d="m207 459v33c0 11.046-8.954 20-20 20s-20-8.954-20-20v-33c0-11.046 8.954-20 20-20s20 8.954 20 20zm-100-20c-11.046 0-20 8.954-20 20v33c0 11.046 8.954 20 20 20s20-8.954 20-20v-33c0-11.046-8.954-20-20-20zm140-209v103c0 11.046 8.954 20 20 20s20-8.954 20-20v-103c0-16.542 13.458-30 30-30h98c11.046 0 20-8.954 20-20s-8.954-20-20-20h-98c-38.598 0-70 31.402-70 70zm-80-65v168c0 11.046 8.954 20 20 20s20-8.954 20-20v-168c0-24.813 20.187-45 45-45h113c11.046 0 20-8.954 20-20s-8.954-20-20-20h-113c-46.869 0-85 38.131-85 85zm-60 188c11.046 0 20-8.954 20-20v-233c0-33.084 26.916-60 60-60h128c11.046 0 20-8.954 20-20s-8.954-20-20-20h-128c-55.141 0-100 44.86-100 100v233c0 11.046 8.954 20 20 20zm358-113h-78c-33.084 0-60 26.916-60 60v33c0 11.046 8.954 20 20 20s20-8.954 20-20v-33c0-11.028 8.972-20 20-20h78c11.046 0 20-8.954 20-20s-8.954-20-20-20zm-118 199c-11.046 0-20 8.954-20 20v33c0 11.046 8.954 20 20 20s20-8.954 20-20v-33c0-11.046-8.954-20-20-20zm-80 0c-11.046 0-20 8.954-20 20v33c0 11.046 8.954 20 20 20s20-8.954 20-20v-33c0-11.046-8.954-20-20-20zm191.926-64h-411.926c-11.046 0-20 8.954-20 20s8.954 20 20 20h411.926c11.046 0 20-8.954 20-20s-8.954-20-20-20z"/></svg>