<svg id="Capa_1" enable-background="new 0 0 512 512" height="512" viewBox="0 0 512 512" width="512" xmlns="http://www.w3.org/2000/svg"><g><path d="m100 312c-11.046 0-20 8.954-20 20v80c0 11.046 8.954 20 20 20s20-8.954 20-20v-80c0-11.046-8.954-20-20-20z"/><path d="m452 312h-16v-20c0-11.046-8.954-20-20-20s-20 8.954-20 20v20h-40v-20c0-11.046-8.954-20-20-20s-20 8.954-20 20v40c0 11.046 8.954 20 20 20h116c11.028 0 20 8.972 20 20s-8.972 20-20 20h-272c-11.046 0-20 8.954-20 20 0 33.084-26.916 60-60 60s-60-26.916-60-60v-80c0-33.084 26.916-60 60-60s60 26.916 60 60c0 11.046 8.954 20 20 20h76c11.046 0 20-8.954 20-20s-8.954-20-20-20h-58.009c-9.292-45.587-49.699-80-97.991-80-55.14 0-100 44.86-100 100v80c0 55.14 44.86 100 100 100 48.292 0 88.699-34.413 97.991-80h254.009c33.084 0 60-26.916 60-60s-26.916-60-60-60z"/><path d="m396 60c0-33.084-26.916-60-60-60s-60 26.916-60 60 26.916 60 60 60 60-26.916 60-60zm-60 20c-11.028 0-20-8.972-20-20s8.972-20 20-20 20 8.972 20 20-8.972 20-20 20z"/><g><path d="m416 240h-160c-15.264 0-24.909-16.462-17.447-29.778l27.623-49.29c14.148-25.248 40.903-40.932 69.824-40.932s55.676 15.685 69.824 40.933l27.623 49.289c7.462 13.316-2.183 29.778-17.447 29.778zm-125.865-40h91.73l-10.936-19.512c-7.08-12.638-20.465-20.488-34.929-20.488s-27.849 7.85-34.93 20.487v.001z"/></g></g></svg>