<svg id="Capa_1" enable-background="new 0 0 512 512" height="512" viewBox="0 0 512 512" width="512" xmlns="http://www.w3.org/2000/svg"><g><path d="m472 83.438v-23.44c0-11.046-8.954-20-20-20s-20 8.954-20 20v20h-40v-20c0-11.046-8.954-20-20-20s-20 8.954-20 20v20h-105.719c-7.555 0-14.629-4.867-18.464-12.702-23.661-48.346-75.478-74.66-128.931-65.484-58.131 9.98-98.886 63.362-98.886 122.344v31.681c0 59.004 40.778 112.371 98.888 122.347 53.336 9.158 105.215-17.033 128.93-65.485 3.834-7.834 10.909-12.701 18.463-12.701h205.719c33.084 0 60-26.916 60-60 0-26.073-16.722-48.304-40-56.56zm-20 76.56h-205.719c-22.948 0-43.79 13.456-54.391 35.117-15.786 32.252-50.437 49.791-86.233 43.646-37.431-6.427-65.657-42.076-65.657-82.924v-31.681c0-40.846 28.226-76.494 65.655-82.921 35.806-6.146 70.455 11.402 86.235 43.646 10.602 21.661 31.443 35.118 54.392 35.118h205.718c11.028 0 20 8.972 20 20s-8.972 19.999-20 19.999z"/><path d="m252 351.998c11.046 0 20-8.954 20-20v-80c0-11.046-8.954-20-20-20s-20 8.954-20 20v80c0 11.046 8.954 20 20 20z"/><path d="m492 231.998c-11.046 0-20 8.954-20 20v80c0 11.046 8.954 20 20 20s20-8.954 20-20v-80c0-11.046-8.954-20-20-20z"/><path d="m312 491.998c0 11.046 8.954 20 20 20s20-8.954 20-20v-80c0-11.046-8.954-20-20-20s-20 8.954-20 20z"/><path d="m232 491.998c0 11.046 8.954 20 20 20s20-8.954 20-20v-80c0-11.046-8.954-20-20-20s-20 8.954-20 20z"/><path d="m372 351.998c33.084 0 60-26.916 60-60s-26.916-60-60-60-60 26.916-60 60 26.916 60 60 60zm0-80c11.028 0 20 8.972 20 20s-8.972 20-20 20-20-8.972-20-20 8.972-20 20-20z"/><path d="m452 391.998c-33.084 0-60 26.916-60 60s26.916 60 60 60 60-26.916 60-60-26.916-60-60-60zm0 80c-11.028 0-20-8.972-20-20s8.972-20 20-20 20 8.972 20 20-8.972 20-20 20z"/><circle cx="100" cy="139.998" r="20"/></g></svg>