<svg id="Capa_1" enable-background="new 0 0 516 516" height="512" viewBox="0 0 516 516" width="512" xmlns="http://www.w3.org/2000/svg"><g><circle cx="96" cy="254" r="20"/><circle cx="96" cy="414" r="20"/><circle cx="96" cy="334" r="20"/><circle cx="176" cy="254" r="20"/><circle cx="176" cy="334" r="20"/><circle cx="256" cy="254" r="20"/><circle cx="256" cy="334" r="20"/><circle cx="336" cy="254" r="20"/><circle cx="336" cy="334" r="20"/><circle cx="416" cy="254" r="20"/><circle cx="416" cy="414" r="20"/><circle cx="416" cy="334" r="20"/><path d="m412 154h-312c-55.14 0-100 44.86-100 100v160c0 55.14 44.86 100 100 100h312c55.14 0 100-44.86 100-100v-160c0-55.14-44.86-100-100-100zm60 260c0 33.084-26.916 60-60 60h-312c-33.084 0-60-26.916-60-60v-160c0-33.084 26.916-60 60-60h312c33.084 0 60 26.916 60 60z"/><path d="m496 2c-11.046 0-20 8.954-20 20 0 11.028-8.972 20-20 20h-160c-33.084 0-60 26.916-60 60 0 11.046 8.954 20 20 20s20-8.954 20-20c0-11.028 8.972-20 20-20h160c33.084 0 60-26.916 60-60 0-11.046-8.954-20-20-20z"/><path d="m156 414c0 11.046 8.954 20 20 20h160c11.046 0 20-8.954 20-20s-8.954-20-20-20h-160c-11.046 0-20 8.954-20 20z"/></g></svg>