<svg id="Capa_1" enable-background="new 0 0 516 516" height="512" viewBox="0 0 516 516" width="512" xmlns="http://www.w3.org/2000/svg"><g><path d="m176 438h160c11.046 0 20-8.954 20-20s-8.954-20-20-20h-160c-11.046 0-20 8.954-20 20s8.954 20 20 20z"/><path d="m432 162h-96c-11.046 0-20 8.954-20 20s8.954 20 20 20h96c22.056 0 40 17.944 40 40v192c0 22.056-17.944 40-40 40h-352c-22.056 0-40-17.944-40-40v-192c0-22.056 17.944-40 40-40h96c11.046 0 20-8.954 20-20s-8.954-20-20-20h-96c-44.112 0-80 35.888-80 80v192c0 44.112 35.888 80 80 80h352c44.112 0 80-35.888 80-80v-192c0-44.112-35.888-80-80-80z"/><circle cx="96" cy="258" r="20"/><circle cx="176" cy="258" r="20"/><circle cx="256" cy="258" r="20"/><circle cx="336" cy="258" r="20"/><circle cx="416" cy="258" r="20"/><circle cx="416" cy="418" r="20"/><circle cx="96" cy="418" r="20"/><circle cx="216" cy="338" r="20"/><circle cx="296" cy="338" r="20"/><path d="m496 2c-11.046 0-20 8.954-20 20 0 33.084-26.916 60-60 60h-80c-55.141 0-100 44.86-100 100 0 11.046 8.954 20 20 20s20-8.954 20-20c0-33.084 26.916-60 60-60h80c55.141 0 100-44.86 100-100 0-11.046-8.954-20-20-20z"/><path d="m156 338c0-11.046-8.954-20-20-20h-40c-11.046 0-20 8.954-20 20s8.954 20 20 20h40c11.046 0 20-8.954 20-20z"/><path d="m356 338c0 11.046 8.954 20 20 20h40c11.046 0 20-8.954 20-20s-8.954-20-20-20h-40c-11.046 0-20 8.954-20 20z"/></g></svg>