<svg id="Capa_1" enable-background="new 0 0 512 512" height="512" viewBox="0 0 512 512" width="512" xmlns="http://www.w3.org/2000/svg"><g id="Keyboard_1_"><g><path d="m452 456h-392c-33.084 0-60-26.916-60-60v-160c0-33.084 26.916-60 60-60h116c11.046 0 20 8.954 20 20s-8.954 20-20 20h-116c-11.028 0-20 8.972-20 20v160c0 11.028 8.972 20 20 20h392c11.028 0 20-8.972 20-20v-160c0-11.028-8.972-20-20-20h-116c-11.046 0-20-8.954-20-20s8.954-20 20-20h116c33.084 0 60 26.916 60 60v160c0 33.084-26.916 60-60 60z"/></g><g><circle cx="96" cy="276" r="20"/></g><g><circle cx="176" cy="276" r="20"/></g><g><circle cx="256" cy="276" r="20"/></g><g><circle cx="336" cy="276" r="20"/></g><g><circle cx="416" cy="276" r="20"/></g><g><circle cx="416" cy="356" r="20"/></g><g><circle cx="96" cy="356" r="20"/></g><g><path d="m336 376h-160c-11.046 0-20-8.954-20-20s8.954-20 20-20h160c11.046 0 20 8.954 20 20s-8.954 20-20 20z"/></g><g><path d="m256 216c-11.046 0-20-8.954-20-20v-40c0-11.028-8.972-20-20-20h-120c-33.084 0-60-26.916-60-60 0-11.046 8.954-20 20-20s20 8.954 20 20c0 11.028 8.972 20 20 20h120c33.084 0 60 26.916 60 60v40c0 11.046-8.954 20-20 20z"/></g></g></svg>