<svg id="Capa_1" enable-background="new 0 0 512 512" height="512" viewBox="0 0 512 512" width="512" xmlns="http://www.w3.org/2000/svg"><g id="Keyboard"><g><path d="m256 416h-80c-11.046 0-20-8.954-20-20s8.954-20 20-20h80c11.046 0 20 8.954 20 20s-8.954 20-20 20z"/></g><g><path d="m452 216h-116c-11.046 0-20 8.954-20 20s8.954 20 20 20h116c11.028 0 20 8.972 20 20v160c0 11.028-8.972 20-20 20h-392c-11.028 0-20-8.972-20-20v-160c0-11.028 8.972-20 20-20h196c11.046 0 20-8.954 20-20v-40c0-11.028 8.972-20 20-20h80c33.084 0 60-26.916 60-60s-26.916-60-60-60h-240c-11.028 0-20-8.972-20-20 0-11.046-8.954-20-20-20s-20 8.954-20 20c0 33.084 26.916 60 60 60h240c11.028 0 20 8.972 20 20s-8.972 20-20 20h-80c-33.084 0-60 26.916-60 60v20h-176c-33.084 0-60 26.916-60 60v160c0 33.084 26.916 60 60 60h392c33.084 0 60-26.916 60-60v-160c0-33.084-26.916-60-60-60z"/><circle cx="96" cy="316" r="20"/><circle cx="96" cy="396" r="20"/><circle cx="176" cy="316" r="20"/><circle cx="256" cy="316" r="20"/><circle cx="416" cy="316" r="20"/><circle cx="416" cy="396" r="20"/><path d="m336 376c11.046 0 20-8.954 20-20v-40c0-11.046-8.954-20-20-20s-20 8.954-20 20v40c0 11.046 8.954 20 20 20z"/></g></g></svg>