<svg id="Layer_1" enable-background="new 0 0 512 512" height="512" viewBox="0 0 512 512" width="512" xmlns="http://www.w3.org/2000/svg"><path d="m289 276h-99.451c2.706 50.612 15.012 95.453 24.546 126.05 3.286 10.546-2.599 21.759-13.145 25.045-1.98.617-3.985.91-5.956.91-8.522 0-16.42-5.49-19.089-14.055-10.334-33.166-23.705-82.056-26.408-137.95h-49.497c-11.046 0-20-8.954-20-20s8.954-20 20-20h49.5c2.72-55.888 16.173-104.798 26.57-137.98 3.303-10.542 14.527-16.407 25.065-13.105 10.541 3.303 16.408 14.525 13.105 25.065-9.589 30.601-21.965 75.442-24.688 126.02h99.448c11.046 0 20 8.954 20 20s-8.954 20-20 20zm50.123-57.998c.862 0 1.735-.056 2.613-.17 10.953-1.429 18.673-11.467 17.245-22.419-4.14-31.729-11.301-63.586-21.895-97.393-3.302-10.54-14.524-16.407-25.065-13.104-10.54 3.303-16.407 14.525-13.104 25.065 9.892 31.567 16.565 61.205 20.401 90.607 1.312 10.075 9.91 17.414 19.805 17.414zm172.877 186.998v27c0 44.112-35.888 80-80 80h-69c-44.112 0-80-35.888-80-80v-27c0-35.382 23.098-65.454 55-75.978v-26.022c0-33.084 26.916-60 60-60s60 26.916 60 60v26.361c31.383 10.819 54 40.628 54 75.639zm-134-102v22h40v-22c0-11.028-8.972-20-20-20s-20 8.972-20 20zm94 102c0-22.056-17.944-40-40-40h-69c-22.056 0-40 17.944-40 40v27c0 22.056 17.944 40 40 40h69c22.056 0 40-17.944 40-40zm-231.58 66.448c-112.385-8-200.42-102.635-200.42-215.448 0-119.103 96.897-216 216-216 113.306 0 207.97 88.452 215.513 201.369.736 11.021 10.269 19.361 21.289 18.623 11.021-.736 19.359-10.268 18.623-21.289-4.321-64.69-32.808-124.833-80.212-169.35-47.625-44.723-109.85-69.353-175.213-69.353-68.38 0-132.667 26.628-181.02 74.98s-74.98 112.64-74.98 181.02c0 65.167 24.501 127.255 68.991 174.826 44.271 47.337 104.144 75.934 168.589 80.521.483.035.963.052 1.44.052 10.399-.001 19.179-8.047 19.929-18.581.785-11.018-7.511-20.586-18.529-21.37zm156.58-77.448c-13.807 0-25 11.193-25 25s11.193 25 25 25 25-11.193 25-25-11.193-25-25-25z"/></svg>