<svg id="Capa_1" enable-background="new 0 0 512 512" height="512" viewBox="0 0 512 512" width="512" xmlns="http://www.w3.org/2000/svg"><g id="Lock"><g><circle cx="356" cy="412" r="20"/></g><g><path d="m176 472h-80c-11.028 0-20-8.972-20-20v-392c0-11.028 8.972-20 20-20h140v60c0 33.084 26.916 60 60 60h80c8.089 0 15.382-4.873 18.478-12.346 3.096-7.474 1.385-16.076-4.335-21.796l-120-120c-3.717-3.714-8.889-5.858-14.143-5.858h-160c-33.084 0-60 26.916-60 60v392c0 33.084 26.916 60 60 60h80c11.046 0 20-8.954 20-20s-8.954-20-20-20zm120-352c-11.028 0-20-8.972-20-20v-31.716l51.716 51.716z"/><path d="m136 120c-11.046 0-20 8.954-20 20s8.954 20 20 20h40c11.046 0 20-8.954 20-20s-8.954-20-20-20z"/><path d="m216 200h-80c-11.046 0-20 8.954-20 20s8.954 20 20 20h80c11.046 0 20-8.954 20-20s-8.954-20-20-20z"/><path d="m436 315.44v-35.44c0-44.112-35.888-80-80-80s-80 35.888-80 80v35.44c-23.278 8.256-40 30.487-40 56.56v80c0 33.084 26.916 60 60 60h120c33.084 0 60-26.916 60-60v-80c0-26.073-16.722-48.303-40-56.56zm-120-35.44c0-22.056 17.944-40 40-40s40 17.944 40 40v32h-80zm120 172c0 11.028-8.972 20-20 20h-120c-11.028 0-20-8.972-20-20v-80c0-11.028 8.972-20 20-20h120c11.028 0 20 8.972 20 20z"/></g></g></svg>