<svg id="Capa_1" enable-background="new 0 0 512 512" height="512" viewBox="0 0 512 512" width="512" xmlns="http://www.w3.org/2000/svg"><g id="Lockers"><g><path d="m396 0h-280c-44.112 0-80 35.888-80 80v412c0 11.046 8.954 20 20 20s20-8.954 20-20v-20h160v20c0 11.046 8.954 20 20 20s20-8.954 20-20v-452h120c22.056 0 40 17.944 40 40v352h-100c-11.046 0-20 8.954-20 20s8.954 20 20 20h100v20c0 11.046 8.954 20 20 20s20-8.954 20-20v-412c0-44.112-35.888-80-80-80zm-320 80c0-22.056 17.944-40 40-40h120v392h-160z"/><path d="m336 120h40c11.046 0 20-8.954 20-20s-8.954-20-20-20h-40c-11.046 0-20 8.954-20 20s8.954 20 20 20z"/><path d="m336 200h40c11.046 0 20-8.954 20-20s-8.954-20-20-20h-40c-11.046 0-20 8.954-20 20s8.954 20 20 20z"/><path d="m176 80h-40c-11.046 0-20 8.954-20 20s8.954 20 20 20h40c11.046 0 20-8.954 20-20s-8.954-20-20-20z"/><path d="m176 160h-40c-11.046 0-20 8.954-20 20s8.954 20 20 20h40c11.046 0 20-8.954 20-20s-8.954-20-20-20z"/></g><g><circle cx="336" cy="260" r="20"/></g><g><circle cx="136" cy="260" r="20"/></g></g></svg>