<svg id="Layer_1" enable-background="new 0 0 512 512" height="512" viewBox="0 0 512 512" width="512" xmlns="http://www.w3.org/2000/svg"><path d="m259 267.5c-67.271 0-122 54.729-122 122s54.729 122 122 122 122-54.729 122-122-54.729-122-122-122zm0 204c-45.215 0-82-36.785-82-82s36.785-82 82-82 82 36.785 82 82-36.785 82-82 82zm253-226c0 24.833-6.551 49.259-18.946 70.636-12.013 20.72-29.231 38.168-49.792 50.46-9.481 5.669-21.761 2.577-27.429-6.903-5.668-9.481-2.577-21.761 6.903-27.429 30.848-18.441 49.264-50.876 49.264-86.764 0-55.691-45.309-101-101-101-1.28 0-2.671.032-4.255.097-5.308.23-10.507-1.692-14.413-5.31s-6.208-8.645-6.396-13.965c-1.684-47.564-40.31-84.822-87.936-84.822-43.431 0-79.963 31.062-86.865 73.858-1.713 10.625-11.536 17.981-22.208 16.663-2.789-.346-5.624-.521-8.427-.521-37.22 0-67.5 30.28-67.5 67.5 0 8.45 1.54 16.687 4.575 24.483 3.698 9.495-.335 20.252-9.363 24.977-17.401 9.107-28.212 26.94-28.212 46.54 0 26.431 19.97 48.829 46.451 52.099 10.963 1.354 18.752 11.337 17.398 22.3-1.25 10.13-9.897 17.101-19.849 17.101-48-3-84-44.908-84-91.5 0-28.843 13.276-55.51 35.5-72.856-1.662-7.56-2.5-15.298-2.5-23.144 0-57.677 45.653-104.89 102.724-107.396 7.084-22.836 20.529-43.434 38.889-59.213 23.176-19.92 52.79-30.891 83.387-30.891 33.388 0 64.988 12.782 88.979 35.99 19.342 18.711 32.083 42.582 36.878 68.591 71.747 6.514 128.143 67.004 128.143 140.419zm-279 190c-5.119 0-10.237-1.953-14.142-5.858-7.811-7.811-7.811-20.474 0-28.284l52-52c7.811-7.811 20.474-7.811 28.284 0s7.811 20.474 0 28.284l-52 52c-3.905 3.905-9.023 5.858-14.142 5.858z"/></svg>