<svg id="Capa_1" enable-background="new 0 0 512 512" height="512" viewBox="0 0 512 512" width="512" xmlns="http://www.w3.org/2000/svg"><g id="Lock"><path d="m412 232h-60v-100c0-33.084-26.916-60-60-60s-60 26.916-60 60v103.44c-6.26-2.22-12.989-3.44-20-3.44-33.084 0-60 26.916-60 60v40c0 99.252 80.748 180 180 180s180-80.748 180-180c0-55.14-44.859-100-100-100zm-80 240c-77.196 0-140-62.804-140-140v-40c0-11.028 8.972-20 20-20s20 8.972 20 20v40c0 11.046 8.954 20 20 20s20-8.954 20-20v-200c0-11.028 8.972-20 20-20s20 8.972 20 20v120c0 11.046 8.954 20 20 20h80c33.084 0 60 26.916 60 60 0 77.196-62.804 140-140 140z"/><path d="m180 80h-20v-20c0-33.084-26.916-60-60-60s-60 26.916-60 60v20h-20c-11.046 0-20 8.954-20 20v40c0 55.14 44.859 100 100 100s100-44.86 100-100v-40c0-11.046-8.954-20-20-20zm-100-20c0-11.028 8.972-20 20-20s20 8.972 20 20v20h-40zm80 80c0 33.084-26.916 60-60 60s-60-26.916-60-60v-20h40v20c0 11.046 8.954 20 20 20s20-8.954 20-20v-20h40z"/></g></svg>