<svg id="Capa_1" enable-background="new 0 0 512 512" height="512" viewBox="0 0 512 512" width="512" xmlns="http://www.w3.org/2000/svg"><g id="Lock"><path d="m316 292c0-33.084-26.916-60-60-60s-60 26.916-60 60c0 26.073 16.722 48.304 40 56.56v63.44c0 11.046 8.954 20 20 20s20-8.954 20-20v-63.44c23.278-8.256 40-30.487 40-56.56zm-60 20c-11.028 0-20-8.972-20-20s8.972-20 20-20 20 8.972 20 20-8.972 20-20 20z"/><path d="m452 312c33.084 0 60-26.916 60-60v-80c0-11.046-8.954-20-20-20s-20 8.954-20 20v80c0 11.028-8.972 20-20 20h-16v-20c0-48.293-34.41-88.698-80-97.989v-54.011c0-55.14-44.859-100-100-100s-100 44.86-100 100v54.011c-45.59 9.291-80 49.697-80 97.989v20h-16c-11.028 0-20-8.972-20-20v-80c0-11.046-8.954-20-20-20s-20 8.954-20 20v80c0 33.084 26.916 60 60 60h16v40h-16c-33.084 0-60 26.916-60 60v80c0 11.046 8.954 20 20 20s20-8.954 20-20v-80c0-11.028 8.972-20 20-20h16v20c0 55.14 44.859 100 100 100h160c55.141 0 100-44.86 100-100v-20h16c11.028 0 20 8.972 20 20v80c0 11.046 8.954 20 20 20s20-8.954 20-20v-80c0-33.084-26.916-60-60-60h-16v-40zm-56 100c0 33.084-26.916 60-60 60h-160c-33.084 0-60-26.916-60-60v-160c0-33.084 26.916-60 60-60h80c11.046 0 20-8.954 20-20s-8.954-20-20-20h-60v-52c0-33.084 26.916-60 60-60s60 26.916 60 60v72c0 11.046 8.954 20 20 20 33.084 0 60 26.916 60 60z"/></g></svg>