<svg id="Capa_1" enable-background="new 0 0 512 512" height="512" viewBox="0 0 512 512" width="512" xmlns="http://www.w3.org/2000/svg"><g id="Lock"><g><path d="m376 192h-180v-92c0-33.084 26.916-60 60-60s60 26.916 60 60v32c0 11.046 8.954 20 20 20s20-8.954 20-20v-32c0-55.14-44.859-100-100-100s-100 44.86-100 100v92h-20c-33.084 0-60 26.916-60 60v80c0 99.252 80.748 180 180 180s180-80.748 180-180v-80c0-33.084-26.916-60-60-60zm20 140c0 77.196-62.804 140-140 140s-140-62.804-140-140v-80c0-11.028 8.972-20 20-20h240c11.028 0 20 8.972 20 20z"/><path d="m316 332c0-33.084-26.916-60-60-60s-60 26.916-60 60c0 26.073 16.722 48.303 40 56.56v23.44c0 11.046 8.954 20 20 20s20-8.954 20-20v-23.44c23.278-8.257 40-30.487 40-56.56zm-60 20c-11.028 0-20-8.972-20-20s8.972-20 20-20 20 8.972 20 20-8.972 20-20 20z"/></g></g></svg>