<svg id="Capa_1" enable-background="new 0 0 512 512" height="512" viewBox="0 0 512 512" width="512" xmlns="http://www.w3.org/2000/svg"><g><circle cx="336" cy="260" r="20"/><circle cx="100" cy="260" r="20"/><path d="m452 0h-156c-15.355 0-29.376 5.805-40 15.327-10.624-9.522-24.645-15.327-40-15.327h-156c-33.084 0-60 26.916-60 60v352c0 26.073 16.722 48.304 40 56.56v23.44c0 11.046 8.954 20 20 20s20-8.954 20-20v-20h116v20c0 11.046 8.954 20 20 20s20-8.954 20-20v-23.44c7.45-2.642 14.227-6.712 20-11.886 5.773 5.174 12.55 9.244 20 11.886v23.44c0 11.046 8.954 20 20 20s20-8.954 20-20v-20h16c11.046 0 20-8.954 20-20s-8.954-20-20-20h-36c-11.028 0-20-8.972-20-20v-352c0-11.028 8.972-20 20-20h156c11.028 0 20 8.972 20 20v352c0 11.028-8.972 20-20 20-11.046 0-20 8.954-20 20v40c0 11.046 8.954 20 20 20s20-8.954 20-20v-23.427c23.281-8.254 40-30.498 40-56.573v-352c0-33.084-26.916-60-60-60zm-236 432h-156c-11.028 0-20-8.972-20-20v-352c0-11.028 8.972-20 20-20h156c11.028 0 20 8.972 20 20v352c0 11.028-8.972 20-20 20z"/><path d="m176 80h-76c-11.046 0-20 8.954-20 20s8.954 20 20 20h76c11.046 0 20-8.954 20-20s-8.954-20-20-20z"/><path d="m176 160h-76c-11.046 0-20 8.954-20 20s8.954 20 20 20h76c11.046 0 20-8.954 20-20s-8.954-20-20-20z"/><path d="m336 120h76c11.046 0 20-8.954 20-20s-8.954-20-20-20h-76c-11.046 0-20 8.954-20 20s8.954 20 20 20z"/><path d="m336 200h76c11.046 0 20-8.954 20-20s-8.954-20-20-20h-76c-11.046 0-20 8.954-20 20s8.954 20 20 20z"/></g></svg>