<svg id="Capa_1" enable-background="new 0 0 512 512" height="512" viewBox="0 0 512 512" width="512" xmlns="http://www.w3.org/2000/svg"><g><circle cx="376" cy="260" r="20"/><circle cx="176" cy="260" r="20"/><path d="m456 392c11.046 0 20-8.954 20-20v-312c0-33.084-26.916-60-60-60h-120c-15.355 0-29.376 5.805-40 15.327-10.623-9.522-24.644-15.327-40-15.327h-120c-33.084 0-60 26.916-60 60v432c0 11.046 8.954 20 20 20s20-8.954 20-20v-20h160v20c0 11.046 8.954 20 20 20s20-8.954 20-20v-20h160v20c0 11.046 8.954 20 20 20s20-8.954 20-20v-40c0-11.046-8.954-20-20-20h-180v-372c0-11.028 8.972-20 20-20h120c11.028 0 20 8.972 20 20v312c0 11.046 8.954 20 20 20zm-380-332c0-11.028 8.972-20 20-20h120c11.028 0 20 8.972 20 20v372h-160z"/><path d="m136 120h40c11.046 0 20-8.954 20-20s-8.954-20-20-20h-40c-11.046 0-20 8.954-20 20s8.954 20 20 20z"/><path d="m136 200h40c11.046 0 20-8.954 20-20s-8.954-20-20-20h-40c-11.046 0-20 8.954-20 20s8.954 20 20 20z"/><path d="m336 200h40c11.046 0 20-8.954 20-20s-8.954-20-20-20h-40c-11.046 0-20 8.954-20 20s8.954 20 20 20z"/><path d="m336 120h40c11.046 0 20-8.954 20-20s-8.954-20-20-20h-40c-11.046 0-20 8.954-20 20s8.954 20 20 20z"/></g></svg>