<svg id="Layer_1" enable-background="new 0 0 512.455 512.455" height="512" viewBox="0 0 512.455 512.455" width="512" xmlns="http://www.w3.org/2000/svg"><path d="m256.228 512.455c-32.054 0-62.188-12.482-84.853-35.147l-36.351-36.351c-28.932-28.932-51.542-62.769-67.199-100.571-15.658-37.802-23.598-77.716-23.598-118.632v-101.299c0-35.215 15.381-68.494 42.199-91.304 26.917-22.894 62.391-32.769 97.331-27.088 47.887 7.786 96.748 7.638 145.225-.44 34.581-5.761 69.813 3.975 96.658 26.717 27.065 22.929 42.588 56.416 42.588 91.874v101.541c0 40.917-7.939 80.83-23.597 118.632s-38.267 71.639-67.2 100.571l-36.35 36.35c-22.665 22.665-52.8 35.147-84.853 35.147zm-91.877-471.961c-18.946 0-37.374 6.679-52.008 19.126-17.868 15.197-28.115 37.371-28.115 60.835v101.299c0 72.12 28.085 139.923 79.081 190.919l36.351 36.351c15.11 15.11 35.2 23.431 56.568 23.431 21.369 0 41.459-8.321 56.569-23.432l36.35-36.35c50.996-50.996 79.081-118.799 79.081-190.919v-101.54c0-23.677-10.367-46.04-28.444-61.353-17.856-15.126-41.266-21.607-64.227-17.782-52.787 8.795-106.019 8.952-158.218.466-4.33-.704-8.673-1.051-12.988-1.051zm167.918-19.143h.01zm-47.576 215.285 55.723-56.085c7.785-7.835 7.744-20.499-.092-28.284-7.835-7.785-20.499-7.744-28.284.092l-55.631 55.993-56.039-56.039c-7.811-7.811-20.474-7.811-28.284 0s-7.811 20.474 0 28.284l56.13 56.13-55.273 55.632c-7.785 7.835-7.744 20.499.092 28.284 3.901 3.876 8.999 5.812 14.096 5.812 5.14 0 10.28-1.97 14.188-5.904l55.181-55.54 55.585 55.585c3.905 3.905 9.023 5.858 14.142 5.858s10.237-1.953 14.142-5.858c7.811-7.811 7.811-20.474 0-28.284z"/></svg>