<svg id="Layer_1" enable-background="new 0 0 512 512" height="512" viewBox="0 0 512 512" width="512" xmlns="http://www.w3.org/2000/svg"><path d="m279.024 269h69c44.112 0 80-35.888 80-80v-27c0-35.011-22.617-64.82-54-75.639v-26.361c0-33.084-26.916-60-60-60s-60 26.916-60 60v26.022c-31.902 10.524-55 40.596-55 75.978v27c0 44.112 35.887 80 80 80zm35-229c11.028 0 20 8.972 20 20v22h-40v-22c0-11.028 8.971-20 20-20zm-75 122c0-22.056 17.944-40 40-40h69c22.056 0 40 17.944 40 40v27c0 22.056-17.944 40-40 40h-69c-22.056 0-40-17.944-40-40zm244.003 293.65c-34.237 18.29-105.479 56.35-212.886 56.35-84.591 0-161.392-32.038-210.925-58.914-19.651-10.662-32.593-8.968-34.383-8.662-1.542.381-3.145.605-4.805.605-11.045 0-20-8.954-20-20 0-9.266 6.311-17.037 14.861-19.309l-.013-.045c2.802-.748 28.394-6.75 63.415 12.253 45.463 24.667 115.651 54.072 191.85 54.072 85.594 0 143.843-24.815 194.038-51.631 7.147-3.818 9.741-13.11 5.989-20.318-4.191-8.055-13.577-8.869-20.529-6.232-41.47 15.74-106.612 39.841-182.61 40.182-22 0-44.964-2.633-64.083-7.657-10.683-2.807-17.067-13.743-14.261-24.426 2.807-10.683 13.744-17.068 24.427-14.261 16.327 4.29 35.904 6.483 54.917 6.343 17.728-.194 32.267-2.328 43.222-6.333 7.59-2.775 13.104-7.332 15.522-12.831 1.973-4.482 1.863-9.443-.324-14.746-2.821-6.835-8.438-9.672-12.654-10.848-3.776-1.054-8.359-1.258-13.249-.593-12.483 1.698-24.262 2.462-35.378 2.462-61.822.002-103.412-23.621-135.088-41.609-21.155-12.013-37.863-21.502-54.051-21.502-26 0-50.026 9.087-50.026 9.087-10.544 3.301-21.762-2.572-25.061-13.113-3.299-10.542 2.571-21.762 13.113-25.061 0 0 27.974-10.913 61.974-10.913 26.754 0 49.607 12.979 73.804 26.719 35.998 20.443 76.795 43.615 145.323 34.294 10.393-1.413 20.278-.84 29.385 1.699 17.814 4.969 31.987 17.406 38.884 34.122 4.731 11.465 5.911 23.525 3.545 34.912 25.646-7.073 49.208-16.012 68.478-23.326 27.634-10.486 57.317.404 70.356 25.454 13.841 26.591 3.617 59.675-22.777 73.776zm-144.67-279.65c0 13.807-11.193 25-25 25s-25-11.193-25-25 11.193-25 25-25 25 11.193 25 25z"/></svg>