<svg id="Layer_1" enable-background="new 0 0 512 512" height="512" viewBox="0 0 512 512" width="512" xmlns="http://www.w3.org/2000/svg"><path d="m358.976 170.335v-67.89c0-56.488-45.957-102.445-102.445-102.445-56.489 0-102.446 45.957-102.446 102.445v67.822c-62.492 4.09-112.085 56.225-112.085 119.733v102c0 66.168 53.832 120 120 120h188c66.168 0 120-53.832 120-120v-102c0-63.149-49.032-115.059-111.024-119.665zm-102.445-130.335c34.433 0 62.445 28.013 62.445 62.445v67.555h-124.891v-67.555c0-34.432 28.013-62.445 62.446-62.445zm173.469 352c0 44.112-35.888 80-80 80h-188c-44.112 0-80-35.888-80-80v-102c0-44.112 35.888-80 80-80h188c44.112 0 80 35.888 80 80zm-150-51c0 13.807-11.193 25-25 25s-25-11.193-25-25 11.193-25 25-25 25 11.193 25 25zm55-25c-13.807 0-25 11.193-25 25s11.193 25 25 25 25-11.193 25-25-11.193-25-25-25zm-160 0c-13.807 0-25 11.193-25 25s11.193 25 25 25 25-11.193 25-25-11.193-25-25-25z"/></svg>