<svg id="Capa_1" enable-background="new 0 0 512.002 512.002" height="512" viewBox="0 0 512.002 512.002" width="512" xmlns="http://www.w3.org/2000/svg"><g><path d="m256.001 0c-55.141 0-100 44.86-100 100v22.011c-45.59 9.291-80 49.697-80 97.989v40c0 55.14 44.859 100 100 100h160c55.141 0 100-44.86 100-100v-40c0-48.293-34.41-88.698-80-97.989v-22.011c0-55.14-44.859-100-100-100zm0 40c33.084 0 60 26.916 60 60v20h-120v-20c0-33.084 26.916-60 60-60zm140 180v40c0 33.084-26.916 60-60 60h-160c-33.084 0-60-26.916-60-60v-40c0-33.084 26.916-60 60-60h160c33.084 0 60 26.916 60 60z"/><path d="m313.064 441.099c-3.413-10.505-14.692-16.253-25.202-12.841l-11.861 3.854v-12.473c0-11.046-8.954-20-20-20s-20 8.954-20 20v12.473l-11.861-3.854c-10.502-3.414-21.788 2.335-25.202 12.841-3.413 10.505 2.336 21.788 12.841 25.201l11.861 3.854-7.331 10.09c-6.492 8.936-4.511 21.444 4.425 27.936 8.935 6.493 21.444 4.512 27.937-4.424l7.331-10.09 7.331 10.09c6.494 8.937 18.999 10.918 27.937 4.424 8.936-6.492 10.917-19 4.425-27.936l-7.331-10.09 11.861-3.854c10.504-3.413 16.253-14.696 12.839-25.201z"/><path d="m76.001 432.112-11.861-3.854c-10.504-3.414-21.788 2.335-25.202 12.841-3.413 10.505 2.336 21.788 12.841 25.201l11.861 3.854-7.331 10.09c-6.492 8.936-4.511 21.444 4.425 27.936 8.935 6.493 21.444 4.512 27.937-4.424l7.331-10.09 7.331 10.09c6.494 8.937 18.999 10.918 27.937 4.424 8.936-6.492 10.917-19 4.425-27.936l-7.331-10.09 11.861-3.854c10.505-3.413 16.254-14.696 12.841-25.201s-14.693-16.253-25.202-12.841l-11.861 3.854v-12.473c0-11.046-8.954-20-20-20s-20 8.954-20 20v12.473z"/><path d="m473.064 441.099c-3.413-10.505-14.694-16.253-25.202-12.841l-11.861 3.854v-12.473c0-11.046-8.954-20-20-20s-20 8.954-20 20v12.473l-11.861-3.854c-10.502-3.414-21.788 2.335-25.202 12.841-3.413 10.505 2.336 21.788 12.841 25.201l11.861 3.854-7.331 10.09c-6.492 8.936-4.511 21.444 4.425 27.936 8.935 6.493 21.444 4.512 27.937-4.424l7.331-10.09 7.331 10.09c6.494 8.937 18.999 10.918 27.937 4.424 8.936-6.492 10.917-19 4.425-27.936l-7.331-10.09 11.861-3.854c10.504-3.413 16.253-14.696 12.839-25.201z"/><path d="m276.001 260v-40c0-11.046-8.954-20-20-20s-20 8.954-20 20v40c0 11.046 8.954 20 20 20s20-8.954 20-20z"/></g></svg>