<svg id="Layer_1" enable-background="new 0 0 512 512" height="512" viewBox="0 0 512 512" width="512" xmlns="http://www.w3.org/2000/svg"><path d="m318 138h-218c-11.046 0-20-8.954-20-20s8.954-20 20-20h218c11.046 0 20 8.954 20 20s-8.954 20-20 20zm194-20c0-65.065-52.935-118-118-118h-276c-65.065 0-118 52.935-118 118s52.935 118 118 118h276c65.065 0 118-52.935 118-118zm-118-78c43.01 0 78 34.991 78 78s-34.99 78-78 78h-276c-43.01 0-78-34.991-78-78s34.99-78 78-78zm118 354c0-65.065-52.935-118-118-118h-276c-65.065 0-118 52.935-118 118s52.935 118 118 118h276c65.065 0 118-52.935 118-118zm-118-78c43.01 0 78 34.99 78 78s-34.99 78-78 78h-276c-43.01 0-78-34.99-78-78s34.99-78 78-78zm-158 78c0 13.807-11.193 25-25 25s-25-11.193-25-25 11.193-25 25-25 25 11.193 25 25zm-115-25c-13.807 0-25 11.193-25 25s11.193 25 25 25 25-11.193 25-25-11.193-25-25-25zm180 0c-13.807 0-25 11.193-25 25s11.193 25 25 25 25-11.193 25-25-11.193-25-25-25zm90 0c-13.807 0-25 11.193-25 25s11.193 25 25 25 25-11.193 25-25-11.193-25-25-25z"/></svg>