<svg id="Capa_1" enable-background="new 0 0 512 512" height="512" viewBox="0 0 512 512" width="512" xmlns="http://www.w3.org/2000/svg"><g id="Privacy"><g><path d="m127.861 340.618-11.861 3.854v-12.472c0-11.046-8.954-20-20-20s-20 8.954-20 20v12.472l-11.861-3.854c-10.503-3.413-21.788 2.335-25.202 12.841-3.413 10.505 2.336 21.788 12.841 25.202l11.861 3.854-7.331 10.09c-6.492 8.936-4.512 21.444 4.425 27.936 8.936 6.493 21.443 4.511 27.937-4.424l7.33-10.091 7.331 10.09c6.494 8.937 18.999 10.918 27.937 4.424 8.937-6.492 10.917-19 4.425-27.936l-7.331-10.09 11.861-3.854c10.505-3.413 16.254-14.697 12.841-25.202-3.415-10.504-14.693-16.253-25.203-12.84z"/><path d="m287.861 340.618-11.861 3.854v-12.472c0-11.046-8.954-20-20-20s-20 8.954-20 20v12.472l-11.861-3.854c-10.503-3.413-21.788 2.335-25.202 12.841-3.413 10.505 2.336 21.788 12.841 25.202l11.861 3.854-7.331 10.09c-6.492 8.936-4.512 21.444 4.425 27.936 8.936 6.493 21.443 4.511 27.937-4.424l7.331-10.09 7.331 10.09c6.494 8.937 18.999 10.918 27.937 4.424 8.937-6.492 10.917-19 4.425-27.936l-7.331-10.09 11.861-3.854c10.505-3.413 16.254-14.697 12.841-25.202-3.416-10.505-14.696-16.254-25.204-12.841z"/><path d="m473.063 353.459c-3.414-10.505-14.693-16.254-25.202-12.841l-11.861 3.854v-12.472c0-11.046-8.954-20-20-20s-20 8.954-20 20v12.472l-11.861-3.854c-10.504-3.413-21.788 2.335-25.202 12.841-3.413 10.505 2.336 21.788 12.841 25.202l11.861 3.854-7.331 10.09c-6.492 8.936-4.512 21.444 4.425 27.936 8.936 6.493 21.443 4.511 27.937-4.424l7.331-10.09 7.331 10.09c6.494 8.937 18.999 10.918 27.937 4.424 8.937-6.492 10.917-19 4.425-27.936l-7.331-10.09 11.861-3.854c10.504-3.414 16.253-14.697 12.839-25.202z"/></g><g><path d="m456 80h-20v-20c0-33.084-26.916-60-60-60h-220c-44.112 0-80 35.888-80 80v120c0 44.112 35.888 80 80 80h220c33.084 0 60-26.916 60-60v-20h20c11.046 0 20-8.954 20-20v-80c0-11.046-8.954-20-20-20zm-60 140c0 11.028-8.972 20-20 20h-220c-22.056 0-40-17.944-40-40v-120c0-22.056 17.944-40 40-40h220c11.028 0 20 8.972 20 20v20h-60c-33.084 0-60 26.916-60 60s26.916 60 60 60h60zm40-60h-100c-11.028 0-20-8.972-20-20s8.972-20 20-20h100z"/><path d="m136 472h-80c-11.046 0-20 8.954-20 20s8.954 20 20 20h80c11.046 0 20-8.954 20-20s-8.954-20-20-20z"/><path d="m296 472h-80c-11.046 0-20 8.954-20 20s8.954 20 20 20h80c11.046 0 20-8.954 20-20s-8.954-20-20-20z"/><path d="m456 472h-80c-11.046 0-20 8.954-20 20s8.954 20 20 20h80c11.046 0 20-8.954 20-20s-8.954-20-20-20z"/></g></g></svg>