<svg id="Layer_1" enable-background="new 0 0 512 512" height="512" viewBox="0 0 512 512" width="512" xmlns="http://www.w3.org/2000/svg"><path d="m93 386c-51.28 0-93-41.495-93-92.5 0-28.844 13.276-55.51 35.5-72.856-1.662-7.559-2.5-15.297-2.5-23.144 0-57.677 45.653-104.89 102.724-107.395 7.084-22.836 20.529-43.434 38.889-59.214 23.176-19.92 52.79-30.891 83.387-30.891 33.388 0 64.988 12.782 88.979 35.99 19.342 18.711 32.083 42.582 36.878 68.591 71.747 6.514 128.143 67.004 128.143 140.419 0 22.702-5.529 45.272-15.989 65.27-5.12 9.788-17.203 13.574-26.992 8.452-9.788-5.119-13.572-17.204-8.452-26.991 7.586-14.504 11.433-30.227 11.433-46.731 0-55.691-45.309-101-101-101-1.28 0-2.671.032-4.255.097-5.306.235-10.507-1.691-14.413-5.31-3.906-3.618-6.208-8.645-6.396-13.966-1.684-47.563-40.31-84.821-87.936-84.821-43.431 0-79.963 31.062-86.865 73.858-1.713 10.625-11.533 17.982-22.208 16.663-2.789-.346-5.624-.521-8.427-.521-37.22 0-67.5 30.28-67.5 67.5 0 8.45 1.54 16.687 4.575 24.483 3.698 9.495-.335 20.252-9.363 24.978-17.401 9.107-28.212 26.94-28.212 46.539 0 28.948 23.776 52.5 53 52.5 11.046 0 20 8.954 20 20s-8.954 20-20 20zm208.443 115.057c9.42-5.768 12.381-18.08 6.613-27.5-5.768-9.421-18.081-12.382-27.5-6.613-5.067 3.103-10.366 4.843-15.323 5.033-8.907.349-17.295-2.917-23.59-9.179l-18.743-18.642c-24.44-24.308-37.9-56.62-37.9-90.985v-35.048c0-9.248 3.896-17.657 10.97-23.68 7.117-6.059 16.525-8.67 25.815-7.171 1.561.253 3.122.511 4.684.769 11.774 1.945 23.953 3.936 36.861 3.867 12.851-.091 25.147-2.196 37.039-4.231 2.035-.349 4.072-.697 6.11-1.035 7.082-1.172 30.572-3.1 35.58 21.368 2.215 10.822 12.787 17.801 23.604 15.584 10.821-2.215 17.798-12.782 15.583-23.604-7.726-37.747-41.158-59.465-81.308-52.81-2.107.35-4.213.71-6.318 1.07-10.789 1.847-20.979 3.591-30.573 3.659-9.499.07-19.479-1.585-30.059-3.333-1.607-.266-3.214-.531-4.82-.791-20.884-3.375-42.069 2.528-58.129 16.2-15.912 13.549-25.039 33.281-25.039 54.139v35.048c0 45.09 17.648 87.475 49.693 119.347l18.742 18.641c13.404 13.331 31.713 20.84 50.604 20.84 10.961 0 26.507-4.271 37.404-10.943zm78.324-78.174 58.419-58.785c7.786-7.835 7.747-20.498-.088-28.284-7.834-7.786-20.498-7.747-28.284.089l-58.435 58.802c-2.107 2.125-4.896 3.296-7.854 3.296s-5.746-1.171-7.853-3.296l-28.295-28.539c-7.776-7.844-20.44-7.898-28.284-.121-7.844 7.776-7.898 20.439-.121 28.283l28.295 28.539c9.675 9.759 22.552 15.134 36.258 15.134 13.705-.001 26.584-5.376 36.242-15.118z"/></svg>