<svg id="Capa_1" enable-background="new 0 0 512 512" height="512" viewBox="0 0 512 512" width="512" xmlns="http://www.w3.org/2000/svg"><g id="Safebox"><path d="m332 136c-55.141 0-100 44.86-100 100s44.859 100 100 100 100-44.86 100-100-44.859-100-100-100zm0 160c-33.084 0-60-26.916-60-60s26.916-60 60-60c26.073 0 48.303 16.722 56.56 40h-56.56c-11.046 0-20 8.954-20 20s8.954 20 20 20h56.56c-8.257 23.278-30.487 40-56.56 40z"/><g><path d="m412 16h-312c-55.14 0-100 44.86-100 100v240c0 48.293 34.411 88.698 80 97.989v22.011c0 11.046 8.954 20 20 20s20-8.954 20-20v-20h212c11.046 0 20-8.954 20-20s-8.954-20-20-20h-232c-33.084 0-60-26.916-60-60v-240c0-33.084 26.916-60 60-60h312c33.084 0 60 26.916 60 60v240c0 33.084-26.916 60-60 60-11.046 0-20 8.954-20 20v40c0 11.046 8.954 20 20 20s20-8.954 20-20v-22.011c45.59-9.291 80-49.697 80-97.989v-240c0-55.14-44.859-100-100-100z"/><circle cx="100" cy="156" r="20"/><circle cx="176" cy="156" r="20"/><circle cx="100" cy="236" r="20"/><circle cx="176" cy="236" r="20"/><circle cx="100" cy="316" r="20"/><circle cx="176" cy="316" r="20"/></g></g></svg>