<svg id="Capa_1" enable-background="new 0 0 512.031 512.031" height="512" viewBox="0 0 512.031 512.031" width="512" xmlns="http://www.w3.org/2000/svg"><g id="Safe_1_"><path d="m495.006 333.707-33.279-99.84c-3.629-10.889-5.395-22.748-6.929-37.204-6.541-61.62-39.213-117.991-89.642-154.66-50.992-37.079-113.656-50.214-176.447-36.986-85.402 17.991-153.305 88.005-168.967 174.219-6.626 36.471-4.447 72.445 6.476 106.923 10.247 32.344 28.267 62.39 52.11 86.888 11.414 11.727 17.7 26.729 17.701 42.243l.002 36.743c.001 33.083 26.917 59.998 60 59.998h200.001c33.084 0 60-26.916 60-60v-32c0-11.046-8.954-20-20-20h-40c-11.046 0-20 8.954-20 20s8.954 20 20 20h20v12c0 11.028-8.972 20-20 20h-200.001c-11.027 0-20-8.972-20-20l-.002-36.742c0-25.993-10.313-50.903-29.036-70.14-41.097-42.226-58.555-100.093-47.896-158.762 12.789-70.395 68.189-127.552 137.858-142.229 51.574-10.865 102.954-.141 144.677 30.197 41.292 30.025 68.042 76.144 73.39 126.53 1.458 13.738 3.458 29.727 8.758 45.63l24.504 73.516h-52.252c-11.046 0-20 8.954-20 20s8.954 20 20 20h80c6.429 0 12.466-3.09 16.225-8.306 3.759-5.215 4.782-11.92 2.749-18.018z"/><g><path d="m236.032 360.031c-3.064 0-6.129-.704-8.944-2.111-27.381-13.691-50.36-34.691-66.455-60.732s-24.601-55.986-24.601-86.599v-70.557c0-11.046 8.954-20 20-20h160c11.046 0 20 8.954 20 20v70.557c0 30.613-8.507 60.558-24.601 86.599s-39.074 47.042-66.455 60.732c-2.815 1.407-5.88 2.111-8.944 2.111zm-60-200v50.557c0 44.119 22.744 84.102 60 106.625 37.256-22.524 60-62.507 60-106.625v-50.557z"/></g></g></svg>