<svg id="Capa_1" enable-background="new 0 0 512 512" height="512" viewBox="0 0 512 512" width="512" xmlns="http://www.w3.org/2000/svg"><g><path d="m216 176c-33.084 0-60 26.916-60 60s26.916 60 60 60 60-26.916 60-60-26.916-60-60-60zm0 80c-11.028 0-20-8.972-20-20s8.972-20 20-20 20 8.972 20 20-8.972 20-20 20z"/><path d="m372 16h-232c-77.196 0-140 62.804-140 140v160c0 70.406 52.245 128.831 120 138.565v21.435c0 11.046 8.954 20 20 20s20-8.954 20-20v-20h192v20c0 11.046 8.954 20 20 20s20-8.954 20-20v-21.435c67.755-9.735 120-68.159 120-138.565v-40c0-11.046-8.954-20-20-20s-20 8.954-20 20v40c0 55.14-44.859 100-100 100h-232c-55.14 0-100-44.86-100-100v-20h40v20c0 33.084 26.916 60 60 60h232c33.084 0 60-26.916 60-60v-160c0-33.084-26.916-60-60-60h-232c-33.084 0-60 26.916-60 60v20h-40v-20c0-55.14 44.86-100 100-100h232c55.141 0 100 44.86 100 100v40c0 11.046 8.954 20 20 20s20-8.954 20-20v-40c0-77.196-62.804-140-140-140zm-252 140c0-11.028 8.972-20 20-20h232c11.028 0 20 8.972 20 20v160c0 11.028-8.972 20-20 20h-232c-11.028 0-20-8.972-20-20zm-40 60v40h-40v-40z"/><path d="m332 296c11.046 0 20-8.954 20-20v-80c0-11.046-8.954-20-20-20s-20 8.954-20 20v80c0 11.046 8.954 20 20 20z"/></g></svg>