<svg id="Capa_1" enable-background="new 0 0 511.966 511.966" height="512" viewBox="0 0 511.966 511.966" width="512" xmlns="http://www.w3.org/2000/svg"><g><path d="m333.872 320.91 40-80c3.1-6.2 2.769-13.562-.876-19.459-3.644-5.896-10.081-9.485-17.013-9.485h-7.639l-34.472-68.944c-4.939-9.879-16.95-13.884-26.833-8.944-9.88 4.94-13.884 16.954-8.944 26.833l25.528 51.056h-95.278l25.528-51.056c4.939-9.879.936-21.893-8.944-26.833s-21.894-.936-26.833 8.944l-34.472 68.944h-7.639c-6.932 0-13.369 3.589-17.013 9.485-3.645 5.896-3.976 13.259-.876 19.459l40 80c3.388 6.775 10.313 11.056 17.889 11.056h120c7.573 0 14.499-4.28 17.887-11.056zm-125.529-28.944-20-40h135.279l-20 40z"/><path d="m35.983 208.006c0 62.976 21.775 131.797 59.743 188.816 41.358 62.11 96.879 102.865 156.335 114.756 1.294.259 2.608.388 3.922.388s2.628-.129 3.922-.388c59.456-11.892 114.977-52.646 156.335-114.756 37.968-57.019 59.743-125.84 59.743-188.816v-148.04c0-11.981-10.614-21.34-22.48-19.846-64.523 8.065-131.143-5.26-187.597-37.519-6.171-3.535-13.878-3.402-19.846 0-56.455 32.26-123.079 45.586-187.596 37.519-11.777-1.483-22.48 7.79-22.48 19.846v148.04zm220-165.237c54.972 29.058 117.152 42.788 180 39.099v126.138c0 55.287-19.331 116.027-53.037 166.646-34.484 51.788-79.437 86.04-126.963 96.863-47.526-10.824-92.479-45.076-126.963-96.863-33.706-50.62-53.037-111.36-53.037-166.646v-126.138c62.682 3.684 124.896-9.971 180-39.099z"/></g></svg>