<svg id="Capa_1" enable-background="new 0 0 512 512" height="512" viewBox="0 0 512 512" width="512" xmlns="http://www.w3.org/2000/svg"><g id="Secure"><g><path d="m412 512h-312c-55.141 0-100-44.86-100-100v-312c0-55.14 44.859-100 100-100h312c55.141 0 100 44.86 100 100v312c0 55.14-44.859 100-100 100zm-312-472c-33.084 0-60 26.916-60 60v312c0 33.084 26.916 60 60 60h312c33.084 0 60-26.916 60-60v-312c0-33.084-26.916-60-60-60z"/></g><g><circle cx="412" cy="100" r="20"/></g><g><circle cx="332" cy="100" r="20"/></g><g><path d="m256 432c-14.625 0-28.715-5.323-39.675-14.989l-39.655-34.972c-25.846-22.785-40.67-55.604-40.67-90.039v-52c0-14.805 8.118-28.333 21.188-35.305l70.601-37.658c8.631-4.604 18.386-7.037 28.211-7.037s19.58 2.433 28.211 7.037l70.602 37.659c13.068 6.97 21.187 20.498 21.187 35.304v52c0 34.428-14.819 67.242-40.657 90.028l-39.668 34.983c-10.96 9.666-25.05 14.989-39.675 14.989zm-79.986-192.012-.014 52.012c0 22.957 9.887 44.839 27.124 60.036l39.658 34.975c3.649 3.217 8.343 4.989 13.218 4.989s9.569-1.772 13.218-4.989l39.668-34.983c17.231-15.196 27.114-37.075 27.114-60.028v-52l-70.614-37.67c-2.898-1.546-6.057-2.33-9.386-2.33s-6.487.784-9.387 2.331z"/></g><g><path d="m252 120h-152c-11.046 0-20-8.954-20-20s8.954-20 20-20h152c11.046 0 20 8.954 20 20s-8.954 20-20 20z"/></g></g></svg>