<svg id="Capa_1" enable-background="new 0 0 512 512" height="512" viewBox="0 0 512 512" width="512" xmlns="http://www.w3.org/2000/svg"><g id="Security_1_"><path d="m356 100c0-33.084-26.916-60-60-60h-20v-20c0-11.046-8.954-20-20-20s-20 8.954-20 20v20h-60c-11.046 0-20 8.954-20 20s8.954 20 20 20h20v120h-20c-11.046 0-20 8.954-20 20s8.954 20 20 20h60v20c0 11.046 8.954 20 20 20s20-8.954 20-20v-20h20c33.084 0 60-26.916 60-60 0-15.355-5.805-29.376-15.327-40 9.522-10.624 15.327-24.645 15.327-40zm-40 0c0 11.028-8.972 20-20 20h-60v-40h60c11.028 0 20 8.972 20 20zm-20 100h-60v-40h60c11.028 0 20 8.972 20 20s-8.972 20-20 20z"/><g><path d="m452 352h-60v-60c0-11.028 8.972-20 20-20s20 8.972 20 20c0 11.046 8.954 20 20 20s20-8.954 20-20c0-33.084-26.916-60-60-60s-60 26.916-60 60v63.44c-23.278 8.256-40 30.487-40 56.56v20h-112v-20c0-26.073-16.722-48.303-40-56.56v-63.44c0-33.084-26.916-60-60-60s-60 26.916-60 60v63.44c-23.278 8.257-40 30.487-40 56.56v40c0 33.084 26.916 60 60 60h80c26.073 0 48.303-16.722 56.56-40h118.88c8.256 23.278 30.487 40 56.56 40h80c33.084 0 60-26.916 60-60v-40c0-33.084-26.916-60-60-60zm-352-80c11.028 0 20 8.972 20 20v60h-40v-60c0-11.028 8.972-20 20-20zm40 200h-80c-11.028 0-20-8.972-20-20v-40c0-11.028 8.972-20 20-20h80c11.028 0 20 8.972 20 20v40c0 11.028-8.972 20-20 20zm332-20c0 11.028-8.972 20-20 20h-80c-11.028 0-20-8.972-20-20v-40c0-11.028 8.972-20 20-20h80c11.028 0 20 8.972 20 20z"/><path d="m256 392c11.046 0 20-8.954 20-20v-40c0-11.046-8.954-20-20-20s-20 8.954-20 20v40c0 11.046 8.954 20 20 20z"/></g></g></svg>