<svg id="Layer_1" enable-background="new 0 0 512 512" height="512" viewBox="0 0 512 512" width="512" xmlns="http://www.w3.org/2000/svg"><path d="m256.691 512h-136.691c-66.168 0-120-53.832-120-120v-272c0-66.168 53.832-120 120-120h136.691c42.705 0 82.53 22.985 103.934 59.985.688 1.19 1.362 2.402 2.002 3.603 5.198 9.746 1.511 21.861-8.235 27.059-9.744 5.199-21.86 1.512-27.059-8.235-.431-.808-.875-1.606-1.333-2.397-14.277-24.682-40.834-40.015-69.309-40.015h-136.691c-44.112 0-80 35.888-80 80v272c0 44.112 35.888 80 80 80h136.691c30.678 0 59.041-17.903 72.257-45.61 4.756-9.97 16.694-14.196 26.662-9.441 9.97 4.756 14.197 16.693 9.441 26.662-9.619 20.165-24.65 37.229-43.47 49.346-19.349 12.458-41.788 19.043-64.89 19.043zm186.873-143.841 18.743-18.642c30.652-30.487 49.693-73.275 49.693-111.667v-42.851c0-29.886-12.877-47.078-23.68-56.237-15.538-13.174-36.628-18.354-59.381-14.582-2.104.349-4.207.709-6.308 1.068-10.792 1.848-20.985 3.592-30.583 3.66-9.485.06-19.483-1.585-30.064-3.333-1.605-.266-3.21-.531-4.813-.79-20.88-3.374-42.068 2.528-58.129 16.199-15.915 13.549-25.042 33.281-25.042 54.139v35.048c0 45.089 17.648 87.474 49.693 119.346l18.743 18.642c13.942 13.867 32.25 20.8 50.564 20.798 18.31-.001 36.625-6.934 50.564-20.798zm-51.234-199.251c21.67 0 41.114-4.928 43.149-5.266 10.968-1.818 20.548.181 26.973 5.629 7.892 6.691 9.548 17.684 9.548 25.728v42.851c0 27.707-14.877 60.407-37.9 83.307l-18.743 18.642c-12.328 12.26-32.386 12.26-44.713 0l-18.743-18.642c-24.441-24.309-37.901-56.622-37.901-90.986v-35.048c0-9.248 3.896-17.658 10.97-23.68 5.799-4.937 13.119-7.586 20.655-7.586 8.375 0 23.375 5.051 46.705 5.051zm-149.33 80.842c0 24.376-16.486 45.001-39 51.561v8.689c0 11.046-8.954 20-20 20s-20-8.954-20-20v-9.57c-9.196-1.951-19.365-4.861-29.388-8.844-10.265-4.08-15.278-15.708-11.198-25.973 4.08-10.264 15.707-15.278 25.973-11.198 16.652 6.619 32.943 9.085 39.3 9.085 7.758 0 14.313-6.297 14.313-13.75 0-7.582-8.187-13.75-18.25-13.75-35.203 0-61.75-23.107-61.75-53.75 0-25.566 17.99-47.006 42-52.418v-8.832c0-11.046 8.954-20 20-20s20 8.954 20 20v11.139c6.951 1.739 14.275 4.12 22.249 7.221 10.294 4.003 15.395 15.594 11.391 25.889-4.004 10.294-15.593 15.393-25.889 11.391-18.552-7.215-28.918-8.14-35.876-8.14-7.651 0-13.875 6.168-13.875 13.75 0 7.839 9.351 13.75 21.75 13.75 15.203 0 29.553 5.298 40.407 14.918 11.506 10.199 17.843 23.99 17.843 38.832zm-59 127.25c-13.807 0-25 11.193-25 25 0 13.807 11.193 25 25 25s25-11.193 25-25c0-13.807-11.193-25-25-25z"/></svg>