<svg id="Layer_1" enable-background="new 0 0 512.399 512.399" height="512" viewBox="0 0 512.399 512.399" width="512" xmlns="http://www.w3.org/2000/svg"><path d="m256.199 512.399c-30.729 0-61.458-11.696-84.853-35.09l-36.351-36.351c-28.932-28.933-51.542-62.771-67.199-100.572-15.658-37.802-23.598-77.715-23.598-118.631v-101.3c0-35.215 15.381-68.494 42.199-91.304 26.918-22.895 62.393-32.767 97.332-27.088 47.887 7.786 96.748 7.638 145.225-.44 34.58-5.761 69.812 3.975 96.658 26.717 27.065 22.929 42.588 56.416 42.588 91.874v101.541c0 40.917-7.939 80.83-23.597 118.631-15.658 37.803-38.267 71.64-67.2 100.572l-36.35 36.35c-23.395 23.394-54.124 35.091-84.854 35.091zm-91.876-471.905c-18.946 0-37.374 6.679-52.008 19.126-17.868 15.197-28.115 37.371-28.115 60.835v101.299c0 72.12 28.085 139.922 79.081 190.919l36.351 36.35c31.192 31.192 81.945 31.19 113.137 0l36.35-36.35c50.996-50.997 79.081-118.8 79.081-190.919v-101.54c0-23.677-10.367-46.04-28.444-61.353-17.856-15.126-41.266-21.608-64.227-17.782-52.787 8.795-106.019 8.952-158.218.466-4.33-.704-8.674-1.051-12.988-1.051zm167.918-19.143h.01zm-46.893 263.735 79.038-79.533c7.786-7.834 7.746-20.498-.089-28.284s-20.498-7.747-28.284.089l-79.054 79.55c-4.187 4.223-9.74 6.548-15.638 6.548s-11.451-2.325-15.637-6.548l-38.282-38.613c-7.777-7.844-20.44-7.898-28.284-.122-7.844 7.777-7.898 20.44-.122 28.284l38.282 38.613c11.754 11.856 27.396 18.386 44.043 18.386s32.289-6.53 44.027-18.37z"/></svg>