<svg id="Capa_1" enable-background="new 0 0 511.985 511.985" height="512" viewBox="0 0 511.985 511.985" width="512" xmlns="http://www.w3.org/2000/svg"><g><path d="m395.993 255.985c0-77.196-62.804-140-140-140s-140 62.804-140 140 62.804 140 140 140 140-62.804 140-140zm-240 0c0-55.14 44.859-100 100-100s100 44.86 100 100-44.859 100-100 100-100-44.86-100-100z"/><path d="m275.993 256.016c0-.005 0-40.031 0-40.031 0-11.046-8.954-20-20-20s-20 8.954-20 20v31.716l-22.411 22.411c-7.811 7.81-7.812 20.474-.001 28.284s20.474 7.811 28.284 0l28.185-28.183c3.662-3.619 5.935-8.642 5.943-14.197z"/><path d="m431.022 41.888-150.04-38.739c-16.258-4.198-33.722-4.198-49.978 0l-150.041 38.739c-26.479 6.836-44.971 30.727-44.971 58.097v145.478c0 85.826 42.275 166.019 113.087 214.515l50.463 34.56c16.667 11.415 36.187 17.448 56.45 17.448s39.783-6.033 56.45-17.448l50.463-34.56c70.812-48.497 113.087-128.689 113.087-214.515v-145.478c.001-27.37-18.492-51.261-44.97-58.097zm4.971 203.575c0 72.622-35.771 140.478-95.688 181.513l-50.463 34.56c-9.982 6.836-21.687 10.45-33.849 10.45s-23.866-3.614-33.849-10.45l-50.463-34.559c-59.917-41.036-95.688-108.891-95.688-181.513v-145.479c0-9.127 6.156-17.092 14.971-19.368l150.042-38.739c4.864-1.256 9.906-1.893 14.987-1.893s10.123.637 14.988 1.893l150.041 38.739c8.814 2.276 14.971 10.24 14.971 19.368z"/></g></svg>