<svg id="Capa_1" enable-background="new 0 0 511.989 511.989" height="512" viewBox="0 0 511.989 511.989" width="512" xmlns="http://www.w3.org/2000/svg"><g id="Shield"><path d="m355.995 199.989c0-33.084-26.916-60-60-60h-20v-20c0-11.046-8.954-20-20-20s-20 8.954-20 20v20h-60c-11.046 0-20 8.954-20 20s8.954 20 20 20h20v120h-20c-11.046 0-20 8.954-20 20s8.954 20 20 20h60v20c0 11.046 8.954 20 20 20s20-8.954 20-20v-20h20c33.084 0 60-26.916 60-60 0-15.355-5.805-29.376-15.327-40 9.522-10.624 15.327-24.645 15.327-40zm-40 0c0 11.028-8.972 20-20 20h-60v-40h60c11.028 0 20 8.972 20 20zm-20 100h-60v-40h60c11.028 0 20 8.972 20 20s-8.972 20-20 20z"/><g><path d="m255.995 511.989c-10.434 0-20.717-2.725-29.74-7.881l-79.565-45.466c-55.942-31.967-90.695-91.852-90.695-156.284v-202.369c0-2.693.182-5.407.54-8.066 3.182-23.603 20.042-43.083 42.955-49.63l140-40c10.701-3.058 22.308-3.058 33.01 0l140 40c19.59 5.597 34.861 20.566 40.851 40.043 1.755 5.706 2.645 11.646 2.645 17.652v202.369c0 64.432-34.753 124.317-90.695 156.284l-79.565 45.466c-9.024 5.157-19.308 7.882-29.741 7.882zm0-472c-1.883 0-3.739.257-5.516.765l-140 40c-7.63 2.18-13.244 8.661-14.302 16.512-.121.894-.182 1.81-.182 2.723v202.369c0 50.114 27.03 96.691 70.541 121.554l79.565 45.466c3.032 1.732 6.36 2.611 9.894 2.611s6.862-.878 9.894-2.611l79.565-45.466c43.512-24.863 70.541-71.44 70.541-121.554v-202.369c0-2.018-.295-4.001-.877-5.895-1.966-6.393-7.18-11.504-13.606-13.34l-140-40c-1.778-.508-3.634-.765-5.517-.765z"/></g></g></svg>