<svg id="Capa_1" enable-background="new 0 0 512 512" height="512" viewBox="0 0 512 512" width="512" xmlns="http://www.w3.org/2000/svg"><g><path d="m456 192c11.046 0 20-8.954 20-20v-38.888c0-25.327-16.039-48.046-39.911-56.534-16.94-6.023-30.648-19.733-36.669-36.673-8.482-23.868-31.206-39.905-56.546-39.905h-173.748c-25.339 0-48.063 16.037-56.546 39.905-6.021 16.943-19.731 30.654-36.675 36.676-23.868 8.481-39.905 31.206-39.905 56.545v114.872c0 128.203 90.361 238.555 216.091 263.616 1.29.257 2.6.386 3.909.386s2.619-.129 3.909-.386c124.107-24.737 214.056-132.765 216.057-259.298.175-11.044-8.637-20.139-19.681-20.314-.107-.001-.216-.002-.323-.002-10.897 0-19.817 8.747-19.99 19.684-1.672 105.651-77.107 197.488-179.973 219.887-104.542-22.744-179.999-116.129-179.999-223.572v-114.873c0-8.451 5.345-16.028 13.301-18.855 28.167-10.011 50.96-32.804 60.971-60.972 2.826-7.954 10.403-13.299 18.854-13.299h173.748c8.451 0 16.028 5.344 18.854 13.299 10.01 28.164 32.798 50.955 60.96 60.967 7.962 2.832 13.312 10.405 13.312 18.846v38.888c0 11.046 8.954 20 20 20z"/><path d="m190.143 310.142c7.811-7.811 7.811-20.474 0-28.284l-25.859-25.858 25.858-25.858c7.811-7.811 7.811-20.474 0-28.284s-20.475-7.811-28.285 0l-40 40c-7.811 7.811-7.811 20.474 0 28.284l40 40c7.811 7.811 20.475 7.811 28.286 0z"/><path d="m350.143 201.858c-7.811-7.811-20.475-7.811-28.285 0s-7.811 20.474 0 28.284l25.858 25.858-25.858 25.858c-7.811 7.811-7.811 20.474 0 28.284 7.81 7.81 20.475 7.81 28.285 0l40-40c7.811-7.811 7.811-20.474 0-28.284z"/><path d="m255.403 340.851 40-160c2.679-10.716-3.837-21.574-14.553-24.253-10.718-2.682-21.574 3.835-24.254 14.552l-40 160c-2.679 10.716 3.837 21.574 14.553 24.253 10.717 2.679 21.575-3.836 24.254-14.552z"/></g></svg>