<svg id="Capa_1" enable-background="new 0 0 512 512" height="512" viewBox="0 0 512 512" width="512" xmlns="http://www.w3.org/2000/svg"><g id="Smart_locks"><path d="m452 232c-26.073 0-48.303 16.722-56.56 40h-55.44c-11.046 0-20 8.954-20 20s8.954 20 20 20h55.44c8.256 23.278 30.487 40 56.56 40 33.084 0 60-26.916 60-60s-26.916-60-60-60zm0 80c-11.028 0-20-8.972-20-20s8.972-20 20-20 20 8.972 20 20-8.972 20-20 20z"/><g><circle cx="100" cy="292" r="20"/><circle cx="180" cy="292" r="20"/><path d="m452 392c-26.073 0-48.303 16.722-56.56 40h-15.44c-11.028 0-20-8.972-20-20 0-33.084-26.916-60-60-60h-23.44c2.22-6.26 3.44-12.989 3.44-20v-80c0-7.011-1.22-13.74-3.44-20h23.44c33.084 0 60-26.916 60-60 0-11.028 8.972-20 20-20h15.44c8.256 23.278 30.487 40 56.56 40 33.084 0 60-26.916 60-60s-26.916-60-60-60c-26.073 0-48.303 16.722-56.56 40h-15.44c-33.084 0-60 26.916-60 60 0 11.028-8.972 20-20 20h-220v-92c0-33.084 26.916-60 60-60s60 26.916 60 60v32c0 11.046 8.954 20 20 20s20-8.954 20-20v-32c0-55.14-44.86-100-100-100s-100 44.86-100 100v95.44c-23.278 8.257-40 30.487-40 56.56v80c0 33.084 26.916 60 60 60h240c11.028 0 20 8.972 20 20 0 33.084 26.916 60 60 60h15.44c8.256 23.278 30.487 40 56.56 40 33.084 0 60-26.916 60-60s-26.916-60-60-60zm0-280c11.028 0 20 8.972 20 20s-8.972 20-20 20-20-8.972-20-20 8.972-20 20-20zm-412 220v-80c0-11.028 8.972-20 20-20h160c11.028 0 20 8.972 20 20v80c0 11.028-8.972 20-20 20h-160c-11.028 0-20-8.972-20-20zm412 140c-11.028 0-20-8.972-20-20s8.972-20 20-20 20 8.972 20 20-8.972 20-20 20z"/></g></g></svg>