<svg id="Capa_1" enable-background="new 0 0 512 512" height="512" viewBox="0 0 512 512" width="512" xmlns="http://www.w3.org/2000/svg"><g id="Top_Secret_2_"><g><path d="m160 352c-11.046 0-20-8.954-20-20v-112c0-11.046 8.954-20 20-20s20 8.954 20 20v112c0 11.046-8.954 20-20 20z"/></g><g><path d="m233.204 472h-173.204c-11.028 0-20-8.972-20-20v-325.197c29.099 20.479 71.732 33.197 120 33.197s90.901-12.718 120-33.197v68.998c0 11.046 8.954 20 20 20s20-8.954 20-20v-135.801c0-33.084-26.916-60-60-60h-200c-33.084 0-60 26.916-60 60v392c0 33.084 26.916 60 60 60h173.204c11.046 0 20-8.954 20-20s-8.954-20-20-20zm-173.204-432h200c11.028 0 20 8.972 20 20 0 28.379-49.282 60-120 60s-120-31.621-120-60c0-11.028 8.972-20 20-20z"/><path d="m452 272c-8.467 0-17.201-7.166-27.314-15.462-13.327-10.933-29.911-24.538-52.686-24.538s-39.359 13.605-52.686 24.538c-10.113 8.296-18.847 15.462-27.314 15.462-33.084 0-60 26.916-60 60 0 63.738 32.383 108.221 59.55 134.314 29.772 28.598 64.285 45.686 80.45 45.686 16.18 0 50.706-17.094 80.476-45.701 27.155-26.093 59.524-70.574 59.524-134.299 0-33.084-26.916-60-60-60zm-24.741 163.01c-24.099 24.076-48.402 35.025-55.254 36.824-6.854-1.803-31.162-12.76-55.254-36.823-20.415-20.391-44.751-54.814-44.751-103.011 0-11.028 8.972-20 20-20 22.775 0 39.359-13.605 52.686-24.538 10.113-8.296 18.847-15.462 27.314-15.462s17.201 7.166 27.314 15.462c13.327 10.933 29.911 24.538 52.686 24.538 11.028 0 20 8.972 20 20 0 48.193-24.331 82.618-44.741 103.01z"/></g></g></svg>