<svg id="Capa_1" enable-background="new 0 0 512 512" height="512" viewBox="0 0 512 512" width="512" xmlns="http://www.w3.org/2000/svg"><g id="Wireless_Keyboard"><g><path d="m376 40h-20v-20c0-11.046-8.954-20-20-20s-20 8.954-20 20v20h-20c-11.046 0-20 8.954-20 20s8.954 20 20 20h20v92c0 11.046 8.954 20 20 20s20-8.954 20-20v-92h20c11.046 0 20-8.954 20-20s-8.954-20-20-20z"/><path d="m492 112h-20v-92c0-11.046-8.954-20-20-20s-20 8.954-20 20v92h-20c-11.046 0-20 8.954-20 20s8.954 20 20 20h20v20c0 11.046 8.954 20 20 20s20-8.954 20-20v-20h20c11.046 0 20-8.954 20-20s-8.954-20-20-20z"/></g><g><path d="m452 232h-276c-11.046 0-20 8.954-20 20s8.954 20 20 20h276c11.028 0 20 8.972 20 20v160c0 11.028-8.972 20-20 20h-392c-11.028 0-20-8.972-20-20v-160c0-11.028 8.972-20 20-20h36c11.046 0 20-8.954 20-20v-60c0-22.056 17.944-40 40-40 44.112 0 80-35.888 80-80v-52c0-11.046-8.954-20-20-20s-20 8.954-20 20v52c0 22.056-17.944 40-40 40-44.112 0-80 35.888-80 80v40h-16c-33.084 0-60 26.916-60 60v160c0 33.084 26.916 60 60 60h392c33.084 0 60-26.916 60-60v-160c0-33.084-26.916-60-60-60z"/><path d="m156 412c0 11.046 8.954 20 20 20h160c11.046 0 20-8.954 20-20s-8.954-20-20-20h-160c-11.046 0-20 8.954-20 20z"/><circle cx="96" cy="412" r="20"/><circle cx="216" cy="332" r="20"/><circle cx="296" cy="332" r="20"/><circle cx="416" cy="412" r="20"/><path d="m416 312h-40c-11.046 0-20 8.954-20 20s8.954 20 20 20h40c11.046 0 20-8.954 20-20s-8.954-20-20-20z"/><path d="m136 312h-40c-11.046 0-20 8.954-20 20s8.954 20 20 20h40c11.046 0 20-8.954 20-20s-8.954-20-20-20z"/></g></g></svg>