<svg width="38" height="82" viewBox="0 0 38 82" fill="none" xmlns="http://www.w3.org/2000/svg">
<path d="M37.8701 81.4731H0V72.3745H37.8701V81.4731ZM35.8447 3.60101L24.6592 22.975H30.2188L32.3936 27.1323C34.2245 30.6325 35.5294 35.0595 36.377 38.9584C37.2315 42.8897 37.7793 47.0262 37.7793 50.1664C37.7793 55.7397 36.4235 61.5238 31.1787 64.9164C28.8894 66.3973 26.4668 66.9785 24.5088 67.2475C22.5718 67.5135 20.5638 67.5346 18.8896 67.5346C17.2156 67.5346 15.2083 67.5134 13.2715 67.2475C11.3134 66.9786 8.89011 66.3974 6.60059 64.9164C1.35582 61.5238 2.76806e-05 55.7397 0 50.1664C0 47.0262 0.547808 42.8897 1.40234 38.9584C2.24988 35.0595 3.55482 30.6325 5.38574 27.1323L7.56055 22.975H16.8291L29.9717 0.210388L35.8447 3.60101ZM12.3594 34.1362C10.424 39.2837 9.22266 46.3309 9.22266 50.1674C9.22266 54.5555 10.2876 56.3181 11.6094 57.1733C12.3335 57.6417 13.2815 57.9409 14.5254 58.1118C15.7735 58.2832 17.2166 58.3139 18.8896 58.3139C20.5627 58.3139 22.0058 58.2832 23.2539 58.1118C24.4978 57.9409 25.4458 57.6417 26.1699 57.1733C27.4917 56.3181 28.5566 54.5556 28.5566 50.1674C28.5566 46.3309 27.3553 39.2837 25.4199 34.1362H12.3594Z" fill="#02B5B9"></path>
</svg>