<svg id="Capa_1" enable-background="new 0 0 512 512" height="512" viewBox="0 0 512 512" width="512" xmlns="http://www.w3.org/2000/svg"><g><path d="m492 392h-60v-60c0-11.046-8.954-20-20-20s-20 8.954-20 20v60h-60c-11.046 0-20 8.954-20 20s8.954 20 20 20h60v60c0 11.046 8.954 20 20 20s20-8.954 20-20v-60h60c11.046 0 20-8.954 20-20s-8.954-20-20-20z"/><circle cx="332" cy="132" r="20"/><path d="m60 432h192c11.046 0 20-8.954 20-20s-8.954-20-20-20h-192c-11.028 0-20-8.972-20-20v-312c0-11.028 8.972-20 20-20h312c11.028 0 20 8.972 20 20v192c0 11.046 8.954 20 20 20s20-8.954 20-20v-192c0-33.084-26.916-60-60-60h-312c-33.084 0-60 26.916-60 60v312c0 33.084 26.916 60 60 60z"/><path d="m267.257 140.8c-10.993-18.034-30.154-28.8-51.257-28.8s-40.264 10.766-51.257 28.8c-.073.119-82.035 141.151-82.035 141.151-5.55 9.55-2.308 21.791 7.243 27.341 9.549 5.55 21.791 2.308 27.341-7.243l81.697-140.578c3.686-5.933 10.032-9.471 17.011-9.471s13.324 3.536 17.01 9.47l81.698 140.579c5.551 9.55 17.791 12.793 27.341 7.243s12.792-17.791 7.243-27.341c0 0-81.962-141.031-82.035-141.151z"/></g></svg>