<svg id="Capa_1" enable-background="new 0 0 512 512" height="512" viewBox="0 0 512 512" width="512" xmlns="http://www.w3.org/2000/svg"><g><path d="m252 236h20v20c0 11.046 8.954 20 20 20s20-8.954 20-20v-20h20c11.046 0 20-8.954 20-20s-8.954-20-20-20h-20v-20c0-11.046-8.954-20-20-20s-20 8.954-20 20v20h-20c-11.046 0-20 8.954-20 20s8.954 20 20 20z"/><path d="m20 40h41.795c5.119 29.947 39.922 233.541 47.276 276.563-21.739 9.025-37.071 30.471-37.071 55.437 0 27.631 18.78 50.946 44.241 57.885-2.726 6.849-4.241 14.306-4.241 22.115 0 33.084 26.916 60 60 60s60-26.916 60-60c0-7.011-1.22-13.74-3.44-20h30.294c11.046 0 20-8.954 20-20s-8.954-20-20-20h-126.854c-11.028 0-20-8.972-20-20s8.972-20 20-20h280c27.464 0 51.302-18.51 58.112-45.055.011-.042.027-.081.038-.123l40.061-152.237c1.188-4.749 1.79-9.656 1.79-14.586 0-33.084-26.916-60-60-60h-342.788l-10.833-63.369c-1.642-9.606-9.968-16.63-19.713-16.63h-58.667c-11.046 0-20 8.954-20 20s8.954 20 20 20zm172 412c0 11.028-8.972 20-20 20s-20-8.972-20-20 8.972-20 20-20 20 8.972 20 20zm260-332c11.028 0 20 8.972 20 20 0 1.627-.192 3.236-.571 4.784l-40.024 152.098c-2.225 8.901-10.205 15.118-19.405 15.118h-263.129l-32.821-192z"/><path d="m472 412c0-11.046-8.954-20-20-20h-80c-33.084 0-60 26.916-60 60s26.916 60 60 60 60-26.916 60-60c0-7.011-1.22-13.74-3.44-20h23.44c11.046 0 20-8.954 20-20zm-80 40c0 11.028-8.972 20-20 20s-20-8.972-20-20 8.972-20 20-20 20 8.972 20 20z"/></g></svg>