<svg id="Capa_1" enable-background="new 0 0 512 512" height="512" viewBox="0 0 512 512" width="512" xmlns="http://www.w3.org/2000/svg"><path d="m392 108h-272c-66.168 0-120 53.832-120 120v164c0 66.168 53.832 120 120 120h272c66.168 0 120-53.832 120-120v-164c0-66.168-53.832-120-120-120zm80 284c0 44.112-35.888 80-80 80h-272c-44.112 0-80-35.888-80-80v-164c0-44.112 35.888-80 80-80h272c44.112 0 80 35.888 80 80zm-160-332c0-33.084 26.916-60 60-60s60 26.916 60 60c0 11.046-8.954 20-20 20s-20-8.954-20-20c0-11.028-8.972-20-20-20s-20 8.972-20 20c0 11.046-8.954 20-20 20s-20-8.954-20-20zm27 250c0 11.046-8.954 20-20 20h-43v43c0 11.046-8.954 20-20 20s-20-8.954-20-20v-43h-43c-11.046 0-20-8.954-20-20s8.954-20 20-20h43v-43c0-11.046 8.954-20 20-20s20 8.954 20 20v43h43c11.046 0 20 8.954 20 20zm-257-250c0-33.084 26.916-60 60-60s60 26.916 60 60c0 11.046-8.954 20-20 20s-20-8.954-20-20c0-11.028-8.972-20-20-20s-20 8.972-20 20c0 11.046-8.954 20-20 20s-20-8.954-20-20z"/></svg>