<svg id="Capa_1" enable-background="new 0 0 512 512" height="512" viewBox="0 0 512 512" width="512" xmlns="http://www.w3.org/2000/svg"><g id="Address_Book"><g><path d="m416 512h-280c-33.084 0-60-26.916-60-60v-16c0-11.046 8.954-20 20-20s20 8.954 20 20v16c0 11.028 8.972 20 20 20h280c11.028 0 20-8.972 20-20v-392c0-11.028-8.972-20-20-20h-280c-11.028 0-20 8.972-20 20v56c0 11.046-8.954 20-20 20h-40c-11.046 0-20-8.954-20-20s8.954-20 20-20h20v-36c0-33.084 26.916-60 60-60h280c33.084 0 60 26.916 60 60v392c0 33.084-26.916 60-60 60z"/></g><g><path d="m96 256h-40c-11.046 0-20-8.954-20-20s8.954-20 20-20h20v-20c0-11.046 8.954-20 20-20s20 8.954 20 20v40c0 11.046-8.954 20-20 20z"/></g><g><path d="m96 376h-40c-11.046 0-20-8.954-20-20s8.954-20 20-20h20v-20c0-11.046 8.954-20 20-20s20 8.954 20 20v40c0 11.046-8.954 20-20 20z"/></g><g><path d="m276 196c-33.084 0-60-26.916-60-60s26.916-60 60-60 60 26.916 60 60-26.916 60-60 60zm0-80c-11.028 0-20 8.972-20 20s8.972 20 20 20 20-8.972 20-20-8.972-20-20-20z"/></g><g><path d="m316 356h-80c-33.084 0-60-26.916-60-60 0-55.14 44.859-100 100-100s100 44.86 100 100c0 33.084-26.916 60-60 60zm-40-120c-33.084 0-60 26.916-60 60 0 11.028 8.972 20 20 20h80c11.028 0 20-8.972 20-20 0-33.084-26.916-60-60-60z"/></g><g><path d="m336 436h-120c-11.046 0-20-8.954-20-20s8.954-20 20-20h120c11.046 0 20 8.954 20 20s-8.954 20-20 20z"/></g></g></svg>