<svg id="Capa_1" enable-background="new 0 0 512 512" height="512" viewBox="0 0 512 512" width="512" xmlns="http://www.w3.org/2000/svg"><g><path d="m512 140c0-11.046-8.954-20-20-20s-20 8.954-20 20v112c0 11.046 8.954 20 20 20s20-8.954 20-20z"/><path d="m20 120c-11.046 0-20 8.954-20 20v112c0 11.046 8.954 20 20 20s20-8.954 20-20v-112c0-11.046-8.954-20-20-20z"/><path d="m60 432h136v20c0 33.084 26.916 60 60 60s60-26.916 60-60v-20h136c33.084 0 60-26.916 60-60s-26.916-60-60-60c-11.028 0-20-8.972-20-20v-112c0-99.454-76.546-180-176-180-99.461 0-176 80.539-176 180v112c0 11.028-8.972 20-20 20-33.084 0-60 26.916-60 60s26.916 60 60 60zm216 20c0 11.028-8.972 20-20 20s-20-8.972-20-20v-20h40zm-216-100c33.084 0 60-26.916 60-60v-112c0-78.505 59.738-140 136-140s136 61.495 136 140v112c0 33.084 26.916 60 60 60 11.028 0 20 8.972 20 20s-8.972 20-20 20h-392c-11.028 0-20-8.972-20-20s8.972-20 20-20z"/></g></svg>