<svg id="Capa_1" enable-background="new 0 0 512.001 512.001" height="512" viewBox="0 0 512.001 512.001" width="512" xmlns="http://www.w3.org/2000/svg"><g><path d="m492 80h-31.716l45.858-45.858c5.72-5.72 7.431-14.322 4.335-21.796-3.095-7.473-10.388-12.346-18.477-12.346h-80c-11.046 0-20 8.954-20 20s8.954 20 20 20h31.716l-45.858 45.858c-5.72 5.72-7.431 14.322-4.335 21.796 3.095 7.474 10.388 12.346 18.477 12.346h80c11.046 0 20-8.954 20-20s-8.954-20-20-20z"/><path d="m237.522 267.654c3.096 7.474 10.389 12.346 18.478 12.346h80c11.046 0 20-8.954 20-20s-8.954-20-20-20h-31.716l45.858-45.858c5.72-5.72 7.431-14.322 4.335-21.796-3.095-7.473-10.388-12.346-18.477-12.346h-80c-11.046 0-20 8.954-20 20s8.954 20 20 20h31.716l-45.858 45.858c-5.72 5.72-7.431 14.323-4.336 21.796z"/><path d="m452 312c-11.028 0-20-8.972-20-20v-112c0-11.046-8.954-20-20-20s-20 8.954-20 20v112c0 33.084 26.916 60 60 60 11.028 0 20 8.972 20 20s-8.972 20-20 20h-392c-11.028 0-20-8.972-20-20s8.972-20 20-20c33.084 0 60-26.916 60-60v-112c0-78.505 59.738-140 136-140 24.581 0 45.879 6.336 69.056 20.546 9.416 5.772 21.73 2.82 27.504-6.597 5.773-9.417 2.819-21.731-6.598-27.504-29.428-18.042-58.014-26.445-89.962-26.445-99.461 0-176 80.54-176 180v112c0 11.028-8.972 20-20 20-33.084 0-60 26.916-60 60s26.916 60 60 60h136v20c0 33.084 26.916 60 60 60s60-26.916 60-60v-20h136c33.084 0 60-26.916 60-60s-26.916-60-60-60zm-176 140.001c0 11.028-8.972 20-20 20s-20-8.972-20-20v-20h40z"/></g></svg>