<svg id="Capa_1" enable-background="new 0 0 512 512" height="512" viewBox="0 0 512 512" width="512" xmlns="http://www.w3.org/2000/svg"><g id="Arrows_24_"><g><path d="m60 476c-33.084 0-60-26.916-60-60v-320c0-33.084 26.916-60 60-60 18.787 0 36.738 8.98 48.021 24.022.065.086 116.11 160.148 116.11 160.148 15.739 21.124 15.739 50.537-.001 71.661 0 0-116.044 160.06-116.109 160.146-11.283 15.043-29.234 24.023-48.021 24.023zm0-400c-11.028 0-20 8.972-20 20v320c0 11.028 8.972 20 20 20 6.312 0 12.115-2.884 15.94-7.916 0 0 116.016-160.02 116.08-160.105 5.288-7.053 5.288-16.904 0-23.957-.064-.086-116.078-160.105-116.078-160.105-3.826-5.033-9.629-7.917-15.942-7.917z"/></g><g><path d="m452 476c-18.787 0-36.739-8.98-48.021-24.023-.064-.086-116.106-160.143-116.106-160.143-15.744-21.128-15.743-50.549.002-71.671 0 0 116.04-160.054 116.104-160.14 11.282-15.043 29.234-24.023 48.021-24.023 33.084 0 60 26.916 60 60v320c0 33.084-26.916 60-60 60zm-15.94-47.916c3.825 5.033 9.627 7.916 15.94 7.916 11.028 0 20-8.972 20-20v-320c0-11.028-8.972-20-20-20-6.313 0-12.115 2.884-15.94 7.916 0 0-116.017 160.02-116.081 160.107-5.288 7.051-5.287 16.902.002 23.957.064.085 116.079 160.104 116.079 160.104z"/></g></g></svg>