<svg id="Capa_1" enable-background="new 0 0 511.87 511.87" height="512" viewBox="0 0 511.87 511.87" width="512" xmlns="http://www.w3.org/2000/svg"><g id="Arrows_23_"><g><path d="m335.935 475.935c-33.084 0-60-26.916-60-60v-320c0-33.084 26.916-60 60-60 18.785 0 36.737 8.98 48.021 24.022.065.087 116.111 160.149 116.111 160.149 15.739 21.125 15.737 50.54-.004 71.664 0 0-116.042 160.056-116.107 160.143-11.283 15.042-29.234 24.022-48.021 24.022zm0-400c-11.028 0-20 8.972-20 20v320c0 11.028 8.972 20 20 20 6.312 0 12.114-2.884 15.94-7.916 0 0 116.016-160.02 116.079-160.106 5.289-7.053 5.289-16.905.001-23.958-.064-.086-116.079-160.104-116.079-160.104-3.825-5.032-9.628-7.916-15.941-7.916z"/></g><g><path d="m175.935 475.935c-18.787 0-36.739-8.98-48.021-24.023-.065-.086-116.107-160.142-116.107-160.142-15.744-21.128-15.743-50.549.002-71.671 0 0 116.04-160.054 116.104-160.14 11.282-15.042 29.234-24.023 48.021-24.023 33.084 0 60 26.916 60 60v320c.001 33.083-26.915 59.999-59.999 59.999zm-15.94-47.916c3.825 5.033 9.627 7.916 15.94 7.916 11.028 0 20-8.972 20-20v-320c0-11.028-8.972-20-20-20-6.313 0-12.115 2.884-15.94 7.916 0 0-116.017 160.02-116.081 160.107-5.288 7.051-5.287 16.902.002 23.957.064.085 116.079 160.104 116.079 160.104zm-132.081-196.061h.01z"/></g></g></svg>