<svg id="Capa_1" enable-background="new 0 0 512 512" height="512" viewBox="0 0 512 512" width="512" xmlns="http://www.w3.org/2000/svg"><g><path d="m334.961 131.487-42.168-6.128-18.858-38.21c-3.37-6.827-10.322-11.149-17.935-11.149s-14.565 4.322-17.935 11.148l-18.858 38.21-42.168 6.128c-7.534 1.095-13.793 6.372-16.146 13.612s-.391 15.188 5.062 20.502l30.514 29.743-7.203 41.997c-1.287 7.503 1.797 15.086 7.956 19.561 6.158 4.474 14.324 5.065 21.062 1.522l37.716-19.827 37.716 19.828c6.737 3.543 14.905 2.952 21.062-1.522 6.159-4.475 9.243-12.058 7.956-19.561l-7.203-41.997 30.514-29.743c5.452-5.313 7.414-13.262 5.062-20.502s-8.612-12.517-16.146-13.612zm-54.879 42.552c-4.714 4.595-6.865 11.215-5.752 17.703l2.13 12.419-11.153-5.863c-5.826-3.063-12.788-3.063-18.613 0l-11.153 5.863 2.13-12.419c1.113-6.488-1.038-13.108-5.752-17.703l-9.023-8.796 12.47-1.812c6.515-.946 12.146-5.038 15.059-10.94l5.577-11.3 5.577 11.3c2.913 5.903 8.544 9.994 15.059 10.94l12.47 1.812z"/><path d="m336 392h-160c-11.046 0-20 8.954-20 20s8.954 20 20 20h160c11.046 0 20-8.954 20-20s-8.954-20-20-20z"/><path d="m456 472h-20v-412c0-33.084-26.916-60-60-60h-240c-33.084 0-60 26.916-60 60v412h-20c-11.046 0-20 8.954-20 20s8.954 20 20 20h400c11.046 0 20-8.954 20-20s-8.954-20-20-20zm-340-412c0-11.028 8.972-20 20-20h240c11.028 0 20 8.972 20 20v216h-40c-11.046 0-20 8.954-20 20s8.954 20 20 20h40v156h-280z"/></g></svg>