<svg id="Capa_1" enable-background="new 0 0 512.04 512.04" height="512" viewBox="0 0 512.04 512.04" width="512" xmlns="http://www.w3.org/2000/svg"><path d="m368.924 200.87-97.076 96.695-56.644-56.644 96.959-96.722c7.82-7.801 7.835-20.464.034-28.284-7.801-7.819-20.464-7.836-28.284-.034l-197.869 197.385c-22.569 22.569-37.805 51.042-44.061 82.34-.018.088-.034.176-.051.265l-10.575 56.881-25.372 25.058c-7.859 7.762-7.938 20.425-.176 28.283 3.912 3.962 9.07 5.946 14.23 5.946 5.076 0 10.155-1.921 14.053-5.771l25.47-25.154 57.015-10.6c.089-.017.177-.033.265-.051 31.299-6.256 59.771-21.492 82.312-44.033l198-197.222c7.826-7.795 7.851-20.458.056-28.284-7.797-7.824-20.46-7.85-28.286-.054zm-198.028 197.25c-16.934 16.934-38.288 28.376-61.766 33.095l-34.269 6.371 6.371-34.27c4.719-23.475 16.161-44.83 33.078-61.748l72.574-72.397 56.623 56.623zm317.712-374.726c-31.193-31.192-81.945-31.192-113.139 0-.049.049-22.168 22.631-22.168 22.631l-14.12-14.119c-11.521-11.521-26.84-17.866-43.133-17.866-16.294 0-31.612 6.345-43.134 17.867-.025.025-.051.05-.075.076l-90.018 90.991c-7.769 7.853-7.7 20.516.152 28.284 7.851 7.768 20.515 7.7 28.283-.152l89.977-90.949c3.962-3.945 9.221-6.117 14.814-6.117 5.609 0 10.883 2.185 14.85 6.151l113 112.991c3.751 3.751 8.838 5.857 14.142 5.857h.031c5.314-.008 10.407-2.132 14.154-5.901l36.384-36.608c31.191-31.191 31.191-81.944 0-113.136zm-28.328 84.896-22.285 22.422-56.406-56.402 22.234-22.701c7.547-7.511 17.563-11.647 28.216-11.647 10.685 0 20.729 4.161 28.284 11.716 15.596 15.596 15.596 40.973-.043 56.612z"/></svg>