<svg id="Capa_1" enable-background="new 0 0 511.969 511.969" height="512" viewBox="0 0 511.969 511.969" width="512" xmlns="http://www.w3.org/2000/svg"><g id="ballpoint_pens"><g><path d="m381.287 385.241c-23.394-23.394-23.394-61.459 0-84.853l28.284-28.284c11.333-11.333 17.574-26.4 17.574-42.426 0-16.027-6.241-31.094-17.574-42.427l-28.284-28.284c-7.81-7.811-7.81-20.474 0-28.284 7.811-7.811 20.475-7.811 28.285 0l28.284 28.284c18.887 18.888 29.289 44 29.289 70.711s-10.402 51.823-29.29 70.71l-28.283 28.284c-7.799 7.798-7.799 20.486 0 28.285 7.81 7.811 7.81 20.474 0 28.284-7.811 7.81-20.475 7.81-28.285 0z"/></g><path d="m494.424 45.83-28.284-28.285c-23.395-23.394-61.459-23.394-84.854 0l-310.296 310.297c-34.067 34.066-50.123 81.582-44.076 128.929l-21.056 21.056c-7.811 7.81-7.811 20.474 0 28.284 7.81 7.811 20.474 7.81 28.284 0l21.048-21.048c6.559.838 13.12 1.258 19.651 1.258 40.603 0 79.938-15.995 109.286-45.342l197.161-197.161c7.81-7.811 7.81-20.474 0-28.284-7.811-7.811-20.475-7.811-28.285 0l-177.44 177.441-56.569-56.569 290.578-290.576c7.797-7.798 20.486-7.798 28.283 0l28.284 28.284c7.799 7.798 7.799 20.486 0 28.284-7.81 7.811-7.81 20.474 0 28.284 7.811 7.811 20.475 7.811 28.285 0 23.394-23.394 23.394-61.458 0-84.852zm-428.431 400.147c-2.247-29.176 6.732-58.052 25.171-80.834l55.663 55.663c-22.783 18.438-51.66 27.414-80.834 25.171z"/></g></svg>