<svg id="Capa_1" enable-background="new 0 0 512 512" height="512" viewBox="0 0 512 512" width="512" xmlns="http://www.w3.org/2000/svg"><g id="Battery_1_"><g><path d="m356 512h-200c-33.084 0-60-26.916-60-60v-312c0-33.084 26.916-60 60-60h200c33.084 0 60 26.916 60 60v312c0 33.084-26.916 60-60 60zm-200-392c-11.028 0-20 8.972-20 20v312c0 11.028 8.972 20 20 20h200c11.028 0 20-8.972 20-20v-312c0-11.028-8.972-20-20-20z"/></g><g><path d="m244.906 316.641c-9.19-6.127-11.674-18.544-5.547-27.735l19.271-28.906h-42.63c-7.376 0-14.153-4.06-17.633-10.563s-3.099-14.394.992-20.531l40-60c6.128-9.19 18.543-11.674 27.735-5.547 9.19 6.127 11.674 18.544 5.547 27.735l-19.271 28.906h42.63c7.376 0 14.153 4.06 17.633 10.563s3.099 14.394-.992 20.531l-40 60c-6.128 9.191-18.543 11.674-27.735 5.547z"/></g><g><path d="m316 40h-120c-11.046 0-20-8.954-20-20s8.954-20 20-20h120c11.046 0 20 8.954 20 20s-8.954 20-20 20z"/></g><g><path d="m316 432h-120c-11.046 0-20-8.954-20-20s8.954-20 20-20h120c11.046 0 20 8.954 20 20s-8.954 20-20 20z"/></g></g></svg>