<svg id="Capa_1" enable-background="new 0 0 512 512" height="512" viewBox="0 0 512 512" width="512" xmlns="http://www.w3.org/2000/svg"><g id="Battery"><g><path d="m295.997 160c-6.658 0-12.915-3.321-16.638-8.906l-63.359-95.038-23.359 35.039c-3.709 5.563-9.953 8.905-16.641 8.905h-40c-11.046 0-20-8.954-20-20s8.954-20 20-20h29.296l34.063-51.094c3.709-5.564 9.953-8.906 16.641-8.906s12.932 3.342 16.641 8.906l60.884 91.325 24.587-49.175c3.387-6.776 10.313-11.056 17.888-11.056h40c11.046 0 20 8.954 20 20s-8.954 20-20 20h-27.64l-34.472 68.944c-3.188 6.376-9.53 10.574-16.646 11.017-.415.026-.832.039-1.245.039z"/></g><g><path d="m472 203.44v-23.44c0-33.084-26.916-60-60-60s-60 26.916-60 60v20h-192v-20c0-33.084-26.916-60-60-60s-60 26.916-60 60v23.44c-23.278 8.257-40 30.487-40 56.56v192c0 33.084 26.916 60 60 60h392c33.084 0 60-26.916 60-60v-192c0-26.073-16.722-48.303-40-56.56zm-80-23.44c0-11.028 8.972-20 20-20s20 8.972 20 20v20h-40zm-292-20c11.028 0 20 8.972 20 20v20h-40v-20c0-11.028 8.972-20 20-20zm372 292c0 11.028-8.972 20-20 20h-392c-11.028 0-20-8.972-20-20v-192c0-11.028 8.972-20 20-20h392c11.028 0 20 8.972 20 20z"/><path d="m180 336h-20v-20c0-11.046-8.954-20-20-20s-20 8.954-20 20v20h-20c-11.046 0-20 8.954-20 20s8.954 20 20 20h20v20c0 11.046 8.954 20 20 20s20-8.954 20-20v-20h20c11.046 0 20-8.954 20-20s-8.954-20-20-20z"/><path d="m412 336h-80c-11.046 0-20 8.954-20 20s8.954 20 20 20h80c11.046 0 20-8.954 20-20s-8.954-20-20-20z"/></g></g></svg>