<svg id="Capa_1" enable-background="new 0 0 512 512" height="512" viewBox="0 0 512 512" width="512" xmlns="http://www.w3.org/2000/svg"><g id="Battery_2_"><g><path d="m412 512h-352c-33.084 0-60-26.916-60-60v-160c0-33.084 26.916-60 60-60h352c33.084 0 60 26.916 60 60v23.427c23.281 8.254 40 30.498 40 56.573s-16.719 48.318-40 56.573v23.427c0 33.084-26.916 60-60 60zm-352-240c-11.028 0-20 8.972-20 20v160c0 11.028 8.972 20 20 20h352c11.028 0 20-8.972 20-20v-40c0-11.046 8.954-20 20-20 11.028 0 20-8.972 20-20s-8.972-20-20-20c-11.046 0-20-8.954-20-20v-40c0-11.028-8.972-20-20-20z"/></g><g><path d="m216 40h-20v-20c0-11.046-8.954-20-20-20s-20 8.954-20 20v20h-20c-11.046 0-20 8.954-20 20s8.954 20 20 20h20v92c0 11.046 8.954 20 20 20s20-8.954 20-20v-92h20c11.046 0 20-8.954 20-20s-8.954-20-20-20z"/><path d="m336 112h-20v-92c0-11.046-8.954-20-20-20s-20 8.954-20 20v92h-20c-11.046 0-20 8.954-20 20s8.954 20 20 20h20v20c0 11.046 8.954 20 20 20s20-8.954 20-20v-20h20c11.046 0 20-8.954 20-20s-8.954-20-20-20z"/></g><g><path d="m207.056 429.889-80-40c-9.879-4.94-13.884-16.953-8.944-26.833 4.94-9.879 16.953-13.883 26.833-8.944l62.111 31.056 31.056-62.111c4.94-9.879 16.953-13.883 26.833-8.944l80 40c9.879 4.94 13.884 16.953 8.944 26.833-4.94 9.879-16.951 13.884-26.833 8.944l-62.111-31.056-31.056 62.111c-4.941 9.879-16.953 13.883-26.833 8.944z"/></g></g></svg>