<svg id="Capa_1" enable-background="new 0 0 512 512" height="512" viewBox="0 0 512 512" width="512" xmlns="http://www.w3.org/2000/svg"><g id="Battery"><path d="m396 83.44v-23.44c0-33.084-26.916-60-60-60s-60 26.916-60 60v20h-40v-20c0-33.084-26.916-60-60-60s-60 26.916-60 60v23.44c-23.278 8.256-40 30.487-40 56.56v312c0 33.084 26.916 60 60 60h240c33.084 0 60-26.916 60-60v-312c0-26.073-16.722-48.304-40-56.56zm-80-23.44c0-11.028 8.972-20 20-20s20 8.972 20 20v20h-40zm-140-20c11.028 0 20 8.972 20 20v20h-40v-20c0-11.028 8.972-20 20-20zm200 432h-240c-11.028 0-20-8.972-20-20v-312c0-11.028 8.972-20 20-20h240c11.028 0 20 8.972 20 20v20h-220c-11.046 0-20 8.954-20 20s8.954 20 20 20h220v252c0 11.028-8.972 20-20 20z"/><g><path d="m247.056 433.889c-9.88-4.94-13.884-16.954-8.944-26.833l25.528-51.056h-47.64c-6.932 0-13.369-3.589-17.013-9.485-3.645-5.896-3.976-13.259-.876-19.459l40-80c4.939-9.879 16.954-13.883 26.833-8.944 9.88 4.94 13.884 16.954 8.944 26.833l-25.528 51.055h47.64c6.932 0 13.369 3.589 17.013 9.485 3.645 5.896 3.976 13.259.876 19.459l-40 80c-4.94 9.879-16.955 13.884-26.833 8.945z"/></g></g></svg>