<svg id="Capa_1" enable-background="new 0 0 512 512" height="512" viewBox="0 0 512 512" width="512" xmlns="http://www.w3.org/2000/svg"><path d="m372.203 206c0 11.046-8.954 20-20 20h-79.711c-1.206 0-1.905.344-2.201 1.081-.129.322-.251.627.612 1.45.108.104.442.433.824.81l.754.744c9.848 9.381 19.975 21.142 20.684 37.252.871 19.784-13.474 33.427-21.18 40.756-6.585 6.263-8.16 8.559-8.529 9.243-.025.204-.068.684-.07 1.609-.004 1.953 1.935 5.279 6.272 8.309 14.718 10.277 23.235 25.116 23.368 40.711.158 18.552-13.298 31.349-21.338 38.995-5.467 5.199-8.317 8.826-8.479 10.786.352 1.463 2.706 5.929 7.999 10.962 9.662 9.189 21.688 20.626 21.639 38.459-.031 12.115-5.273 24.046-14.761 33.592-1.959 1.972-5.722 5.48-6.144 5.874-3.854 3.59-8.748 5.367-13.629 5.367-5.356 0-10.698-2.138-14.638-6.366-7.529-8.081-7.082-20.736.999-28.267 1.38-1.286 3.97-3.729 5.04-4.806 1.75-1.761 2.872-3.592 3.092-5.015-1.249-2.326-6.548-7.365-9.165-9.854-7.555-7.185-20.256-21.85-20.438-39.34-.185-17.826 9.944-29.941 20.917-40.377 5.203-4.948 8.19-8.301 8.889-9.975-.202-1.97-2.163-5.095-6.255-7.952-14.882-10.393-23.399-25.401-23.37-41.178.031-16.832 6.808-26.232 21.033-39.763 6.729-6.399 8.354-9.109 8.736-10.125-.277-.844-1.644-3.64-8.345-10.014l.001-.001c-.215-.208-.743-.726-1.203-1.18l-.44-.436c-12.312-11.789-16.266-29.525-10.008-45.146 6.377-15.92 21.815-26.207 39.332-26.207h79.711c11.048.002 20.002 8.956 20.002 20.002zm97.974-119.686c4.041 10.282 15.652 15.34 25.93 11.3 10.28-4.04 15.339-15.648 11.299-25.929-8.211-20.895-22.331-38.728-40.835-51.57-18.96-13.159-41.218-20.115-64.368-20.115h-286c-62.309 0-113 50.691-113 113s50.691 113 113 113h56c11.046 0 20-8.954 20-20s-8.954-20-20-20h-56c-40.252 0-73-32.748-73-73s32.748-73 73-73h286c30.236 0 56.918 18.18 67.974 46.314zm24.353 49.741c-9.911-4.878-21.899-.795-26.774 9.116-9.195 18.688-25.931 32.599-45.917 38.164-10.642 2.962-16.865 13.99-13.902 24.631 2.463 8.848 10.5 14.641 19.256 14.641 1.775 0 3.582-.238 5.375-.737 30.952-8.619 56.86-30.138 71.079-59.04 4.876-9.912.794-21.899-9.117-26.775z"/></svg>