<svg id="Capa_1" enable-background="new 0 0 512.031 512.031" height="512" viewBox="0 0 512.031 512.031" width="512" xmlns="http://www.w3.org/2000/svg"><g id="Broken_Heart"><path d="m495.006 333.707-33.279-99.841c-3.629-10.889-5.395-22.748-6.929-37.203-6.54-61.62-39.213-117.991-89.642-154.66-50.993-37.079-113.655-50.214-176.447-36.986-85.402 17.992-153.305 88.005-168.967 174.22-6.626 36.471-4.447 72.445 6.476 106.923 10.247 32.344 28.267 62.389 52.11 86.888 11.414 11.727 17.7 26.729 17.701 42.243l.002 36.743c.001 33.083 26.917 59.998 60 59.998h200.001c33.084 0 60-26.916 60-60v-32c0-11.046-8.954-20-20-20h-40c-11.046 0-20 8.954-20 20s8.954 20 20 20h20v12c0 11.028-8.972 20-20 20h-200.001c-11.027 0-20-8.972-20-20l-.002-36.742c0-25.993-10.312-50.903-29.036-70.14-41.097-42.226-58.555-100.093-47.896-158.763 12.789-70.394 68.189-127.552 137.858-142.229 51.576-10.865 102.955-.14 144.677 30.197 41.292 30.025 68.042 76.144 73.39 126.53 1.458 13.739 3.458 29.728 8.758 45.63l24.504 73.517h-52.252c-11.046 0-20 8.954-20 20s8.954 20 20 20h80c6.429 0 12.466-3.09 16.225-8.306s4.782-11.921 2.749-18.019z"/><g><path d="m181.89 319.017-62.422-62.422c-15.111-15.098-23.436-35.188-23.436-56.564s8.325-41.466 23.442-56.57c21.811-21.811 53.71-28.858 83.242-18.386 7.982 2.831 13.316 10.381 13.316 18.85v160.95c0 8.089-4.873 15.382-12.346 18.478-7.458 3.089-16.064 1.395-21.796-4.336zm-6.477-158.67c-10.303 0-20.204 3.948-27.66 11.404-7.56 7.554-11.72 17.595-11.72 28.28s4.16 20.726 11.714 28.274l28.286 28.286v-96.239c-.208-.004-.414-.005-.62-.005z"/></g><g><path d="m268.378 323.352c-7.473-3.096-12.346-10.388-12.346-18.478v-160.95c0-8.469 5.334-16.02 13.316-18.85 29.531-10.471 61.426-3.427 83.242 18.386 15.117 15.104 23.442 35.194 23.442 56.57s-8.325 41.466-23.442 56.57l-62.416 62.416c-5.72 5.721-14.322 7.432-21.796 4.336zm27.654-163v96.239l28.28-28.28c7.56-7.554 11.72-17.595 11.72-28.28s-4.16-20.726-11.714-28.274c-.002-.002-.004-.004-.006-.006-7.605-7.604-17.75-11.566-28.28-11.399z"/></g></g></svg>