<svg id="Capa_1" enable-background="new 0 0 512 512" height="512" viewBox="0 0 512 512" width="512" xmlns="http://www.w3.org/2000/svg"><g id="Bucket_list_2_"><g><path d="m195.997 320c-5.118 0-10.237-1.953-14.143-5.858l-20-20c-7.81-7.811-7.81-20.474 0-28.284 7.811-7.811 20.475-7.811 28.285 0l5.857 5.858 25.857-25.858c7.811-7.811 20.475-7.811 28.285 0s7.81 20.474 0 28.284l-40 40c-3.904 3.905-9.023 5.858-14.141 5.858z"/></g><g><path d="m195.997 432c-5.118 0-10.237-1.953-14.143-5.858l-20-20c-7.81-7.811-7.81-20.474 0-28.284 7.811-7.811 20.475-7.811 28.285 0l5.857 5.858 25.857-25.858c7.811-7.811 20.475-7.811 28.285 0s7.81 20.474 0 28.284l-40 40c-3.904 3.905-9.023 5.858-14.141 5.858z"/></g><g><path d="m335.997 320h-40c-11.046 0-20-8.954-20-20s8.954-20 20-20h40c11.046 0 20 8.954 20 20s-8.954 20-20 20z"/></g><g><path d="m335.997 432h-40c-11.046 0-20-8.954-20-20s8.954-20 20-20h40c11.046 0 20 8.954 20 20s-8.954 20-20 20z"/></g><path d="m435.667 180.292c-5.532-6.267-12.254-11.222-19.67-14.673v-5.619c0-88.224-71.775-160-160-160s-160 71.776-160 160v5.619c-7.416 3.452-14.138 8.407-19.67 14.673-11.384 12.896-16.689 30.082-14.545 47.234l29.971 231.764c3.661 30.059 29.197 52.71 59.444 52.71h209.6c30.247 0 55.782-22.651 59.443-52.708l29.982-231.85c2.134-17.068-3.172-34.254-14.555-47.15zm-179.67-140.292c66.168 0 120 53.832 120 120h-240c0-66.168 53.832-120 120-120zm154.545 182.396-29.98 231.838c-.008.061-.016.122-.022.183-1.183 9.859-9.854 17.583-19.742 17.583h-209.6c-9.887 0-18.559-7.724-19.742-17.583-.007-.061-.015-.121-.022-.182l-29.97-231.754c-.722-5.773 1.001-11.354 4.852-15.716s9.174-6.765 14.992-6.765h269.377c5.818 0 11.144 2.402 14.994 6.764s5.574 9.944 4.863 15.632z"/></g></svg>