<svg id="Capa_1" enable-background="new 0 0 512 512" height="512" viewBox="0 0 512 512" width="512" xmlns="http://www.w3.org/2000/svg"><g id="Check"><path d="m396 232h-60v-100c0-33.084-26.916-60-60-60s-60 26.916-60 60v103.44c-6.26-2.22-12.989-3.44-20-3.44-33.084 0-60 26.916-60 60v40c0 99.252 80.748 180 180 180s180-80.748 180-180c0-55.14-44.859-100-100-100zm-80 240c-77.196 0-140-62.804-140-140v-40c0-11.028 8.972-20 20-20s20 8.972 20 20v40c0 11.046 8.954 20 20 20s20-8.954 20-20v-200c0-11.028 8.972-20 20-20s20 8.972 20 20v120c0 11.046 8.954 20 20 20h80c33.084 0 60 26.916 60 60 0 77.196-62.803 140-140 140z"/><g><path d="m76 160c-5.118 0-10.237-1.953-14.143-5.858l-40-40c-7.811-7.81-7.811-20.474 0-28.284 7.811-7.811 20.475-7.811 28.285 0l25.858 25.858 105.858-105.858c7.811-7.811 20.475-7.811 28.285 0 7.811 7.81 7.811 20.474 0 28.284l-120 120c-3.905 3.905-9.025 5.858-14.143 5.858z"/></g></g></svg>