<svg id="Capa_1" enable-background="new 0 0 512.001 512.001" height="512" viewBox="0 0 512.001 512.001" width="512" xmlns="http://www.w3.org/2000/svg"><g><path d="m165.858 101.858-35.858 35.858-15.858-15.858c-7.811-7.811-20.474-7.811-28.284 0s-7.811 20.474 0 28.284l30 30c3.905 3.906 9.023 5.858 14.142 5.858s10.237-1.953 14.142-5.858l50-50c7.811-7.811 7.811-20.474 0-28.284s-20.474-7.81-28.284 0z"/><path d="m165.858 221.858-35.858 35.858-15.858-15.858c-7.811-7.811-20.474-7.811-28.284 0s-7.811 20.474 0 28.284l30 30c3.905 3.906 9.023 5.858 14.142 5.858s10.237-1.953 14.142-5.858l50-50c7.811-7.811 7.811-20.474 0-28.284s-20.474-7.81-28.284 0z"/><path d="m165.858 341.858-35.858 35.858-15.858-15.858c-7.811-7.811-20.474-7.811-28.284 0s-7.811 20.474 0 28.284l30 30c3.905 3.906 9.023 5.858 14.142 5.858s10.237-1.953 14.142-5.858l50-50c7.811-7.811 7.811-20.474 0-28.284s-20.474-7.81-28.284 0z"/><path d="m100 512h192c55.14 0 100-44.86 100-100v-18.864c5.833-2.068 11.461-4.571 16.842-7.477l67.371 86.62c6.781 8.718 19.348 10.289 28.066 3.508 8.719-6.781 10.29-19.347 3.508-28.066l-67.395-86.651c19.616-21.369 31.608-49.844 31.608-81.07 0-66.168-53.832-120-120-120s-120 53.832-120 120 53.832 120 120 120v12c0 33.084-26.916 60-60 60h-192c-33.084 0-60-26.916-60-60v-312c0-33.084 26.916-60 60-60h192c33.084 0 60 26.916 60 60v1.104c0 11.046 8.954 20 20 20s20-8.954 20-20v-1.104c0-55.14-44.86-100-100-100h-192c-55.14 0-100 44.86-100 100v312c0 55.141 44.86 100 100 100zm172-232c0-44.112 35.888-80 80-80s80 35.888 80 80-35.888 80-80 80-80-35.887-80-80z"/></g></svg>