<svg id="Capa_1" enable-background="new 0 0 512 512" height="512" viewBox="0 0 512 512" width="512" xmlns="http://www.w3.org/2000/svg"><g><path d="m125.858 194.142c3.905 3.905 9.023 5.858 14.142 5.858s10.237-1.953 14.142-5.858l80-80c7.811-7.81 7.811-20.474 0-28.284-7.811-7.811-20.474-7.811-28.284 0l-65.858 65.858-25.858-25.858c-7.811-7.811-20.474-7.811-28.284 0-7.811 7.81-7.811 20.474 0 28.284z"/><path d="m125.858 346.142c3.905 3.905 9.023 5.858 14.142 5.858s10.237-1.953 14.142-5.858l80-80c7.811-7.81 7.811-20.474 0-28.284-7.811-7.811-20.474-7.811-28.284 0l-65.858 65.858-25.858-25.858c-7.811-7.811-20.474-7.811-28.284 0-7.811 7.81-7.811 20.474 0 28.284z"/><path d="m60 512h312c33.084 0 60-26.916 60-60v-20c0-22.056-17.944-40-40-40h-252c-32.52 0-60.409 26.188-60.002 59.747.136 11.171-8.856 20.253-19.998 20.253-11.028 0-20-8.972-20-20v-372c0-22.056 17.944-40 40-40h192c22.056 0 40 17.944 40 40v252c0 11.046 8.954 20 20 20s20-8.954 20-20v-252c0-44.112-35.888-80-80-80h-192c-44.112 0-80 35.888-80 80v372c0 33.084 26.916 60 60 60zm59.995-60.738c-.131-10.823 9.309-19.262 20.005-19.262h252v20c0 11.028-8.972 20-20 20h-255.396c2.315-6.565 3.478-13.56 3.391-20.738z"/><path d="m512 60c0-33.084-26.916-60-60-60s-60 26.916-60 60v238.898c0 3.355.844 6.657 2.455 9.6l40 73.102c3.508 6.412 10.235 10.4 17.545 10.4s14.037-3.988 17.545-10.4l40-73.102c1.61-2.944 2.455-6.245 2.455-9.6zm-60-20c11.028 0 20 8.972 20 20v20h-40v-20c0-11.028 8.972-20 20-20zm0 290.335-20-36.551v-173.784h40v173.784z"/></g></svg>