<svg id="Capa_1" enable-background="new 0 0 512.009 512.009" height="512" viewBox="0 0 512.009 512.009" width="512" xmlns="http://www.w3.org/2000/svg"><g id="Chevrons_3_"><g><path d="m255.938 280.009c-16.026 0-31.093-6.242-42.427-17.576l-160-160c-11.332-11.333-17.573-26.4-17.573-42.426 0-33.084 26.916-60 60-60 16.027 0 31.094 6.241 42.427 17.575l117.594 117.594 117.573-117.234c15.578-15.566 36.121-21.382 56.364-15.957 21.415 5.738 38.939 23.205 44.645 44.5 5.393 20.125-.503 40.656-16.177 56.33l-160.017 159.635c-11.316 11.317-26.383 17.559-42.409 17.559zm-160-240.002c-11.028 0-20 8.972-20 20 0 5.342 2.081 10.364 5.858 14.142l160 160c3.779 3.779 8.801 5.86 14.142 5.86s10.363-2.081 14.142-5.86l160.017-159.636c5.59-5.59 7.495-11.377 5.807-17.676-2.011-7.505-8.739-14.173-16.361-16.215-6.433-1.724-12.238.116-17.747 5.625-.007.007-.014.014-.021.021l-131.716 131.334c-7.813 7.791-20.461 7.782-28.264-.021l-131.715-131.715c-3.778-3.779-8.8-5.859-14.142-5.859zm291.716-7.902h.01z"/></g><g><path d="m255.938 512.009c-16.026 0-31.093-6.242-42.427-17.576l-160-160c-24.95-24.951-23.158-61.023.427-84.609 23.376-23.375 59.26-25.408 84.425-.242l117.574 117.574 117.574-117.574c15.58-15.58 36.133-21.405 56.384-15.978 21.415 5.738 38.939 23.205 44.645 44.499 5.393 20.125-.503 40.657-16.177 56.33l-160 160c-11.332 11.334-26.399 17.576-42.425 17.576zm-173.716-233.901c-2.376 2.377-13.567 14.899-.427 28.041l160 160c3.779 3.779 8.801 5.86 14.142 5.86s10.363-2.081 14.142-5.86l160-160c5.607-5.607 7.512-11.395 5.824-17.693-2.011-7.505-8.739-14.173-16.361-16.216-6.431-1.723-12.238.116-17.748 5.625l-131.714 131.716c-7.811 7.811-20.474 7.811-28.284 0l-131.716-131.715c-9.041-9.04-19.463-8.151-27.858.242zm305.432-14.385h.01z"/></g></g></svg>