<svg id="Capa_1" enable-background="new 0 0 512 512" height="512" viewBox="0 0 512 512" width="512" xmlns="http://www.w3.org/2000/svg"><g id="Chevron"><g><path d="m212 512c-33.084 0-60-26.916-60-60v-92h-92c-33.084 0-60-26.916-60-60s26.916-60 60-60h152c33.084 0 60 26.916 60 60v152c0 33.084-26.916 60-60 60zm-152-232c-11.028 0-20 8.972-20 20s8.972 20 20 20h112c11.046 0 20 8.954 20 20v112c0 11.028 8.972 20 20 20s20-8.972 20-20v-152c0-11.028-8.972-20-20-20z"/></g><g><path d="m492 240c-11.046 0-20-8.954-20-20v-120c0-33.084-26.916-60-60-60h-120c-11.046 0-20-8.954-20-20s8.954-20 20-20h120c55.14 0 100 44.86 100 100v120c0 11.046-8.954 20-20 20z"/></g><g><path d="m372 360c-33.084 0-60-26.916-60-60v-100h-100c-33.084 0-60-26.916-60-60s26.916-60 60-60h160c33.084 0 60 26.916 60 60v160c0 33.084-26.916 60-60 60zm-160-240c-11.028 0-20 8.972-20 20s8.972 20 20 20h120c11.046 0 20 8.954 20 20v120c0 11.028 8.972 20 20 20s20-8.972 20-20v-160c0-11.028-8.972-20-20-20z"/></g></g></svg>