<svg id="Capa_1" enable-background="new 0 0 512.001 512.001" height="512" viewBox="0 0 512.001 512.001" width="512" xmlns="http://www.w3.org/2000/svg"><g id="Chevron_3_"><g><path d="m361.538 506.907-92.204-82.474c-7.601-6.799-19.065-6.799-26.667 0l-92.196 82.473c-8.232 7.366-20.876 6.661-28.241-1.572-7.364-8.232-6.661-20.876 1.572-28.24l92.196-82.473c22.806-20.399 57.199-20.399 80.004-.001l92.204 82.474c8.232 7.364 8.937 20.008 1.573 28.24s-20.007 8.937-28.241 1.573z"/></g><g><path d="m376 400c-14.78 0-28.982-5.423-39.991-15.27l-66.685-59.647c-3.664-3.278-8.396-5.083-13.324-5.083s-9.659 1.805-13.324 5.083l-66.685 59.647c-11.007 9.847-25.21 15.27-39.991 15.27-33.084 0-60-26.916-60-60 0-8.188 1.626-16.135 4.834-23.621l120-280c9.473-22.1 31.126-36.379 55.166-36.379s45.694 14.279 55.165 36.378l120 280c3.208 7.486 4.835 15.434 4.835 23.622 0 33.084-26.916 60-60 60zm-120-120c14.781 0 28.983 5.423 39.992 15.27l66.685 59.647c3.664 3.278 8.396 5.083 13.323 5.083 11.028 0 20-8.972 20-20 0-2.74-.539-5.387-1.601-7.865l-120-280c-3.158-7.372-10.381-12.135-18.399-12.135s-15.24 4.763-18.399 12.135l-120 280c-1.062 2.478-1.601 5.125-1.601 7.865 0 11.028 8.972 20 20 20 4.928 0 9.659-1.805 13.324-5.083l66.685-59.647c11.008-9.847 25.211-15.27 39.991-15.27z"/></g></g></svg>