<svg id="Capa_1" enable-background="new 0 0 512.056 512.056" height="512" viewBox="0 0 512.056 512.056" width="512" xmlns="http://www.w3.org/2000/svg"><g id="Cloud"><path d="m356.032 332.056c0-33.084-26.916-60-60-60h-20v-20c0-11.046-8.954-20-20-20s-20 8.954-20 20v20h-60c-11.046 0-20 8.954-20 20s8.954 20 20 20h20v120h-20c-11.046 0-20 8.954-20 20s8.954 20 20 20h60v20c0 11.046 8.954 20 20 20s20-8.954 20-20v-20h20c33.084 0 60-26.916 60-60 0-15.355-5.805-29.376-15.327-40 9.522-10.624 15.327-24.645 15.327-40zm-40 0c0 11.028-8.972 20-20 20h-60v-40h60c11.028 0 20 8.972 20 20zm-20 100h-60v-40h60c11.028 0 20 8.972 20 20s-8.972 20-20 20z"/><g><path d="m428.872 320.056h-23.693c-11.046 0-20-8.954-20-20s8.954-20 20-20h23.693c21.434 0 39.777-14.425 42.669-33.555 2.254-14.901-3.396-29.177-15.111-38.187l-1.832-1.409c-18.799-14.459-18.637-36.736-18.568-46.249.035-4.761-.35-9.613-1.146-14.421-5.71-34.505-35.293-62.154-70.341-65.742-24.405-2.497-48.23 5.982-65.352 23.268-4.61 4.655-11.204 6.756-17.662 5.626-6.453-1.131-11.943-5.35-14.696-11.296-18.106-39.098-65.713-70.017-121.675-53.46-30.508 9.026-55.165 33.502-64.349 63.877-4.408 14.576-5.776 29.228-4.066 43.547 3.708 31.074-8.979 47.405-20.273 55.633-11.863 8.643-17.896 22.631-16.136 37.42 2.333 19.597 21.373 34.947 43.348 34.947h16.351c11.046 0 20 8.954 20 20s-8.954 20-20 20h-16.352c-19.813 0-39.146-6.828-54.438-19.226-16.102-13.054-26.269-31.164-28.628-50.994-3.441-28.917 8.936-57.455 32.302-74.478 3.86-2.812 5.242-9.057 4.107-18.563-2.367-19.832-.518-39.973 5.497-59.864 13.035-43.115 48.016-77.853 91.289-90.655 34.82-10.302 69.976-7.884 101.664 6.995 22.147 10.399 41.106 26.411 55.061 46.213 22.821-14.892 50.2-21.636 78.08-18.782 52.664 5.39 97.131 47.028 105.732 99.005 1.167 7.058 1.732 14.204 1.681 21.242-.076 10.557 1.538 13.16 2.953 14.249l1.832 1.409c23.071 17.744 34.672 46.818 30.278 75.876-5.824 38.523-41.17 67.574-82.219 67.574z"/></g></g></svg>