<svg id="Capa_1" enable-background="new 0 0 512 512" height="512" viewBox="0 0 512 512" width="512" xmlns="http://www.w3.org/2000/svg"><g id="Cloud_Computing"><g><path d="m390.143 285.858-120-120c-3.627-3.625-8.769-5.858-14.143-5.858h-80c-33.084 0-60 26.916-60 60v232c0 33.084 26.916 60 60 60h160c33.084 0 60-26.916 60-60v-152c0-5.092-2.033-10.317-5.857-14.142zm-114.143-57.574 51.716 51.716h-31.716c-11.028 0-20-8.972-20-20zm60 243.716h-160c-11.028 0-20-8.972-20-20v-232c0-11.028 8.972-20 20-20h60v60c0 33.084 26.916 60 60 60h60v132c0 11.028-8.972 20-20 20z"/><path d="m434.582 120.041c-9.717-67.776-68.161-120.041-138.582-120.041-37.595 0-73.192 15.267-99.55 42.302-6.892-1.531-13.733-2.302-20.45-2.302-48.302 0-88.715 34.423-97.996 80.024-43.192 1.064-78.004 36.532-78.004 79.976 0 33.849 21.434 64.167 53.335 75.443 10.413 3.679 21.841-1.778 25.521-12.192 3.682-10.415-1.777-21.841-12.191-25.522-15.949-5.637-26.665-20.799-26.665-37.729 0-22.056 17.944-40 40-40h16c11.046 0 20-8.954 20-20 0-33.084 26.916-60 60-60 6.486 0 13.102 1.249 20.226 3.818 8.019 2.892 16.988.385 22.345-6.246 19.286-23.878 47.508-37.572 77.429-37.572 55.141 0 100 44.86 100 100 0 11.046 8.954 20 20 20h16c22.056 0 40 17.944 40 40 0 19.665-14.632 36.672-34.034 39.561-10.926 1.626-18.463 11.802-16.837 22.727 1.628 10.932 11.812 18.465 22.728 16.836 18.786-2.797 36.022-12.263 48.534-26.654 12.645-14.545 19.609-33.179 19.609-52.47 0-43.248-34.497-78.591-77.418-79.959z"/></g><g><path d="m296 400h-80c-11.046 0-20-8.954-20-20s8.954-20 20-20h80c11.046 0 20 8.954 20 20s-8.954 20-20 20z"/></g></g></svg>