<svg id="Capa_1" enable-background="new 0 0 512 512" height="512" viewBox="0 0 512 512" width="512" xmlns="http://www.w3.org/2000/svg"><g id="Cloud_Computing"><path d="m276 395.44v-55.44c0-11.046-8.954-20-20-20s-20 8.954-20 20v55.44c-23.278 8.256-40 30.487-40 56.56 0 33.084 26.916 60 60 60s60-26.916 60-60c0-26.073-16.722-48.304-40-56.56zm-20 76.56c-11.028 0-20-8.972-20-20s8.972-20 20-20 20 8.972 20 20-8.972 20-20 20z"/><path d="m416 392c-9.251 0-18.019 2.108-25.852 5.863l-16.574-16.574c-11.333-11.332-17.574-26.399-17.574-42.426v-58.863h20c31.582 0 61.657-15.178 80.453-40.6 19.117-25.859 24.515-58.845 14.808-90.5-12.44-40.567-53.373-68.9-99.542-68.9-9.811 0-18.652-5.584-21.502-13.581-14.161-39.727-52.025-66.419-94.217-66.419s-80.056 26.692-94.218 66.421c-2.848 7.995-11.69 13.579-21.501 13.579-46.169 0-87.103 28.333-99.542 68.9-9.707 31.655-4.31 64.641 14.808 90.5 18.796 25.422 48.871 40.6 80.453 40.6h20v58.863c0 16.027-6.241 31.094-17.574 42.427l-16.574 16.574c-7.833-3.756-16.601-5.864-25.852-5.864-33.084 0-60 26.916-60 60s26.916 60 60 60 60-26.916 60-60c0-9.251-2.108-18.019-5.864-25.852l16.574-16.574c18.888-18.888 29.289-44 29.289-70.711v-58.863h120v58.863c0 26.711 10.401 51.823 29.289 70.711l16.574 16.574c-3.754 7.833-5.862 16.601-5.862 25.852 0 33.084 26.916 60 60 60s60-26.916 60-60-26.916-60-60-60zm-320 80c-11.028 0-20-8.972-20-20s8.972-20 20-20 20 8.972 20 20-8.972 20-20 20zm-8.289-256.379c-11.496-15.551-14.678-35.595-8.729-54.993 7.335-23.921 32.543-40.627 61.3-40.627 26.839 0 50.621-16.136 59.18-40.15 8.495-23.836 31.217-39.851 56.538-39.851s48.043 16.015 56.538 39.849c8.56 24.015 32.342 40.151 59.181 40.151 28.757 0 53.965 16.707 61.3 40.627 5.948 19.398 2.767 39.442-8.729 54.993-11.456 15.494-29.057 24.38-48.29 24.38h-240c-19.233 0-36.834-8.886-48.289-24.379zm328.289 256.379c-11.028 0-20-8.972-20-20s8.972-20 20-20 20 8.972 20 20-8.972 20-20 20z"/></g></svg>