<svg id="Capa_1" enable-background="new 0 0 512 512" height="512" viewBox="0 0 512 512" width="512" xmlns="http://www.w3.org/2000/svg"><g><path d="m92.017 357.596c10.829 2.202 21.383-4.792 23.583-15.616s-4.792-21.383-15.616-23.583c-35.879-7.291-59.984-38.797-59.984-78.397 0-77.411 68.203-80 76-80h20c11.046 0 20-8.954 20-20 0-55.14 44.859-100 100-100s100 44.86 100 100c0 11.046 8.954 20 20 20h20c43.327 0 76 34.393 76 80 0 48.792-27.751 71.888-59.964 78.401-10.826 2.189-17.828 12.74-15.64 23.567 1.919 9.489 10.261 16.04 19.583 16.04 10.195 0 96.021-18.25 96.021-118.008 0-67.29-50.953-120-116-120h-1.403c-9.548-67.431-67.405-120-138.597-120-71.156 0-129.043 52.532-138.597 120h-1.403c-45.498 0-116 29.132-116 120 0 57.352 36.49 106.311 92.017 117.596z"/><path d="m296 512c33.084 0 60-26.916 60-60v-160c0-33.084-26.916-60-60-60h-80c-33.084 0-60 26.916-60 60v160c0 33.084 26.916 60 60 60zm-100-160h120v40h-120zm20-80h80c11.028 0 20 8.972 20 20v20h-120v-20c0-11.028 8.972-20 20-20zm-20 180v-20h120v20c0 11.028-8.972 20-20 20h-80c-11.028 0-20-8.972-20-20z"/><circle cx="416" cy="412" r="20"/><circle cx="492" cy="412" r="20"/><circle cx="20" cy="412" r="20"/><circle cx="96" cy="412" r="20"/><circle cx="256" cy="180" r="20"/><circle cx="256" cy="100" r="20"/></g></svg>