<svg id="Capa_1" enable-background="new 0 0 512 512" height="512" viewBox="0 0 512 512" width="512" xmlns="http://www.w3.org/2000/svg"><g id="Cloud_Uploading"><g><path d="m485.207 149.804c-13.712-14.73-31.354-24.389-50.884-28.097-8.618-46.435-49.429-81.707-98.323-81.707-6.764 0-13.453.671-20.005 2.003-26.257-26.842-62.017-42.003-99.995-42.003-71.029 0-129.874 53.175-138.823 121.804-19.331 3.777-36.789 13.396-50.384 28-17.278 18.56-26.793 43.489-26.793 70.196 0 55.14 44.86 100 100 100h36c11.046 0 20-8.954 20-20s-8.954-20-20-20h-36c-33.084 0-60-26.916-60-60 0-34.206 24.075-60 56-60 11.046 0 20-8.954 20-20 0-55.14 44.86-100 100-100 30.324 0 58.673 13.537 77.777 37.139 5.329 6.583 14.228 9.097 22.212 6.273 6.404-2.264 13.136-3.412 20.011-3.412 33.084 0 60 26.916 60 60 0 11.046 8.954 20 20 20 31.925 0 56 25.794 56 60 0 33.084-26.916 60-60 60h-36c-11.046 0-20 8.954-20 20s8.954 20 20 20h36c55.14 0 100-44.86 100-100 0-26.707-9.515-51.636-26.793-70.196z"/><path d="m376 472h-20v-52c0-33.084-26.916-60-60-60h-80c-33.084 0-60 26.916-60 60v52h-20c-11.046 0-20 8.954-20 20s8.954 20 20 20h240c11.046 0 20-8.954 20-20s-8.954-20-20-20zm-180-52c0-11.028 8.972-20 20-20h80c11.028 0 20 8.972 20 20v52h-120z"/></g><g><path d="m216 320c-11.046 0-20-8.954-20-20v-40c0-11.028-8.972-20-20-20h-40c-11.046 0-20-8.954-20-20s8.954-20 20-20h40c33.084 0 60 26.916 60 60v40c0 11.046-8.954 20-20 20z"/></g><g><path d="m296 320c-11.046 0-20-8.954-20-20v-40c0-33.084 26.916-60 60-60h40c11.046 0 20 8.954 20 20s-8.954 20-20 20h-40c-11.028 0-20 8.972-20 20v40c0 11.046-8.954 20-20 20z"/></g></g></svg>