<svg id="Capa_1" enable-background="new 0 0 512 512" height="512" viewBox="0 0 512 512" width="512" xmlns="http://www.w3.org/2000/svg"><g><path d="m452 392c-26.073 0-48.303 16.722-56.56 40h-82.88c-6.036-17.018-19.541-30.524-36.56-36.56v-95.44c0-11.046-8.954-20-20-20s-20 8.954-20 20v95.44c-17.018 6.036-30.524 19.541-36.56 36.56h-78.88c-8.256-23.278-30.487-40-56.56-40-33.084 0-60 26.916-60 60s26.916 60 60 60c26.073 0 48.303-16.722 56.56-40h78.881c8.256 23.278 30.487 40 56.56 40s48.303-16.722 56.56-40h82.881c8.256 23.278 30.487 40 56.56 40 33.084 0 60-26.916 60-60s-26.918-60-60.002-60zm-388 80c-11.028 0-20-8.972-20-20s8.972-20 20-20 20 8.972 20 20-8.972 20-20 20zm192 0c-11.028 0-20-8.972-20-20s8.972-20 20-20 20 8.972 20 20-8.972 20-20 20zm196 0c-11.028 0-20-8.972-20-20s8.972-20 20-20 20 8.972 20 20-8.972 20-20 20z"/><path d="m433.996 160.024c-9.282-45.601-49.694-80.024-97.996-80.024-.612 0-1.221.008-1.824.023-28.176-48.738-80.193-80.023-138.176-80.023-88.224 0-160 71.776-160 160 0 3.725.197 7.36.519 10.896-23.903 14.241-36.519 40.494-36.519 69.104 0 44.252 31.819 80 76 80h100c11.046 0 20-8.954 20-20s-8.954-20-20-20h-100c-23.634 0-36-20.123-36-40 0-19.049 9.062-33.234 24.242-37.944 9.544-2.962 15.438-12.514 13.803-22.373-1.228-7.404-2.045-13.584-2.045-19.683 0-66.168 53.832-120 120-120 46.307 0 88.933 27.381 108.594 69.755 3.79 8.169 12.578 12.799 21.452 11.307 3.287-.552 6.768-1.062 9.954-1.062 33.084 0 60 26.916 60 60 0 11.046 8.954 20 20 20h16c22.056 0 40 17.944 40 40s-17.944 40-40 40h-96c-11.046 0-20 8.954-20 20s8.954 20 20 20h96c44.112 0 80-35.888 80-80 0-43.444-34.811-78.912-78.004-79.976z"/></g></svg>