<svg id="Capa_1" enable-background="new 0 0 512 512" height="512" viewBox="0 0 512 512" width="512" xmlns="http://www.w3.org/2000/svg"><g id="Cloud_Computing_1_"><path d="m310.143 374.426c-7.811-7.811-20.475-7.811-28.285 0l-5.858 5.858v-160.284c0-11.046-8.954-20-20-20s-20 8.954-20 20v160.284l-5.857-5.857c-7.811-7.811-20.475-7.811-28.285 0s-7.811 20.474 0 28.284l11.716 11.716c11.428 11.427 26.357 17.257 41.366 17.52.354.019.702.054 1.061.054s.707-.035 1.061-.054c15.009-.263 29.938-6.093 41.366-17.52l11.716-11.716c7.809-7.811 7.809-20.474-.001-28.285z"/><g><path d="m316 512h-120c-33.084 0-60-26.916-60-60 0-11.046 8.954-20 20-20s20 8.954 20 20c0 11.028 8.972 20 20 20h120c11.028 0 20-8.972 20-20 0-11.046 8.954-20 20-20s20 8.954 20 20c0 33.084-26.916 60-60 60z"/></g><g><path d="m432 280h-96c-11.046 0-20-8.954-20-20s8.954-20 20-20h96c22.056 0 40-17.944 40-40s-17.944-40-40-40h-16c-11.046 0-20-8.954-20-20 0-55.14-44.859-100-100-100-29.921 0-58.143 13.695-77.43 37.572-5.356 6.632-14.326 9.137-22.345 6.247-7.123-2.57-13.739-3.819-20.225-3.819-33.084 0-60 26.916-60 60 0 11.046-8.954 20-20 20h-16c-22.056 0-40 17.944-40 40s17.944 40 40 40h96c11.046 0 20 8.954 20 20s-8.954 20-20 20h-96c-44.112 0-80-35.888-80-80 0-43.444 34.812-78.912 78.004-79.975 9.281-45.602 49.694-80.025 97.996-80.025 6.717 0 13.558.771 20.45 2.302 26.358-27.035 61.955-42.302 99.55-42.302 70.421 0 128.865 52.265 138.582 120.041 42.921 1.368 77.418 36.711 77.418 79.959 0 44.112-35.888 80-80 80z"/></g></g></svg>