<svg id="Capa_1" enable-background="new 0 0 512 512" height="512" viewBox="0 0 512 512" width="512" xmlns="http://www.w3.org/2000/svg"><g><circle cx="412" cy="100" r="20"/><circle cx="332" cy="100" r="20"/><circle cx="412" cy="260" r="20"/><circle cx="332" cy="260" r="20"/><path d="m80 360h96c11.046 0 20-8.954 20-20s-8.954-20-20-20h-96c-22.056 0-40-17.944-40-40v-40c0-22.056 17.944-40 40-40h352c22.056 0 40 17.944 40 40v40c0 22.056-17.944 40-40 40h-96c-11.046 0-20 8.954-20 20s8.954 20 20 20h96c44.112 0 80-35.888 80-80v-40c0-23.877-10.528-45.329-27.169-60 16.641-14.671 27.169-36.123 27.169-60v-40c0-44.112-35.888-80-80-80h-352c-44.112 0-80 35.888-80 80v40c0 23.877 10.528 45.329 27.169 60-16.641 14.671-27.169 36.123-27.169 60v40c0 44.112 35.888 80 80 80zm-40-240v-40c0-22.056 17.944-40 40-40h352c22.056 0 40 17.944 40 40v40c0 22.056-17.944 40-40 40h-352c-22.056 0-40-17.944-40-40z"/><path d="m456 512c11.046 0 20-8.954 20-20v-80c0-11.046-8.954-20-20-20s-20 8.954-20 20v20h-160v-92c0-11.046-8.954-20-20-20s-20 8.954-20 20v92h-160v-20c0-11.046-8.954-20-20-20s-20 8.954-20 20v80c0 11.046 8.954 20 20 20s20-8.954 20-20v-20h360v20c0 11.046 8.954 20 20 20z"/><path d="m100 120h76c11.046 0 20-8.954 20-20s-8.954-20-20-20h-76c-11.046 0-20 8.954-20 20s8.954 20 20 20z"/><path d="m100 280h76c11.046 0 20-8.954 20-20s-8.954-20-20-20h-76c-11.046 0-20 8.954-20 20s8.954 20 20 20z"/></g></svg>