<svg id="Capa_1" enable-background="new 0 0 512 512" height="512" viewBox="0 0 512 512" width="512" xmlns="http://www.w3.org/2000/svg"><path d="m392 0h-272c-66.168 0-120 53.832-120 120v272c0 66.168 53.832 120 120 120h272c66.168 0 120-53.832 120-120v-272c0-66.168-53.832-120-120-120zm80 321h-369c-11.046 0-20 8.954-20 20s8.954 20 20 20h369v31c0 44.112-35.888 80-80 80h-272c-44.112 0-80-35.888-80-80v-272c0-44.112 35.888-80 80-80h272c44.112 0 80 35.888 80 80zm-82.011-232.319c-3.73-5.434-9.898-8.681-16.489-8.681s-12.759 3.247-16.489 8.681l-22.011 32.065-22.011-32.064c-3.73-5.435-9.898-8.682-16.489-8.682s-12.759 3.247-16.489 8.681l-22.011 32.065-22.011-32.064c-3.73-5.435-9.898-8.682-16.489-8.682s-12.759 3.247-16.489 8.681l-22.011 32.065-22.011-32.064c-3.73-5.435-9.898-8.682-16.489-8.682s-12.759 3.247-16.489 8.681c0 0-23.389 34.073-23.439 34.147-12.15 18.221-18.572 39.428-18.572 61.328v80.844c0 11.046 8.954 20 20 20s20-8.954 20-20v-51h37v51c0 11.046 8.954 20 20 20s20-8.954 20-20v-51h37v51c0 11.046 8.954 20 20 20s20-8.954 20-20v-51h37v51c0 11.046 8.954 20 20 20s20-8.954 20-20v-51h37v51c0 11.046 8.954 20 20 20s20-8.954 20-20v-80.844c0-21.9-6.422-43.106-18.572-61.327-.05-.075-23.439-34.148-23.439-34.148zm-265.26 85.319c1.488-10.286 5.235-20.118 11.052-28.874l6.718-9.787 6.718 9.787c5.817 8.756 9.564 18.588 11.052 28.874zm77 0c1.488-10.286 5.235-20.118 11.052-28.874l6.718-9.787 6.718 9.787c5.817 8.756 9.564 18.588 11.052 28.874zm77 0c1.488-10.286 5.235-20.118 11.052-28.874l6.718-9.787 6.718 9.787c5.817 8.756 9.564 18.588 11.052 28.874zm77 0c1.488-10.286 5.235-20.118 11.052-28.874l6.718-9.787 6.718 9.787c5.817 8.756 9.564 18.588 11.052 28.874z"/></svg>