<svg id="Capa_1" enable-background="new 0 0 512 512" height="512" viewBox="0 0 512 512" width="512" xmlns="http://www.w3.org/2000/svg"><g><g id="Credit_Card"><path d="m512 312c0-33.084-26.916-60-60-60h-20v-20c0-11.046-8.954-20-20-20s-20 8.954-20 20v20h-60c-11.046 0-20 8.954-20 20s8.954 20 20 20h20v120h-20c-11.046 0-20 8.954-20 20s8.954 20 20 20h60v20c0 11.046 8.954 20 20 20s20-8.954 20-20v-20h20c33.084 0 60-26.916 60-60 0-15.355-5.805-29.376-15.327-40 9.522-10.624 15.327-24.645 15.327-40zm-40 0c0 11.028-8.972 20-20 20h-60v-40h60c11.028 0 20 8.972 20 20zm-20 100h-60v-40h60c11.028 0 20 8.972 20 20s-8.972 20-20 20z"/><g><path d="m300 380h-220c-44.112 0-80-35.888-80-80v-200c0-44.112 35.888-80 80-80h352c44.112 0 80 35.888 80 80v70.703c0 11.046-8.954 20-20 20s-20-8.954-20-20v-70.703c0-22.056-17.944-40-40-40h-352c-22.056 0-40 17.944-40 40v200c0 22.056 17.944 40 40 40h220c11.046 0 20 8.954 20 20s-8.954 20-20 20z"/></g><g><path d="m412 140h-72c-11.046 0-20-8.954-20-20s8.954-20 20-20h72c11.046 0 20 8.954 20 20s-8.954 20-20 20z"/></g></g><g><path d="m180 300h-40c-33.084 0-60-26.916-60-60s26.916-60 60-60h40c33.084 0 60 26.916 60 60s-26.916 60-60 60zm-40-80c-11.028 0-20 8.972-20 20s8.972 20 20 20h40c11.028 0 20-8.972 20-20s-8.972-20-20-20z"/></g></g></svg>