<svg id="Capa_1" enable-background="new 0 0 512 512" height="512" viewBox="0 0 512 512" width="512" xmlns="http://www.w3.org/2000/svg"><g><path d="m336 376h40c11.046 0 20-8.954 20-20s-8.954-20-20-20h-40c-11.046 0-20 8.954-20 20s8.954 20 20 20z"/><path d="m452 56h-392c-33.084 0-60 26.916-60 60v280c0 33.084 26.916 60 60 60h392c33.084 0 60-26.916 60-60v-120c0-11.046-8.954-20-20-20s-20 8.954-20 20v120c0 11.028-8.972 20-20 20h-392c-11.028 0-20-8.972-20-20v-180h452c11.046 0 20-8.954 20-20v-80c0-33.084-26.916-60-60-60zm-412 60c0-11.028 8.972-20 20-20h392c11.028 0 20 8.972 20 20v60h-432z"/><path d="m100 336c-11.046 0-20 8.954-20 20s8.954 20 20 20h40c11.046 0 20-8.954 20-20s-8.954-20-20-20z"/><path d="m216 336c-11.046 0-20 8.954-20 20s8.954 20 20 20h40c11.046 0 20-8.954 20-20s-8.954-20-20-20z"/></g></svg>