<svg id="Capa_1" enable-background="new 0 0 512 512" height="512" viewBox="0 0 512 512" width="512" xmlns="http://www.w3.org/2000/svg"><g id="Credit_Card"><g><path d="m432 36h-352c-44.112 0-80 35.888-80 80v200c0 35.042 22.43 65.694 55.812 76.273 10.534 3.339 21.771-2.494 25.107-13.023 3.337-10.53-2.494-21.771-13.023-25.107-16.685-5.289-27.896-20.617-27.896-38.143v-200c0-22.056 17.944-40 40-40h352c22.056 0 40 17.944 40 40v200c0 17.675-11.832 33.469-28.773 38.409-10.604 3.092-16.694 14.195-13.603 24.799 2.547 8.736 10.528 14.408 19.191 14.407 1.853 0 3.738-.26 5.606-.805 33.902-9.884 57.579-41.47 57.579-76.81v-200c0-44.112-35.888-80-80-80z"/><path d="m372 376h-94.531c-8.904-34.466-40.26-60-77.469-60-44.112 0-80 35.888-80 80s35.888 80 80 80c37.209 0 68.565-25.534 77.469-60h38.531v20c0 11.046 8.954 20 20 20s20-8.954 20-20v-20h16c11.046 0 20-8.954 20-20s-8.954-20-20-20zm-172 60c-22.056 0-40-17.944-40-40s17.944-40 40-40 40 17.944 40 40-17.944 40-40 40z"/><path d="m432 136c0-11.046-8.954-20-20-20h-312c-11.046 0-20 8.954-20 20s8.954 20 20 20h312c11.046 0 20-8.954 20-20z"/><path d="m372 196h-76c-33.084 0-60 26.916-60 60s26.916 60 60 60h76c33.084 0 60-26.916 60-60s-26.916-60-60-60zm0 80h-76c-11.028 0-20-8.972-20-20s8.972-20 20-20h76c11.028 0 20 8.972 20 20s-8.972 20-20 20z"/></g><g><circle cx="96" cy="256" r="20"/></g><g><circle cx="176" cy="256" r="20"/></g></g></svg>