<svg id="Capa_1" enable-background="new 0 0 512 512" height="512" viewBox="0 0 512 512" width="512" xmlns="http://www.w3.org/2000/svg"><g id="Credit_Card"><path d="m452 36h-312c-33.084 0-60 26.916-60 60 0 11.046 8.954 20 20 20s20-8.954 20-20c0-11.028 8.972-20 20-20h312c11.028 0 20 8.972 20 20v200c0 11.028-8.972 20-20 20h-20v-100c0-33.084-26.916-60-60-60h-312c-33.084 0-60 26.916-60 60v200c0 33.084 26.916 60 60 60h312c33.084 0 60-26.916 60-60v-60h20c33.084 0 60-26.916 60-60v-200c0-33.084-26.916-60-60-60zm-60 380c0 11.028-8.972 20-20 20h-312c-11.028 0-20-8.972-20-20v-200c0-11.028 8.972-20 20-20h312c11.028 0 20 8.972 20 20v20h-292c-11.046 0-20 8.954-20 20s8.954 20 20 20h292z"/><g><path d="m332 396h-80c-11.046 0-20-8.954-20-20s8.954-20 20-20h80c11.046 0 20 8.954 20 20s-8.954 20-20 20z"/></g></g></svg>