<svg id="Capa_1" enable-background="new 0 0 512 512" height="512" viewBox="0 0 512 512" width="512" xmlns="http://www.w3.org/2000/svg"><g id="Cross"><g><path d="m412 392c-33.084 0-60-26.916-60-60s26.916-60 60-60 60 26.916 60 60-26.916 60-60 60zm0-80c-11.028 0-20 8.972-20 20s8.972 20 20 20 20-8.972 20-20-8.972-20-20-20z"/></g><g><path d="m472 512h-120c-22.056 0-40-17.944-40-40 0-44.112 35.888-80 80-80h40c44.112 0 80 35.888 80 80 0 22.056-17.944 40-40 40zm-80-80c-22.056 0-40 17.944-40 40h120c.018 0 .025-.001.025-.001-.025-22.055-17.969-39.999-40.025-39.999z"/></g><g><path d="m160 60c0-33.084-26.916-60-60-60s-60 26.916-60 60 26.916 60 60 60 60-26.916 60-60zm-60 20c-11.028 0-20-8.972-20-20s8.972-20 20-20 20 8.972 20 20-8.972 20-20 20z"/><path d="m472 60c0-33.084-26.916-60-60-60s-60 26.916-60 60 26.916 60 60 60 60-26.916 60-60zm-60 20c-11.028 0-20-8.972-20-20s8.972-20 20-20 20 8.972 20 20-8.972 20-20 20z"/><path d="m432 120h-20-20c-44.112 0-80 35.888-80 80 0 22.056 17.944 40 40 40h120c22.056 0 40-17.944 40-40 0-44.112-35.888-80-80-80zm40 80h-120c0-22.056 17.944-40 40-40h40c22.056 0 40 17.944 40.025 39.999 0 0-.007.001-.025.001z"/><path d="m160 332c0-33.084-26.916-60-60-60s-60 26.916-60 60 26.916 60 60 60 60-26.916 60-60zm-60 20c-11.028 0-20-8.972-20-20s8.972-20 20-20 20 8.972 20 20-8.972 20-20 20z"/><path d="m120 392h-20-20c-44.112 0-80 35.888-80 80 0 22.056 17.944 40 40 40h120c22.056 0 40-17.944 40-40 0-44.112-35.888-80-80-80zm40 80h-120c0-22.056 17.944-40 40-40h40c22.056 0 40 17.944 40.025 39.999 0 0-.007.001-.025.001z"/><path d="m296 256c-11.046 0-20 8.954-20 20v11.715l-77.365-77.365c.885-3.303 1.365-6.771 1.365-10.35 0-44.112-35.888-80-80-80h-20-20c-44.112 0-80 35.888-80 80 0 22.056 17.944 40 40 40h120c3.579 0 7.047-.48 10.35-1.365l77.366 77.365h-11.716c-11.046 0-20 8.954-20 20s8.954 20 20 20h60c11.046 0 20-8.954 20-20v-60c0-11.046-8.954-20-20-20zm-216-96h40c22.049 0 39.988 17.932 40.025 39.978-.008.008-.017.014-.025.022h-120c0-22.056 17.944-40 40-40z"/></g></g></svg>