<svg id="Capa_1" enable-background="new 0 0 512 512" height="512" viewBox="0 0 512 512" width="512" xmlns="http://www.w3.org/2000/svg"><g><path d="m216 392c11.046 0 20-8.954 20-20v-112c0-11.046-8.954-20-20-20s-20 8.954-20 20v112c0 11.046 8.954 20 20 20z"/><path d="m296 240c-11.046 0-20 8.954-20 20v112c0 11.046 8.954 20 20 20s20-8.954 20-20v-112c0-11.046-8.954-20-20-20z"/><path d="m196 60c0-11.028 8.972-20 20-20h80c11.028 0 20 8.972 20 20 0 11.046 8.954 20 20 20s20-8.954 20-20c0-33.084-26.916-60-60-60h-80c-33.084 0-60 26.916-60 60 0 11.046 8.954 20 20 20s20-8.954 20-20z"/><path d="m56 120c-11.046 0-20 8.954-20 20s8.954 20 20 20h22.382l38.075 299.435c3.717 29.967 29.315 52.565 59.543 52.565h160c30.229 0 55.826-22.598 59.534-52.504l38.083-299.496h22.383c11.046 0 20-8.954 20-20s-8.954-20-20-20zm337.296 40-37.449 294.512c-1.237 9.97-9.769 17.488-19.847 17.488h-160c-10.078 0-18.61-7.519-19.855-17.55l-37.441-294.45z"/></g></svg>