<svg id="Capa_1" enable-background="new 0 0 512 512" height="512" viewBox="0 0 512 512" width="512" xmlns="http://www.w3.org/2000/svg"><path d="m392 108h-272c-66.168 0-120 53.832-120 120v164c0 66.168 53.832 120 120 120h272c66.168 0 120-53.832 120-120v-164c0-66.168-53.832-120-120-120zm80 284c0 44.112-35.888 80-80 80h-272c-44.112 0-80-35.888-80-80v-164c0-44.112 35.888-80 80-80h272c44.112 0 80 35.888 80 80zm-160-332c0-33.084 26.916-60 60-60s60 26.916 60 60c0 11.046-8.954 20-20 20s-20-8.954-20-20c0-11.028-8.972-20-20-20s-20 8.972-20 20c0 11.046-8.954 20-20 20s-20-8.954-20-20zm-230 0c0-33.084 26.916-60 60-60s60 26.916 60 60c0 11.046-8.954 20-20 20s-20-8.954-20-20c0-11.028-8.972-20-20-20s-20 8.972-20 20c0 11.046-8.954 20-20 20s-20-8.954-20-20zm242.143 210.142-39.859 39.858 39.858 39.858c7.81 7.811 7.81 20.474 0 28.284-3.905 3.905-9.024 5.858-14.142 5.858s-10.237-1.953-14.143-5.858l-39.857-39.858-39.857 39.858c-7.811 7.811-20.475 7.811-28.285 0s-7.81-20.474 0-28.284l39.858-39.858-39.858-39.858c-7.81-7.811-7.81-20.474 0-28.284 7.811-7.811 20.475-7.811 28.285 0l39.857 39.858 39.857-39.858c7.811-7.811 20.475-7.811 28.285 0 7.81 7.81 7.81 20.474.001 28.284z"/></svg>