<svg id="Capa_1" enable-background="new 0 0 512.001 512.001" height="512" viewBox="0 0 512.001 512.001" width="512" xmlns="http://www.w3.org/2000/svg"><g><path d="m452.001 40.001h-33.334l5.333-4c8.837-6.627 10.629-19.163 4.001-28-6.626-8.836-19.163-10.628-27.999-4.001l-31.989 23.99c-21.314 15.985-21.313 48.037.001 64.021l31.988 23.99c8.836 6.627 21.373 4.835 27.999-4.001 6.628-8.837 4.836-21.373-4.001-28l-5.329-4h33.33c11.028 0 20 8.972 20 20v116c0 11.028-8.972 20-20 20h-40c-11.046 0-20 8.954-20 20s8.954 20 20 20h40c33.084 0 60-26.916 60-60v-116c0-33.083-26.916-59.999-60-59.999z"/><path d="m93.335 472.001-5.333 4c-8.837 6.627-10.629 19.163-4.001 28 6.625 8.835 19.165 10.627 27.999 4.001l31.989-23.99c10.026-7.52 16.012-19.486 16.012-32.01s-5.985-24.491-16.013-32.011l-31.988-23.99c-8.836-6.627-21.372-4.836-27.999 4.001-6.628 8.837-4.836 21.373 4.001 28l5.329 4h-33.33c-11.028 0-20-8.972-20-20v-116c0-11.028 8.972-20 20-20h40c11.046 0 20-8.954 20-20s-8.954-20-20-20h-40c-33.084 0-60 26.916-60 60v116c0 33.084 26.916 60 60 60h33.334z"/><path d="m216.001 40.001h88.408c11.046 0 20-8.954 20-20s-8.954-20-20-20h-88.408c-33.084 0-60 26.916-60 60s26.916 60 60 60h88.412c11.046 0 20-8.954 20-20s-8.954-20-20-20h-88.412c-11.028 0-20-8.972-20-20s8.971-20 20-20z"/><path d="m216.001 356.001h80c33.084 0 60-26.916 60-60v-80c0-33.084-26.916-60-60-60h-80c-33.084 0-60 26.916-60 60v80c0 33.084 26.916 60 60 60zm-20-140c0-11.028 8.972-20 20-20h80c11.028 0 20 8.972 20 20v80c0 11.028-8.972 20-20 20h-80c-11.028 0-20-8.972-20-20z"/><path d="m296.001 472.001h-80c-1.369 0-2.732-.137-4.051-.406-10.82-2.212-21.389 4.766-23.602 15.587-2.213 10.822 4.766 21.388 15.588 23.602 3.949.808 8.009 1.217 12.064 1.217h80c33.084 0 60-26.916 60-60s-26.916-60-60-60h-80c-4.058 0-8.118.41-12.069 1.219-10.822 2.214-17.8 12.782-15.585 23.603 2.214 10.821 12.786 17.799 23.603 15.585 1.318-.27 2.682-.406 4.052-.406h80c11.028 0 20 8.972 20 20s-8.972 19.999-20 19.999z"/></g></svg>