<svg id="Capa_1" enable-background="new 0 0 512 512" height="512" viewBox="0 0 512 512" width="512" xmlns="http://www.w3.org/2000/svg"><g id="Dislike_1_"><g><path d="m333.688 273.191c-10.237-20.473-30.808-33.191-53.688-33.191h-220c-33.084 0-60 26.916-60 60v40c0 33.084 26.916 60 60 60h60c22.056 0 40 17.944 40 40v52c0 11.046 8.954 20 20 20h40c33.084 0 60-26.916 60-60v-32c0-11.028 8.972-20 20-20 33.084 0 60-26.916 60-60 0-9.279-2.183-18.549-6.312-26.809zm-293.688 66.809v-40c0-11.028 8.972-20 20-20h20v80h-20c-11.028 0-20-8.972-20-20zm260 20c-33.084 0-60 26.916-60 60v32c0 11.028-8.972 20-20 20h-20v-32c0-44.112-35.888-80-80-80v-80h160c7.631 0 14.493 4.245 17.91 11.08l20 40c1.387 2.773 2.09 5.774 2.09 8.92 0 11.028-8.972 20-20 20z"/><path d="m452 80v-20c0-33.084-26.916-60-60-60h-40c-33.084 0-60 26.916-60 60v20c-33.084 0-60 26.916-60 60v40c0 11.046 8.954 20 20 20s20-8.954 20-20v-40c0-11.028 8.972-20 20-20h60v20c0 11.046 8.954 20 20 20s20-8.954 20-20v-20h60c11.028 0 20 8.972 20 20v80c0 11.028-8.972 20-20 20h-57.826c-11.046 0-20 8.954-20 20s8.954 20 20 20h57.826c33.084 0 60-26.916 60-60v-80c0-33.084-26.916-60-60-60zm-120-20c0-11.028 8.972-20 20-20h40c11.028 0 20 8.972 20 20v20h-80z"/></g><path d="m160.285 140 25.858-25.858c7.811-7.811 7.811-20.474 0-28.284s-20.475-7.811-28.285 0l-25.858 25.857-25.857-25.857c-7.811-7.811-20.475-7.811-28.285 0s-7.811 20.474 0 28.284l25.857 25.858-25.858 25.858c-7.811 7.811-7.811 20.474 0 28.284 7.81 7.81 20.475 7.81 28.285 0l25.858-25.857 25.857 25.857c7.81 7.81 20.475 7.81 28.285 0 7.811-7.811 7.811-20.474 0-28.284z"/></g></svg>