<svg id="Capa_1" enable-background="new 0 0 512 512" height="512" viewBox="0 0 512 512" width="512" xmlns="http://www.w3.org/2000/svg"><g id="Double_Arrow"><g><path d="m432 240c-11.046 0-20-8.954-20-20v-40c0-11.046 8.954-20 20-20h20c11.028 0 20-8.972 20-20 0-7.003-.894-8.825-32.127-49.869-8.451-11.106-18.97-24.928-31.873-42.133-3.812-5.082-9.645-7.998-16-7.998s-12.188 2.916-16 7.999c-12.856 17.141-23.332 30.937-31.749 42.021-32.251 42.471-32.251 42.895-32.251 49.98 0 11.028 8.972 20 20 20h20c11.046 0 20 8.954 20 20v40c0 11.046-8.954 20-20 20s-20-8.954-20-20v-20c-33.084 0-60-26.916-60-60 0-20.975 4.6-27.032 40.395-74.17 8.385-11.042 18.821-24.785 31.605-41.831 11.271-15.028 29.215-23.999 48-23.999s36.729 8.971 48 23.998c12.82 17.094 23.291 30.854 31.705 41.91 16.875 22.176 26.171 34.392 31.694 43.661 7.163 12.017 8.601 20.553 8.601 30.431 0 33.084-26.916 60-60 60v20c0 11.046-8.954 20-20 20z"/></g><g><path d="m256 512c-109.961 0-196-88.952-196-200v-112c-33.084 0-60-26.916-60-60 0-9.877 1.438-18.414 8.601-30.431 5.523-9.27 14.819-21.485 31.694-43.661 8.414-11.056 18.885-24.816 31.705-41.909 11.271-15.028 29.215-23.999 48-23.999s36.729 8.971 48 23.998c12.784 17.046 23.221 30.789 31.605 41.832 35.796 47.138 40.395 53.195 40.395 74.17 0 33.084-26.916 60-60 60v112c0 45.607 32.673 80 76 80s76-34.393 76-80v-20c0-11.046 8.954-20 20-20s20 8.954 20 20v20c0 67.29-50.953 120-116 120s-116-52.71-116-120v-132c0-11.046 8.954-20 20-20h20c11.028 0 20-8.972 20-20 0-7.085 0-7.509-32.251-49.979-8.417-11.085-18.893-24.881-31.749-42.022-3.812-5.083-9.645-7.999-16-7.999s-12.188 2.916-16 7.999c-12.903 17.205-23.422 31.026-31.873 42.132-31.233 41.044-32.127 42.866-32.127 49.869 0 11.028 8.972 20 20 20h20c11.046 0 20 8.954 20 20v132c0 89.72 68.523 160 156 160s156-70.28 156-160v-20c0-11.046 8.954-20 20-20s20 8.954 20 20v20c0 110.849-85.819 200-196 200z"/></g></g></svg>