<svg id="Capa_1" enable-background="new 0 0 512 512" height="512" viewBox="0 0 512 512" width="512" xmlns="http://www.w3.org/2000/svg"><g id="Download_pdf"><g><path d="m332 236h-30c-11.046 0-20 8.954-20 20v120c0 11.046 8.954 20 20 20h30c33.084 0 60-26.916 60-60v-40c0-33.084-26.916-60-60-60zm20 100c0 11.028-8.972 20-20 20h-10v-80h10c11.028 0 20 8.972 20 20z"/><path d="m492 236h-60c-11.046 0-20 8.954-20 20v120c0 11.046 8.954 20 20 20s20-8.954 20-20v-40h20c11.046 0 20-8.954 20-20s-8.954-20-20-20h-20v-20h40c11.046 0 20-8.954 20-20s-8.954-20-20-20z"/><path d="m212 236h-40c-11.046 0-20 8.954-20 20v120c0 11.046 8.954 20 20 20s20-8.954 20-20v-40h20c27.57 0 50-22.43 50-50s-22.43-50-50-50zm0 60h-20v-20h20c5.514 0 10 4.486 10 10s-4.486 10-10 10z"/></g><g><path d="m180 76c-11.046 0-20 8.954-20 20v31.716l-5.858-5.858c-7.811-7.811-20.474-7.811-28.284 0s-7.811 20.474 0 28.284l39.997 39.998c3.552 3.551 8.714 5.86 14.145 5.86 5.076 0 10.302-2.019 14.145-5.86l39.997-39.998c7.811-7.811 7.811-20.474 0-28.284s-20.474-7.811-28.284 0l-5.858 5.858v-31.716c0-11.046-8.954-20-20-20z"/><path d="m342.426 57.574-40-40c-11.333-11.333-26.4-17.574-42.426-17.574h-200c-33.084 0-60 26.916-60 60v392c0 33.084 26.916 60 60 60h229.774c33.084 0 60-26.913 60-60 0-11.046-8.954-19.997-20-19.997s-20 8.957-20 20.003c0 11.025-8.972 19.994-20 19.994h-229.774c-11.028 0-20-8.972-20-20v-392c0-11.028 8.972-20 20-20h200c5.342 0 10.364 2.081 14.142 5.858l40 40c3.777 3.778 5.858 8.8 5.858 14.142v74.179c0 11.046 8.954 20 20 20s20-8.954 20-20v-74.179c0-16.026-6.241-31.093-17.574-42.426z"/></g></g></svg>