<svg id="Capa_1" enable-background="new 0 0 512 512" height="512" viewBox="0 0 512 512" width="512" xmlns="http://www.w3.org/2000/svg"><g><path d="m136 392c-11.046 0-20 8.954-20 20v40c0 33.084 26.916 60 60 60h160c33.084 0 60-26.916 60-60v-40c0-11.046-8.954-20-20-20s-20 8.954-20 20v40c0 11.028-8.972 20-20 20h-160c-11.028 0-20-8.972-20-20v-40c0-11.046-8.954-20-20-20z"/><path d="m96 320h80c11.046 0 20-8.954 20-20s-8.954-20-20-20h-80c-31.925 0-56-25.794-56-60 0-27.888 14.5-49.81 37.842-57.209 20.383-6.461 35.896-23.459 40.485-44.359 9.982-45.447 51.059-78.432 97.673-78.432 24.233 0 47.667 9.059 65.984 25.506 12.961 11.639 30.301 17.072 47.574 14.902 2.161-.27 4.328-.408 6.442-.408 26.21 0 49.825 17.494 57.427 42.541 5.838 19.237 20.798 34.201 40.018 40.029 23.782 7.211 38.555 29.217 38.555 57.43 0 34.206-24.075 60-56 60h-80c-11.046 0-20 8.954-20 20s8.954 20 20 20h80c55.244 0 96-44.756 96-100 0-45.81-26.279-83.377-66.949-95.709-6.408-1.943-11.398-6.939-13.349-13.366-12.43-40.962-50.491-70.925-95.702-70.925-3.773 0-7.617.242-11.423.72-5.761.722-11.541-1.091-15.867-4.975-25.67-23.051-58.595-35.745-92.71-35.745-66.817 0-122.924 46.933-136.741 109.852-1.533 6.98-6.708 12.654-13.505 14.809-39.944 12.663-65.754 50.086-65.754 95.339 0 55.245 40.755 100 96 100z"/><path d="m310.147 355.858c-7.811-7.811-20.475-7.811-28.285 0l-5.857 5.857v-191.715c0-11.046-8.954-20-20-20s-20 8.954-20 20v191.715l-5.857-5.857c-7.811-7.811-20.475-7.811-28.285 0s-7.811 20.474 0 28.284l40 40c3.905 3.905 9.024 5.858 14.143 5.858s10.237-1.953 14.143-5.858l40-40c7.809-7.81 7.809-20.474-.002-28.284z"/></g></svg>