<svg id="Capa_1" enable-background="new 0 0 512 512" height="512" viewBox="0 0 512 512" width="512" xmlns="http://www.w3.org/2000/svg"><g id="Download"><g><path d="m256 432c-16.178 0-31.286-6.2-42.543-17.458l-120-120c-11.257-11.256-17.457-26.365-17.457-42.542 0-33.084 26.916-60 60-60h20v-132c0-33.084 26.916-60 60-60h80c33.084 0 60 26.916 60 60v132h20c33.084 0 60 26.916 60 60 0 16.177-6.199 31.285-17.456 42.542l-120 120c-11.259 11.259-26.367 17.458-42.544 17.458zm-120-200c-11.028 0-20 8.972-20 20 0 5.492 2.039 10.556 5.741 14.258l120.001 120c3.702 3.703 8.766 5.742 14.258 5.742s10.557-2.039 14.26-5.742l119.999-120c3.702-3.701 5.741-8.765 5.741-14.258 0-11.028-8.972-20-20-20h-40c-11.046 0-20-8.954-20-20v-152c0-11.028-8.972-20-20-20h-80c-11.028 0-20 8.972-20 20v152c0 11.046-8.954 20-20 20z"/></g><g><path d="m416 512h-320c-33.084 0-60-26.916-60-60v-40c0-11.046 8.954-20 20-20s20 8.954 20 20v40c0 11.028 8.972 20 20 20h320c11.028 0 20-8.972 20-20v-40c0-11.046 8.954-20 20-20s20 8.954 20 20v40c0 33.084-26.916 60-60 60z"/></g></g></svg>