<svg id="Capa_1" enable-background="new 0 0 512 512" height="512" viewBox="0 0 512 512" width="512" xmlns="http://www.w3.org/2000/svg"><g id="Dumbbells"><path d="m492 312h-20v-20c0-33.084-26.916-60-60-60s-60 26.916-60 60v20h-76v-192h40v20c0 33.084 26.916 60 60 60s60-26.916 60-60v-20h20c11.046 0 20-8.954 20-20s-8.954-20-20-20h-20v-20c0-33.084-26.916-60-60-60s-60 26.916-60 60v20h-40v-20c0-11.046-8.954-20-20-20s-20 8.954-20 20v20h-40v-20c0-33.084-26.916-60-60-60s-60 26.916-60 60v20h-20c-11.046 0-20 8.954-20 20s8.954 20 20 20h20v20c0 33.084 26.916 60 60 60s60-26.916 60-60v-20h40v192h-76v-20c0-33.084-26.916-60-60-60s-60 26.916-60 60v20h-20c-11.046 0-20 8.954-20 20s8.954 20 20 20h20v20c0 33.084 26.916 60 60 60s60-26.916 60-60v-20h76v60c0 11.046 8.954 20 20 20s20-8.954 20-20v-60h76v20c0 33.084 26.916 60 60 60s60-26.916 60-60v-20h20c11.046 0 20-8.954 20-20s-8.954-20-20-20zm-136-252c0-11.028 8.972-20 20-20s20 8.972 20 20v80c0 11.028-8.972 20-20 20s-20-8.972-20-20zm-200 80c0 11.028-8.972 20-20 20s-20-8.972-20-20v-80c0-11.028 8.972-20 20-20s20 8.972 20 20zm-36 232c0 11.028-8.972 20-20 20s-20-8.972-20-20v-80c0-11.028 8.972-20 20-20s20 8.972 20 20zm312 0c0 11.028-8.972 20-20 20s-20-8.972-20-20v-80c0-11.028 8.972-20 20-20s20 8.972 20 20z"/><g><path d="m336 512h-160c-11.046 0-20-8.954-20-20s8.954-20 20-20h160c11.046 0 20 8.954 20 20s-8.954 20-20 20z"/></g></g></svg>