<svg id="Capa_1" enable-background="new 0 0 512 512" height="512" viewBox="0 0 512 512" width="512" xmlns="http://www.w3.org/2000/svg"><path d="m303 207c11.046 0 20 8.954 20 20s-8.954 20-20 20-20-8.954-20-20 8.954-20 20-20zm66 20c0 11.046 8.954 20 20 20s20-8.954 20-20-8.954-20-20-20-20 8.954-20 20zm-163 245h-86c-44.112 0-80-35.888-80-80v-164c0-44.112 35.888-80 80-80h272c42.775 0 77.926 33.376 80.024 75.983.543 11.033 9.941 19.535 20.959 18.992 11.033-.543 19.536-9.927 18.992-20.959-3.147-63.934-55.847-114.016-119.975-114.016h-272c-66.168 0-120 53.832-120 120v164c0 66.168 53.832 120 120 120h86c11.046 0 20-8.954 20-20s-8.954-20-20-20zm-75-178c-11.046 0-20 8.954-20 20s8.954 20 20 20 20-8.954 20-20-8.954-20-20-20zm0 86c-11.046 0-20 8.954-20 20s8.954 20 20 20 20-8.954 20-20-8.954-20-20-20zm86 0c-11.046 0-20 8.954-20 20s8.954 20 20 20 20-8.954 20-20-8.954-20-20-20zm0-173c-11.046 0-20 8.954-20 20s8.954 20 20 20 20-8.954 20-20-8.954-20-20-20zm0 87c-11.046 0-20 8.954-20 20s8.954 20 20 20 20-8.954 20-20-8.954-20-20-20zm-86-87c-11.046 0-20 8.954-20 20s8.954 20 20 20 20-8.954 20-20-8.954-20-20-20zm201-127c11.046 0 20-8.954 20-20 0-11.028 8.972-20 20-20s20 8.972 20 20c0 11.046 8.955 20 20 20 11.046 0 20-8.954 20-20 0-33.084-26.916-60-60-60s-60 26.916-60 60c0 11.046 8.955 20 20 20zm158.619 207.382c28.461 28.462 28.461 74.774 0 103.236l-70.11 70.11c-20.263 20.263-45.826 33.941-73.926 39.558l-56.663 11.326c-1.304.261-2.617.388-3.92.388-5.251 0-10.354-2.07-14.142-5.857-4.728-4.729-6.78-11.506-5.47-18.062l11.326-56.664c5.617-28.1 19.296-53.662 39.558-73.925l70.11-70.11c13.787-13.789 32.119-21.382 51.618-21.382s37.831 7.593 51.619 21.382zm-28.285 28.283c-6.232-6.232-14.52-9.665-23.334-9.665s-17.102 3.433-23.334 9.665l-70.109 70.11c-14.659 14.659-24.555 33.152-28.619 53.48l-5.447 27.253 27.253-5.447c20.329-4.062 38.822-13.958 53.481-28.617l70.11-70.11c12.866-12.866 12.866-33.802-.001-46.669zm-360.334-235.665c11.046 0 20-8.954 20-20 0-11.028 8.972-20 20-20s20 8.972 20 20c0 11.046 8.955 20 20 20 11.046 0 20-8.954 20-20 0-33.084-26.916-60-60-60s-60 26.916-60 60c0 11.046 8.955 20 20 20z"/></svg>