<svg id="Capa_1" enable-background="new 0 0 512 512" height="512" viewBox="0 0 512 512" width="512" xmlns="http://www.w3.org/2000/svg"><g id="Edit_Image"><g><path d="m205.97 432h-105.956c-33.084 0-60-26.916-60-60v-272c0-33.084 26.916-60 60-60h272c33.084 0 60 26.916 60 60v109.09c0 11.046 8.954 20 20 20s20-8.954 20-20v-109.09c0-55.14-44.859-100-100-100h-272c-55.141 0-100 44.86-100 100v272c0 55.14 44.859 100 100 100h105.956c11.046 0 20-8.954 20-20s-8.954-20-20-20z"/><path d="m494.441 279.868c-23.396-23.394-61.459-23.394-84.854 0l-101.422 101.422c-29.571 29.572-45.857 68.89-45.857 110.71 0 11.046 8.954 20 20 20 41.821 0 81.139-16.286 110.712-45.858l101.421-101.421c23.393-23.394 23.393-61.459 0-84.853zm-28.285 28.284c7.799 7.798 7.799 20.486 0 28.284l-14.142 14.142-28.284-28.284 14.142-14.142c7.798-7.798 20.487-7.798 28.284 0zm-101.42 129.706c-16.721 16.719-37.626 27.735-60.354 32.068 4.333-22.727 15.349-43.632 32.068-60.352l58.995-58.995 28.284 28.284z"/><path d="m137.587 194.142-51.716 51.716c-7.81 7.811-7.81 20.474 0 28.284 7.811 7.811 20.475 7.811 28.285 0l51.715-51.715c7.798-7.798 20.486-7.798 28.284 0l102.019 102.019c7.81 7.81 20.474 7.811 28.285 0 7.81-7.811 7.81-20.474 0-28.284l-102.019-102.02c-23.393-23.393-61.458-23.393-84.853 0z"/></g><g><path d="m332.014 200c-33.084 0-60-26.916-60-60s26.916-60 60-60 60 26.916 60 60-26.916 60-60 60zm0-80c-11.028 0-20 8.972-20 20s8.972 20 20 20 20-8.972 20-20-8.972-20-20-20z"/></g></g></svg>