<svg id="Capa_1" enable-background="new 0 0 512 512" height="512" viewBox="0 0 512 512" width="512" xmlns="http://www.w3.org/2000/svg"><g><path d="m492 156c11.046 0 20-8.954 20-20s-8.954-20-20-20h-96v-96c0-11.046-8.954-20-20-20s-20 8.954-20 20v472c0 11.046 8.954 20 20 20s20-8.954 20-20v-96h96c11.046 0 20-8.954 20-20s-8.954-20-20-20h-96v-200z"/><path d="m20 356c-11.046 0-20 8.954-20 20s8.954 20 20 20h100v96c0 11.046 8.954 20 20 20s20-8.954 20-20v-96h136c11.046 0 20-8.954 20-20s-8.954-20-20-20h-136v-200h136c11.046 0 20-8.954 20-20s-8.954-20-20-20h-136v-96c0-11.046-8.954-20-20-20s-20 8.954-20 20v96h-100c-11.046 0-20 8.954-20 20s8.954 20 20 20h100v200z"/></g></svg>