<svg id="Capa_1" enable-background="new 0 0 512.057 512.057" height="512" viewBox="0 0 512.057 512.057" width="512" xmlns="http://www.w3.org/2000/svg"><path d="m.029 167.057c0 .134-.003-.134 0 0zm94.38-20.111c-7.303-7.155-16.299-6.967-19.683-6.899-4.436 0-18.843 1.579-23.698 20.112-4.854-18.533-19.03-20.107-23.466-20.107-3.382-.065-12.61-.261-19.915 6.895-5.056 4.952-7.619 11.719-7.619 20.111.458 22.89 21.001 47.205 33.494 56.639 2.806 2.149 8.486 6.152 17.506 6.359 9.02-.207 14.701-4.209 17.506-6.359 12.494-9.435 33.035-33.75 33.494-56.639.001-8.393-2.563-15.16-7.619-20.112zm-43.38 83.109c-.153.002.152.002 0 0zm51-62.998c0 .134.002-.134 0 0zm308-140c-.003-.134 0 .134 0 0zm94.38-20.111c-7.303-7.155-16.299-6.967-19.683-6.899-4.436 0-18.843 1.579-23.698 20.112-4.854-18.533-19.03-20.107-23.466-20.107-3.382-.065-12.61-.261-19.915 6.895-5.056 4.952-7.619 11.719-7.619 20.111.458 22.89 21.001 47.205 33.494 56.639 2.806 2.149 8.486 6.152 17.506 6.359 9.02-.207 14.701-4.209 17.506-6.359 12.494-9.435 33.035-33.75 33.494-56.639.001-8.393-2.563-15.16-7.619-20.112zm-43.38 83.109c-.153.002.152.002 0 0zm51-62.998c0 .134.002-.134 0 0zm-40.573 277.641c3.562 14.94 1.091 30.374-6.956 43.456l-64.735 106.313c-10.685 17.548-25.8 32.143-43.711 42.206-17.911 10.064-38.237 15.384-58.782 15.384h-145.388c-32.101 0-61.443-14.817-80.502-40.654-19.038-25.807-24.532-58.171-15.071-88.796 9.317-30.161 22.446-59.194 39.021-86.293.052-.085 58.206-92.771 58.341-93.292 10.793-36.652-.055-80.58-8.29-126.624-8.956-32.64 7.643-65.364 40.772-73.926 16.559-4.503 32.635-2.48 46.486 5.856 10.486 6.311 19.392 15.999 26.542 28.856l4.106-6.493c7.818-14.405 20.352-24.585 35.381-28.707 14.934-4.097 30.555-1.807 43.978 6.448 27.007 16.611 35.464 52.097 18.854 79.102-.02.03-.038.061-.057.091l-43.613 70.068c5.583 1.418 10.979 3.692 16.025 6.797 14.879 9.073 24.793 24.576 26.941 41.857 10.302-.018 20.73 2.725 30.132 8.507 13.083 8.046 22.249 20.705 25.811 35.646.796 3.342 1.291 6.709 1.489 10.068 9.607.439 18.999 3.308 27.417 8.485 13.082 8.045 22.248 20.704 25.809 35.645zm-287.227-237.86c3.306 17.947 9.841 51.583 12.014 69.885l37.451-59.228c-2.014-5.052-4.231-10.101-7.19-16.405-11.71-24.955-24.889-21.371-29.852-20.021-15.743 4.282-14.541 17.983-12.423 25.769zm248.317 247.134c-1.084-4.547-3.873-8.399-7.854-10.848-3.982-2.45-8.681-3.202-13.227-2.118-4.547 1.084-8.399 3.874-10.848 7.855-.957 1.556-19.89 29.201-19.89 29.201-6.116 9.294-18.608 11.723-27.705 5.693-9.223-6.078-11.771-18.482-5.693-27.705l28.517-43.269c4.876-8.192 2.275-18.847-5.871-23.856-8.221-5.056-19.021-2.479-24.074 5.738-.471.766-27.955 44.061-27.955 44.061-5.892 9.344-18.243 12.141-27.585 6.249-9.343-5.892-12.141-18.241-6.249-27.585l34.576-54.833c2.41-3.964 3.146-8.629 2.068-13.146-1.084-4.547-3.873-8.399-7.854-10.848s-8.678-3.202-13.227-2.117c-4.547 1.084-10.886 7.916-10.905 7.946l-33.762 54.235c-5.838 9.377-18.169 12.247-27.548 6.41-9.377-5.837-12.247-18.171-6.41-27.548l106.405-170.949c5.021-8.214 2.441-18.986-5.765-24.033-3.884-2.388-8.304-3.078-12.439-1.945-4.562 1.252-8.354 4.541-10.967 9.513-.247.472-168.904 267.234-168.904 267.234-14.805 24.227-26.53 50.168-34.853 77.107-5.671 18.359-2.375 37.767 9.042 53.243 11.439 15.507 29.049 24.4 48.313 24.4h145.388c27.727 0 53.909-14.711 68.329-38.393l64.782-106.391c2.497-4.057 3.249-8.754 2.165-13.301z"/></svg>