<svg id="Capa_1" enable-background="new 0 0 512 512" height="512" viewBox="0 0 512 512" width="512" xmlns="http://www.w3.org/2000/svg"><g><path d="m452 0h-80c-33.084 0-60 26.916-60 60v80c0 33.084 26.916 60 60 60h80c33.084 0 60-26.916 60-60v-80c0-33.084-26.916-60-60-60zm20 140c0 11.028-8.972 20-20 20h-80c-11.028 0-20-8.972-20-20v-80c0-11.028 8.972-20 20-20h20v20c0 11.046 8.954 20 20 20s20-8.954 20-20v-20h20c11.028 0 20 8.972 20 20z"/><path d="m34.142 426.142 5.858-5.858v71.716c0 11.046 8.954 20 20 20h160c11.046 0 20-8.954 20-20v-71.716l5.858 5.858c7.811 7.811 20.474 7.811 28.284 0 7.811-7.811 7.811-20.474 0-28.284l-120-120c-7.811-7.811-20.474-7.811-28.284 0l-45.858 45.858v-11.716c0-11.046-8.954-20-20-20s-20 8.954-20 20v51.716l-34.142 34.142c-7.811 7.811-7.811 20.474 0 28.284s20.474 7.811 28.284 0zm105.858-105.858 60 60v91.716h-40v-60c0-11.046-8.954-20-20-20s-20 8.954-20 20v60h-40v-91.716z"/><path d="m207.926 236.252c-4.544 10.068-.065 21.913 10.002 26.457l34.771 15.692c10.068 4.544 21.913.065 26.457-10.002 4.543-10.068.065-21.913-10.002-26.457l-34.771-15.692c-10.069-4.546-21.914-.066-26.457 10.002z"/><path d="m164.856 194.872-5.285-2.385c-6.582-2.971-12.256-7.686-16.408-13.635-6.32-9.059-18.787-11.278-27.846-4.957s-11.278 18.788-4.957 27.846c8.277 11.862 19.604 21.27 32.757 27.205l5.284 2.385c10.068 4.544 21.913.065 26.457-10.002 4.544-10.069.066-21.914-10.002-26.457z"/><path d="m426.538 356.855 5.89 2.658c6.438 2.906 12.023 7.494 16.149 13.269 6.422 8.988 18.913 11.067 27.9 4.645s11.066-18.914 4.645-27.9c-8.227-11.512-19.375-20.666-32.24-26.472l-5.89-2.658c-10.068-4.543-21.913-.065-26.457 10.002-4.543 10.067-.065 21.912 10.003 26.456z"/><path d="m256 116c11.045 0 20-8.954 20-20s-8.955-20-20-20h-20c-11.045 0-20 8.954-20 20s8.955 20 20 20z"/><path d="m179.11 92.827c-2.968-10.64-13.999-16.861-24.638-13.892-16.319 4.552-31.075 14.443-41.548 27.852-6.799 8.705-5.254 21.273 3.451 28.073 8.705 6.799 21.273 5.255 28.073-3.451 5.25-6.721 12.626-11.673 20.771-13.945 10.639-2.967 16.859-13.998 13.891-24.637z"/><path d="m383.445 315.464c4.544-10.068.065-21.913-10.002-26.457l-34.763-15.689c-10.069-4.544-21.913-.065-26.457 10.002-4.543 10.068-.065 21.913 10.002 26.457l34.763 15.689c10.069 4.545 21.913.066 26.457-10.002z"/><path d="m336 436c-11.045 0-20 8.954-20 20s8.955 20 20 20h20c11.045 0 20-8.954 20-20s-8.955-20-20-20z"/><path d="m413.6 459.206c3.087 10.605 14.188 16.701 24.793 13.612 16.265-4.735 30.906-14.789 41.227-28.311 6.702-8.78 5.018-21.331-3.762-28.033-8.78-6.701-21.331-5.017-28.033 3.763-5.173 6.778-12.494 11.812-20.612 14.176-10.607 3.087-16.701 14.188-13.613 24.793z"/></g></svg>