<svg id="Capa_1" enable-background="new 0 0 512 512" height="512" viewBox="0 0 512 512" width="512" xmlns="http://www.w3.org/2000/svg"><g id="Homestay"><path d="m452 312h-72c-33.084 0-60 26.916-60 60s26.916 60 60 60h16v60c0 11.046 8.954 20 20 20s20-8.954 20-20v-60h16c33.084 0 60-26.916 60-60s-26.916-60-60-60zm0 80h-72c-11.028 0-20-8.972-20-20s8.972-20 20-20h72c11.028 0 20 8.972 20 20s-8.972 20-20 20z"/><g><path d="m180 272c-11.046 0-20 8.954-20 20s8.954 20 20 20h80c11.046 0 20-8.954 20-20s-8.954-20-20-20z"/><path d="m380 120h-20c0-18.786-8.98-36.738-24.023-48.021l-80-60c-10.45-7.836-22.89-11.979-35.977-11.979s-25.527 4.143-35.977 11.979l-80 60c-15.043 11.282-24.023 29.234-24.023 48.021h-20c-33.084 0-60 26.916-60 60v272c0 33.084 26.916 60 60 60h280c11.046 0 20-8.954 20-20s-8.954-20-20-20h-60v-60c0-33.084-26.916-60-60-60s-60 26.916-60 60v60h-100c-11.028 0-20-8.972-20-20v-272c0-11.028 8.972-20 20-20h20v252c0 11.046 8.954 20 20 20s20-8.954 20-20v-292c0-6.357 2.924-12.196 8.023-16.021l80-60c3.471-2.603 7.613-3.979 11.977-3.979s8.506 1.376 11.977 3.979l79.999 60c5.1 3.825 8.024 9.664 8.024 16.021v132c0 11.046 8.954 20 20 20s20-8.954 20-20v-92h20c11.028 0 20 8.972 20 20v72c0 11.046 8.954 20 20 20s20-8.954 20-20v-72c0-33.084-26.916-60-60-60zm-180 292c0-11.028 8.972-20 20-20s20 8.972 20 20v60h-40z"/><path d="m220 112c-33.084 0-60 26.916-60 60s26.916 60 60 60 60-26.916 60-60-26.916-60-60-60zm0 80c-11.028 0-20-8.972-20-20s8.972-20 20-20 20 8.972 20 20-8.972 20-20 20z"/></g></g></svg>