<svg id="Capa_1" enable-background="new 0 0 512 512" height="512" viewBox="0 0 512 512" width="512" xmlns="http://www.w3.org/2000/svg"><g id="Hydro_Power"><g><path d="m492 430.469c11.046 0 20-8.954 20-20v-350.469c0-33.084-26.916-60-60-60s-60 26.916-60 60c0 11.028-8.972 20-20 20h-16v-20c0-11.046-8.954-20-20-20s-20 8.954-20 20v20h-40v-20c0-11.046-8.954-20-20-20s-20 8.954-20 20v20h-40v-20c0-11.046-8.954-20-20-20s-20 8.954-20 20v20h-16c-11.028 0-20-8.972-20-20 0-33.084-26.916-60-60-60s-60 26.916-60 60v430.469c0 8.299 5.056 15.416 12.255 18.443 3.084 1.945 6.726 3.088 10.643 3.088 31.738 0 44.926-16.579 53.652-27.55 7.004-8.805 9.903-12.45 22.348-12.45 13.153 0 17.146 4.458 25.101 13.342 10.073 11.25 23.87 26.658 54.899 26.658s44.825-15.408 54.899-26.658c7.954-8.883 11.947-13.342 25.101-13.342s17.146 4.458 25.101 13.342c10.073 11.25 23.87 26.658 54.899 26.658s44.825-15.408 54.899-26.658c7.954-8.883 11.947-13.342 25.101-13.342 11.871 0 14.007 2.953 20.344 11.718 8.142 11.262 20.446 28.282 52.758 28.282 11.046 0 20-8.954 20-20s-8.954-20-20-20c-11.871 0-14.006-2.953-20.344-11.718-8.142-11.262-20.447-28.282-52.759-28.282-31.029 0-44.826 15.408-54.899 26.658-7.954 8.884-11.947 13.342-25.101 13.342s-17.146-4.458-25.101-13.342c-10.073-11.25-23.869-26.658-54.899-26.658s-44.826 15.408-54.899 26.658c-7.954 8.884-11.947 13.342-25.101 13.342s-17.146-4.458-25.101-13.342c-10.073-11.25-23.869-26.658-54.899-26.658-31.738 0-44.926 16.579-53.652 27.55-1.973 2.48-3.619 4.537-5.245 6.232v-405.782c0-11.028 8.972-20 20-20s20 8.972 20 20c0 33.084 26.916 60 60 60h232c33.084 0 60-26.916 60-60 0-11.028 8.972-20 20-20s20 8.972 20 20v350.469c0 11.046 8.954 20 20 20z"/><path d="m216 390.469c11.046 0 20-8.954 20-20v-130.469c0-44.112-35.888-80-80-80s-80 35.888-80 80v130.469c0 11.046 8.954 20 20 20s20-8.954 20-20v-130.469c0-22.056 17.944-40 40-40s40 17.944 40 40v130.469c0 11.046 8.954 20 20 20z"/></g><g><path d="m416 390.469c-11.046 0-20-8.954-20-20v-130.469c0-22.056-17.944-40-40-40s-40 17.944-40 40v130.469c0 11.046-8.954 20-20 20s-20-8.954-20-20v-130.469c0-44.112 35.888-80 80-80s80 35.888 80 80v130.469c0 11.046-8.954 20-20 20z"/></g></g></svg>