<svg id="Capa_1" enable-background="new 0 0 512 512" height="512" viewBox="0 0 512 512" width="512" xmlns="http://www.w3.org/2000/svg"><g><path d="m356 355.977v-29.217c0-18.993 9.937-33.88 18.273-43.025 26.908-29.519 41.727-67.789 41.727-107.758 0-48.973-21.982-94.59-60.312-125.155-38.34-30.573-88.324-41.718-137.129-30.574-58.979 13.463-106.232 61.601-118.836 120.77-11.045 51.849 2.687 103.735 37.674 142.354 8.486 9.368 18.604 24.514 18.604 43.474v29.132c0 33.084 26.916 60 60 60h80c33.083-.001 59.999-26.917 59.999-60.001zm-40 0c0 11.028-8.972 20-20 20h-80c-11.028 0-20-8.972-20-20v-29.132c0-25.099-10.015-49.419-28.96-70.33-26.253-28.978-36.53-68.037-28.194-107.163 9.358-43.932 44.971-80.144 88.616-90.108 9.421-2.151 18.892-3.208 28.253-3.208 27.277 0 53.617 8.98 75.035 26.06 28.757 22.932 45.25 57.15 45.25 93.881 0 29.978-11.111 58.677-31.288 80.812-18.516 20.31-28.712 45.16-28.712 69.971z"/><path d="m0 175.977c0 11.046 8.954 20 20 20h20c11.046 0 20-8.954 20-20s-8.954-20-20-20h-20c-11.046 0-20 8.954-20 20z"/><path d="m492 155.977h-20c-11.046 0-20 8.954-20 20s8.954 20 20 20h20c11.046 0 20-8.954 20-20s-8.954-20-20-20z"/><path d="m60.436 319.825 14.143-14.142c7.811-7.81 7.812-20.474.001-28.284-7.812-7.811-20.475-7.811-28.284 0l-14.144 14.141c-7.811 7.81-7.812 20.474-.001 28.284s20.474 7.812 28.285.001z"/><path d="m465.705 74.556 14.143-14.142c7.811-7.81 7.812-20.474.001-28.284s-20.474-7.811-28.284 0l-14.143 14.142c-7.811 7.81-7.812 20.474-.001 28.284 7.811 7.809 20.474 7.811 28.284 0z"/><path d="m60.436 32.129c-7.811-7.811-20.474-7.81-28.284 0s-7.81 20.474.001 28.284l14.143 14.142c7.811 7.811 20.474 7.81 28.284 0 7.811-7.811 7.81-20.474-.001-28.284z"/><path d="m437.422 305.683 14.143 14.142c7.811 7.811 20.474 7.81 28.284 0 7.811-7.811 7.81-20.474-.001-28.284l-14.143-14.142c-7.811-7.811-20.474-7.81-28.284 0s-7.81 20.473.001 28.284z"/><path d="m216 455.977c-11.046 0-20 8.954-20 20s8.954 20 20 20h80c11.046 0 20-8.954 20-20s-8.954-20-20-20z"/><path d="m201.857 210.119 34.143 34.143v31.715c0 11.046 8.954 20 20 20s20-8.954 20-20v-31.715l34.143-34.143c7.811-7.811 7.811-20.474 0-28.284s-20.475-7.811-28.285 0l-25.858 25.858-25.857-25.858c-7.811-7.811-20.475-7.811-28.285 0s-7.811 20.473-.001 28.284z"/></g></svg>