<svg id="Capa_1" enable-background="new 0 0 512.009 512.009" height="512" viewBox="0 0 512.009 512.009" width="512" xmlns="http://www.w3.org/2000/svg"><g><path d="m2.116 11.062c-4.939 9.879-.935 21.893 8.944 26.833l40 20c9.88 4.939 21.893.935 26.833-8.944 4.939-9.879.935-21.893-8.944-26.833l-40-20c-9.879-4.94-21.892-.935-26.833 8.944z"/><path d="m509.893 11.062c-4.939-9.879-16.951-13.884-26.833-8.944l-40 20c-9.88 4.94-13.884 16.954-8.944 26.833 4.941 9.881 16.955 13.883 26.833 8.944l40-20c9.88-4.94 13.883-16.953 8.944-26.833z"/><path d="m2.116 424.951c4.941 9.882 16.955 13.883 26.833 8.944l40-20c9.879-4.94 13.884-16.954 8.944-26.833s-16.951-13.884-26.833-8.944l-40 20c-9.879 4.94-13.884 16.953-8.944 26.833z"/><path d="m509.893 424.951c4.939-9.879.936-21.893-8.944-26.833l-40-20c-9.878-4.94-21.894-.936-26.833 8.944-4.939 9.879-.936 21.893 8.944 26.833l40 20c9.879 4.94 21.893.935 26.833-8.944z"/><path d="m208.79 4.939c-86.335 18.03-154.515 89.331-169.447 176.255-16.74 97.453 31.075 188.86 113.128 232.722 2.179 1.165 3.533 3.418 3.533 5.88v.21c0 54.556 43.904 92 100.001 92 56.098 0 100-37.447 100-92v-.21c0-2.462 1.354-4.715 3.533-5.88 71.839-38.403 116.467-112.705 116.467-193.91 0-66.54-29.646-128.796-81.335-170.806-51.685-42.005-119.435-58.137-185.88-44.261zm227.214 215.068c0 66.417-36.526 127.202-95.324 158.633-15.221 8.136-24.676 23.907-24.676 41.156v.21c0 35.728-31.103 52-60 52-28.898 0-60-16.272-60-52v-.21c0-17.25-9.455-33.02-24.675-41.156-68.653-36.699-105.851-113.324-92.563-190.673 12.257-71.351 67.796-129.168 138.202-143.873 54.389-11.359 110.015 1.639 152.474 36.147 42.302 34.38 66.562 85.323 66.562 139.766z"/><path d="m190.146 245.864-25.858-25.858 25.858-25.858c7.811-7.811 7.811-20.474 0-28.284s-20.474-7.811-28.284 0l-40 40c-7.811 7.811-7.811 20.474 0 28.284l40 40c7.811 7.811 20.474 7.811 28.284 0 7.811-7.81 7.811-20.473 0-28.284z"/><path d="m350.147 165.864c-7.811-7.811-20.475-7.811-28.285 0s-7.811 20.474 0 28.284l25.858 25.858-25.858 25.858c-7.811 7.811-7.811 20.474 0 28.284 7.81 7.81 20.475 7.81 28.285 0l40-40c7.811-7.811 7.811-20.474 0-28.284z"/><path d="m256.602 135.156-40 160c-2.679 10.716 3.836 21.574 14.552 24.253 10.715 2.68 21.574-3.837 24.253-14.552l40.001-160c2.679-10.716-3.837-21.574-14.553-24.253s-21.575 3.836-24.253 14.552z"/></g></svg>