<svg id="Capa_1" enable-background="new 0 0 512 512" height="512" viewBox="0 0 512 512" width="512" xmlns="http://www.w3.org/2000/svg"><g id="Idea"><g><g><path d="m256 76c-11.046 0-20-8.954-20-20v-36c0-11.046 8.954-20 20-20s20 8.954 20 20v36c0 11.046-8.954 20-20 20z"/></g></g><g><g><path d="m56 276h-36c-11.046 0-20-8.954-20-20s8.954-20 20-20h36c11.046 0 20 8.954 20 20s-8.954 20-20 20z"/></g><g><path d="m492 276h-36c-11.046 0-20-8.954-20-20s8.954-20 20-20h36c11.046 0 20 8.954 20 20s-8.954 20-20 20z"/></g></g><g><g><path d="m383.279 128.721c-7.811-7.811-7.811-20.474 0-28.284l28.284-28.284c7.811-7.811 20.474-7.811 28.284 0s7.811 20.474 0 28.284l-28.284 28.284c-7.81 7.81-20.473 7.81-28.284 0z"/></g></g><g><g><path d="m100.437 128.721-28.284-28.284c-7.811-7.81-7.811-20.474 0-28.284s20.474-7.811 28.284 0l28.284 28.284c7.811 7.81 7.811 20.474 0 28.284s-20.474 7.81-28.284 0z"/></g></g><path d="m256 116c-77.196 0-140 62.804-140 140 0 22.076 5.276 44.073 15.259 63.615 9.648 18.886 23.732 35.617 40.728 48.384 9.527 7.156 16.611 16.987 20.53 28.001h-16.517c-11.046 0-20 8.954-20 20s8.954 20 20 20h20v16c0 33.084 26.916 60 60 60s60-26.916 60-60v-16h20c11.046 0 20-8.954 20-20s-8.954-20-20-20h-102.053c-4.891-23.689-18.314-45.244-37.937-59.984-25.427-19.099-40.01-48.264-40.01-80.016 0-55.14 44.86-100 100-100s100 44.86 100 100c0 39.058-5.747 45.272-19.631 60.286-1.853 2.004-3.77 4.076-5.828 6.376-7.366 8.23-6.666 20.874 1.564 28.241s20.875 6.666 28.241-1.564c1.841-2.057 3.645-4.008 5.39-5.894 18.764-20.291 30.264-35.37 30.264-87.445 0-77.196-62.804-140-140-140zm20 336c0 11.028-8.972 20-20 20s-20-8.972-20-20v-16h40z"/><g><path d="m256 316c-5.119 0-10.237-1.953-14.142-5.858l-40-40c-7.811-7.811-7.811-20.474 0-28.284s20.474-7.811 28.284 0l25.858 25.858 25.858-25.858c7.811-7.811 20.474-7.811 28.284 0s7.811 20.474 0 28.284l-40 40c-3.905 3.905-9.023 5.858-14.142 5.858z"/></g></g></svg>