<svg id="Capa_1" enable-background="new 0 0 512 512" height="512" viewBox="0 0 512 512" width="512" xmlns="http://www.w3.org/2000/svg"><g id="Idea"><g><path d="m412 391.982c-33.084 0-60-26.916-60-60s26.916-60 60-60 60 26.916 60 60-26.916 60-60 60zm0-80c-11.028 0-20 8.972-20 20s8.972 20 20 20 20-8.972 20-20-8.972-20-20-20z"/></g><g><path d="m492 511.982c-11.046 0-20-8.954-20-20 0-33.084-26.916-60-60-60s-60 26.916-60 60c0 11.046-8.954 20-20 20s-20-8.954-20-20c0-55.14 44.86-100 100-100s100 44.86 100 100c0 11.046-8.954 20-20 20z"/></g><g><path d="m100 391.982c-33.084 0-60-26.916-60-60s26.916-60 60-60 60 26.916 60 60-26.916 60-60 60zm0-80c-11.028 0-20 8.972-20 20s8.972 20 20 20 20-8.972 20-20-8.972-20-20-20z"/></g><g><path d="m180 511.982c-11.046 0-20-8.954-20-20 0-33.084-26.916-60-60-60s-60 26.916-60 60c0 11.046-8.954 20-20 20s-20-8.954-20-20c0-55.14 44.86-100 100-100s100 44.86 100 100c0 11.046-8.954 20-20 20z"/></g><g><path d="m256 359.982c-33.084 0-60-26.916-60-60 0-19.056-9.09-37.275-24.315-48.735-43.042-32.399-63.344-85.687-52.983-139.068 5.254-27.067 18.694-51.905 38.867-71.828 20.163-19.913 45.161-33.049 72.292-37.988 41.598-7.573 83.8 3.391 115.786 30.081 31.999 26.701 50.353 65.897 50.353 107.538 0 44.072-20.296 84.626-55.686 111.265-15.225 11.46-24.314 29.679-24.314 48.735 0 33.084-26.916 60-60 60zm.2-320.02c-6.32 0-12.726.58-19.176 1.754-39.001 7.1-71.51 39.209-79.055 78.083-7.423 38.242 7.051 76.364 37.772 99.489 25.209 18.977 40.259 49.142 40.259 80.694 0 11.028 8.972 20 20 20s20-8.972 20-20c0-31.552 15.05-61.718 40.259-80.693 25.256-19.012 39.741-47.918 39.741-79.307 0-29.744-13.114-57.746-35.98-76.825-18.258-15.234-40.418-23.195-63.82-23.195z"/></g><g><path d="m243.196 211.346c-8.485-7.071-9.632-19.683-2.561-28.168l12.664-15.196h-37.299c-7.76 0-14.82-4.489-18.112-11.517-3.292-7.027-2.221-15.325 2.748-21.287l40-48c7.071-8.486 19.683-9.632 28.168-2.561s9.632 19.683 2.561 28.168l-12.664 15.196h37.299c7.76 0 14.82 4.489 18.112 11.517 3.292 7.027 2.221 15.325-2.748 21.287l-40 48c-7.071 8.487-19.682 9.633-28.168 2.561z"/></g><g><circle cx="56" cy="139.982" r="20"/></g><g><circle cx="456" cy="139.982" r="20"/></g><g><circle cx="71.224" cy="63.445" r="20"/></g><g><circle cx="440.776" cy="216.519" r="20"/></g><g><circle cx="71.224" cy="216.519" r="20"/></g><g><circle cx="440.776" cy="63.445" r="20"/></g></g></svg>