<svg id="Capa_1" enable-background="new 0 0 512 512" height="512" viewBox="0 0 512 512" width="512" xmlns="http://www.w3.org/2000/svg"><g id="Idea"><g><path d="m296 436h-80c-33.084 0-60-26.916-60-60v-17.362c0-16.789-7.966-33.399-22.43-46.772-36.586-33.826-57.57-81.889-57.57-131.866 0-48.097 18.719-93.304 52.708-127.292s79.195-52.708 127.292-52.708 93.304 18.719 127.293 52.708c33.988 33.988 52.707 79.195 52.707 127.292 0 49.978-20.983 98.041-57.57 131.866-14.464 13.372-22.43 29.983-22.43 46.772v17.362c0 33.084-26.916 60-60 60zm-40-396c-77.196 0-140 62.804-140 140 0 39.43 15.883 75.83 44.725 102.495 22.747 21.032 35.275 48.073 35.275 76.143v17.362c0 11.028 8.972 20 20 20h80c11.028 0 20-8.972 20-20v-17.362c0-28.07 12.527-55.111 35.275-76.143 28.841-26.664 44.725-63.064 44.725-102.495 0-77.196-62.804-140-140-140z"/></g><g><path d="m296 512h-80c-11.046 0-20-8.954-20-20s8.954-20 20-20h80c11.046 0 20 8.954 20 20s-8.954 20-20 20z"/></g><g><path d="m41.858 70.142-36-36c-7.811-7.811-7.811-20.474 0-28.284s20.474-7.811 28.284 0l36 36c7.811 7.811 7.811 20.474 0 28.284-7.81 7.81-20.473 7.811-28.284 0z"/></g><g><path d="m5.858 346.142c-7.811-7.811-7.811-20.474 0-28.284l36-36c7.811-7.811 20.474-7.811 28.284 0s7.811 20.474 0 28.284l-36 36c-7.81 7.81-20.473 7.811-28.284 0z"/></g><g><path d="m441.858 70.142c-7.81-7.811-7.81-20.474 0-28.284l36-36c7.811-7.811 20.475-7.811 28.285 0s7.81 20.474 0 28.284l-36 36c-7.811 7.81-20.475 7.811-28.285 0z"/></g><g><path d="m477.858 346.142-36-36c-7.81-7.811-7.81-20.474 0-28.284 7.811-7.811 20.475-7.811 28.285 0l36 36c7.81 7.811 7.81 20.474 0 28.284-7.811 7.81-20.475 7.811-28.285 0z"/></g><path d="m296 160c-11.046 0-20 8.954-20 20 0 24.971-7.246 35.39-16.419 48.581-1.169 1.68-2.37 3.41-3.581 5.203-1.211-1.793-2.412-3.523-3.581-5.203-9.173-13.191-16.419-23.61-16.419-48.581 0-11.046-8.954-20-20-20s-20 8.954-20 20c0 37.513 13.075 56.313 23.581 71.419 9.173 13.191 16.419 23.61 16.419 48.581v40c0 11.046 8.954 20 20 20s20-8.954 20-20v-40c0-24.971 7.246-35.39 16.42-48.581 10.505-15.106 23.58-33.906 23.58-71.419 0-11.046-8.954-20-20-20z"/></g></svg>