<svg id="Capa_1" enable-background="new 0 0 512 512" height="512" viewBox="0 0 512 512" width="512" xmlns="http://www.w3.org/2000/svg"><g><circle cx="256" cy="300" r="20"/><path d="m236 416c0 11.046 8.954 20 20 20s20-8.954 20-20v-40c0-11.046-8.954-20-20-20s-20 8.954-20 20z"/><path d="m492 200h-18.011c-9.291-45.589-49.697-80-97.989-80s-88.698 34.411-97.989 80h-102.011v-40h40c33.084 0 60-26.916 60-60v-40c0-33.084-26.916-60-60-60h-120c-33.084 0-60 26.916-60 60v40c0 33.084 26.916 60 60 60h40v40h-116c-11.046 0-20 8.954-20 20s8.954 20 20 20h16v212c0 33.084 26.916 60 60 60h320c33.084 0 60-26.916 60-60v-152c0-11.046-8.954-20-20-20s-20 8.954-20 20v152c0 11.028-8.972 20-20 20h-320c-11.028 0-20-8.972-20-20v-212h416c11.046 0 20-8.954 20-20s-8.954-20-20-20zm-416-100v-40c0-11.028 8.972-20 20-20h120c11.028 0 20 8.972 20 20v40c0 11.028-8.972 20-20 20h-120c-11.028 0-20-8.972-20-20zm300 60c26.073 0 48.303 16.722 56.56 40h-113.12c8.257-23.278 30.487-40 56.56-40z"/><path d="m436 60c0-33.084-26.916-60-60-60s-60 26.916-60 60 26.916 60 60 60 60-26.916 60-60zm-60 20c-11.028 0-20-8.972-20-20s8.972-20 20-20 20 8.972 20 20-8.972 20-20 20z"/></g></svg>