<svg id="Capa_1" enable-background="new 0 0 512 512" height="512" viewBox="0 0 512 512" width="512" xmlns="http://www.w3.org/2000/svg"><path d="m237 314c0 11.046-8.954 20-20 20s-20-8.954-20-20 8.954-20 20-20 20 8.954 20 20zm66-107c-11.046 0-20 8.954-20 20s8.954 20 20 20 20-8.954 20-20-8.954-20-20-20zm0 173c-11.046 0-20 8.954-20 20s8.954 20 20 20 20-8.954 20-20-8.954-20-20-20zm0-86c-11.046 0-20 8.954-20 20s8.954 20 20 20 20-8.954 20-20-8.954-20-20-20zm9 178h-192c-44.112 0-80-35.888-80-80v-164c0-44.112 35.888-80 80-80h272c36.922 0 68.865 24.995 77.682 60.784 2.643 10.724 13.476 17.277 24.204 14.636 10.725-2.643 17.277-13.479 14.636-24.204-13.231-53.706-61.147-91.216-116.522-91.216h-272c-66.168 0-120 53.832-120 120v164c0 66.168 53.832 120 120 120h192c11.046 0 20-8.954 20-20s-8.954-20-20-20zm-181-92c-11.046 0-20 8.954-20 20s8.954 20 20 20 20-8.954 20-20-8.954-20-20-20zm86 0c-11.046 0-20 8.954-20 20s8.954 20 20 20 20-8.954 20-20-8.954-20-20-20zm-86-86c-11.046 0-20 8.954-20 20s8.954 20 20 20 20-8.954 20-20-8.954-20-20-20zm0-87c-11.046 0-20 8.954-20 20s8.954 20 20 20 20-8.954 20-20-8.954-20-20-20zm86 0c-11.046 0-20 8.954-20 20s8.954 20 20 20 20-8.954 20-20-8.954-20-20-20zm-115-127c11.046 0 20-8.954 20-20 0-11.028 8.972-20 20-20s20 8.972 20 20c0 11.046 8.954 20 20 20s20-8.954 20-20c0-33.084-26.916-60-60-60s-60 26.916-60 60c0 11.046 8.954 20 20 20zm230 0c11.046 0 20-8.954 20-20 0-11.028 8.972-20 20-20s20 8.972 20 20c0 11.046 8.954 20 20 20s20-8.954 20-20c0-33.084-26.916-60-60-60s-60 26.916-60 60c0 11.046 8.954 20 20 20zm160 392h-30v-93c0-33.084-26.916-60-60-60h-10c-11.046 0-20 8.954-20 20s8.954 20 20 20h10c11.028 0 20 8.972 20 20v93h-30c-11.046 0-20 8.954-20 20s8.954 20 20 20h100c11.046 0 20-8.954 20-20s-8.954-20-20-20zm-70-197c0 11.046 8.954 20 20 20s20-8.954 20-20-8.954-20-20-20-20 8.954-20 20z"/></svg>