<svg id="Capa_1" enable-background="new 0 0 512 512" height="512" viewBox="0 0 512 512" width="512" xmlns="http://www.w3.org/2000/svg"><g><path d="m200 356c11.046 0 20-8.954 20-20s-8.954-20-20-20h-20v-100c0-11.046-8.954-20-20-20h-40c-11.046 0-20 8.954-20 20s8.954 20 20 20h20v80h-20c-11.046 0-20 8.954-20 20s8.954 20 20 20z"/><circle cx="160" cy="136" r="20"/><path d="m100 436h120c55.14 0 100-44.86 100-100v-60c0-11.028 8.972-20 20-20 11.046 0 20-8.954 20-20s-8.954-20-20-20c-11.028 0-20-8.972-20-20v-60c0-55.14-44.86-100-100-100h-120c-55.14 0-100 44.86-100 100v200c0 55.14 44.86 100 100 100zm-60-300c0-33.084 26.916-60 60-60h120c33.084 0 60 26.916 60 60v60c0 15.353 5.796 29.377 15.315 40-9.519 10.623-15.315 24.647-15.315 40v60c0 33.084-26.916 60-60 60h-120c-33.084 0-60-26.916-60-60z"/><path d="m472 43.44v-23.44c0-11.046-8.954-20-20-20s-20 8.954-20 20v23.44c-23.278 8.256-40 30.487-40 56.56v255.431c0 38.969 14.147 75.76 40 104.523v32.046c0 11.046 8.954 20 20 20s20-8.954 20-20v-32.045c25.853-28.763 40-65.554 40-104.523v-99.432c0-11.046-8.954-20-20-20s-20 8.954-20 20v99.431c0 23.645-6.993 46.216-20 65.351-13.007-19.134-20-41.706-20-65.351v-159.431h60c11.046 0 20-8.954 20-20v-76c0-26.073-16.722-48.303-40-56.56zm0 112.56h-40v-56c0-11.028 8.972-20 20-20s20 8.972 20 20z"/></g></svg>