<svg id="Capa_1" enable-background="new 0 0 512 512" height="512" viewBox="0 0 512 512" width="512" xmlns="http://www.w3.org/2000/svg"><g><path d="m452 392h-76c-11.028 0-20-8.97-20-20 0-33.084-26.916-60-60-60h-60v-114.011c6.464 1.317 13.153 2.011 20 2.011s13.536-.693 20-2.011v54.011c0 11.046 8.954 20 20 20s20-8.954 20-20v-72.051c24.273-18.262 40-47.303 40-79.949 0-55.14-44.859-100-100-100s-100 44.86-100 100c0 32.646 15.727 61.687 40 79.949v135.491c-23.278 8.256-40 30.488-40 56.564 0 11.026-8.972 19.996-20 19.996h-76c-33.084 0-60 26.916-60 60.005 0 33.081 26.916 59.995 60 59.995h392c33.084 0 60-26.914 60-60 0-33.084-26.916-60-60-60zm-196-352c33.084 0 60 26.916 60 60s-26.916 60-60 60-60-26.916-60-60 26.916-60 60-60zm196 432h-392c-11.028 0-20-8.97-20-20 0-11.028 8.972-20 20-20h76c33.084 0 60-26.914 60-60 0-11.028 8.972-20 20-20h80c11.028 0 20 8.972 20 20.005 0 33.081 26.916 59.995 60 59.995h76c11.028 0 20 8.972 20 20.005 0 11.025-8.972 19.995-20 19.995z"/><path d="m60 352h40c11.046 0 20-8.954 20-20s-8.954-20-20-20h-40c-11.046 0-20 8.954-20 20s8.954 20 20 20z"/><path d="m412 352h40c11.046 0 20-8.954 20-20s-8.954-20-20-20h-40c-11.046 0-20 8.954-20 20s8.954 20 20 20z"/></g></svg>