<svg id="Capa_1" enable-background="new 0 0 512 512" height="512" viewBox="0 0 512 512" width="512" xmlns="http://www.w3.org/2000/svg"><g id="Joystick"><g><path d="m452 456c-11.046 0-20-8.954-20-20s8.954-20 20-20c11.028 0 20-8.972 20-20s-8.972-20-20-20c-16.027 0-31.095-6.241-42.427-17.574-11.332-11.331-17.573-26.399-17.573-42.426 0-11.046 8.954-20 20-20s20 8.954 20 20c0 5.342 2.08 10.365 5.857 14.142 3.778 3.778 8.8 5.858 14.143 5.858 33.084 0 60 26.916 60 60s-26.916 60-60 60z"/></g><path d="m352 379.44v-23.44c0-11.046-8.954-20-20-20s-20 8.954-20 20v20h-138.68l-37.113-257.09c-.138-.954-.207-1.933-.207-2.91 0-11.028 8.972-20 20-20h80c11.028 0 20 8.972 20 20 0 .978-.069 1.957-.207 2.908l-2.467 17.092h-37.326c-11.046 0-20 8.954-20 20s8.954 20 20 20h31.551l-5.774 40h-25.777c-11.046 0-20 8.954-20 20s8.954 20 20 20h20.003l-8.249 57.143c-1.578 10.932 6.005 21.074 16.938 22.652 10.926 1.572 21.074-6.005 22.652-16.938l28.039-194.237c.409-2.838.617-5.739.617-8.62 0-33.084-26.916-60-60-60h-20v-20c0-11.046-8.954-20-20-20s-20 8.954-20 20v20h-20c-33.084 0-60 26.916-60 60 0 2.881.208 5.782.617 8.623l36.289 251.377h-52.906v-20c0-11.046-8.954-20-20-20s-20 8.954-20 20v23.44c-23.278 8.257-40 30.487-40 56.56 0 33.084 26.916 60 60 60h272c33.084 0 60-26.916 60-60 0-26.073-16.722-48.303-40-56.56zm-20 76.56h-272c-11.028 0-20-8.972-20-20s8.972-20 20-20h272c11.028 0 20 8.972 20 20s-8.972 20-20 20z"/></g></svg>