<svg id="Capa_1" enable-background="new 0 0 512 512" height="512" viewBox="0 0 512 512" width="512" xmlns="http://www.w3.org/2000/svg"><g id="Kettlebell"><g><path d="m335.248 512h-158.496c-29.81 0-57.039-12.173-74.707-33.398-30.123-36.185-46.045-79.963-46.045-126.602 0-40.475 12.423-79.461 36.018-113.324 0 0-20.473-95.048-20.492-95.144-7.077-35.383 1.986-71.688 24.864-99.607 22.876-27.915 56.698-43.925 92.794-43.925h133.633c36.096 0 69.918 16.01 92.794 43.925 22.878 27.918 31.941 64.224 24.864 99.607-.02.097-20.377 94.573-20.377 94.573 20.66 29.631 32.854 63.84 35.393 99.509.338 4.737.51 9.577.51 14.386 0 46.639-15.922 90.417-46.045 126.602-17.668 21.225-44.897 33.398-74.708 33.398zm-224.526-376.447 22.286 103.459c1.233 5.726-.105 11.705-3.663 16.359-21.815 28.533-33.345 61.947-33.345 96.629 0 37.172 12.721 72.101 36.787 101.01 10.046 12.068 26.07 18.99 43.965 18.99h158.496c17.896 0 33.92-6.921 43.964-18.989 24.067-28.91 36.788-63.839 36.788-101.011 0-3.864-.138-7.748-.408-11.542 0-.001 0-.003 0-.004-2.201-30.927-13.543-60.53-32.799-85.609-3.576-4.658-4.925-10.652-3.688-16.393l22.173-102.898c4.668-23.546-1.381-47.695-16.607-66.275-15.247-18.607-37.793-29.279-61.855-29.279h-133.632c-24.062 0-46.607 10.672-61.854 29.278-15.227 18.58-21.276 42.729-16.608 66.275zm209.345 78.251c-20.848-9.16-42.404-13.804-64.067-13.804-21.989 0-43.561 4.574-64.116 13.595-5.546 2.434-11.898 2.224-17.271-.573s-9.189-7.879-10.377-13.819l-14.272-71.375c-2.347-11.819.687-23.909 8.317-33.198 7.549-9.274 18.833-14.63 30.903-14.63h133.633c12.069 0 23.354 5.356 30.958 14.696 7.576 9.223 10.609 21.314 8.269 33.105l-14.319 71.614c-1.188 5.941-5.005 11.024-10.38 13.821-5.26 2.735-11.611 3.057-17.278.568zm-64.067-53.804c19.252 0 38.372 2.889 57.092 8.609l9.716-48.594c-.003-.003-.008-.008-.015-.015h-133.587c-.006.006-.011.011-.014.015l9.684 48.43c18.58-5.611 37.71-8.445 57.124-8.445z"/></g><g><path d="m256 412c-33.084 0-60-26.916-60-60s26.916-60 60-60 60 26.916 60 60-26.916 60-60 60zm0-80c-11.028 0-20 8.972-20 20s8.972 20 20 20 20-8.972 20-20-8.972-20-20-20z"/></g></g></svg>