<svg id="Capa_1" enable-background="new 0 0 512 512" height="512" viewBox="0 0 512 512" width="512" xmlns="http://www.w3.org/2000/svg"><g id="Ladder_Truck"><path d="m412 152h-40c-33.084 0-60 26.916-60 60v80c0 11.028-8.972 20-20 20h-232c-33.084 0-60 26.916-60 60v40c0 33.084 26.916 60 60 60h23.44c8.256 23.278 30.487 40 56.56 40s48.303-16.722 56.56-40h55.44c11.046 0 20-8.954 20-20s-8.954-20-20-20h-55.44c-8.256-23.278-30.487-40-56.56-40s-48.303 16.722-56.56 40h-23.44c-11.028 0-20-8.972-20-20v-40c0-11.028 8.972-20 20-20h232c33.084 0 60-26.916 60-60v-80c0-11.028 8.972-20 20-20h20v60c0 33.084 26.916 60 60 60h20v100c0 11.028-8.972 20-20 20h-23.44c-8.256-23.278-30.487-40-56.56-40-33.084 0-60 26.916-60 60s26.916 60 60 60c26.073 0 48.303-16.722 56.56-40h23.44c33.084 0 60-26.916 60-60v-160c0-55.14-44.86-100-100-100zm-272 280c11.028 0 20 8.972 20 20s-8.972 20-20 20-20-8.972-20-20 8.972-20 20-20zm232 40c-11.028 0-20-8.972-20-20s8.972-20 20-20 20 8.972 20 20-8.972 20-20 20zm80-200c-11.028 0-20-8.972-20-20v-56.56c23.278 8.256 40 30.487 40 56.56v20z"/><path d="m226.142 197.858-72.006-72.006c3.756-7.833 5.864-16.601 5.864-25.852v-40c0-11.046-8.954-20-20-20h-100v-20c0-11.046-8.954-20-20-20s-20 8.954-20 20v80c0 33.084 26.916 60 60 60h40c9.252 0 18.019-2.108 25.852-5.864l60.412 60.412-25.567 38.35c-6.127 9.191-3.644 21.608 5.547 27.735 9.19 6.127 21.608 3.643 27.735-5.547l34.662-51.992c5.288-7.932 4.242-18.495-2.499-25.236zm-166.142-77.858c-11.028 0-20-8.972-20-20v-20h80v20c0 11.028-8.972 20-20 20z"/></g></svg>