<svg id="Capa_1" enable-background="new 0 0 512.063 512.063" height="512" viewBox="0 0 512.063 512.063" width="512" xmlns="http://www.w3.org/2000/svg"><g><path d="m273.037 41.036-59.437 59.432c-20.352 20.353-33.8 46.272-38.809 74.29-28.009 4.951-53.796 18.315-74.328 38.848l-59.427 59.431c-54.717 54.715-54.716 143.274-.001 197.99 54.715 54.715 143.276 54.715 197.99 0l59.428-59.432c7.811-7.811 7.81-20.474-.001-28.284-7.811-7.811-20.474-7.81-28.284.001l-59.428 59.431c-39.081 39.082-102.339 39.082-141.42 0-39.083-39.083-39.083-102.338 0-141.422l59.428-59.431c39.081-39.083 102.339-39.083 141.42 0 .006.006.013.011.019.017 23.424 23.405 61.42 23.398 84.833-.017l59.436-59.432c23.422-23.421 23.422-61.432.001-84.853s-61.432-23.422-84.853 0l-59.437 59.432c-7.705 7.705-12.854 17.005-15.484 26.845-12.244-5.256-25.237-8.739-38.664-10.311 4.505-16.828 13.345-32.299 25.864-44.818l59.437-59.432c39.081-39.082 102.339-39.082 141.42 0 39.083 39.083 39.084 102.339.001 141.421l-59.436 59.432c-38.987 38.99-102.432 38.991-141.421 0-23.422-23.422-61.432-23.422-84.854 0l-59.427 59.431c-23.422 23.421-23.422 61.432-.001 84.853 23.422 23.422 61.432 23.422 84.854 0l59.427-59.43c7.567-7.567 12.847-16.813 15.525-26.901 51.583 22.051 112.961 11.554 154.181-29.667l59.435-59.432c54.717-54.715 54.716-143.274.001-197.99-54.713-54.716-143.274-54.717-197.988-.002zm25.416 144.285 59.437-59.432c7.787-7.789 20.496-7.788 28.284 0s7.788 20.496 0 28.284l-59.437 59.432c-7.786 7.788-20.488 7.788-28.279.005-.001-.001-.003-.003-.004-.005-7.798-7.798-7.798-20.487-.001-28.284zm-84.852 141.422-59.428 59.431c-7.787 7.789-20.497 7.789-28.283 0-7.788-7.788-7.789-20.497 0-28.285l59.428-59.431c7.785-7.787 20.489-7.788 28.279-.005.001.001.003.003.004.005.003.003.006.005.008.008 7.782 7.79 7.778 20.492-.008 28.277z"/><path d="m468.577 371.966-32.766-22.943c-9.049-6.337-21.52-4.136-27.854 4.911-6.336 9.048-4.137 21.519 4.911 27.854l32.766 22.943c9.048 6.336 21.518 4.137 27.854-4.911s4.137-21.519-4.911-27.854z"/><path d="m99.187 130.275-32.766-22.943c-9.05-6.337-21.519-4.136-27.854 4.911-6.336 9.048-4.137 21.519 4.911 27.854l32.766 22.943c9.048 6.335 21.519 4.137 27.854-4.911 6.336-9.048 4.137-21.519-4.911-27.854z"/><path d="m381.784 412.872c-6.334-9.047-18.806-11.247-27.854-4.911-9.048 6.335-11.247 18.806-4.911 27.854l22.943 32.766c6.335 9.047 18.805 11.248 27.854 4.911 9.048-6.335 11.247-18.806 4.911-27.854z"/><path d="m163.036 76.248-22.943-32.766c-6.335-9.048-18.806-11.248-27.854-4.911-9.048 6.335-11.247 18.806-4.911 27.854l22.943 32.766c6.335 9.047 18.805 11.248 27.854 4.911 9.048-6.335 11.247-18.806 4.911-27.854z"/></g></svg>