<svg id="Capa_1" enable-background="new 0 0 511.965 511.965" height="512" viewBox="0 0 511.965 511.965" width="512" xmlns="http://www.w3.org/2000/svg"><g><path d="m193.399 276.104-76.853 76.853c-7.81 7.811-7.81 20.474 0 28.284s20.475 7.81 28.285 0l76.853-76.853c7.81-7.811 7.81-20.474 0-28.284s-20.474-7.81-28.285 0z"/><path d="m497.816 116.541v-56.569c0-16.026-6.241-31.094-17.573-42.426-23.395-23.395-61.459-23.394-84.854 0l-161.995 161.996c-22.298-10.622-49.842-6.726-68.279 11.709l-133.421 133.421c-23.394 23.394-23.394 61.459 0 84.853l84.853 84.853c23.45 23.449 61.404 23.45 84.854 0l133.422-133.421c23.394-23.394 23.394-61.458 0-84.853l-70.711-70.711 159.563-159.563c7.797-7.798 20.486-7.798 28.283 0 3.778 3.777 5.858 8.8 5.858 14.142v56.569c0 5.342-2.08 10.364-5.858 14.142l-88.853 88.853c-7.81 7.811-7.81 20.474 0 28.284s20.475 7.81 28.285 0l88.853-88.853c11.332-11.333 17.573-26.4 17.573-42.426zm-191.279 216.131-133.422 133.422c-7.816 7.816-20.467 7.816-28.283 0l-84.853-84.853c-7.799-7.798-7.799-20.486 0-28.285l133.42-133.421c3.9-3.899 9.021-5.848 14.144-5.848 5.121 0 10.243 1.95 14.142 5.848l84.853 84.853c7.798 7.798 7.798 20.487-.001 28.284z"/></g></svg>