<svg id="Capa_1" enable-background="new 0 0 512 512" height="512" viewBox="0 0 512 512" width="512" xmlns="http://www.w3.org/2000/svg"><g id="No_Idea"><path d="m256 0c-99.252 0-180 80.748-180 180 0 28.554 6.86 56.986 19.839 82.222 12.505 24.315 30.723 45.814 52.697 62.191 4.758 3.82 7.464 9.44 7.464 15.587v52c0 44.112 35.888 80 80 80v20c0 11.046 8.954 20 20 20s20-8.954 20-20v-20c44.112 0 80-35.888 80-80v-20c0-11.046-8.954-20-20-20h-140v-12c0-18.367-8.494-35.781-22.852-47.119-.058-.046-.115-.091-.174-.136-.585-.458-1.18-.907-1.784-1.345-35.1-26.743-55.19-67.241-55.19-111.4 0-77.196 62.804-140 140-140s140 62.804 140 140c0 40.144-17.277 78.417-47.401 105.005-8.281 7.309-9.069 19.948-1.761 28.229 7.31 8.281 19.947 9.07 28.229 1.76 38.724-34.177 60.933-83.381 60.933-134.994 0-99.252-80.748-180-180-180zm60 392c0 22.056-17.944 40-40 40h-40c-22.056 0-40-17.944-40-40z"/><g><path d="m256 240c-11.046 0-20-8.954-20-20v-7.488c0-24.075 11.579-45.034 30.219-54.698 8.392-4.352 10.785-15.456 8.775-23.695-1.57-6.441-6.14-14.119-18.994-14.119-11.028 0-20 8.972-20 20 0 11.046-8.954 20-20 20s-20-8.954-20-20c0-33.084 26.916-60 60-60 28.533 0 51.243 17.523 57.855 44.643 6.823 27.979-5.194 56.221-29.225 68.681-5.962 3.092-8.631 11.865-8.631 19.188v7.488c.001 11.046-8.953 20-19.999 20z"/></g><g><circle cx="256" cy="300" r="20"/></g></g></svg>