<svg id="Capa_1" enable-background="new 0 0 512 512" height="512" viewBox="0 0 512 512" width="512" xmlns="http://www.w3.org/2000/svg"><g><path d="m372 200c11.046 0 20-8.954 20-20v-80c0-11.046-8.954-20-20-20s-20 8.954-20 20v80c0 11.046 8.954 20 20 20z"/><path d="m372 0c-41.314 0-78.5 17.993-104.149 46.549-9.102-2.582-18.417-4.402-27.851-5.438v-21.111c0-11.046-8.954-20-20-20s-20 8.954-20 20v21.098c-92.595 10.172-160 93.728-160 186.881 0 48.82-12.489 71.969-23.508 92.392-8.108 15.028-16.492 30.568-16.492 51.629 0 33.084 26.916 60 60 60h100v20c0 33.084 26.916 60 60 60s60-26.916 60-60v-20h100c33.084 0 60-26.916 60-60 0-18.94-6.612-34.119-14.599-50.595-4.818-9.939-16.78-14.09-26.721-9.272-9.939 4.818-14.091 16.782-9.272 26.721 6.398 13.198 10.592 22.636 10.592 33.146 0 11.028-8.972 20-20 20h-320c-11.028 0-20-8.972-20-20 0-10.471 4.01-18.392 11.695-32.636 11.946-22.141 28.305-52.463 28.305-111.385 0-76.039 55.586-140.763 126.547-147.353 8.951-.831 17.954-.831 26.905 0 3.716.345 7.406.867 11.067 1.526-8.036 17.642-12.519 37.231-12.519 57.848 0 77.196 62.804 140 140 140s140-62.804 140-140-62.804-140-140-140zm-132 452c0 11.028-8.972 20-20 20s-20-8.972-20-20v-20h40zm132-212c-55.14 0-100-44.86-100-100s44.86-100 100-100 100 44.86 100 100-44.86 100-100 100z"/></g></svg>