<svg id="Capa_1" enable-background="new 0 0 512 512" height="512" viewBox="0 0 512 512" width="512" xmlns="http://www.w3.org/2000/svg"><g id="Notification_Bell"><g><path d="m296 352h-80c-11.046 0-20-8.954-20-20s8.954-20 20-20h80c11.046 0 20 8.954 20 20s-8.954 20-20 20z"/></g><g><path d="m416 312c-11.028 0-20-8.972-20-20v-72c0-34.525-12.677-67.69-35.695-93.385-7.37-8.228-20.014-8.922-28.242-1.552s-8.922 20.015-1.552 28.242c16.437 18.347 25.489 42.034 25.489 66.695v72c0 33.084 26.916 60 60 60 11.028 0 20 8.972 20 20s-8.972 20-20 20h-320c-11.028 0-20-8.972-20-20s8.972-20 20-20c33.084 0 60-26.916 60-60v-72c0-55.14 44.86-100 100-100 33.084 0 60-26.916 60-60s-26.916-60-60-60-60 26.916-60 60c0 10.921 2.948 21.161 8.068 29.992-51.559 20.669-88.068 71.153-88.068 130.008v72c0 11.028-8.972 20-20 20-33.084 0-60 26.916-60 60s26.916 60 60 60h103.44c-2.22 6.26-3.44 12.989-3.44 20 0 33.084 26.916 60 60 60s60-26.916 60-60c0-7.011-1.22-13.74-3.44-20h103.44c33.084 0 60-26.916 60-60s-26.916-60-60-60zm-180-252c0-11.028 8.972-20 20-20s20 8.972 20 20-8.972 20-20 20-20-8.972-20-20zm40 392c0 11.028-8.972 20-20 20s-20-8.972-20-20 8.972-20 20-20 20 8.972 20 20z"/><path d="m76 180c0-11.046-8.954-20-20-20h-36c-11.046 0-20 8.954-20 20s8.954 20 20 20h36c11.046 0 20-8.954 20-20z"/><path d="m81.858 114.142c7.811 7.811 20.474 7.811 28.284 0 7.811-7.811 7.811-20.474 0-28.284l-40-40c-7.811-7.811-20.474-7.811-28.284 0s-7.811 20.474 0 28.284z"/><path d="m430.142 114.142 40-40c7.811-7.811 7.811-20.474 0-28.284s-20.474-7.811-28.284 0l-40 40c-7.811 7.811-7.811 20.474 0 28.284 7.81 7.811 20.474 7.811 28.284 0z"/><path d="m492 160h-36c-11.046 0-20 8.954-20 20s8.954 20 20 20h36c11.046 0 20-8.954 20-20s-8.954-20-20-20z"/></g></g></svg>