<svg id="Capa_1" enable-background="new 0 0 512.217 512.217" height="512" viewBox="0 0 512.217 512.217" width="512" xmlns="http://www.w3.org/2000/svg"><g><path d="m420.527 379.702c-9.432-5.745-21.738-2.759-27.486 6.674-20.171 33.107-38.836 68.831-38.836 105.729 0 11.046 8.954 20 20 20s20-8.954 20-20c0-27.033 15.858-56.789 32.996-84.917 5.747-9.434 2.758-21.739-6.674-27.486z"/><g><path d="m199.653 405.067c.092-.388-.116.381 0 0z"/><path d="m493.576 282.908c-5.653 18.647-14.371 38.017-27.436 60.955-5.467 9.598-17.679 12.948-27.277 7.48-9.598-5.467-12.947-17.679-7.48-27.277 50.789-82.48 44.948-206.021 30.799-272.005-1.58-7.947-9.361-13.195-17.35-11.694l-.395.074c-8.886 1.668-12.39 10.413-11.882 17.831.288 4.208.698 8.965 1.174 14.473 4.54 52.613 8.977 156.571-47.793 247.017-5.887 9.348-18.233 12.152-27.581 6.269-9.348-5.886-12.153-18.233-6.269-27.581 16.663-26.465 18.367-44.364 17.899-52.679-.453-8.069-3.215-14.667-7.775-18.578-3.718-3.188-8.502-4.524-14.205-3.967-7.36.716-11.705 5.269-14.053 8.962-1.505 2.366-4.576 13.593-4.924 14.812-15.666 55.042-39.806 87.811-59.202 114.141-13.613 18.48-25.388 34.464-31.502 54.201-2.447 10.473-3.502 21.461-3.315 34.518.234 16.46-6.04 32.021-17.669 43.817-32.094 33.53-90.536 18.717-102.851-25.986-7.452-26.103-24.921-53.729-43.415-82.977-20.372-32.217-41.438-65.53-52.435-101.806-27.6-91.042-19.493-180.038-7.833-238.665 5.834-29.335 34.522-48.708 63.958-43.19 27.754 5.211 46.822 30.467 44.804 59.952-.312 4.56-.757 9.717-1.229 15.176-2.548 29.519-6.445 74.696 2.52 123.519.999-.994 2.036-1.952 3.108-2.872 11.956-10.253 27.62-15.015 44.114-13.415 18 1.751 34.014 11.706 43.938 27.313 4.741 7.459 6.866 15.226 8.74 22.077 3.087 10.848 8.058 25.597 12.674 36.513 4.302 10.174-.458 21.908-10.632 26.21-10.173 4.303-21.909-.458-26.21-10.632-5.242-12.397-9.878-25.502-13.405-37.896-.346-1.216-3.417-12.442-4.923-14.812-2.348-3.692-6.692-8.245-14.054-8.961-5.702-.555-10.486.78-14.204 3.967-4.561 3.911-7.322 10.509-7.775 18.579-.468 8.313 1.236 26.213 17.899 52.678 5.885 9.348 3.079 21.695-6.269 27.581-9.347 5.885-21.695 3.08-27.581-6.269-.753-1.195-3.462-5.143-4.015-6.023-56.77-90.447-48.317-188.383-43.776-240.996.476-5.507.886-10.263 1.174-14.469.508-7.419-2.997-16.164-11.891-17.834l-.386-.072c-7.997-1.504-15.769 3.74-17.347 11.679-10.77 54.146-18.318 136.137 6.881 219.257 9.424 31.086 29.016 62.07 47.963 92.033 20.076 31.75 39.039 61.738 48.07 93.375 4.331 15.643 24.726 20.596 35.903 8.884 4.052-4.11 6.239-9.496 6.158-15.165-.238-16.714 1.299-31.393 4.639-45.362 8.059-26.58 22.7-46.923 37.97-67.65 19.296-26.193 40.151-56.534 53.839-104.625 1.873-6.848 3.997-14.609 8.736-22.064 9.924-15.608 25.938-25.563 43.937-27.314 16.488-1.6 32.157 3.161 44.115 13.415 1.072.92 2.109 1.878 3.108 2.871 8.965-48.82 5.067-93.996 2.521-123.515-.472-5.461-.916-10.618-1.229-15.179-2.02-29.484 17.053-54.742 44.809-59.953 29.428-5.525 58.119 13.857 63.956 43.208 11.658 58.622 19.761 147.613-7.838 238.646z"/></g><path d="m385.937 319.761c-.553.881.753-1.195 0 0z"/></g></svg>