<svg id="Capa_1" enable-background="new 0 0 512 512" height="512" viewBox="0 0 512 512" width="512" xmlns="http://www.w3.org/2000/svg"><g><path d="m356 492c0-11.046-8.954-20-20-20h-160c-11.046 0-20 8.954-20 20s8.954 20 20 20h160c11.046 0 20-8.954 20-20z"/><path d="m256 192c-11.046 0-20 8.954-20 20v80c0 11.046 8.954 20 20 20s20-8.954 20-20v-80c0-11.046-8.954-20-20-20z"/><path d="m492 0c-11.046 0-20 8.954-20 20v20h-159.44c-8.256-23.278-30.487-40-56.56-40s-48.303 16.722-56.56 40h-159.44v-20c0-11.046-8.954-20-20-20s-20 8.954-20 20v80c0 11.046 8.954 20 20 20s20-8.954 20-20v-20h159.44c2.635 7.43 6.691 14.19 11.846 19.953-3.455 3.875-6.45 8.237-8.871 13.034 0 0-80.04 152.08-80.103 152.204-4.13 8.26-6.312 17.53-6.312 26.809s2.183 18.549 6.312 26.809l40 80c10.237 20.473 30.809 33.191 53.688 33.191h80c22.878 0 43.45-12.718 53.688-33.191l40-80c4.13-8.26 6.312-17.53 6.312-26.809s-2.183-18.549-6.312-26.809c-.062-.124-80.103-152.204-80.103-152.204-2.421-4.797-5.417-9.159-8.871-13.034 5.155-5.763 9.21-12.523 11.846-19.953h159.44v20c0 11.046 8.954 20 20 20s20-8.954 20-20v-80c0-11.046-8.954-20-20-20zm-236 40c11.028 0 20 8.972 20 20s-8.972 20-20 20-20-8.972-20-20 8.972-20 20-20zm97.987 243.234c1.336 2.73 2.014 5.679 2.014 8.766 0 3.146-.703 6.146-2.09 8.92l-40 80c-3.417 6.835-10.281 11.08-17.911 11.08h-80c-7.63 0-14.493-4.246-17.91-11.08l-40-80c-1.387-2.773-2.09-5.774-2.09-8.92 0-3.087.677-6.036 2.013-8.766 0 0 80.014-152.03 80.077-152.154 3.417-6.834 10.28-11.08 17.91-11.08s14.494 4.246 17.911 11.08c.062.124 80.076 152.154 80.076 152.154z"/></g></svg>