<svg id="Capa_1" enable-background="new 0 0 511.962 511.962" height="512" viewBox="0 0 511.962 511.962" width="512" xmlns="http://www.w3.org/2000/svg"><g id="Stylus_2_"><g><path d="m41.018 201.362c-11.034 0-19.985-8.937-20-19.974-.048-37.444 14.51-72.649 40.992-99.131 26.438-26.438 61.573-40.992 98.945-40.992h.187c11.046.014 19.988 8.98 19.974 20.026-.014 11.036-8.967 19.973-20 19.974-.053.001-.106 0-.159 0-26.69 0-51.78 10.394-70.663 29.276-18.914 18.914-29.311 44.056-29.276 70.795.014 11.046-8.928 20.012-19.974 20.026-.009 0-.018 0-.026 0z"/></g><g><path d="m121.005 201.251c-11.046 0-20-8.954-20-20 0-16.027 6.241-31.094 17.574-42.427 11.332-11.333 26.399-17.573 42.426-17.573 11.046 0 20 8.954 20 20s-8.954 20-20 20c-5.342 0-10.365 2.08-14.142 5.857-3.777 3.778-5.858 8.8-5.858 14.143 0 11.046-8.954 20-20 20z"/></g><g><path d="m330.761 490.944c-.064 0-.123 0-.187 0-11.046-.014-19.988-8.98-19.974-20.026.014-11.036 8.967-19.974 20-19.974h.159c26.69 0 51.78-10.394 70.663-29.276 18.914-18.914 29.311-44.056 29.276-70.795-.014-11.046 8.928-20.012 19.974-20.026h.026c11.034 0 19.985 8.937 20 19.974.048 37.443-14.509 72.649-40.992 99.131-26.437 26.437-61.573 40.992-98.945 40.992z"/></g><g><path d="m330.71 410.957c-11.046 0-20-8.954-20-20s8.954-20 20-20c5.342 0 10.365-2.081 14.143-5.858 3.777-3.777 5.857-8.8 5.857-14.142 0-11.046 8.954-20 20-20s20 8.954 20 20c0 16.027-6.241 31.094-17.573 42.426-11.332 11.333-26.4 17.574-42.427 17.574z"/></g><path d="m460.284 164.815 28.284-28.284c31.191-31.192 31.191-81.945 0-113.137-31.192-31.192-81.945-31.191-113.137 0l-327.563 327.563c-26.974 26.974-30.055 67.329-12.363 97.215l-29.647 29.648c-7.811 7.811-7.811 20.474 0 28.284 3.905 3.905 9.023 5.858 14.142 5.858s10.237-1.953 14.142-5.858l29.648-29.648c29.9 17.701 70.252 14.601 97.215-12.362l228.568-228.568c7.811-7.811 7.811-20.474 0-28.284s-20.474-7.811-28.284 0l-172 172-56.568-56.569 214.426-214.426 98.995 98.995c7.798 7.798 7.798 20.487 0 28.285l-28.284 28.284c-7.811 7.811-7.811 20.474 0 28.284 7.811 7.811 20.474 7.811 28.284 0l28.285-28.284c23.393-23.394 23.393-61.459 0-84.853zm-299.279 242.71-28.284 28.284c-15.633 15.633-40.935 15.633-56.568 0s-15.633-40.935 0-56.568l28.284-28.284zm242.71-355.847c15.595-15.596 40.971-15.597 56.569 0 15.596 15.596 15.596 40.973 0 56.569l-28.284 28.284-56.569-56.569z"/></g></svg>