<svg id="Capa_1" enable-background="new 0 0 512 512" height="512" viewBox="0 0 512 512" width="512" xmlns="http://www.w3.org/2000/svg"><g id="Pen_2_"><g><path d="m370.036 351.398c-11.332-11.333-17.573-26.4-17.573-42.426 0-16.027 6.241-31.094 17.573-42.427l39.537-39.617c7.802-7.819 20.465-7.832 28.284-.028 7.818 7.802 7.831 20.466.028 28.284l-39.551 39.631c-7.812 7.812-7.812 20.5-.014 28.299 7.81 7.811 7.81 20.474 0 28.284-7.809 7.811-20.473 7.811-28.284 0z"/></g><g><path d="m494.441 113.777-28.284-28.284c-23.395-23.395-61.46-23.394-84.856.002l-242.297 242.378c-34.067 34.066-50.123 81.582-44.077 128.929l-21.056 21.056c-7.811 7.811-7.811 20.474 0 28.284 7.811 7.811 20.474 7.811 28.284 0l21.048-21.048c6.559.838 13.12 1.258 19.652 1.258 40.603 0 79.938-15.995 109.285-45.342l75.47-75.469c7.81-7.811 7.81-20.474 0-28.284-7.811-7.811-20.473-7.81-28.285 0l-27.464 27.464-14.142-14.142c-7.811-7.811-20.474-7.811-28.284 0-7.811 7.81-7.811 20.474 0 28.284l14.142 14.142-19.721 19.721c-23.882 23.882-56.675 35.832-89.851 33.282-2.555-33.176 9.401-65.969 33.285-89.853l242.296-242.377c7.798-7.798 20.487-7.796 28.285 0l28.283 28.284c7.799 7.798 7.799 20.486 0 28.284-7.811 7.811-7.811 20.474 0 28.284s20.475 7.811 28.285 0c23.395-23.394 23.395-61.459.002-84.853z"/><path d="m200.014 180c0 11.046 8.954 20 20 20s20-8.954 20-20v-120c0-33.084-26.916-60-60-60h-120c-33.084 0-60 26.916-60 60v40c0 33.084 26.916 60 60 60h120c11.028 0 20 8.972 20 20zm-160-80v-40c0-11.028 8.972-20 20-20h120c11.028 0 20 8.972 20 20v63.427c-6.258-2.219-12.991-3.427-20-3.427h-120c-11.028 0-20-8.972-20-20z"/></g></g></svg>