<svg id="Capa_1" enable-background="new 0 0 512.091 512.091" height="512" viewBox="0 0 512.091 512.091" width="512" xmlns="http://www.w3.org/2000/svg"><path d="m449.503 57.322-10.77-42.26c-1.653-6.487-6.443-11.717-12.761-13.934-6.316-2.216-13.324-1.124-18.668 2.909l-34.807 26.268c-4.338 3.257-8.415 6.797-12.209 10.587l-6.554-25.72c-1.651-6.479-6.431-11.705-12.737-13.925-6.308-2.223-13.307-1.145-18.652 2.871l-34.874 26.187c-18.071 13.569-31.591 32.009-39.09 53.301l-47.905 135.485h-65.824c-22.19 0-41.325 8.094-53.881 22.79-11.078 12.967-15.692 29.51-12.994 46.58l19.347 122.37c4.46 28.204 18.872 53.951 40.582 72.498 21.71 18.548 49.392 28.762 77.946 28.762h97.996c28.554 0 56.236-10.214 77.946-28.762 21.71-18.547 36.122-44.294 40.581-72.498l19.348-122.37c2.51-15.879-2.588-32.21-14.356-45.985-5.091-5.958-11.014-10.984-17.298-14.831l36.718-104.154c7.507-21.317 8.515-44.198 2.916-66.169zm-163.4 39.594c4.874-13.841 13.653-25.814 25.387-34.625l10.891-8.178 3.363 13.197c3.624 14.22 2.963 29.052-1.911 42.892-.286.811-38.328 108.888-38.328 108.888h-42.601zm115.911 185.298-19.348 122.37c-6.184 39.116-39.415 67.507-79.018 67.507h-97.996c-39.602 0-72.834-28.391-79.019-67.507l-19.347-122.37c-.854-5.404.493-10.367 3.897-14.352 4.832-5.656 13.167-8.771 23.468-8.771h247.604c1.953.02 8.927 2.778 14.6 9.487 2.303 2.721 6.033 8.111 5.159 13.636zm6.847-172.017-38.389 108.894h-42.541l43.198-122.175c4.874-13.841 13.653-25.814 25.426-34.654l10.843-8.183 3.344 13.121c3.642 14.291 2.991 29.162-1.881 42.997zm-322.708 72.479-20.659-59.245c-7.486-21.258-8.504-44.1-2.924-65.999l10.77-42.261c1.651-6.478 6.43-11.704 12.737-13.925 6.309-2.222 13.308-1.143 18.652 2.871l34.874 26.187c18.071 13.569 31.591 32.009 39.098 53.325l.041.116 17.201 49.818c3.604 10.441-1.937 21.827-12.378 25.432-10.444 3.605-21.827-1.937-25.433-12.377l-17.18-49.757c-4.878-13.817-13.649-25.771-25.367-34.57l-10.891-8.178-3.363 13.197c-3.624 14.22-2.963 29.052 1.911 42.892l20.68 59.303c3.637 10.43-1.87 21.833-12.3 25.47-2.179.76-4.401 1.121-6.586 1.121-8.27 0-16.006-5.169-18.883-13.42z"/></svg>