<svg id="Capa_1" enable-background="new 0 0 512 512" height="512" viewBox="0 0 512 512" width="512" xmlns="http://www.w3.org/2000/svg"><g id="Pen"><g><path d="m100 156c-11.046 0-20-8.954-20-20v-40c0-11.028-8.972-20-20-20s-20 8.972-20 20v40c0 11.046-8.954 20-20 20s-20-8.954-20-20v-40c0-33.084 26.916-60 60-60s60 26.916 60 60v40c0 11.046-8.954 20-20 20z"/></g><g><path d="m216 160c-33.084 0-60-26.916-60-60 0-8.237 2.353-23.245 22.7-58.32 10.277-17.717 20.417-32.429 20.844-33.047 3.734-5.406 9.886-8.633 16.456-8.633s12.722 3.227 16.456 8.633c.426.618 10.566 15.33 20.844 33.047 20.347 35.075 22.7 50.083 22.7 58.32 0 33.084-26.916 60-60 60zm0-102.837c-4.443 7.447-19.777 34.125-20 42.86 0 11.005 8.972 19.977 20 19.977 11.022 0 19.991-8.963 20-19.984-.29-8.832-15.463-35.251-20-42.853z"/></g><g><path d="m100 196h-80c-11.046 0-20 8.954-20 20v179.432c0 41.821 16.286 81.139 45.858 110.71 3.905 3.905 9.023 5.858 14.142 5.858s10.237-1.953 14.142-5.858c29.572-29.571 45.858-68.889 45.858-110.71v-179.432c0-11.046-8.954-20-20-20zm-20 199.432c0 23.645-6.993 46.217-20 65.351-13.007-19.134-20-41.705-20-65.351v-159.432h40z"/><path d="m216 160c-33.084 0-60 26.916-60 60v232c0 33.084 26.916 60 60 60s60-26.916 60-60v-232c0-33.084-26.916-60-60-60zm20 292c0 11.028-8.972 20-20 20s-20-8.972-20-20v-232c0-11.028 8.972-20 20-20s20 8.972 20 20z"/><path d="m452 0h-80c-33.084 0-60 26.916-60 60v392c0 33.084 26.916 60 60 60h80c33.084 0 60-26.916 60-60v-392c0-33.084-26.916-60-60-60zm20 452c0 11.028-8.972 20-20 20h-80c-11.028 0-20-8.972-20-20v-16h60c11.046 0 20-8.954 20-20s-8.954-20-20-20h-60v-40h20c11.046 0 20-8.954 20-20s-8.954-20-20-20h-20v-40h60c11.046 0 20-8.954 20-20s-8.954-20-20-20h-60v-40h20c11.046 0 20-8.954 20-20s-8.954-20-20-20h-20v-40h60c11.046 0 20-8.954 20-20s-8.954-20-20-20h-60v-16c0-11.028 8.972-20 20-20h80c11.028 0 20 8.972 20 20z"/></g></g></svg>