<svg id="Capa_1" enable-background="new 0 0 512 512" height="512" viewBox="0 0 512 512" width="512" xmlns="http://www.w3.org/2000/svg"><path d="m512 219.981v172c0 66.168-53.832 120-120 120h-272c-66.168 0-120-53.832-120-120v-176c0-66.168 53.832-120 120-120 11.046 0 20 8.954 20 20s-8.954 20-20 20c-44.112 0-80 35.888-80 80v176c0 44.112 35.888 80 80 80h272c44.112 0 80-35.888 80-80v-172c0-11.046 8.954-20 20-20s20 8.954 20 20zm-427.189 2.905 201.023-202.356c27.34-27.339 71.749-27.34 99.042-.047l29.021 29.021c8.237-3.596 16.887-6.319 25.83-8.107.083-.017 48.602-9.077 48.602-9.077 6.54-1.225 13.259.89 17.926 5.632s6.67 11.494 5.344 18.014l-9.696 47.685c-4.883 24.427-16.795 46.712-34.438 64.388l-55.674 56.87c12.188 8.282 20.209 22.258 20.209 38.072v54c0 11.046-8.954 20-20 20s-20-8.954-20-20v-54c0-3.309-2.691-6-6-6h-287c-8.077 0-15.362-4.858-18.465-12.316-3.103-7.457-1.416-16.049 4.276-21.779zm205.898-5.905h72.867l75.372-76.991c.049-.05.099-.101.149-.151 12.086-12.086 20.245-27.333 23.595-44.093l3.793-18.655-19.036 3.554c-16.714 3.365-31.918 11.514-43.975 23.571zm-143.649 0h87.081l141.049-141.049c1.432-1.432 2.894-2.826 4.384-4.181l-22.982-22.983c-11.698-11.698-30.729-11.698-42.426 0l-24.617 24.78 14.444 14.144c7.892 7.728 8.025 20.391.297 28.283-7.728 7.893-20.39 8.026-28.283.297l-14.65-14.345-28.149 28.336 12.733 12.379c7.92 7.7 8.098 20.362.399 28.282s-20.36 8.1-28.282.398l-13.043-12.68z"/></svg>