<svg id="Capa_1" enable-background="new 0 0 512.039 512.039" height="512" viewBox="0 0 512.039 512.039" width="512" xmlns="http://www.w3.org/2000/svg"><path d="m418.267 136.202-91.679-88.471c-23.771-23.624-62.312-23.604-86.056.061l-90.53 88.951c-7.879 7.742-7.99 20.404-.249 28.283s20.405 7.99 28.283.249l90.58-89c.042-.041.083-.083.125-.124 8.188-8.187 21.51-8.188 29.699 0 .084.084.168.167.254.25l13.159 12.698-225.829 224.167c-22.569 22.569-37.805 51.042-44.061 82.339-.017.088-.034.176-.051.264l-10.574 56.881-25.372 25.059c-7.859 7.762-7.938 20.425-.176 28.284 3.913 3.962 9.07 5.946 14.231 5.946 5.076 0 10.155-1.921 14.053-5.77l25.47-25.155 57.015-10.6c.088-.017.176-.033.264-.051 31.298-6.255 59.771-21.491 82.335-44.056l219.384-219.264c19.474-19.496 19.465-51.208-.021-70.692-.085-.084-.169-.167-.254-.249zm-28.014 42.661-219.376 219.256c-16.935 16.935-38.291 28.377-61.769 33.095l-34.266 6.37 6.37-34.266c4.718-23.477 16.16-44.833 33.043-61.716l226.387-224.721 49.685 47.946c3.807 3.905 3.779 10.179-.074 14.036zm115.908-59.721c-3.905 3.905-9.023 5.858-14.142 5.858s-10.237-1.953-14.142-5.858l-17.427-17.427-8.164 8.31c-3.739 3.806-8.843 5.96-14.178 5.984h-.089c-5.304 0-10.391-2.106-14.142-5.858l-21-21c-7.762-7.762-7.817-20.328-.125-28.158l8.413-8.563-18.288-18.288c-7.811-7.811-7.811-20.474 0-28.284s20.474-7.811 28.284 0l85 85c7.811 7.81 7.811 20.474 0 28.284z"/></svg>