<svg id="Capa_1" enable-background="new 0 0 512 512" height="512" viewBox="0 0 512 512" width="512" xmlns="http://www.w3.org/2000/svg"><g id="Pendrive_2_"><path d="m336 160h-140v-100c0-11.028 8.972-20 20-20h20v60c0 11.046 8.954 20 20 20s20-8.954 20-20v-60h20c11.028 0 20 8.972 20 20v40c0 11.046 8.954 20 20 20s20-8.954 20-20v-40c0-33.084-26.916-60-60-60h-80c-33.084 0-60 26.916-60 60v103.44c-23.278 8.256-40 30.487-40 56.56v192c0 55.14 44.86 100 100 100h80c55.14 0 100-44.86 100-100v-192c0-33.084-26.916-60-60-60zm20 252c0 33.084-26.916 60-60 60h-80c-33.084 0-60-26.916-60-60v-192c0-11.028 8.972-20 20-20h160c11.028 0 20 8.972 20 20z"/><g><path d="m296 432h-80c-11.046 0-20-8.954-20-20s8.954-20 20-20h80c11.046 0 20 8.954 20 20s-8.954 20-20 20z"/></g></g></svg>