<svg id="Capa_1" enable-background="new 0 0 512 512" height="512" viewBox="0 0 512 512" width="512" xmlns="http://www.w3.org/2000/svg"><g id="Pendrive_1_"><path d="m256 123.44v-63.44c0-33.084-26.916-60-60-60h-80c-33.084 0-60 26.916-60 60v63.44c-23.278 8.256-40 30.487-40 56.56v192c0 77.196 62.804 140 140 140 2.626 0 5.284-.074 7.9-.22 11.028-.615 19.471-10.053 18.855-21.082-.615-11.028-10.023-19.472-21.082-18.856-1.877.105-3.785.158-5.673.158-55.141 0-100-44.86-100-100v-192c0-11.028 8.972-20 20-20h160c11.028 0 20 8.972 20 20v88.703c0 11.046 8.954 20 20 20s20-8.954 20-20v-88.703c0-26.073-16.722-48.303-40-56.56zm-140-83.44h20v20c0 11.046 8.954 20 20 20s20-8.954 20-20v-20h20c11.028 0 20 8.972 20 20v60h-120v-60c0-11.028 8.972-20 20-20z"/><g><path d="m436 512h-160c-33.084 0-60-26.916-60-60 0-77.196 62.804-140 140-140s140 62.804 140 140c0 33.084-26.916 60-60 60zm-80-160c-55.141 0-100 44.86-100 100 0 11.028 8.972 20 20 20h160c11.028 0 20-8.972 20-20 0-55.14-44.859-100-100-100z"/></g></g></svg>