<svg id="Capa_1" enable-background="new 0 0 512 512" height="512" viewBox="0 0 512 512" width="512" xmlns="http://www.w3.org/2000/svg"><g id="Power_Bank_1_"><g><path d="m166.686 269.698c-9.775-5.144-13.528-17.239-8.384-27.013l24.571-46.685h-46.873c-7.006 0-13.501-3.666-17.122-9.663-3.62-5.998-3.839-13.452-.576-19.652l40-76c5.145-9.774 17.24-13.529 27.013-8.383 9.775 5.144 13.528 17.239 8.384 27.013l-24.572 46.685h46.873c7.006 0 13.501 3.666 17.122 9.663 3.62 5.998 3.839 13.452.576 19.652l-40 76c-5.143 9.772-17.241 13.528-27.012 8.383z"/></g><g><path d="m456 155.44v-23.44c0-11.046-8.954-20-20-20s-20 8.954-20 20v23.44c-23.278 8.256-40 30.487-40 56.56v40c0 26.073 16.722 48.303 40 56.56v143.44c0 11.028-8.972 20-20 20h-120c-11.028 0-20-8.972-20-20v-20h20c33.084 0 60-26.916 60-60v-312c0-33.084-26.916-60-60-60h-200c-33.084 0-60 26.916-60 60v312c0 33.084 26.916 60 60 60h80c11.046 0 20-8.954 20-20s-8.954-20-20-20h-80c-11.028 0-20-8.972-20-20v-312c0-11.028 8.972-20 20-20h200c11.028 0 20 8.972 20 20v312c0 11.028-8.972 20-20 20h-40c-11.046 0-20 8.954-20 20v40c0 33.084 26.916 60 60 60h120c33.084 0 60-26.916 60-60v-143.44c23.278-8.256 40-30.487 40-56.56v-40c0-26.073-16.722-48.303-40-56.56zm0 96.56c0 11.028-8.972 20-20 20s-20-8.972-20-20v-40c0-11.028 8.972-20 20-20s20 8.972 20 20z"/><circle cx="136" cy="332" r="20"/><circle cx="216" cy="332" r="20"/></g></g></svg>