<svg id="Capa_1" enable-background="new 0 0 512.031 512.031" height="512" viewBox="0 0 512.031 512.031" width="512" xmlns="http://www.w3.org/2000/svg"><g id="Power"><path d="m495.006 333.707-33.278-99.841c-3.629-10.887-5.395-22.746-6.929-37.203-6.541-61.62-39.214-117.991-89.643-154.66-50.992-37.079-113.653-50.214-176.447-36.986-85.401 17.991-153.304 88.005-168.968 174.22-6.626 36.471-4.446 72.445 6.477 106.923 10.247 32.344 28.267 62.39 52.11 86.888 11.414 11.728 17.7 26.73 17.701 42.243l.001 36.743c.001 33.083 26.917 59.998 60 59.998h200.002c33.084 0 60-26.916 60-60v-32c0-11.046-8.954-20-20-20h-40c-11.046 0-20 8.954-20 20s8.954 20 20 20h20v12c0 11.028-8.972 20-20 20h-200.002c-11.027 0-20-8.972-20-19.999l-.001-36.743c-.001-25.993-10.313-50.902-29.037-70.14-41.097-42.226-58.554-100.092-47.896-158.762 12.79-70.395 68.19-127.552 137.858-142.229 51.573-10.864 102.955-.141 144.677 30.197 41.292 30.025 68.042 76.144 73.39 126.53 1.459 13.74 3.459 29.73 8.759 45.63l24.504 73.517h-52.252c-11.046 0-20 8.954-20 20s8.954 20 20 20h80c6.429 0 12.466-3.09 16.225-8.306s4.782-11.921 2.749-18.02z"/><g><path d="m236.032 240.031c-11.046 0-20-8.954-20-20v-120c0-11.046 8.954-20 20-20s20 8.954 20 20v120c0 11.046-8.954 20-20 20z"/></g><g><path d="m236.032 339.974c-30.729 0-61.459-11.697-84.853-35.091-46.788-46.788-46.788-122.917-.001-169.705 7.811-7.811 20.475-7.811 28.285 0s7.81 20.474 0 28.284c-31.192 31.192-31.192 81.945 0 113.137 15.594 15.594 36.084 23.392 56.568 23.394 20.489.002 40.971-7.796 56.569-23.394 31.191-31.192 31.191-81.945-.001-113.137-7.81-7.811-7.81-20.474 0-28.284 7.811-7.811 20.475-7.811 28.285 0 46.787 46.788 46.787 122.917 0 169.705-23.393 23.394-54.122 35.091-84.852 35.091z"/></g></g></svg>