<svg id="Capa_1" enable-background="new 0 0 512.016 512.016" height="512" viewBox="0 0 512.016 512.016" width="512" xmlns="http://www.w3.org/2000/svg"><g><path d="m159.009 381.312 16.574-16.574c22.31 10.627 49.83 6.739 68.279-11.71 23.393-23.394 23.393-61.458 0-84.852-7.817-7.816-7.817-20.468 0-28.285s20.467-7.816 28.284.001c4.49 4.49 6.552 10.681 5.656 16.986-1.553 10.936 6.055 21.06 16.99 22.613 10.938 1.551 21.06-6.054 22.613-16.99 1.673-11.785-.273-23.738-5.292-34.293l16.601-16.601c7.81-7.811 7.81-20.474-.001-28.284-7.809-7.811-20.474-7.811-28.284 0l-16.549 16.549c-21.848-10.458-49.486-7.083-68.302 11.735-23.45 23.449-23.45 61.403-.001 84.853 7.798 7.798 7.798 20.487 0 28.284-7.797 7.798-20.484 7.798-28.282.003-.001-.001-.001-.002-.002-.003s-.002-.002-.003-.003c-4.488-4.49-6.549-10.68-5.654-16.982 1.554-10.936-6.052-21.061-16.987-22.614s-21.061 6.052-22.614 16.988c-1.675 11.785.271 23.738 5.291 34.294l-16.601 16.601c-7.81 7.811-7.81 20.474 0 28.284 7.809 7.81 20.473 7.81 28.284 0z"/><path d="m477.873 34.162-28.283-28.283c-7.812-7.811-20.474-7.81-28.285 0-7.81 7.81-7.811 20.474 0 28.284l14.142 14.142-37.023 37.023c-54.483-40.918-132.666-37.039-182.847 13.141l-197.989 197.99c-23.45 23.449-23.45 61.403-.001 84.853l113.137 113.137c23.394 23.394 61.459 23.395 84.854 0l197.988-197.99c28.124-28.124 42.992-67.043 40.791-106.779-.611-11.029-10.024-19.477-21.076-18.863-11.028.611-19.474 10.047-18.863 21.075 1.573 28.39-9.047 56.194-29.136 76.282l-197.989 197.99c-7.796 7.797-20.486 7.799-28.284 0l-113.138-113.137c-7.816-7.817-7.816-20.469.001-28.284l197.99-197.99c34.516-34.518 87.438-38.252 125.87-12.734l-12.734 12.734c-7.811 7.811-7.811 20.474 0 28.284 7.81 7.81 20.475 7.81 28.285 0l78.448-78.448 14.142 14.142c7.812 7.811 20.474 7.811 28.285 0 7.81-7.81 7.811-20.474 0-28.284z"/></g></svg>