<svg id="Capa_1" enable-background="new 0 0 511.972 511.972" height="512" viewBox="0 0 511.972 511.972" width="512" xmlns="http://www.w3.org/2000/svg"><g><path d="m328.672 183.299c-7.811-7.811-20.474-7.811-28.284 0l-16.55 16.55c-21.83-10.45-49.471-7.097-68.303 11.734-23.45 23.45-23.45 61.403 0 84.853 7.816 7.816 7.817 20.468 0 28.284-7.817 7.817-20.469 7.817-28.285 0-4.49-4.49-6.552-10.681-5.657-16.985 1.553-10.936-6.053-21.061-16.989-22.614-10.941-1.552-21.061 6.053-22.614 16.989-1.674 11.786.272 23.738 5.292 34.294l-16.601 16.601c-7.811 7.811-7.811 20.474 0 28.284 7.811 7.811 20.474 7.811 28.284 0l16.55-16.55c21.83 10.45 49.471 7.097 68.303-11.734 23.45-23.45 23.45-61.403 0-84.853-7.816-7.816-7.817-20.468 0-28.284 7.817-7.817 20.469-7.817 28.285 0 4.49 4.49 6.552 10.681 5.657 16.985-1.553 10.936 6.053 21.061 16.989 22.614 10.94 1.548 21.061-6.054 22.614-16.989 1.674-11.786-.272-23.738-5.292-34.294l16.601-16.601c7.811-7.81 7.811-20.473 0-28.284z"/><path d="m477.83 5.858-79.448 79.448c-54.482-40.918-132.666-37.041-182.847 13.141l-197.99 197.99c-23.394 23.394-23.394 61.459 0 84.853l113.137 113.137c23.393 23.394 61.459 23.394 84.853 0l197.99-197.99c28.124-28.124 42.991-67.043 40.79-106.779-.611-11.03-10.066-19.477-21.075-18.863-11.029.611-19.475 10.047-18.863 21.076 1.573 28.39-9.047 56.194-29.135 76.282l-197.99 197.99c-7.798 7.798-20.487 7.797-28.285 0l-113.137-113.138c-7.798-7.798-7.798-20.486 0-28.285l197.99-197.99c34.511-34.511 87.429-38.259 125.871-12.733l-12.734 12.733c-7.811 7.811-7.811 20.474 0 28.284 7.811 7.811 20.474 7.811 28.284 0l120.873-120.872c7.811-7.811 7.811-20.474 0-28.284s-20.474-7.811-28.284 0z"/></g></svg>