<svg id="Capa_1" enable-background="new 0 0 512 512" height="512" viewBox="0 0 512 512" width="512" xmlns="http://www.w3.org/2000/svg"><g><path d="m316 216c0-33.084-26.916-60-60-60s-60 26.916-60 60 26.916 60 60 60 60-26.916 60-60zm-60 20c-11.028 0-20-8.972-20-20s8.972-20 20-20 20 8.972 20 20-8.972 20-20 20z"/><path d="m158.111 327.056 35.777 17.889-.134.261c.643-1.193 16.276-29.206 62.246-29.206s61.603 28.013 62.246 29.206l-.134-.261 35.777-17.889c-1.043-2.085-26.351-51.056-97.889-51.056s-96.846 48.971-97.889 51.056z"/><path d="m196 392c-11.046 0-20 8.954-20 20s8.954 20 20 20h120c11.046 0 20-8.954 20-20s-8.954-20-20-20z"/><path d="m336 20c0-11.046-8.954-20-20-20s-20 8.954-20 20v40c0 11.028-8.972 20-20 20h-40c-11.028 0-20-8.972-20-20v-40c0-11.046-8.954-20-20-20s-20 8.954-20 20v20h-60c-33.084 0-60 26.916-60 60v352c0 33.084 26.916 60 60 60h280c33.084 0 60-26.916 60-60v-352c0-33.084-26.916-60-60-60-11.046 0-20 8.954-20 20s8.954 20 20 20c11.028 0 20 8.972 20 20v352c0 11.028-8.972 20-20 20h-280c-11.028 0-20-8.972-20-20v-352c0-11.028 8.972-20 20-20h63.44c8.256 23.278 30.487 40 56.56 40h40c33.084 0 60-26.916 60-60z"/></g></svg>