<svg id="Capa_1" enable-background="new 0 0 512 512" height="512" viewBox="0 0 512 512" width="512" xmlns="http://www.w3.org/2000/svg"><g id="Question"><g><path d="m492 200c-11.046 0-20-8.954-20-20 0-77.196-62.804-140-140-140-11.046 0-20-8.954-20-20s8.954-20 20-20c99.252 0 180 80.748 180 180 0 11.046-8.954 20-20 20z"/></g><g><path d="m412 200c-11.046 0-20-8.954-20-20 0-33.084-26.916-60-60-60-11.046 0-20-8.954-20-20s8.954-20 20-20c55.141 0 100 44.86 100 100 0 11.046-8.954 20-20 20z"/></g><g><circle cx="332" cy="180" r="20"/></g><g><path d="m200 352c-11.046 0-20-8.954-20-20v-10.913c0-22.178 11.222-41.86 29.287-51.365 6.608-3.477 10.713-10.268 10.713-17.722 0-11.028-8.972-20-20-20s-20 8.972-20 20c0 11.046-8.954 20-20 20s-20-8.954-20-20c0-33.084 26.916-60 60-60s60 26.916 60 60c0 22.352-12.295 42.707-32.087 53.121-4.733 2.49-7.913 8.906-7.913 15.966v10.913c0 11.046-8.954 20-20 20z"/></g><g><circle cx="200" cy="412" r="20"/></g><g><path d="m380 512h-180c-53.513 0-103.763-20.779-141.492-58.508s-58.508-87.979-58.508-141.492c0-53.739 20.833-103.932 58.658-141.342 37.41-37.826 87.603-58.658 141.342-58.658 24.932 0 49.244 4.516 72.262 13.423 10.301 3.986 15.421 15.569 11.435 25.87s-15.567 15.421-25.87 11.435c-18.395-7.119-37.851-10.728-57.827-10.728-43.004 0-83.125 16.64-112.971 46.855-.058.058-.115.116-.174.174-30.214 29.846-46.855 69.967-46.855 112.971 0 88.224 71.775 160 160 160h135.117l-19.988-22.227c-7.046-7.835-6.805-19.792.552-27.336 28.58-29.311 44.319-68.532 44.319-110.437 0-19.959-3.604-39.4-10.71-57.781-3.983-10.302 1.14-21.883 11.442-25.866 10.303-3.984 21.884 1.14 25.866 11.442 8.893 23 13.402 47.293 13.402 72.205 0 45.977-15.222 89.44-43.209 124.281l38.08 42.346c5.28 5.872 6.611 14.301 3.397 21.514-3.213 7.213-10.372 11.859-18.268 11.859z"/></g></g></svg>