<svg id="Capa_1" enable-background="new 0 0 512.031 512.031" height="512" viewBox="0 0 512.031 512.031" width="512" xmlns="http://www.w3.org/2000/svg"><g id="Question"><path d="m495.006 333.707-33.279-99.84c-3.629-10.889-5.395-22.748-6.929-37.204-6.541-61.62-39.213-117.991-89.642-154.66-50.992-37.079-113.656-50.214-176.447-36.986-85.402 17.991-153.305 88.005-168.967 174.22-6.626 36.471-4.447 72.445 6.476 106.923 10.247 32.344 28.267 62.39 52.11 86.888 11.414 11.727 17.7 26.729 17.701 42.243l.002 36.743c.001 33.083 26.917 59.998 60 59.998h200.001c33.084 0 60-26.916 60-60v-32c0-11.046-8.954-20-20-20h-40c-11.046 0-20 8.954-20 20s8.954 20 20 20h20v12c0 11.028-8.972 20-20 20h-200.001c-11.027 0-20-8.972-20-20l-.002-36.742c0-25.993-10.312-50.903-29.036-70.14-41.097-42.226-58.555-100.092-47.896-158.762 12.789-70.395 68.189-127.552 137.858-142.229 51.574-10.865 102.954-.141 144.677 30.197 41.292 30.025 68.042 76.144 73.39 126.53 1.458 13.738 3.458 29.727 8.758 45.63l24.504 73.516h-52.252c-11.046 0-20 8.954-20 20s8.954 20 20 20h80c6.429 0 12.466-3.09 16.225-8.306s4.782-11.92 2.749-18.019z"/><g><circle cx="236.032" cy="340.031" r="20"/></g><g><path d="m236.032 280.031c-11.046 0-20-8.954-20-20v-.944c0-24.728 11.9-48.253 31.833-62.929 5.19-3.821 8.167-9.699 8.167-16.127 0-11.028-8.972-20-20-20s-20 8.972-20 20c0 11.046-8.954 20-20 20s-20-8.954-20-20c0-33.084 26.916-60 60-60s60 26.916 60 60c0 18.996-9.141 37.066-24.451 48.338-9.736 7.168-15.549 18.652-15.549 30.718v.944c0 11.046-8.954 20-20 20z"/></g></g></svg>