<svg id="Capa_1" enable-background="new 0 0 512 512" height="512" viewBox="0 0 512 512" width="512" xmlns="http://www.w3.org/2000/svg"><g id="Question_2_"><g><path d="m492 512c-11.046 0-20-8.954-20-20 0-11.028-8.972-20-20-20h-200c-28.424 0-53.153-20.196-58.8-48.022-2.197-10.825 4.797-21.381 15.623-23.579 10.825-2.194 21.382 4.798 23.579 15.623 1.878 9.259 10.121 15.978 19.598 15.978h200c7.009 0 13.742 1.208 20 3.427v-263.427c0-11.028-8.972-20-20-20h-32c-11.046 0-20-8.954-20-20s8.954-20 20-20h32c33.084 0 60 26.916 60 60v320c0 11.046-8.954 20-20 20z"/></g><g><path d="m20 400c-11.046 0-20-8.954-20-20v-320c0-33.084 26.916-60 60-60h240c33.084 0 60 26.916 60 60v240c0 33.084-26.916 60-60 60h-240c-11.028 0-20 8.972-20 20 0 11.046-8.954 20-20 20zm40-360c-11.028 0-20 8.972-20 20v263.427c6.258-2.219 12.991-3.427 20-3.427h240c11.028 0 20-8.972 20-20v-240c0-11.028-8.972-20-20-20z"/></g><g><path d="m180 220c-11.046 0-20-8.954-20-20v-3.175c0-16.989 10.749-32.255 26.747-37.985 7.927-2.84 13.253-10.411 13.253-18.84 0-11.028-8.972-20-20-20s-20 8.972-20 20c0 11.046-8.954 20-20 20s-20-8.954-20-20c0-33.084 26.916-60 60-60s60 26.916 60 60c0 25.272-15.98 47.976-39.764 56.496-.137.049-.236.187-.236.329v3.175c0 11.046-8.954 20-20 20z"/></g><g><circle cx="180" cy="260" r="20"/></g></g></svg>