<svg id="Capa_1" enable-background="new 0 0 512 512" height="512" viewBox="0 0 512 512" width="512" xmlns="http://www.w3.org/2000/svg"><g><path d="m160 160c11.046 0 20-8.954 20-20 0-11.028 8.972-20 20-20s20 8.972 20 20c0 7.454-4.105 14.245-10.713 17.722-18.065 9.505-29.287 29.187-29.287 51.365v10.913c0 11.046 8.954 20 20 20s20-8.954 20-20v-10.913c0-7.059 3.18-13.475 7.913-15.966 19.792-10.414 32.087-30.769 32.087-53.121 0-33.084-26.916-60-60-60s-60 26.916-60 60c0 11.046 8.954 20 20 20z"/><circle cx="200" cy="300" r="20"/><path d="m437.027 198.994c-7.823 7.798-7.842 20.462-.044 28.284 22.581 22.65 35.017 52.738 35.017 84.722v123.427c-6.258-2.219-12.991-3.427-20-3.427h-100c-20.128 0-40.029-5.073-57.553-14.671-9.686-5.306-21.842-1.754-27.148 7.933-5.307 9.688-1.755 21.843 7.934 27.149 23.396 12.815 49.942 19.589 76.767 19.589h100c11.028 0 20 8.972 20 20 0 11.046 8.954 20 20 20s20-8.954 20-20v-180c0-42.645-16.581-82.762-46.688-112.962-7.799-7.824-20.462-7.842-28.285-.044z"/><path d="m20 440c11.046 0 20-8.954 20-20 0-11.028 8.972-20 20-20h140c110.28 0 200-89.72 200-200 0-110.281-89.72-200-200-200s-200 89.719-200 200v220c0 11.046 8.954 20 20 20zm20-240c0-88.224 71.775-160 160-160s160 71.776 160 160-71.775 160-160 160h-140c-7.009 0-13.742 1.208-20 3.427z"/></g></svg>