<svg id="Capa_1" enable-background="new 0 0 512 512" height="512" viewBox="0 0 512 512" width="512" xmlns="http://www.w3.org/2000/svg"><path d="m392 108h-272c-66.168 0-120 53.832-120 120v164c0 66.168 53.832 120 120 120h272c66.168 0 120-53.832 120-120v-164c0-66.168-53.832-120-120-120zm80 284c0 44.112-35.888 80-80 80h-272c-44.112 0-80-35.888-80-80v-164c0-44.112 35.888-80 80-80h272c44.112 0 80 35.888 80 80zm-149.069-141.38c1.055 22.94-9.865 44.446-29.211 57.528-10.5 7.1-16.768 18.633-16.768 30.852 0 11.046-8.955 20-20 20s-20-8.954-20-20c0-25.518 12.846-49.438 34.362-63.987 7.71-5.213 12.069-13.646 11.659-22.555-.602-13.087-11.488-23.817-24.782-24.43-7.44-.32-14.41 2.215-19.627 7.197-4.908 4.688-7.611 11-7.611 17.774 0 11.046-8.955 20-20 20s-20-8.954-20-20c0-17.808 7.097-34.393 19.984-46.701 13.006-12.421 30.909-19.076 49.093-18.228 33.729 1.553 61.359 29.028 62.901 62.55zm-240.931-190.62c0-33.084 26.916-60 60-60s60 26.916 60 60c0 11.046-8.954 20-20 20s-20-8.954-20-20c0-11.028-8.972-20-20-20s-20 8.972-20 20c0 11.046-8.954 20-20 20s-20-8.954-20-20zm230 0c0-33.084 26.916-60 60-60s60 26.916 60 60c0 11.046-8.954 20-20 20s-20-8.954-20-20c0-11.028-8.972-20-20-20s-20 8.972-20 20c0 11.046-8.954 20-20 20s-20-8.954-20-20zm-34.98 354c0 11.046-8.954 20-20 20s-20.005-8.954-20.005-20 8.949-20 19.995-20h.01c11.046 0 20 8.954 20 20z"/></svg>