<svg id="Capa_1" enable-background="new 0 0 512 512" height="512" viewBox="0 0 512 512" width="512" xmlns="http://www.w3.org/2000/svg"><g><path d="m80 277.991v42.009c0 8.089 4.873 15.382 12.347 18.478 7.474 3.095 16.076 1.384 21.796-4.335l54.141-54.143h87.716c55.141 0 100-44.86 100-100v-80c0-55.14-44.859-100-100-100h-156c-55.14 0-100 44.86-100 100v80c0 48.292 34.412 88.698 80 97.991zm-40-177.991c0-33.084 26.916-60 60-60h156c33.084 0 60 26.916 60 60v80c0 33.084-26.916 60-60 60h-96c-5.305 0-10.392 2.107-14.143 5.858l-25.857 25.858v-11.716c0-11.046-8.954-20-20-20-33.084 0-60-26.916-60-60z"/><path d="m412 180h-1.244c-11.046 0-20 8.954-20 20s8.954 20 20 20h1.244c33.084 0 60 26.916 60 60v72c0 33.084-26.916 60-60 60-11.046 0-20 8.954-20 20v11.716l-25.857-25.858c-3.751-3.751-8.838-5.858-14.143-5.858h-96c-33.084 0-60-26.916-60-60v-6.855c0-11.046-8.954-20-20-20s-20 8.954-20 20v6.855c0 55.14 44.859 100 100 100h87.716l54.142 54.142c5.743 5.742 14.351 7.42 21.796 4.335 7.473-3.095 12.346-10.388 12.346-18.477v-42.009c45.588-9.292 80-49.699 80-97.991v-72c0-55.14-44.859-100-100-100z"/><path d="m100 120h156c11.046 0 20-8.954 20-20s-8.954-20-20-20h-156c-11.046 0-20 8.954-20 20s8.954 20 20 20z"/><path d="m256 200c11.046 0 20-8.954 20-20s-8.954-20-20-20h-156c-11.046 0-20 8.954-20 20s8.954 20 20 20z"/></g></svg>