<svg id="Capa_1" enable-background="new 0 0 512 512" height="512" viewBox="0 0 512 512" width="512" xmlns="http://www.w3.org/2000/svg"><g><circle cx="176" cy="396" r="20"/><path d="m187.833 252.127c-19.933 14.676-31.833 38.201-31.833 62.929v.944c0 11.046 8.954 20 20 20s20-8.954 20-20v-.944c0-12.066 5.813-23.549 15.549-30.717 15.31-11.273 24.451-29.343 24.451-48.339 0-33.084-26.916-60-60-60s-60 26.916-60 60c0 11.046 8.954 20 20 20s20-8.954 20-20c0-11.028 8.972-20 20-20s20 8.972 20 20c0 6.428-2.977 12.306-8.167 16.127z"/><path d="m356 60c0-33.084-26.916-60-60-60h-80c-26.073 0-48.303 16.722-56.56 40h-63.44c-33.084 0-60 26.916-60 60v352c0 33.084 26.916 60 60 60h320c33.084 0 60-26.916 60-60v-352c0-33.084-26.916-60-60-60-11.046 0-20 8.954-20 20s8.954 20 20 20c11.028 0 20 8.972 20 20v352c0 11.028-8.972 20-20 20h-320c-11.028 0-20-8.972-20-20v-352c0-11.028 8.972-20 20-20h63.44c8.256 23.278 30.487 40 56.56 40h80c33.084 0 60-26.916 60-60zm-160 0c0-11.028 8.972-20 20-20h80c11.028 0 20 8.972 20 20s-8.972 20-20 20h-80c-11.028 0-20-8.972-20-20z"/><path d="m376 196h-80c-11.046 0-20 8.954-20 20s8.954 20 20 20h80c11.046 0 20-8.954 20-20s-8.954-20-20-20z"/><path d="m376 276h-80c-11.046 0-20 8.954-20 20s8.954 20 20 20h80c11.046 0 20-8.954 20-20s-8.954-20-20-20z"/><path d="m376 356h-80c-11.046 0-20 8.954-20 20s8.954 20 20 20h80c11.046 0 20-8.954 20-20s-8.954-20-20-20z"/></g></svg>