<svg id="Capa_1" enable-background="new 0 0 512 512" height="512" viewBox="0 0 512 512" width="512" xmlns="http://www.w3.org/2000/svg"><g id="Research"><g><path d="m367.75 240.202c-10.935 1.564-18.53 11.697-16.966 22.631.807 5.641 1.216 11.417 1.216 17.167 0 66.168-53.832 120-120 120s-120-53.832-120-120c0-46.097 26.92-88.671 68.582-108.462 9.977-4.739 14.223-16.67 9.483-26.647-4.74-9.978-16.669-14.224-26.647-9.483-26.949 12.803-49.759 32.849-65.962 57.972-16.654 25.819-25.456 55.772-25.456 86.62 0 36.919 12.575 70.953 33.659 98.057l-99.801 99.801c-7.811 7.811-7.811 20.474 0 28.284 7.811 7.811 20.474 7.811 28.284 0l99.801-99.801c27.104 21.084 61.138 33.659 98.057 33.659 88.224 0 160-71.776 160-160 0-7.639-.545-15.321-1.62-22.833-1.564-10.934-11.688-18.534-22.63-16.965z"/><path d="m452 0h-160c-33.084 0-60 26.916-60 60v160c0 11.046 8.954 20 20 20s20-8.954 20-20c0-11.028 8.972-20 20-20h160c33.084 0 60-26.916 60-60v-80c0-33.084-26.916-60-60-60zm20 140c0 11.028-8.972 20-20 20h-160c-7.009 0-13.742 1.208-20 3.427v-103.427c0-11.028 8.972-20 20-20h160c11.028 0 20 8.972 20 20z"/></g><g><circle cx="332" cy="100" r="20"/></g><g><circle cx="412" cy="100" r="20"/></g></g></svg>