<svg id="Capa_1" enable-background="new 0 0 512.013 512.013" height="512" viewBox="0 0 512.013 512.013" width="512" xmlns="http://www.w3.org/2000/svg"><g><path d="m332.013 0c-99.252 0-180 80.748-180 180 0 41.348 13.85 80.57 39.35 112.365l-33.473 33.474c-21.849-10.459-49.486-7.082-68.303 11.735l-72 72c-23.45 23.45-23.45 61.403 0 84.853s61.403 23.45 84.853 0l72-72c18.826-18.826 22.189-46.464 11.735-68.303l46.844-46.844c7.811-7.811 7.811-20.474 0-28.284-26.442-26.443-41.005-61.6-41.005-98.995 0-77.196 62.804-140 140-140s140 62.804 140 140-62.804 140-140 140c-12.312 0-24.52-1.596-36.285-4.743-10.673-2.854-21.635 3.482-24.489 14.153-2.854 10.67 3.482 21.635 14.152 24.489 15.135 4.049 30.821 6.102 46.622 6.102 99.252 0 180-80.748 180-180s-80.748-180.002-180.001-180.002zm-185.857 394.142-72 72c-7.798 7.798-20.486 7.798-28.284 0-7.817-7.818-7.817-20.467 0-28.284l72-72c7.798-7.798 20.486-7.798 28.284 0 7.816 7.817 7.816 20.467 0 28.284z"/><path d="m392.013 260c0-32.165-16.606-57.624-34.268-80 17.662-22.376 34.268-47.835 34.268-80 0-11.046-8.954-20-20-20s-20 8.954-20 20c0 16.978-8.562 32.421-20 47.842-11.438-15.421-20-30.864-20-47.842 0-11.046-8.954-20-20-20s-20 8.954-20 20c0 32.165 16.606 57.624 34.268 80-17.662 22.376-34.268 47.835-34.268 80 0 11.046 8.954 20 20 20s20-8.954 20-20c0-16.978 8.562-32.421 20-47.842 11.438 15.421 20 30.864 20 47.842 0 11.046 8.954 20 20 20s20-8.954 20-20z"/></g></svg>