<svg id="Capa_1" enable-background="new 0 0 512 512" height="512" viewBox="0 0 512 512" width="512" xmlns="http://www.w3.org/2000/svg"><g id="Search_2_"><g><path d="m332 0c-78.222 0-144.939 50.16-169.704 120h-102.296c-11.046 0-20 8.954-20 20s8.954 20 20 20h93.117c-.73 6.569-1.117 13.24-1.117 20 0 6.732.38 13.404 1.105 20h-133.105c-11.046 0-20 8.954-20 20s8.954 20 20 20h142.203c6.648 18.858 16.46 36.525 29.157 52.355l-33.508 33.508c-7.833-3.755-16.601-5.863-25.852-5.863-16.027 0-31.095 6.241-42.426 17.574l-72 72c-11.333 11.331-17.574 26.399-17.574 42.426 0 33.084 26.916 60 60 60 16.026 0 31.094-6.241 42.426-17.574l72-72c11.333-11.332 17.574-26.4 17.574-42.426 0-9.251-2.108-18.019-5.864-25.852l46.869-46.869c7.811-7.811 7.811-20.474 0-28.284-26.443-26.443-41.005-61.6-41.005-98.995 0-77.196 62.804-140 140-140s140 62.804 140 140-62.804 140-140 140c-12.312 0-24.52-1.596-36.285-4.743-10.669-2.852-21.634 3.482-24.489 14.152-2.854 10.67 3.482 21.635 14.153 24.489 15.135 4.049 30.82 6.102 46.621 6.102 99.252 0 180-80.748 180-180s-80.748-180-180-180zm-185.858 394.142-72 72c-3.778 3.777-8.8 5.858-14.142 5.858-11.028 0-20-8.972-20-20 0-5.342 2.08-10.365 5.858-14.142l72-72c3.777-3.778 8.8-5.858 14.142-5.858 11.028 0 20 8.972 20 20 0 5.342-2.081 10.364-5.858 14.142z"/><path d="m421.298 220c0-11.046-8.954-20-20-20h-138.595c-11.046 0-20 8.954-20 20s8.954 20 20 20h138.595c11.046 0 20-8.954 20-20z"/></g><g><path d="m372 160h-80c-11.046 0-20-8.954-20-20s8.954-20 20-20h80c11.046 0 20 8.954 20 20s-8.954 20-20 20z"/></g></g></svg>