<svg id="Capa_1" enable-background="new 0 0 512 512" height="512" viewBox="0 0 512 512" width="512" xmlns="http://www.w3.org/2000/svg"><g><path d="m306.777 274.045 39.729-40.269c7.757-7.863 7.672-20.526-.191-28.284s-20.526-7.672-28.284.191l-39.729 40.269c-7.757 7.863-7.672 20.526.191 28.284 7.864 7.757 20.526 7.671 28.284-.191z"/><path d="m424.077 265.811c5.614-16.134 8.292-31.428 8.189-46.756-.52-77.194-63.747-139.592-140.941-139.053-77.194.521-139.573 63.746-139.053 140.941.104 15.326 2.988 30.582 8.818 46.64 3.77 10.384 15.242 15.744 25.625 11.973 10.382-3.77 15.743-15.242 11.974-25.625-4.247-11.696-6.346-22.574-6.418-33.259-.372-55.139 44.185-100.3 99.323-100.672 26.69-.178 51.893 10.052 70.907 28.812 19.015 18.76 29.585 43.801 29.766 70.511.072 10.686-1.881 21.592-5.969 33.342-3.63 10.432 1.885 21.832 12.317 25.462 10.433 3.631 21.833-1.884 25.462-12.316z"/><path d="m292 0c-121.309 0-220 98.692-220 220 0 38.898 10.161 75.462 27.947 107.2l-82.373 82.373c-11.333 11.333-17.574 26.4-17.574 42.427 0 33.084 26.916 60 60 60 16.027 0 31.094-6.241 42.426-17.573l36.115-36.115c7.811-7.811 7.811-20.474 0-28.284s-20.474-7.811-28.284 0l-36.116 36.115c-3.776 3.777-8.799 5.857-14.141 5.857-11.028 0-20-8.972-20-20 0-5.342 2.08-10.365 5.858-14.142l77.155-77.155c40.388 48.425 101.147 79.297 168.987 79.297 121.309 0 220-98.692 220-220s-98.691-220-220-220zm0 400c-62.599 0-117.828-32.128-150.089-80.754-.007-.01-.013-.02-.02-.03-18.877-28.465-29.891-62.576-29.891-99.216 0-99.252 80.748-180 180-180s180 80.748 180 180-80.748 180-180 180z"/></g></svg>