<svg id="Capa_1" enable-background="new 0 0 512.013 512.013" height="512" viewBox="0 0 512.013 512.013" width="512" xmlns="http://www.w3.org/2000/svg"><g><path d="m226.133 274.142c7.811-7.811 7.811-20.474 0-28.284l-25.858-25.858 25.858-25.858c7.811-7.811 7.811-20.474 0-28.284s-20.474-7.811-28.284 0l-40 40c-7.811 7.811-7.811 20.474 0 28.284l40 40c7.81 7.811 20.473 7.811 28.284 0z"/><path d="m357.848 274.142c7.811 7.811 20.474 7.811 28.284 0l40-40c7.811-7.811 7.811-20.474 0-28.284l-40-40c-7.811-7.811-20.474-7.811-28.284 0s-7.811 20.474 0 28.284l25.858 25.858-25.858 25.858c-7.81 7.81-7.81 20.474 0 28.284z"/><path d="m267.14 319.403c10.715 2.68 21.574-3.837 24.253-14.552l40-160c2.679-10.716-3.836-21.575-14.552-24.254-10.715-2.679-21.574 3.836-24.253 14.552l-40 160c-2.679 10.716 3.836 21.575 14.552 24.254z"/><path d="m291.991 440c121.596 0 220-98.404 220-220s-98.404-220-220-220c-121.595 0-220 98.405-220 220s98.404 220 220 220zm0-400c99.252 0 180 80.748 180 180s-80.748 180-180 180-180-80.748-180-180 80.747-180 180-180z"/><path d="m102.414 494.423 36.115-36.115c7.811-7.811 7.811-20.474 0-28.284s-20.474-7.811-28.284 0l-36.115 36.115c-7.82 7.82-20.458 7.82-28.278 0-7.796-7.796-7.796-20.482 0-28.278l36.115-36.115c7.811-7.811 7.811-20.474 0-28.284s-20.474-7.811-28.284 0l-36.115 36.115c-23.393 23.392-23.393 61.454 0 84.847 23.453 23.453 61.393 23.453 84.846-.001z"/></g></svg>