<svg id="Capa_1" enable-background="new 0 0 511.878 511.878" height="512" viewBox="0 0 511.878 511.878" width="512" xmlns="http://www.w3.org/2000/svg"><g><path d="m170.55 58.485c-63.204 63.205-75.173 158.533-35.921 233.912l-117.084 117.083c-23.394 23.394-23.394 61.458 0 84.853 23.395 23.393 61.459 23.395 84.853 0l71.308-71.306c7.81-7.811 7.811-20.474 0-28.284-7.812-7.81-20.474-7.81-28.285 0l-71.307 71.306c-7.797 7.798-20.486 7.798-28.283 0-7.799-7.798-7.799-20.486 0-28.284l111.283-111.283c4.188 5.116 8.664 10.074 13.437 14.847 77.981 77.98 204.863 77.98 282.844 0 77.979-77.98 77.979-204.863 0-282.843-77.982-77.981-204.864-77.981-282.845-.001zm254.559 254.559c-62.383 62.382-163.891 62.383-226.273 0-62.384-62.384-62.384-163.89 0-226.274 62.383-62.383 163.891-62.384 226.273 0 62.383 62.383 62.383 163.889 0 226.274z"/><path d="m227.119 115.054c-7.811 7.811-7.812 20.474-.001 28.284 7.812 7.811 20.475 7.811 28.284 0 31.193-31.191 81.945-31.191 113.139 0 7.811 7.811 20.474 7.811 28.284 0s7.81-20.474-.001-28.284c-46.787-46.788-122.918-46.788-169.705 0z"/></g></svg>