<svg id="Capa_1" enable-background="new 0 0 512.825 512.825" height="512" viewBox="0 0 512.825 512.825" width="512" xmlns="http://www.w3.org/2000/svg"><g><path d="m214.936 308.944c3.388 6.776 10.313 11.056 17.889 11.056h120c7.575 0 14.501-4.28 17.889-11.056l40-80c3.1-6.2 2.769-13.563-.876-19.459-3.644-5.896-10.081-9.485-17.013-9.485h-7.639l-34.472-68.944c-4.94-9.879-16.951-13.884-26.833-8.944-9.88 4.94-13.884 16.953-8.944 26.833l25.527 51.055h-95.278l25.528-51.056c4.939-9.88.935-21.893-8.944-26.833-9.88-4.939-21.893-.935-26.833 8.944l-34.473 68.945h-7.639c-6.932 0-13.369 3.589-17.013 9.485s-3.975 13.259-.875 19.459zm125.528-28.944h-95.279l-20-40h135.279z"/><path d="m102.398 495.279 36.968-36.968c7.811-7.811 7.811-20.474 0-28.284s-20.474-7.81-28.284 0l-36.968 36.968c-7.798 7.798-20.486 7.798-28.285 0-7.798-7.798-7.798-20.487 0-28.285l77.93-77.93c4.257 5.094 8.751 10.032 13.502 14.783 41.552 41.553 96.8 64.437 155.564 64.437 121.596 0 220-98.404 220-220s-98.405-220-220-220-220 98.404-220 220c0 38.186 9.673 74.882 27.842 107.305l-83.121 83.121c-23.394 23.394-23.394 61.458 0 84.853 23.394 23.394 61.459 23.394 84.852 0zm190.427-455.279c99.252 0 180 80.748 180 180s-80.748 180-180 180-180-80.748-180-180 80.747-180 180-180z"/></g></svg>