<svg id="Capa_1" enable-background="new 0 0 512 512" height="512" viewBox="0 0 512 512" width="512" xmlns="http://www.w3.org/2000/svg"><g><path d="m292 360c77.196 0 140-62.804 140-140s-62.804-140-140-140-140 62.804-140 140 62.804 140 140 140zm-97.989-120h38.506c1.262 24.255 4.859 47.745 10.976 67.42-25.091-13.977-43.576-38.437-49.482-67.42zm117.414-40h-38.85c2.545-43.399 12.971-69.987 19.425-78.185 6.453 8.198 16.88 34.786 19.425 78.185zm0 40c-2.545 43.399-12.971 69.987-19.425 78.185-6.454-8.198-16.88-34.786-19.425-78.185zm29.082 67.42c6.116-19.675 9.714-43.165 10.976-67.42h38.506c-5.906 28.983-24.392 53.443-49.482 67.42zm49.482-107.42h-38.506c-1.262-24.255-4.859-47.745-10.976-67.42 25.091 13.977 43.576 38.437 49.482 67.42zm-146.496-67.42c-6.116 19.675-9.714 43.165-10.976 67.42h-38.506c5.906-28.983 24.391-53.443 49.482-67.42z"/><path d="m34.142 506.142 117.078-117.077c39.457 32.972 88.734 50.935 140.78 50.935 121.596 0 220-98.404 220-220s-98.404-220-220-220-220 98.404-220 220c0 52.045 17.963 101.324 50.935 140.781l-117.078 117.077c-7.81 7.81-7.81 20.474 0 28.284 7.812 7.811 20.474 7.811 28.285 0zm257.858-466.142c99.252 0 180 80.748 180 180s-80.748 180-180 180-180-80.748-180-180 80.748-180 180-180z"/></g></svg>