<svg id="Capa_1" enable-background="new 0 0 512 512" height="512" viewBox="0 0 512 512" width="512" xmlns="http://www.w3.org/2000/svg"><g><g><path d="m156 160h-40c-11.046 0-20-8.954-20-20s8.954-20 20-20h40c11.046 0 20 8.954 20 20s-8.954 20-20 20z"/></g><g><path d="m196 240h-80c-11.046 0-20-8.954-20-20s8.954-20 20-20h80c11.046 0 20 8.954 20 20s-8.954 20-20 20z"/></g><g><path d="m490.143 477.858-56.365-56.365c13.987-19.622 22.222-43.614 22.222-69.493 0-66.168-53.832-120-120-120s-120 53.832-120 120 53.832 120 120 120c25.879 0 49.871-8.235 69.493-22.222l56.364 56.364c7.811 7.81 20.474 7.811 28.284 0 7.811-7.81 7.812-20.474.002-28.284zm-234.143-125.858c0-44.112 35.888-80 80-80s80 35.888 80 80-35.888 80-80 80-80-35.888-80-80z"/><path d="m196 472h-120c-11.028 0-20-8.972-20-20v-392c0-11.028 8.972-20 20-20h140v60c0 33.084 26.916 60 60 60h60v20c0 11.046 8.954 20 20 20s20-8.954 20-20v-40c0-5.123-2.052-10.337-5.857-14.142l-120-120c-3.846-3.846-9.012-5.858-14.143-5.858h-160c-33.084 0-60 26.916-60 60v392c0 33.084 26.916 60 60 60h120c11.046 0 20-8.954 20-20s-8.954-20-20-20zm80-352c-11.028 0-20-8.972-20-20v-31.716l51.716 51.716z"/></g></g></svg>