<svg id="Capa_1" enable-background="new 0 0 512 512" height="512" viewBox="0 0 512 512" width="512" xmlns="http://www.w3.org/2000/svg"><g id="Search"><path d="m452 80v-20c0-33.084-26.916-60-60-60h-40c-33.084 0-60 26.916-60 60v20c-33.084 0-60 26.916-60 60v25.062c-12.789-3.304-26.193-5.062-40-5.062-88.224 0-160 71.776-160 160 0 36.919 12.575 70.953 33.659 98.057l-59.801 59.801c-7.811 7.81-7.811 20.474 0 28.284 7.811 7.811 20.474 7.811 28.284 0l59.801-59.801c27.104 21.084 61.138 33.659 98.057 33.659 88.225 0 160-71.776 160-160 0-59.101-32.213-110.816-80-138.522v-41.478c0-11.028 8.972-20 20-20h60v20c0 11.046 8.954 20 20 20s20-8.954 20-20v-20h60c11.028 0 20 8.972 20 20v80c0 11.028-8.972 20-20 20h-48.314c-11.046 0-20 8.954-20 20s8.954 20 20 20h48.314c33.084 0 60-26.916 60-60v-80c0-33.084-26.916-60-60-60zm-140 240c0 66.168-53.832 120-120 120s-120-53.832-120-120 53.832-120 120-120 120 53.832 120 120zm20-260c0-11.028 8.972-20 20-20h40c11.028 0 20 8.972 20 20v20h-80z"/><path d="m220.284 320 25.858-25.858c7.811-7.811 7.811-20.474 0-28.284s-20.474-7.811-28.284 0l-25.858 25.858-25.858-25.858c-7.811-7.811-20.474-7.811-28.284 0s-7.811 20.474 0 28.284l25.858 25.858-25.858 25.858c-7.811 7.811-7.811 20.474 0 28.284 7.811 7.811 20.474 7.811 28.284 0l25.858-25.858 25.858 25.858c7.811 7.811 20.474 7.811 28.284 0 7.811-7.811 7.811-20.474 0-28.284z"/></g></svg>