<svg id="Capa_1" enable-background="new 0 0 512 512" height="512" viewBox="0 0 512 512" width="512" xmlns="http://www.w3.org/2000/svg"><g><path d="m492 116h-160c-11.046 0-20 8.954-20 20s8.954 20 20 20h160c11.046 0 20-8.954 20-20s-8.954-20-20-20z"/><path d="m492 236h-40c-11.046 0-20 8.954-20 20s8.954 20 20 20h40c11.046 0 20-8.954 20-20s-8.954-20-20-20z"/><path d="m492 356h-240c-11.046 0-20 8.954-20 20s8.954 20 20 20h240c11.046 0 20-8.954 20-20s-8.954-20-20-20z"/><path d="m20 156h135.44c8.256 23.278 30.487 40 56.56 40 33.084 0 60-26.916 60-60s-26.916-60-60-60c-26.073 0-48.303 16.722-56.56 40h-135.44c-11.046 0-20 8.954-20 20s8.954 20 20 20zm192-40c11.028 0 20 8.972 20 20s-8.972 20-20 20-20-8.972-20-20 8.972-20 20-20z"/><path d="m20 276h255.44c8.256 23.278 30.487 40 56.56 40 33.084 0 60-26.916 60-60s-26.916-60-60-60c-26.073 0-48.303 16.722-56.56 40h-255.44c-11.046 0-20 8.954-20 20s8.954 20 20 20zm312-40c11.028 0 20 8.972 20 20s-8.972 20-20 20-20-8.972-20-20 8.972-20 20-20z"/><path d="m132 436c33.084 0 60-26.916 60-60s-26.916-60-60-60c-26.073 0-48.303 16.722-56.56 40h-55.44c-11.046 0-20 8.954-20 20s8.954 20 20 20h55.44c8.257 23.278 30.487 40 56.56 40zm0-80c11.028 0 20 8.972 20 20s-8.972 20-20 20-20-8.972-20-20 8.972-20 20-20z"/></g></svg>