<svg id="Capa_1" enable-background="new 0 0 512 512" height="512" viewBox="0 0 512 512" width="512" xmlns="http://www.w3.org/2000/svg"><g id="Setting"><g><circle cx="364.037" cy="372" r="20"/></g><g><path d="m124.037 160h40c11.046 0 20-8.954 20-20s-8.954-20-20-20h-40c-11.046 0-20 8.954-20 20s8.954 20 20 20z"/><path d="m124.037 240h80c11.046 0 20-8.954 20-20s-8.954-20-20-20h-80c-11.046 0-20 8.954-20 20s8.954 20 20 20z"/><g><path d="m477.96 414.68-19.066-11.008c3.333-9.958 5.144-20.607 5.144-31.672s-1.81-21.714-5.144-31.672l19.066-11.008c9.566-5.522 12.843-17.754 7.32-27.32s-17.754-12.844-27.32-7.32l-19.116 11.037c-14.111-15.907-33.201-27.302-54.807-31.706v-22.011c0-11.046-8.954-20-20-20s-20 8.954-20 20v22.011c-21.605 4.403-40.69 15.802-54.802 31.708l-19.121-11.04c-9.566-5.524-21.798-2.246-27.32 7.32-5.523 9.566-2.246 21.798 7.32 27.32l19.081 11.016c-3.333 9.957-5.158 20.599-5.158 31.663 0 11.065 1.81 21.714 5.144 31.672l-19.066 11.008c-9.566 5.522-12.843 17.754-7.32 27.32 5.524 9.567 17.753 12.844 27.32 7.32l19.116-11.037c14.111 15.907 33.201 27.302 54.807 31.706v22.013c0 11.046 8.954 20 20 20s20-8.954 20-20v-22.011c21.605-4.403 40.695-15.798 54.807-31.706l19.116 11.037c9.566 5.523 21.798 2.246 27.32-7.32s2.245-21.798-7.321-27.32zm-113.923 17.32c-33.084 0-60-26.916-60-60s26.916-60 60-60 60 26.916 60 60-26.916 60-60 60z"/><path d="m284.037 160h60v20c0 11.046 8.954 20 20 20s20-8.954 20-20v-40c0-5.484-2.369-10.743-5.86-14.145l-119.995-119.995c-4.143-3.985-9.06-5.86-14.145-5.86h-160c-33.084 0-60 26.916-60 60v392c0 33.084 26.916 60 60 60h120c11.046 0 20-8.954 20-20s-8.954-20-20-20h-120c-11.028 0-20-8.972-20-20v-392c0-11.028 8.972-20 20-20h140v60c0 33.084 26.916 60 60 60zm-20-91.716 51.716 51.716h-31.716c-11.028 0-20-8.972-20-20z"/></g></g></g></svg>