<svg id="Capa_1" enable-background="new 0 0 512.004 512.004" height="512" viewBox="0 0 512.004 512.004" width="512" xmlns="http://www.w3.org/2000/svg"><g><path d="m512.004 100.002c0-.026-.004-20-.004-20 0-44.112-35.888-80-80-80h-352c-44.112 0-80 35.888-80 80v352c0 44.112 35.888 80 80 80h352c44.112 0 80-35.888 80-80v-331.923c0-.026.004-.051.004-.077zm-40.004-20h-232c-22.056 0-40-17.944-40-40h232c22.056 0 40 17.944 40 40zm-40 392h-352c-22.056 0-40-17.944-40-40v-352c0-22.056 17.944-40 40-40h80c0 44.112 35.888 80 80 80h232v312c0 22.056-17.944 40-40 40z"/><path d="m136.002 316.002h22.011c2.598 12.749 7.634 24.621 14.591 35.114l-15.597 15.597c-7.81 7.81-7.81 20.474 0 28.284s20.475 7.81 28.285 0l15.597-15.597c10.492 6.957 22.364 11.993 35.113 14.591v22.011c0 11.046 8.954 20 20 20s20-8.954 20-20v-22.011c12.749-2.598 24.621-7.634 35.113-14.591l15.597 15.597c7.81 7.81 20.475 7.81 28.285 0 7.81-7.811 7.81-20.474 0-28.284l-15.597-15.597c6.957-10.493 11.993-22.364 14.591-35.114h22.011c11.046 0 20-8.954 20-20s-8.954-20-20-20h-22.011c-2.598-12.749-7.634-24.621-14.591-35.114l15.597-15.597c7.81-7.81 7.81-20.474 0-28.284-7.811-7.811-20.475-7.811-28.285 0l-15.597 15.597c-10.492-6.957-22.364-11.993-35.113-14.591v-22.011c0-11.046-8.954-20-20-20s-20 8.954-20 20v22.011c-12.749 2.598-24.621 7.634-35.113 14.591l-15.597-15.597c-7.811-7.811-20.475-7.811-28.285 0s-7.81 20.474 0 28.284l15.597 15.597c-6.957 10.493-11.993 22.364-14.591 35.114h-22.011c-11.046 0-20 8.954-20 20s8.954 20 20 20zm120-80c33.084 0 60 26.916 60 60s-26.916 60-60 60-60-26.916-60-60 26.916-60 60-60z"/><circle cx="256.002" cy="296.002" r="20"/></g></svg>