<svg id="Capa_1" enable-background="new 0 0 512.003 512.003" height="512" viewBox="0 0 512.003 512.003" width="512" xmlns="http://www.w3.org/2000/svg"><path d="m512 228.002v32c0 11.046-8.954 20-20 20s-20-8.954-20-20v-32c0-44.112-35.888-80-80-80h-272c-44.112 0-80 35.888-80 80v164c0 44.112 35.888 80 80 80h138c11.046 0 20 8.954 20 20s-8.954 20-20 20h-138c-66.168 0-120-53.832-120-120v-164c0-66.168 53.832-120 120-120h272c66.168 0 120 53.832 120 120zm-103 0c0-11.046-8.954-20-20-20s-20 8.954-20 20 8.954 20 20 20 20-8.955 20-20zm-192 67c-11.046 0-20 8.954-20 20s8.954 20 20 20 20-8.954 20-20-8.954-20-20-20zm106-67c0-11.046-8.954-20-20-20s-20 8.954-20 20 8.954 20 20 20 20-8.955 20-20zm-192 153c-11.046 0-20 8.954-20 20s8.954 20 20 20 20-8.954 20-20-8.954-20-20-20zm86 0c-11.046 0-20 8.954-20 20s8.954 20 20 20 20-8.954 20-20-8.954-20-20-20zm-86-173c-11.046 0-20 8.954-20 20s8.954 20 20 20 20-8.954 20-20-8.954-20-20-20zm0 87c-11.046 0-20 8.954-20 20s8.954 20 20 20 20-8.954 20-20-8.954-20-20-20zm86-87c-11.046 0-20 8.954-20 20s8.954 20 20 20 20-8.954 20-20-8.954-20-20-20zm285.29 150.149-13.312 7.987c2.611 8.159 4.021 16.85 4.021 25.863s-1.41 17.705-4.022 25.863l13.312 7.987c9.472 5.683 12.543 17.968 6.859 27.439-5.682 9.473-17.969 12.545-27.439 6.859l-13.567-8.14c-10.88 10.903-24.692 18.874-40.143 22.614v17.376c0 11.046-8.954 20-20 20s-20-8.954-20-20v-17.376c-15.805-3.826-29.896-12.078-40.886-23.369l-14.824 8.895c-9.473 5.684-21.757 2.611-27.439-6.859-5.684-9.472-2.612-21.757 6.859-27.439l14.996-8.998c-2.409-7.863-3.706-16.211-3.706-24.853s1.297-16.989 3.706-24.853l-14.996-8.998c-9.472-5.683-12.543-17.968-6.859-27.439 5.685-9.472 17.971-12.542 27.439-6.859l14.824 8.895c10.99-11.291 25.081-19.543 40.886-23.369v-17.376c0-11.046 8.954-20 20-20s20 8.954 20 20v17.376c15.45 3.74 29.263 11.711 40.143 22.615l13.567-8.141c9.471-5.683 21.757-2.613 27.439 6.859 5.685 9.473 2.614 21.758-6.858 27.441zm-49.29 33.851c0-24.813-20.187-45-45-45s-45 20.187-45 45 20.187 45 45 45 45-20.187 45-45zm-121-312c11.046 0 20-8.954 20-20 0-11.028 8.972-20 20-20s20 8.972 20 20c0 11.046 8.954 20 20 20s20-8.954 20-20c0-33.084-26.916-60-60-60s-60 26.916-60 60c0 11.045 8.954 20 20 20zm-230 0c11.046 0 20-8.954 20-20 0-11.028 8.972-20 20-20s20 8.972 20 20c0 11.046 8.954 20 20 20s20-8.954 20-20c0-33.084-26.916-60-60-60s-60 26.916-60 60c0 11.045 8.954 20 20 20z"/></svg>