<svg id="Capa_1" enable-background="new 0 0 512.001 512.001" height="512" viewBox="0 0 512.001 512.001" width="512" xmlns="http://www.w3.org/2000/svg"><g id="Settings_5_"><path d="m452.001 0h-392.001c-33.084 0-60 26.916-60 60v392c0 33.084 26.916 60 60 60h392.001c33.084 0 60-26.916 60-60v-392c0-33.084-26.916-60-60-60zm20 452c0 11.028-8.972 20-20 20h-392.001c-11.028 0-20-8.972-20-20v-392c0-11.028 8.972-20 20-20h20.001v20c0 11.046 8.954 20 20 20s20-8.954 20-20v-20h40v20c0 11.046 8.954 20 20 20s20-8.954 20-20v-20h40v20c0 11.046 8.954 20 20 20s20-8.954 20-20v-20h40v60c0 11.028-8.972 20-20 20h-200.001c-11.046 0-20 8.954-20 20s8.954 20 20 20h200.001c33.084 0 60-26.916 60-60v-60h92c11.028 0 20 8.972 20 20z"/><g><path d="m236.001 256h-20v-20c0-11.046-8.954-20-20-20s-20 8.954-20 20v20h-20c-11.046 0-20 8.954-20 20s8.954 20 20 20h20v100c0 11.046 8.954 20 20 20s20-8.954 20-20v-100h20c11.046 0 20-8.954 20-20s-8.954-20-20-20z"/><path d="m356.001 336h-20v-100c0-11.046-8.954-20-20-20s-20 8.954-20 20v100h-20c-11.046 0-20 8.954-20 20s8.954 20 20 20h20v20c0 11.046 8.954 20 20 20s20-8.954 20-20v-20h20c11.046 0 20-8.954 20-20s-8.954-20-20-20z"/></g></g></svg>