<svg id="Capa_1" enable-background="new 0 0 512 512" height="512" viewBox="0 0 512 512" width="512" xmlns="http://www.w3.org/2000/svg"><g><g><path d="m140.601 272h-20v-20c0-11.046-8.954-20-20-20s-20 8.954-20 20v20h-20-40c-11.046 0-20 8.954-20 20s8.954 20 20 20h20v120h-20c-11.046 0-20 8.954-20 20s8.954 20 20 20h60v20c0 11.046 8.954 20 20 20s20-8.954 20-20v-20h20c33.084 0 60-26.916 60-60 0-15.355-5.805-29.376-15.327-40 9.522-10.624 15.327-24.645 15.327-40 0-33.084-26.916-60-60-60zm20 60c0 11.028-8.972 20-20 20h-60v-40h60c11.028 0 20 8.972 20 20zm-20 100h-60v-40h60c11.028 0 20 8.972 20 20s-8.972 20-20 20z"/><path d="m481.211 248.003c-.095-.057-.19-.112-.287-.167l-9.849-5.628c1.022-7.07 1.525-14.429 1.525-22.207s-.503-15.137-1.525-22.207l9.849-5.628c.053-.03.104-.06.155-.09 28.764-16.781 38.632-53.634 21.999-82.151-.026-.045-.053-.09-.079-.135-10.911-18.375-30.835-29.79-51.998-29.79-10.616 0-20.646 2.614-29.808 7.771-.071.04-.142.08-.212.121l-10.345 5.988c-11.649-9.333-24.372-16.754-38.036-22.189v-11.691c0-33.084-26.916-60-60-60s-60 26.916-60 60v11.69c-13.664 5.435-26.387 12.856-38.036 22.189l-10.345-5.988c-.07-.041-.142-.082-.214-.122-13.892-7.815-30.008-9.854-45.377-5.74-15.462 4.139-28.427 14.044-36.506 27.894-16.633 28.518-6.765 65.371 21.999 82.151.052.03.103.06.155.09l9.849 5.628c-.837 5.797-1.325 11.792-1.476 18.071-.265 11.043 8.473 20.209 19.515 20.474 11.078.265 20.209-8.473 20.474-19.515.21-8.759 1.281-16.618 3.274-24.027 2.362-8.78-1.496-18.049-9.391-22.561l-22.31-12.749c-9.664-5.685-13.047-17.964-7.538-27.409 5.657-9.696 17.776-12.978 27.627-7.498l22.679 13.128c7.756 4.49 17.556 3.272 23.977-2.984 13.584-13.235 29.428-22.481 47.091-27.48 8.609-2.437 14.553-10.296 14.553-19.244v-25.998c0-11.028 8.972-20 20-20s20 8.972 20 20v25.999c0 8.948 5.943 16.807 14.553 19.244 17.663 5 33.507 14.245 47.091 27.48 6.42 6.255 16.22 7.475 23.977 2.984l22.679-13.128c3.118-1.735 6.424-2.58 10.102-2.58 7.095 0 13.818 3.886 17.565 10.147 5.451 9.437 2.062 21.669-7.578 27.339l-22.31 12.749c-7.895 4.511-11.753 13.78-9.391 22.561 2.229 8.285 3.312 17.184 3.312 27.204s-1.084 18.919-3.312 27.204c-2.362 8.78 1.496 18.049 9.391 22.561l22.231 12.704c6.376 3.841 10.489 10.707 10.489 17.531 0 3.145-.993 6.527-2.951 10.055-5.691 9.594-17.741 12.82-27.548 7.366l-22.678-13.13c-7.76-4.493-17.558-3.272-23.979 2.983-13.587 13.238-29.43 22.484-47.089 27.48-8.61 2.437-14.555 10.296-14.555 19.245v26.002c0 11.028-8.972 20-20 20s-20-8.972-20-20v-26.001c0-8.949-5.944-16.808-14.555-19.245-3.793-1.073-7.56-2.365-11.195-3.84-10.234-4.151-21.899.779-26.052 11.015s.779 21.899 11.015 26.051c.262.106.524.212.787.317v11.703c0 33.084 26.916 60 60 60s60-26.916 60-60v-11.691c13.665-5.434 26.383-12.854 38.035-22.189l10.344 5.989c.072.042.144.083.216.123 13.891 7.814 30.007 9.853 45.377 5.739 15.462-4.139 28.426-14.044 36.505-27.891.054-.093.107-.186.16-.28 5.416-9.637 8.162-19.663 8.162-29.799.001-21.019-11.566-40.942-30.187-51.998z"/><path d="m312.601 300c44.112 0 80-35.888 80-80s-35.888-80-80-80-80 35.888-80 80 35.887 80 80 80zm0-120c22.056 0 40 17.944 40 40s-17.944 40-40 40-40-17.944-40-40 17.944-40 40-40z"/></g></g></svg>