<svg id="Capa_1" enable-background="new 0 0 512 512" height="512" viewBox="0 0 512 512" width="512" xmlns="http://www.w3.org/2000/svg"><path d="m237 227c0 11.046-8.954 20-20 20s-20-8.954-20-20 8.954-20 20-20 20 8.954 20 20zm86 0c0-11.046-8.954-20-20-20s-20 8.954-20 20 8.954 20 20 20 20-8.954 20-20zm-129 245h-74c-44.112 0-80-35.888-80-80v-164c0-44.112 35.888-80 80-80h272c44.112 0 80 35.888 80 80 0 11.046 8.954 20 20 20s20-8.954 20-20c0-66.168-53.832-120-120-120h-272c-66.168 0-120 53.832-120 120v164c0 66.168 53.832 120 120 120h74c11.046 0 20-8.954 20-20s-8.954-20-20-20zm215-245c0-11.046-8.954-20-20-20s-20 8.954-20 20 8.954 20 20 20 20-8.954 20-20zm-192 67c-11.046 0-20 8.954-20 20s8.954 20 20 20 20-8.954 20-20-8.954-20-20-20zm-86-87c-11.046 0-20 8.954-20 20s8.954 20 20 20 20-8.954 20-20-8.954-20-20-20zm0 87c-11.046 0-20 8.954-20 20s8.954 20 20 20 20-8.954 20-20-8.954-20-20-20zm86 86c-11.046 0-20 8.954-20 20s8.954 20 20 20 20-8.954 20-20-8.954-20-20-20zm-86 0c-11.046 0-20 8.954-20 20s8.954 20 20 20 20-8.954 20-20-8.954-20-20-20zm201-300c11.046 0 20-8.954 20-20 0-11.028 8.972-20 20-20s20 8.972 20 20c0 11.046 8.954 20 20 20s20-8.954 20-20c0-33.084-26.916-60-60-60s-60 26.916-60 60c0 11.046 8.954 20 20 20zm-230 0c11.046 0 20-8.954 20-20 0-11.028 8.972-20 20-20s20 8.972 20 20c0 11.046 8.954 20 20 20s20-8.954 20-20c0-33.084-26.916-60-60-60s-60 26.916-60 60c0 11.046 8.954 20 20 20zm326.848 330h-11.695c-12.171 0-23.736 2.591-34.165 7.244-10.687-4.755-22.351-7.244-34.14-7.244h-11.695c-45.851 0-83.153 36.785-83.153 82 0 11.046 8.954 20 20 20s20-8.954 20-20c0-23.159 19.358-42 43.152-42h8.604c-7.462 12.291-11.756 26.662-11.756 42 0 11.046 8.954 20 20 20s20-8.954 20-20c0-23.159 19.358-42 43.152-42h11.695c23.795 0 43.153 18.841 43.153 42 0 11.046 8.954 20 20 20s20-8.954 20-20c0-45.215-37.302-82-83.152-82zm-145.848-80c0-33.084 26.916-60 60-60 15.353 0 29.377 5.796 40 15.315 10.623-9.519 24.647-15.315 40-15.315 33.084 0 60 26.916 60 60s-26.916 60-60 60c-15.353 0-29.377-5.796-40-15.315-10.623 9.519-24.647 15.315-40 15.315-33.084 0-60-26.916-60-60zm120 0c0 11.028 8.972 20 20 20s20-8.972 20-20-8.972-20-20-20-20 8.972-20 20zm-80 0c0 11.028 8.972 20 20 20s20-8.972 20-20-8.972-20-20-20-20 8.972-20 20z"/></svg>