<svg id="Capa_1" enable-background="new 0 0 512 512" height="512" viewBox="0 0 512 512" width="512" xmlns="http://www.w3.org/2000/svg"><g><path d="m20 120c11.046 0 20-8.954 20-20v-40c0-11.028 8.972-20 20-20h40c11.046 0 20-8.954 20-20s-8.954-20-20-20h-40c-33.084 0-60 26.916-60 60v40c0 11.046 8.954 20 20 20z"/><path d="m452 0h-40c-11.046 0-20 8.954-20 20s8.954 20 20 20h40c11.028 0 20 8.972 20 20v40c0 11.046 8.954 20 20 20s20-8.954 20-20v-40c0-33.084-26.916-60-60-60z"/><path d="m492 392c-11.046 0-20 8.954-20 20v40c0 11.028-8.972 20-20 20h-40c-11.046 0-20 8.954-20 20s8.954 20 20 20h40c33.084 0 60-26.916 60-60v-40c0-11.046-8.954-20-20-20z"/><path d="m120 492c0-11.046-8.954-20-20-20h-40c-11.028 0-20-8.972-20-20v-40c0-11.046-8.954-20-20-20s-20 8.954-20 20v40c0 33.084 26.916 60 60 60h40c11.046 0 20-8.954 20-20z"/><path d="m431.166 352.378-120-280c-9.471-22.099-31.125-36.378-55.166-36.378-24.08 0-45.747 14.312-55.201 36.46l-116.682 273.393c-5.315 9.135-8.117 19.522-8.117 30.147 0 33.084 26.916 60 60 60h240c33.084 0 60-26.916 60-60 0-8.19-1.626-16.138-4.834-23.622zm-55.166 43.622h-240c-11.028 0-20-8.972-20-20 0-1.281.121-2.551.359-3.792l121.229-284.046c3.154-7.388 10.381-12.162 18.412-12.162 8.018 0 15.241 4.763 18.4 12.135l120 280c1.062 2.477 1.6 5.123 1.6 7.865 0 11.028-8.972 20-20 20z"/></g></svg>