<svg id="Capa_1" enable-background="new 0 0 512 512" height="512" viewBox="0 0 512 512" width="512" xmlns="http://www.w3.org/2000/svg"><g><path d="m452 0c-26.073 0-48.303 16.722-56.56 40h-3.44c-44.112 0-80 35.888-80 80v56c0 11.046 8.954 20 20 20s20-8.954 20-20v-56c0-22.056 17.944-40 40-40h3.44c8.256 23.278 30.487 40 56.56 40 33.084 0 60-26.916 60-60s-26.916-60-60-60zm0 80c-11.028 0-20-8.972-20-20s8.972-20 20-20 20 8.972 20 20-8.972 20-20 20z"/><path d="m395.44 276c8.256 23.278 30.487 40 56.56 40 33.084 0 60-26.916 60-60s-26.916-60-60-60c-26.073 0-48.303 16.722-56.56 40h-123.44v-20c0-33.084-26.916-60-60-60h-55.427c-8.255-23.281-30.498-40-56.573-40h-40c-33.084 0-60 26.916-60 60v120c0 33.084 26.916 60 60 60h152c33.084 0 60-26.916 60-60v-20h40v116c0 44.112 35.888 80 80 80h3.44c8.256 23.278 30.487 40 56.56 40 33.084 0 60-26.916 60-60s-26.916-60-60-60c-26.073 0-48.303 16.722-56.56 40h-3.44c-22.056 0-40-17.944-40-40v-116zm-163.44 20c0 11.028-8.972 20-20 20h-152c-11.028 0-20-8.972-20-20v-120c0-11.028 8.972-20 20-20h40c11.028 0 20 8.972 20 20 0 11.046 8.954 20 20 20h72c11.028 0 20 8.972 20 20zm220 136c11.028 0 20 8.972 20 20s-8.972 20-20 20-20-8.972-20-20 8.972-20 20-20zm0-196c11.028 0 20 8.972 20 20s-8.972 20-20 20-20-8.972-20-20 8.972-20 20-20z"/></g></svg>