<svg id="Capa_1" enable-background="new 0 0 512 512" height="512" viewBox="0 0 512 512" width="512" xmlns="http://www.w3.org/2000/svg"><g id="Smart_Home_2_"><g><path d="m236 226h-20v-20c0-11.046-8.954-20-20-20s-20 8.954-20 20v20h-20c-11.046 0-20 8.954-20 20s8.954 20 20 20h20v100c0 11.046 8.954 20 20 20s20-8.954 20-20v-100h20c11.046 0 20-8.954 20-20s-8.954-20-20-20z"/><path d="m356 306h-20v-100c0-11.046-8.954-20-20-20s-20 8.954-20 20v100h-20c-11.046 0-20 8.954-20 20s8.954 20 20 20h20v20c0 11.046 8.954 20 20 20s20-8.954 20-20v-20h20c11.046 0 20-8.954 20-20s-8.954-20-20-20z"/></g><path d="m505.864 207.586-109.864-105.676v-75.91c0-11.046-8.954-20-20-20s-20 8.954-20 20v37.435l-30.652-29.484c-18.724-18.024-43.352-27.951-69.348-27.951s-50.624 9.927-69.341 27.945l-180.523 173.641c-7.961 7.657-8.207 20.318-.55 28.279 7.655 7.959 20.316 8.208 28.278.549l2.136-2.054v211.64c0 33.084 26.916 60 60 60h240c11.046 0 20-8.954 20-20s-8.954-20-20-20h-240c-11.028 0-20-8.972-20-20v-250.115l138.394-133.117c11.232-10.813 26.008-16.768 41.606-16.768s30.374 5.955 41.612 16.774l138.388 133.111v250.115c0 11.028-8.972 20-20 20-11.046 0-20 8.954-20 20s8.954 20 20 20c33.084 0 60-26.916 60-60v-211.64l2.136 2.054c7.96 7.657 20.621 7.411 28.278-.549 7.657-7.961 7.411-20.622-.55-28.279z"/></g></svg>