<svg id="Capa_1" enable-background="new 0 0 512 512" height="512" viewBox="0 0 512 512" width="512" xmlns="http://www.w3.org/2000/svg"><g><path d="m256 356c11.046 0 20-8.954 20-20v-47.639l28.944-14.472c9.88-4.94 13.884-16.953 8.944-26.833-4.939-9.879-16.95-13.884-26.833-8.944l-80 40c-9.88 4.94-13.884 16.953-8.944 26.833 4.94 9.879 16.953 13.884 26.833 8.944l11.056-5.528v27.639c0 11.046 8.954 20 20 20z"/><path d="m0 452c0 33.084 26.916 60 60 60h392c33.084 0 60-26.916 60-60 0-26.073-16.722-48.303-40-56.56v-275.44h20c11.046 0 20-8.954 20-20v-80c0-11.046-8.954-20-20-20h-472c-11.046 0-20 8.954-20 20v80c0 11.046 8.954 20 20 20h20v275.44c-23.278 8.257-40 30.487-40 56.56zm452 20h-392c-11.028 0-20-8.972-20-20s8.972-20 20-20h232c11.046 0 20-8.954 20-20s-8.954-20-20-20h-132v-272h24.232l14.284 25.713c5.364 9.656 17.542 13.134 27.196 7.77 9.655-5.364 13.135-17.54 7.771-27.196l-3.493-6.287h52.019l-3.493 6.287c-5.364 9.656-1.885 21.832 7.771 27.196 9.655 5.364 21.832 1.885 27.196-7.77l14.285-25.713h24.232v292c0 11.046 8.954 20 20 20h80c11.028 0 20 8.972 20 20s-8.972 20-20 20zm-332-352v47.715l-40-40v-7.715zm0 207.715-31.715-31.715 31.715-31.715zm-8.284-111.715-31.716 31.716v-63.431zm8.284 168.285v7.715h-40v-47.715zm312-264.285v7.715l-40 40v-47.715zm-40 272v-7.715l40-40v47.715zm0-127.715 31.715 31.715-31.715 31.715zm8.285-48.285 31.715-31.715v63.431zm-360.285-176h432v40h-432z"/></g></svg>