<svg id="Capa_1" enable-background="new 0 0 512 512" height="512" viewBox="0 0 512 512" width="512" xmlns="http://www.w3.org/2000/svg"><g id="Start_Up"><g><path d="m492 512h-472c-11.046 0-20-8.954-20-20s8.954-20 20-20h472c11.046 0 20 8.954 20 20s-8.954 20-20 20z"/></g><g><circle cx="412" cy="140" r="20"/><path d="m60 280c-33.084 0-60 26.916-60 60v40c0 33.084 26.916 60 60 60s60-26.916 60-60v-40c0-33.084-26.916-60-60-60zm20 100c0 11.028-8.972 20-20 20s-20-8.972-20-20v-40c0-11.028 8.972-20 20-20s20 8.972 20 20z"/><path d="m216 160c-33.084 0-60 26.916-60 60v160c0 33.084 26.916 60 60 60s60-26.916 60-60v-160c0-33.084-26.916-60-60-60zm20 220c0 11.028-8.972 20-20 20s-20-8.972-20-20v-160c0-11.028 8.972-20 20-20s20 8.972 20 20z"/><path d="m412 360c-11.046 0-20 8.954-20 20v40c0 11.046 8.954 20 20 20s20-8.954 20-20v-40c0-11.046-8.954-20-20-20z"/><path d="m470.142 292.049c.038-.12.08-.237.117-.358l37.394-122.453c2.884-9.447 4.347-19.285 4.347-29.238 0-21.814-6.903-42.547-19.962-59.957l-48.029-64.033c-7.52-10.025-19.486-16.01-32.009-16.01s-24.489 5.985-32.01 16.01l-48.027 64.032c-13.06 17.411-19.963 38.144-19.963 59.958 0 9.953 1.463 19.791 4.348 29.239 0 0 37.473 122.689 37.511 122.81l-25.311 26.576c-10.671 11.204-16.548 25.898-16.548 41.375 0 10.543 2.78 20.922 8.039 30.014 5.531 9.562 17.766 12.829 27.327 7.298s12.828-17.765 7.298-27.326c-1.768-3.056-2.664-6.416-2.664-9.986 0-5.159 1.958-10.056 5.513-13.789l25.85-27.142c2.791.607 5.68.931 8.638.931h40c2.958 0 5.847-.324 8.638-.931l25.85 27.143c3.553 3.732 5.511 8.629 5.511 13.788 0 3.57-.896 6.93-2.664 9.986-5.53 9.561-2.263 21.796 7.298 27.326 9.562 5.53 21.796 2.264 27.327-7.298 5.259-9.092 8.039-19.471 8.039-30.014 0-15.477-5.877-30.171-16.548-41.375zm-38.142-12.049h-40l-37.396-122.443c-1.728-5.659-2.604-11.565-2.604-17.557 0-13.09 4.136-25.523 11.961-35.956l48.049-64.033 48.029 64.033c7.825 10.433 11.961 22.866 11.961 35.956 0 5.992-.876 11.898-2.604 17.556z"/></g></g></svg>