<svg id="Capa_1" enable-background="new 0 0 512 512" height="512" viewBox="0 0 512 512" width="512" xmlns="http://www.w3.org/2000/svg"><g><g><path d="m140 272h-20v-20c0-11.046-8.954-20-20-20s-20 8.954-20 20v20h-60c-11.046 0-20 8.954-20 20s8.954 20 20 20h20v120h-20c-11.046 0-20 8.954-20 20s8.954 20 20 20h60v20c0 11.046 8.954 20 20 20s20-8.954 20-20v-20h20c33.084 0 60-26.916 60-60 0-15.355-5.805-29.376-15.327-40 9.522-10.624 15.327-24.645 15.327-40 0-33.084-26.916-60-60-60zm20 60c0 11.028-8.972 20-20 20h-60v-40h60c11.028 0 20 8.972 20 20zm-20 100h-60v-40h60c11.028 0 20 8.972 20 20s-8.972 20-20 20z"/><path d="m492 400h-20v-60c0-50.868-27.273-95.482-67.962-120 40.689-24.518 67.962-69.132 67.962-120v-60h20c11.046 0 20-8.954 20-20s-8.954-20-20-20h-320c-11.046 0-20 8.954-20 20s8.954 20 20 20h20v60c0 50.84 27.242 95.433 67.893 119.959-13.683 8.233-26.028 18.854-36.426 31.6-6.982 8.56-5.703 21.158 2.856 28.14 8.558 6.981 21.157 5.704 28.14-2.856 19.099-23.414 47.361-36.843 77.537-36.843 55.14 0 100 44.86 100 100v60h-172.264c-11.046 0-20 8.954-20 20s8.954 20 20 20h232.264c11.046 0 20-8.954 20-20s-8.954-20-20-20zm-260-300v-60h200v60c0 55.14-44.86 100-100 100s-100-44.86-100-100z"/><path d="m352 340v-40c0-11.046-8.954-20-20-20s-20 8.954-20 20v40c0 11.046 8.954 20 20 20s20-8.954 20-20z"/></g></g></svg>