<svg id="Capa_1" enable-background="new 0 0 511.98 511.98" height="512" viewBox="0 0 511.98 511.98" width="512" xmlns="http://www.w3.org/2000/svg"><g id="Startup"><g><path d="m117.538 391.98c-33.084 0-60 26.916-60 60s26.916 60 60 60 60-26.916 60-60-26.916-60-60-60zm0 80c-11.028 0-20-8.972-20-20s8.972-20 20-20 20 8.972 20 20-8.971 20-20 20z"/><path d="m277.538 319.98c-33.084 0-60 26.916-60 60v72c0 33.084 26.916 60 60 60s60-26.916 60-60v-72c0-33.084-26.916-60-60-60zm20 132c0 11.028-8.972 20-20 20s-20-8.972-20-20v-72c0-11.028 8.972-20 20-20s20 8.972 20 20z"/><path d="m437.538 279.98c-33.084 0-60 26.916-60 60v112c0 33.084 26.916 60 60 60s60-26.916 60-60v-112c0-33.084-26.916-60-60-60zm20 172c0 11.028-8.972 20-20 20s-20-8.972-20-20v-112c0-11.028 8.972-20 20-20s20 8.972 20 20z"/><path d="m86.157 300.285 28.285-28.285c7.811-7.811 7.81-20.474-.001-28.284-7.811-7.811-20.474-7.811-28.284 0l-28.284 28.285c-7.811 7.811-7.81 20.474.001 28.284 7.81 7.81 20.473 7.81 28.283 0z"/><path d="m267.801.302c-20.39 1.206-58.24 6.874-82.649 31.282-.001 0-.001 0-.001.001-4.896 4.896-9.284 10.294-13.037 16.034l-51.333 78.41c-2.666 4.072-4.761 8.386-6.323 12.834h-23.449c-26.711 0-51.823 10.402-70.711 29.289-7.81 7.811-7.81 20.474 0 28.284s20.475 7.81 28.285 0c11.332-11.332 26.399-17.573 42.426-17.573h23.492c2.899 8.252 7.608 15.953 14.081 22.426l28.285 28.285c6.474 6.474 14.173 11.193 22.426 14.092v23.481c0 16.027-6.241 31.094-17.573 42.426-7.81 7.811-7.81 20.474 0 28.284s20.475 7.81 28.285 0c18.887-18.887 29.288-43.999 29.288-70.71v-23.444c4.449-1.562 8.762-3.662 12.834-6.328l78.449-51.358c5.733-3.753 11.115-8.131 15.997-13.012 24.448-24.45 30.131-62.259 31.342-82.621.733-12.342 1.663-54.08-17.2-72.942-18.794-18.793-60.559-17.87-72.914-17.14zm50.061 89.586c-1.727 23.805-9.044 44.304-19.572 54.832-2.943 2.944-6.182 5.579-9.623 7.832l-78.447 51.357c-7.863 5.146-18.406 4.042-25.067-2.62l-28.284-28.284c-6.664-6.665-7.767-17.207-2.62-25.067l51.34-78.42c2.256-3.451 4.896-6.698 7.849-9.65h-.001c10.485-10.484 30.96-17.777 54.771-19.507 23.314-1.696 40.218 2.657 44.21 5.399 2.753 3.972 7.134 20.831 5.444 44.128z"/></g><g><circle cx="255.862" cy="102.295" r="20"/></g><path d="m491.681 125.838-40-40c-7.92-7.92-20.615-7.67-28.285 0l-40 40c-7.811 7.811-7.811 20.474 0 28.284s20.475 7.811 28.285 0l5.857-5.857v71.715c0 11.046 8.954 20 20 20s20-8.954 20-20v-71.715l5.857 5.857c7.81 7.81 20.475 7.81 28.285 0 7.811-7.811 7.811-20.474.001-28.284z"/></g></svg>