<svg id="Capa_1" enable-background="new 0 0 512.008 512.008" height="512" viewBox="0 0 512.008 512.008" width="512" xmlns="http://www.w3.org/2000/svg"><g><path d="m143.305 453.611c23.449-23.449 23.45-61.403 0-84.853-23.449-23.45-61.403-23.45-84.853 0-5.776 5.776-15.12 18.552-36.281 66.475-11.214 25.396-20.335 48.459-20.718 49.429-2.927 7.411-1.175 15.853 4.46 21.488 5.634 5.635 14.077 7.387 21.488 4.46.97-.383 24.033-9.504 49.429-20.718 47.923-21.161 60.699-30.505 66.475-36.281zm-56.569-56.569c7.817-7.816 20.468-7.817 28.284 0 7.815 7.815 7.817 20.463.004 28.279-5.284 5.122-29.535 17.076-57.779 29.493 12.42-28.249 24.374-52.498 29.491-57.772z"/><path d="m433.763 234.055c9.769 5.157 21.868 1.418 27.024-8.35 25.268-47.866 41.88-102.469 50.412-155.917 3.053-19.125-3.256-38.686-16.877-52.324-13.615-13.631-32.334-19.722-51.359-16.709-85.355 13.515-172.539 46.898-236.02 106.604-46.007-4.414-92.671 5.777-132.431 29.1-16.282 9.55-26.996 25.768-29.395 44.494-2.386 18.616 3.841 36.888 17.083 50.13l218.78 218.78c13.248 13.247 31.517 19.467 50.128 17.083 18.726-2.399 34.944-13.113 44.496-29.395 24.992-42.604 34.908-93.147 27.919-142.318-1.066-7.503-6.282-13.758-13.47-16.157-7.188-2.398-15.116-.529-20.474 4.829-31.796 31.796-72.775 57.344-121.942 76.047l-95.526-95.526c18.703-49.168 44.251-90.147 76.047-121.943 36.238-36.238 80.457-60.204 121.958-76.031l95.562 95.562c-5.662 14.865-12.352 30.027-20.266 45.018-5.156 9.768-1.417 21.867 8.351 27.023zm-68.645 106.785c-2.176 26.889-10.331 53.142-24.017 76.472-3.236 5.516-8.731 9.146-15.078 9.958-6.237.799-12.345-1.276-16.76-5.691l-30.881-30.881c32.354-13.723 61.35-30.393 86.736-49.858zm-243.746-107.153-30.888-30.888c-4.417-4.417-6.491-10.526-5.692-16.762.813-6.346 4.443-11.841 9.958-15.076 23.337-13.689 49.595-21.838 76.485-24.015-19.467 25.386-36.14 54.386-49.863 86.741zm271.367-181.18c21.528-5.954 40.994-9.792 56.48-12.244 8.516-1.349 14.182 2.847 16.799 5.467 4.665 4.671 6.735 11.141 5.68 17.752-2.522 15.797-6.344 34.969-12.104 55.88z"/><path d="m284.726 142.484c-23.394 23.394-23.394 61.458 0 84.853 23.394 23.394 61.459 23.394 84.853 0 23.449-23.449 23.45-61.404 0-84.853-23.393-23.394-61.459-23.394-84.853 0zm56.569 56.568c-7.797 7.797-20.486 7.799-28.285 0-7.798-7.798-7.798-20.486 0-28.284s20.487-7.798 28.285 0c7.816 7.817 7.816 20.467 0 28.284z"/></g></svg>