<svg id="Capa_1" enable-background="new 0 0 512.031 512.031" height="512" viewBox="0 0 512.031 512.031" width="512" xmlns="http://www.w3.org/2000/svg"><g id="Star_1_"><path d="m495.006 333.707-33.279-99.84c-3.629-10.889-5.395-22.748-6.929-37.204-6.541-61.62-39.213-117.991-89.642-154.66-50.993-37.079-113.655-50.214-176.447-36.986-85.402 17.991-153.305 88.005-168.967 174.219-6.626 36.471-4.447 72.445 6.476 106.923 10.247 32.344 28.267 62.39 52.11 86.888 11.414 11.727 17.7 26.729 17.701 42.243l.002 36.743c.001 33.083 26.917 59.998 60 59.998h200.001c33.084 0 60-26.916 60-60v-32c0-11.046-8.954-20-20-20h-40c-11.046 0-20 8.954-20 20s8.954 20 20 20h20v12c0 11.028-8.972 20-20 20h-200.001c-11.027 0-20-8.972-20-20l-.002-36.742c0-25.993-10.312-50.903-29.036-70.14-41.097-42.226-58.555-100.092-47.896-158.762 12.789-70.395 68.189-127.552 137.858-142.229 51.572-10.865 102.954-.141 144.677 30.197 41.292 30.025 68.042 76.144 73.39 126.53 1.458 13.738 3.458 29.727 8.758 45.63l24.504 73.516h-52.252c-11.046 0-20 8.954-20 20s8.954 20 20 20h80c6.429 0 12.466-3.09 16.225-8.306 3.759-5.215 4.782-11.92 2.749-18.018z"/><g><path d="m297.26 334.815-61.228-32.189-61.228 32.189c-6.738 3.542-14.903 2.953-21.062-1.522s-9.243-12.058-7.957-19.561l11.693-68.178-49.534-48.284c-5.452-5.314-7.414-13.262-5.061-20.502s8.611-12.517 16.145-13.612l68.455-9.947 30.614-62.03c3.369-6.827 10.322-11.149 17.935-11.149s14.565 4.322 17.935 11.149l30.614 62.03 68.455 9.947c7.534 1.094 13.792 6.371 16.145 13.612s.391 15.188-5.061 20.502l-49.534 48.284 11.693 68.178c1.287 7.503-1.798 15.086-7.957 19.561-6.158 4.475-14.325 5.065-21.062 1.522zm-61.228-74.784c3.197 0 6.394.766 9.307 2.297l34.665 18.224-6.621-38.6c-1.112-6.488 1.039-13.108 5.752-17.703l28.044-27.336-38.756-5.632c-6.514-.947-12.146-5.038-15.059-10.941l-17.333-35.119-17.331 35.12c-2.913 5.903-8.544 9.994-15.059 10.941l-38.756 5.632 28.044 27.336c4.713 4.595 6.864 11.215 5.752 17.703l-6.621 38.6 34.665-18.224c2.914-1.532 6.11-2.298 9.307-2.298z"/></g></g></svg>