<svg id="Capa_1" enable-background="new 0 0 512.003 512.003" height="512" viewBox="0 0 512.003 512.003" width="512" xmlns="http://www.w3.org/2000/svg"><path d="m493.733 511.925c-11 .958-20.7-7.189-21.656-18.194l-2.756-31.731h-225.847l2.453 28.271c.955 11.005-7.192 20.699-18.196 21.654-11.006.956-20.699-7.192-21.654-18.196l-33.75-389c-.955-11.005 7.192-20.699 18.196-21.654 11.007-.953 20.699 7.192 21.654 18.196l27.827 320.729h225.842l-26.834-308.923c-3.619-41.661-37.882-73.077-79.7-73.077h-190.402c-40.093 0-74.201 29.984-79.34 69.747l-30.274 234.254h75.957c11.046 0 20 8.954 20 20s-8.954 20-20 20h-81.127l-14.289 110.563c-1.303 10.084-9.906 17.438-19.81 17.439-.855 0-1.718-.055-2.589-.167-10.954-1.416-18.687-11.444-17.271-22.399l49.733-384.817c7.708-59.643 58.871-104.62 119.01-104.62h190.402c30.106 0 58.908 11.206 81.098 31.552 22.19 20.347 35.846 48.07 38.451 78.064l33.065 380.653c.957 11.005-7.189 20.701-18.193 21.656zm-112.481-409.924h-108.25c-11.046 0-20 8.954-20 20s8.954 20 20 20h108.25c11.046 0 20-8.954 20-20s-8.954-20-20-20zm15 160h-107c-11.046 0-20 8.954-20 20s8.954 20 20 20h107c11.046 0 20-8.954 20-20s-8.954-20-20-20zm-99 80c-11.046 0-20 8.954-20 20s8.954 20 20 20h106.25c11.046 0 20-8.954 20-20s-8.954-20-20-20zm91.25-160h-106.25c-11.046 0-20 8.954-20 20s8.954 20 20 20h106.25c11.046 0 20-8.954 20-20s-8.954-20-20-20z"/></svg>