<svg id="Capa_1" enable-background="new 0 0 512 512" height="512" viewBox="0 0 512 512" width="512" xmlns="http://www.w3.org/2000/svg"><path d="m60 148h358.428c17.788 0 35.298-6.037 49.305-17l26.662-20.866c11.188-8.756 17.605-21.926 17.605-36.134s-6.417-27.378-17.605-36.135l-26.662-20.865c-14.007-10.963-31.518-17-49.305-17h-358.428c-33.084 0-60 26.916-60 60v28c0 33.084 26.916 60 60 60zm-20-88c0-11.028 8.972-20 20-20h358.428c8.894 0 17.649 3.019 24.652 8.5l26.662 20.866c1.965 1.537 2.258 3.563 2.258 4.634s-.293 3.097-2.258 4.635l-26.662 20.865c-7.003 5.481-15.758 8.5-24.652 8.5h-358.428c-11.028 0-20-8.972-20-20zm454.395 159.865-26.662-20.865c-14.007-10.962-31.518-17-49.305-17h-358.428c-33.084 0-60 26.916-60 60v28c0 33.084 26.916 60 60 60h358.428c17.788 0 35.298-6.037 49.306-17l26.662-20.865c11.187-8.757 17.604-21.928 17.604-36.135s-6.417-27.378-17.605-36.135zm-24.652 40.77-26.662 20.865h-.001c-7.003 5.481-15.758 8.5-24.652 8.5h-358.428c-11.028 0-20-8.972-20-20v-28c0-11.028 8.972-20 20-20h358.428c8.894 0 17.649 3.019 24.652 8.5l26.662 20.866c1.965 1.538 2.258 3.563 2.258 4.635 0 1.069-.293 3.096-2.257 4.634zm24.651 141.23-26.661-20.865c-14.007-10.963-31.518-17-49.306-17h-358.427c-33.084 0-60 26.916-60 60v28c0 33.084 26.916 60 60 60h358.428c17.788 0 35.298-6.037 49.304-17l26.663-20.865c11.188-8.757 17.605-21.928 17.605-36.135s-6.417-27.378-17.606-36.135zm-24.651 40.77-26.663 20.865c-7.003 5.481-15.758 8.5-24.652 8.5h-358.428c-11.028 0-20-8.972-20-20v-28c0-11.028 8.972-20 20-20h358.428c8.894 0 17.649 3.019 24.653 8.5l26.661 20.865c1.965 1.537 2.258 3.563 2.258 4.635s-.293 3.098-2.257 4.635z"/></svg>