<svg id="Capa_1" enable-background="new 0 0 511.943 511.943" height="512" viewBox="0 0 511.943 511.943" width="512" xmlns="http://www.w3.org/2000/svg"><g><path d="m324.479 158.987-16.575 16.575c-22.298-10.622-49.842-6.726-68.278 11.709-23.394 23.394-23.394 61.458 0 84.853 7.798 7.798 7.798 20.486 0 28.284s-20.487 7.797-28.285 0c-5.035-5.035-7.019-12.445-5.177-19.34 2.85-10.672-3.491-21.633-14.162-24.483-10.67-2.849-21.633 3.49-24.483 14.162-3.73 13.967-2.205 28.645 3.844 41.356l-16.589 16.589c-7.811 7.811-7.811 20.474 0 28.284 7.811 7.811 20.474 7.811 28.284 0l16.575-16.575c22.309 10.627 49.829 6.74 68.279-11.709 23.393-23.394 23.393-61.459-.001-84.853-7.798-7.798-7.797-20.486 0-28.285 7.798-7.798 20.486-7.798 28.284 0 5.035 5.035 7.019 12.446 5.178 19.341-2.85 10.671 3.491 21.633 14.163 24.482 10.672 2.85 21.633-3.491 24.482-14.163 3.73-13.967 2.204-28.644-3.844-41.355l16.589-16.589c7.811-7.811 7.811-20.474 0-28.284s-20.474-7.81-28.284.001z"/><path d="m300.624 437.829c7.811 7.811 20.474 7.811 28.284 0l136.992-137.421c9.253-9.253 15.121-20.979 16.968-33.91l28.285-197.99c2.659-18.614-3.685-37.658-16.969-50.942s-32.327-19.63-50.942-16.968l-197.99 28.284c-12.931 1.847-24.656 7.715-33.91 16.968l-193.56 193.99c-23.45 23.45-23.45 61.403 0 84.853l169.706 169.706c23.393 23.394 61.46 23.394 84.853 0 7.811-7.811 7.811-20.474 0-28.284s-20.474-7.811-28.284 0c-7.798 7.798-20.487 7.797-28.285 0l-169.706-169.707c-7.816-7.817-7.817-20.468 0-28.284l193.56-193.99c3.086-3.085 6.987-5.041 11.283-5.655l197.99-28.284c6.309-.899 12.507 1.16 17.001 5.655 4.495 4.495 6.556 10.692 5.655 17.001l-28.285 197.99c-.614 4.296-2.569 8.198-5.655 11.283l-136.991 137.421c-7.81 7.811-7.81 20.474 0 28.284z"/><path d="m423.474 144.844c7.811-7.811 7.811-20.474 0-28.284l-28.284-28.284c-7.811-7.811-20.474-7.811-28.284 0s-7.811 20.474 0 28.284l28.284 28.284c7.81 7.811 20.473 7.811 28.284 0z"/></g></svg>