<svg id="Capa_1" enable-background="new 0 0 512 512" height="512" viewBox="0 0 512 512" width="512" xmlns="http://www.w3.org/2000/svg"><g id="Ticket_Office"><g><path d="m336 240c-11.046 0-20-8.954-20-20v-40c0-33.084-26.916-60-60-60s-60 26.916-60 60v40c0 11.046-8.954 20-20 20s-20-8.954-20-20v-40c0-55.14 44.859-100 100-100s100 44.86 100 100v40c0 11.046-8.954 20-20 20z"/></g><path d="m492 280h-20v-240h20c11.046 0 20-8.954 20-20s-8.954-20-20-20h-472c-11.046 0-20 8.954-20 20s8.954 20 20 20h20v240h-20c-11.046 0-20 8.954-20 20s8.954 20 20 20h20v172c0 11.046 8.954 20 20 20s20-8.954 20-20v-20h352v20c0 11.046 8.954 20 20 20s20-8.954 20-20v-172h20c11.046 0 20-8.954 20-20s-8.954-20-20-20zm-412-240h352v240h-352zm352 392h-352v-112h352z"/></g></svg>