<svg id="Capa_1" enable-background="new 0 0 512 512" height="512" viewBox="0 0 512 512" width="512" xmlns="http://www.w3.org/2000/svg"><g><path d="m391.105 225.099c-2.353-7.24-8.611-12.517-16.145-13.612l-42.168-6.128-18.858-38.21c-3.369-6.827-10.321-11.149-17.934-11.149s-14.565 4.322-17.935 11.149l-18.858 38.21-42.168 6.128c-7.534 1.095-13.792 6.372-16.145 13.612s-.391 15.188 5.061 20.502l30.513 29.743-7.203 41.997c-1.287 7.503 1.798 15.086 7.957 19.561s14.324 5.065 21.062 1.522l37.716-19.828 37.716 19.828c6.738 3.543 14.904 2.952 21.062-1.522 6.159-4.475 9.243-12.058 7.957-19.561l-7.203-41.997 30.513-29.743c5.451-5.314 7.413-13.262 5.06-20.502zm-71.023 28.94c-4.713 4.595-6.864 11.215-5.751 17.703l2.13 12.419-11.154-5.864c-5.826-3.063-12.788-3.063-18.613 0l-11.154 5.864 2.13-12.419c1.113-6.488-1.038-13.108-5.751-17.703l-9.023-8.795 12.47-1.812c6.514-.946 12.146-5.038 15.059-10.941l5.575-11.3 5.577 11.299c2.913 5.903 8.544 9.995 15.059 10.941l12.47 1.812z"/><path d="m512 136c0-33.084-26.916-60-60-60h-392c-33.084 0-60 26.916-60 60 0 49.365 14.736 68.062 26.577 83.084 8.371 10.62 13.423 17.03 13.423 36.916 0 19.623-5.037 26.035-13.38 36.66-11.86 15.101-26.62 33.895-26.62 83.34 0 33.084 26.916 60 60 60h392c33.084 0 60-26.916 60-60 0-49.365-14.736-68.062-26.577-83.084-8.371-10.62-13.423-17.03-13.423-36.916 0-19.623 5.037-26.035 13.38-36.66 11.86-15.101 26.62-33.895 26.62-83.34zm-58.078 58.634c-9.767 12.437-21.922 27.914-21.922 61.366 0 33.755 12.203 49.237 22.008 61.677 9.654 12.248 17.992 22.827 17.992 58.323 0 11.028-8.972 20-20 20h-292v-15.652c0-11.046-8.954-20-20-20s-20 8.954-20 20v15.652h-60c-11.028 0-20-8.972-20-20 0-35.616 8.377-46.283 18.078-58.634 9.767-12.437 21.922-27.914 21.922-61.366 0-33.755-12.203-49.237-22.008-61.677-9.654-12.248-17.992-22.827-17.992-58.323 0-11.028 8.972-20 20-20h60v20c0 11.046 8.954 20 20 20s20-8.954 20-20v-20h292c11.028 0 20 8.972 20 20 0 35.616-8.377 46.283-18.078 58.634z"/><path d="m140 200.348c-11.046 0-20 8.954-20 20v75.652c0 11.046 8.954 20 20 20s20-8.954 20-20v-75.652c0-11.046-8.954-20-20-20z"/></g></svg>