<svg id="Capa_1" enable-background="new 0 0 512 512" height="512" viewBox="0 0 512 512" width="512" xmlns="http://www.w3.org/2000/svg"><g><circle cx="356" cy="100" r="20"/><circle cx="256" cy="100" r="20"/><circle cx="156" cy="100" r="20"/><path d="m76 352c-11.046 0-20 8.954-20 20s8.954 20 20 20h20v60c0 33.084 26.916 60 60 60h200c33.084 0 60-26.916 60-60v-60h20c11.046 0 20-8.954 20-20s-8.954-20-20-20h-100v-32c0-44.112-35.888-80-80-80s-80 35.888-80 80v32h-40v-152h240v92c0 11.046 8.954 20 20 20s20-8.954 20-20v-95.44c23.278-8.256 40-30.487 40-56.56v-80c0-33.084-26.916-60-60-60h-280c-33.084 0-60 26.916-60 60v80c0 26.073 16.722 48.304 40 56.56v155.44zm20-292c0-11.028 8.972-20 20-20h280c11.028 0 20 8.972 20 20v80c0 11.028-8.972 20-20 20h-280c-11.028 0-20-8.972-20-20zm120 260c0-22.056 17.944-40 40-40s40 17.944 40 40v32h-80zm160 72v60c0 11.028-8.972 20-20 20h-200c-11.028 0-20-8.972-20-20v-60z"/></g></svg>