<svg id="Capa_1" enable-background="new 0 0 512 512" height="512" viewBox="0 0 512 512" width="512" xmlns="http://www.w3.org/2000/svg"><g id="Ticket"><path d="m270.142 201.858-40-40c-5.72-5.72-14.322-7.431-21.796-4.335-7.473 3.095-12.346 10.388-12.346 18.477v63.44c-6.26-2.22-12.989-3.44-20-3.44-33.084 0-60 26.916-60 60s26.916 60 60 60 60-26.916 60-60v-71.716l5.858 5.858c7.811 7.811 20.474 7.811 28.284 0s7.811-20.474 0-28.284zm-94.142 114.142c-11.028 0-20-8.972-20-20s8.972-20 20-20 20 8.972 20 20-8.972 20-20 20z"/><path d="m481.044 312.738c-5.663-3.722-9.044-9.979-9.044-16.738v-80c0-6.759 3.381-13.016 9.043-16.738 19.384-12.74 30.957-33.756 30.957-56.218 0-36.968-30.076-67.044-67.044-67.044h-32.956c-11.046 0-20 8.954-20 20s8.954 20 20 20h32.956c14.912 0 27.044 12.132 27.044 27.044 0 8.952-4.832 17.472-12.926 22.792-16.953 11.142-27.074 29.895-27.074 50.164v80c0 20.269 10.122 39.022 27.076 50.165 8.093 5.319 12.924 13.839 12.924 22.792 0 14.911-12.132 27.043-27.044 27.043h-92.956v-60c0-11.046-8.954-20-20-20s-20 8.954-20 20v60h-244.956c-14.912 0-27.044-12.132-27.044-27.044 0-8.952 4.832-17.472 12.924-22.791 16.954-11.143 27.076-29.896 27.076-50.165v-80c0-20.269-10.121-39.022-27.074-50.165-8.094-5.319-12.926-13.839-12.926-22.791 0-14.912 12.132-27.044 27.044-27.044h244.957l-.001 60c0 11.046 8.954 20 20 20 11.045 0 20-8.955 20-20l.001-80c0-5.305-2.107-10.392-5.858-14.143-3.75-3.75-8.838-5.858-14.142-5.858h-264.957c-36.968.001-67.044 30.077-67.044 67.045 0 22.462 11.573 43.479 30.957 56.218 5.662 3.722 9.043 9.979 9.043 16.738v80c0 6.759-3.381 13.016-9.044 16.738-19.384 12.739-30.956 33.755-30.956 56.218 0 36.968 30.076 67.044 67.044 67.044h377.912c36.968 0 67.044-30.076 67.044-67.044 0-22.463-11.572-43.479-30.956-56.218z"/></g></svg>