<svg id="Capa_1" enable-background="new 0 0 512.103 512.103" height="512" viewBox="0 0 512.103 512.103" width="512" xmlns="http://www.w3.org/2000/svg"><g id="Tidal_Power"><g><path d="m20.103 200.052h67.716l-5.858 5.858c-7.811 7.811-7.811 20.474 0 28.284 7.811 7.811 20.474 7.811 28.284 0l39.997-39.998c3.332-3.329 5.333-7.817 5.761-12.171.129-1.312.129-2.634 0-3.946-.427-4.342-2.412-8.825-5.761-12.171l-39.997-39.998c-7.811-7.811-20.474-7.811-28.284 0s-7.811 20.474 0 28.284l5.858 5.858h-67.716c-11.046 0-20 8.954-20 20s8.954 20 20 20z"/><path d="m156.003 422.025c.129-1.312.129-2.634 0-3.946-.429-4.364-2.423-8.836-5.761-12.171l-39.997-39.998c-7.811-7.811-20.474-7.811-28.284 0s-7.811 20.474 0 28.284l5.858 5.858h-67.716c-11.046 0-20 8.954-20 20s8.954 20 20 20h67.716l-5.858 5.858c-7.811 7.811-7.811 20.474 0 28.284 7.811 7.811 20.474 7.811 28.284 0l39.997-39.998c3.313-3.31 5.328-7.765 5.761-12.171z"/></g><g><path d="m177 80.052c31.029 0 44.826-15.408 54.9-26.658 7.954-8.883 11.946-13.342 25.1-13.342s17.146 4.459 25.101 13.342c10.074 11.25 23.871 26.658 54.899 26.658 31.029 0 44.825-15.408 54.899-26.658 7.954-8.883 11.947-13.342 25.101-13.342 12.272 0 14.847 3.331 21.728 12.231 8.548 11.058 21.465 27.769 53.375 27.769 11.046 0 20-8.954 20-20s-8.954-20-20-20c-12.272 0-14.847-3.331-21.728-12.231-8.547-11.059-21.464-27.769-53.375-27.769-31.029 0-44.825 15.408-54.899 26.658-7.954 8.883-11.947 13.342-25.101 13.342s-17.146-4.459-25.1-13.342c-10.074-11.25-23.871-26.658-54.9-26.658s-44.826 15.408-54.899 26.658c-7.954 8.883-11.947 13.342-25.101 13.342s-17.146-4.458-25.1-13.342c-10.074-11.25-23.871-26.658-54.9-26.658-31.552 0-45.038 16.438-53.962 27.314-7.361 8.972-10.408 12.686-23.038 12.686-11.046 0-20 8.954-20 20s8.954 20 20 20c31.553 0 45.039-16.438 53.962-27.314 7.361-8.973 10.408-12.686 23.038-12.686 13.154 0 17.146 4.459 25.101 13.342 10.073 11.25 23.87 26.658 54.899 26.658z"/><path d="m492.103 472.052h-56v-372c0-11.046-8.954-20-20-20s-20 8.954-20 20v180h-62.531c-3.628-14.045-10.985-26.607-20.947-36.562l21.571-37.361c5.523-9.566 2.245-21.797-7.32-27.32-9.562-5.523-21.797-2.246-27.32 7.32l-21.386 37.042c-7.014-2.016-14.411-3.119-22.065-3.119-37.209 0-68.565 25.534-77.469 60h-41.76c-11.046 0-20 8.954-20 20s8.954 20 20 20h41.76c8.903 34.466 40.26 60 77.469 60 7.654 0 15.051-1.103 22.065-3.119l21.386 37.042c5.523 9.567 17.754 12.844 27.32 7.32 9.565-5.523 12.844-17.754 7.32-27.32l-21.571-37.361c9.962-9.955 17.319-22.517 20.947-36.562h62.531v152h-56c-11.046 0-20 8.954-20 20s8.954 20 20 20h152c11.046 0 20-8.954 20-20s-8.954-20-20-20zm-276-172c0-22.056 17.944-40 40-40s40 17.944 40 40-17.944 40-40 40-40-17.944-40-40z"/></g></g></svg>