<svg id="Capa_1" enable-background="new 0 0 512 512" height="512" viewBox="0 0 512 512" width="512" xmlns="http://www.w3.org/2000/svg"><g><path d="m416 32h-80c-11.046 0-20 8.954-20 20s8.954 20 20 20h80c11.028 0 20 8.972 20 20v360c0 11.028-8.972 20-20 20h-320c-11.028 0-20-8.972-20-20v-360c0-11.028 8.972-20 20-20h140v20c0 11.046 8.954 20 20 20s20-8.954 20-20v-72c0-11.046-8.954-20-20-20s-20 8.954-20 20v12h-140c-33.084 0-60 26.916-60 60v360c0 33.084 26.916 60 60 60h320c33.084 0 60-26.916 60-60v-360c0-33.084-26.916-60-60-60z"/><path d="m210.143 117.858c-7.811-7.811-20.475-7.811-28.285 0l-25.858 25.858-5.857-5.858c-7.811-7.811-20.475-7.811-28.285 0s-7.81 20.474 0 28.284l20 20c3.905 3.905 9.024 5.858 14.142 5.858s10.237-1.953 14.143-5.858l40-40c7.809-7.81 7.809-20.474 0-28.284z"/><path d="m210.143 237.858c-7.811-7.811-20.475-7.811-28.285 0l-25.858 25.858-5.857-5.858c-7.811-7.811-20.475-7.811-28.285 0s-7.81 20.474 0 28.284l20 20c3.905 3.905 9.024 5.858 14.142 5.858s10.237-1.953 14.143-5.858l40-40c7.809-7.81 7.809-20.474 0-28.284z"/><path d="m181.857 357.858-25.857 25.858-5.857-5.858c-7.811-7.811-20.475-7.811-28.285 0s-7.81 20.474 0 28.284l20 20c3.905 3.905 9.024 5.858 14.142 5.858s10.237-1.953 14.143-5.858l40-40c7.81-7.811 7.81-20.474 0-28.284-7.811-7.811-20.475-7.811-28.286 0z"/><path d="m376 152h-120c-11.046 0-20 8.954-20 20s8.954 20 20 20h120c11.046 0 20-8.954 20-20s-8.954-20-20-20z"/><path d="m376 272h-120c-11.046 0-20 8.954-20 20s8.954 20 20 20h120c11.046 0 20-8.954 20-20s-8.954-20-20-20z"/><path d="m376 392h-120c-11.046 0-20 8.954-20 20s8.954 20 20 20h120c11.046 0 20-8.954 20-20s-8.954-20-20-20z"/></g></svg>