<svg id="Capa_1" enable-background="new 0 0 512 512" height="512" viewBox="0 0 512 512" width="512" xmlns="http://www.w3.org/2000/svg"><g><path d="m296 432c11.046 0 20-8.954 20-20v-152c0-11.046-8.954-20-20-20s-20 8.954-20 20v152c0 11.046 8.954 20 20 20z"/><path d="m216 432c11.046 0 20-8.954 20-20v-152c0-11.046-8.954-20-20-20s-20 8.954-20 20v152c0 11.046 8.954 20 20 20z"/><path d="m83.173 198.605 33.285 260.83c3.717 29.967 29.314 52.565 59.542 52.565h160c30.228 0 55.825-22.598 59.529-52.466l25.423-196.974c1.414-10.955-6.32-20.982-17.275-22.396-10.946-1.414-20.981 6.32-22.396 17.275l-25.436 197.072c-1.236 9.971-9.767 17.489-19.845 17.489h-160c-10.078 0-18.609-7.518-19.855-17.558l-32.469-254.442h292.324c33.084 0 60-26.916 60-60s-26.916-60-60-60h-60v-20c0-33.084-26.916-60-60-60h-80c-33.084 0-60 26.916-60 60v20h-60c-33.084 0-60 26.916-60 60 0 28.681 20.234 52.713 47.173 58.605zm112.827-138.605c0-11.028 8.972-20 20-20h80c11.028 0 20 8.972 20 20v20h-120zm-100 60h320c11.028 0 20 8.972 20 20s-8.972 20-20 20h-320c-11.028 0-20-8.972-20-20s8.972-20 20-20z"/></g></svg>