<svg id="Capa_1" enable-background="new 0 0 512 512" height="512" viewBox="0 0 512 512" width="512" xmlns="http://www.w3.org/2000/svg"><g id="Trash"><g><g><path d="m336.001 512h-160c-29.435 0-54.311-21.034-59.172-50.026-41.683-241.761-40.828-233.017-40.828-241.974 0-33.084 26.916-60 60-60h240c33.084 0 60 26.916 60 60 0 9.854-.077 5.616-40.828 241.974-4.862 28.992-29.737 50.026-59.172 50.026zm-179.745-56.773c.006.037.013.073.019.11 1.609 9.655 9.905 16.664 19.726 16.664h160c9.821 0 18.117-7.008 19.726-16.664.006-.037.013-.073.019-.11 40.541-235.139 40.255-232.493 40.255-235.227 0-11.028-8.972-20-20-20h-240c-11.028 0-20 8.972-20 20 0 2.733-.28.126 40.255 235.227z"/></g><g><path d="m216.001 432c-11.046 0-20-8.954-20-20v-152c0-11.046 8.954-20 20-20s20 8.954 20 20v152c0 11.046-8.954 20-20 20z"/></g><g><path d="m296.001 432c-11.046 0-20-8.954-20-20v-152c0-11.046 8.954-20 20-20s20 8.954 20 20v152c0 11.046-8.954 20-20 20z"/></g><g><path d="m320 112-47.979-63.976c-3.824-5.1-9.663-8.024-16.02-8.024s-12.197 2.924-16.021 8.023l-47.979 63.977c-6.627 8.837-19.163 10.628-28 4.001s-10.628-19.163-4.001-28l47.979-63.976c11.282-15.044 29.234-24.025 48.022-24.025s36.739 8.981 48.021 24.024l47.979 63.976c6.627 8.837 4.836 21.373-4.001 28s-21.373 4.836-28-4z"/></g></g></g></svg>