<svg id="Capa_1" enable-background="new 0 0 512 512" height="512" viewBox="0 0 512 512" width="512" xmlns="http://www.w3.org/2000/svg"><g id="Unlinked_1_"><g><path d="m100 152c33.084 0 60-26.916 60-60s-26.916-60-60-60-60 26.916-60 60 26.916 60 60 60zm0-80c11.028 0 20 8.972 20 20s-8.972 20-20 20-20-8.972-20-20 8.972-20 20-20z"/><path d="m20 272h160c11.046 0 20-8.954 20-20v-20c0-44.112-35.888-80-80-80h-40c-44.112 0-80 35.888-80 80v20c0 11.046 8.954 20 20 20zm60-80h40c22.056 0 40 17.944 40 40h-120c0-22.056 17.944-40 40-40z"/><path d="m452 80v-20c0-33.084-26.916-60-60-60h-36c-33.084 0-60 26.916-60 60v20c-33.084 0-60 26.916-60 60v72c0 33.084 26.916 60 60 60h156c33.084 0 60-26.916 60-60v-72c0-33.084-26.916-60-60-60zm-116-20c0-11.028 8.972-20 20-20h36c11.028 0 20 8.972 20 20v20h-76zm136 152c0 11.028-8.972 20-20 20h-156c-11.028 0-20-8.972-20-20v-72c0-11.028 8.972-20 20-20h58v20c0 11.046 8.954 20 20 20s20-8.954 20-20v-20h58c11.028 0 20 8.972 20 20z"/><path d="m296 392c-11.046 0-20 8.954-20 20 0 33.084-26.916 60-60 60h-116c-33.084 0-60-26.916-60-60s26.916-60 60-60h57.474c11.046 0 20-8.954 20-20s-8.954-20-20-20h-57.474c-55.141 0-100 44.86-100 100s44.859 100 100 100h116c55.141 0 100-44.86 100-100 0-11.046-8.954-20-20-20z"/></g><g><path d="m412 512h-57.474c-11.046 0-20-8.954-20-20s8.954-20 20-20h57.474c33.084 0 60-26.916 60-60s-26.916-60-60-60h-116c-33.084 0-60 26.916-60 60 0 11.046-8.954 20-20 20s-20-8.954-20-20c0-55.14 44.859-100 100-100h116c55.141 0 100 44.86 100 100s-44.859 100-100 100z"/></g></g></svg>