<svg id="Capa_1" enable-background="new 0 0 512.011 512.011" height="512" viewBox="0 0 512.011 512.011" width="512" xmlns="http://www.w3.org/2000/svg"><g id="Upload"><g><path d="m296.006 432.011h-80c-33.084 0-60-26.916-60-60v-132h-20c-24.632 0-45.823-14.22-55.306-37.112-9.371-22.624-4.361-48.307 12.763-65.431l120-120c11.264-11.264 26.374-17.468 42.543-17.468s31.278 6.204 42.543 17.468l120.001 120c17.125 17.125 22.134 42.811 12.762 65.438-9.48 22.887-30.673 37.105-55.306 37.105h-20v132c0 33.084-26.916 60-60 60zm-40-392.055c-5.197 0-10.394 1.932-14.258 5.797l-120 120c-8.62 8.62-5.312 18.896-4.092 21.84 1.206 2.913 6.096 12.419 18.35 12.419h40c11.046 0 20 8.954 20 20v152c0 11.028 8.972 20 20 20h80c11.028 0 20-8.972 20-20v-152c0-11.046 8.954-20 20-20h40c12.256 0 17.145-9.501 18.351-12.413 1.22-2.945 4.53-13.225-4.092-21.846l-120-120c-3.865-3.865-9.062-5.797-14.259-5.797z"/></g><g><path d="m416.006 512.011h-320c-33.084 0-60-26.916-60-60v-40c0-11.046 8.954-20 20-20s20 8.954 20 20v40c0 11.028 8.972 20 20 20h320c11.028 0 20-8.972 20-20v-40c0-11.046 8.954-20 20-20s20 8.954 20 20v40c0 33.084-26.916 60-60 60z"/></g></g></svg>