<svg id="Capa_1" enable-background="new 0 0 512 512" height="512" viewBox="0 0 512 512" width="512" xmlns="http://www.w3.org/2000/svg"><g><path d="m447.759 320h-23.601c-11.046 0-20 8.954-20 20v72c0 11.028-8.972 20-20 20h-40c-33.084 0-60 26.916-60 60 0 11.046 8.954 20 20 20s20-8.954 20-20c0-11.028 8.972-20 20-20h40c33.084 0 60-26.916 60-60v-52h3.601c24.7 0 45.916-14.176 55.368-36.996s4.474-47.845-12.991-65.311l-46.136-46.136c-4.454-118.45-101.308-211.557-219.842-211.557-121.838 0-220 98.162-220 220 0 53.438 19.682 105.307 55.419 146.051 15.851 18.072 24.581 43.474 24.581 71.529v14.42c0 33.084 26.916 60 60 60h80c11.046 0 20-8.954 20-20s-8.954-20-20-20h-80c-11.028 0-20-8.972-20-20v-14.42c0-37.764-12.255-72.534-34.509-97.906-29.335-33.445-45.491-75.945-45.491-119.674 0-99.685 80.315-180 180-180s180 80.315 180 180c0 5.304 2.107 10.391 5.858 14.142l51.836 51.835c8.737 8.737 5.516 18.833 4.32 21.719-1.195 2.887-6.056 12.304-18.413 12.304z"/><path d="m130.016 274.142c7.811 7.811 20.474 7.811 28.284 0 7.811-7.811 7.811-20.474 0-28.284l-25.858-25.858 25.858-25.858c7.811-7.811 7.811-20.474 0-28.284s-20.474-7.811-28.284 0l-40 40c-7.811 7.811-7.811 20.474 0 28.284z"/><path d="m290.016 274.142c7.811 7.811 20.474 7.811 28.284 0l40-40c7.811-7.811 7.811-20.474 0-28.284l-40-40c-7.811-7.811-20.474-7.811-28.284 0s-7.811 20.474 0 28.284l25.858 25.858-25.858 25.858c-7.81 7.81-7.81 20.474 0 28.284z"/><path d="m199.308 319.403c10.715 2.68 21.574-3.837 24.253-14.552l40-160c2.679-10.716-3.836-21.575-14.552-24.254-10.715-2.68-21.574 3.836-24.253 14.552l-40 160c-2.68 10.716 3.836 21.575 14.552 24.254z"/></g></svg>