<svg id="Capa_1" enable-background="new 0 0 512 512" height="512" viewBox="0 0 512 512" width="512" xmlns="http://www.w3.org/2000/svg"><g><path d="m316 60c0-33.084-26.916-60-60-60s-60 26.916-60 60 26.916 60 60 60 60-26.916 60-60zm-60 20c-11.028 0-20-8.972-20-20s8.972-20 20-20 20 8.972 20 20-8.972 20-20 20z"/><path d="m216 240h80c33.084 0 60-26.916 60-60s-26.916-60-60-60h-80c-33.084 0-60 26.916-60 60s26.916 60 60 60zm0-80h80c11.028 0 20 8.972 20 20s-8.972 20-20 20h-80c-11.028 0-20-8.972-20-20s8.972-20 20-20z"/><path d="m472 332c0-33.084-26.916-60-60-60s-60 26.916-60 60 26.916 60 60 60 60-26.916 60-60zm-60 20c-11.028 0-20-8.972-20-20s8.972-20 20-20 20 8.972 20 20-8.972 20-20 20z"/><path d="m452 392h-80c-33.084 0-60 26.916-60 60s26.916 60 60 60h80c33.084 0 60-26.916 60-60s-26.916-60-60-60zm0 80h-80c-11.028 0-20-8.972-20-20s8.972-20 20-20h80c11.028 0 20 8.972 20 20s-8.972 20-20 20z"/><path d="m160 332c0-33.084-26.916-60-60-60s-60 26.916-60 60 26.916 60 60 60 60-26.916 60-60zm-60 20c-11.028 0-20-8.972-20-20s8.972-20 20-20 20 8.972 20 20-8.972 20-20 20z"/><path d="m60 512h80c33.084 0 60-26.916 60-60s-26.916-60-60-60h-80c-33.084 0-60 26.916-60 60s26.916 60 60 60zm0-80h80c11.028 0 20 8.972 20 20s-8.972 20-20 20h-80c-11.028 0-20-8.972-20-20s8.972-20 20-20z"/><path d="m216 352h80c11.046 0 20-8.954 20-20s-8.954-20-20-20h-20v-20c0-11.046-8.954-20-20-20s-20 8.954-20 20v20h-20c-11.046 0-20 8.954-20 20s8.954 20 20 20z"/></g></svg>