<svg id="Capa_1" enable-background="new 0 0 512 512" height="512" viewBox="0 0 512 512" width="512" xmlns="http://www.w3.org/2000/svg"><g id="Video_Editor"><g><path d="m156 316c-22.056 0-40-17.944-40-40v-120c0-22.056 17.944-40 40-40 8.724 0 17.019 2.763 23.987 7.989l80.001 60c10.027 7.521 16.012 19.487 16.012 32.011s-5.985 24.49-16.011 32.01c-.001 0-.001 0-.001 0l-80 60c-6.969 5.227-15.264 7.99-23.988 7.99zm-.012-160.01.012 120.01 79.988-59.99h-.001c.012-.009.022-.021.025-.025zm92 76.02h.01z"/></g><g><path d="m432 36h-20c-11.046 0-20 8.954-20 20s8.954 20 20 20h20c22.056 0 40 17.944 40 40v200c0 22.056-17.944 40-40 40h-20c-11.046 0-20 8.954-20 20s8.954 20 20 20h20c44.112 0 80-35.888 80-80v-200c0-44.112-35.888-80-80-80z"/><path d="m332 0c-11.046 0-20 8.954-20 20v16h-232c-44.112 0-80 35.888-80 80v200c0 44.112 35.888 80 80 80h232v16c0 11.046 8.954 20 20 20s20-8.954 20-20v-392c0-11.046-8.954-20-20-20zm-252 356c-22.056 0-40-17.944-40-40v-200c0-22.056 17.944-40 40-40h232v280z"/><path d="m96 472h-76c-11.046 0-20 8.954-20 20s8.954 20 20 20h76c11.046 0 20-8.954 20-20s-8.954-20-20-20z"/><path d="m196 432h-40c-11.046 0-20 8.954-20 20s8.954 20 20 20h40c11.046 0 20-8.954 20-20s-8.954-20-20-20z"/><path d="m332 472h-76c-11.046 0-20 8.954-20 20s8.954 20 20 20h76c11.046 0 20-8.954 20-20s-8.954-20-20-20z"/><path d="m492 432h-80c-11.046 0-20 8.954-20 20s8.954 20 20 20h80c11.046 0 20-8.954 20-20s-8.954-20-20-20z"/></g></g></svg>