<svg id="Capa_1" enable-background="new 0 0 512 512" height="512" viewBox="0 0 512 512" width="512" xmlns="http://www.w3.org/2000/svg"><g id="Voltage_Indicator"><g><path d="m396 200c-11.046 0-20-8.954-20-20v-40c0-11.046 8.954-20 20-20s20 8.954 20 20v40c0 11.046-8.954 20-20 20z"/></g><g><path d="m476 200c-11.046 0-20-8.954-20-20v-40c0-11.046 8.954-20 20-20s20 8.954 20 20v40c0 11.046-8.954 20-20 20z"/></g><g><path d="m476 240c-11.046 0-20 8.954-20 20v192c0 11.028-8.972 20-20 20h-23.44c2.22-6.26 3.44-12.989 3.44-20v-192c0-11.046-8.954-20-20-20s-20 8.954-20 20v192c0 11.028-8.972 20-20 20h-80c-11.028 0-20-8.972-20-20v-12c44.112 0 80-35.888 80-80v-280c0-44.112-35.888-80-80-80h-160c-44.112 0-80 35.888-80 80v280c0 44.112 35.888 80 80 80h120v12c0 33.084 26.916 60 60 60h160c33.084 0 60-26.916 60-60v-192c0-11.046-8.954-20-20-20zm-380-200h160c22.056 0 40 17.944 40 40v40h-240v-40c0-22.056 17.944-40 40-40zm-40 320v-200h240v200c0 22.056-17.944 40-40 40h-160c-22.056 0-40-17.944-40-40z"/><path d="m176 200c-44.112 0-80 35.888-80 80s35.888 80 80 80 80-35.888 80-80-35.888-80-80-80zm0 120c-22.056 0-40-17.944-40-40s17.944-40 40-40 40 17.944 40 40-17.944 40-40 40z"/></g></g></svg>