<svg id="Capa_1" enable-background="new 0 0 512 512" height="512" viewBox="0 0 512 512" width="512" xmlns="http://www.w3.org/2000/svg"><g><g><path d="m201.094 249.34c-3.125-3.398-14.629-13.34-25.098-13.34-10.918 0-22.578 10.527-25.098 13.34-7.344 8.262-20.02 8.945-28.242 1.562-8.223-7.363-8.926-20.02-1.562-28.242 2.441-2.734 24.746-26.66 54.902-26.66s52.461 23.926 54.902 26.66c7.363 8.223 6.66 20.879-1.562 28.242-8.193 7.353-20.871 6.684-28.242-1.562z"/></g><path d="m108.183 180.486c14.543-11.17 38.114-24.486 67.817-24.486s53.274 13.316 67.817 24.486c8.759 6.729 21.316 5.082 28.044-3.678 6.729-8.76 5.082-21.315-3.678-28.044-19.459-14.947-51.248-32.764-92.183-32.764s-72.724 17.817-92.183 32.765c-8.76 6.729-10.406 19.284-3.678 28.044 6.728 8.759 19.284 10.407 28.044 3.677z"/><circle cx="176" cy="296" r="20"/><path d="m492 156h-80c-11.046 0-20 8.954-20 20v80c0 26.073 16.722 48.303 40 56.56v139.44c0 11.028-8.972 20-20 20h-120c-11.028 0-20-8.972-20-20v-16c44.112 0 80-35.888 80-80v-276c0-44.112-35.888-80-80-80h-192c-44.112 0-80 35.888-80 80v276c0 44.112 35.888 80 80 80h152v16c0 33.084 26.916 60 60 60h120c33.084 0 60-26.916 60-60v-139.44c23.278-8.256 40-30.487 40-56.56v-80c0-11.046-8.954-20-20-20zm-452 200v-276c0-22.056 17.944-40 40-40h192c22.056 0 40 17.944 40 40v276c0 22.056-17.944 40-40 40h-192c-22.056 0-40-17.944-40-40zm432-100c0 11.028-8.972 20-20 20s-20-8.972-20-20v-60h40z"/><path d="m432 56v40c0 11.046 8.954 20 20 20s20-8.954 20-20v-40c0-11.046-8.954-20-20-20s-20 8.954-20 20z"/></g></svg>