<svg id="Capa_1" enable-background="new 0 0 512 512" height="512" viewBox="0 0 512 512" width="512" xmlns="http://www.w3.org/2000/svg"><g><path d="m506.708 387.336-43.522-96.437c-13.35-29.581-40.131-50.492-71.185-56.856v-214.043c0-11.046-8.954-20-20-20s-20 8.954-20 20v212h-212.001c-39.245 0-75.037 23.119-91.185 58.899l-43.523 96.437c-3.511 7.783-5.292 16.081-5.292 24.664 0 33.084 26.916 60 60 60h20v20c0 11.046 8.954 20 20 20s20-8.954 20-20v-20h272v20c0 11.046 8.954 20 20 20s20-8.954 20-20v-20h20c33.084 0 60-26.916 60-60 0-8.583-1.781-16.882-5.292-24.664zm-54.708 44.664h-392c-11.028 0-20-8.972-20-20 0-2.872.589-5.634 1.752-8.21l43.522-96.437c9.693-21.476 31.174-35.353 54.726-35.353h232c23.552 0 45.033 13.877 54.726 35.354l43.522 96.436c1.163 2.576 1.752 5.338 1.752 8.21 0 11.028-8.972 20-20 20z"/><path d="m156 172v-152c0-11.046-8.954-20-20-20s-20 8.954-20 20v152c0 11.046 8.954 20 20 20s20-8.954 20-20z"/><ellipse cx="336" cy="372" rx="20" ry="20" transform="matrix(.383 -.924 .924 .383 -136.265 540.065)"/><circle cx="256" cy="372" r="20"/><circle cx="176" cy="372" r="20"/></g></svg>