<svg id="Capa_1" enable-background="new 0 0 512.031 512.031" height="512" viewBox="0 0 512.031 512.031" width="512" xmlns="http://www.w3.org/2000/svg"><g id="Wifi"><path d="m495.006 333.706-33.279-99.841c-3.629-10.889-5.395-22.748-6.929-37.203-6.54-61.62-39.213-117.991-89.642-154.66-50.992-37.078-113.656-50.213-176.447-36.986-85.402 17.992-153.305 88.006-168.968 174.22-6.626 36.471-4.447 72.445 6.476 106.923 10.247 32.344 28.267 62.389 52.11 86.888 11.414 11.727 17.7 26.729 17.701 42.243l.002 36.743c.001 33.083 26.917 59.998 60 59.998h200.001c33.084 0 60-26.916 60-60v-32c0-11.046-8.954-20-20-20h-40c-11.046 0-20 8.954-20 20s8.954 20 20 20h20v12c0 11.028-8.972 20-20 20h-200.001c-11.027 0-20-8.972-20-20l-.002-36.742c0-25.993-10.313-50.903-29.036-70.14-41.097-42.226-58.555-100.093-47.896-158.763 12.789-70.394 68.189-127.552 137.858-142.229 51.576-10.864 102.956-.14 144.677 30.197 41.292 30.025 68.042 76.144 73.39 126.53 1.458 13.739 3.458 29.728 8.758 45.63l24.504 73.517h-52.252c-11.046 0-20 8.954-20 20s8.954 20 20 20h80c6.429 0 12.466-3.09 16.225-8.306 3.76-5.215 4.783-11.92 2.75-18.019z"/><g><circle cx="176.032" cy="280.031" r="20"/></g><g><path d="m336.032 300.031c-11.046 0-20-8.954-20-20 0-77.196-62.804-140-140-140-11.046 0-20-8.954-20-20s8.954-20 20-20c99.252 0 180 80.748 180 180 0 11.045-8.954 20-20 20z"/></g><g><path d="m256.032 300.031c-11.046 0-20-8.954-20-20 0-33.084-26.916-60-60-60-11.046 0-20-8.954-20-20s8.954-20 20-20c55.14 0 100 44.86 100 100 0 11.045-8.954 20-20 20z"/></g></g></svg>