<svg id="Capa_1" enable-background="new 0 0 512 512" height="512" viewBox="0 0 512 512" width="512" xmlns="http://www.w3.org/2000/svg"><g id="Wifi"><g><path d="m412 512h-312c-55.14 0-100-44.86-100-100v-312c0-55.14 44.86-100 100-100h312c55.141 0 100 44.86 100 100v312c0 55.14-44.859 100-100 100zm-312-472c-33.084 0-60 26.916-60 60v312c0 33.084 26.916 60 60 60h312c33.084 0 60-26.916 60-60v-312c0-33.084-26.916-60-60-60z"/></g><g><path d="m407.044 164.492c-44.287-31.724-96.518-48.492-151.044-48.492-54.527 0-106.757 16.768-151.044 48.492-8.979 6.432-21.473 4.369-27.905-4.612-6.433-8.979-4.368-21.473 4.612-27.905 51.12-36.62 111.405-55.975 174.337-55.975s123.217 19.355 174.337 55.974c8.979 6.432 11.045 18.926 4.612 27.905-6.431 8.979-18.928 11.045-27.905 4.613z"/></g><g><path d="m360.558 229.571c-30.659-21.962-66.814-33.571-104.558-33.571s-73.899 11.609-104.558 33.571c-8.98 6.434-21.474 4.367-27.906-4.612-6.433-8.979-4.368-21.473 4.612-27.906 37.492-26.857 81.702-41.053 127.852-41.053 46.149 0 90.36 14.196 127.853 41.054 8.979 6.433 11.044 18.926 4.611 27.906-6.432 8.978-18.928 11.043-27.906 4.611z"/></g><g><path d="m314.079 294.644c-17.027-12.197-37.11-18.644-58.079-18.644-20.968 0-41.052 6.447-58.079 18.644-8.98 6.433-21.474 4.367-27.906-4.613s-4.367-21.474 4.613-27.906c23.861-17.091 51.998-26.125 81.372-26.125 29.373 0 57.512 9.034 81.372 26.125 8.979 6.432 11.045 18.926 4.612 27.906-6.43 8.979-18.926 11.043-27.905 4.613z"/></g><g><path d="m256 436c-33.084 0-60-26.916-60-60s26.916-60 60-60 60 26.916 60 60-26.916 60-60 60zm0-80c-11.028 0-20 8.972-20 20s8.972 20 20 20 20-8.972 20-20-8.972-20-20-20z"/></g></g></svg>