<svg id="Capa_1" enable-background="new 0 0 512 512" height="512" viewBox="0 0 512 512" width="512" xmlns="http://www.w3.org/2000/svg"><g><path d="m196 376c0 33.084 26.916 60 60 60s60-26.916 60-60-26.916-60-60-60-60 26.916-60 60zm80 0c0 11.028-8.972 20-20 20s-20-8.972-20-20 8.972-20 20-20 20 8.972 20 20z"/><path d="m412 0h-312c-55.14 0-100 44.86-100 100v312c0 55.14 44.86 100 100 100h312c55.14 0 100-44.86 100-100v-312c0-55.14-44.86-100-100-100zm60 412c0 33.084-26.916 60-60 60h-312c-33.084 0-60-26.916-60-60v-312c0-33.084 26.916-60 60-60h312c33.084 0 60 26.916 60 60z"/><path d="m427.456 129.936c-50.497-35.286-109.786-53.936-171.456-53.936s-120.959 18.65-171.456 53.936c-9.054 6.327-11.265 18.795-4.938 27.85 6.327 9.054 18.794 11.265 27.85 4.938 43.745-30.567 95.11-46.724 148.544-46.724s104.799 16.157 148.544 46.724c9.054 6.327 21.523 4.116 27.85-4.938 6.327-9.055 4.116-21.524-4.938-27.85z"/><path d="m381.739 195.559c-37.034-25.88-80.514-39.559-125.739-39.559s-88.705 13.679-125.739 39.559c-9.054 6.327-11.265 18.796-4.938 27.85s18.795 11.266 27.85 4.938c30.283-21.162 65.84-32.347 102.827-32.347s72.544 11.185 102.827 32.347c9.054 6.326 21.523 4.116 27.85-4.938 6.327-9.055 4.116-21.523-4.938-27.85z"/><path d="m336.028 261.174c-23.57-16.469-51.243-25.174-80.028-25.174s-56.458 8.705-80.028 25.174c-9.054 6.327-11.265 18.795-4.939 27.85 6.326 9.054 18.795 11.265 27.85 4.939 16.818-11.752 36.569-17.963 57.117-17.963s40.299 6.211 57.117 17.963c9.055 6.326 21.523 4.115 27.85-4.939 6.326-9.054 4.115-21.523-4.939-27.85z"/></g></svg>