<svg id="Capa_1" enable-background="new 0 0 512.011 512.011" height="512" viewBox="0 0 512.011 512.011" width="512" xmlns="http://www.w3.org/2000/svg"><g id="Wifi"><g><path d="m383.284 92.677c-33.935-33.935-79.136-52.624-127.278-52.624s-93.345 18.689-127.279 52.624c-7.811 7.811-20.474 7.811-28.284 0s-7.811-20.474 0-28.284c41.49-41.49 96.736-64.339 155.563-64.339s114.073 22.85 155.563 64.339c7.81 7.811 7.81 20.474 0 28.284-7.811 7.81-20.473 7.812-28.285 0z"/></g><g><path d="m326.715 149.246c-18.852-18.853-43.964-29.235-70.71-29.235s-51.858 10.382-70.711 29.235c-7.811 7.81-20.474 7.81-28.284 0-7.811-7.811-7.811-20.474 0-28.284 26.408-26.408 61.565-40.951 98.995-40.951 37.431 0 72.588 14.543 98.995 40.951 7.811 7.811 7.81 20.474-.001 28.284-7.807 7.808-20.47 7.813-28.284 0z"/></g><g><path d="m270.147 205.815c-3.778-3.777-8.8-5.858-14.142-5.858s-10.364 2.081-14.142 5.858c-7.811 7.811-20.474 7.811-28.284 0s-7.811-20.474 0-28.284c23.394-23.395 61.458-23.395 84.853 0 7.81 7.811 7.81 20.474 0 28.284s-20.474 7.81-28.285 0z"/></g><g><path d="m452.005 271.957h-10.46l69.029-172.572c4.103-10.255-.886-21.895-11.142-25.997-10.254-4.102-21.895.885-25.997 11.142l-74.971 187.428h-66.46c-11.046 0-20 8.954-20 20s8.954 20 20 20h120c11.028 0 20 8.972 20 20v80c0 11.028-8.972 20-20 20h-392c-11.028 0-20-8.972-20-20v-80c0-11.028 8.972-20 20-20h20v20c0 33.084 26.916 60 60 60h72c33.084 0 60-26.916 60-60v-40c0-11.046-8.954-20-20-20h-138.46l-74.969-187.429c-4.102-10.256-15.743-15.246-25.997-11.142-10.256 4.102-15.245 15.742-11.142 25.997l69.029 172.572h-10.46c-33.084 0-60 26.916-60 60v80c0 33.084 26.916 60 60 60h20v20c0 11.046 8.954 20 20 20s20-8.954 20-20v-20h312v20c0 11.046 8.954 20 20 20s20-8.954 20-20v-23.44c23.278-8.256 40-30.487 40-56.56v-80c0-33.083-26.916-59.999-60-59.999zm-240 80h-72c-11.028 0-20-8.972-20-20v-20h112v20c0 11.028-8.972 20-20 20z"/><circle cx="332.005" cy="371.957" r="20"/><circle cx="412.005" cy="371.957" r="20"/></g></g></svg>