<svg id="Capa_1" enable-background="new 0 0 512 512" height="512" viewBox="0 0 512 512" width="512" xmlns="http://www.w3.org/2000/svg"><g><path d="m446 312c-18.77 0-34.002 7.078-45 15.437-10.998-8.359-26.23-15.437-45-15.437-36.449 0-65 32.212-65 73.333 0 26.679 13.082 78.313 100.694 124.37 2.913 1.531 6.109 2.297 9.306 2.297s6.393-.766 9.306-2.297c87.612-46.057 100.694-97.691 100.694-124.37 0-41.121-28.551-73.333-65-73.333zm-45 157.199c-44.634-25.49-70-55.724-70-83.866 0-16.159 8.762-33.333 25-33.333 17.405 0 27.105 13.272 28.14 14.765 3.611 6.014 9.837 9.696 16.86 9.696s13.249-3.682 16.86-9.696c1.035-1.493 10.735-14.765 28.14-14.765 16.238 0 25 17.174 25 33.333 0 28.142-25.366 58.376-70 83.866z"/><path d="m61 512h203.798c11.046 0 20-8.954 20-20s-8.954-20-20-20h-203.798c-11.028 0-20-8.972-20-20v-392c0-11.028 8.972-20 20-20h300c11.028 0 20 8.972 20 20v192.344c0 11.046 8.954 20 20 20s20-8.954 20-20v-192.344c0-33.084-26.916-60-60-60h-300c-33.084 0-60 26.916-60 60v392c0 33.084 26.916 60 60 60z"/><circle cx="101" cy="96" r="20"/><path d="m321 76h-140c-11.046 0-20 8.954-20 20s8.954 20 20 20h140c11.046 0 20-8.954 20-20s-8.954-20-20-20z"/><circle cx="101" cy="176" r="20"/><path d="m321 156h-140c-11.046 0-20 8.954-20 20s8.954 20 20 20h140c11.046 0 20-8.954 20-20s-8.954-20-20-20z"/><circle cx="101" cy="256" r="20"/><path d="m341 256c0-11.046-8.954-20-20-20h-140c-11.046 0-20 8.954-20 20s8.954 20 20 20h140c11.046 0 20-8.954 20-20z"/><circle cx="101" cy="336" r="20"/><path d="m261.054 336c0-11.046-8.954-20-20-20h-60.054c-11.046 0-20 8.954-20 20s8.954 20 20 20h60.054c11.046 0 20-8.954 20-20z"/><circle cx="101" cy="416" r="20"/><path d="m181 396c-11.046 0-20 8.954-20 20s8.954 20 20 20h52.453c11.046 0 20-8.954 20-20s-8.954-20-20-20z"/></g></svg>