<svg id="Capa_1" enable-background="new 0 0 512.008 512.008" height="512" viewBox="0 0 512.008 512.008" width="512" xmlns="http://www.w3.org/2000/svg"><g id="Work_From_Home"><path d="m316.004 280.004v-20c0-33.084-26.916-60-60-60s-60 26.916-60 60v20c-33.084 0-60 26.916-60 60v32c0 33.084 26.916 60 60 60h120c33.084 0 60-26.916 60-60v-32c0-33.084-26.916-60-60-60zm-80-20c0-11.028 8.972-20 20-20s20 8.972 20 20v20h-40zm100 112c0 11.028-8.972 20-20 20h-120c-11.028 0-20-8.972-20-20v-32c0-11.028 8.972-20 20-20h40v20c0 11.046 8.954 20 20 20s20-8.954 20-20v-20h40c11.028 0 20 8.972 20 20z"/><g><path d=""/></g><g><path d="m482.882 153.802-217.535-111.492c-.042-.021-.083-.042-.124-.064-2.854-1.488-5.956-2.242-9.219-2.242s-6.365.754-9.219 2.242c-.042.021-.083.043-.124.064l-217.535 111.492c-9.829 5.039-21.883 1.154-26.92-8.676-5.038-9.83-1.154-21.882 8.676-26.92l217.475-111.462c8.483-4.41 18.042-6.74 27.647-6.74s19.164 2.331 27.647 6.74l217.475 111.461c9.83 5.038 13.714 17.091 8.676 26.92-5.038 9.832-17.089 13.716-26.92 8.677z"/></g><g><path d=""/></g><g><path d="m396.004 512.004h-280c-44.112 0-80-35.888-80-80v-198.382c0-22.445 12.364-42.833 32.269-53.207l178.487-93.03c5.793-3.02 12.695-3.02 18.488 0l178.488 93.03c19.904 10.374 32.268 30.761 32.268 53.206v198.382c0 44.113-35.888 80.001-80 80.001zm-140-384.329-169.243 88.212c-6.635 3.458-10.756 10.254-10.756 17.735v198.382c0 22.056 17.944 40 40 40h280c22.056 0 40-17.944 40-40v-198.382c0-7.481-4.122-14.277-10.756-17.735z"/></g></g></svg>