<svg id="Capa_1" enable-background="new 0 0 512 512" height="512" viewBox="0 0 512 512" width="512" xmlns="http://www.w3.org/2000/svg"><g><path d="m336 80c0-44.112-35.888-80-80-80s-80 35.888-80 80 35.888 80 80 80 80-35.888 80-80zm-80 40c-22.056 0-40-17.944-40-40s17.944-40 40-40 40 17.944 40 40-17.944 40-40 40z"/><path d="m153.217 234.903c8.23 7.366 20.874 6.666 28.241-1.564 18.963-21.188 46.132-33.339 74.542-33.339s55.579 12.151 74.542 33.338c7.368 8.232 20.013 8.929 28.241 1.564 8.23-7.367 8.931-20.011 1.564-28.241-26.541-29.653-64.574-46.661-104.347-46.661s-77.806 17.008-104.347 46.662c-7.366 8.23-6.666 20.874 1.564 28.241z"/><path d="m476 332c0-33.084-26.916-60-60-60h-320c-33.084 0-60 26.916-60 60 0 3.318.275 6.653.818 9.913l20 120c4.837 29.022 29.727 50.087 59.182 50.087h280c29.455 0 54.345-21.065 59.182-50.087l20-120.002c.543-3.258.818-6.593.818-9.911zm-40.274 3.336-20 120c-1.609 9.656-9.905 16.664-19.726 16.664h-280c-9.821 0-18.117-7.008-19.726-16.664l-20-119.998c-.182-1.091-.274-2.215-.274-3.338 0-11.028 8.972-20 20-20h320c11.028 0 20 8.972 20 20 0 1.123-.092 2.247-.274 3.336z"/><circle cx="256" cy="392" r="20"/></g></svg>