<svg id="Capa_1" enable-background="new 0 0 512 512" height="512" viewBox="0 0 512 512" width="512" xmlns="http://www.w3.org/2000/svg"><g id="World_Grid"><path d="m336 160h-20.309c-.673-22.093-2.451-43.52-5.249-62.863-1.581-10.932-11.719-18.51-22.656-16.932-10.932 1.581-18.513 11.725-16.932 22.657 2.535 17.529 4.169 36.986 4.822 57.137h-39.353c.653-20.152 2.287-39.608 4.822-57.137 1.581-10.932-6-21.076-16.932-22.657-10.934-1.579-21.075 6-22.656 16.932-2.797 19.343-4.575 40.769-5.249 62.863h-20.308c-11.046 0-20 8.954-20 20s8.954 20 20 20h20.309c.673 22.094 2.451 43.52 5.249 62.863 1.581 10.933 11.723 18.511 22.656 16.932 10.932-1.581 18.513-11.725 16.932-22.657-2.535-17.529-4.169-36.986-4.822-57.138h39.353c-.653 20.152-2.287 39.609-4.822 57.138-1.581 10.932 6 21.076 16.932 22.657s21.076-6 22.656-16.932c2.797-19.343 4.575-40.769 5.249-62.863h20.308c11.046 0 20-8.954 20-20s-8.954-20-20-20z"/><path d="m416 392c-26.073 0-48.303 16.722-56.56 40h-46.88c-6.036-17.018-19.541-30.524-36.56-36.56v-36.558c89.874-9.981 160-86.391 160-178.883 0-99.251-80.747-179.999-180-179.999s-180 80.748-180 180c0 92.492 70.126 168.901 160 178.883v36.558c-17.018 6.036-30.524 19.541-36.56 36.56h-46.88c-8.256-23.278-30.487-40-56.56-40-33.084 0-60 26.916-60 60s26.916 60 60 60c26.073 0 48.303-16.722 56.56-40h46.881c8.256 23.278 30.487 40 56.56 40s48.303-16.722 56.56-40h46.881c8.256 23.278 30.487 40 56.56 40 33.084 0 60-26.916 60-60s-26.918-60.001-60.002-60.001zm-300-212c0-77.196 62.804-140 140-140s140 62.804 140 140-62.804 140-140 140-140-62.804-140-140zm-20 292c-11.028 0-20-8.972-20-20s8.972-20 20-20 20 8.972 20 20-8.972 20-20 20zm160 0c-11.028 0-20-8.972-20-20s8.972-20 20-20 20 8.972 20 20-8.972 20-20 20zm160 0c-11.028 0-20-8.972-20-20s8.972-20 20-20 20 8.972 20 20-8.972 20-20 20z"/></g></svg>