<svg id="Capa_1" enable-background="new 0 0 512 512" height="512" viewBox="0 0 512 512" width="512" xmlns="http://www.w3.org/2000/svg"><g><path d="m232 220h60v60c0 11.046 8.954 20 20 20s20-8.954 20-20v-60h60c11.046 0 20-8.954 20-20s-8.954-20-20-20h-60v-60c0-11.046-8.954-20-20-20s-20 8.954-20 20v60h-60c-11.046 0-20 8.954-20 20s8.954 20 20 20z"/><path d="m312 400c110.28 0 200-89.719 200-200 0-110.28-89.72-200-200-200s-200 89.72-200 200c0 110.281 89.72 200 200 200zm0-360c88.225 0 160 71.776 160 160s-71.775 160-160 160-160-71.776-160-160 71.775-160 160-160z"/><path d="m34.142 506.142 108.24-108.24c7.81-7.81 7.81-20.474 0-28.284-7.811-7.811-20.475-7.811-28.285 0l-108.24 108.24c-7.81 7.81-7.81 20.474 0 28.284 7.811 7.811 20.475 7.811 28.285 0z"/></g></svg>