<svg id="Capa_1" enable-background="new 0 0 512.013 512.013" height="512" viewBox="0 0 512.013 512.013" width="512" xmlns="http://www.w3.org/2000/svg"><g id="Zoom_In"><g><path d="m332.013 360c-99.252 0-180-80.748-180-180s80.748-180 180-180 180 80.748 180 180-80.747 180-180 180zm0-320c-77.196 0-140 62.804-140 140s62.804 140 140 140 140-62.804 140-140-62.803-140-140-140z"/></g><path d="m372.013 160h-20v-20c0-11.046-8.954-20-20-20s-20 8.954-20 20v20h-20c-11.046 0-20 8.954-20 20s8.954 20 20 20h20v20c0 11.046 8.954 20 20 20s20-8.954 20-20v-20h20c11.046 0 20-8.954 20-20s-8.954-20-20-20z"/><g><path d="m17.587 494.426c-23.448-23.447-23.451-61.401 0-84.853l104.725-104.725c7.811-7.811 20.474-7.811 28.284 0s7.811 20.474 0 28.284l-104.725 104.726c-7.815 7.816-7.818 20.467 0 28.284 7.817 7.817 20.466 7.818 28.284 0l104.725-104.725c7.811-7.811 20.474-7.811 28.284 0s7.811 20.474 0 28.284l-104.724 104.725c-23.449 23.449-61.402 23.451-84.853 0z"/></g></g></svg>