<svg id="Capa_1" enable-background="new 0 0 512 512" height="512" viewBox="0 0 512 512" width="512" xmlns="http://www.w3.org/2000/svg"><g id="Zoom_Out"><g><path d="m332 512c-51.642 0-100.863-22.229-135.043-60.988l-69.967-79.338c-9.667-10.96-14.99-25.05-14.99-39.674 0-33.084 26.916-60 60-60 17.186 0 33.574 7.389 44.963 20.271l15.037 17.046v-177.317c0-33.084 26.916-60 60-60s60 26.916 60 60v100h60c55.14 0 100 44.86 100 100 0 .523-.007 1.57-.007 1.571-.409 47.751-19.313 92.578-53.231 126.223-33.938 33.665-78.956 52.206-126.762 52.206zm-160-200c-11.028 0-20 8.972-20 20 0 4.875 1.772 9.569 4.989 13.217l69.967 79.338c26.591 30.152 64.878 47.445 105.044 47.445 76.538 0 139.339-62.253 139.995-138.771.004-.411.005-.817.005-1.229 0-33.084-26.916-60-60-60h-80c-11.046 0-20-8.954-20-20v-120c0-11.028-8.972-20-20-20s-20 8.972-20 20v230.222c0 8.317-5.147 15.767-12.928 18.708-7.781 2.942-16.568.76-22.071-5.478l-50.021-56.705c-3.786-4.282-9.251-6.747-14.98-6.747zm319.994 21.4h.01z"/></g><g><path d="m90 120h-60c-11.046 0-20 8.954-20 20s8.954 20 20 20h11.716l-35.858 35.858c-7.811 7.811-7.811 20.474 0 28.284 7.811 7.811 20.474 7.811 28.284 0l35.858-35.858v11.716c0 11.046 8.954 20 20 20s20-8.954 20-20v-60c0-11.271-9.256-20-20-20z"/><path d="m224.142 5.858c-7.811-7.811-20.474-7.811-28.284 0l-35.858 35.858v-11.716c0-11.046-8.954-20-20-20s-20 8.954-20 20v60c0 10.881 8.854 20 20 20h60c11.046 0 20-8.954 20-20s-8.954-20-20-20h-11.716l35.858-35.858c7.811-7.81 7.811-20.474 0-28.284z"/></g></g></svg>