<svg color="#000000" width="256" height="256" viewBox="0 0 256 256" fill="#000000" xmlns="http://www.w3.org/2000/svg">
<path fill-rule="evenodd" clip-rule="evenodd" d="M255.379 128.425C255.379 179.989 224.804 224.398 180.824 244.45H75.5706C31.5916 224.398 1.01587 179.989 1.01587 128.425C1.01587 58.0589 57.957 1.01587 128.198 1.01587C198.438 1.01587 255.379 58.0589 255.379 128.425Z" fill="#000000"></path>
<path d="M109.672 115.648C104.278 130.021 100.929 149.699 100.929 160.411C100.929 172.665 103.898 177.587 107.583 179.974C109.601 181.282 112.243 182.117 115.711 182.594C119.189 183.073 123.21 183.158 127.873 183.158C132.537 183.158 136.558 183.073 140.036 182.594C143.504 182.117 146.146 181.282 148.164 179.974C151.849 177.587 154.818 172.665 154.818 160.411C154.818 149.699 151.469 130.021 146.075 115.648H109.672Z" fill="#000000"></path>
<path fill-rule="evenodd" clip-rule="evenodd" d="M255.541 128.131C255.541 179.84 224.879 224.374 180.775 244.483V222.122H75.2245V244.483C31.1213 224.374 0.45929 179.84 0.45929 128.131C0.45929 57.5662 57.5612 0.362 128 0.362C198.439 0.362 255.541 57.5662 255.541 128.131ZM158.762 20.9226L175.129 30.3893L143.953 84.4849H159.449L165.511 96.0938C170.614 105.867 174.251 118.226 176.613 129.113C178.995 140.09 180.522 151.64 180.522 160.408C180.522 175.97 176.743 192.119 162.125 201.592C155.744 205.728 148.991 207.351 143.534 208.102C138.135 208.845 132.54 208.905 127.873 208.905C123.207 208.905 117.612 208.845 112.213 208.102C106.756 207.351 100.003 205.728 93.6218 201.592C79.0035 192.119 75.2245 175.97 75.2245 160.408C75.2245 151.64 76.752 140.09 79.1339 129.113C81.4961 118.226 85.1329 105.867 90.236 96.0938L96.2976 84.4849H122.129L158.762 20.9226Z" fill="#000000"></path>
</svg>