<svg id="Capa_1" enable-background="new 0 0 512 512" height="512" viewBox="0 0 512 512" width="512" xmlns="http://www.w3.org/2000/svg"><g id="Bag"><path d="m452 136h-392c-33.084 0-60 26.916-60 60v40c0 26.073 16.722 48.303 40 56.56v143.44c0 33.084 26.916 60 60 60h312c33.084 0 60-26.916 60-60v-80c0-11.046-8.954-20-20-20s-20 8.954-20 20v80c0 11.028-8.972 20-20 20h-312c-11.028 0-20-8.972-20-20v-140h116v20c0 33.084 26.916 60 60 60s60-26.916 60-60v-20h136c33.084 0 60-26.916 60-60v-40c0-33.084-26.916-60-60-60zm-176 180c0 11.028-8.972 20-20 20s-20-8.972-20-20v-40c0-11.028 8.972-20 20-20s20 8.972 20 20zm196-80c0 11.028-8.972 20-20 20h-139.44c-8.256-23.278-30.487-40-56.56-40s-48.303 16.722-56.56 40h-139.44c-11.028 0-20-8.972-20-20v-40c0-11.028 8.972-20 20-20h392c11.028 0 20 8.972 20 20z"/><g><path d="m307.985 86.015c-10.71-18.514-30.629-30.015-51.985-30.015s-41.275 11.501-51.985 30.015c-5.531 9.562-17.764 12.828-27.327 7.297-9.561-5.531-12.828-17.766-7.297-27.327 17.835-30.832 51.022-49.985 86.609-49.985s68.774 19.153 86.609 49.985c5.531 9.561 2.264 21.796-7.297 27.327s-21.796 2.264-27.327-7.297z"/></g></g></svg>