<svg id="Capa_1" enable-background="new 0 0 512 512" height="512" viewBox="0 0 512 512" width="512" xmlns="http://www.w3.org/2000/svg"><g id="Bag"><g><g><path d="m492 296c-11.046 0-20 8.954-20 20v120c0 11.028-8.972 20-20 20h-392c-11.028 0-20-8.972-20-20v-183.337l128.378 52.921c10.211 4.21 21.903-.656 26.113-10.868 4.209-10.212-.656-21.903-10.869-26.113 0 0-130.978-53.992-131.042-54.018-7.642-3.058-12.58-10.352-12.58-18.585 0-33.084 26.916-60 60-60h312c33.084 0 60 26.916 60 60 0 8.233-4.938 15.527-12.58 18.584-.064.026-131.042 54.018-131.042 54.018-10.212 4.209-15.078 15.901-10.868 26.113 4.209 10.212 15.899 15.078 26.112 10.868l130.765-53.905c22.852-9.192 37.613-31.034 37.613-55.678 0-55.14-44.859-100-100-100h-23.696c-25.985-49.512-77.085-80-132.304-80-55.256 0-106.336 30.52-132.303 80h-23.697c-55.14 0-100 44.86-100 100v240c0 33.084 26.916 60 60 60h392c33.084 0 60-26.916 60-60v-120c0-11.046-8.954-20-20-20zm-236-240c33.427 0 64.139 14.891 84.63 40h-169.259c20.49-25.109 51.202-40 84.629-40z"/><g><path d="m256 376c-11.046 0-20-8.954-20-20v-80c0-11.046 8.954-20 20-20s20 8.954 20 20v80c0 11.046-8.954 20-20 20z"/></g></g></g></g></svg>