<svg id="Capa_1" enable-background="new 0 0 512.011 512.011" height="512" viewBox="0 0 512.011 512.011" width="512" xmlns="http://www.w3.org/2000/svg"><g><path d="m276.006 120.006c11.046 0 20-8.954 20-20s-8.954-20-20-20h-40c-11.046 0-20 8.954-20 20s8.954 20 20 20z"/><path d="m452.006 352.006c11.046 0 20-8.954 20-20v-132h20c11.046 0 20-8.954 20-20s-8.954-20-20-20h-20v-45.798l13.409 4.68c10.429 3.64 21.834-1.863 25.474-12.291 3.64-10.429-1.863-21.834-12.292-25.474 0 0-223.088-77.871-223.123-77.883-6.259-2.146-12.81-3.235-19.468-3.235-6.659 0-13.209 1.088-19.468 3.235-.035.012-223.124 77.883-223.124 77.883-10.428 3.64-15.931 15.045-12.291 25.474 3.64 10.428 15.043 15.931 25.474 12.291l13.409-4.68v45.798h-20c-11.046 0-20 8.954-20 20s8.954 20 20 20h20v195.44c-23.278 8.256-40 30.487-40 56.56v40c0 11.046 8.954 20 20 20h472c11.046 0 20-8.954 20-20v-40c0-33.084-26.916-60-60-60h-60v-192h40v132c0 11.045 8.954 20 20 20zm-372 40v-192h40v192zm392 60v20h-432v-20c0-11.028 8.972-20 20-20h392c11.027 0 20 8.971 20 20zm-196-60h-40v-60c0-11.81 10.774-16 20-16s20 4.19 20 16zm76 0h-36v-60c0-31.925-25.794-56-60-56s-60 24.075-60 56v60h-36v-192h192zm-272-232v-59.76l169.551-59.183c4.122-1.402 8.776-1.402 12.898 0l169.551 59.183v59.76z"/></g></svg>