<svg id="Capa_1" enable-background="new 0 0 512 512" height="512" viewBox="0 0 512 512" width="512" xmlns="http://www.w3.org/2000/svg"><g id="Bank"><g><path d="m296 160h-80c-11.046 0-20-8.954-20-20s8.954-20 20-20h80c11.046 0 20 8.954 20 20s-8.954 20-20 20z"/></g><path d="m452 240c33.084 0 60-26.916 60-60v-40c0-24.276-14.464-46-36.854-55.367 0 0-180.653-76.951-180.702-76.971-12.201-5.084-25.136-7.662-38.444-7.662s-26.243 2.578-38.444 7.662c-.048.02-180.702 76.971-180.702 76.971-22.39 9.367-36.854 31.091-36.854 55.367v40c0 26.073 16.722 48.303 40 56.56v235.44h-20c-11.046 0-20 8.954-20 20s8.954 20 20 20h472c11.046 0 20-8.954 20-20s-8.954-20-20-20h-20v-172c0-11.046-8.954-20-20-20s-20 8.954-20 20v172h-40v-232zm-332 232h-40v-232h40zm232 0h-192v-232h192zm-292-272c-11.028 0-20-8.972-20-20v-40c0-8.106 4.835-15.358 12.318-18.477.048-.02 180.685-76.963 180.685-76.963 7.283-3.026 15.019-4.56 22.997-4.56s15.714 1.534 22.998 4.56c0 0 180.636 76.943 180.685 76.963 7.482 3.119 12.317 10.371 12.317 18.477v40c0 11.028-8.972 20-20 20z"/><g><path d="m296 432c-11.046 0-20-8.954-20-20v-72c0-11.028-8.972-20-20-20s-20 8.972-20 20v72c0 11.046-8.954 20-20 20s-20-8.954-20-20v-72c0-33.084 26.916-60 60-60s60 26.916 60 60v72c0 11.046-8.954 20-20 20z"/></g></g></svg>