<svg id="Capa_1" enable-background="new 0 0 512 512" height="512" viewBox="0 0 512 512" width="512" xmlns="http://www.w3.org/2000/svg"><g><path d="m416 376h-40c-11.046 0-20 8.954-20 20s8.954 20 20 20h40c11.046 0 20-8.954 20-20s-8.954-20-20-20z"/><path d="m0 236v200c0 33.084 26.916 60 60 60h131.273c7.575 0 14.501-4.28 17.889-11.056l20-40c2.815-5.631 2.815-12.258 0-17.889l-35.442-70.884s36.685-70.643 36.686-70.646c2.718-5.234 2.995-10.808 1.461-15.61-.002-.007-.003-.015-.006-.022l-25.649-80c-2.654-8.277-10.352-13.893-19.045-13.893h-127.167c-33.084 0-60 26.916-60 60zm185.401 20h-85.401c-11.046 0-20 8.954-20 20s8.954 20 20 20h79.895l-26.371 50.783c-2.951 5.682-3.003 12.434-.14 18.161l35.529 71.056-10 20h-118.913c-11.028 0-20-8.972-20-20v-200c0-11.028 8.972-20 20-20h112.576z"/><path d="m242.838 364.944 35.528 71.056-15.528 31.056c-3.1 6.2-2.769 13.563.876 19.459 3.644 5.896 10.081 9.485 17.013 9.485h171.273c33.084 0 60-26.916 60-60v-200c0-33.084-26.916-60-60-60h-180.502c-6.469 0-12.539 3.129-16.291 8.399-3.753 5.27-4.725 12.029-2.609 18.142l24.992 72.217-34.889 72.577c-2.68 5.575-2.63 12.077.137 17.609zm209.162 91.056h-138.913l5.528-11.056c2.815-5.631 2.815-12.258 0-17.889l-35.614-71.229 28.759-59.826h160.24v140c0 11.028-8.972 20-20 20zm0-240c11.028 0 20 8.972 20 20v20h-158.574l-13.843-40z"/><path d="m216 136c11.046 0 20-8.954 20-20v-80c0-11.046-8.954-20-20-20s-20 8.954-20 20v80c0 11.046 8.954 20 20 20z"/><path d="m144.944 133.889c9.88-4.94 13.884-16.953 8.944-26.833l-20-40c-4.94-9.879-16.951-13.884-26.833-8.944-9.88 4.94-13.884 16.953-8.944 26.833l20 40c4.941 9.879 16.953 13.883 26.833 8.944z"/><path d="m313.889 124.944 20-40c4.939-9.88.936-21.893-8.944-26.833-9.878-4.939-21.895-.935-26.833 8.944l-20 40c-4.939 9.88-.936 21.893 8.944 26.833 9.879 4.94 21.893.936 26.833-8.944z"/></g></svg>