<svg id="Capa_1" enable-background="new 0 0 512 512" height="512" viewBox="0 0 512 512" width="512" xmlns="http://www.w3.org/2000/svg"><g><path d="m335.989 60c0 33.084 26.916 60 60 60s60-26.916 60-60-26.916-60-60-60-60 26.916-60 60zm80 0c0 11.028-8.972 20-20 20s-20-8.972-20-20 8.972-20 20-20 20 8.972 20 20z"/><g><path d="m475.989 240h-160c-15.263 0-24.909-16.462-17.447-29.778l27.623-49.29c14.148-25.248 40.903-40.932 69.824-40.932s55.676 15.685 69.824 40.933l27.623 49.289c7.462 13.316-2.184 29.778-17.447 29.778zm-125.866-40h91.73l-10.936-19.512c-7.08-12.638-20.465-20.488-34.928-20.488s-27.849 7.85-34.93 20.487v.001z"/></g><path d="m235.989 72c-121.309 0-220 98.691-220 220s98.691 220 220 220 220-98.691 220-220c0-11.046-8.954-20-20-20h-180v-180c0-11.046-8.955-20-20-20zm178.896 240c-9.982 89.874-86.404 160-178.896 160-99.252 0-180-80.748-180-180 0-92.492 70.126-168.915 160-178.896v178.896c0 11.046 8.954 20 20 20z"/></g></svg>