<svg id="Capa_1" enable-background="new 0 0 512 512" height="512" viewBox="0 0 512 512" width="512" xmlns="http://www.w3.org/2000/svg"><g><path d="m452 156h-40c-33.084 0-60 26.916-60 60v20h-20c-11.046 0-20 8.954-20 20s8.954 20 20 20h20v20c0 33.084 26.916 60 60 60h40c33.084 0 60-26.916 60-60v-80c0-33.084-26.916-60-60-60zm20 140c0 11.028-8.972 20-20 20h-40c-11.028 0-20-8.972-20-20v-80c0-11.028 8.972-20 20-20h40c11.028 0 20 8.972 20 20z"/><path d="m20 372c-11.046 0-20 8.954-20 20s8.954 20 20 20h21.676c9.55 56.681 58.969 100 118.324 100 26.211 0 51.116-8.303 72.023-24.01 8.831-6.635 10.611-19.172 3.976-28.003s-19.173-10.611-28.003-3.976c-13.923 10.46-30.519 15.989-47.996 15.989-37.209 0-68.565-25.534-77.468-60h217.468c11.046 0 20-8.954 20-20s-8.954-20-20-20h-20v-232h20c11.046 0 20-8.954 20-20s-8.954-20-20-20h-21.676c-9.55-56.681-58.969-100-118.324-100s-108.774 43.319-118.324 100h-21.676c-11.046 0-20 8.954-20 20s8.954 20 20 20h20v232zm220-176.336-57.475-55.664h57.475zm-80-155.664c37.209 0 68.565 25.534 77.468 60h-154.936c8.903-34.466 40.259-60 77.468-60zm-80 100h45.028l114.972 111.348v53.502l-86.1-83.229c-7.94-7.676-20.603-7.462-28.28.479-7.677 7.942-7.462 20.603.479 28.28l113.901 110.103v11.517h-44.841l-41.017-41.017c-7.811-7.811-20.474-7.811-28.284 0s-7.811 20.474 0 28.284l12.733 12.733h-58.591z"/></g></svg>