<svg id="Capa_1" enable-background="new 0 0 512 512" height="512" viewBox="0 0 512 512" width="512" xmlns="http://www.w3.org/2000/svg"><g id="Bitcoin_1_"><path d="m351.312 180c0-33.084-26.916-60-60-60h-20v-20c0-11.046-8.954-20-20-20s-20 8.954-20 20v20h-60c-11.046 0-20 8.954-20 20s8.954 20 20 20h20v120h-20c-11.046 0-20 8.954-20 20s8.954 20 20 20h60v20c0 11.046 8.954 20 20 20s20-8.954 20-20v-20h20c33.084 0 60-26.916 60-60 0-15.353-5.796-29.377-15.315-40 9.519-10.624 15.315-24.648 15.315-40zm-60 100h-60v-40h60c11.028 0 20 8.972 20 20s-8.972 20-20 20zm0-80h-60v-40h60c11.028 0 20 8.972 20 20s-8.972 20-20 20z"/><path d="m472.113 269.13-40.805-68.009c.002-.374.003-.748.003-1.122 0-53.508-20.775-103.754-58.498-141.482s-87.965-58.51-141.472-58.517c-.01 0-.017 0-.026 0-53.417 0-106.075 23.484-144.472 64.431-38.47 41.024-58.557 95.202-55.111 148.643 2.948 45.714 21.725 89.373 52.871 122.935 17.218 18.553 26.7 42.698 26.702 67.989l.007 88.003c.001 11.045 8.955 19.999 20 19.999h160c11.046 0 20-8.954 20-20v-20c0-11.028 8.972-20 20-20h40c33.084 0 60-26.916 60-60v-32.956c17.352-3.141 32.712-13.845 41.564-29.482 10.63-18.775 10.338-41.931-.763-60.432zm-34.046 40.724c-3.543 6.258-10.211 10.146-17.403 10.146h-9.353c-11.046 0-20 8.954-20 20v52c0 11.028-8.972 20-20 20h-40c-33.084 0-60 26.916-60 60h-120.001l-.005-68.004c-.002-35.414-13.278-69.222-37.382-95.195-24.903-26.834-39.917-61.745-42.273-98.3-2.737-42.45 13.436-85.717 44.371-118.708 30.867-32.918 72.886-51.793 115.293-51.793h.021c88.211.013 159.977 71.788 159.977 160 0 1.912-.036 3.833-.106 5.71-.146 3.879.839 7.716 2.836 11.045l43.772 72.956c3.7 6.165 3.797 13.884.253 20.143z"/></g></svg>