<svg id="Capa_1" enable-background="new 0 0 512 512" height="512" viewBox="0 0 512 512" width="512" xmlns="http://www.w3.org/2000/svg"><g id="Bitcoin"><path d="m356 216c0-33.084-26.916-60-60-60h-20v-20c0-11.046-8.954-20-20-20s-20 8.954-20 20v20h-60c-11.046 0-20 8.954-20 20s8.954 20 20 20h20v120h-20c-11.046 0-20 8.954-20 20s8.954 20 20 20h60v20c0 11.046 8.954 20 20 20s20-8.954 20-20v-20h20c33.084 0 60-26.916 60-60 0-15.353-5.796-29.377-15.315-40 9.519-10.623 15.315-24.647 15.315-40zm-60 100h-60v-40h60c11.028 0 20 8.972 20 20s-8.972 20-20 20zm0-80h-60v-40h60c11.028 0 20 8.972 20 20s-8.972 20-20 20z"/><path d="m492 236h-16.906c-7.257-80.158-57.776-150.422-132.837-182.441-10.16-4.333-21.909.39-26.244 10.548-4.334 10.16.389 21.91 10.549 26.244 66.481 28.359 109.438 93.381 109.438 165.649 0 99.252-80.748 180-180 180s-180-80.748-180-180 80.748-180 180-180c11.046 0 20-8.954 20-20v-36c0-11.046-8.954-20-20-20s-20 8.954-20 20v16.891c-51.216 4.585-98.761 26.744-135.563 63.546-36.802 36.801-58.945 84.348-63.531 135.563h-16.906c-11.046 0-20 8.954-20 20s8.954 20 20 20h16.906c4.586 51.215 26.729 98.762 63.531 135.563 36.801 36.802 84.348 58.945 135.563 63.531v16.906c0 11.046 8.954 20 20 20s20-8.954 20-20v-16.906c51.216-4.586 98.762-26.729 135.563-63.531 36.802-36.801 58.945-84.348 63.531-135.563h16.906c11.046 0 20-8.954 20-20s-8.954-20-20-20z"/></g></svg>