<svg id="Capa_1" enable-background="new 0 0 512.007 512.007" height="512" viewBox="0 0 512.007 512.007" width="512" xmlns="http://www.w3.org/2000/svg"><g id="Boxing_Bag"><g><path d="m432.915 228.747c-1.918-10.878 5.345-21.251 16.223-23.169l39.392-6.946c10.875-1.916 21.251 5.345 23.169 16.223s-5.345 21.251-16.223 23.169l-39.392 6.946c-10.878 1.918-21.25-5.345-23.169-16.223z"/></g><g><path d="m393.892 144.302c-7.1-8.462-5.997-21.077 2.465-28.177l30.642-25.711c8.462-7.101 21.077-5.996 28.177 2.465s5.997 21.077-2.465 28.177l-30.642 25.711c-8.462 7.099-21.077 5.996-28.177-2.465z"/></g><g><path d="m55.922 244.97-39.392-6.946c-10.878-1.918-18.141-12.292-16.223-23.169 1.918-10.878 12.288-18.141 23.169-16.223l39.392 6.946c10.878 1.918 18.141 12.292 16.223 23.169-1.914 10.858-12.27 18.143-23.169 16.223z"/></g><g><path d="m89.939 146.767-30.642-25.711c-8.461-7.1-9.565-19.715-2.465-28.177s19.715-9.565 28.177-2.465l30.642 25.711c8.461 7.1 9.565 19.715 2.465 28.177-7.1 8.46-19.717 9.564-28.177 2.465z"/></g><path d="m376.003 472.003h-100v-72c44.112 0 80-35.888 80-80v-100c0-11.046-8.954-20-20-20s-20 8.954-20 20v100c0 22.056-17.944 40-40 40h-40c-22.056 0-40-17.944-40-40v-160h140c11.046 0 20-8.954 20-20v-60c0-44.112-35.888-80-80-80h-40c-44.112 0-80 35.888-80 80v240c0 44.112 35.888 80 80 80v72h-100c-11.046 0-20 8.954-20 20s8.954 20 20 20h240c11.046 0 20-8.954 20-20s-8.954-20-20-20zm-180-392c0-22.056 17.944-40 40-40h40c22.056 0 40 17.944 40 40v40h-120z"/></g></svg>