<svg id="Capa_1" enable-background="new 0 0 512 512" height="512" viewBox="0 0 512 512" width="512" xmlns="http://www.w3.org/2000/svg"><g id="Chart"><g><path d="m156 160h-40c-11.046 0-20-8.954-20-20s8.954-20 20-20h40c11.046 0 20 8.954 20 20s-8.954 20-20 20z"/></g><g><path d="m196 240h-80c-11.046 0-20-8.954-20-20s8.954-20 20-20h80c11.046 0 20 8.954 20 20s-8.954 20-20 20z"/></g><g><path d="m356 232c-77.196 0-140 62.804-140 140s62.804 140 140 140 140-62.804 140-140-62.804-140-140-140zm97.989 120h-57.989c-11.028 0-20-8.972-20-20v-57.989c39.126 7.973 70.016 38.864 77.989 77.989zm-97.989 120c-55.141 0-100-44.86-100-100 0-48.293 34.41-88.698 80-97.989v57.989c0 33.084 26.916 60 60 60h57.989c-9.291 45.589-49.696 80-97.989 80z"/><path d="m196 472h-120c-11.028 0-20-8.972-20-20v-392c0-11.028 8.972-20 20-20h140v60c0 33.084 26.916 60 60 60h60v20c0 11.046 8.954 20 20 20s20-8.954 20-20v-40c0-5.074-2.032-10.318-5.857-14.142l-120.013-120.012c-3.849-3.838-9.061-5.846-14.13-5.846h-160c-33.084 0-60 26.916-60 60v392c0 33.084 26.916 60 60 60h120c11.046 0 20-8.954 20-20s-8.954-20-20-20zm80-352c-11.028 0-20-8.972-20-20v-31.716l51.716 51.716z"/></g></g></svg>