<svg id="Capa_1" enable-background="new 0 0 512 512" height="512" viewBox="0 0 512 512" width="512" xmlns="http://www.w3.org/2000/svg"><g><path d="m256 192c-33.645 0-60 35.14-60 80s26.355 80 60 80 60-35.14 60-80-26.355-80-60-80zm0 120c-8.154 0-20-15.583-20-40s11.846-40 20-40 20 15.583 20 40-11.846 40-20 40z"/><path d="m296 0h-160c-33.084 0-60 26.916-60 60v392c0 33.084 26.916 60 60 60h240c33.084 0 60-26.916 60-60v-392c0-33.084-26.916-60-60-60-11.046 0-20 8.954-20 20s8.954 20 20 20c11.028 0 20 8.972 20 20v392c0 11.028-8.972 20-20 20h-240c-11.028 0-20-8.972-20-20v-392c0-11.028 8.972-20 20-20h60v92c0 11.046 8.954 20 20 20s20-8.954 20-20c0-11.028 8.972-20 20-20s20 8.972 20 20c0 11.046 8.954 20 20 20s20-8.954 20-20v-112c0-11.046-8.954-20-20-20zm-40 72c-7.011 0-13.74 1.22-20 3.44v-35.44h40v35.44c-6.26-2.22-12.989-3.44-20-3.44z"/><path d="m156 412c0 11.046 8.954 20 20 20h160c11.046 0 20-8.954 20-20s-8.954-20-20-20h-160c-11.046 0-20 8.954-20 20z"/></g></svg>