<svg id="Capa_1" enable-background="new 0 0 512 512" height="512" viewBox="0 0 512 512" width="512" xmlns="http://www.w3.org/2000/svg"><g id="Cryptocurrency"><g><path d="m256 316c-10.685 0-20.729-4.161-28.284-11.716l-20-20c-7.555-7.555-11.716-17.599-11.716-28.284 0-10.686 4.161-20.73 11.717-28.285l19.999-19.999c7.555-7.555 17.599-11.716 28.284-11.716s20.729 4.161 28.284 11.716l20 20c7.556 7.555 11.716 17.599 11.716 28.284s-4.16 20.729-11.715 28.284l-20.001 20c-7.555 7.555-17.599 11.716-28.284 11.716zm0-80-20 20 20 20 20.001-20z"/></g><g><path d="m452 392c-26.073 0-48.303 16.722-56.56 40h-59.44c-11.028 0-20-8.972-20-20v-29.526c47.258-22.51 80-70.737 80-126.474s-32.742-103.964-80-126.474v-29.526c0-11.028 8.972-20 20-20h59.44c8.256 23.278 30.487 40 56.56 40 33.084 0 60-26.916 60-60s-26.916-60-60-60c-26.073 0-48.303 16.722-56.56 40h-59.44c-33.084 0-60 26.916-60 60v17.435c-6.534-.939-13.21-1.435-20-1.435s-13.466.496-20 1.435v-17.435c0-33.084-26.916-60-60-60h-59.44c-8.257-23.278-30.487-40-56.56-40-33.084 0-60 26.916-60 60s26.916 60 60 60c26.073 0 48.303-16.722 56.56-40h59.44c11.028 0 20 8.972 20 20v29.526c-47.258 22.51-80 70.737-80 126.474s32.742 103.964 80 126.474v29.526c0 11.028-8.972 20-20 20h-59.44c-8.256-23.278-30.487-40-56.56-40-33.084 0-60 26.916-60 60s26.916 60 60 60c26.073 0 48.303-16.722 56.56-40h59.44c33.084 0 60-26.916 60-60v-17.435c6.534.939 13.21 1.435 20 1.435s13.466-.496 20-1.435v17.435c0 33.084 26.916 60 60 60h59.44c8.256 23.278 30.487 40 56.56 40 33.084 0 60-26.916 60-60s-26.916-60-60-60zm0-352c11.028 0 20 8.972 20 20s-8.972 20-20 20-20-8.972-20-20 8.972-20 20-20zm-392 40c-11.028 0-20-8.972-20-20s8.972-20 20-20 20 8.972 20 20-8.972 20-20 20zm0 392c-11.028 0-20-8.972-20-20s8.972-20 20-20 20 8.972 20 20-8.972 20-20 20zm96-216c0-55.14 44.86-100 100-100 55.141 0 100 44.86 100 100s-44.859 100-100 100c-55.14 0-100-44.86-100-100zm296 216c-11.028 0-20-8.972-20-20s8.972-20 20-20 20 8.972 20 20-8.972 20-20 20z"/><path d="m492 236h-40c-11.046 0-20 8.954-20 20s8.954 20 20 20h40c11.046 0 20-8.954 20-20s-8.954-20-20-20z"/><path d="m60 276c11.046 0 20-8.954 20-20s-8.954-20-20-20h-40c-11.046 0-20 8.954-20 20s8.954 20 20 20z"/></g></g></svg>