<svg id="Capa_1" enable-background="new 0 0 512.145 512.145" height="512" viewBox="0 0 512.145 512.145" width="512" xmlns="http://www.w3.org/2000/svg"><g id="Cryptocurrency_Mining"><path d="m168.355 55.486 14.775-14.776c7.81-7.811 7.81-20.474 0-28.284-7.811-7.811-20.475-7.811-28.285 0l-14.775 14.775c-21.51-17.828-42.398-26.964-62.273-27.197-.258-.003-.512-.004-.767-.004-20.634 0-32.458 9.792-34.64 11.776-8.171 7.432-8.771 20.082-1.339 28.253 7.229 7.947 19.39 8.731 27.569 1.933.663-.427 4.464-2.608 11.619-1.767 6.837.807 17.283 4.35 31.397 15.44l-98.216 98.216c-7.811 7.811-7.811 20.474 0 28.284 7.81 7.81 20.475 7.81 28.285 0l98.216-98.216c11.09 14.114 14.633 24.56 15.439 31.397.845 7.158-1.34 10.957-1.767 11.62-6.798 8.179-6.013 20.341 1.934 27.568 8.172 7.431 20.821 6.833 28.253-1.339 2.009-2.208 12.019-14.297 11.771-35.407-.232-19.874-9.368-40.762-27.196-62.272z"/><g><path d="m296.073 272.145h-20v-20c0-11.046-8.954-20-20-20s-20 8.954-20 20v20h-60c-11.046 0-20 8.954-20 20s8.954 20 20 20h20v120h-20c-11.046 0-20 8.954-20 20s8.954 20 20 20h60v20c0 11.046 8.954 20 20 20s20-8.954 20-20v-20h20c33.084 0 60-26.916 60-60 0-15.353-5.796-29.377-15.315-40 9.52-10.623 15.315-24.647 15.315-40 0-33.084-26.917-60-60-60zm0 160h-60v-40h60c11.028 0 20 8.972 20 20s-8.972 20-20 20zm0-80h-60v-40h60c11.028 0 20 8.972 20 20s-8.972 20-20 20z"/><path d="m502.481 394.138s-153.612-290.515-153.646-290.578c-10.513-19.377-30.729-31.415-52.762-31.415-20.689 0-39.651 10.446-50.726 27.944l-52.35 82.722c-3.698 5.845-10.025 9.334-16.925 9.334-36.445 0-70.022 19.844-87.627 51.788-.067.121-78.58 149.837-78.58 149.837-6.407 11.704-9.792 24.967-9.792 38.375 0 44.112 35.888 80 80 80h16c11.046 0 20-8.954 20-20s-8.954-20-20-20h-16c-22.056 0-40-17.944-40-40 0-6.749 1.705-13.41 4.933-19.264.066-.122 78.565-149.81 78.565-149.81 10.596-19.081 30.694-30.926 52.502-30.926 20.689 0 39.651-10.446 50.726-27.944l52.35-82.722c3.698-5.845 10.025-9.334 16.925-9.334 7.319 0 14.04 3.988 17.562 10.415 0 0 153.598 290.49 153.632 290.553 3.188 5.876 4.806 12.28 4.806 19.032 0 22.056-17.944 40-40 40h-16c-11.046 0-20 8.954-20 20s8.954 20 20 20h16c44.112 0 80-35.888 80-80-.001-13.261-3.318-26.4-9.593-38.007z"/></g></g></svg>