<svg id="Capa_1" enable-background="new 0 0 512 512" height="512" viewBox="0 0 512 512" width="512" xmlns="http://www.w3.org/2000/svg"><g><circle cx="376" cy="296" r="20"/><path d="m100 512h312c33.084 0 60-26.916 60-60 0-11.046-8.954-20-20-20s-20 8.954-20 20c0 11.028-8.972 20-20 20h-312c-33.084 0-60-26.916-60-60v-16h96c11.028 0 20 8.972 20 20 0 11.046 8.954 20 20 20s20-8.954 20-20c0-33.084-26.916-60-60-60h-96v-40h176c11.046 0 20-8.954 20-20s-8.954-20-20-20h-176v-40h96c33.084 0 60-26.916 60-60 0-11.046-8.954-20-20-20s-20 8.954-20 20c0 11.028-8.972 20-20 20h-96v-79.427c6.258 2.219 12.991 3.427 20 3.427h352c11.028 0 20 8.972 20 20v56h-56c-55.114 0-100 44.886-100 100 0 55.14 44.86 100 100 100h76c33.084 0 60-26.916 60-60v-80c0-26.073-16.722-48.304-40-56.56v-59.44c0-26.073-16.722-48.304-40-56.56v-23.44c0-33.084-26.916-60-60-60h-312c-33.084 0-60 26.916-60 60v352c0 55.14 44.86 100 100 100zm372-176c0 11.028-8.972 20-20 20h-76c-33.084 0-60-26.916-60-60 0-32.86 27.14-60 60-60h76c11.028 0 20 8.972 20 20zm-412-296h312c11.028 0 20 8.972 20 20v20h-332c-11.028 0-20-8.972-20-20s8.972-20 20-20z"/></g></svg>