<svg id="Capa_1" enable-background="new 0 0 512 512" height="512" viewBox="0 0 512 512" width="512" xmlns="http://www.w3.org/2000/svg"><g><circle cx="120" cy="196" r="20"/><circle cx="240" cy="316" r="20"/><path d="m254.143 181.858c-7.811-7.811-20.475-7.811-28.285 0l-120 120c-7.81 7.811-7.81 20.474 0 28.284s20.475 7.81 28.285 0l120-120c7.809-7.81 7.809-20.474 0-28.284z"/><path d="m452 96h-392c-33.084 0-60 26.916-60 60v8.392c0 31.72 11.846 59.419 32.501 75.995 4.766 3.824 7.499 9.515 7.499 15.613s-2.733 11.789-7.499 15.614c-20.655 16.575-32.501 44.279-32.501 76.006v6.979c0 16.548 6.182 31.992 17.406 43.486 11.282 11.553 26.408 17.915 42.594 17.915h392c16.186 0 31.312-6.362 42.594-17.915 11.224-11.494 17.406-26.938 17.406-43.486v-6.979c0-31.728-11.846-59.431-32.5-76.006-4.767-3.825-7.5-9.517-7.5-15.614s2.733-11.789 7.499-15.613c20.655-16.576 32.501-44.275 32.501-75.995v-8.392c0-33.084-26.916-60-60-60zm20 68.392c0 19.527-6.392 35.855-17.536 44.799-14.276 11.456-22.464 28.517-22.464 46.809 0 18.291 8.188 35.353 22.464 46.81 11.144 8.944 17.536 25.276 17.536 44.81v6.979c0 12.201-8.598 21.401-20 21.401h-96v-20c0-11.046-8.954-20-20-20s-20 8.954-20 20v20h-256c-11.402 0-20-9.2-20-21.401v-6.979c0-19.534 6.392-35.866 17.537-44.811 14.275-11.456 22.463-28.518 22.463-46.809 0-18.292-8.188-35.353-22.464-46.81-11.144-8.943-17.536-25.272-17.536-44.798v-8.392c0-11.028 8.972-20 20-20h256v20c0 11.046 8.954 20 20 20s20-8.954 20-20v-20h96c11.028 0 20 8.972 20 20z"/><path d="m336 216c-11.046 0-20 8.954-20 20v40c0 11.046 8.954 20 20 20s20-8.954 20-20v-40c0-11.046-8.954-20-20-20z"/></g></svg>