<svg id="Capa_1" enable-background="new 0 0 512 512" height="512" viewBox="0 0 512 512" width="512" xmlns="http://www.w3.org/2000/svg"><g><path d="m230.142 310.142 80-80c7.811-7.811 7.811-20.474 0-28.284s-20.474-7.811-28.284 0l-80 80c-7.811 7.811-7.811 20.474 0 28.284 7.81 7.811 20.474 7.811 28.284 0z"/><circle cx="216" cy="196" r="20"/><circle cx="296" cy="316" r="20"/><path d="m38.691 332.632c7.141 5.297 10.768 14.043 9.465 22.825-4.495 30.289 5.283 60.017 26.826 81.561 17.973 17.974 41.896 27.873 67.364 27.873 9.905 0 13.749-1.309 17.72-1.309 7.569 0 14.786 3.636 19.303 9.725 18.239 24.59 46.171 38.693 76.631 38.693s58.392-14.103 76.631-38.692c4.517-6.089 11.739-9.725 19.318-9.725 3.969 0 7.759 1.308 17.709 1.308 25.466 0 49.388-9.899 67.359-27.873 21.543-21.543 31.321-51.271 26.826-81.562-1.303-8.781 2.324-17.527 9.465-22.825 24.589-18.239 38.692-46.17 38.692-76.631s-14.103-58.392-38.692-76.633c-7.142-5.297-10.769-14.044-9.465-22.826 4.496-30.292-5.282-60.02-26.824-81.562-17.974-17.974-41.898-27.872-67.365-27.872-9.802 0-13.797 1.309-17.719 1.309-7.569 0-14.785-3.635-19.302-9.726-18.241-24.588-46.173-38.69-76.633-38.69s-58.392 14.102-76.632 38.69c-4.517 6.088-11.738 9.724-19.32 9.724-3.962.001-7.775-1.307-17.702-1.307-25.467 0-49.391 9.898-67.365 27.872-21.542 21.543-31.32 51.271-26.824 81.563 1.304 8.782-2.323 17.528-9.465 22.826-24.589 18.24-38.692 46.171-38.692 76.632s14.102 58.392 38.691 76.632zm23.832-121.138c19.02-14.108 28.676-37.415 25.201-60.825-2.617-17.633 3.048-34.912 15.542-47.406 10.419-10.419 24.298-16.157 39.081-16.157 7.275 0 9.759 1.308 17.705 1.307 20.185-.001 39.416-9.68 51.443-25.893 10.616-14.311 26.838-22.52 44.505-22.52s33.889 8.209 44.505 22.521c12.028 16.215 31.254 25.895 51.432 25.895 7.966-.001 10.366-1.309 17.716-1.309 14.783 0 28.662 5.738 39.081 16.156 12.494 12.494 18.159 29.773 15.542 47.406-3.475 23.41 6.182 46.717 25.201 60.825 14.314 10.618 22.523 26.839 22.523 44.506s-8.209 33.888-22.522 44.506c-19.018 14.108-28.674 37.414-25.2 60.822 2.616 17.632-3.049 34.911-15.545 47.407-10.417 10.418-24.293 16.156-39.078 16.156-7.27 0-9.765-1.308-17.705-1.308-20.186 0-39.417 9.68-51.445 25.894-10.617 14.314-26.839 22.523-44.505 22.523s-33.888-8.209-44.506-22.524c-12.027-16.214-31.253-25.894-51.429-25.894-7.947 0-10.387 1.309-17.72 1.309-14.783 0-28.661-5.738-39.079-16.156-12.495-12.495-18.16-29.774-15.543-47.406 3.473-23.41-6.184-46.716-25.201-60.822-14.313-10.619-22.522-26.84-22.522-44.507s8.209-33.888 22.523-44.506z"/><path d="m256 416c88.224 0 160-71.776 160-160s-71.776-160-160-160-160 71.776-160 160 71.776 160 160 160zm0-280c66.168 0 120 53.832 120 120s-53.832 120-120 120-120-53.832-120-120 53.832-120 120-120z"/></g></svg>