<svg id="Capa_1" enable-background="new 0 0 512 512" height="512" viewBox="0 0 512 512" width="512" xmlns="http://www.w3.org/2000/svg"><g><path d="m452 80c-17.866 0-33.922 7.858-44.924 20.289l-91.143-37.656c.038-.874.067-1.75.067-2.633 0-33.084-26.916-60-60-60s-60 26.916-60 60c0 6.905 1.187 13.535 3.343 19.713l-62.17 49.736c-8.625 6.9-10.024 19.486-3.124 28.111 6.9 8.626 19.486 10.025 28.111 3.124l62.183-49.747c9.197 5.736 20.043 9.063 31.657 9.063 17.866 0 33.922-7.858 44.924-20.289l91.143 37.656c-.038.874-.067 1.75-.067 2.633 0 33.084 26.916 60 60 60s60-26.916 60-60-26.916-60-60-60zm-196 0c-11.028 0-20-8.972-20-20s8.972-20 20-20 20 8.972 20 20-8.972 20-20 20zm196 80c-11.028 0-20-8.972-20-20s8.972-20 20-20 20 8.972 20 20-8.972 20-20 20z"/><path d="m452 240c-33.084 0-60 26.916-60 60v172h-76v-252c0-33.084-26.916-60-60-60s-60 26.916-60 60v252h-76v-92c0-33.084-26.916-60-60-60s-60 26.916-60 60v112c0 11.046 8.954 20 20 20h472c11.046 0 20-8.954 20-20v-192c0-33.084-26.916-60-60-60zm-372 232h-40v-92c0-11.028 8.972-20 20-20s20 8.972 20 20zm156-252c0-11.028 8.972-20 20-20s20 8.972 20 20v252h-40zm236 252h-40v-172c0-11.028 8.972-20 20-20s20 8.972 20 20z"/><path d="m60 160c-33.084 0-60 26.916-60 60s26.916 60 60 60 60-26.916 60-60-26.916-60-60-60zm0 80c-11.028 0-20-8.972-20-20s8.972-20 20-20 20 8.972 20 20-8.972 20-20 20z"/></g></svg>