<svg id="Capa_1" enable-background="new 0 0 512 512" height="512" viewBox="0 0 512 512" width="512" xmlns="http://www.w3.org/2000/svg"><g id="Email_Marketing"><g><path d="m256 400c-11.29 0-22.213-2.311-32.467-6.868l-135.656-60.291c-10.093-4.486-14.639-16.306-10.153-26.399 4.486-10.094 16.304-14.64 26.399-10.154l135.655 60.292c5.106 2.27 10.564 3.42 16.222 3.42s11.115-1.151 16.222-3.42l135.655-60.292c10.094-4.487 21.913.06 26.399 10.154 4.486 10.093-.06 21.913-10.153 26.399l-135.656 60.292c-10.254 4.556-21.177 6.867-32.467 6.867z"/></g><g><path d="m196 220v60c0 11.046 8.954 20 20 20s20-8.954 20-20v-60h40c22.056 0 40 17.944 40 40 0 11.046 8.954 20 20 20s20-8.954 20-20v-100h20c11.046 0 20-8.954 20-20s-8.954-20-20-20h-20v-100c0-11.046-8.954-20-20-20s-20 8.954-20 20c0 22.056-17.944 40-40 40h-80c-44.112 0-80 35.888-80 80s35.888 80 80 80zm0-120h80c14.561 0 28.227-3.911 40-10.736v101.473c-11.773-6.826-25.439-10.737-40-10.737h-80c-22.056 0-40-17.944-40-40s17.944-40 40-40z"/><path d="m432 200h-16c-11.046 0-20 8.954-20 20s8.954 20 20 20h16c22.056 0 40 17.944 40 40v152c0 22.056-17.944 40-40 40h-352c-22.056 0-40-17.944-40-40v-152c0-22.056 17.944-40 40-40h1.17c11.046 0 20-8.954 20-20s-8.954-20-20-20h-1.17c-44.112 0-80 35.888-80 80v152c0 44.112 35.888 80 80 80h352c44.112 0 80-35.888 80-80v-152c0-44.112-35.888-80-80-80z"/></g></g></svg>