<svg id="Capa_1" enable-background="new 0 0 512 512" height="512" viewBox="0 0 512 512" width="512" xmlns="http://www.w3.org/2000/svg"><g id="Ewallet"><g><path d="m452 392h-40c-33.084 0-60-26.916-60-60s26.916-60 60-60h40c33.084 0 60 26.916 60 60s-26.916 60-60 60zm-40-80c-11.028 0-20 8.972-20 20s8.972 20 20 20h40c11.028 0 20-8.972 20-20s-8.972-20-20-20z"/></g><g><path d="m412 192c11.028 0 20 8.972 20 20 0 11.046 8.954 20 20 20s20-8.954 20-20c0-33.084-26.916-60-60-60h-100v-32c0-9.324 6.32-17.329 15.369-19.465l34.208-8.078c10.693 16.554 29.293 27.543 50.423 27.543 33.084 0 60-26.916 60-60s-26.916-60-60-60c-30.899 0-56.411 23.481-59.646 53.535l-34.177 8.07c-27.189 6.42-46.177 30.433-46.177 58.395v32h-72v-32c0-27.962-18.988-51.975-46.176-58.395l-34.177-8.07c-3.236-30.054-28.748-53.535-59.647-53.535-33.084 0-60 26.916-60 60s26.916 60 60 60c21.13 0 39.731-10.989 50.423-27.543l34.208 8.078c9.049 2.136 15.369 10.141 15.369 19.465v32h-60c-55.14 0-100 44.86-100 100v160c0 55.14 44.86 100 100 100h312c33.084 0 60-26.916 60-60 0-11.046-8.954-20-20-20s-20 8.954-20 20c0 11.028-8.972 20-20 20h-312c-33.084 0-60-26.916-60-60v-160c0-33.084 26.916-60 60-60zm0-152c11.028 0 20 8.972 20 20s-8.972 20-20 20-20-8.972-20-20 8.972-20 20-20zm-352 40c-11.028 0-20-8.972-20-20s8.972-20 20-20 20 8.972 20 20-8.972 20-20 20z"/><path d="m120 252c0-11.046-8.954-20-20-20s-20 8.954-20 20v40c0 11.046 8.954 20 20 20s20-8.954 20-20z"/><path d="m100 352c-11.046 0-20 8.954-20 20v40c0 11.046 8.954 20 20 20s20-8.954 20-20v-40c0-11.046-8.954-20-20-20z"/></g></g></svg>