<svg id="Capa_1" enable-background="new 0 0 512 512" height="512" viewBox="0 0 512 512" width="512" xmlns="http://www.w3.org/2000/svg"><g><path d="m452 234.532v-2.532c0-44.112-35.888-80-80-80h-36c-11.046 0-20 8.954-20 20s8.954 20 20 20h36c22.056 0 40 17.944 40 40v2.532c-34.466 8.903-60 40.26-60 77.468 0 37.209 25.534 68.565 60 77.469v2.531c0 22.056-17.944 40-40 40h-19.44c-8.256-23.278-30.487-40-56.56-40h-80c-26.073 0-48.303 16.722-56.56 40h-19.44c-22.056 0-40-17.944-40-40v-2.531c34.466-8.904 60-40.26 60-77.469 0-37.208-25.534-68.565-60-77.468v-2.532c0-22.056 17.944-40 40-40h36c11.046 0 20-8.954 20-20s-8.954-20-20-20h-36c-44.112 0-80 35.888-80 80v2.532c-34.466 8.903-60 40.26-60 77.468 0 37.209 25.534 68.565 60 77.469v2.531c0 44.112 35.888 80 80 80h19.44c8.256 23.278 30.487 40 56.56 40h80c26.073 0 48.303-16.722 56.56-40h19.44c44.112 0 80-35.888 80-80v-2.531c34.466-8.904 60-40.26 60-77.469 0-37.208-25.534-68.565-60-77.468zm-412 77.468c0-22.056 17.944-40 40-40s40 17.944 40 40-17.944 40-40 40-40-17.944-40-40zm256 160h-80c-11.028 0-20-8.972-20-20s8.972-20 20-20h80c11.028 0 20 8.972 20 20s-8.972 20-20 20zm136-120c-22.056 0-40-17.944-40-40s17.944-40 40-40 40 17.944 40 40-17.944 40-40 40z"/><path d="m216 120h20v52c0 11.046 8.955 20 20 20 11.046 0 20-8.954 20-20v-52h20c33.084 0 60-26.916 60-60s-26.916-60-60-60h-80c-33.084 0-60 26.916-60 60s26.916 60 60 60zm0-80h80c11.028 0 20 8.972 20 20s-8.972 20-20 20h-80c-11.028 0-20-8.972-20-20s8.972-20 20-20z"/></g></svg>