<svg id="Capa_1" enable-background="new 0 0 512 512" height="512" viewBox="0 0 512 512" width="512" xmlns="http://www.w3.org/2000/svg"><g id="Garbage_2_"><g><path d="m260 60c0-33.084-26.916-60-60-60s-60 26.916-60 60 26.916 60 60 60 60-26.916 60-60zm-60 20c-11.028 0-20-8.972-20-20s8.972-20 20-20 20 8.972 20 20-8.972 20-20 20z"/><path d="m380 200h-80c0-44.112-35.888-80-80-80h-20-20c-44.112 0-80 35.888-80 80h-80c-11.046 0-20 8.954-20 20s8.954 20 20 20h21.638l18.568 216.993c1.238 14.964 8.006 28.835 19.056 39.058 11.118 10.285 25.586 15.949 40.738 15.949h160c15.152 0 29.62-5.664 40.737-15.949 11.051-10.222 17.818-24.093 19.05-38.973l13.518-155.344c.957-11.004-7.187-20.701-18.191-21.658-10.989-.961-20.701 7.187-21.658 18.191l-13.524 155.428c-.851 10.264-9.606 18.305-19.932 18.305h-160c-10.327 0-19.081-8.041-19.935-18.361l-18.281-213.639h298.216c11.046 0 20-8.954 20-20s-8.954-20-20-20zm-200-40h40c22.056 0 40 17.944 40 40h-120c0-22.056 17.944-40 40-40z"/><path d="m233.185 298.235-9.923 112c-.975 11.002 7.154 20.712 18.157 21.687 11.002.975 20.713-7.155 21.687-18.157l9.923-112c.975-11.002-7.154-20.712-18.157-21.687-11.018-.977-20.713 7.155-21.687 18.157z"/><path d="m145.125 280.078c-11.002.975-19.131 10.685-18.156 21.688l9.926 112c.975 11.003 10.685 19.131 21.688 18.156 11.002-.975 19.131-10.685 18.156-21.688l-9.926-112c-.976-11.002-10.68-19.131-21.688-18.156z"/></g><path d="m506.143 198.995-82.426-82.427 14.142-14.142c7.81-7.81 7.81-20.474 0-28.284-7.811-7.811-20.475-7.811-28.285 0l-14.142 14.142-82.426-82.426c-7.812-7.811-20.474-7.81-28.285 0s-7.811 20.474 0 28.284l193.136 193.138c7.812 7.811 20.474 7.811 28.285 0s7.811-20.474.001-28.285z"/></g></svg>