<svg id="Capa_1" enable-background="new 0 0 512 512" height="512" viewBox="0 0 512 512" width="512" xmlns="http://www.w3.org/2000/svg"><g><path d="m125.788 5.105c-8.226-7.371-20.871-6.677-28.242 1.548-42.793 47.758-66.36 109.32-66.36 173.347 0 136.635 105.944 248.992 240 259.238v32.762h-60c-11.046 0-20 8.954-20 20s8.954 20 20 20h160c11.046 0 20-8.954 20-20s-8.954-20-20-20h-60v-32.762c61.825-4.689 119.37-31.065 163.771-75.467 7.811-7.811 7.811-20.474 0-28.284s-20.474-7.811-28.284 0c-41.603 41.602-96.822 64.513-155.487 64.513-121.309 0-220-98.691-220-220 0-54.161 19.941-106.243 56.15-146.653 7.371-8.226 6.678-20.871-1.548-28.242z"/><path d="m291.186 360c99.212 0 180-80.788 180-180 0-99.234-80.766-180-180-180-99.252 0-180 80.748-180 180s80.747 180 180 180zm120-240h6.474c8.667 18.196 13.526 38.54 13.526 60s-4.859 41.804-13.526 60h-106.474c-11.028 0-20-8.972-20-20s8.972-20 20-20h20c33.084 0 60-26.916 60-60 0-11.028 8.972-20 20-20zm-120-80c39.633 0 75.468 16.557 100.963 43.114-23.777 7.979-40.963 30.456-40.963 56.886 0 11.028-8.972 20-20 20h-20c-33.084 0-60 26.916-60 60s26.916 60 60 60h77.872c-25.261 24.728-59.814 40-97.872 40-77.196 0-140-62.804-140-140s62.803-140 140-140z"/><path d="m311.186 100c0-11.046-8.954-20-20-20h-40c-11.046 0-20 8.954-20 20s8.954 20 20 20h40c11.045 0 20-8.954 20-20z"/></g></svg>