<svg id="Capa_1" enable-background="new 0 0 512 512" height="512" viewBox="0 0 512 512" width="512" xmlns="http://www.w3.org/2000/svg"><g><path d="m256 0c-143.551 0-256 112.449-256 256 0 143.557 112.443 256 256 256 72.028 0 137.32-25.624 183.849-72.152 3.75-3.75 5.857-8.838 5.857-14.142s-2.107-10.392-5.857-14.142l-43.259-43.259c25.533-31.815 39.41-71.011 39.41-112.305 0-92.492-70.126-168.901-160-178.883v-36.244c111.409 9.783 196 100.755 196 215.127 0 39.857-5.54 69.995-17.434 94.846-4.769 9.963-.558 21.906 9.406 26.674 9.961 4.769 21.904.558 26.674-9.406 14.569-30.438 21.354-66.063 21.354-112.114 0-143.551-112.448-256-256-256zm54.146 281.862-34.146-34.146v-48.276c23.278 8.256 40 30.487 40 56.56 0 9.095-2.026 17.883-5.854 25.862zm-54.146 190.138c-45.148 0-86.646-13.189-120.947-36h80.947c33.084 0 60-26.916 60-60s-26.916-60-60-60h-40c-11.028 0-20-8.972-20-20s8.972-20 20-20c11.046 0 20-8.954 20-20s-8.954-20-20-20c-33.084 0-60 26.916-60 60s26.916 60 60 60h40c11.028 0 20 8.972 20 20s-8.972 20-20 20h-125.712c-31.504-37.451-50.288-86.124-50.288-140 0-114.372 84.591-205.344 196-215.127v215.127c0 5.304 2.107 10.392 5.858 14.142l154.824 154.824c-37.584 30.463-86.778 47.034-140.682 47.034zm140-216c0 30.593-9.802 59.712-27.914 83.802l-28.662-28.662c10.784-16.225 16.576-35.243 16.576-55.14 0-48.293-34.41-88.698-80-97.989v-40.576c67.755 9.734 120 68.159 120 138.565z"/><path d="m176 156h-40c-11.046 0-20 8.954-20 20s8.954 20 20 20h40c11.046 0 20-8.954 20-20s-8.954-20-20-20z"/></g></svg>