<svg id="Capa_1" enable-background="new 0 0 512 512" height="512" viewBox="0 0 512 512" width="512" xmlns="http://www.w3.org/2000/svg"><g id="Graph"><g><path d="m96 280c-33.084 0-60 26.916-60 60v32c0 33.084 26.916 60 60 60s60-26.916 60-60v-32c0-33.084-26.916-60-60-60zm20 92c0 11.028-8.972 20-20 20s-20-8.972-20-20v-32c0-11.028 8.972-20 20-20s20 8.972 20 20z"/><path d="m256 160c-33.084 0-60 26.916-60 60v152c0 33.084 26.916 60 60 60s60-26.916 60-60v-152c0-33.084-26.916-60-60-60zm20 212c0 11.028-8.972 20-20 20s-20-8.972-20-20v-152c0-11.028 8.972-20 20-20s20 8.972 20 20z"/><path d="m416 240c-33.084 0-60 26.916-60 60v72c0 33.084 26.916 60 60 60s60-26.916 60-60v-72c0-33.084-26.916-60-60-60zm20 132c0 11.028-8.972 20-20 20s-20-8.972-20-20v-72c0-11.028 8.972-20 20-20s20 8.972 20 20z"/><path d="m492 120h-19.44c-8.256-23.278-30.487-40-56.56-40-16.147 0-30.814 6.423-41.61 16.834l-58.863-29.431c.3-2.428.473-4.895.473-7.403 0-33.084-26.916-60-60-60s-60 26.916-60 60c0 6.248.963 12.275 2.743 17.943l-69.509 52.132c-9.522-6.359-20.951-10.075-33.234-10.075-26.073 0-48.303 16.722-56.56 40h-19.44c-11.046 0-20 8.954-20 20s8.954 20 20 20h19.44c8.256 23.278 30.487 40 56.56 40 33.084 0 60-26.916 60-60 0-6.248-.963-12.275-2.743-17.943l69.509-52.132c9.522 6.359 20.951 10.075 33.234 10.075 16.147 0 30.814-6.423 41.61-16.834l58.863 29.431c-.3 2.428-.473 4.895-.473 7.403 0 33.084 26.916 60 60 60 26.073 0 48.303-16.722 56.56-40h19.44c11.046 0 20-8.954 20-20s-8.954-20-20-20zm-396 80c-11.028 0-20-8.972-20-20s8.972-20 20-20 20 8.972 20 20-8.972 20-20 20zm160-120c-11.028 0-20-8.972-20-20s8.972-20 20-20 20 8.972 20 20-8.972 20-20 20zm160 80c-11.028 0-20-8.972-20-20s8.972-20 20-20 20 8.972 20 20-8.972 20-20 20z"/></g><g><path d="m492 512h-472c-11.046 0-20-8.954-20-20s8.954-20 20-20h472c11.046 0 20 8.954 20 20s-8.954 20-20 20z"/></g></g></svg>