<svg id="Capa_1" enable-background="new 0 0 512 512" height="512" viewBox="0 0 512 512" width="512" xmlns="http://www.w3.org/2000/svg"><g><path d="m512 100c0-33.084-26.916-60-60-60h-20v-20c0-11.046-8.954-20-20-20s-20 8.954-20 20v20c-1.118 0-11.186 0-60 0-11.046 0-20 8.954-20 20s8.954 20 20 20h20v120h-20c-11.046 0-20 8.954-20 20s8.954 20 20 20h60v20c0 11.046 8.954 20 20 20s20-8.954 20-20v-20h20c33.084 0 60-26.916 60-60 0-15.355-5.805-29.376-15.327-40 9.522-10.624 15.327-24.645 15.327-40zm-40 0c0 11.028-8.972 20-20 20h-60v-40h60c11.028 0 20 8.972 20 20zm-20 100h-60v-40h60c11.028 0 20 8.972 20 20s-8.972 20-20 20z"/><path d="m56 432c11.046 0 20-8.954 20-20v-312c0-11.028 8.972-20 20-20s20 8.972 20 20v312c0 11.046 8.954 20 20 20s20-8.954 20-20v-312c0-33.084-26.916-60-60-60s-60 26.916-60 60v312c0 11.046 8.954 20 20 20z"/><path d="m492 472h-16v-92c0-33.084-26.916-60-60-60s-60 26.916-60 60v92h-40v-172c0-33.084-26.916-60-60-60s-60 26.916-60 60v172h-176c-11.046 0-20 8.954-20 20s8.954 20 20 20h472c11.046 0 20-8.954 20-20s-8.954-20-20-20zm-96-92c0-11.028 8.972-20 20-20s20 8.972 20 20v92h-40zm-160-80c0-11.028 8.972-20 20-20s20 8.972 20 20v172h-40z"/></g></svg>