<svg id="Capa_1" enable-background="new 0 0 512 512" height="512" viewBox="0 0 512 512" width="512" xmlns="http://www.w3.org/2000/svg"><g id="Graphic_Card"><g><path d="m172 356h-32c-11.046 0-20-8.954-20-20s8.954-20 20-20h32c11.046 0 20 8.954 20 20s-8.954 20-20 20z"/></g><g><path d="m172 276h-32c-11.046 0-20-8.954-20-20s8.954-20 20-20h32c11.046 0 20 8.954 20 20s-8.954 20-20 20z"/></g><g><path d="m172 196h-32c-11.046 0-20-8.954-20-20s8.954-20 20-20h32c11.046 0 20 8.954 20 20s-8.954 20-20 20z"/></g><g><path d="m494.427 173.574-80-80c-11.332-11.333-26.4-17.574-42.427-17.574h-232c-11.046 0-20 8.954-20 20s8.954 20 20 20h232c5.343 0 10.364 2.08 14.142 5.858l80 80c3.778 3.778 5.858 8.8 5.858 14.142v160c0 11.028-8.972 20-20 20h-372v-300c0-33.084-26.916-60-60-60-11.046 0-20 8.954-20 20s8.954 20 20 20c11.028 0 20 8.972 20 20v60h-20c-11.046 0-20 8.954-20 20s8.954 20 20 20h20v120h-20c-11.046 0-20 8.954-20 20s8.954 20 20 20h20v100c0 11.046 8.954 20 20 20s20-8.954 20-20v-20h372c33.084 0 60-26.916 60-60v-160c0-16.026-6.241-31.093-17.573-42.426z"/><path d="m432 256c0-55.14-44.859-100-100-100s-100 44.86-100 100 44.859 100 100 100 100-44.86 100-100zm-160 0c0-33.084 26.916-60 60-60s60 26.916 60 60-26.916 60-60 60-60-26.916-60-60z"/></g></g></svg>