<svg id="Capa_1" enable-background="new 0 0 512 512" height="512" viewBox="0 0 512 512" width="512" xmlns="http://www.w3.org/2000/svg"><g><path d="m60 512h232c33.084 0 60-26.916 60-60v-392c0-33.084-26.916-60-60-60h-232c-33.084 0-60 26.916-60 60v392c0 33.084 26.916 60 60 60zm232-40h-56v-20c0-11.046-8.954-20-20-20s-20 8.954-20 20v20h-40v-20c0-11.046-8.954-20-20-20s-20 8.954-20 20v20h-56c-11.028 0-20-8.972-20-20v-60h272v60c0 11.028-8.972 20-20 20zm-232-432h232c11.028 0 20 8.972 20 20v292h-272v-292c0-11.028 8.972-20 20-20z"/><path d="m492 232h-80c-11.046 0-20 8.954-20 20v120c0 26.073 16.722 48.303 40 56.56v23.44c0 11.046 8.954 20 20 20s20-8.954 20-20v-23.44c23.278-8.256 40-30.487 40-56.56v-120c0-11.046-8.954-20-20-20zm-20 140c0 11.028-8.972 20-20 20s-20-8.972-20-20v-100h40z"/><path d="m452 32c-33.084 0-60 26.916-60 60v80c0 11.046 8.954 20 20 20s20-8.954 20-20v-80c0-11.028 8.972-20 20-20s20 8.972 20 20v80c0 11.046 8.954 20 20 20s20-8.954 20-20v-80c0-33.084-26.916-60-60-60z"/></g></svg>