<svg id="Capa_1" enable-background="new 0 0 512 512" height="512" viewBox="0 0 512 512" width="512" xmlns="http://www.w3.org/2000/svg"><g id="Graph_2_"><g><path d="m492 512h-432c-33.084 0-60-26.916-60-60v-432c0-11.046 8.954-20 20-20s20 8.954 20 20v432c0 11.028 8.972 20 20 20h432c11.046 0 20 8.954 20 20s-8.954 20-20 20z"/></g><g><path d="m160 43.44v-23.44c0-11.046-8.954-20-20-20s-20 8.954-20 20v23.44c-23.278 8.256-40 30.487-40 56.56v152c0 26.073 16.722 48.304 40 56.56v23.44c0 11.046 8.954 20 20 20s20-8.954 20-20v-23.44c23.278-8.256 40-30.487 40-56.56v-152c0-26.073-16.722-48.304-40-56.56zm0 208.56c0 11.028-8.972 20-20 20s-20-8.972-20-20v-152c0-11.028 8.972-20 20-20s20 8.972 20 20z"/><path d="m316 123.44v-23.44c0-11.046-8.954-20-20-20s-20 8.954-20 20v23.44c-23.278 8.256-40 30.487-40 56.56v112c0 26.073 16.722 48.304 40 56.56v23.44c0 11.046 8.954 20 20 20s20-8.954 20-20v-23.44c23.278-8.256 40-30.487 40-56.56v-112c0-26.073-16.722-48.304-40-56.56zm0 168.56c0 11.028-8.972 20-20 20s-20-8.972-20-20v-112c0-11.028 8.972-20 20-20s20 8.972 20 20z"/><path d="m472 203.44v-23.44c0-11.046-8.954-20-20-20s-20 8.954-20 20v23.44c-23.278 8.256-40 30.487-40 56.56v72c0 26.073 16.722 48.304 40 56.56v23.44c0 11.046 8.954 20 20 20s20-8.954 20-20v-23.44c23.278-8.256 40-30.487 40-56.56v-72c0-26.073-16.722-48.304-40-56.56zm0 128.56c0 11.028-8.972 20-20 20s-20-8.972-20-20v-72c0-11.028 8.972-20 20-20s20 8.972 20 20z"/></g></g></svg>