<svg id="Capa_1" enable-background="new 0 0 512 512" height="512" viewBox="0 0 512 512" width="512" xmlns="http://www.w3.org/2000/svg"><g><path d="m216 272h80c11.046 0 20-8.954 20-20s-8.954-20-20-20h-80c-11.046 0-20 8.954-20 20s8.954 20 20 20z"/><path d="m428.289 191.196c-8.389-22.693-30.461-39.196-56.289-39.196h-16v-52c0-55.14-44.859-100-100-100s-100 44.86-100 100v52h-16c-25.002 0-47.622 15.752-56.29 39.196l-78.764 213.064c-3.282 8.877-4.946 18.21-4.946 27.74 0 44.112 35.888 80 80 80h352c44.112 0 80-35.888 80-80 0-9.53-1.664-18.863-4.946-27.739zm-232.289-91.196c0-33.084 26.916-60 60-60s60 26.916 60 60v52h-120zm236 372h-352c-22.056 0-40-17.944-40-40 0-4.78.829-9.446 2.464-13.869l78.765-213.066c2.889-7.814 10.432-13.065 18.771-13.065h232c10.93 0 20 8.922 20 20 0 59.224-33.125 109.413-84.062 130.018-10.388-17.926-29.771-30.018-51.938-30.018-22.173 0-41.561 12.099-51.947 30.033-19.242-7.685-36.605-19.584-50.879-35.023-7.5-8.111-20.153-8.606-28.263-1.108s-8.606 20.152-1.108 28.262c20.207 21.857 45.248 38.206 73.052 47.865 4.788 28.325 29.479 49.971 59.145 49.971 29.659 0 54.346-21.637 59.142-49.952 32.261-11.253 59.967-31.542 80.744-59.281 9.559-12.762 17.293-26.632 23.117-41.333l50.534 136.699c1.634 4.421 2.463 9.087 2.463 13.867 0 22.056-17.944 40-40 40zm-156-100c0 11.028-8.972 20-20 20s-20-8.972-20-20 8.972-20 20-20 20 8.972 20 20z"/></g></svg>