<svg id="Capa_1" enable-background="new 0 0 512.084 512.084" height="512" viewBox="0 0 512.084 512.084" width="512" xmlns="http://www.w3.org/2000/svg"><g><path d="m230.184 370.142 80-80c7.811-7.811 7.811-20.474 0-28.284s-20.474-7.811-28.284 0l-80 80c-7.811 7.811-7.811 20.474 0 28.284 7.81 7.811 20.473 7.811 28.284 0z"/><circle cx="216.042" cy="256" r="20"/><circle cx="296.042" cy="376" r="20"/><path d="m257.819 512.084c72.288-.002 134.973-31.809 174.229-84.072 6.634-8.832 4.852-21.369-3.979-28.003-8.833-6.633-21.37-4.852-28.003 3.98-36.249 48.258-96.723 73.364-161.771 67.163-92.499-8.821-162.252-87.814-162.252-183.746 0-39.87 13.919-76.552 41.371-109.028l6.845-8.098c10.429 17.765 29.738 29.72 51.785 29.72 29.933 0 54.851-22.025 59.197-51.102.709-4.739-2.627-56.582 43.949-94.764 11.072 57.201 49.429 89.804 83.9 119.105 39.146 33.274 72.953 62.01 72.953 122.761 0 12.13-1.211 24.249-3.601 36.022-2.197 10.825 4.798 21.381 15.623 23.578 10.827 2.197 21.381-4.797 23.579-15.622 2.919-14.386 4.4-29.182 4.4-43.978 0-79.249-46.246-118.557-87.047-153.239-39.148-33.273-72.955-62.01-72.955-122.761 0-6.931-3.589-13.369-9.485-17.013-5.895-3.644-13.258-3.976-19.458-.876l-3.13 1.565c-53.349 26.674-87.453 80.794-88.489 140.429-1.91 9.277-9.913 15.895-19.438 15.895-11.028 0-20-8.972-20-20 0-6.052 2.562-10.353 4.712-12.897 7.13-8.436 6.072-21.055-2.363-28.185-8.436-7.131-21.055-6.072-28.186 2.363-.008.009-43.342 51.274-43.342 51.274-33.723 39.895-50.822 85.265-50.822 134.85.001 119.485 91.972 224.683 221.778 224.679z"/></g></svg>