<svg id="Capa_1" enable-background="new 0 0 512 512" height="512" viewBox="0 0 512 512" width="512" xmlns="http://www.w3.org/2000/svg"><g><path d="m256 352c11.046 0 20-8.954 20-20v-19.44c23.278-8.256 40-30.487 40-56.56 0-33.084-26.916-60-60-60-11.028 0-20-8.972-20-20s8.972-20 20-20c7.12 0 13.764 3.837 17.337 10.015 5.531 9.561 17.767 12.828 27.327 7.297 9.562-5.531 12.828-17.766 7.297-27.327-7.239-12.513-18.696-21.813-31.961-26.524v-19.461c0-11.046-8.954-20-20-20s-20 8.954-20 20v19.44c-23.278 8.256-40 30.487-40 56.56 0 33.084 26.916 60 60 60 11.028 0 20 8.972 20 20s-8.972 20-20 20c-7.12 0-13.764-3.837-17.337-10.015-5.531-9.561-17.766-12.828-27.327-7.297-9.562 5.531-12.828 17.766-7.297 27.327 7.239 12.513 18.696 21.813 31.961 26.524v19.461c0 11.046 8.954 20 20 20z"/><path d="m506.142 437.858c-7.811-7.811-20.474-7.811-28.284 0l-5.858 5.858v-227.716c0-119.103-96.897-216-216-216s-216 96.897-216 216v227.716l-5.858-5.858c-7.811-7.811-20.474-7.811-28.284 0s-7.811 20.474 0 28.284l40 40c3.905 3.905 9.023 5.858 14.142 5.858s10.237-1.953 14.142-5.858l40-40c7.811-7.811 7.811-20.474 0-28.284s-20.474-7.811-28.284 0l-5.858 5.858v-102.628c39.194 54.987 103.48 90.912 176 90.912 46.348 0 90.562-14.523 127.862-41.999 8.893-6.551 10.792-19.071 4.241-27.964-6.55-8.893-19.07-10.792-27.964-4.241-30.378 22.376-66.389 34.204-104.139 34.204-97.047 0-176-78.953-176-176s78.953-176 176-176 176 78.953 176 176v227.716l-5.858-5.858c-7.811-7.811-20.474-7.811-28.284 0s-7.811 20.474 0 28.284l40 40c3.905 3.905 9.023 5.858 14.142 5.858s10.237-1.953 14.142-5.858l40-40c7.811-7.81 7.811-20.474 0-28.284z"/></g></svg>