<svg id="Capa_1" enable-background="new 0 0 512 512" height="512" viewBox="0 0 512 512" width="512" xmlns="http://www.w3.org/2000/svg"><g><path d="m72 60v192c0 11.046 8.954 20 20 20s20-8.954 20-20v-192c0-33.084-26.916-60-60-60h-32c-11.046 0-20 8.954-20 20s8.954 20 20 20h32c11.028 0 20 8.972 20 20z"/><path d="m452 312h-240c-11.028 0-20-8.972-20-20v-152c0-11.028 8.972-20 20-20h20v20c0 33.084 26.916 60 60 60s60-26.916 60-60v-20h20c11.028 0 20 8.972 20 20v112c0 11.046 8.954 20 20 20s20-8.954 20-20v-112c0-33.084-26.916-60-60-60h-160c-33.084 0-60 26.916-60 60v152c0 7.011 1.22 13.74 3.44 20h-23.44c-33.084 0-60 26.916-60 60v40c0 33.084 26.916 60 60 60h23.44c8.256 23.278 30.487 40 56.56 40s48.303-16.722 56.56-40h46.881c8.256 23.278 30.487 40 56.56 40s48.303-16.722 56.56-40h23.439c33.084 0 60-26.916 60-60v-40c0-33.084-26.916-60-60-60zm-140-172c0 11.028-8.972 20-20 20s-20-8.972-20-20v-20h40zm-100 332c-11.028 0-20-8.972-20-20s8.972-20 20-20 20 8.972 20 20-8.972 20-20 20zm160 0c-11.028 0-20-8.972-20-20s8.972-20 20-20 20 8.972 20 20-8.972 20-20 20zm100-60c0 11.028-8.972 20-20 20h-23.44c-8.256-23.278-30.487-40-56.56-40s-48.303 16.722-56.56 40h-46.88c-8.256-23.278-30.487-40-56.56-40s-48.303 16.722-56.56 40h-23.44c-11.028 0-20-8.972-20-20v-40c0-11.028 8.972-20 20-20h320c11.028 0 20 8.972 20 20z"/></g></svg>