<svg id="Capa_1" enable-background="new 0 0 512.031 512.031" height="512" viewBox="0 0 512.031 512.031" width="512" xmlns="http://www.w3.org/2000/svg"><g id="Marketing"><path d="m495.006 333.707-33.279-99.841c-3.629-10.889-5.395-22.748-6.929-37.203-6.54-61.62-39.213-117.991-89.642-154.66-50.993-37.079-113.655-50.214-176.447-36.986-85.402 17.991-153.305 88.005-168.967 174.219-6.626 36.471-4.447 72.445 6.476 106.923 10.247 32.344 28.267 62.389 52.11 86.888 11.414 11.727 17.7 26.729 17.701 42.243l.002 36.743c.001 33.083 26.917 59.998 60 59.998h200.001c33.084 0 60-26.916 60-60v-32c0-11.046-8.954-20-20-20h-40c-11.046 0-20 8.954-20 20s8.954 20 20 20h20v12c0 11.028-8.972 20-20 20h-200.001c-11.027 0-20-8.972-20-20l-.002-36.742c0-25.993-10.313-50.903-29.036-70.14-41.097-42.226-58.555-100.093-47.896-158.763 12.789-70.394 68.189-127.552 137.858-142.229 51.576-10.864 102.955-.14 144.677 30.197 41.292 30.025 68.042 76.144 73.39 126.53 1.458 13.739 3.458 29.728 8.758 45.63l24.504 73.517h-52.252c-11.046 0-20 8.954-20 20s8.954 20 20 20h80c6.429 0 12.466-3.09 16.225-8.306 3.759-5.215 4.782-11.92 2.749-18.018z"/><path d="m356.032 200.031h-20v-60c0-6.429-3.09-12.466-8.306-16.225-5.215-3.758-11.918-4.781-18.019-2.749l-116.921 38.974h-36.754c-33.084 0-60 26.916-60 60 0 28.588 20.103 52.554 46.912 58.545l35.2 70.4c4.941 9.882 16.955 13.883 26.833 8.944 9.879-4.94 13.884-16.954 8.944-26.833l-25.528-51.056h4.394l116.921 38.974c6.099 2.033 12.803 1.01 18.019-2.749 5.215-3.759 8.306-9.796 8.306-16.225v-60h20c11.046 0 20-8.954 20-20s-8.955-20-20.001-20zm-200 0h20v40h-20c-11.028 0-20-8.972-20-20s8.972-20 20-20zm140 72.251-80-26.667v-51.169l80-26.667z"/></g></svg>