<svg id="Capa_1" enable-background="new 0 0 512 512" height="512" viewBox="0 0 512 512" width="512" xmlns="http://www.w3.org/2000/svg"><g><path d="m276 396h-40c-11.046 0-20 8.954-20 20s8.954 20 20 20h40c11.046 0 20-8.954 20-20s-8.954-20-20-20z"/><path d="m310.142 203.858c-7.811-7.811-20.474-7.811-28.284 0l-80 80c-7.811 7.811-7.811 20.474 0 28.284 3.905 3.905 9.023 5.858 14.142 5.858s10.237-1.953 14.142-5.858l80-80c7.811-7.81 7.811-20.474 0-28.284z"/><path d="m396 0h-80-120-80c-33.084 0-60 26.916-60 60 0 26.073 16.722 48.303 40 56.56v335.44c0 33.084 26.916 60 60 60h200c33.084 0 60-26.916 60-60v-272c0-11.046-8.954-20-20-20s-20 8.954-20 20v272c0 11.028-8.972 20-20 20h-200c-11.028 0-20-8.972-20-20v-332h20c15.355 0 29.376-5.805 40-15.327 10.624 9.522 24.645 15.327 40 15.327h40c15.355 0 29.376-5.805 40-15.327 10.624 9.522 24.645 15.327 40 15.327h40c33.084 0 60-26.916 60-60s-26.916-60-60-60zm-240 80h-40c-11.028 0-20-8.972-20-20s8.972-20 20-20h60v20c0 11.028-8.972 20-20 20zm120 0h-40c-11.028 0-20-8.972-20-20v-20h80v20c0 11.028-8.972 20-20 20zm120 0h-40c-11.028 0-20-8.972-20-20v-20h60c11.028 0 20 8.972 20 20s-8.972 20-20 20z"/><circle cx="216" cy="198" r="20"/><circle cx="296" cy="318" r="20"/></g></svg>