<svg id="Capa_1" enable-background="new 0 0 512 512" height="512" viewBox="0 0 512 512" width="512" xmlns="http://www.w3.org/2000/svg"><g><path d="m256 156c-33.084 0-60 26.916-60 60s26.916 60 60 60 60-26.916 60-60-26.916-60-60-60zm0 80c-11.028 0-20-8.972-20-20s8.972-20 20-20 20 8.972 20 20-8.972 20-20 20z"/><path d="m60 356h392c33.084 0 60-26.916 60-60v-160c0-33.084-26.916-60-60-60h-392c-33.084 0-60 26.916-60 60v160c0 33.084 26.916 60 60 60zm-20-220c0-11.028 8.972-20 20-20h392c11.028 0 20 8.972 20 20v160c0 11.028-8.972 20-20 20h-392c-11.028 0-20-8.972-20-20z"/><path d="m20 436h472c11.046 0 20-8.954 20-20s-8.954-20-20-20h-472c-11.046 0-20 8.954-20 20s8.954 20 20 20z"/><path d="m100 236h40c11.046 0 20-8.954 20-20s-8.954-20-20-20h-40c-11.046 0-20 8.954-20 20s8.954 20 20 20z"/><path d="m372 236h40c11.046 0 20-8.954 20-20s-8.954-20-20-20h-40c-11.046 0-20 8.954-20 20s8.954 20 20 20z"/></g></svg>