<svg id="Capa_1" enable-background="new 0 0 512 512" height="512" viewBox="0 0 512 512" width="512" xmlns="http://www.w3.org/2000/svg"><g id="Money_Management"><g><path d="m140 280c-77.196 0-140-62.804-140-140s62.804-140 140-140 140 62.804 140 140-62.804 140-140 140zm0-240c-55.14 0-100 44.86-100 100s44.86 100 100 100 100-44.86 100-100-44.86-100-100-100z"/></g><g><path d="m372 512c-77.196 0-140-62.804-140-140s62.804-140 140-140 140 62.804 140 140-62.804 140-140 140zm0-240c-55.141 0-100 44.86-100 100s44.859 100 100 100 100-44.86 100-100-44.859-100-100-100z"/></g><g><path d="m154.142 182.426-28.284-28.284c-3.751-3.751-5.858-8.838-5.858-14.142v-40c0-11.046 8.954-20 20-20s20 8.954 20 20v31.716l22.426 22.426c7.811 7.81 7.811 20.474 0 28.284-7.809 7.81-20.472 7.812-28.284 0z"/></g><g><path d="m372 432c-10.685 0-20.729-4.161-28.284-11.716l-20-20c-7.555-7.553-11.716-17.598-11.716-28.284 0-10.684 4.16-20.729 11.715-28.284l20-20c7.555-7.555 17.599-11.716 28.285-11.716 10.685 0 20.729 4.161 28.284 11.716l20 20c7.555 7.553 11.716 17.598 11.716 28.284 0 10.684-4.16 20.729-11.715 28.284l-20 20c-7.555 7.555-17.599 11.716-28.285 11.716zm-20-60c-.007.007-.012.012-.013.014l20.014 19.986 19.999-20-20.001-20z"/></g><g><path d="m412 76h-47.213l34.499-34.497c7.81-7.81 7.81-20.474 0-28.284-7.811-7.811-20.473-7.81-28.285 0l-42.426 42.426c-11.334 11.332-17.575 26.399-17.575 42.426s6.241 31.094 17.574 42.427l42.426 42.426c7.811 7.81 20.475 7.81 28.285 0 7.81-7.811 7.81-20.474 0-28.284l-38.641-38.64h51.356c33.084 0 60 26.916 60 60 0 11.046 8.954 20 20 20s20-8.954 20-20c0-55.14-44.859-100-100-100z"/><path d="m178.426 375.645-42.426-42.427c-7.811-7.811-20.474-7.811-28.284 0-7.811 7.81-7.811 20.474 0 28.284l35.206 35.207h-42.922c-33.084 0-60-26.916-60-60 0-11.046-8.954-20-20-20s-20 8.954-20 20c0 55.14 44.86 100 100 100h45.646l-37.93 37.931c-7.811 7.811-7.811 20.474 0 28.284 7.811 7.811 20.474 7.811 28.284 0l42.426-42.426c11.43-11.43 17.574-26.084 17.574-43.789 0-13.514-5.817-29.308-17.574-41.064z"/></g></g></svg>