<svg id="Capa_1" enable-background="new 0 0 512 512" height="512" viewBox="0 0 512 512" width="512" xmlns="http://www.w3.org/2000/svg"><g id="Money_Exchange"><g><path d="m140 280c-77.196 0-140-62.804-140-140s62.804-140 140-140 140 62.804 140 140-62.804 140-140 140zm0-240c-55.14 0-100 44.86-100 100s44.86 100 100 100 100-44.86 100-100-44.86-100-100-100z"/></g><g><path d="m140 280c-77.196 0-140-62.804-140-140s62.804-140 140-140 140 62.804 140 140-62.804 140-140 140zm0-240c-55.14 0-100 44.86-100 100s44.86 100 100 100 100-44.86 100-100-44.86-100-100-100z"/></g><g><path d="m372 512c-77.196 0-140-62.804-140-140s62.804-140 140-140 140 62.804 140 140-62.804 140-140 140zm0-240c-55.141 0-100 44.86-100 100s44.859 100 100 100 100-44.86 100-100-44.859-100-100-100z"/></g><g><path d="m416 116h-80c-11.046 0-20-8.954-20-20s8.954-20 20-20h80c11.046 0 20 8.954 20 20s-8.954 20-20 20z"/></g><g><path d="m176 356h-80c-11.046 0-20-8.954-20-20s8.954-20 20-20h80c11.046 0 20 8.954 20 20s-8.954 20-20 20z"/></g><g><path d="m416 196h-80c-11.046 0-20-8.954-20-20s8.954-20 20-20h80c11.046 0 20 8.954 20 20s-8.954 20-20 20z"/></g><g><path d="m176 436h-80c-11.046 0-20-8.954-20-20s8.954-20 20-20h80c11.046 0 20 8.954 20 20s-8.954 20-20 20z"/></g><g><path d="m414.412 329.589c-7.812-7.811-20.475-7.811-28.284 0l-14.128 14.127-14.128-14.127c-7.811-7.81-20.474-7.81-28.284 0s-7.81 20.474.001 28.284l22.411 22.411v31.716c0 11.046 8.954 20 20 20s20-8.954 20-20v-31.716l22.411-22.411c7.811-7.81 7.812-20.474.001-28.284z"/><path d="m140 80c-33.084 0-60 26.916-60 60s26.916 60 60 60 60-26.916 60-60-26.916-60-60-60zm0 80c-11.028 0-20-8.972-20-20s8.972-20 20-20 20 8.972 20 20-8.972 20-20 20z"/></g></g></svg>