<svg id="Capa_1" enable-background="new 0 0 512 512" height="512" viewBox="0 0 512 512" width="512" xmlns="http://www.w3.org/2000/svg"><g id="Money_Bag"><path d="m452.028 205.282c-13.185-32.181-32.007-58.439-57.542-80.277-8.395-7.179-21.02-6.194-28.198 2.201-7.179 8.395-6.193 21.02 2.201 28.198 28.981 24.785 67.511 72.13 67.511 196.596 0 66.168-53.832 120-120 120h-120c-66.168 0-120-53.832-120-120 0-94.424 21.35-160.89 63.456-197.55 32.766-28.529 70.791-31.864 89.064-33.467 3.711-.326 6.645-.583 9.23-.982h38.25c55.14 0 100-44.86 100-100 0-11.046-8.954-20-20-20h-200c-11.046 0-20 8.954-20 20 0 28.624 12.092 54.473 31.431 72.719-17.468 6.244-36.377 16.007-54.242 31.562-51.219 44.595-77.189 121.21-77.189 227.718 0 88.224 71.776 160 160 160h120c88.224 0 160-71.776 160-160 0-59.355-7.841-107.347-23.972-146.718zm-119.455-165.282c-8.255 23.281-30.498 40-56.573 40 0 0-40.093-.007-40.233-.005-25.974-.1-48.11-16.784-56.34-39.995z"/><path d="m356 260c0-33.084-26.916-60-60-60h-20v-20c0-11.046-8.954-20-20-20s-20 8.954-20 20v20h-60c-11.046 0-20 8.954-20 20s8.954 20 20 20h20v120h-20c-11.046 0-20 8.954-20 20s8.954 20 20 20h60v20c0 11.046 8.954 20 20 20s20-8.954 20-20v-20h20c33.084 0 60-26.916 60-60 0-15.355-5.805-29.376-15.327-40 9.522-10.624 15.327-24.645 15.327-40zm-40 0c0 11.028-8.972 20-20 20h-60v-40h60c11.028 0 20 8.972 20 20zm-20 100h-60v-40h60c11.028 0 20 8.972 20 20s-8.972 20-20 20z"/></g></svg>