<svg id="Capa_1" enable-background="new 0 0 512 512" height="512" viewBox="0 0 512 512" width="512" xmlns="http://www.w3.org/2000/svg"><g id="Money_Growth_1_"><g><path d="m256 200c-10.685 0-20.729-4.161-28.284-11.716l-20-20c-7.555-7.555-11.716-17.599-11.716-28.284s4.161-20.729 11.716-28.284l20-20c7.555-7.555 17.599-11.716 28.284-11.716s20.729 4.161 28.284 11.716l20 20c7.555 7.555 11.716 17.599 11.716 28.284s-4.161 20.729-11.716 28.284l-20 20c-7.555 7.555-17.599 11.716-28.284 11.716zm0-80-20 20c-.007.007-.011.013-.012.015l20.012 19.985 20-20z"/></g><path d="m336 396c-11.046 0-20 8.954-20 20s8.954 20 20 20c55.14 0 100-44.86 100-100 0-11.046-8.954-20-20-20h-80c-22.494 0-43.275 7.468-60 20.051v-57.485c67.755-9.735 120-68.159 120-138.565 0-77.197-62.804-140.001-140-140.001s-140 62.804-140 140c0 70.406 52.245 128.831 120 138.565v57.485c-16.725-12.582-37.506-20.05-60-20.05h-80c-11.046 0-20 8.954-20 20 0 55.14 44.86 100 100 100h60v36h-100c-11.046 0-20 8.954-20 20s8.954 20 20 20h240c11.046 0 20-8.954 20-20s-8.954-20-20-20h-100v-56c0-33.084 26.916-60 60-60h56.573c-8.255 23.281-30.498 40-56.573 40zm-180-256c0-55.14 44.86-100 100-100s100 44.86 100 100-44.86 100-100 100-100-44.86-100-100zm20 256c-26.075 0-48.318-16.719-56.573-40h56.573c26.075 0 48.318 16.719 56.573 40z"/></g></svg>