<svg id="Capa_1" enable-background="new 0 0 512 512" height="512" viewBox="0 0 512 512" width="512" xmlns="http://www.w3.org/2000/svg"><g><path d="m266.339 393.984c-15.03 3.992-30.62 6.016-46.339 6.016-99.252 0-180-80.748-180-180s80.748-180 180-180 180 80.748 180 180c0 12.28-1.241 24.546-3.69 36.458-2.224 10.819 4.744 21.393 15.564 23.617 10.825 2.225 21.393-4.745 23.617-15.563 2.991-14.556 4.509-29.533 4.509-44.512 0-121.587-98.395-220-220-220-121.59 0-220 98.398-220 220 0 121.587 98.395 220 220 220 19.183 0 38.229-2.475 56.606-7.356 10.676-2.835 17.031-13.789 14.196-24.464s-13.784-17.032-24.463-14.196z"/><path d="m432 352h-43.7l5.851-5.851c7.811-7.81 7.812-20.472.002-28.283-7.809-7.811-20.471-7.812-28.283-.004l-40.01 39.993c-3.752 3.75-5.859 8.838-5.86 14.143 0 5.33 2.112 10.49 6.055 14.341l39.803 39.803c7.81 7.81 20.474 7.811 28.285 0s7.811-20.474 0-28.284l-5.859-5.858h43.716c22.056 0 40 17.944 40 40s-17.944 40-40 40c-11.046 0-20 8.954-20 20s8.954 20 20 20c44.112 0 80-35.888 80-80s-35.888-80-80-80z"/><path d="m220 360c11.046 0 20-8.954 20-20v-23.44c23.278-8.256 40-30.487 40-56.56 0-33.084-26.916-60-60-60-11.028 0-20-8.972-20-20s8.972-20 20-20c7.12 0 13.763 3.837 17.336 10.014 5.531 9.562 17.766 12.83 27.327 7.298 9.561-5.53 12.828-17.765 7.298-27.326-7.239-12.514-18.696-21.814-31.961-26.525v-23.461c0-11.046-8.954-20-20-20s-20 8.954-20 20v23.44c-23.278 8.256-40 30.487-40 56.56 0 33.084 26.916 60 60 60 11.028 0 20 8.972 20 20s-8.972 20-20 20c-7.12 0-13.763-3.837-17.336-10.014-5.531-9.562-17.766-12.829-27.327-7.298-9.561 5.53-12.828 17.765-7.298 27.326 7.239 12.514 18.696 21.814 31.961 26.525v23.461c0 11.046 8.954 20 20 20z"/></g></svg>