<svg id="Capa_1" enable-background="new 0 0 512 512" height="512" viewBox="0 0 512 512" width="512" xmlns="http://www.w3.org/2000/svg"><g><path d="m492 432h-80c-11.046 0-20 8.954-20 20s8.954 20 20 20h80c11.046 0 20-8.954 20-20s-8.954-20-20-20z"/><path d="m292 392c-26.073 0-48.303 16.722-56.56 40h-215.44c-11.046 0-20 8.954-20 20s8.954 20 20 20h215.44c8.256 23.278 30.487 40 56.56 40 33.084 0 60-26.916 60-60s-26.916-60-60-60zm0 80c-11.028 0-20-8.972-20-20s8.972-20 20-20 20 8.972 20 20-8.972 20-20 20z"/><path d="m412 0h-312c-55.14 0-100 44.86-100 100v160c0 55.14 44.86 100 100 100h312c55.14 0 100-44.86 100-100v-160c0-55.14-44.86-100-100-100zm60 260c0 33.084-26.916 60-60 60h-312c-33.084 0-60-26.916-60-60v-160c0-33.084 26.916-60 60-60h312c33.084 0 60 26.916 60 60z"/><path d="m372 80c-26.073 0-48.303 16.722-56.56 40h-15.44c-53.774 0-100.566 30.478-124.009 75.064-18.356-21.447-45.614-35.064-75.991-35.064-11.046 0-20 8.954-20 20s8.954 20 20 20c33.084 0 60 26.916 60 60 0 11.046 8.954 20 20 20s20-8.954 20-20c0-55.14 44.86-100 100-100h15.44c8.256 23.278 30.487 40 56.56 40 33.084 0 60-26.916 60-60s-26.916-60-60-60zm0 80c-11.028 0-20-8.972-20-20s8.972-20 20-20 20 8.972 20 20-8.972 20-20 20z"/></g></svg>