<svg id="Capa_1" enable-background="new 0 0 512 512" height="512" viewBox="0 0 512 512" width="512" xmlns="http://www.w3.org/2000/svg"><g><g><g><circle cx="256" cy="216" r="20"/></g></g><path d="m114.61 274.538-46.638-12.497c-10.672-2.86-21.636 3.472-24.495 14.142-2.859 10.669 3.473 21.636 14.142 24.495l35.322 9.465-9.464 35.323c-2.859 10.669 3.473 21.636 14.143 24.495 10.667 2.861 21.636-3.474 24.494-14.142l12.497-46.639 41.389-23.898 60.041 34.666c-.011.273-.041.542-.041.818v91.234c0 11.028-8.972 20-20 20-33.084 0-60 26.916-60 60 0 11.046 8.954 20 20 20s20-8.954 20-20c0-11.028 8.972-20 20-20 7.011 0 13.74-1.22 20-3.44v23.44c0 11.046 8.954 20 20 20s20-8.954 20-20v-23.44c6.26 2.22 12.989 3.44 20 3.44 11.028 0 20 8.972 20 20 0 11.046 8.954 20 20 20s20-8.954 20-20c0-33.084-26.916-60-60-60-11.028 0-20-8.972-20-20v-91.234c0-.276-.03-.545-.041-.818l60.041-34.666 41.39 23.896 12.497 46.639c2.859 10.668 13.827 17.003 24.494 14.142 10.67-2.858 17.002-13.825 14.143-24.495l-9.464-35.323 35.322-9.465c10.669-2.859 17.001-13.826 14.142-24.495s-13.826-17.005-24.495-14.142l-46.638 12.497-41.391-23.895v-80.83c0-7.146-3.812-13.748-10-17.32l-70-40.414v-43.792l34.143-34.143c7.811-7.811 7.811-20.474 0-28.284s-20.475-7.811-28.285 0l-25.858 25.858-25.857-25.858c-7.811-7.811-20.475-7.811-28.285 0s-7.811 20.474 0 28.284l34.142 34.143v43.792l-60 34.641-41.39-23.896-12.497-46.639c-2.859-10.669-13.824-17.004-24.494-14.142-10.67 2.858-17.002 13.825-14.143 24.495l9.464 35.323-35.322 9.465c-10.669 2.859-17.001 13.826-14.142 24.495s13.827 17.003 24.495 14.142l46.638-12.497 41.391 23.895v69.282zm81.39-93.18 60-34.641 60 34.641v69.283l-60 34.641-60-34.641z"/><path d="m454.382 131.323-35.322-9.465 9.464-35.323c2.859-10.669-3.473-21.636-14.143-24.495-10.665-2.862-21.637 3.473-24.494 14.142l-14.641 54.641c-2.859 10.669 3.473 21.636 14.142 24.495l54.641 14.641c10.669 2.859 21.636-3.473 24.495-14.142s-3.473-21.635-14.142-24.494z"/></g></svg>