<svg id="Capa_1" enable-background="new 0 0 512 512" height="512" viewBox="0 0 512 512" width="512" xmlns="http://www.w3.org/2000/svg"><g id="Online_Banking"><g><path d="m452 156h-192c-33.084 0-60 26.916-60 60v120c0 26.073 16.722 48.303 40 56.56v39.44c0 22.056-17.944 40-40 40h-120c-22.056 0-40-17.944-40-40v-352c0-22.056 17.944-40 40-40h120c22.056 0 40 17.944 40 40v19.998c0 11.046 8.954 20 20 20s20-8.954 20-20v-19.998c0-44.112-35.888-80-80-80h-120c-44.112 0-80 35.888-80 80v352c0 44.112 35.888 80 80 80h120c44.112 0 80-35.888 80-80v-36h172c33.084 0 60-26.916 60-60v-120c0-33.084-26.916-60-60-60zm20 180c0 11.028-8.972 20-20 20h-192c-11.028 0-20-8.972-20-20v-120c0-11.028 8.972-20 20-20h192c11.028 0 20 8.972 20 20z"/><path d="m412 236h-112c-11.046 0-20 8.954-20 20s8.954 20 20 20h112c11.046 0 20-8.954 20-20s-8.954-20-20-20z"/><path d="m160 80h-40c-11.046 0-20 8.954-20 20s8.954 20 20 20h40c11.046 0 20-8.954 20-20s-8.954-20-20-20z"/><path d="m160 392h-40c-11.046 0-20 8.954-20 20s8.954 20 20 20h40c11.046 0 20-8.954 20-20s-8.954-20-20-20z"/></g><g><path d="m125.858 310.142-40-40c-7.811-7.811-7.811-20.474 0-28.284l40-40c7.811-7.811 20.474-7.811 28.284 0s7.811 20.474 0 28.284l-25.858 25.858 25.858 25.858c7.811 7.811 7.811 20.474 0 28.284-7.81 7.811-20.474 7.811-28.284 0z"/></g></g></svg>