<svg id="Capa_1" enable-background="new 0 0 512 512" height="512" viewBox="0 0 512 512" width="512" xmlns="http://www.w3.org/2000/svg"><g><path d="m196 356h120c7.576 0 14.5-4.28 17.889-11.056l40-80c3.1-6.2 2.769-13.562-.875-19.459-3.645-5.896-10.082-9.485-17.014-9.485h-7.639l-34.472-68.944c-4.94-9.879-16.952-13.884-26.833-8.944-9.879 4.94-13.884 16.954-8.944 26.833l25.527 51.055h-95.278l25.528-51.056c4.939-9.879.935-21.893-8.944-26.833-9.879-4.939-21.892-.935-26.833 8.944l-34.473 68.945h-7.639c-6.932 0-13.369 3.589-17.013 9.485s-3.975 13.259-.875 19.459l40 80c3.388 6.776 10.312 11.056 17.888 11.056zm107.639-40h-95.278l-20-40h135.278z"/><path d="m60 120h40c15.355 0 29.376-5.805 40-15.327 10.624 9.522 24.645 15.327 40 15.327h36c15.355 0 29.376-5.805 40-15.327 10.624 9.522 24.645 15.327 40 15.327h36c15.355 0 29.376-5.805 40-15.327 10.624 9.522 24.645 15.327 40 15.327h40c33.084 0 60-26.916 60-60s-26.916-60-60-60h-392c-33.084 0-60 26.916-60 60v312c0 33.084 26.916 60 60 60h136v40h-80c-11.046 0-20 8.954-20 20s8.954 20 20 20h280c11.046 0 20-8.954 20-20s-8.954-20-20-20h-80v-40h136c33.084 0 60-26.916 60-60v-192c0-11.046-8.954-20-20-20s-20 8.954-20 20v192c0 11.028-8.972 20-20 20h-392c-11.028 0-20-8.972-20-20v-255.44c6.26 2.22 12.989 3.44 20 3.44zm216 352h-40v-40h40zm196-412c0 11.028-8.972 20-20 20h-40c-11.028 0-20-8.972-20-20v-20h60c11.028 0 20 8.972 20 20zm-120 0c0 11.028-8.972 20-20 20h-36c-11.028 0-20-8.972-20-20v-20h76zm-116 0c0 11.028-8.972 20-20 20h-36c-11.028 0-20-8.972-20-20v-20h76zm-176-20h60v20c0 11.028-8.972 20-20 20h-40c-11.028 0-20-8.972-20-20s8.972-20 20-20z"/></g></svg>