<svg id="Capa_1" enable-background="new 0 0 512 512" height="512" viewBox="0 0 512 512" width="512" xmlns="http://www.w3.org/2000/svg"><g><circle cx="336" cy="100" r="20"/><circle cx="416" cy="100" r="20"/><path d="m452 0h-392c-33.084 0-60 26.916-60 60v392c0 33.084 26.916 60 60 60h392c33.084 0 60-26.916 60-60v-196c0-11.046-8.954-20-20-20s-20 8.954-20 20v196c0 11.028-8.972 20-20 20h-392c-11.028 0-20-8.972-20-20v-336h136c7.676 0 15.124 2.174 21.541 6.287l95.333 61.102c12.871 8.25 27.784 12.611 43.126 12.611h156c11.046 0 20-8.954 20-20v-116c0-33.084-26.916-60-60-60zm20 156h-136c-7.676 0-15.124-2.174-21.541-6.287l-95.333-61.102c-12.871-8.25-27.784-12.611-43.126-12.611h-136v-16c0-11.028 8.972-20 20-20h392c11.028 0 20 8.972 20 20z"/><path d="m100 216h13.333c7.328 0 13.808 4.671 16.125 11.623l42.45 127.351c6.794 20.381 23.729 35.197 44.091 39.637v21.389c0 11.046 8.954 20 20 20s20-8.954 20-20v-20h40v20c0 11.046 8.954 20 20 20s20-8.954 20-20v-20.658c22.126-3.271 40.856-18.667 48.091-40.369l13.333-40c6.082-18.246 2.999-38.454-8.246-54.056s-29.441-24.917-48.674-24.917h-166.088l-7.009-21.026c-7.77-23.312-29.5-38.974-54.073-38.974h-13.333c-11.046 0-20 8.954-20 20s8.954 20 20 20zm87.749 60h152.754c6.411 0 12.476 3.105 16.225 8.306 3.748 5.201 4.776 11.937 2.749 18.019l-13.333 40c-2.727 8.18-10.352 13.676-18.974 13.676h-98.339c-8.622 0-16.248-5.496-18.974-13.676z"/></g></svg>