<svg id="Capa_1" enable-background="new 0 0 512 512" height="512" viewBox="0 0 512 512" width="512" xmlns="http://www.w3.org/2000/svg"><g><path d="m412 160h-40c-11.046 0-20 8.954-20 20s8.954 20 20 20h40c11.046 0 20-8.954 20-20s-8.954-20-20-20z"/><path d="m372 280h40c11.046 0 20-8.954 20-20s-8.954-20-20-20h-40c-11.046 0-20 8.954-20 20s8.954 20 20 20z"/><path d="m372 360h40c11.046 0 20-8.954 20-20s-8.954-20-20-20h-40c-11.046 0-20 8.954-20 20s8.954 20 20 20z"/><path d="m452 40h-20v-20c0-11.046-8.954-20-20-20s-20 8.954-20 20v20h-216c-11.046 0-20 8.954-20 20s8.954 20 20 20h276c11.028 0 20 8.972 20 20v280c0 11.028-8.972 20-20 20h-392c-11.028 0-20-8.972-20-20v-280c0-11.028 8.972-20 20-20h36c11.046 0 20-8.954 20-20v-40c0-11.046-8.954-20-20-20s-20 8.954-20 20v20h-16c-33.084 0-60 26.916-60 60v280c0 33.084 26.916 60 60 60h176v32h-20c-11.046 0-20 8.954-20 20s8.954 20 20 20h80c11.046 0 20-8.954 20-20s-8.954-20-20-20h-20v-32h176c33.084 0 60-26.916 60-60v-280c0-33.084-26.916-60-60-60z"/><path d="m80 240c0 66.168 53.832 120 120 120s120-53.832 120-120-53.832-120-120-120-120 53.832-120 120zm197.468-20h-57.468v-57.469c28.071 7.252 50.217 29.398 57.468 57.469zm-97.468-57.469v77.469c0 11.046 8.954 20 20 20h77.468c-8.903 34.466-40.26 60-77.468 60-44.112 0-80-35.888-80-80 0-37.209 25.534-68.565 60-77.469z"/></g></svg>