<svg id="Capa_1" enable-background="new 0 0 511.982 511.982" height="512" viewBox="0 0 511.982 511.982" width="512" xmlns="http://www.w3.org/2000/svg"><g id="Pie_Chart"><g><path d="m220.028 511.982c-119.165 0-220.01-100.852-220-220.017.007-99.65 67.229-187.09 163.47-212.638 18.646-4.95 38.04-1.098 53.208 10.57 14.821 11.399 23.322 28.661 23.322 47.358v40.727c0 26.351-15.62 49.283-38.869 57.063-24.602 8.233-41.131 31.115-41.131 56.938 0 33.084 26.916 60 60 60 25.822 0 48.704-16.53 56.938-41.132 7.78-23.248 30.713-38.868 57.063-38.868h40.726c18.697 0 35.958 8.5 47.358 23.322 11.667 15.169 15.52 34.562 10.57 53.208-25.548 96.241-112.988 163.462-212.638 163.469-.006 0-.012 0-.017 0zm-40.578-394.744c-1.887 0-3.797.247-5.689.75-78.734 20.901-133.727 92.444-133.733 173.98-.007 97.17 82.83 180.012 180 180.014h.013c81.536-.006 153.079-54.999 173.98-133.732 1.738-6.547.421-13.312-3.615-18.558-2.214-2.879-7.192-7.708-15.652-7.708h-40.726c-8.843 0-16.889 4.863-19.132 11.563-13.7 40.934-51.825 68.437-94.87 68.437-55.14 0-100-44.86-100-100 0-43.045 27.502-81.17 68.437-94.87 6.701-2.243 11.563-10.288 11.563-19.131v-40.727c0-8.459-4.83-13.438-7.708-15.652-3.73-2.871-8.227-4.366-12.868-4.366z"/></g><g><path d="m451.978 234.982h-41.839c-25.328 0-48.047-16.04-56.535-39.912-6.021-16.938-19.728-30.644-36.666-36.666-23.873-8.487-39.912-31.207-39.912-56.535v-41.838c0-18.41 8.703-36.142 23.281-47.432 14.778-11.444 33.629-15.335 51.724-10.672h.001c77.509 19.979 138.07 80.54 158.049 158.048 4.598 17.84.611 37.184-10.666 51.743-11.281 14.567-29.015 23.264-47.437 23.264zm-127.177-190.758c-4.868 3.77-7.774 9.679-7.774 15.807v41.839c0 8.441 5.349 16.015 13.311 18.845 28.158 10.011 50.945 32.798 60.956 60.956 2.831 7.961 10.404 13.311 18.845 13.311h41.839c6.141 0 12.052-2.899 15.814-7.756 3.761-4.856 5.09-11.311 3.555-17.266-16.344-63.409-65.889-112.954-129.299-129.298-6.007-1.549-12.299-.27-17.247 3.562z"/></g></g></svg>