<svg id="Capa_1" enable-background="new 0 0 512 512" height="512" viewBox="0 0 512 512" width="512" xmlns="http://www.w3.org/2000/svg"><g><path d="m187.094 179.359c-9.192-6.127-21.608-3.643-27.735 5.547l-80 120c-6.127 9.191-3.644 21.608 5.547 27.735 9.19 6.127 21.608 3.643 27.735-5.547l80-120c6.127-9.191 3.644-21.608-5.547-27.735z"/><circle cx="176" cy="316" r="20"/><circle cx="96" cy="196" r="20"/><path d="m256 0c-143.551 0-256 112.449-256 256s112.449 256 256 256c143.541 0 256-112.459 256-256 0-143.551-112.449-256-256-256zm-216 256c0-121.122 94.878-216 216-216 114.368 0 205.321 84.598 215.11 196h-195.11v-140c0-11.046-8.954-20-20-20s-20 8.954-20 20v160c0 5.412 2.28 10.567 5.86 14.145l152.744 152.744c-37.26 30.798-85.398 49.111-138.604 49.111-121.122 0-216-94.878-216-216zm382.888 138.604-118.604-118.604h166.826c-3.976 45.248-21.333 86.074-48.222 118.604z"/></g></svg>