<svg id="Capa_1" enable-background="new 0 0 512 512" height="512" viewBox="0 0 512 512" width="512" xmlns="http://www.w3.org/2000/svg"><g id="Piggy_Bank"><g><path d="m256 160c-11.046 0-20-8.954-20-20v-120c0-11.046 8.954-20 20-20s20 8.954 20 20v120c0 11.046-8.954 20-20 20z"/></g><g><path d="m492 272h-30.023c-6.565-13.768-15.361-26.422-25.977-37.348v-62.652c0-11.046-8.954-20-20-20-21.949 0-42.94 7.373-60 20.345v-52.345c0-9.324 6.32-17.329 15.369-19.466.125-.029 30.391-7.793 30.391-7.793 10.721 16.396 29.231 27.259 50.24 27.259 33.084 0 60-26.916 60-60s-26.916-60-60-60c-31.015 0-56.609 23.655-59.689 53.87l-30.339 7.783c-27.078 6.492-45.972 30.455-45.972 58.347v92c0 11.046 8.954 20 20 20 .911 0 2.381.2 3.938.413 1.428.195 3.047.416 4.829.573 7.83.69 15.338-3.273 19.189-10.125 7.245-12.894 18.733-22.479 32.044-27.322v47.605c0 5.667 2.404 11.067 6.614 14.86 12.248 11.033 21.651 25.105 27.193 40.696 2.834 7.975 10.381 13.302 18.845 13.302h23.348v40h-23.097c-8.445 0-15.981 5.305-18.829 13.256-10.159 28.362-32.31 50.432-60.773 60.551-7.974 2.833-13.301 10.379-13.301 18.842v27.349h-40v-20c0-11.046-8.954-20-20-20h-80c-11.046 0-20 8.954-20 20v20h-40v-27.349c0-8.463-5.327-16.01-13.301-18.845-39.895-14.181-66.699-51.879-66.699-93.806 0-55.14 44.86-100 100-100h80c11.046 0 20-8.954 20-20s-8.954-20-20-20h-60v-72c0-27.892-18.894-51.855-45.972-58.347l-30.339-7.783c-3.08-30.215-28.674-53.87-59.689-53.87-33.084 0-60 26.916-60 60s26.916 60 60 60c21.009 0 39.519-10.863 50.241-27.258 0 0 30.266 7.763 30.391 7.793 9.048 2.136 15.368 10.141 15.368 19.465v73.435c-41.389 5.947-76.985 30.06-98.424 63.979-11.223-10.696-17.576-26.666-17.576-45.414 0-11.046-8.954-20-20-20s-20 8.954-20 20c0 35.101 15.3 65.498 40.909 83.231-3.194 11.723-4.909 24.048-4.909 36.769 0 54.007 31.621 102.982 80 125.988v34.012c0 11.046 8.954 20 20 20h80c11.046 0 20-8.954 20-20v-20h40v20c0 11.046 8.954 20 20 20h80c11.046 0 20-8.954 20-20v-34.004c29.079-13.792 52.362-37 66.21-65.996h29.79c11.046 0 20-8.954 20-20v-80c0-11.046-8.954-20-20-20zm-40-232c11.028 0 20 8.972 20 20s-8.972 20-20 20-20-8.972-20-20 8.972-20 20-20zm-392 40c-11.028 0-20-8.972-20-20s8.972-20 20-20 20 8.972 20 20-8.972 20-20 20z"/><circle cx="376" cy="292" r="20"/></g></g></svg>