<svg id="Capa_1" enable-background="new 0 0 512 512" height="512" viewBox="0 0 512 512" width="512" xmlns="http://www.w3.org/2000/svg"><g id="Save_Money_2_"><g><circle cx="380" cy="216.041" r="20"/></g><g><path d="m98.382 475.963c-15.364 0-30.729-5.848-42.426-17.545-21.191-21.193-23.187-54.424-5.984-77.882-32.858-34.219-50.852-79.809-49.939-127.978 1.845-97.354 86.054-176.567 187.698-176.567h7.54c22.879 0 43.445 12.714 53.673 33.18l28.946 57.93c4.937 9.879.932 21.889-8.946 26.828l-55.181 27.59 20.379 20.379c7.81 7.81 7.81 20.474 0 28.284-7.811 7.811-20.476 7.811-28.284 0l-40-40c-4.547-4.546-6.63-11-5.601-17.346 1.03-6.346 5.048-11.81 10.798-14.685l62.116-31.058-20.009-40.042c-3.409-6.822-10.265-11.06-17.892-11.06h-7.54c-80.01 0-146.271 61.603-147.706 137.324-.814 43.026 17.762 83.409 50.966 110.793 4.35 3.587 6.982 8.842 7.253 14.473.27 5.631-1.85 11.114-5.836 15.1l-8.169 8.168c-7.797 7.797-7.797 20.486.001 28.284s20.485 7.797 28.285-.001l29.933-29.934c4.469-4.469 10.787-6.563 17.042-5.646 12.628 1.789 130.731 3.059 151.723.181 6.188-.851 12.436 1.249 16.858 5.672l29.728 29.727c7.799 7.799 20.486 7.797 28.285 0 7.798-7.798 7.798-20.486-.001-28.284l-7.418-7.417c-4.004-4.004-6.124-9.518-5.832-15.173.292-5.656 2.968-10.922 7.362-14.493 23.167-18.821 39.995-44.999 47.385-73.711 2.275-8.838 10.243-15.015 19.369-15.015h5.042c11.028 0 20-8.972 20-20v-40c0-11.028-8.972-20-20-20h-13.405c-7.139 0-13.737-3.805-17.312-9.985-4.647-8.033-10.124-15.641-16.277-22.613-3.226-3.654-5.006-8.361-5.006-13.235v-54.165c0-11.101-7.663-16.132-10.958-17.779-7.016-3.507-14.872-2.851-21.02 1.759l-43.351 32.514c-8.836 6.628-21.372 4.836-28-3.999-6.627-8.836-4.837-21.373 4-28l43.351-32.514c18.253-13.69 42.358-15.812 62.907-5.537 20.399 10.198 33.071 30.72 33.071 53.556v46.856c3.423 4.232 6.657 8.623 9.685 13.144h2.315c33.084 0 60 26.916 60 60v40c0 29.667-21.642 54.375-49.968 59.161-8.63 24.686-22.721 47.451-40.982 66.293 16.458 23.398 14.233 56.018-6.672 76.923-23.395 23.394-61.46 23.394-84.853 0l-23.158-23.157c-32.97 1.957-111.731 1.233-142.086-.315l-23.472 23.472c-11.697 11.697-27.062 17.545-42.427 17.545z"/></g></g></svg>