<svg id="Capa_1" enable-background="new 0 0 512 512" height="512" viewBox="0 0 512 512" width="512" xmlns="http://www.w3.org/2000/svg"><g><path d="m316 296c0-11.046-8.954-20-20-20h-80c-11.046 0-20 8.954-20 20s8.954 20 20 20h80c11.046 0 20-8.954 20-20z"/><path d="m36 60v392c0 33.084 26.916 60 60 60h320c33.084 0 60-26.916 60-60v-392c0-33.084-26.916-60-60-60s-60 26.916-60 60v116c0 11.028-8.972 20-20 20-8.451 0-17.195-7.168-27.321-15.468-13.334-10.929-29.929-24.532-52.679-24.532s-39.345 13.603-52.679 24.532c-10.126 8.3-18.87 15.468-27.321 15.468-11.028 0-20-8.972-20-20v-116c0-33.084-26.916-60-60-60s-60 26.916-60 60zm80 0v116c0 33.084 26.916 60 60 60 22.75 0 39.345-13.603 52.679-24.532 10.126-8.3 18.87-15.468 27.321-15.468s17.195 7.168 27.321 15.468c13.334 10.929 29.929 24.532 52.679 24.532 33.084 0 60-26.916 60-60v-116c0-11.028 8.972-20 20-20s20 8.972 20 20v392c0 11.028-8.972 20-20 20h-320c-11.028 0-20-8.972-20-20v-392c0-11.028 8.972-20 20-20s20 8.972 20 20z"/></g></svg>