<svg id="Capa_1" enable-background="new 0 0 512 512" height="512" viewBox="0 0 512 512" width="512" xmlns="http://www.w3.org/2000/svg"><g><path d="m437.812 5.858-65.858 65.858-25.858-25.858c-7.811-7.811-20.474-7.811-28.284 0s-7.811 20.474 0 28.284l40 40c3.905 3.905 9.023 5.858 14.142 5.858s10.237-1.953 14.142-5.858l80-80c7.811-7.811 7.811-20.474 0-28.284s-20.473-7.811-28.284 0z"/><path d="m254.096 157.858c-7.811-7.811-20.474-7.811-28.284 0l-25.858 25.858-25.858-25.858c-7.811-7.811-20.474-7.811-28.284 0s-7.811 20.474 0 28.284l25.858 25.858-25.858 25.858c-7.811 7.811-7.811 20.474 0 28.284 7.811 7.811 20.474 7.811 28.284 0l25.858-25.858 25.858 25.858c7.811 7.811 20.474 7.811 28.284 0 7.811-7.811 7.811-20.474 0-28.284l-25.857-25.858 25.858-25.858c7.81-7.81 7.81-20.474-.001-28.284z"/><path d="m491.954 472h-140v-252c0-11.028 8.972-20 20-20h40c11.028 0 20 8.972 20 20v192c0 11.046 8.954 20 20 20s20-8.954 20-20v-192c0-33.084-26.916-60-60-60h-40c-33.084 0-60 26.916-60 60v252h-152v-100c0-11.028 8.972-20 20-20h40c11.028 0 20 8.972 20 20v40c0 11.046 8.954 20 20 20s20-8.954 20-20v-40c0-33.084-26.916-60-60-60h-40c-33.084 0-60 26.916-60 60v96.56c-23.278-8.256-40-30.487-40-56.56v-345.405l4.092 5.456c6.626 8.835 19.164 10.627 28 4.001 8.837-6.627 10.628-19.163 4.001-28l-23.99-31.988c-15.814-21.086-47.829-21.591-64.022 0l-23.989 31.988c-6.627 8.837-4.835 21.373 4.001 28 8.837 6.627 21.374 4.835 28-4.001l3.907-5.206v345.155c0 55.14 44.86 100 100 100h352c11.046 0 20-8.954 20-20s-8.954-20-20-20z"/></g></svg>