<svg id="Capa_1" enable-background="new 0 0 512 512" height="512" viewBox="0 0 512 512" width="512" xmlns="http://www.w3.org/2000/svg"><g><circle cx="196" cy="196" r="20"/><circle cx="316" cy="316" r="20"/><path d="m210.143 330.142 120-120c7.81-7.81 7.81-20.474 0-28.284-7.811-7.811-20.475-7.811-28.285 0l-120 120c-7.81 7.81-7.81 20.474 0 28.284 7.81 7.811 20.474 7.811 28.285 0z"/><path d="m473.308 179.368c-7.142-5.298-10.769-14.044-9.466-22.826 4.496-30.292-5.28-60.02-26.823-81.563-22.178-22.176-52.444-31.146-81.56-26.824-9.034 1.338-17.733-2.597-22.827-9.465-18.239-24.588-46.17-38.69-76.632-38.69s-58.393 14.102-76.631 38.69c-5.166 6.964-13.929 10.784-22.826 9.465-29.111-4.321-59.378 4.641-81.562 26.824-21.542 21.543-31.318 51.271-26.822 81.562 1.303 8.782-2.324 17.529-9.466 22.826-24.59 18.241-38.693 46.172-38.693 76.633 0 30.462 14.103 58.393 38.69 76.632 7.142 5.298 10.769 14.044 9.466 22.825-4.496 30.289 5.281 60.017 26.824 81.562 22.207 22.207 52.485 31.139 81.565 26.823 8.912-1.324 17.662 2.508 22.822 9.465 18.241 24.59 46.173 38.693 76.633 38.693s58.392-14.103 76.632-38.693c4.517-6.089 11.738-9.724 19.317-9.724 4.725 0 48.551 9.954 85.07-26.565 21.543-21.544 31.32-51.272 26.824-81.56-1.303-8.782 2.324-17.529 9.465-22.826 24.589-18.239 38.692-46.17 38.692-76.632 0-30.461-14.103-58.392-38.692-76.632zm-23.83 121.138c-19.017 14.107-28.673 37.413-25.2 60.823 2.617 17.631-3.048 34.91-15.543 47.405-22.369 22.371-48.198 14.849-56.785 14.849-20.186 0-39.418 9.68-51.444 25.894-10.618 14.314-26.84 22.523-44.506 22.523s-33.888-8.209-44.505-22.523c-13.636-18.384-36.895-28.759-60.824-25.201-17.177 2.547-34.672-2.808-47.405-15.541-12.495-12.496-18.16-29.774-15.543-47.407 3.473-23.409-6.184-46.714-25.201-60.822-14.313-10.617-22.522-26.839-22.522-44.506s8.209-33.888 22.522-44.506c19.02-14.108 28.677-37.415 25.202-60.825-2.617-17.633 3.047-34.912 15.54-47.405 12.715-12.714 30.202-18.095 47.407-15.542 23.931 3.551 47.189-6.822 60.823-25.201 10.617-14.312 26.839-22.521 44.506-22.521s33.889 8.209 44.506 22.522c13.842 18.659 37.21 28.704 60.824 25.2 17.248-2.56 34.722 2.86 47.404 15.542 12.494 12.494 18.158 29.772 15.541 47.406-3.475 23.41 6.183 46.717 25.202 60.825 14.314 10.617 22.523 26.838 22.523 44.505s-8.209 33.889-22.522 44.506z"/></g></svg>