<svg id="Capa_1" enable-background="new 0 0 512 512" height="512" viewBox="0 0 512 512" width="512" xmlns="http://www.w3.org/2000/svg"><g><path d="m358.787 296h-205.574c-11.046 0-20 8.954-20 20s8.954 20 20 20h82.787v40h-60c-11.046 0-20 8.954-20 20s8.954 20 20 20h160c11.046 0 20-8.954 20-20s-8.954-20-20-20h-60v-40h82.787c11.046 0 20-8.954 20-20s-8.954-20-20-20z"/><path d="m492 216h-396l62.057-82.743c5.668 1.78 11.695 2.743 17.943 2.743 33.084 0 60-26.916 60-60s-26.916-60-60-60-60 26.916-60 60c0 12.283 3.716 23.712 10.075 33.233l-80.075 106.767h-26c-11.046 0-20 8.954-20 20s8.954 20 20 20h19.542l37.581 191.593c5.502 28.049 30.263 48.407 58.877 48.407h240c28.614 0 53.375-20.358 58.877-48.407l37.581-191.593h19.542c11.046 0 20-8.954 20-20s-8.954-20-20-20zm-316-160c11.028 0 20 8.972 20 20s-8.972 20-20 20-20-8.972-20-20 8.972-20 20-20zm219.625 383.894c-1.831 9.332-10.084 16.106-19.625 16.106h-240c-9.541 0-17.794-6.774-19.625-16.106l-36.071-183.894h351.392z"/><path d="m336 16c-33.084 0-60 26.916-60 60s26.916 60 60 60c6.248 0 12.275-.963 17.943-2.743l26.057 34.743c6.626 8.835 19.165 10.626 28 4 8.836-6.627 10.627-19.164 4-28l-26.075-34.767c6.359-9.521 10.075-20.95 10.075-33.233 0-33.084-26.916-60-60-60zm-20 60c0-11.028 8.972-20 20-20s20 8.972 20 20-8.972 20-20 20-20-8.972-20-20z"/></g></svg>