<svg id="Capa_1" enable-background="new 0 0 512 512" height="512" viewBox="0 0 512 512" width="512" xmlns="http://www.w3.org/2000/svg"><g><path d="m216 240h-36c-11.046 0-20 8.954-20 20s8.954 20 20 20h36c11.046 0 20-8.954 20-20s-8.954-20-20-20z"/><path d="m332 240h-36c-11.046 0-20 8.954-20 20s8.954 20 20 20h36c11.046 0 20-8.954 20-20s-8.954-20-20-20z"/><path d="m216 320h-36c-11.046 0-20 8.954-20 20s8.954 20 20 20h36c11.046 0 20-8.954 20-20s-8.954-20-20-20z"/><path d="m332 320h-36c-11.046 0-20 8.954-20 20s8.954 20 20 20h36c11.046 0 20-8.954 20-20s-8.954-20-20-20z"/><path d="m452 280h-20v-60c0-33.084-26.916-60-60-60h-212v-100c0-11.028 8.972-20 20-20h152c11.028 0 20 8.972 20 20v40c0 11.046 8.954 20 20 20s20-8.954 20-20v-40c0-33.084-26.916-60-60-60h-152c-33.084 0-60 26.916-60 60v103.44c-23.278 8.256-40 30.487-40 56.56v60h-20c-33.084 0-60 26.916-60 60v112c0 33.084 26.916 60 60 60h392c33.084 0 60-26.916 60-60v-112c0-33.084-26.916-60-60-60zm-412 172v-112c0-11.028 8.972-20 20-20h20v152h-20c-11.028 0-20-8.972-20-20zm80-232c0-11.028 8.972-20 20-20h232c11.028 0 20 8.972 20 20v252h-116v-52c0-11.046-8.954-20-20-20s-20 8.954-20 20v52h-116zm352 232c0 11.028-8.972 20-20 20h-20v-152h20c11.028 0 20 8.972 20 20z"/><path d="m220 80c-11.046 0-20 8.954-20 20s8.954 20 20 20h72c11.046 0 20-8.954 20-20s-8.954-20-20-20z"/></g></svg>