<svg id="Capa_1" enable-background="new 0 0 512.126 512.126" height="512" viewBox="0 0 512.126 512.126" width="512" xmlns="http://www.w3.org/2000/svg"><g><path d="m256 236.063h20v20c0 11.046 8.954 20 20 20s20-8.954 20-20v-20h20c11.046 0 20-8.954 20-20s-8.954-20-20-20h-20v-20c0-11.046-8.954-20-20-20s-20 8.954-20 20v20h-20c-11.046 0-20 8.954-20 20s8.954 20 20 20z"/><path d="m452 80.063h-312c-12 0-23.403 3.529-33.084 9.993l-6.875-27.5c-9.199-36.795-42.113-62.493-80.041-62.493-11.046 0-20 8.954-20 20s8.954 20 20 20c19.539 0 36.496 13.239 41.234 32.195l60.598 234.389c.653 2.588 1.47 5.097 2.432 7.524-25.473 6.932-44.264 30.253-44.264 57.892 0 33.084 26.916 60 60 60h19.44c-2.22 6.26-3.44 12.989-3.44 20 0 33.084 26.916 60 60 60s60-26.916 60-60c0-7.011-1.22-13.74-3.44-20h46.881c-2.22 6.26-3.44 12.989-3.44 20 0 33.084 26.916 60 60 60s60-26.916 60-60c0-7.011-1.22-13.74-3.44-20h23.439c11.046 0 20-8.954 20-20s-8.954-20-20-20h-316c-11.028 0-20-8.972-20-20s8.972-20 20-20h192c11.046 0 20-8.954 20-20s-8.954-20-20-20h-152c-9.321 0-17.115-6.129-19.396-15.25-.021-.08-40.136-152.513-40.174-152.649-1.458-5.099-.121-11.07 3.578-15.975 2.288-3.035 7.409-8.126 15.991-8.126h312c8.582 0 13.703 5.091 15.991 8.126 3.699 4.905 5.036 10.876 3.578 15.975-.038.136-40.153 152.569-40.174 152.649-2.28 9.122-10.074 15.25-19.396 15.25-11.046 0-20 8.954-20 20s8.954 20 20 20c27.52 0 51.419-18.668 58.168-45.416l39.925-151.713c4.791-17.041 1-36.025-10.164-50.829-11.521-15.279-28.989-24.042-47.927-24.042zm-216 372c0 11.028-8.972 20-20 20s-20-8.972-20-20 8.972-20 20-20 20 8.972 20 20zm160 0c0 11.028-8.972 20-20 20s-20-8.972-20-20 8.972-20 20-20 20 8.972 20 20z"/></g></svg>