<svg id="Capa_1" enable-background="new 0 0 512 512" height="512" viewBox="0 0 512 512" width="512" xmlns="http://www.w3.org/2000/svg"><g><path d="m236 116.56v135.44c0 11.046 8.954 20 20 20s20-8.954 20-20v-135.44c23.278-8.256 40-30.487 40-56.56 0-33.084-26.916-60-60-60s-60 26.916-60 60c0 26.073 16.722 48.303 40 56.56zm20-76.56c11.028 0 20 8.972 20 20s-8.972 20-20 20-20-8.972-20-20 8.972-20 20-20z"/><path d="m452 232h-116c-11.046 0-20 8.954-20 20s8.954 20 20 20h116c11.028 0 20 8.972 20 20s-8.972 20-20 20h-392c-11.028 0-20-8.972-20-20s8.972-20 20-20h116c11.046 0 20-8.954 20-20s-8.954-20-20-20h-116c-33.084 0-60 26.916-60 60 0 27.48 18.577 50.688 43.826 57.767l29.196 116.785c6.69 26.76 30.626 45.448 58.209 45.448h249.538c27.583 0 51.52-18.689 58.209-45.448l29.196-116.785c25.249-7.079 43.826-30.287 43.826-57.767 0-33.084-26.916-60-60-60zm-35.616 160h-80.384v-40h90.385zm-200.384 0v-40h80v40zm80 40v40h-80v-40zm-210.385-80h90.385v40h-80.385zm26.213 104.851-6.213-24.851h70.385v40h-44.769c-9.194 0-17.173-6.229-19.403-15.149zm268.941 15.149h-44.769v-40h70.384l-6.213 24.852c-2.23 8.919-10.208 15.148-19.402 15.148z"/></g></svg>