<svg id="Capa_1" enable-background="new 0 0 512 512" height="512" viewBox="0 0 512 512" width="512" xmlns="http://www.w3.org/2000/svg"><g id="Shopping_Basket"><path d="m452 232h-42.629l59.271-88.906c6.127-9.191 3.644-21.608-5.547-27.735s-21.608-3.643-27.735 5.547l-74.064 111.094h-210.592l-74.063-111.094c-6.127-9.19-18.544-11.675-27.735-5.547-9.19 6.127-11.674 18.544-5.547 27.735l59.27 88.906h-42.629c-33.084 0-60 26.916-60 60 0 27.809 19.02 51.254 44.732 58.025l38.064 120.114c7.935 25.038 30.923 41.861 57.204 41.861h232c26.281 0 49.269-16.823 57.204-41.861l16.51-52.097c3.337-10.53-2.494-21.771-13.023-25.107-10.529-3.337-21.771 2.494-25.107 13.023l-16.51 52.097c-2.645 8.341-10.309 13.945-19.074 13.945h-232c-8.765 0-16.429-5.604-19.073-13.945l-33.609-106.055h364.682c33.084 0 60-26.916 60-60s-26.916-60-60-60zm0 80h-391.974c-.044 0-.088-.006-.132-.005-10.979-.058-19.894-9.003-19.894-19.995 0-11.028 8.972-20 20-20h392c11.028 0 20 8.972 20 20s-8.972 20-20 20z"/><g><path d="m316 192c-33.084 0-60-26.916-60-60s26.916-60 60-60 60 26.916 60 60-26.916 60-60 60zm0-80c-11.028 0-20 8.972-20 20s8.972 20 20 20 20-8.972 20-20-8.972-20-20-20z"/></g><g><path d="m176 120c-33.084 0-60-26.916-60-60s26.916-60 60-60 60 26.916 60 60-26.916 60-60 60zm0-80c-11.028 0-20 8.972-20 20s8.972 20 20 20 20-8.972 20-20-8.972-20-20-20z"/></g></g></svg>