<svg id="Capa_1" enable-background="new 0 0 512 512" height="512" viewBox="0 0 512 512" width="512" xmlns="http://www.w3.org/2000/svg"><g><path d="m212 392c-33.084 0-60 26.916-60 60s26.916 60 60 60 60-26.916 60-60-26.916-60-60-60zm0 80c-11.028 0-20-8.972-20-20s8.972-20 20-20 20 8.972 20 20-8.972 20-20 20z"/><path d="m412 392c-33.084 0-60 26.916-60 60s26.916 60 60 60 60-26.916 60-60-26.916-60-60-60zm0 80c-11.028 0-20-8.972-20-20s8.972-20 20-20 20 8.972 20 20-8.972 20-20 20z"/><path d="m452 80h-300v-20c0-33.084-26.916-60-60-60h-72c-11.046 0-20 8.954-20 20s8.954 20 20 20h72c11.028 0 20 8.972 20 20v232c0 33.084 26.916 60 60 60h240c55.141 0 100-44.86 100-100v-112c0-33.084-26.916-60-60-60zm20 172c0 33.084-26.916 60-60 60h-240c-11.028 0-20-8.972-20-20v-172h300c11.028 0 20 8.972 20 20z"/><path d="m232 160c-11.046 0-20 8.954-20 20v72c0 11.046 8.954 20 20 20s20-8.954 20-20v-72c0-11.046-8.954-20-20-20z"/><path d="m312 160c-11.046 0-20 8.954-20 20v72c0 11.046 8.954 20 20 20s20-8.954 20-20v-72c0-11.046-8.954-20-20-20z"/><path d="m392 160c-11.046 0-20 8.954-20 20v72c0 11.046 8.954 20 20 20s20-8.954 20-20v-72c0-11.046-8.954-20-20-20z"/></g></svg>