<svg id="Capa_1" enable-background="new 0 0 512 512" height="512" viewBox="0 0 512 512" width="512" xmlns="http://www.w3.org/2000/svg"><g id="Sport_Bag"><g><path d="m412 200h-312c-55.141 0-100 44.86-100 100v132c0 44.112 35.888 80 80 80h352c44.112 0 80-35.888 80-80v-132c0-55.14-44.859-100-100-100zm60 232c0 22.056-17.944 40-40 40h-352c-22.056 0-40-17.944-40-40v-132c0-33.084 26.916-60 60-60h292v112c0 22.056-17.944 40-40 40h-192c-22.056 0-40-17.944-40-40v-52c0-11.046-8.954-20-20-20s-20 8.954-20 20v52c0 44.112 35.888 80 80 80h192c44.112 0 80-35.888 80-80v-108.56c23.278 8.256 40 30.487 40 56.56z"/><path d="m96.056 159.369c10.7 2.757 21.602-3.687 24.354-14.383 15.909-61.815 71.666-104.986 135.59-104.986s119.681 43.171 135.59 104.985c2.754 10.698 13.656 17.136 24.354 14.383 10.697-2.753 17.137-13.657 14.384-24.354-20.461-79.494-92.147-135.014-174.328-135.014s-153.867 55.52-174.328 135.015c-2.753 10.697 3.686 21.601 14.384 24.354z"/></g><path d="m332 280h-152c-11.046 0-20 8.954-20 20s8.954 20 20 20h92v20c0 11.046 8.954 20 20 20s20-8.954 20-20v-20h20c11.046 0 20-8.954 20-20s-8.954-20-20-20z"/></g></svg>