<svg id="Capa_1" enable-background="new 0 0 512 512" height="512" viewBox="0 0 512 512" width="512" xmlns="http://www.w3.org/2000/svg"><g id="Store"><g><path d="m492 242.478c-11.046 0-20 8.954-20 20v173.522c0 11.028-8.972 20-20 20h-100v-120c0-44.112-35.888-80-80-80h-32c-44.112 0-80 35.888-80 80v120h-100c-11.028 0-20-8.972-20-20v-173.522c0-11.046-8.954-20-20-20s-20 8.954-20 20v173.522c0 33.084 26.916 60 60 60h392c33.084 0 60-26.916 60-60v-173.522c0-11.046-8.954-20-20-20zm-292 93.522c0-22.056 17.944-40 40-40h32c22.056 0 40 17.944 40 40v120h-112z"/><path d="m432 16h-352c-44.112 0-80 35.888-80 80v40c0 44.25 31.819 80 76 80 23.877 0 45.329-10.528 60-27.169 14.671 16.641 36.123 27.169 60 27.169s45.329-10.528 60-27.169c14.671 16.641 36.123 27.169 60 27.169s45.329-10.528 60-27.169c14.671 16.641 36.123 27.169 60 27.169 44.214 0 76-35.786 76-80v-40c0-44.112-35.888-80-80-80zm40 120c0 19.877-12.366 40-36 40-22.056 0-40-17.944-40-40 0-11.046-8.954-20-20-20s-20 8.954-20 20c0 22.056-17.944 40-40 40s-40-17.944-40-40c0-11.046-8.954-20-20-20s-20 8.954-20 20c0 22.056-17.944 40-40 40s-40-17.944-40-40c0-11.046-8.954-20-20-20s-20 8.954-20 20c0 22.056-17.944 40-40 40-23.634 0-36-20.123-36-40v-40c0-22.056 17.944-40 40-40h352c22.056 0 40 17.944 40 40z"/></g><g><path d="m100 376c-11.046 0-20-8.954-20-20v-40c0-11.046 8.954-20 20-20s20 8.954 20 20v40c0 11.046-8.954 20-20 20z"/></g><g><path d="m412 376c-11.046 0-20-8.954-20-20v-40c0-11.046 8.954-20 20-20s20 8.954 20 20v40c0 11.046-8.954 20-20 20z"/></g></g></svg>