<svg id="Capa_1" enable-background="new 0 0 512 512" height="512" viewBox="0 0 512 512" width="512" xmlns="http://www.w3.org/2000/svg"><g><path d="m354.994 80.963c7.81 7.81 20.475 7.81 28.285 0 7.81-7.811 7.81-20.474 0-28.284-70.184-70.182-184.375-70.182-254.559 0-7.81 7.811-7.81 20.474 0 28.284 7.811 7.811 20.475 7.811 28.285 0 54.585-54.586 143.405-54.586 197.989 0z"/><path d="m326.711 137.532c7.811-7.811 7.811-20.474 0-28.284-38.99-38.99-102.432-38.99-141.422 0-7.811 7.811-7.811 20.474 0 28.284s20.475 7.811 28.285 0c23.393-23.394 61.459-23.394 84.852 0 7.81 7.81 20.474 7.81 28.285 0z"/><circle cx="256" cy="179.958" r="20"/><path d="m452 119.958h-61.169c-11.046 0-20 8.954-20 20s8.954 20 20 20h61.169c11.028 0 20 8.972 20 20v76c0 11.028-8.972 20-20 20s-20-8.972-20-20c0-11.046-8.954-20-20-20s-20 8.954-20 20c0 9.226-4.19 20-16 20-11.028 0-20-8.972-20-20 0-11.046-8.954-20-20-20s-20 8.954-20 20c0 11.028-8.972 20-20 20s-20-8.972-20-20c0-11.046-8.954-20-20-20s-20 8.954-20 20c0 11.028-8.972 20-20 20s-20-8.972-20-20c0-11.046-8.954-20-20-20s-20 8.954-20 20c0 11.028-8.972 20-20 20s-20-8.972-20-20c0-11.046-8.954-20-20-20s-20 8.954-20 20c0 9.226-4.19 20-16 20-11.028 0-20-8.972-20-20v-76c0-11.028 8.972-20 20-20h61.142c11.046 0 20-8.954 20-20s-8.954-20-20-20h-61.142c-33.084 0-60 26.916-60 60v76c0 26.073 16.722 48.304 40 56.56v139.44c0 33.084 26.916 60 60 60h312c33.084 0 60-26.916 60-60v-139.44c23.278-8.256 40-30.487 40-56.56v-76c0-33.084-26.916-60-60-60zm-156 352h-80v-56c0-11.028 8.972-20 20-20h40c11.028 0 20 8.972 20 20zm116 0h-76v-56c0-33.084-26.916-60-60-60h-40c-33.084 0-60 26.916-60 60v56h-76c-11.028 0-20-8.972-20-20v-56h56c11.046 0 20-8.954 20-20s-8.954-20-20-20h-56v-43.661c6.386-2.46 12.163-6.085 17.122-10.673 10.479 8.934 24.061 14.334 38.878 14.334 15.353 0 29.377-5.796 40-15.315 10.623 9.519 24.647 15.315 40 15.315s29.377-5.796 40-15.315c10.623 9.519 24.647 15.315 40 15.315s29.377-5.796 40-15.315c10.623 9.519 24.647 15.315 40 15.315 14.499 0 27.381-5.322 37.122-14.334 5.52 4.707 11.908 8.419 18.878 10.892v43.442h-56c-11.046 0-20 8.954-20 20s8.954 20 20 20h56v56c0 11.027-8.972 20-20 20z"/></g></svg>