<svg id="Capa_1" enable-background="new 0 0 512 512" height="512" viewBox="0 0 512 512" width="512" xmlns="http://www.w3.org/2000/svg"><g><path d="m416 0h-320c-11.046 0-20 8.954-20 20s8.954 20 20 20h320c11.046 0 20-8.954 20-20s-8.954-20-20-20z"/><path d="m452 80h-392c-33.084 0-60 26.916-60 60v40c0 26.073 16.722 48.303 40 56.56v235.44h-20c-11.046 0-20 8.954-20 20s8.954 20 20 20h472c11.046 0 20-8.954 20-20s-8.954-20-20-20h-96v-132c0-33.084-26.916-60-60-60h-160c-33.084 0-60 26.916-60 60v132h-36v-235.661c6.386-2.46 12.163-6.085 17.122-10.673 10.479 8.934 24.061 14.334 38.878 14.334 15.353 0 29.377-5.796 40-15.315 10.623 9.519 24.647 15.315 40 15.315s29.377-5.796 40-15.315c10.623 9.519 24.647 15.315 40 15.315s29.377-5.796 40-15.315c10.623 9.519 24.647 15.315 40 15.315 14.817 0 28.399-5.4 38.878-14.334 4.959 4.588 10.736 8.213 17.122 10.673v175.661c0 11.046 8.954 20 20 20s20-8.954 20-20v-175.44c23.278-8.256 40-30.487 40-56.56v-40c0-33.084-26.916-60-60-60zm-96 260v132h-80v-152h60c11.028 0 20 8.972 20 20zm-200 0c0-11.028 8.972-20 20-20h60v152h-80zm316-160c0 11.028-8.972 20-20 20-11.81 0-16-10.774-16-20 0-11.046-8.954-20-20-20s-20 8.954-20 20c0 11.028-8.972 20-20 20s-20-8.972-20-20c0-11.046-8.954-20-20-20s-20 8.954-20 20c0 11.028-8.972 20-20 20s-20-8.972-20-20c0-11.046-8.954-20-20-20s-20 8.954-20 20c0 11.028-8.972 20-20 20s-20-8.972-20-20c0-11.046-8.954-20-20-20s-20 8.954-20 20c0 11.028-8.972 20-20 20s-20-8.972-20-20c0-11.046-8.954-20-20-20s-20 8.954-20 20c0 9.226-4.19 20-16 20-11.028 0-20-8.972-20-20v-40c0-11.028 8.972-20 20-20h392c11.028 0 20 8.972 20 20z"/></g></svg>