<svg id="Capa_1" enable-background="new 0 0 512 512" height="512" viewBox="0 0 512 512" width="512" xmlns="http://www.w3.org/2000/svg"><g><path d="m376 316h-40c-11.046 0-20 8.954-20 20s8.954 20 20 20h40c11.046 0 20-8.954 20-20s-8.954-20-20-20z"/><path d="m452 396c11.046 0 20-8.954 20-20v-149.007c7.124-3.877 13.618-8.938 19.234-15.123 13.391-14.749 20.766-34.591 20.766-55.87 0-11.669-2.461-22.925-7.315-33.456l-18.444-40.024c-13.021-28.26-41.541-46.52-72.657-46.52h-315.168c-31.116 0-59.636 18.26-72.657 46.52l-18.444 40.024c-4.854 10.531-7.315 21.787-7.315 33.456 0 21.279 7.375 41.121 20.766 55.87 5.616 6.186 12.11 11.246 19.234 15.123v209.007h-20c-11.046 0-20 8.954-20 20s8.954 20 20 20h472c11.046 0 20-8.954 20-20s-8.954-20-20-20h-212v-100c0-33.084-26.916-60-60-60h-40c-33.084 0-60 26.916-60 60v100h-40v-200.104c22.258-1.102 42.154-11.34 56-27.036 14.67 16.632 36.132 27.14 60 27.14s45.33-10.508 60-27.139c14.67 16.631 36.132 27.139 60 27.139s45.33-10.508 60-27.139c13.846 15.696 33.742 25.934 56 27.036v140.103c0 11.046 8.954 20 20 20zm-292-60c0-11.028 8.972-20 20-20h40c11.028 0 20 8.972 20 20v100h-80zm236-180c0-11.046-8.954-20-20-20s-20 8.954-20 20c0 22.056-17.944 40-40 40s-40-17.944-40-40c0-11.046-8.954-20-20-20s-20 8.954-20 20c0 22.056-17.944 40-40 40s-40-17.944-40-40c0-11.046-8.954-20-20-20s-20 8.954-20 20c0 22.056-17.944 40-40 40-8.465 0-36-6.065-36-40 0-5.846 1.225-11.468 3.643-16.713l18.444-40.027c6.511-14.13 20.771-23.26 36.329-23.26h315.168c15.558 0 29.818 9.13 36.329 23.26l18.444 40.027c0 .001.001.001.001.002 2.417 5.243 3.642 10.865 3.642 16.711 0 33.935-27.535 40-36 40-22.056 0-40-17.944-40-40z"/></g></svg>