<svg id="Capa_1" enable-background="new 0 0 512 512" height="512" viewBox="0 0 512 512" width="512" xmlns="http://www.w3.org/2000/svg"><g><path d="m416 352h-40c-11.028 0-20-8.972-20-20s8.972-20 20-20h40c5.343 0 10.364 2.08 14.142 5.857 7.811 7.812 20.474 7.812 28.284.001 7.811-7.81 7.812-20.474.001-28.284-11.332-11.333-26.4-17.574-42.427-17.574v-20c0-11.046-8.954-20-20-20s-20 8.954-20 20v20c-33.084 0-60 26.916-60 60s26.916 60 60 60h40c11.028 0 20 8.972 20 20s-8.972 20-20 20h-40c-5.343 0-10.364-2.08-14.142-5.857-7.81-7.81-20.473-7.811-28.284-.001s-7.812 20.474-.001 28.284c11.332 11.333 26.4 17.574 42.427 17.574v20c0 11.046 8.954 20 20 20s20-8.954 20-20v-20c33.084 0 60-26.916 60-60s-26.916-60-60-60z"/><path d="m196 100v71.716l-50.688 50.688c-7.811 7.811-7.81 20.474.001 28.284 3.905 3.905 9.023 5.858 14.142 5.858s10.237-1.953 14.143-5.858l56.545-56.545c3.75-3.751 5.857-8.838 5.857-14.142v-80c0-11.046-8.954-20-20-20s-20 8.953-20 19.999z"/><path d="m216 0c-99.252 0-180 80.748-180 180s80.748 180 180 180c15.271 0 30.446-1.919 45.105-5.703 10.695-2.761 17.127-13.669 14.366-24.364s-13.672-17.125-24.364-14.366c-11.395 2.941-23.208 4.433-35.107 4.433-77.196 0-140-62.804-140-140s62.804-140 140-140 140 62.804 140 140c0 .751-.006 1.501-.018 2.25-.165 11.044 8.654 20.132 19.698 20.297.103.002.203.002.306.002 10.905-.001 19.828-8.759 19.992-19.701.014-.948.021-1.897.021-2.849.001-99.251-80.747-179.999-179.999-179.999z"/></g></svg>