<svg id="Capa_1" enable-background="new 0 0 512 512" height="512" viewBox="0 0 512 512" width="512" xmlns="http://www.w3.org/2000/svg"><g><path d="m296 280h-80c-11.046 0-20 8.954-20 20s8.954 20 20 20h80c11.046 0 20-8.954 20-20s-8.954-20-20-20z"/><path d="m416 160h-63.511c-3.968-33.082-11.219-63.519-21.351-88.849-18.353-45.882-45.037-71.151-75.138-71.151s-56.785 25.269-75.138 71.151c-10.132 25.33-17.383 55.768-21.351 88.849h-63.511c-33.084 0-60 26.916-60 60v192c0 55.14 44.86 100 100 100h240c55.14 0 100-44.86 100-100v-192c0-33.084-26.916-60-60-60zm20 252c0 33.084-26.916 60-60 60h-240c-33.084 0-60-26.916-60-60v-192c0-11.028 8.972-20 20-20h60.383c-.252 6.612-.383 13.283-.383 20 0 11.046 8.954 20 20 20s20-8.954 20-20c0-6.733.141-13.405.41-20h59.59c11.046 0 20-8.954 20-20s-8.954-20-20-20h-56.205c3.631-27.703 9.799-52.976 18.206-73.994 11.179-27.947 26.095-46.006 37.999-46.006s26.82 18.059 37.999 46.006c10.557 26.393 17.582 59.499 20.487 95.699.014.167.024.335.042.501.973 12.291 1.472 24.935 1.472 37.794 0 11.046 8.954 20 20 20s20-8.954 20-20c0-6.717-.131-13.388-.383-20h60.383c11.028 0 20 8.972 20 20z"/></g></svg>