<svg id="Capa_1" enable-background="new 0 0 512 512" height="512" viewBox="0 0 512 512" width="512" xmlns="http://www.w3.org/2000/svg"><g><path d="m216 432h80c33.084 0 60-26.916 60-60v-80c0-11.046-8.954-20-20-20h-160c-11.046 0-20 8.954-20 20v80c0 33.084 26.916 60 60 60zm-20-120h120v60c0 11.028-8.972 20-20 20h-80c-11.028 0-20-8.972-20-20z"/><path d="m452 272h-16v-212c0-33.084-26.916-60-60-60s-60 26.916-60 60v22.296c-18.776-6.659-38.97-10.296-60-10.296s-41.224 3.637-60 10.296v-22.296c0-33.084-26.916-60-60-60s-60 26.916-60 60v212h-16c-33.084 0-60 26.916-60 60v80c0 33.084 26.916 60 60 60h19.44c8.256 23.278 30.487 40 56.56 40h240c26.073 0 48.303-16.722 56.56-40h19.44c33.084 0 60-26.916 60-60v-80c0-33.084-26.916-60-60-60zm-96-212c0-11.028 8.972-20 20-20s20 8.972 20 20v79.002c-11.408-14.107-24.896-26.464-40-36.595zm-240 0c0-11.028 8.972-20 20-20s20 8.972 20 20v42.408c-15.104 10.13-28.592 22.488-40 36.595zm-76 352v-80c0-11.028 8.972-20 20-20h16v120h-16c-11.028 0-20-8.972-20-20zm432 0c0 11.028-8.972 20-20 20h-16v-60c0-11.046-8.954-20-20-20s-20 8.954-20 20v80c0 11.028-8.972 20-20 20h-240c-11.028 0-20-8.972-20-20v-200c0-77.196 62.804-140 140-140s140 62.804 140 140v40c0 11.046 8.954 20 20 20h36c11.028 0 20 8.972 20 20z"/><path d="m336 192h-160c-11.046 0-20 8.954-20 20s8.954 20 20 20h160c11.046 0 20-8.954 20-20s-8.954-20-20-20z"/></g></svg>