<svg id="Capa_1" enable-background="new 0 0 512 512" height="512" viewBox="0 0 512 512" width="512" xmlns="http://www.w3.org/2000/svg"><g id="Viral_Marketing"><g><path d="m392 200c-30.062 0-59.879-11.723-83.957-33.01-22.569-19.952-36.043-44.995-36.043-66.99s13.474-47.038 36.043-66.99c24.078-21.287 53.895-33.01 83.957-33.01s59.879 11.723 83.957 33.01c22.569 19.952 36.043 44.995 36.043 66.99s-13.474 47.038-36.043 66.99c-24.078 21.287-53.895 33.01-83.957 33.01zm0-160c-20.001 0-40.945 8.375-57.464 22.979-15.484 13.688-22.536 28.786-22.536 37.021s7.052 23.333 22.536 37.021c16.519 14.604 37.463 22.979 57.464 22.979s40.945-8.375 57.464-22.979c15.484-13.688 22.536-28.786 22.536-37.021s-7.052-23.333-22.536-37.021c-16.519-14.604-37.463-22.979-57.464-22.979z"/></g><g><circle cx="392" cy="100" r="20"/></g><g><path d="m452 392c-13.475 0-25.925 4.467-35.952 11.995l-25.885-17.257c1.196-4.717 1.837-9.654 1.837-14.738s-.641-10.021-1.837-14.739l25.885-17.257c10.027 7.529 22.477 11.996 35.952 11.996 33.084 0 60-26.916 60-60s-26.916-60-60-60-60 26.916-60 60c0 5.084.641 10.021 1.837 14.739l-25.885 17.257c-10.027-7.529-22.477-11.996-35.952-11.996-33.084 0-60 26.916-60 60s26.916 60 60 60c13.475 0 25.925-4.467 35.952-11.995l25.885 17.257c-1.196 4.717-1.837 9.654-1.837 14.738 0 33.084 26.916 60 60 60s60-26.916 60-60-26.916-60-60-60zm0-120c11.028 0 20 8.972 20 20s-8.972 20-20 20-20-8.972-20-20 8.972-20 20-20zm-140 100c0-11.028 8.972-20 20-20s20 8.972 20 20-8.972 20-20 20-20-8.972-20-20zm140 100c-11.028 0-20-8.972-20-20s8.972-20 20-20 20 8.972 20 20-8.972 20-20 20z"/><path d="m152 336c22.056 0 40 17.944 40 40 0 11.046 8.954 20 20 20s20-8.954 20-20v-100h20c11.046 0 20-8.954 20-20s-8.954-20-20-20h-20v-100c0-11.046-8.954-20-20-20s-20 8.954-20 20c0 22.056-17.944 40-40 40h-72c-44.112 0-80 35.888-80 80s35.888 80 80 80v80c0 11.046 8.954 20 20 20s20-8.954 20-20v-80zm-112-80c0-22.056 17.944-40 40-40h72c14.561 0 28.227-3.911 40-10.736v101.473c-11.773-6.826-25.439-10.737-40-10.737h-72c-22.056 0-40-17.944-40-40z"/><path d="m172 80c11.046 0 20-8.954 20-20 0-11.028 8.972-20 20-20h40c11.046 0 20-8.954 20-20s-8.954-20-20-20h-40c-33.084 0-60 26.916-60 60 0 11.046 8.954 20 20 20z"/><path d="m252 472h-40c-11.028 0-20-8.972-20-20 0-11.046-8.954-20-20-20s-20 8.954-20 20c0 33.084 26.916 60 60 60h40c11.046 0 20-8.954 20-20s-8.954-20-20-20z"/></g></g></svg>