<svg id="Capa_1" enable-background="new 0 0 512 512" height="512" viewBox="0 0 512 512" width="512" xmlns="http://www.w3.org/2000/svg"><g><path d="m100 296c11.046 0 20-8.954 20-20v-40c0-11.046-8.954-20-20-20s-20 8.954-20 20v40c0 11.046 8.954 20 20 20z"/><path d="m100 416c11.046 0 20-8.954 20-20v-40c0-11.046-8.954-20-20-20s-20 8.954-20 20v40c0 11.046 8.954 20 20 20z"/><path d="m452 236h-60c-44.112 0-80 35.888-80 80s35.888 80 80 80h40v40c0 11.028-8.972 20-20 20h-352c-11.028 0-20-8.972-20-20v-263.427c6.258 2.219 12.991 3.427 20 3.427h352c7.072 0 13.708 3.854 17.317 10.057 5.554 9.548 17.796 12.784 27.345 7.23 9.547-5.555 12.784-17.797 7.229-27.345-7.258-12.475-18.687-21.751-31.892-26.463v-23.479c0-33.084-26.916-60-60-60h-93.525l-17.592-19.819c-11.383-12.826-27.742-20.181-44.882-20.181s-33.499 7.355-44.883 20.181l-17.592 19.819h-93.525c-33.084 0-60 26.916-60 60v320c0 33.084 26.916 60 60 60h352c33.084 0 60-26.916 60-60v-43.44c23.278-8.256 40-30.487 40-56.56v-40c0-33.084-26.916-60-60-60zm-80-140c11.028 0 20 8.972 20 20v20h-42.515l-35.505-40zm-156-40c5.713 0 11.169 2.454 14.968 6.734l65.032 73.266h-160l65.033-73.266c3.798-4.28 9.254-6.734 14.967-6.734zm-156 40h58.02l-35.505 40h-22.515c-11.028 0-20-8.972-20-20s8.972-20 20-20zm412 240c0 11.028-8.972 20-20 20h-60c-22.056 0-40-17.944-40-40s17.944-40 40-40h60c11.028 0 20 8.972 20 20z"/></g></svg>