<svg id="Capa_1" enable-background="new 0 0 512.317 512.317" height="512" viewBox="0 0 512.317 512.317" width="512" xmlns="http://www.w3.org/2000/svg"><g id="Wallet"><g><path d="m316.586 512.316c-9.435 0-81.741-.233-92.001-.152-80.263.632-149.583 1.173-190.322-39.248-22.949-22.77-34.105-55.78-34.105-100.916 0-16.514 1.561-33.045 4.64-49.134 2.076-10.849 12.557-17.96 23.402-15.885 10.849 2.076 17.961 12.553 15.885 23.402-2.605 13.617-3.927 27.619-3.927 41.616 0 33.925 7.287 57.647 22.278 72.521 28.913 28.687 90.51 28.205 161.836 27.644 10.337-.081 53.436-.081 63.772 0 71.325.56 132.923 1.042 161.836-27.644 14.991-14.874 22.278-38.595 22.278-72.521 0-14.153-1.351-28.307-4.014-42.069-2.099-10.844 4.991-21.337 15.835-23.436 10.845-2.097 21.337 4.991 23.436 15.835 3.147 16.261 4.743 32.972 4.743 49.67 0 45.136-11.156 78.146-34.105 100.915-35.768 35.491-93.571 39.402-161.467 39.402z"/></g><path d="m501.33 185.62-.103-.149c-4.759-6.914-18.555-25.076-43.801-44.343-31.065-23.708-67.853-40.731-109.565-50.736 5.264-8.92 8.298-19.306 8.298-30.392 0-33.084-26.916-60-60-60-15.355 0-29.376 5.805-40 15.327-10.624-9.522-24.645-15.327-40.001-15.327-33.084 0-60 26.916-60 60 0 11.086 3.034 21.472 8.298 30.392-41.711 10.005-78.5 27.028-109.565 50.736-25.247 19.267-39.042 37.429-43.801 44.343l-.097.141c-18.959 27.123-12.331 64.604 14.782 83.557 27.156 18.971 64.544 12.415 83.52-14.738.001-.001.001-.002.002-.003.092-.131 9.492-13.252 31.432-26.45 21.216-12.764 58.465-27.978 115.429-27.978 104.084 0 142.887 48.994 146.969 54.58l.014.019c18.99 26.908 56.306 33.544 83.406 14.566 27.107-18.949 33.736-56.431 14.783-83.545zm-205.172-145.62c11.028 0 20 8.972 20 20s-8.972 20-20 20-20-8.972-20-20 8.972-20 20-20zm-80 0c11.028 0 20 8.972 20 20s-8.972 20-20 20-20-8.972-20-20 8.972-20 20-20zm247.458 196.391c-8.142 5.702-20.236 5.236-28.191-5.409-8.661-11.853-58.007-70.982-179.267-70.982-125.504 0-174.334 63.983-179.544 71.365-6.763 9.599-19.21 11.106-27.927 5.016-9.056-6.33-11.244-18.792-4.914-27.848 23.365-33.756 74.418-69.438 146.433-82.725l36.885-6.806c.111-.021.216-.055.327-.078 10.909-2.081 20.779-7.117 28.74-14.252 7.96 7.135 17.831 12.171 28.74 14.252.111.022.216.057.327.078l36.885 6.806c72.118 13.307 123.128 49.051 146.429 82.72 6.321 9.043 4.173 21.505-4.923 27.863z"/></g></svg>