<svg id="Capa_1" enable-background="new 0 0 512.033 512.033" height="512" viewBox="0 0 512.033 512.033" width="512" xmlns="http://www.w3.org/2000/svg"><g id="Aeroplane"><g><path d="m426.686 217.51 48.934-40.346c2.461-2.032 4.858-4.211 7.123-6.477 18.888-18.887 29.29-44 29.29-70.711s-10.402-51.823-29.29-70.711c-38.988-38.989-102.43-38.99-141.422.001-2.271 2.271-4.45 4.669-6.483 7.133l-246.584 299.07h-28.282c-16.027 0-31.095 6.241-42.428 17.574-23.393 23.394-23.393 61.458.001 84.853l56.568 56.568c11.697 11.697 27.062 17.545 42.427 17.545s30.729-5.848 42.427-17.545c11.332-11.333 17.573-26.4 17.573-42.427v-28.283l110.789-91.345 116.636 155.654c11.153 14.833 28.689 23.947 47.986 23.946 15.363-.001 30.73-5.85 42.426-17.545 16.793-16.792 22.104-41.956 13.564-64.018zm-282.868 181.382c-4.608 3.799-7.277 9.459-7.277 15.431v37.714c0 5.342-2.08 10.365-5.858 14.142-7.797 7.797-20.485 7.799-28.284 0l-56.568-56.568c-7.798-7.798-7.798-20.487 0-28.284 3.777-3.777 8.8-5.858 14.143-5.858h37.714c5.973 0 11.632-2.669 15.432-7.277l252.576-306.341c1.221-1.48 2.537-2.927 3.911-4.301 23.393-23.394 61.458-23.394 84.853 0 11.332 11.333 17.573 26.4 17.573 42.427s-6.241 31.094-17.574 42.427c-1.371 1.371-2.818 2.687-4.294 3.905zm322.275 67.287c-8.586 8.587-22.841 7.581-30.137-2.127l-117.732-157.116 75.895-62.575 76.486 200.434c2.86 7.39 1.09 15.784-4.512 21.384z"/><path d="m23.988 108.076 108.244 80.926c8.847 6.614 21.38 4.804 27.994-4.043 6.613-8.847 4.804-21.38-4.043-27.994l-108.198-80.891c-.751-.565-1.479-1.198-2.155-1.874-7.798-7.798-7.798-20.487-.001-28.285 5.602-5.601 13.996-7.371 21.387-4.511.045.017.09.034.135.052l147.614 55.904c10.333 3.914 21.875-1.291 25.786-11.62 3.912-10.33-1.29-21.875-11.62-25.787l-147.553-55.881c-22.135-8.533-47.26-3.214-64.034 13.559-23.392 23.394-23.392 61.459.006 84.858 2 1.999 4.151 3.867 6.438 5.587z"/></g><g><path d="m15.544 270.189c-7.811-7.811-7.81-20.474.001-28.284l39.428-39.427c7.81-7.81 20.473-7.811 28.284 0s7.81 20.474-.001 28.284l-39.428 39.427c-7.808 7.81-20.471 7.812-28.284 0z"/></g><g><path d="m241.819 496.464c-7.81-7.811-7.81-20.474 0-28.284l39.426-39.426c7.811-7.811 20.475-7.811 28.285 0s7.81 20.474 0 28.284l-39.426 39.426c-7.811 7.81-20.475 7.81-28.285 0z"/></g></g></svg>