<svg id="Capa_1" enable-background="new 0 0 512 512" height="512" viewBox="0 0 512 512" width="512" xmlns="http://www.w3.org/2000/svg"><g id="Bus"><g><path d="m180 302.854h-80c-11.046 0-20-8.954-20-20v-86.854c0-33.084 26.916-60 60-60s60 26.916 60 60v86.854c0 5.304-2.107 10.391-5.857 14.142-3.751 3.75-8.839 5.858-14.143 5.858zm-60-40.001h40v-66.853c0-11.028-8.972-20-20-20s-20 8.972-20 20z"/></g><path d="m504.119 226.26-80-140c-10.666-18.665-30.637-30.26-52.118-30.26h-312.001c-33.084 0-60 26.916-60 60v240c0 33.084 26.916 60 60 60h23.44c8.256 23.278 30.487 40 56.56 40s48.303-16.722 56.56-40h55.44c11.046 0 20-8.954 20-20s-8.954-20-20-20h-55.44c-8.256-23.278-30.487-40-56.56-40s-48.303 16.722-56.56 40h-23.44c-11.028 0-20-8.972-20-20v-240c0-11.028 8.972-20 20-20h180v100c0 33.084 26.916 60 60 60h94.503c11.046 0 20-8.954 20-20s-8.954-20-20-20h-34.503v-60c0-11.046-8.954-20-20-20s-20 8.954-20 20v60h-20c-11.028 0-20-8.972-20-20v-100h92.001c7.163 0 13.826 3.872 17.388 10.106l80.001 140.002c1.732 3.03 2.61 6.358 2.61 9.892v100c0 11.028-8.972 20-20 20h-23.44c-8.256-23.278-30.487-40-56.56-40-33.084 0-60 26.916-60 60s26.916 60 60 60c26.073 0 48.303-16.722 56.56-40h23.44c33.084 0 60-26.916 60-60v-100c0-10.435-2.726-20.719-7.881-29.74zm-364.119 149.74c11.025 0 19.994 8.967 20 19.99v.01s0 .006 0 .01c-.005 11.024-8.974 19.99-20 19.99-11.028 0-20-8.972-20-20s8.972-20 20-20zm232 40c-11.028 0-20-8.972-20-20s8.972-20 20-20 20 8.972 20 20-8.972 20-20 20z"/></g></svg>