<svg id="Capa_1" enable-background="new 0 0 512 512" height="512" viewBox="0 0 512 512" width="512" xmlns="http://www.w3.org/2000/svg"><g id="Bush"><g><path d="m392 512h-232c-88.224 0-160-71.776-160-160 0-59.013 28.791-110.875 76.007-138.551-.005-.483-.007-.967-.007-1.449 0-77.196 62.804-140 140-140 30.256 0 59.062 9.5 83.306 27.473 18.942 14.043 33.782 32.23 43.573 53.24 4.347-.475 8.727-.713 13.121-.713 66.168 0 120 53.832 120 120 0 9.475-1.094 18.811-3.262 27.902 25.129 21.665 39.262 54.412 39.262 92.098 0 66.168-53.832 120-120 120zm-176-400c-55.14 0-100 44.86-100 100 0 3.664.2 7.355.593 10.973.926 8.502-3.657 16.652-11.402 20.278-40.212 18.825-65.191 60.495-65.191 108.749 0 66.168 53.832 120 120 120h232c44.112 0 80-35.888 80-80 0-30.007-11.792-54.017-33.204-67.606-8.018-5.088-11.352-15.113-7.979-23.99 3.439-9.052 5.183-18.609 5.183-28.404 0-44.112-35.888-80-80-80-6.984 0-13.907.897-20.578 2.666-10.298 2.732-20.922-3.086-24.173-13.227-13.312-41.534-51.59-69.439-95.249-69.439z"/></g><g><path d="m216 272c-33.084 0-60-26.916-60-60s26.916-60 60-60 60 26.916 60 60-26.916 60-60 60zm0-80c-11.028 0-20 8.972-20 20s8.972 20 20 20 20-8.972 20-20-8.972-20-20-20z"/></g><g><path d="m336 432c-33.084 0-60-26.916-60-60s26.916-60 60-60 60 26.916 60 60-26.916 60-60 60zm0-80c-11.028 0-20 8.972-20 20s8.972 20 20 20 20-8.972 20-20-8.972-20-20-20z"/></g><g><path d="m176 432c-33.084 0-60-26.916-60-60s26.916-60 60-60 60 26.916 60 60-26.916 60-60 60zm0-80c-11.028 0-20 8.972-20 20s8.972 20 20 20 20-8.972 20-20-8.972-20-20-20z"/></g><g><path d="m462.925 153.013c-8.755-6.734-10.395-19.291-3.66-28.046 9.165-11.917 12.735-24.524 12.735-44.967-26.438 0-46.143 9.259-60.242 28.307-6.572 8.877-19.096 10.747-27.975 4.176-8.878-6.572-10.747-19.096-4.176-27.974 21.862-29.534 52.947-44.509 92.393-44.509 22.056 0 40 17.944 40 40 0 29.447-6.289 50.188-21.028 69.352-6.732 8.754-19.29 10.396-28.047 3.661z"/></g><g><path d="m31.688 121.39c-21.619-21.349-31.688-47.211-31.688-81.39 0-22.056 17.944-40 40-40 33.634 0 59.158 9.73 80.325 30.623 7.861 7.759 7.944 20.422.184 28.284-7.759 7.86-20.421 7.944-28.284.184-13.557-13.382-29.175-19.091-52.225-19.091 0 23.398 5.919 39.228 19.794 52.929 7.859 7.761 7.939 20.424.177 28.284-7.761 7.859-20.424 7.938-28.283.177z"/></g></g></svg>