<svg id="Capa_1" enable-background="new 0 0 512 512" height="512" viewBox="0 0 512 512" width="512" xmlns="http://www.w3.org/2000/svg"><g><path d="m163.44 336c8.256 23.278 30.487 40 56.56 40h72c26.073 0 48.303-16.722 56.56-40h23.44c11.046 0 20-8.954 20-20s-8.954-20-20-20h-23.44c-8.256-23.278-30.487-40-56.56-40h-72c-26.073 0-48.303 16.722-56.56 40h-23.44c-11.046 0-20 8.954-20 20s8.954 20 20 20zm56.56-40h72c11.028 0 20 8.972 20 20s-8.972 20-20 20h-72c-11.028 0-20-8.972-20-20s8.972-20 20-20z"/><path d="m20 416c-11.046 0-20 8.954-20 20s8.954 20 20 20h472c11.046 0 20-8.954 20-20s-8.954-20-20-20c-11.028 0-20-8.972-20-20v-120c0-11.046-8.954-20-20-20s-20 8.954-20 20v120c0 7.009 1.208 13.742 3.427 20h-358.854c2.219-6.258 3.427-12.991 3.427-20v-160c0-7.009-1.208-13.742-3.427-20h415.427c11.046 0 20-8.954 20-20s-8.954-20-20-20h-110.763c6.83-11.777 10.763-25.434 10.763-40 0-44.112-35.888-80-80-80h-20c-11.046 0-20 8.954-20 20s8.954 20 20 20h20c22.056 0 40 17.944 40 40s-17.944 40-40 40h-292c-11.046 0-20 8.954-20 20s8.954 20 20 20c11.028 0 20 8.972 20 20v160c0 11.028-8.972 20-20 20z"/></g></svg>