<svg id="Capa_1" enable-background="new 0 0 512 512" height="512" viewBox="0 0 512 512" width="512" xmlns="http://www.w3.org/2000/svg"><g id="_Car"><path d="m412 196h-284.682l33.609-106.056c2.643-8.34 10.308-13.944 19.073-13.944h152c8.765 0 16.43 5.604 19.072 13.945l16.51 52.097c2.634 8.311 10.348 13.958 19.065 13.958h65.353c11.046 0 20-8.954 20-20s-8.954-20-20-20h-50.71l-12.087-38.138c-7.932-25.039-30.922-41.862-57.204-41.862h-151.999c-26.282 0-49.271 16.823-57.203 41.861l-12.087 38.139h-50.71c-11.046 0-20 8.954-20 20s8.954 20 20 20h38.034l-13.033 41.125c-48.05 7.258-85.001 48.832-85.001 98.875v40c0 26.073 16.722 48.303 40 56.56v23.44c0 33.084 26.916 60 60 60s60-26.916 60-60v-20h192v20c0 33.084 26.916 60 60 60s60-26.916 60-60v-23.44c23.278-8.256 40-30.487 40-56.56v-40c0-55.14-44.859-100-100-100zm-292 220c0 11.028-8.972 20-20 20s-20-8.972-20-20v-20h40zm192-60h-112v-20c0-11.028 8.972-20 20-20h72c11.028 0 20 8.972 20 20zm100 80c-11.028 0-20-8.972-20-20v-20h40v20c0 11.028-8.972 20-20 20zm60-100c0 11.028-8.972 20-20 20h-100v-20c0-33.084-26.916-60-60-60h-72c-33.084 0-60 26.916-60 60v20h-100c-11.028 0-20-8.972-20-20v-40c0-33.057 26.872-59.953 59.918-59.998.029 0 .058.003.087.003.045 0 .089-.005.135-.005h311.86c33.084 0 60 26.916 60 60z"/><g><circle cx="100" cy="296" r="20"/></g><g><circle cx="412" cy="296" r="20"/></g></g></svg>