<svg id="Capa_1" enable-background="new 0 0 512 512" height="512" viewBox="0 0 512 512" width="512" xmlns="http://www.w3.org/2000/svg"><g id="Car"><g><path d="m372 40h-20v-20c0-11.046-8.954-20-20-20s-20 8.954-20 20v20h-20c-11.046 0-20 8.954-20 20s8.954 20 20 20h20v92c0 11.046 8.954 20 20 20s20-8.954 20-20v-92h20c11.046 0 20-8.954 20-20s-8.954-20-20-20z"/><path d="m492 112h-20v-92c0-11.046-8.954-20-20-20s-20 8.954-20 20v92h-20c-11.046 0-20 8.954-20 20s8.954 20 20 20h20v20c0 11.046 8.954 20 20 20s20-8.954 20-20v-20h20c11.046 0 20-8.954 20-20s-8.954-20-20-20z"/></g><path d="m412 312h-27.084l-30.832-68.318c-4.543-10.068-16.388-14.546-26.457-10.002-10.067 4.543-14.546 16.389-10.002 26.457l23.406 51.863h-210.062l30.783-68.209c3.232-7.163 10.395-11.791 18.248-11.791h82.704c11.046 0 20-8.954 20-20s-8.954-20-20-20h-82.704c-23.546 0-45.02 13.871-54.707 35.336l-38.21 84.664h-27.083c-33.084 0-60 26.916-60 60v40c0 33.084 26.916 60 60 60h23.44c8.256 23.278 30.487 40 56.56 40s48.303-16.722 56.56-40h118.88c8.256 23.278 30.487 40 56.56 40s48.303-16.722 56.56-40h23.44c33.084 0 60-26.916 60-60 0-55.14-44.859-100-100-100zm-272 160c-11.028 0-20-8.972-20-20s8.972-20 20-20c11.025 0 19.994 8.967 20 19.99v.01s0 .006 0 .01c-.006 11.023-8.975 19.99-20 19.99zm232 0c-11.022 0-19.988-8.962-19.999-19.98 0-.007.001-.013.001-.02s-.001-.013-.001-.02c.011-11.018 8.977-19.98 19.999-19.98 11.028 0 20 8.972 20 20s-8.972 20-20 20zm80-40h-23.44c-8.256-23.278-30.487-40-56.56-40s-48.303 16.722-56.56 40h-118.88c-8.256-23.278-30.487-40-56.56-40s-48.303 16.722-56.56 40h-23.44c-11.028 0-20-8.972-20-20v-40c0-11.028 8.972-20 20-20h352c33.084 0 60 26.916 60 60 0 11.028-8.972 20-20 20z"/></g></svg>