<svg id="Capa_1" enable-background="new 0 0 512 512" height="512" viewBox="0 0 512 512" width="512" xmlns="http://www.w3.org/2000/svg"><g id="Car"><path d="m492 432h-59.44c-8.256-23.278-30.487-40-56.56-40-33.084 0-60 26.916-60 60s26.916 60 60 60c26.073 0 48.303-16.722 56.56-40h59.44c11.046 0 20-8.954 20-20s-8.954-20-20-20zm-116 40c-11.028 0-20-8.972-20-20s8.972-20 20-20 20 8.972 20 20-8.972 20-20 20z"/><g><path d="m256 432h-63.44c-8.256-23.278-30.487-40-56.56-40s-48.303 16.722-56.56 40h-59.44c-11.046 0-20 8.954-20 20s8.954 20 20 20h59.44c8.256 23.278 30.487 40 56.56 40s48.303-16.722 56.56-40h63.44c11.046 0 20-8.954 20-20s-8.954-20-20-20zm-120 40c-11.028 0-20-8.972-20-20s8.972-20 20-20 20 8.972 20 20-8.972 20-20 20z"/><path d="m432 192h-42.007l-26-71.265c-8.263-24.379-31.058-40.735-56.823-40.735h-31.17v-40h216c11.046 0 20-8.954 20-20s-8.954-20-20-20h-472c-11.046 0-20 8.954-20 20s8.954 20 20 20h216v40h-31.17c-25.765 0-48.561 16.356-56.823 40.735l-26 71.265h-42.007c-44.112 0-80 35.888-80 80v20c0 33.084 26.916 60 60 60h36c11.046 0 20-8.954 20-20 0-11.028 8.972-20 20-20s20 8.972 20 20c0 11.046 8.954 20 20 20h160c11.046 0 20-8.954 20-20 0-11.028 8.972-20 20-20s20 8.972 20 20c0 11.046 8.954 20 20 20h36c33.084 0 60-26.916 60-60v-20c0-44.112-35.888-80-80-80zm-246.328-57.794c.063-.176.125-.353.185-.531 2.727-8.18 10.352-13.675 18.974-13.675h102.34c8.622 0 16.247 5.496 18.974 13.675.06.178.121.354.185.531l21.083 57.794h-182.826zm286.328 157.794c0 11.028-8.972 20-20 20h-19.427c-8.255-23.281-30.498-40-56.573-40s-48.318 16.719-56.573 40h-126.854c-8.255-23.281-30.498-40-56.573-40s-48.318 16.719-56.573 40h-19.427c-11.028 0-20-8.972-20-20v-20c0-22.056 17.944-40 40-40h295.862c.047 0 .093.005.14.005.041 0 .083-.005.124-.005h55.874c22.056 0 40 17.944 40 40z"/></g></g></svg>