<svg id="Layer_1" enable-background="new 0 0 513 513" height="512" viewBox="0 0 513 513" width="512" xmlns="http://www.w3.org/2000/svg"><path d="m394.468 512.602c-18.263 0-36.525-6.951-50.43-20.854l-18.654-18.654c-31.888-31.888-49.448-74.283-49.448-119.378v-35.071c0-20.932 9.143-40.713 25.084-54.271 15.991-13.603 37.067-19.471 57.819-16.096 1.597.26 3.194.525 4.792.791 10.523 1.749 20.482 3.416 29.888 3.333 9.537-.068 19.676-1.813 30.41-3.66 2.09-.359 4.182-.719 6.274-1.068h.001c22.621-3.77 43.605 1.378 59.088 14.495 10.815 9.158 23.708 26.373 23.708 56.351v42.879c0 38.395-18.947 81.193-49.447 111.694l-18.654 18.654c-13.905 13.903-32.168 20.855-50.431 20.855zm-47.144-225.257c-7.429 0-14.653 2.618-20.389 7.496-7.094 6.033-11 14.486-11 23.803v35.071c0 34.41 13.4 66.762 37.732 91.093l18.654 18.654c12.211 12.21 32.08 12.214 44.291 0l18.654-18.654c22.923-22.921 37.734-55.662 37.734-83.41v-42.878c0-8.09-1.659-19.138-9.563-25.834-6.362-5.39-15.829-7.362-26.658-5.56-2.023.338-25.778 5.271-42.976 5.271-21.803 0-33.803-5.052-46.479-5.052zm-107.324 105.053c0-11.046-8.954-20-20-20h-100c-44.112 0-80-35.888-80-80v-172c0-44.112 35.888-80 80-80h272c44.112 0 80 35.888 80 80v73c0 11.046 8.954 20 20 20s20-8.954 20-20v-73c0-66.168-53.832-120-120-120h-272c-66.168 0-120 53.832-120 120v172c0 66.168 53.832 120 120 120h100c11.046 0 20-8.954 20-20zm172-257h-312c-11.046 0-20-8.954-20-20s8.954-20 20-20h312c11.046 0 20 8.954 20 20s-8.954 20-20 20zm20 60c0-11.046-8.954-20-20-20h-312c-11.046 0-20 8.954-20 20s8.954 20 20 20h312c11.046 0 20-8.954 20-20z"/></svg>