<svg id="Capa_1" enable-background="new 0 0 512 512" height="512" viewBox="0 0 512 512" width="512" xmlns="http://www.w3.org/2000/svg"><g><path d="m309.688 149.191c-10.237-20.473-30.808-33.191-53.688-33.191-22.879 0-43.451 12.718-53.688 33.191l-40 80c-4.13 8.26-6.312 17.53-6.312 26.809s2.183 18.549 6.312 26.809l40 80c10.237 20.473 30.809 33.191 53.688 33.191 22.88 0 43.451-12.718 53.688-33.191l40-80c4.13-8.26 6.312-17.53 6.312-26.809s-2.183-18.549-6.312-26.809zm4.222 115.729-40 80c-3.417 6.835-10.28 11.08-17.91 11.08s-14.493-4.246-17.91-11.08l-40-80c-1.387-2.773-2.09-5.774-2.09-8.92s.703-6.147 2.09-8.92l40-80c3.417-6.834 10.28-11.08 17.91-11.08s14.493 4.245 17.91 11.079l40 80c1.387 2.773 2.09 5.774 2.09 8.92s-.703 6.148-2.09 8.921z"/><path d="m416 352c11.046 0 20-8.954 20-20v-232c0-26.073-16.722-48.304-40-56.56v-23.44c0-11.046-8.954-20-20-20s-20 8.954-20 20v20h-40v-20c0-11.046-8.954-20-20-20s-20 8.954-20 20v20h-40v-20c0-11.046-8.954-20-20-20s-20 8.954-20 20v20h-40v-20c0-11.046-8.954-20-20-20s-20 8.954-20 20v23.44c-23.278 8.256-40 30.487-40 56.56v312c0 26.073 16.722 48.304 40 56.56v23.44c0 11.046 8.954 20 20 20s20-8.954 20-20v-20h40v20c0 11.046 8.954 20 20 20s20-8.954 20-20v-20h40v20c0 11.046 8.954 20 20 20s20-8.954 20-20v-20h40v20c0 11.046 8.954 20 20 20s20-8.954 20-20v-23.44c23.278-8.256 40-30.487 40-56.56 0-11.046-8.954-20-20-20s-20 8.954-20 20c0 11.028-8.972 20-20 20h-240c-11.028 0-20-8.972-20-20v-312c0-11.028 8.972-20 20-20h240c11.028 0 20 8.972 20 20v232c0 11.046 8.954 20 20 20z"/></g></svg>