<svg id="Capa_1" enable-background="new 0 0 512.01 512.01" height="512" viewBox="0 0 512.01 512.01" width="512" xmlns="http://www.w3.org/2000/svg"><g id="Coconut_Drink"><g><path d="m332.557 352.01c-27.021 0-47.045-13.889-60-27.141-12.955 13.252-32.979 27.141-60 27.141-50.574 0-76.633-48.65-77.717-50.721l35.435-18.557-.054-.102c.158.294 16.14 29.381 42.336 29.381 25.703 0 41.572-28 42.311-29.334 3.421-6.675 10.185-10.875 17.689-10.875 7.505 0 14.268 4.201 17.689 10.875.739 1.333 16.607 29.333 42.311 29.333 26.197 0 42.178-29.087 42.336-29.381l-.054.102 35.436 18.557c-1.085 2.071-27.144 50.722-77.718 50.722z"/></g><path d="m465.648 232.164-73.271-65.037c-10.982-9.749-25.124-15.118-39.82-15.118h-60v-60c0-11.028 8.972-20 20-20h80c11.046 0 20-8.954 20-20s-8.954-20-20-20h-80c-33.084 0-60 26.916-60 60v60h-52.812l-28.07-28.07c14.195-16.496 25.439-33.757 32.347-49.874 15.453-36.057 4.421-54.78-3.53-62.731-6.841-6.842-19.559-14.17-41.273-10.227l-103.721 18.834c-8.2 1.489-14.617 7.906-16.105 16.105l-18.833 103.722c-3.942 21.716 3.385 34.43 10.227 41.272 5.035 5.034 14.386 11.303 29.723 11.303 8.886 0 19.782-2.105 33.008-7.774 16.117-6.907 33.378-18.152 49.874-32.347l12.393 12.393c-1.037.805-2.059 1.634-3.047 2.511l-73.271 65.037c-17.101 15.18-26.909 36.992-26.909 59.845 0 59.737 21.53 114.899 60.623 155.325 40.332 41.707 96.933 64.675 159.377 64.675s119.045-22.969 159.377-64.675c39.094-40.426 60.623-95.588 60.623-155.325-.001-22.852-9.808-44.665-26.91-59.844zm-406.148-79.753c-.085-1.113-.049-2.93.417-5.498l16.358-90.091 90.091-16.358c2.568-.466 4.387-.502 5.498-.417.916 8.372-8.988 37.189-42.082 70.282-33.097 33.098-61.922 42.997-70.282 42.082zm213.057 319.599c-104.299 0-180-75.701-180-180 0-11.427 4.907-22.336 13.462-29.93l73.271-65.037c6.383-5.665 12.55-4.837 17.282-5.033h155.984c4.898 0 9.61 1.787 13.267 5.032l73.271 65.037c8.555 7.594 13.462 18.503 13.462 29.93.001 104.3-75.7 180.001-179.999 180.001z"/></g></svg>