<svg id="Capa_1" enable-background="new 0 0 512 512" height="512" viewBox="0 0 512 512" width="512" xmlns="http://www.w3.org/2000/svg"><g id="Coffee_machine"><g><circle cx="252" cy="100" r="20"/></g><g><circle cx="332" cy="100" r="20"/></g><g><circle cx="412" cy="100" r="20"/></g><g><path d="m100 200c-11.046 0-20 8.954-20 20v152c0 11.046 8.954 20 20 20s20-8.954 20-20v-152c0-11.046-8.954-20-20-20z"/><path d="m332 240c11.046 0 20-8.954 20-20v-20h140c11.046 0 20-8.954 20-20v-80c0-55.14-44.86-100-100-100h-312c-55.14 0-100 44.86-100 100v312c0 55.14 44.86 100 100 100h392c11.046 0 20-8.954 20-20 0-55.14-44.86-100-100-100h-102.679c-8.276-11.083-24.355-37.563-28.383-80h110.107c-.534 5.568-1.281 11.045-2.262 16.391-1.994 10.864 5.198 21.288 16.062 23.281 1.22.224 2.435.332 3.632.332 9.467 0 17.879-6.75 19.648-16.394 2.571-14.014 3.875-28.686 3.875-43.61 0-11.046-8.954-20-20-20h-152c-11.046 0-20 8.954-20 20 0 44.234 11.298 77.599 22.686 100h-42.686c-11.028 0-20-8.972-20-20v-152c0-11.028 8.972-20 20-20h92v20c0 11.046 8.954 20 20 20zm-172-20v152c0 33.084 26.916 60 60 60h192c26.075 0 48.318 16.719 56.573 40h-368.573c-33.084 0-60-26.916-60-60v-312c0-33.084 26.916-60 60-60h312c33.084 0 60 26.916 60 60v60h-252c-33.084 0-60 26.916-60 60z"/></g></g></svg>