<svg id="Capa_1" enable-background="new 0 0 512 512" height="512" viewBox="0 0 512 512" width="512" xmlns="http://www.w3.org/2000/svg"><g><path d="m196 356c0 33.084 26.916 60 60 60s60-26.916 60-60-26.916-60-60-60-60 26.916-60 60zm60-20c11.028 0 20 8.972 20 20s-8.972 20-20 20-20-8.972-20-20 8.972-20 20-20z"/><path d="m476 180v-40c0-33.084-26.916-60-60-60h-5.136l-20.157-44.663c-9.687-21.466-31.161-35.337-54.707-35.337h-160c-23.546 0-45.02 13.871-54.707 35.336l-20.157 44.664h-5.136c-33.084 0-60 26.916-60 60v40c0 29.044 20.746 53.329 48.196 58.828l32.396 221.624c4.157 29.387 29.696 51.548 59.408 51.548h160c29.687 0 55.208-22.123 59.396-51.473l23.416-157.587c1.624-10.926-5.917-21.099-16.843-22.722-10.928-1.624-21.099 5.917-22.722 16.843 0 0-23.439 157.744-23.446 157.79-1.383 9.776-9.895 17.149-19.801 17.149h-160c-9.906 0-18.418-7.373-19.814-17.241l-31.393-214.759h291.207c33.084 0 60-26.916 60-60zm-318.248-128.21c3.232-7.162 10.395-11.79 18.248-11.79h160c7.853 0 15.016 4.628 18.248 11.791l12.731 28.209h-221.958zm-81.752 88.21c0-11.028 8.972-20 20-20h301.823c.046 0 .091.005.137.005.062 0 .125-.004.187-.005h17.853c11.028 0 20 8.972 20 20v40c0 11.028-8.972 20-20 20h-320c-11.028 0-20-8.972-20-20z"/></g></svg>