<svg id="Capa_1" enable-background="new 0 0 512 512" height="512" viewBox="0 0 512 512" width="512" xmlns="http://www.w3.org/2000/svg"><g><path d="m196 176c0-11.028 8.972-20 20-20 33.084 0 60-26.916 60-60 0-11.046-8.954-20-20-20s-20 8.954-20 20c0 11.028-8.972 20-20 20-33.084 0-60 26.916-60 60 0 11.046 8.954 20 20 20s20-8.954 20-20z"/><path d="m140 512h112c33.084 0 60-26.916 60-60v-196c0-11.046-8.954-20-20-20h-192c-11.046 0-20 8.954-20 20v20h-20c-33.084 0-60 26.916-60 60v76c0 33.084 26.916 60 60 60h23.44c8.257 23.278 30.487 40 56.56 40zm-20-236h152v176c0 11.028-8.972 20-20 20h-112c-11.028 0-20-8.972-20-20zm-80 136v-76c0-11.028 8.972-20 20-20h20v116h-20c-11.028 0-20-8.972-20-20z"/><path d="m452 0h-40c-33.084 0-60 26.916-60 60v392c0 33.084 26.916 60 60 60h40c33.084 0 60-26.916 60-60v-80c0-11.046-8.954-20-20-20h-100v-192h80v132c0 11.046 8.954 20 20 20s20-8.954 20-20v-232c0-33.084-26.916-60-60-60zm20 392v60c0 11.028-8.972 20-20 20h-40c-11.028 0-20-8.972-20-20v-60zm-80-272v-60c0-11.028 8.972-20 20-20h40c11.028 0 20 8.972 20 20v60z"/></g></svg>