<svg id="Capa_1" enable-background="new 0 0 512 512" height="512" viewBox="0 0 512 512" width="512" xmlns="http://www.w3.org/2000/svg"><g id="Coffee_Cup"><g><path d=""/></g><g><path d=""/></g><g><path d="m436 160h-20c0-88.224-71.776-160-160-160s-160 71.776-160 160h-20c-11.046 0-20 8.954-20 20s8.954 20 20 20h360c11.046 0 20-8.954 20-20s-8.954-20-20-20zm-180-120c66.168 0 120 53.832 120 120h-240c0-66.168 53.832-120 120-120z"/><path d="m398.265 240.129c-10.971-1.25-20.886 6.631-22.136 17.606l-20.368 178.678c-2.213 20.288-19.307 35.587-39.761 35.587h-120c-20.454 0-37.548-15.299-39.772-35.684l-20.357-178.582c-1.25-10.975-11.16-18.858-22.136-17.606-10.975 1.251-18.857 11.162-17.606 22.136l20.346 178.485c4.431 40.62 38.62 71.251 79.525 71.251h120c40.905 0 75.094-30.631 79.515-71.153l20.356-178.582c1.252-10.974-6.631-20.885-17.606-22.136z"/></g><g><path d="m199.432 408.569c-12.255-12.255-17.01-30.659-13.043-50.491 3.437-17.185 13.092-34.41 27.186-48.504 14.093-14.094 31.319-23.749 48.504-27.185 19.833-3.966 38.236.788 50.491 13.043s17.01 30.659 13.043 50.491c-3.437 17.185-13.092 34.41-27.186 48.504-14.093 14.094-31.319 23.749-48.504 27.185-18.536 3.706-37.456-.008-50.491-13.043zm70.49-86.957c-9.388 1.878-19.617 7.799-28.064 16.246s-14.369 18.676-16.246 28.064c-1.279 6.396-.493 11.765 2.104 14.362 2.597 2.596 7.964 3.384 14.362 2.104 9.388-1.878 19.617-7.799 28.064-16.246 8.447-8.447 14.369-18.676 16.246-28.064 1.279-6.396.493-11.765-2.104-14.362-3.268-3.268-9.829-3.011-14.362-2.104z"/></g></g></svg>