<svg id="Capa_1" enable-background="new 0 0 512 512" height="512" viewBox="0 0 512 512" width="512" xmlns="http://www.w3.org/2000/svg"><g id="Coffee"><g><path d="m276 120c-11.046 0-20-8.954-20-20 0-33.084 26.916-60 60-60h40c11.028 0 20-8.972 20-20 0-11.046 8.954-20 20-20s20 8.954 20 20c0 33.084-26.916 60-60 60h-40c-11.028 0-20 8.972-20 20 0 11.046-8.954 20-20 20z"/></g><path d="m476 392h-47.619c-11.046 0-20 8.954-20 20s8.954 20 20 20h24.554c-7.841 23.229-29.84 40-55.685 40h-282.5c-25.845 0-47.845-16.771-55.685-40h230.712c40.55 0 76.808-24.192 92.371-61.631 3.18-7.649 6.103-15.083 8.795-22.361 7.992 2.631 16.412 3.992 25.057 3.992 44.112 0 80-35.888 80-80s-35.888-80-80-80c-1.141 0-2.28.024-3.416.072-8.236-23.316-30.485-40.072-56.584-40.072h-200c-33.084 0-60 26.916-60 60v.32c0 67.424 16.274 115.824 33.86 158.083 3.251 7.813 7.415 15.038 12.32 21.597h-106.18c-11.046 0-20 8.954-20 20v1.26c0 54.445 44.299 98.74 98.75 98.74h282.5c54.451 0 98.75-44.295 98.75-98.741v-1.259c0-11.046-8.954-20-20-20zm-20-120c0 22.056-17.944 40-40 40-4.408 0-8.698-.702-12.76-2.067 7.126-26.184 11.038-51.269 12.3-77.924.154-.002.307-.01.46-.01 22.056.001 40 17.945 40 40.001zm-289.21 83.034c-15.992-38.427-30.79-82.313-30.79-142.714v-.32c0-11.028 8.972-20 20-20h200c11.028 0 20 8.972 20 20v.102c0 48.902-8.92 90.307-30.787 142.913-9.34 22.468-31.1 36.985-55.436 36.985h-67.561c-24.324 0-46.081-14.51-55.426-36.966z"/></g></svg>