<svg id="Capa_1" enable-background="new 0 0 512.007 512.007" height="512" viewBox="0 0 512.007 512.007" width="512" xmlns="http://www.w3.org/2000/svg"><g><path d="m16.695 235.728c10.879 1.826 21.204-5.51 23.033-16.416 2.286-13.632 5.888-27.105 10.705-40.045 3.853-10.352-1.416-21.867-11.768-25.72-10.353-3.854-21.867 1.416-25.721 11.767-5.699 15.312-9.961 31.253-12.666 47.381-1.826 10.893 5.523 21.205 16.417 23.033z"/><path d="m90.283 55.654c-12.573 10.41-24.224 22.061-34.629 34.629-7.044 8.508-5.857 21.116 2.65 28.16 8.509 7.044 21.116 5.858 28.16-2.651 8.812-10.644 18.681-20.512 29.328-29.329 8.508-7.045 9.694-19.652 2.649-28.16-7.044-8.508-19.652-9.694-28.158-2.649z"/><path d="m212.694.279c-16.132 2.707-32.073 6.968-47.381 12.666-10.352 3.854-15.619 15.369-11.766 25.721 3.854 10.355 15.371 15.619 25.721 11.767 12.936-4.815 26.408-8.417 40.045-10.705 10.894-1.828 18.242-12.14 16.415-23.033-1.827-10.895-12.142-18.243-23.034-16.416z"/><path d="m346.694 12.945c-15.308-5.698-31.249-9.959-47.381-12.666-10.899-1.826-21.206 5.521-23.034 16.415-1.827 10.893 5.521 21.206 16.415 23.033 13.637 2.288 27.109 5.89 40.045 10.705 10.352 3.853 21.868-1.415 25.721-11.767 3.853-10.351-1.415-21.866-11.766-25.72z"/><path d="m456.353 90.283c-10.405-12.568-22.057-24.219-34.629-34.629-8.508-7.043-21.115-5.86-28.159 2.649-7.045 8.508-5.858 21.115 2.649 28.16 10.647 8.817 20.516 18.685 29.328 29.329 7.043 8.508 19.653 9.695 28.16 2.651 8.508-7.044 9.695-19.652 2.651-28.16z"/><path d="m499.062 165.313c-3.854-10.352-15.37-15.621-25.721-11.767-10.352 3.853-15.62 15.368-11.768 25.72 4.817 12.94 8.419 26.414 10.705 40.045 1.828 10.894 12.139 18.241 23.033 16.416 10.894-1.828 18.243-12.14 16.416-23.033-2.704-16.127-6.966-32.069-12.665-47.381z"/><path d="m495.312 276.279c-10.887-1.825-21.205 5.522-23.033 16.416-2.286 13.632-5.888 27.105-10.705 40.045-3.853 10.352 1.416 21.867 11.768 25.72s21.868-1.415 25.721-11.767c5.699-15.312 9.961-31.253 12.666-47.381 1.826-10.894-5.524-21.206-16.417-23.033z"/><path d="m425.542 396.214c-8.812 10.644-18.68 20.512-29.328 29.329-8.508 7.045-9.693 19.653-2.648 28.16 7.056 8.52 19.666 9.683 28.16 2.648 12.571-10.41 24.222-22.061 34.627-34.628 7.044-8.508 5.857-21.116-2.65-28.16-8.507-7.043-21.115-5.858-28.161 2.651z"/><path d="m332.742 461.574c-12.939 4.815-26.413 8.417-40.048 10.705-10.894 1.828-18.242 12.14-16.415 23.033s12.141 18.243 23.034 16.415c16.129-2.706 32.071-6.967 47.382-12.666 10.352-3.853 15.62-15.368 11.768-25.72-3.853-10.351-15.368-15.62-25.721-11.767z"/><path d="m219.313 472.279c-13.635-2.288-27.108-5.89-40.048-10.705-10.354-3.855-21.867 1.416-25.721 11.768-3.853 10.352 1.416 21.867 11.768 25.72 15.311 5.699 31.253 9.96 47.382 12.666 10.893 1.828 21.207-5.522 23.034-16.415 1.827-10.894-5.522-21.206-16.415-23.034z"/><path d="m115.792 425.543c-10.648-8.817-20.516-18.685-29.328-29.329-7.045-8.508-19.651-9.694-28.16-2.65-8.508 7.044-9.694 19.652-2.65 28.16 10.405 12.567 22.056 24.218 34.627 34.628 8.507 7.045 21.116 5.859 28.16-2.648 7.045-8.508 5.859-21.116-2.649-28.161z"/><path d="m50.433 332.74c-4.817-12.94-8.419-26.414-10.705-40.045-1.827-10.895-12.152-18.236-23.033-16.416-10.894 1.828-18.243 12.14-16.416 23.033 2.705 16.128 6.967 32.069 12.666 47.381 3.855 10.354 15.372 15.62 25.721 11.767 10.351-3.853 15.62-15.368 11.767-25.72z"/><path d="m256.003 436.003c99.252 0 180-80.748 180-180s-80.748-180-180-180-180 80.748-180 180 80.748 180 180 180zm138.565-200h-58.565c-11.028 0-20-8.972-20-20 0-33.084-26.916-60-60-60-11.028 0-20-8.972-20-20s8.972-20 20-20c70.407 0 128.831 52.245 138.565 120zm-198.188-106.65c-.242 2.185-.377 4.401-.377 6.65 0 33.084 26.916 60 60 60 11.028 0 20 8.972 20 20 0 33.084 26.916 60 60 60h58.565c-6.788 47.246-37.249 86.943-78.942 106.65.242-2.185.377-4.401.377-6.65 0-33.084-26.916-60-60-60-11.028 0-20-8.972-20-20 0-33.084-26.916-60-60-60-11.046 0-20 8.954-20 20s8.954 20 20 20c11.028 0 20 8.972 20 20 0 33.084 26.916 60 60 60 11.028 0 20 8.972 20 20s-8.972 20-20 20c-77.196 0-140-62.804-140-140 0-55.884 32.918-104.217 80.377-126.65z"/></g></svg>