<svg id="Capa_1" enable-background="new 0 0 512 512" height="512" viewBox="0 0 512 512" width="512" xmlns="http://www.w3.org/2000/svg"><g id="Worm"><g><path d="m452 272c-33.084 0-60 26.916-60 60v42c0 9.925-8.075 18-18 18s-18-8.075-18-18v-216c0-87.122-70.879-158-158-158-87.122 0-158 70.878-158 158v37.44c-23.278 8.257-40 30.487-40 56.56 0 15.353 5.796 29.377 15.315 40-9.519 10.623-15.315 24.647-15.315 40 0 33.084 26.916 60 60 60h80c33.084 0 60-26.916 60-60 0-15.353-5.796-29.377-15.315-40 9.519-10.623 15.315-24.647 15.315-40 0-26.073-16.722-48.303-40-56.56v-37.44c0-20.953 17.047-38 38-38s38 17.047 38 38v216c0 76.093 61.906 138 138 138s138-61.907 138-138v-42c0-33.084-26.916-60-60-60zm-176-72h40v112h-40zm-136 112c11.028 0 20 8.972 20 20s-8.972 20-20 20h-80c-11.028 0-20-8.972-20-20s8.972-20 20-20c11.046 0 20-8.954 20-20s-8.954-20-20-20c-11.028 0-20-8.972-20-20s8.972-20 20-20h80c11.028 0 20 8.972 20 20s-8.972 20-20 20c-11.046 0-20 8.954-20 20s8.954 20 20 20zm-20-154v34h-40v-34c0-58.249 42.427-106.769 98-116.297v40.907c-33.349 8.856-58 39.293-58 75.39zm98-75.389v-40.908c55.573 9.528 98 58.048 98 116.297v2h-40v-2c0-36.097-24.651-66.534-58-75.389zm58 291.389v-22h40v22c0 24.956 15.844 46.279 38 54.444v41.501c-44.478-9.259-78-48.76-78-95.945zm196 0c0 47.185-33.522 86.686-78 95.945v-41.501c22.156-8.165 38-29.488 38-54.444v-42c0-11.028 8.972-20 20-20s20 8.972 20 20z"/><path d="m140 432c-11.046 0-20 8.954-20 20 0 11.028-8.972 20-20 20s-20-8.972-20-20c0-11.046-8.954-20-20-20s-20 8.954-20 20c0 33.084 26.916 60 60 60s60-26.916 60-60c0-11.046-8.954-20-20-20z"/></g></g></svg>