<svg id="Capa_1" enable-background="new 0 0 512 512" height="512" viewBox="0 0 512 512" width="512" xmlns="http://www.w3.org/2000/svg"><g><g><g><circle cx="100" cy="356" r="20"/></g><g><circle cx="180" cy="356" r="20"/></g></g><path d="m412 336h-76c-11.046 0-20 8.954-20 20s8.954 20 20 20h76c11.046 0 20-8.954 20-20s-8.954-20-20-20z"/><path d="m412 496c11.046 0 20-8.954 20-20v-20h20c33.084 0 60-26.916 60-60v-320c0-33.084-26.916-60-60-60h-392c-33.084 0-60 26.916-60 60v320c0 33.084 26.916 60 60 60h20v20c0 11.046 8.954 20 20 20s20-8.954 20-20v-20h272v20c0 11.046 8.954 20 20 20zm-352-80c-11.028 0-20-8.972-20-20v-320c0-11.028 8.972-20 20-20h392c11.028 0 20 8.972 20 20v180h-372c-11.046 0-20 8.954-20 20s8.954 20 20 20h372v100c0 11.028-8.972 20-20 20z"/><path d="m332.796 215.742c6.345 1.03 12.8-1.054 17.346-5.6l34.142-34.142h27.716c11.046 0 20-8.954 20-20s-8.954-20-20-20h-36c-5.304 0-10.392 2.107-14.142 5.858l-20.379 20.379-27.59-55.181c-2.875-5.75-8.339-9.768-14.685-10.797-6.345-1.027-12.799 1.054-17.346 5.6l-60.379 60.379-27.59-55.181c-2.875-5.75-8.339-9.768-14.685-10.797-6.343-1.027-12.8 1.054-17.346 5.6l-34.142 34.14h-27.716c-11.046 0-20 8.954-20 20s8.954 20 20 20h36c5.304 0 10.392-2.107 14.142-5.858l20.379-20.379 27.59 55.181c2.875 5.75 8.339 9.768 14.685 10.797 6.345 1.03 12.8-1.054 17.346-5.6l60.379-60.379 27.59 55.181c2.875 5.751 8.34 9.769 14.685 10.799z"/></g></svg>