<svg id="Capa_1" enable-background="new 0 0 512 512" height="512" viewBox="0 0 512 512" width="512" xmlns="http://www.w3.org/2000/svg"><g id="Sport_Ball"><g><path d="m256 512c-143.552 0-256-112.448-256-256s112.448-256 256-256 256 112.448 256 256-112.448 256-256 256zm0-472c-121.121 0-216 94.879-216 216s94.879 216 216 216 216-94.879 216-216-94.879-216-216-216z"/></g><g><path d="m361.72 156h-211.44c-11.046 0-20-8.954-20-20s8.954-20 20-20h211.44c11.046 0 20 8.954 20 20s-8.954 20-20 20z"/></g><g><path d="m416 276h-320c-11.046 0-20-8.954-20-20s8.954-20 20-20h320c11.046 0 20 8.954 20 20s-8.954 20-20 20z"/></g><g><path d="m361.72 396h-211.44c-11.046 0-20-8.954-20-20s8.954-20 20-20h211.44c11.046 0 20 8.954 20 20s-8.954 20-20 20z"/></g></g></svg>