<svg id="Capa_1" enable-background="new 0 0 512 512" height="512" viewBox="0 0 512 512" width="512" xmlns="http://www.w3.org/2000/svg"><path d="m237 400c0 11.046-8.954 20-20 20s-20-8.954-20-20 8.954-20 20-20 20 8.955 20 20zm-20-106c-11.046 0-20 8.954-20 20s8.954 20 20 20 20-8.954 20-20-8.954-20-20-20zm0-87c-11.046 0-20 8.954-20 20s8.954 20 20 20 20-8.954 20-20-8.954-20-20-20zm50 265h-147c-44.112 0-80-35.888-80-80v-164c0-44.112 35.888-80 80-80h272c44.112 0 80 35.888 80 80v24c0 11.046 8.954 20 20 20s20-8.954 20-20v-24c0-66.168-53.832-120-120-120h-272c-66.168 0-120 53.832-120 120v164c0 66.168 53.832 120 120 120h147c11.046 0 20-8.954 20-20s-8.954-20-20-20zm102-245c0 11.046 8.954 20 20 20s20-8.954 20-20-8.954-20-20-20-20 8.955-20 20zm-238 67c-11.046 0-20 8.954-20 20s8.954 20 20 20 20-8.954 20-20-8.954-20-20-20zm192-67c0-11.046-8.954-20-20-20s-20 8.954-20 20 8.954 20 20 20 20-8.954 20-20zm-192-20c-11.046 0-20 8.954-20 20s8.954 20 20 20 20-8.954 20-20-8.954-20-20-20zm0 173c-11.046 0-20 8.954-20 20s8.954 20 20 20 20-8.954 20-20-8.954-20-20-20zm-29-300c11.046 0 20-8.954 20-20 0-11.028 8.972-20 20-20s20 8.972 20 20c0 11.046 8.954 20 20 20s20-8.954 20-20c0-33.084-26.916-60-60-60s-60 26.916-60 60c0 11.046 8.954 20 20 20zm230 0c11.046 0 20-8.954 20-20 0-11.028 8.972-20 20-20s20 8.972 20 20c0 11.046 8.954 20 20 20s20-8.954 20-20c0-33.084-26.916-60-60-60s-60 26.916-60 60c0 11.046 8.954 20 20 20zm174.143 237.858c-7.811-7.811-20.475-7.811-28.285 0l-30.514 30.515-94.602-18.02c-9.918-1.89-19.699 3.917-22.786 13.536-3.086 9.62 1.485 20.03 10.656 24.267l59.472 27.475-45.084 45.085-8.857-8.858c-7.811-7.811-20.475-7.811-28.285 0s-7.811 20.474 0 28.284l46 46c3.905 3.906 9.024 5.858 14.142 5.858s10.237-1.953 14.143-5.858c7.811-7.811 7.811-20.474 0-28.284l-8.859-8.858 45.084-45.084 27.476 59.472c4.237 9.171 14.65 13.744 24.267 10.656 9.619-3.086 15.427-12.862 13.536-22.786l-18.019-94.601 30.515-30.515c7.81-7.81 7.81-20.473 0-28.284z"/></svg>