<svg id="Capa_1" enable-background="new 0 0 512 512" height="512" viewBox="0 0 512 512" width="512" xmlns="http://www.w3.org/2000/svg"><g><path d="m392 356c0 11.046 8.954 20 20 20s20-8.954 20-20v-40c0-11.046-8.954-20-20-20s-20 8.954-20 20z"/><path d="m332 376c11.046 0 20-8.954 20-20v-40c0-11.046-8.954-20-20-20s-20 8.954-20 20v40c0 11.046 8.954 20 20 20z"/><path d="m452 96c11.028 0 20 8.972 20 20 0 11.046 8.954 20 20 20s20-8.954 20-20c0-33.084-26.916-60-60-60h-392c-33.084 0-60 26.916-60 60v280c0 33.084 26.916 60 60 60h392c33.084 0 60-26.916 60-60v-200c0-11.046-8.954-20-20-20h-215.44c-8.256-23.278-30.487-40-56.56-40-7.011 0-13.74 1.22-20 3.44v-43.44zm-412 300v-180h43.44c4.367 12.312 12.638 22.787 23.327 29.925l-18.767 14.075c-8.836 6.627-10.628 19.163-4 28 6.626 8.836 19.164 10.627 28 4.001l48-35.998v159.997h-100c-11.028 0-20-8.972-20-20zm100-180c-11.028 0-20-8.972-20-20s8.972-20 20-20 20 8.972 20 20-8.972 20-20 20zm312 200h-252v-159.998l48 35.998c8.838 6.627 21.372 4.837 28-4.001 6.628-8.837 4.836-21.373-4-28l-18.767-14.074c10.688-7.138 18.96-17.614 23.327-29.925h195.44v180c0 11.028-8.972 20-20 20zm-232-240c11.028 0 20 8.972 20 20s-8.972 20-20 20-20-8.972-20-20 8.972-20 20-20zm-60-36.56c-6.26-2.22-12.989-3.44-20-3.44-26.073 0-48.303 16.722-56.56 40h-43.44v-60c0-11.028 8.972-20 20-20h100z"/></g></svg>