<svg id="Capa_1" enable-background="new 0 0 512 512" height="512" viewBox="0 0 512 512" width="512" xmlns="http://www.w3.org/2000/svg"><g><path d="m375.979 472h-60v-52c0-11.046-8.954-20-20-20s-20 8.954-20 20v52h-60c-11.046 0-20 8.954-20 20s8.954 20 20 20h160c11.046 0 20-8.954 20-20s-8.954-20-20-20z"/><path d="m295.979 0c-41.348 0-80.56 13.858-112.355 39.359l-12.051-12.051c-12.881-12.879-30.697-19.264-48.873-17.511-17.393 1.675-32.868 10.792-42.46 25.014-69.352 102.826-55.939 241.206 31.89 329.037 28.059 28.058 61.16 48.838 98.387 61.763 10.435 3.622 21.83-1.899 25.453-12.333 3.623-10.435-1.899-21.831-12.334-25.454-31.471-10.927-59.471-28.51-83.221-52.26-74.321-74.321-85.682-191.399-27.014-278.386 3.953-5.862 9.925-7.255 13.133-7.564 6.243-.601 12.353 1.578 16.753 5.979l12.052 12.051c-25.501 31.795-39.36 71.008-39.36 112.356 0 99.487 80.513 180 180 180 41.348 0 80.56-13.859 112.355-39.359l12.051 12.051c4.402 4.402 6.582 10.508 5.98 16.753-.31 3.208-1.702 9.179-7.564 13.132-15.653 10.557-32.637 19.052-50.479 25.247-10.435 3.623-15.957 15.019-12.334 25.453 3.623 10.436 15.018 15.958 25.453 12.334 21.111-7.33 41.206-17.38 59.728-29.872 14.221-9.591 23.338-25.067 25.013-42.46 1.751-18.179-4.632-35.993-17.511-48.872l-12.051-12.051c25.501-31.795 39.36-71.008 39.36-112.356-.001-99.487-80.514-180-180.001-180zm112.136 263.852-41.425-41.425c-7.798-7.798-7.798-20.486 0-28.284 11.332-11.333 17.573-26.4 17.573-42.426 0-16.027-6.241-31.094-17.573-42.426-7.799-7.798-7.799-20.486 0-28.285 7.816-7.816 20.467-7.817 28.283 0 .001.001.003.002.004.004 26.44 26.442 41.001 61.598 41.001 98.992.001 30.641-9.783 59.776-27.863 83.85zm-112.136 56.148c-16.443 0-32.451-2.818-47.478-8.221 1.746-1.392 3.437-2.885 5.052-4.5 23.394-23.394 23.394-61.459-.001-84.854-3.777-3.777-5.857-8.799-5.857-14.142 0-5.342 2.08-10.364 5.858-14.142 11.332-11.333 17.573-26.4 17.573-42.426 0-16.027-6.241-31.094-17.574-42.427-7.811-7.81-20.474-7.81-28.284 0-7.811 7.811-7.81 20.474.001 28.285 3.777 3.777 5.857 8.799 5.857 14.142 0 5.342-2.08 10.364-5.858 14.142-11.332 11.333-17.573 26.4-17.573 42.426 0 16.027 6.241 31.094 17.573 42.426 7.799 7.798 7.799 20.486 0 28.285-7.816 7.816-20.467 7.816-28.283 0-.003-.003-.006-.005-.008-.007-26.438-26.442-40.998-61.596-40.998-98.988 0-77.341 62.659-140 140-140 16.442 0 32.449 2.817 47.475 8.22-1.75 1.399-3.441 2.893-5.05 4.501-23.394 23.394-23.394 61.459.001 84.854 3.777 3.777 5.857 8.799 5.857 14.142 0 5.342-2.08 10.364-5.858 14.142-23.394 23.395-23.394 61.459 0 84.853l41.425 41.426c-24.072 18.079-53.208 27.863-83.85 27.863z"/></g></svg>