<svg id="Capa_1" enable-background="new 0 0 512 512" height="512" viewBox="0 0 512 512" width="512" xmlns="http://www.w3.org/2000/svg"><g id="Gym_Machine_1_"><path d="m452 0c-33.084 0-60 26.916-60 60v20h-40v-20c0-11.046-8.954-20-20-20s-20 8.954-20 20v20h-112v-20c0-11.046-8.954-20-20-20s-20 8.954-20 20v20h-40v-20c0-33.084-26.916-60-60-60s-60 26.916-60 60v80c0 33.084 26.916 60 60 60s60-26.916 60-60v-20h40v123.44c-23.278 8.256-40 30.487-40 56.56 0 33.084 26.916 60 60 60h152c33.084 0 60-26.916 60-60 0-26.073-16.722-48.303-40-56.56v-123.44h40v20c0 33.084 26.916 60 60 60s60-26.916 60-60v-80c0-33.084-26.916-60-60-60zm-372 140c0 11.028-8.972 20-20 20s-20-8.972-20-20v-80c0-11.028 8.972-20 20-20s20 8.972 20 20zm252 180h-152c-11.028 0-20-8.972-20-20s8.972-20 20-20h151.995.005.002c11.027.001 19.998 8.973 19.998 20 0 11.028-8.972 20-20 20zm-20-80h-112v-120h112zm160-100c0 11.028-8.972 20-20 20s-20-8.972-20-20v-80c0-11.028 8.972-20 20-20s20 8.972 20 20z"/><path d="m492 472h-140v-52c0-11.046-8.954-20-20-20s-20 8.954-20 20v52h-112v-52c0-11.046-8.954-20-20-20s-20 8.954-20 20v52h-140c-11.046 0-20 8.954-20 20s8.954 20 20 20h472c11.046 0 20-8.954 20-20s-8.954-20-20-20z"/></g></svg>