<svg id="Capa_1" enable-background="new 0 0 512 512" height="512" viewBox="0 0 512 512" width="512" xmlns="http://www.w3.org/2000/svg"><g id="Gym_Gloves"><path d="m490.142 222.426-56.568-56.568c-7.811-7.811-20.476-7.811-28.284 0l-29.29 29.289v-135.147c0-33.084-26.916-60-60-60h-240c-33.084 0-60 26.916-60 60v240c0 31.569 15.073 61.25 40 80v72c0 33.084 26.916 60 60 60h160c33.084 0 60-26.916 60-60v-58.868c12.646-4.961 24.248-12.527 34.143-22.421l120-120c7.81-7.811 7.81-20.474-.001-28.285zm-148.285 120c-11.04 11.041-25.995 17.574-42.426 17.574h-143.431c-11.046 0-20 8.954-20 20s8.954 20 20 20h140v52c0 11.028-8.972 20-20 20h-160c-11.028 0-20-8.972-20-20v-82.703c0-7.139-3.806-13.737-9.985-17.312-18.514-10.709-30.015-30.629-30.015-51.985v-240c0-11.028 8.972-20 20-20h20v60c0 11.046 8.954 20 20 20s20-8.954 20-20v-60h40v60c0 11.046 8.954 20 20 20s20-8.954 20-20v-60h40v60c0 11.046 8.954 20 20 20s20-8.954 20-20v-60h20c11.028 0 20 8.972 20 20v183.432c0 8.089 4.873 15.382 12.347 18.478 7.473 3.095 16.075 1.386 21.796-4.335l49.289-49.29 28.284 28.284z"/><g><path d="m216 320h-40c-44.112 0-80-35.888-80-80s35.888-80 80-80h40c44.112 0 80 35.888 80 80s-35.888 80-80 80zm-40-120c-22.056 0-40 17.944-40 40s17.944 40 40 40h40c22.056 0 40-17.944 40-40s-17.944-40-40-40z"/></g></g></svg>