<svg id="Capa_1" enable-background="new 0 0 512 512" height="512" viewBox="0 0 512 512" width="512" xmlns="http://www.w3.org/2000/svg"><g id="Gym_Machine_2_"><path d="m492 472h-216v-72h100c11.046 0 20-8.954 20-20s-8.954-20-20-20h-20v-120c0-44.112-35.888-80-80-80v-80h80c22.056 0 40 17.944 40 40v20c0 11.046 8.954 20 20 20s20-8.954 20-20v-20c0-44.112-35.888-80-80-80h-80v-20c0-11.046-8.954-20-20-20s-20 8.954-20 20v20h-80c-44.112 0-80 35.888-80 80v20c0 11.046 8.954 20 20 20s20-8.954 20-20v-20c0-22.056 17.944-40 40-40h80v80c-44.112 0-80 35.888-80 80v120h-20c-11.046 0-20 8.954-20 20s8.954 20 20 20h100v72h-216c-11.046 0-20 8.954-20 20s8.954 20 20 20h472c11.046 0 20-8.954 20-20s-8.954-20-20-20zm-296-232c0-22.056 17.944-40 40-40h40c22.056 0 40 17.944 40 40v120h-120z"/><g><path d="m96 200c-11.046 0-20 8.954-20 20v20h-20c-11.046 0-20 8.954-20 20s8.954 20 20 20h20v20c0 11.046 8.954 20 20 20s20-8.954 20-20v-80c0-11.046-8.954-20-20-20z"/><path d="m456 240h-20v-20c0-11.046-8.954-20-20-20s-20 8.954-20 20v80c0 11.046 8.954 20 20 20s20-8.954 20-20v-20h20c11.046 0 20-8.954 20-20s-8.954-20-20-20z"/></g></g></svg>