<svg id="Capa_1" enable-background="new 0 0 512 512" height="512" viewBox="0 0 512 512" width="512" xmlns="http://www.w3.org/2000/svg"><g id="Gym"><path d="m336 0c-11.046 0-20 8.954-20 20v20h-120v-20c0-11.046-8.954-20-20-20s-20 8.954-20 20v80c0 11.046 8.954 20 20 20s20-8.954 20-20v-20h120v20c0 11.046 8.954 20 20 20s20-8.954 20-20v-80c0-11.046-8.954-20-20-20z"/><path d="m492 472h-20v-192h20c11.046 0 20-8.954 20-20s-8.954-20-20-20h-20c0-44.112-35.888-80-80-80h-272c-44.112 0-80 35.888-80 80h-20c-11.046 0-20 8.954-20 20s8.954 20 20 20h20v192h-20c-11.046 0-20 8.954-20 20s8.954 20 20 20h472c11.046 0 20-8.954 20-20s-8.954-20-20-20zm-60-76h-56c-11.028 0-20-8.972-20-20s8.972-20 20-20h56zm-352-116h292c11.046 0 20-8.954 20-20s-8.954-20-20-20h-292c0-22.056 17.944-40 40-40h272c22.056 0 40 17.944 40 40v76h-56c-33.084 0-60 26.916-60 60s26.916 60 60 60h56v36h-156v-96c0-33.084-26.916-60-60-60h-36c-33.084 0-60 26.916-60 60v96h-40zm156 192h-76v-96c0-11.028 8.972-20 20-20h36c11.028 0 20 8.972 20 20z"/></g></svg>