<svg id="Capa_1" enable-background="new 0 0 512 512" height="512" viewBox="0 0 512 512" width="512" xmlns="http://www.w3.org/2000/svg"><g id="Gymnastic_Rings"><path d="m492 16h-472c-11.046 0-20 8.954-20 20s8.954 20 20 20h96v242.011c-45.589 9.291-80 49.696-80 97.989 0 55.14 44.86 100 100 100s100-44.86 100-100c0-48.293-34.411-88.698-80-97.989v-242.011h336c11.046 0 20-8.954 20-20s-8.954-20-20-20zm-296 380c0 33.084-26.916 60-60 60s-60-26.916-60-60 26.916-60 60-60 60 26.916 60 60z"/><path d="m396 298.011v-182.011c0-11.046-8.954-20-20-20s-20 8.954-20 20v182.011c-45.589 9.291-80 49.697-80 97.989 0 55.14 44.86 100 100 100s100-44.86 100-100c0-48.293-34.411-88.698-80-97.989zm-20 157.989c-33.084 0-60-26.916-60-60s26.916-60 60-60 60 26.916 60 60-26.916 60-60 60z"/></g></svg>