<svg id="Capa_1" enable-background="new 0 0 512 512" height="512" viewBox="0 0 512 512" width="512" xmlns="http://www.w3.org/2000/svg"><g id="Holiday"><g><circle cx="140" cy="140" r="20"/></g><g><path d="m492 472h-20v-52c0-33.084-26.916-60-60-60h-72c-33.084 0-60 26.916-60 60v52h-20c-11.046 0-20 8.954-20 20s8.954 20 20 20h232c11.046 0 20-8.954 20-20s-8.954-20-20-20zm-172-52c0-11.028 8.972-20 20-20h72c11.028 0 20 8.972 20 20v52h-112z"/><path d="m280 300c0-11.89-3.476-23.389-10.053-33.254l-22.327-33.49c19.224-10.009 32.38-30.125 32.38-53.256 0-11.89-3.476-23.389-10.053-33.254l-80-120c-11.165-16.747-29.837-26.746-49.947-26.746s-38.782 9.999-49.947 26.746l-80 120c-6.577 9.865-10.053 21.364-10.053 33.254 0 23.131 13.156 43.247 32.38 53.256l-22.327 33.49c-6.577 9.865-10.053 21.364-10.053 33.254 0 33.084 26.916 60 60 60h160c33.084 0 60-26.916 60-60zm-81.896-68.906 38.561 57.84c2.182 3.273 3.335 7.099 3.335 11.066 0 11.028-8.972 20-20 20h-160c-11.028 0-20-8.972-20-20 0-3.967 1.153-7.793 3.335-11.066l32.623-48.934h64.042c11.046 0 20-8.954 20-20s-8.954-20-20-20h-80c-11.028 0-20-8.972-20-20 0-3.967 1.153-7.793 3.335-11.066l80-120c3.729-5.594 9.959-8.934 16.665-8.934s12.936 3.34 16.665 8.934l80 120c2.182 3.273 3.335 7.099 3.335 11.066 0 11.028-8.972 20-20 20h-5.254c-7.376 0-14.153 4.06-17.633 10.563-3.481 6.503-3.1 14.394.991 20.531z"/><path d="m180 472h-20v-52c0-11.046-8.954-20-20-20s-20 8.954-20 20v52h-20c-11.046 0-20 8.954-20 20s8.954 20 20 20h80c11.046 0 20-8.954 20-20s-8.954-20-20-20z"/></g></g></svg>