<svg id="Capa_1" enable-background="new 0 0 512 512" height="512" viewBox="0 0 512 512" width="512" xmlns="http://www.w3.org/2000/svg"><g id="Id_card"><g><g><path d="m412 496h-312c-55.141 0-100-44.86-100-100v-200c0-55.14 44.859-100 100-100h40c11.046 0 20 8.954 20 20s-8.954 20-20 20h-40c-33.084 0-60 26.916-60 60v200c0 33.084 26.916 60 60 60h312c33.084 0 60-26.916 60-60v-200c0-33.084-26.916-60-60-60h-36c-11.046 0-20-8.954-20-20s8.954-20 20-20h36c55.141 0 100 44.86 100 100v200c0 55.14-44.859 100-100 100z"/></g><g><path d="m256 176c-33.084 0-60-26.916-60-60v-80c0-11.046 8.954-20 20-20h80c11.046 0 20 8.954 20 20v80c0 33.084-26.916 60-60 60zm-20-120v60c0 11.028 8.972 20 20 20s20-8.972 20-20v-60z"/></g><g><path d="m176 416h-36c-33.084 0-60-26.916-60-60v-80c0-33.084 26.916-60 60-60h36c33.084 0 60 26.916 60 60v80c0 33.084-26.916 60-60 60zm-36-160c-11.028 0-20 8.972-20 20v80c0 11.028 8.972 20 20 20h36c11.028 0 20-8.972 20-20v-80c0-11.028-8.972-20-20-20z"/></g><g><path d="m412 256h-116c-11.046 0-20-8.954-20-20s8.954-20 20-20h116c11.046 0 20 8.954 20 20s-8.954 20-20 20z"/></g><g><path d="m412 336h-116c-11.046 0-20-8.954-20-20s8.954-20 20-20h116c11.046 0 20 8.954 20 20s-8.954 20-20 20z"/></g><g><path d="m412 416h-116c-11.046 0-20-8.954-20-20s8.954-20 20-20h116c11.046 0 20 8.954 20 20s-8.954 20-20 20z"/></g></g></g></svg>