<svg id="Capa_1" enable-background="new 0 0 512 512" height="512" viewBox="0 0 512 512" width="512" xmlns="http://www.w3.org/2000/svg"><g id="Id_Card_2_"><g><path d="m236 256c0-33.084-26.916-60-60-60s-60 26.916-60 60 26.916 60 60 60 60-26.916 60-60zm-60 20c-11.028 0-20-8.972-20-20s8.972-20 20-20 20 8.972 20 20-8.972 20-20 20z"/><path d="m196 316h-20-20c-44.112 0-80 35.888-80 80v16c0 11.046 8.954 20 20 20s20-8.954 20-20v-16c0-22.056 17.944-40 40-40h40c11.767 0 22.889 5.152 30.515 14.136 7.147 8.421 19.77 9.452 28.19 2.304 8.421-7.148 9.452-19.769 2.304-28.19-15.239-17.953-37.477-28.25-61.009-28.25z"/><path d="m412 0h-176c-44.112 0-80 35.888-80 80h-76c-44.112 0-80 35.888-80 80v272c0 44.112 35.888 80 80 80h138.828c11.046 0 20-8.954 20-20s-8.954-20-20-20h-138.828c-22.056 0-40-17.944-40-40v-272c0-22.056 17.944-40 40-40h76v20c0 11.046 8.954 20 20 20s20-8.954 20-20v-20h76c22.056 0 40 17.944 40 40v172c0 11.046 8.954 20 20 20s20-8.954 20-20v-172c0-44.112-35.888-80-80-80h-76c0-22.056 17.944-40 40-40h96c33.084 0 60 26.916 60 60v76c0 33.084 26.916 60 60 60s60-26.916 60-60v-76c0-55.14-44.859-100-100-100zm60 176c0 11.028-8.972 20-20 20s-20-8.972-20-20v-76c0-22.491-7.467-43.276-20.047-60h.047c33.084 0 60 26.916 60 60z"/></g><path d="m360.285 452 25.858-25.858c7.811-7.811 7.811-20.474 0-28.284s-20.475-7.811-28.285 0l-25.858 25.857-25.857-25.857c-7.811-7.811-20.475-7.811-28.285 0s-7.811 20.474 0 28.284l25.857 25.858-25.858 25.858c-7.811 7.811-7.811 20.474 0 28.284 7.81 7.81 20.475 7.81 28.285 0l25.858-25.857 25.857 25.857c7.81 7.81 20.475 7.81 28.285 0 7.811-7.811 7.811-20.474 0-28.284z"/></g></svg>