<svg id="Capa_1" enable-background="new 0 0 512 512" height="512" viewBox="0 0 512 512" width="512" xmlns="http://www.w3.org/2000/svg"><g id="Id_Card"><g><path d="m452 512h-392c-33.084 0-60-26.916-60-60v-232c0-33.084 26.916-60 60-60h116c11.046 0 20 8.954 20 20s-8.954 20-20 20h-116c-11.028 0-20 8.972-20 20v232c0 11.028 8.972 20 20 20h392c11.028 0 20-8.972 20-20v-232c0-11.028-8.972-20-20-20h-116c-11.046 0-20-8.954-20-20s8.954-20 20-20h116c33.084 0 60 26.916 60 60v232c0 33.084-26.916 60-60 60z"/></g><g><path d="m412 356h-76c-11.046 0-20-8.954-20-20s8.954-20 20-20h76c11.046 0 20 8.954 20 20s-8.954 20-20 20z"/></g><g><path d="m412 280h-76c-11.046 0-20-8.954-20-20s8.954-20 20-20h76c11.046 0 20 8.954 20 20s-8.954 20-20 20z"/></g><g><path d="m412 432h-76c-11.046 0-20-8.954-20-20s8.954-20 20-20h76c11.046 0 20 8.954 20 20s-8.954 20-20 20z"/></g><path d="m416 0c-11.046 0-20 8.954-20 20 0 33.084-26.916 60-60 60-32.676 0-61.741 15.755-80 40.066-18.259-24.311-47.324-40.066-80-40.066-33.084 0-60-26.916-60-60 0-11.046-8.954-20-20-20s-20 8.954-20 20c0 55.14 44.86 100 100 100 33.084 0 60 26.916 60 60 0 11.046 8.954 20 20 20s20-8.954 20-20c0-33.084 26.916-60 60-60 55.14 0 100-44.86 100-100 0-11.046-8.954-20-20-20z"/><g><path d="m176 356c-33.084 0-60-26.916-60-60s26.916-60 60-60 60 26.916 60 60-26.916 60-60 60zm0-80c-11.028 0-20 8.972-20 20s8.972 20 20 20 20-8.972 20-20-8.972-20-20-20z"/></g><g><path d="m227.985 426.015c-10.71-18.514-30.629-30.015-51.985-30.015s-41.275 11.501-51.985 30.015c-5.531 9.561-17.765 12.829-27.327 7.297-9.561-5.531-12.828-17.765-7.297-27.327 17.836-30.832 51.022-49.985 86.609-49.985s68.773 19.153 86.609 49.985c5.531 9.561 2.264 21.796-7.297 27.327s-21.795 2.264-27.327-7.297z"/></g></g></svg>