<svg id="Capa_1" enable-background="new 0 0 512 512" height="512" viewBox="0 0 512 512" width="512" xmlns="http://www.w3.org/2000/svg"><g id="Jumping_Rope"><g><path d="m156 280h-120c-11.046 0-20 8.954-20 20s8.954 20 20 20h20v132c0 33.084 26.916 60 60 60s60-26.916 60-60v-152c0-11.046-8.954-20-20-20zm-20 172c0 11.028-8.972 20-20 20s-20-8.972-20-20v-132h40z"/><path d="m356 280h-120c-11.046 0-20 8.954-20 20v152c0 33.084 26.916 60 60 60s60-26.916 60-60v-132h20c11.046 0 20-8.954 20-20s-8.954-20-20-20zm-60 172c0 11.028-8.972 20-20 20s-20-8.972-20-20v-132h40z"/></g><g><path d="m416 240c-44.112 0-80-35.888-80-80v-20c0-11.028-8.972-20-20-20s-20 8.972-20 20v80c0 11.046-8.954 20-20 20s-20-8.954-20-20v-80c0-33.084 26.916-60 60-60s60 26.916 60 60v20c0 22.056 17.944 40 40 40s40-17.944 40-40c0-66.168-53.832-120-120-120h-80c-66.168 0-120 53.832-120 120v60c0 11.046-8.954 20-20 20s-20-8.954-20-20v-60c0-88.224 71.776-160 160-160h80c88.224 0 160 71.776 160 160 0 44.112-35.888 80-80 80z"/></g></g></svg>