<svg id="Capa_1" enable-background="new 0 0 512 512" height="512" viewBox="0 0 512 512" width="512" xmlns="http://www.w3.org/2000/svg"><g id="Location"><path d="m316 140v-40c0-11.046-8.954-20-20-20h-80c-11.046 0-20 8.954-20 20v40c0 26.073 16.722 48.303 40 56.56v43.44h-20c-11.046 0-20 8.954-20 20s8.954 20 20 20h80c11.046 0 20-8.954 20-20s-8.954-20-20-20h-20v-43.44c23.278-8.257 40-30.487 40-56.56zm-80-20h40v20c0 11.028-8.972 20-20 20s-20-8.972-20-20z"/><g><path d="m256 432c-18.671 0-36.519-8.872-47.812-23.747 0 0-96.14-120.173-96.265-120.339-23.501-31.333-35.923-68.649-35.923-107.914 0-99.252 80.748-180 180-180s180 80.748 180 180c0 39.265-12.422 76.581-35.923 107.914-.125.167-.252.331-.382.494l-95.882 119.845c-11.294 14.875-29.142 23.747-47.813 23.747zm-112.259-168.33s96.114 120.141 96.239 120.308c3.824 5.098 9.663 8.022 16.02 8.022s12.195-2.924 16.02-8.022c.125-.167.252-.331.382-.494l95.857-119.814c18.15-24.304 27.741-53.229 27.741-83.67 0-77.196-62.804-140-140-140s-140 62.804-140 140c0 30.441 9.591 59.366 27.741 83.67zm240.336 12.243h.01z"/></g><g><path d="m256 512c-55.315 0-107.58-6.541-147.168-18.417-20.455-6.136-36.834-13.51-48.685-21.915-19.958-14.155-24.147-29.385-24.147-39.668 0-10.575 4.422-26.203 25.489-40.603 12.534-8.567 29.823-16.023 51.389-22.162 10.623-3.024 21.687 3.135 24.712 13.76 3.024 10.624-3.136 21.688-13.76 24.712-35.703 10.163-46.413 21.26-47.751 24.293 1.365 3.107 12.434 14.495 49.468 24.776 35.362 9.818 81.691 15.224 130.453 15.224s95.091-5.406 130.453-15.223c37.034-10.281 48.103-21.669 49.468-24.776-1.337-3.032-12.045-14.128-47.741-24.292-10.623-3.025-16.783-14.089-13.758-24.712 3.025-10.624 14.09-16.782 24.712-13.759 21.562 6.139 38.85 13.596 51.381 22.162 21.064 14.399 25.485 30.026 25.485 40.6 0 10.283-4.189 25.513-24.146 39.668-11.851 8.405-28.23 15.779-48.685 21.915-39.589 11.876-91.854 18.417-147.169 18.417zm180.031-79.697h.01z"/></g></g></svg>