<svg id="Capa_1" enable-background="new 0 0 511.772 511.772" height="512" viewBox="0 0 511.772 511.772" width="512" xmlns="http://www.w3.org/2000/svg"><path d="m213.728 451.478c-.575-.731.664.636 0 0zm256.147-237.083c2.867 70.598-94.61 205.464-139.901 261.787-34.959 46.49-109.559 47.629-145.869 2.263-37.278-47.323-69.94-93.249-92.972-132.037-33.146-55.824-49.258-99.006-49.258-132.013-2.368-115.21 98.745-216.723 214.002-214.354 115.345-2.377 216.395 99.016 213.998 214.354zm-40 0c-8.863-231.017-339.285-230.887-348 .002 0 44.212 49.211 131.85 131.853 237.08 10.292 13.064 25.737 20.557 42.375 20.557 16.665-.001 32.137-7.51 42.451-20.604 83.456-105.945 131.321-192.342 131.321-237.035zm-174-124.356c-66.168 0-120 53.832-120 120 6.033 158.978 233.991 158.934 240-.002 0-66.166-53.831-119.998-120-119.998zm-14.339 198.713.196-.156-9.885-25.758c-2.93-7.634-10.344-11.987-18.519-11.792h-26.123c-5.466-9.119-9.167-19.411-10.629-30.401l22.219-16.783c6.252-5.107 8.617-13.594 5.908-21.199l-9.007-25.28c7.688-8.775 17.259-15.86 28.076-20.618l21.616 14.958c6.724 4.653 15.301 4.067 21.943-.703l20.79-14.193c10.807 4.778 20.365 11.882 28.037 20.673l-8.965 25.162c-2.709 7.605-.344 16.092 5.908 21.199l22.088 16.684c-1.453 11.027-5.16 21.354-10.642 30.5h-26.123c-8.175-.194-15.589 4.158-18.519 11.792l-9.885 25.758.196.156c-9.258 1.711-19.423 1.711-28.68.001zm24.345-48.713h-19.567c-7.303 0-13.788-4.613-16.109-11.457l-6.448-19.017c-2.361-6.963.129-14.635 6.148-18.94l15.931-11.397c5.811-4.157 13.638-4.259 19.558-.254l16.087 10.885c6.12 4.141 8.815 11.726 6.659 18.74l-6.004 19.529c-2.174 7.075-8.775 11.911-16.255 11.911z"/></svg>