<svg id="Capa_1" enable-background="new 0 0 512 512" height="512" viewBox="0 0 512 512" width="512" xmlns="http://www.w3.org/2000/svg"><g><circle cx="336" cy="96" r="20"/><circle cx="416" cy="96" r="20"/><path d="m452 0h-392c-33.084 0-60 26.916-60 60v392c0 33.084 26.916 60 60 60h392c33.084 0 60-26.916 60-60v-196c0-11.046-8.954-20-20-20s-20 8.954-20 20v196c0 11.028-8.972 20-20 20h-392c-11.028 0-20-8.972-20-20v-336h136c7.676 0 15.124 2.174 21.541 6.287l95.333 61.102c12.871 8.25 27.784 12.611 43.126 12.611h156c11.046 0 20-8.954 20-20v-116c0-33.084-26.916-60-60-60zm20 156h-136c-7.676 0-15.124-2.174-21.541-6.287l-95.333-61.102c-12.871-8.25-27.784-12.611-43.126-12.611h-136v-16c0-11.028 8.972-20 20-20h392c11.028 0 20 8.972 20 20z"/><path d="m180 176c-55.141 0-100 44.86-100 100 0 20.543 6.188 40.286 17.893 57.094l65.695 94.335c3.739 5.37 9.869 8.57 16.412 8.57s12.673-3.201 16.412-8.57l65.695-94.335c11.705-16.808 17.893-36.551 17.893-57.094 0-55.14-44.859-100-100-100zm49.283 134.235-49.283 70.768-49.283-70.768c-7.011-10.068-10.717-21.906-10.717-34.235 0-33.084 26.916-60 60-60s60 26.916 60 60c0 12.329-3.706 24.167-10.717 34.235z"/><circle cx="180" cy="276" r="20"/><path d="m277.489 436h58.511c33.084 0 60-26.916 60-60 0-11.046-8.954-20-20-20s-20 8.954-20 20c0 11.028-8.972 20-20 20h-58.511c-11.046 0-20 8.954-20 20s8.954 20 20 20z"/><path d="m410.143 241.858c-7.811-7.811-20.475-7.811-28.285 0l-5.858 5.857-5.857-5.857c-7.811-7.811-20.475-7.811-28.285 0s-7.81 20.474 0 28.284l5.858 5.858-5.858 5.858c-7.81 7.811-7.81 20.474 0 28.284s20.475 7.81 28.285 0l5.857-5.857 5.857 5.857c7.81 7.81 20.475 7.81 28.285 0 7.81-7.811 7.81-20.474 0-28.284l-5.857-5.858 5.858-5.858c7.809-7.81 7.809-20.474 0-28.284z"/></g></svg>