<svg id="Capa_1" enable-background="new 0 0 512.001 512.001" height="512" viewBox="0 0 512.001 512.001" width="512" xmlns="http://www.w3.org/2000/svg"><g><circle cx="100.001" cy="100" r="20"/><circle cx="412.001" cy="100" r="20"/><path d="m82.681 270.002c3.573 6.187 10.175 9.998 17.32 9.998s13.747-3.811 17.319-9.998l69.327-120.051c8.736-15.127 13.354-32.4 13.354-49.95 0-55.14-44.86-100-100-100s-100 44.86-100 100c0 17.551 4.618 34.823 13.354 49.95zm17.32-230.002c33.084 0 60 26.916 60 60 0 10.537-2.764 20.893-7.992 29.947l-52.008 90.059-52.008-90.06c-5.229-9.054-7.992-19.409-7.992-29.947 0-33.083 26.916-59.999 60-59.999z"/><path d="m412.001 0c-55.14 0-100 44.86-100 100 0 17.551 4.618 34.823 13.354 49.95l69.327 120.052c3.573 6.187 10.175 9.998 17.32 9.998s13.747-3.811 17.319-9.998l69.327-120.051c8.736-15.127 13.354-32.4 13.354-49.95-.001-55.141-44.861-100.001-100.001-100.001zm52.008 129.947-52.008 90.059-52.008-90.06c-5.229-9.054-7.992-19.409-7.992-29.947 0-33.084 26.916-60 60-60s60 26.916 60 60c0 10.538-2.764 20.894-7.992 29.948z"/><path d="m76.001 452.002v.002c.004 33.081 26.918 59.996 60 59.996h178.103c.01 0 .02.001.03.001s.021-.001.031-.001h61.836c33.083 0 59.999-26.916 60-60 0-99.234-80.766-180-180-180-99.255 0-180 80.745-180 180zm40-.002c0-6.79.496-13.465 1.435-20h59.012c-.294 6.596-.447 13.27-.447 20 0 6.699.154 13.378.45 20h-40.45c-11.028 0-20-8.972-20-20zm140-140c2.852 0 13.327 6.225 23.7 33.885 5.029 13.409 8.962 29.046 11.713 46.115h-70.825c2.75-17.069 6.684-32.705 11.713-46.115 10.372-27.66 20.847-33.885 23.699-33.885zm39.504 120c.319 6.572.495 13.243.495 20 0 6.711-.172 13.391-.496 20h-79.007c-.325-6.609-.496-13.289-.496-20 0-6.757.176-13.428.495-20zm80.496 40h-40.45c.296-6.622.45-13.301.45-20 0-6.73-.153-13.404-.447-20h59.012c.939 6.534 1.435 13.209 1.435 19.999-.001 11.029-8.973 20.001-20 20.001zm6.473-80h-50.619c-3.185-22.215-8.148-42.681-14.702-60.159-.923-2.461-1.862-4.82-2.815-7.091 5.92 2.725 11.623 5.844 17.065 9.337 21.977 14.101 39.766 34.178 51.071 57.913zm-184.812-67.25c-.953 2.271-1.892 4.63-2.815 7.091-6.554 17.478-11.517 37.944-14.702 60.159h-50.619c14.107-29.614 38.312-53.523 68.136-67.25z"/></g></svg>