<svg id="Capa_1" enable-background="new 0 0 512 512" height="512" viewBox="0 0 512 512" width="512" xmlns="http://www.w3.org/2000/svg"><g id="Location_2_"><g><path d="m256 280c-55.14 0-100-44.86-100-100s44.86-100 100-100c55.141 0 100 44.86 100 100s-44.859 100-100 100zm0-160c-33.084 0-60 26.916-60 60s26.916 60 60 60 60-26.916 60-60-26.916-60-60-60z"/></g><g><path d="m256 432c-18.673 0-36.521-8.872-47.814-23.75 0 0-96.138-120.17-96.263-120.336-23.501-31.333-35.923-68.649-35.923-107.914 0-99.252 80.748-180 180-180s180 80.748 180 180c0 39.266-12.422 76.582-35.924 107.914-.125.166-.252.331-.382.493l-95.883 119.846c-11.293 14.876-29.14 23.747-47.811 23.747zm-112.258-168.329s96.114 120.14 96.239 120.307c3.824 5.098 9.663 8.022 16.02 8.022s12.196-2.924 16.02-8.023c.125-.167.252-.331.382-.493l95.856-119.814c18.15-24.304 27.741-53.228 27.741-83.67 0-77.196-62.804-140-140-140s-140 62.804-140 140c0 30.441 9.592 59.367 27.742 83.671z"/></g><g><path d="m256 512c-45.076 0-87.75-6.693-120.16-18.847-49.458-18.547-59.84-43.492-59.84-61.153 0-14.153 6.886-34.69 39.689-52.159 9.75-5.192 21.862-1.498 27.054 8.252 5.192 9.749 1.498 21.862-8.252 27.053-14.626 7.79-18.491 14.431-18.491 16.854 0 2.852 6.225 13.327 33.885 23.7 28.031 10.511 65.716 16.3 106.115 16.3 40.398 0 78.084-5.789 106.114-16.3 27.66-10.373 33.886-20.848 33.886-23.7 0-2.424-3.866-9.067-18.5-16.858-9.75-5.191-13.446-17.303-8.256-27.053 5.191-9.75 17.303-13.447 27.053-8.255 32.815 17.47 39.703 38.011 39.703 52.166 0 17.661-10.382 42.606-59.841 61.153-32.409 12.154-75.083 18.847-120.159 18.847z"/></g></g></svg>