<svg id="Capa_1" enable-background="new 0 0 512 512" height="512" viewBox="0 0 512 512" width="512" xmlns="http://www.w3.org/2000/svg"><g><path d="m316 140c0-33.084-26.916-60-60-60s-60 26.916-60 60 26.916 60 60 60 60-26.916 60-60zm-60 20c-11.028 0-20-8.972-20-20s8.972-20 20-20 20 8.972 20 20-8.972 20-20 20z"/><g><path d="m336 320h-160c-15.264 0-24.909-16.462-17.447-29.778l27.623-49.29c14.148-25.248 40.903-40.932 69.824-40.932s55.676 15.685 69.824 40.933l27.623 49.289c7.462 13.316-2.183 29.778-17.447 29.778zm-125.865-40h91.73l-10.936-19.512c-7.08-12.638-20.465-20.488-34.929-20.488s-27.849 7.85-34.93 20.487v.001z"/></g><path d="m36 300c0 55.14 44.859 100 100 100h80c11.028 0 20 8.972 20 20 0 11.046 8.954 20 20 20s20-8.954 20-20c0-11.028 8.972-20 20-20h80c55.141 0 100-44.86 100-100v-200c0-55.14-44.859-100-100-100h-240c-55.141 0-100 44.86-100 100zm40-200c0-33.084 26.916-60 60-60h240c33.084 0 60 26.916 60 60v200c0 33.084-26.916 60-60 60h-80c-15.353 0-29.377 5.796-40 15.315-10.623-9.519-24.647-15.315-40-15.315h-80c-33.084 0-60-26.916-60-60z"/><path d="m136 472c-11.046 0-20 8.954-20 20s8.954 20 20 20h240c11.046 0 20-8.954 20-20s-8.954-20-20-20z"/></g></svg>