<svg id="Capa_1" enable-background="new 0 0 512 512" height="512" viewBox="0 0 512 512" width="512" xmlns="http://www.w3.org/2000/svg"><g id="Location"><g><path d="m256 512c-28.423 0-54.92-15.263-69.207-39.851 0 0-104.032-172.148-104.099-172.263-17.463-30.241-26.694-64.782-26.694-99.886 0-110.28 89.72-200 200-200s200 89.72 200 200c0 35.104-9.231 69.645-26.694 99.886-.067.115-104.099 172.263-104.099 172.263-14.287 24.588-40.784 39.851-69.207 39.851zm-138.761-232.281s104.019 172.126 104.085 172.24c7.139 12.362 20.426 20.041 34.676 20.041s27.537-7.679 34.675-20.04c.066-.115 104.085-172.24 104.085-172.24 13.896-24.13 21.24-51.692 21.24-79.72 0-88.224-71.776-160-160-160s-160 71.776-160 160c0 28.028 7.344 55.59 21.239 79.719zm294.747 10.166h.01z"/></g><g><path d="m334.995 121.005c-25.092-25.089-60.278-41.005-98.995-41.005-11.046 0-20 8.954-20 20s8.954 20 20 20c20.353 0 39.301 6.117 55.114 16.602l-119.967 119.967c-7.811 7.81-7.811 20.474 0 28.284s20.474 7.811 28.284 0l119.967-119.966c10.485 15.812 16.602 34.76 16.602 55.113 0 11.046 8.954 20 20 20s20-8.954 20-20c0-38.616-15.847-73.841-41.005-98.995z"/><circle cx="296" cy="300" r="20"/></g></g></svg>