<svg id="Capa_1" enable-background="new 0 0 512 512" height="512" viewBox="0 0 512 512" width="512" xmlns="http://www.w3.org/2000/svg"><g><path d="m320 176c0 11.046 8.954 20 20 20h72c11.046 0 20-8.954 20-20s-8.954-20-20-20h-72c-11.046 0-20 8.954-20 20z"/><path d="m472 116c0 11.046 8.954 20 20 20s20-8.954 20-20c0-33.084-26.916-60-60-60h-392c-33.084 0-60 26.916-60 60v280c0 33.084 26.916 60 60 60h392c33.084 0 60-26.916 60-60v-200c0-11.046-8.954-20-20-20s-20 8.954-20 20v200c0 11.028-8.972 20-20 20h-392c-11.028 0-20-8.972-20-20v-280c0-11.028 8.972-20 20-20h392c11.028 0 20 8.972 20 20z"/><path d="m412 236h-72c-11.046 0-20 8.954-20 20s8.954 20 20 20h72c11.046 0 20-8.954 20-20s-8.954-20-20-20z"/><path d="m412 316h-72c-11.046 0-20 8.954-20 20s8.954 20 20 20h72c11.046 0 20-8.954 20-20s-8.954-20-20-20z"/><path d="m275.105 225.098c-2.353-7.24-8.611-12.517-16.145-13.612l-42.168-6.127-18.858-38.21c-3.369-6.827-10.321-11.149-17.934-11.149s-14.565 4.322-17.935 11.149l-18.858 38.21-42.168 6.127c-7.534 1.095-13.792 6.372-16.145 13.612s-.391 15.188 5.061 20.502l30.513 29.743-7.203 41.998c-1.287 7.503 1.798 15.087 7.957 19.561 6.16 4.475 14.324 5.065 21.062 1.522l37.716-19.829 37.716 19.828c6.739 3.543 14.903 2.953 21.062-1.522s9.243-12.058 7.957-19.561l-7.203-41.998 30.513-29.743c5.451-5.313 7.413-13.261 5.06-20.501zm-71.023 28.941c-4.713 4.595-6.864 11.215-5.751 17.703l2.13 12.42-11.154-5.864c-5.826-3.063-12.787-3.063-18.613 0l-11.154 5.864 2.13-12.42c1.113-6.488-1.038-13.108-5.751-17.703l-9.023-8.795 12.47-1.812c6.514-.947 12.146-5.038 15.059-10.941l5.575-11.3 5.577 11.299c2.913 5.903 8.544 9.994 15.059 10.941l12.47 1.812z"/></g></svg>