<svg id="Capa_1" enable-background="new 0 0 512 512" height="512" viewBox="0 0 512 512" width="512" xmlns="http://www.w3.org/2000/svg"><g id="Passport_1_"><path d="m216 76c-77.196 0-140 62.804-140 140s62.804 140 140 140 140-62.804 140-140-62.804-140-140-140zm97.989 120h-38.507c-1.262-24.255-4.859-47.745-10.975-67.42 25.09 13.978 43.576 38.437 49.482 67.42zm-117.414 40h38.849c-2.545 43.399-12.971 69.987-19.425 78.185-6.453-8.198-16.879-34.786-19.424-78.185zm0-40c2.545-43.399 12.971-69.987 19.425-78.185 6.454 8.198 16.88 34.786 19.425 78.185zm-29.082-67.42c-6.116 19.675-9.714 43.165-10.975 67.42h-38.507c5.906-28.983 24.392-53.442 49.482-67.42zm-49.482 107.42h38.507c1.262 24.255 4.859 47.745 10.975 67.42-25.09-13.978-43.576-38.437-49.482-67.42zm146.496 67.42c6.116-19.675 9.714-43.165 10.975-67.42h38.507c-5.906 28.983-24.392 53.442-49.482 67.42z"/><g><path d="m296 392h-160c-11.046 0-20 8.954-20 20s8.954 20 20 20h160c11.046 0 20-8.954 20-20s-8.954-20-20-20z"/><path d="m452 80h-20v-20c0-33.084-26.916-60-60-60h-272c-55.14 0-100 44.86-100 100v312c0 55.14 44.86 100 100 100h272c33.084 0 60-26.916 60-60v-20h20c33.084 0 60-26.916 60-60v-232c0-33.084-26.916-60-60-60zm20 292c0 11.028-8.972 20-20 20h-20v-212c0-11.046-8.954-20-20-20s-20 8.954-20 20v272c0 11.028-8.972 20-20 20h-272c-33.084 0-60-26.916-60-60v-312c0-33.084 26.916-60 60-60h272c11.028 0 20 8.972 20 20v40c0 11.046 8.954 20 20 20h40c11.028 0 20 8.972 20 20z"/></g></g></svg>