<svg id="Capa_1" enable-background="new 0 0 512 512" height="512" viewBox="0 0 512 512" width="512" xmlns="http://www.w3.org/2000/svg"><g id="Passport"><g><path d="m452 512h-392c-33.084 0-60-26.916-60-60 0-4.136.426-8.274 1.266-12.299l38.33-179.66c.262-1.257.404-2.645.404-4.041s-.142-2.784-.422-4.127l-38.293-179.487c-.859-4.112-1.285-8.25-1.285-12.386 0-33.084 26.916-60 60-60h392c33.084 0 60 26.916 60 60 0 4.136-.426 8.274-1.266 12.299l-38.33 179.66c-.262 1.257-.404 2.645-.404 4.041s.142 2.784.422 4.127l38.293 179.486c.006.029.013.058.019.087.84 4.025 1.266 8.164 1.266 12.299 0 33.085-26.916 60.001-60 60.001zm-392-472c-11.028 0-20 8.972-20 20 0 1.396.142 2.784.422 4.127l38.293 179.486c.859 4.113 1.285 8.251 1.285 12.387s-.426 8.274-1.266 12.299l-38.33 179.66c-.262 1.257-.404 2.645-.404 4.041 0 11.028 8.972 20 20 20h392c11.028 0 20-8.972 20-20 0-1.385-.14-2.764-.416-4.098l-38.299-179.516c-.859-4.112-1.285-8.25-1.285-12.386s.426-8.274 1.266-12.299l38.33-179.66c.262-1.257.404-2.645.404-4.041 0-11.028-8.972-20-20-20z"/></g><g><path d="m376 276h-240c-11.046 0-20-8.954-20-20s8.954-20 20-20h240c11.046 0 20 8.954 20 20s-8.954 20-20 20z"/></g><path d="m336 116h-127.639l-14.472-28.944c-4.939-9.88-16.953-13.884-26.833-8.944-9.879 4.94-13.884 16.954-8.944 26.833l20 40c3.388 6.775 10.313 11.055 17.888 11.055h51.716l-5.858 5.858c-7.811 7.811-7.811 20.474 0 28.284 7.811 7.811 20.474 7.811 28.284 0l34.142-34.142h31.716c11.046 0 20-8.954 20-20s-8.954-20-20-20z"/><g><path d="m336 436c-33.084 0-60-26.916-60-60s26.916-60 60-60 60 26.916 60 60-26.916 60-60 60zm0-80c-11.028 0-20 8.972-20 20s8.972 20 20 20 20-8.972 20-20-8.972-20-20-20z"/></g><g><path d="m216 356h-80c-11.046 0-20-8.954-20-20s8.954-20 20-20h80c11.046 0 20 8.954 20 20s-8.954 20-20 20z"/></g><g><path d="m216 436h-80c-11.046 0-20-8.954-20-20s8.954-20 20-20h80c11.046 0 20 8.954 20 20s-8.954 20-20 20z"/></g></g></svg>