<svg id="Capa_1" enable-background="new 0 0 512 512" height="512" viewBox="0 0 512 512" width="512" xmlns="http://www.w3.org/2000/svg"><path d="m506.142 5.858c-7.811-7.811-20.474-7.811-28.284 0l-26.695 26.695c-16.221-10.771-35.247-16.553-55.163-16.553-26.69 0-51.783 10.385-70.665 29.244-11.079 11.078-68 72.667-130.836 140.97l-21.356-21.356c-7.811-7.811-20.474-7.811-28.284 0s-7.811 20.474 0 28.284l22.543 22.543c-77.768 84.623-155.964 170.047-162.155 176.811-7.458 8.148-6.898 20.799 1.25 28.257 8.147 7.459 20.799 6.898 28.256-1.249 2.23-2.438 171.025-186.835 262.763-286.01 3.518 20.056 13.077 38.52 27.774 53.217s33.161 24.256 53.217 27.774c-23.432 21.675-51.609 47.64-81.033 74.705l-37.332-37.332c-7.811-7.811-20.474-7.811-28.284 0-7.811 7.81-7.811 20.474 0 28.285l36.144 36.143c-86.635 79.611-173.835 159.432-175.505 160.961-8.148 7.458-8.708 20.108-1.25 28.257 3.945 4.31 9.342 6.496 14.758 6.496 4.823 0 9.661-1.734 13.498-5.247 6.764-6.19 92.189-84.387 176.811-162.154l15.543 15.544c7.811 7.811 20.474 7.811 28.284 0s7.811-20.475 0-28.285l-14.356-14.356c68.303-62.835 129.847-119.712 140.925-130.791.016-.015.03-.03.045-.045 18.86-18.883 29.245-43.976 29.245-70.666 0-19.916-5.782-38.942-16.553-55.163l26.695-26.695c7.811-7.81 7.811-20.474 0-28.284zm-67.716 152.568c-11.332 11.333-26.4 17.574-42.426 17.574s-31.094-6.241-42.426-17.574-17.574-26.4-17.574-42.426 6.241-31.094 17.574-42.426 26.4-17.574 42.426-17.574 31.094 6.241 42.426 17.574 17.574 26.4 17.574 42.426-6.241 31.094-17.574 42.426zm-22.426-42.426c0 11.046-8.954 20-20 20s-20-8.954-20-20 8.954-20 20-20 20 8.954 20 20z"/></svg>