<svg id="Capa_1" enable-background="new 0 0 512 512" height="512" viewBox="0 0 512 512" width="512" xmlns="http://www.w3.org/2000/svg"><g><path d="m120 412c0 11.046 8.954 20 20 20h232c11.046 0 20-8.954 20-20s-8.954-20-20-20h-20v-20c0-11.046-8.954-20-20-20s-20 8.954-20 20v20h-112v-20c0-11.046-8.954-20-20-20s-20 8.954-20 20v20h-20c-11.046 0-20 8.954-20 20z"/><path d="m421.946 298.746c-11.165-16.747-29.836-26.746-49.946-26.746h-36c-11.046 0-20 8.954-20 20s8.954 20 20 20h36c6.705 0 12.936 3.34 16.665 8.934l80 120.001c2.182 3.272 3.335 7.098 3.335 11.065 0 11.028-8.972 20-20 20h-392c-11.028 0-20-8.972-20-20 0-3.967 1.153-7.793 3.335-11.065l80-120c3.729-5.595 9.959-8.935 16.665-8.935h96v20c0 11.046 8.954 20 20 20s20-8.954 20-20v-134.011c45.59-9.291 80-49.697 80-97.989 0-55.14-44.859-100-100-100-55.14 0-100 44.86-100 100 0 48.293 34.411 88.698 80 97.989v74.011h-96c-20.11 0-38.782 9.999-49.947 26.746l-80 120c-6.577 9.866-10.053 21.364-10.053 33.254 0 33.084 26.916 60 60 60h392c33.084 0 60-26.916 60-60 0-11.891-3.477-23.39-10.054-33.254zm-225.946-198.746c0-33.084 26.916-60 60-60s60 26.916 60 60-26.916 60-60 60-60-26.916-60-60z"/></g></svg>