<svg id="Capa_1" enable-background="new 0 0 512 512" height="512" viewBox="0 0 512 512" width="512" xmlns="http://www.w3.org/2000/svg"><g><path d="m282.031 205.683-39.729 40.269c-7.757 7.863-7.672 20.526.191 28.284s20.526 7.672 28.284-.191l39.729-40.269c7.757-7.863 7.672-20.526-.191-28.284s-20.526-7.671-28.284.191z"/><path d="m362.616 278.128c10.434 3.629 21.832-1.885 25.461-12.317 5.614-16.134 8.292-31.428 8.189-46.756-.518-76.879-63.218-139.056-139.982-139.056-.315 0-.643.001-.958.003-77.194.521-139.573 63.746-139.053 140.941.104 15.326 2.988 30.582 8.818 46.64 3.77 10.384 15.242 15.744 25.625 11.973 10.382-3.77 15.743-15.242 11.974-25.625-4.247-11.696-6.346-22.574-6.418-33.259-.372-55.139 44.185-100.3 99.323-100.672 26.662-.163 51.892 10.052 70.907 28.812s29.585 43.801 29.766 70.511c.072 10.686-1.881 21.592-5.969 33.342-3.63 10.434 1.885 21.833 12.317 25.463z"/><path d="m211.478 492.223c11.365 12.573 27.572 19.777 44.522 19.777 16.951 0 33.159-7.205 44.524-19.78l119.533-125.783c36.075-40.376 55.943-92.382 55.943-146.437 0-121.308-98.691-220-220-220s-220 98.692-220 220c0 53.999 19.826 105.952 55.831 146.311zm44.522-452.223c99.252 0 180 80.748 180 180 0 44.111-16.182 86.559-45.572 119.562l-119.504 125.753c-3.852 4.311-9.152 6.685-14.924 6.685s-11.072-2.374-14.924-6.685l-119.496-125.744c-29.393-33.004-45.58-75.458-45.58-119.571 0-99.252 80.748-180 180-180z"/></g></svg>