<svg id="Capa_1" enable-background="new 0 0 512 512" height="512" viewBox="0 0 512 512" width="512" xmlns="http://www.w3.org/2000/svg"><g><path d="m256 360c77.196 0 140-62.804 140-140s-62.804-140-140-140-140 62.804-140 140 62.804 140 140 140zm0-240c55.14 0 100 44.86 100 100s-44.86 100-100 100-100-44.86-100-100 44.86-100 100-100z"/><path d="m241.873 262.411 28.184-28.183c3.663-3.619 5.935-8.643 5.943-14.197 0-.005 0-40.031 0-40.031 0-11.046-8.954-20-20-20s-20 8.954-20 20v31.716l-22.411 22.411c-7.811 7.811-7.811 20.474 0 28.284 7.81 7.811 20.473 7.811 28.284 0z"/><path d="m36 220c0 53.999 19.826 105.952 55.831 146.311l119.647 125.912c11.365 12.573 27.572 19.777 44.522 19.777 16.951 0 33.159-7.205 44.524-19.78l119.533-125.783c36.075-40.376 55.943-92.382 55.943-146.437 0-121.308-98.691-220-220-220s-220 98.692-220 220zm400 0c0 44.111-16.182 86.559-45.572 119.562l-119.504 125.753c-3.852 4.311-9.152 6.685-14.924 6.685s-11.072-2.374-14.924-6.685l-119.496-125.744c-29.393-33.004-45.58-75.458-45.58-119.571 0-99.252 80.748-180 180-180s180 80.748 180 180z"/></g></svg>