<svg id="Capa_1" enable-background="new 0 0 511.99 511.99" height="512" viewBox="0 0 511.99 511.99" width="512" xmlns="http://www.w3.org/2000/svg"><path d="m411.99 491.995h-152c-55.14 0-100-44.86-100-100v-272c0-55.14 44.86-100 100-100h152c55.14 0 100 44.86 100 100v272c0 55.14-44.86 100-100 100zm-152-432c-33.084 0-60 26.916-60 60v272c0 33.084 26.916 60 60 60h152c33.084 0 60-26.916 60-60v-272c0-33.084-26.916-60-60-60zm-142.052 426c-4.625 0-9.271-1.595-13.05-4.852-15.806-13.625-27.897-33.245-34.047-55.243l-66.767-238.844c-16.312-58.35 17.831-119.089 76.129-135.498l29.035-8.719c10.581-3.175 21.73 2.824 24.907 13.404 3.176 10.579-2.824 21.73-13.403 24.907 0 0-29.452 8.842-29.575 8.876-18.007 5.034-32.977 16.779-42.15 33.071s-11.453 35.183-6.419 53.19l66.767 238.843c3.993 14.284 11.881 27.302 21.641 35.715 8.366 7.212 9.302 19.841 2.09 28.207-3.956 4.589-9.541 6.943-15.158 6.943zm281.265-165.929c7.771-7.85 7.708-20.513-.142-28.284l-36.148-35.787 36.148-35.787c7.85-7.771 7.914-20.434.142-28.284-7.771-7.85-20.434-7.912-28.284-.142l-36.434 36.07-35.424-35.07c-7.85-7.771-20.513-7.708-28.284.142s-7.708 20.513.142 28.284l35.138 34.787-35.138 34.787c-7.85 7.771-7.914 20.434-.142 28.284 7.772 7.851 20.435 7.913 28.284.142l35.424-35.07 36.434 36.07c3.899 3.86 8.985 5.787 14.07 5.787 5.152 0 10.303-1.979 14.214-5.929z"/></svg>