<svg id="Capa_1" enable-background="new 0 0 512 512" height="512" viewBox="0 0 512 512" width="512" xmlns="http://www.w3.org/2000/svg"><g id="Red_Carpet"><g><path d="m292 232h-72c-34.502 0-67.65-12.662-93.338-35.653-8.23-7.366-8.932-20.01-1.565-28.241 7.368-8.231 20.013-8.93 28.241-1.565 18.344 16.418 42.017 25.459 66.662 25.459h72c24.645 0 48.318-9.041 66.662-25.458 8.23-7.367 20.874-6.666 28.241 1.565 7.366 8.23 6.665 20.875-1.565 28.241-25.688 22.99-58.836 35.652-93.338 35.652z"/></g><g><path d="m100 472h-20v-355.44c23.278-8.256 40-30.487 40-56.56 0-33.084-26.916-60-60-60s-60 26.916-60 60c0 26.073 16.722 48.303 40 56.56v43.44h-20c-11.046 0-20 8.954-20 20s8.954 20 20 20h20v272h-20c-11.046 0-20 8.954-20 20s8.954 20 20 20h80c11.046 0 20-8.954 20-20s-8.954-20-20-20zm-40-432c11.028 0 20 8.972 20 20s-8.972 20-20 20-20-8.972-20-20 8.972-20 20-20z"/><path d="m492 200c11.046 0 20-8.954 20-20s-8.954-20-20-20h-20v-43.44c23.278-8.256 40-30.487 40-56.56 0-33.084-26.916-60-60-60s-60 26.916-60 60c0 26.073 16.722 48.303 40 56.56v355.44h-20c-11.046 0-20 8.954-20 20s8.954 20 20 20h80c11.046 0 20-8.954 20-20s-8.954-20-20-20h-20v-272zm-40-160c11.028 0 20 8.972 20 20s-8.972 20-20 20-20-8.972-20-20 8.972-20 20-20z"/><path d="m385.688 385.191-40-80c-10.237-20.473-30.808-33.191-53.688-33.191h-72c-22.88 0-43.451 12.718-53.688 33.191l-40 80c-4.13 8.26-6.312 17.53-6.312 26.809 0 33.084 26.916 60 60 60h152c33.084 0 60-26.916 60-60 0-9.279-2.183-18.549-6.312-26.809zm-53.688 46.809h-152c-11.028 0-20-8.972-20-20 0-3.146.703-6.147 2.09-8.92l40-80c3.417-6.835 10.279-11.08 17.91-11.08h72c7.631 0 14.493 4.245 17.91 11.079l40 80c1.387 2.773 2.09 5.774 2.09 8.92 0 11.029-8.972 20.001-20 20.001z"/></g></g></svg>