<svg id="Capa_1" enable-background="new 0 0 512 512" height="512" viewBox="0 0 512 512" width="512" xmlns="http://www.w3.org/2000/svg"><g><path d="m496 296c0-33.084-26.916-60-60-60-11.028 0-20-8.972-20-20s8.972-20 20-20c6.351 0 12.187 2.919 16.011 8.01 6.634 8.832 19.173 10.613 28.003 3.978 8.831-6.634 10.612-19.172 3.978-28.003-7.15-9.518-16.978-16.593-27.991-20.508v-23.477c0-11.046-8.954-20-20-20s-20 8.954-20 20v23.44c-23.278 8.256-40 30.487-40 56.56 0 33.084 26.916 60 60 60 11.028 0 20 8.972 20 20s-8.972 20-20 20c-6.351 0-12.187-2.919-16.011-8.01-6.634-8.832-19.173-10.612-28.003-3.978-8.831 6.634-10.612 19.172-3.978 28.003 7.15 9.518 16.978 16.593 27.991 20.508v23.477c0 11.046 8.954 20 20 20s20-8.954 20-20v-23.44c23.278-8.256 40-30.487 40-56.56z"/><path d="m116 276c-33.084 0-60 26.916-60 60v136h-20c-11.046 0-20 8.954-20 20s8.954 20 20 20h320c11.046 0 20-8.954 20-20s-8.954-20-20-20h-20v-136c0-33.084-26.916-60-60-60-11.028 0-20-8.972-20-20s8.972-20 20-20c33.084 0 60-26.916 60-60v-76c0-11.046-8.954-20-20-20s-20 8.954-20 20v76c0 11.028-8.972 20-20 20-33.084 0-60 26.916-60 60s26.916 60 60 60c11.028 0 20 8.972 20 20v101.358l-54.164-64.078c-11.433-13.524-28.14-21.28-45.836-21.28s-34.403 7.756-45.837 21.281l-54.163 64.077v-101.358c0-11.028 8.972-20 20-20 33.084 0 60-26.916 60-60s-26.916-60-60-60c-11.028 0-20-8.972-20-20v-136h260c11.046 0 20-8.954 20-20s-8.954-20-20-20h-320c-11.046 0-20 8.954-20 20s8.954 20 20 20h20v136c0 33.084 26.916 60 60 60 11.028 0 20 8.972 20 20s-8.972 20-20 20zm64.711 123.104c3.817-4.515 9.39-7.104 15.289-7.104s11.472 2.589 15.288 7.104l61.618 72.896h-153.812z"/></g></svg>