<svg id="Capa_1" enable-background="new 0 0 512 512" height="512" viewBox="0 0 512 512" width="512" xmlns="http://www.w3.org/2000/svg"><path d="m492 379c-11.046 0-20-8.954-20-20v-157.579c0-21.369-8.322-41.458-23.432-56.569l-76.568-76.568v290.716c-.983 26.508-39.026 26.488-40 0v-179h-152v179c-.983 26.508-39.026 26.488-40 0v-292.249l-76.974 78.089c-14.849 15.064-23.026 35.009-23.026 56.16v158c-.983 26.508-39.026 26.488-40 0v-158c0-31.727 12.266-61.644 34.539-84.24l79.844-81.001c22.401-22.725 53.55-35.759 85.46-35.759 0 0 114.4.031 115.512.093 30.262 1.176 58.54 13.518 80.076 35.055l81.421 81.421c22.665 22.665 35.147 52.8 35.147 84.853v157.578c.001 11.046-8.953 20-19.999 20zm-312-239h152v-80c0-10.558-8.222-19.23-18.6-19.952-.937-.032-113.4-.048-113.4-.048-11.028 0-20 8.972-20 20zm312 372c-11.046 0-20-8.954-20-20v-33h-30v33c-.983 26.508-39.026 26.488-40 0v-33h-30v33c-.983 26.508-39.026 26.488-40 0v-53c0-11.046 8.954-20 20-20h140c11.046 0 20 8.954 20 20v53c0 11.046-8.954 20-20 20zm-332 0c-11.046 0-20-8.954-20-20v-33h-30v33c-.983 26.508-39.026 26.488-40 0v-33h-30v33c-.983 26.508-39.026 26.488-40 0v-53c0-11.046 8.954-20 20-20h140c11.046 0 20 8.954 20 20v53c0 11.046-8.954 20-20 20z"/></svg>