<svg id="Capa_1" enable-background="new 0 0 512 512" height="512" viewBox="0 0 512 512" width="512" xmlns="http://www.w3.org/2000/svg"><g id="Sd_Card_2_"><g><path d="m216 272h-20v-20c0-11.046-8.954-20-20-20s-20 8.954-20 20v20h-20c-11.046 0-20 8.954-20 20s8.954 20 20 20h20v100c0 11.046 8.954 20 20 20s20-8.954 20-20v-100h20c11.046 0 20-8.954 20-20s-8.954-20-20-20z"/><path d="m336 352h-20v-100c0-11.046-8.954-20-20-20s-20 8.954-20 20v100h-20c-11.046 0-20 8.954-20 20s8.954 20 20 20h20v20c0 11.046 8.954 20 20 20s20-8.954 20-20v-20h20c11.046 0 20-8.954 20-20s-8.954-20-20-20z"/></g><g><path d="m416 512h-320c-33.084 0-60-26.916-60-60v-392c0-33.084 26.916-60 60-60h280c33.084 0 60 26.916 60 60v32c0 11.046-8.954 20-20 20s-20-8.954-20-20v-32c0-11.028-8.972-20-20-20h-280c-11.028 0-20 8.972-20 20v392c0 11.028 8.972 20 20 20h320c11.028 0 20-8.972 20-20v-80c0-11.028-8.972-20-20-20-11.046 0-20-8.954-20-20v-80c0-11.046 8.954-20 20-20 11.028 0 20-8.972 20-20s-8.972-20-20-20c-11.046 0-20-8.954-20-20s8.954-20 20-20c33.084 0 60 26.916 60 60 0 26.075-16.719 48.318-40 56.573v46.854c23.281 8.254 40 30.498 40 56.573v80c0 33.084-26.916 60-60 60z"/></g><g><path d="m336 192c-11.046 0-20-8.954-20-20v-72c0-11.046 8.954-20 20-20s20 8.954 20 20v72c0 11.046-8.954 20-20 20z"/></g><g><path d="m256 192c-11.046 0-20-8.954-20-20v-72c0-11.046 8.954-20 20-20s20 8.954 20 20v72c0 11.046-8.954 20-20 20z"/></g><g><path d="m176 192c-11.046 0-20-8.954-20-20v-72c0-11.046 8.954-20 20-20s20 8.954 20 20v72c0 11.046-8.954 20-20 20z"/></g></g></svg>