<svg id="Capa_1" enable-background="new 0 0 512 512" height="512" viewBox="0 0 512 512" width="512" xmlns="http://www.w3.org/2000/svg"><g><path d="m372 232c-77.196 0-140 62.804-140 140s62.804 140 140 140 140-62.804 140-140-62.804-140-140-140zm0 240c-55.14 0-100-44.86-100-100s44.86-100 100-100 100 44.86 100 100-44.86 100-100 100z"/><path d="m372 312c-11.046 0-20 8.954-20 20v31.716l-22.411 22.411c-7.811 7.811-7.811 20.474 0 28.284 7.811 7.811 20.474 7.811 28.284 0l28.184-28.183c3.663-3.62 5.935-8.643 5.943-14.197 0-.005 0-40.031 0-40.031 0-11.046-8.954-20-20-20z"/><path d="m60 392h111.999c11.046 0 20-8.954 20-20s-8.954-20-20-20h-111.999c-11.028 0-20-8.972-20-20v-272c0-11.028 8.972-20 20-20h56v100c0 7.376 4.06 14.153 10.563 17.633 6.503 3.481 14.394 3.099 20.531-.992l15.624-10.416c20.219-13.479 46.346-13.479 66.564 0l15.624 10.416c6.138 4.091 14.028 4.474 20.531.992 6.503-3.48 10.563-10.257 10.563-17.633v-100h56c11.028 0 20 8.972 20 20v111.999c0 11.046 8.954 20 20 20s20-8.954 20-20v-111.999c0-33.084-26.916-60-60-60h-76c-11.046 0-20 8.954-20 20v84.478c-25.513-11.175-54.487-11.175-80 0v-64.478h20c11.046 0 20-8.954 20-20s-8.954-20-20-20h-116c-33.084 0-60 26.916-60 60v272c0 33.084 26.916 60 60 60z"/></g></svg>