<svg id="Capa_1" enable-background="new 0 0 512 512" height="512" viewBox="0 0 512 512" width="512" xmlns="http://www.w3.org/2000/svg"><g id="Shipping"><path d="m296 312h-80c-33.084 0-60 26.916-60 60v80c0 33.084 26.916 60 60 60h80c33.084 0 60-26.916 60-60v-80c0-33.084-26.916-60-60-60zm20 140c0 11.028-8.972 20-20 20h-80c-11.028 0-20-8.972-20-20v-80c0-11.028 8.972-20 20-20h20v20c0 11.046 8.954 20 20 20s20-8.954 20-20v-20h20c11.028 0 20 8.972 20 20z"/><g><circle cx="256" cy="172" r="20"/></g><path d="m492 0h-152c-11.046 0-20 8.954-20 20s8.954 20 20 20h56v92c0 11.028-8.972 20-20 20h-22.011c-9.291-45.589-49.696-80-97.989-80s-88.698 34.411-97.989 80h-22.011c-11.028 0-20-8.972-20-20v-92h56c11.046 0 20-8.954 20-20s-8.954-20-20-20h-152c-11.046 0-20 8.954-20 20s8.954 20 20 20h56v92c0 33.084 26.916 60 60 60h2.63l-47.396 71.094c-3.717 5.577-9.939 8.906-16.641 8.906h-18.593c-11.046 0-20 8.954-20 20s8.954 20 20 20h18.593c20.106 0 38.77-9.988 49.923-26.718l35.126-52.689c8.419 22.971 30.505 39.407 56.358 39.407h80c25.853 0 47.939-16.436 56.359-39.407l35.126 52.689c11.153 16.73 29.816 26.718 49.922 26.718h18.593c11.046 0 20-8.954 20-20s-8.954-20-20-20h-18.593c-6.702 0-12.924-3.329-16.642-8.906l-47.395-71.094h2.63c33.084 0 60-26.916 60-60v-92h56c11.046 0 20-8.954 20-20s-8.954-20-20-20zm-176 212c0 11.028-8.972 20-20 20h-80c-11.028 0-20-8.972-20-20v-40c0-33.084 26.916-60 60-60s60 26.916 60 60z"/></g></svg>