<svg id="Capa_1" enable-background="new 0 0 512 512" height="512" viewBox="0 0 512 512" width="512" xmlns="http://www.w3.org/2000/svg"><g id="Sim_Card_1_"><g><path d="m416 512h-320c-33.084 0-60-26.916-60-60v-392c0-33.084 26.916-60 60-60h240c16.177 0 31.286 6.2 42.543 17.457l80 80c11.257 11.257 17.457 26.366 17.457 42.543 0 11.046-8.954 20-20 20s-20-8.954-20-20c0-5.493-2.039-10.556-5.741-14.259l-80-80c-3.702-3.702-8.766-5.741-14.259-5.741h-240c-11.028 0-20 8.972-20 20v392c0 11.028 8.972 20 20 20h320c11.028 0 20-8.972 20-20v-232c0-11.046 8.954-20 20-20s20 8.954 20 20v232c0 33.084-26.916 60-60 60z"/></g><path d="m336 152h-160c-33.084 0-60 26.916-60 60v160c0 33.084 26.916 60 60 60h160c33.084 0 60-26.916 60-60v-160c0-33.084-26.916-60-60-60zm0 240h-60v-60c0-11.046-8.954-20-20-20h-40c-11.046 0-20 8.954-20 20s8.954 20 20 20h20v40h-60c-11.028 0-20-8.972-20-20v-100h20c11.046 0 20-8.954 20-20s-8.954-20-20-20h-20v-20c0-11.028 8.972-20 20-20h60v60c0 11.046 8.954 20 20 20h40c11.046 0 20-8.954 20-20s-8.954-20-20-20h-20v-40h60c11.028 0 20 8.972 20 20v100h-20c-11.046 0-20 8.954-20 20s8.954 20 20 20h20v20c0 11.028-8.972 20-20 20z"/></g></svg>