<svg id="Capa_1" enable-background="new 0 0 512.068 512.068" height="512" viewBox="0 0 512.068 512.068" width="512" xmlns="http://www.w3.org/2000/svg"><g><path d="m412.03 316.034c-11.046 0-20 8.954-20 20 0 11.028-8.972 20-20 20s-20-8.972-20-20c0-11.046-8.954-20-20-20s-20 8.954-20 20c0 33.084 26.916 60 60 60s60-26.916 60-60c0-11.046-8.954-20-20-20z"/><path d="m180.03 316.034c-11.046 0-20 8.954-20 20 0 11.028-8.972 20-20 20s-20-8.972-20-20c0-11.046-8.954-20-20-20s-20 8.954-20 20c0 33.084 26.916 60 60 60s60-26.916 60-60c0-11.046-8.954-20-20-20z"/><path d="m512.03 196.034c0-44.112-35.888-80-80-80-22.056 0-40-17.944-40-40v-20c0-11.046-8.954-20-20-20s-20 8.954-20 20v20c0 44.112 35.888 80 80 80 22.056 0 40 17.944 40 40v42.035c-26.544-27.12-61.962-42.035-100-42.035h-232c-38.038 0-73.456 14.915-100 42.035v-42.035c0-22.056 17.944-40 40-40 44.112 0 80-35.888 80-80v-20c0-11.046-8.954-20-20-20s-20 8.954-20 20v20c0 22.056-17.944 40-40 40-44.112 0-80 35.888-80 80 0 145.042-.144 140.979.197 147.499 3.941 75.284 70.59 132.501 146.593 132.501 32.563 0 55.321-2.397 96.71-35.615 2.493-2 6.685-4.385 12.5-4.385s10.007 2.385 12.5 4.385c41.287 33.136 65.098 35.615 96.71 35.615 75.987 0 142.651-57.201 146.593-132.501.364-6.946.197-6.588.197-147.499zm-40.142 145.407c-2.731 52.159-50.573 94.593-106.647 94.593-25.845 0-39.688-1.139-71.674-26.811-10.597-8.505-23.928-13.189-37.536-13.189s-26.939 4.684-37.537 13.189c-33.405 26.811-46.998 26.811-71.673 26.811-56.075 0-103.917-42.434-106.647-94.593-3.034-57.947 42.981-105.407 99.857-105.407h232c56.884 0 102.891 47.466 99.857 105.407z"/></g></svg>