<svg id="Capa_1" enable-background="new 0 0 512 512" height="512" viewBox="0 0 512 512" width="512" xmlns="http://www.w3.org/2000/svg"><g><path d="m316 256c0-33.084-26.916-60-60-60s-60 26.916-60 60v40c0 33.084 26.916 60 60 60s60-26.916 60-60zm-40 40c0 11.028-8.972 20-20 20s-20-8.972-20-20v-40c0-11.028 8.972-20 20-20s20 8.972 20 20z"/><path d="m396 60c0-11.046-8.954-20-20-20h-71.716l5.858-5.858c7.811-7.81 7.811-20.474 0-28.284-7.811-7.811-20.474-7.811-28.284 0l-34.142 34.142h-111.716c-11.046 0-20 8.954-20 20 0 11.021 8.916 19.957 19.928 19.996-13.005 23.125-19.928 49.316-19.928 76.573v238.863c0 32.576 9.946 63.851 28.763 90.441 11.577 16.36 30.197 26.127 49.808 26.127h122.858c19.611 0 38.23-9.767 49.808-26.127 18.817-26.591 28.763-57.865 28.763-90.441v-175.432c0-11.046-8.954-20-20-20s-20 8.954-20 20v172h-200v-232h218.992c5.727 0 11.179-2.455 14.975-6.743s5.572-9.998 4.877-15.683c-2.477-20.274-8.976-39.868-18.894-57.574h.05c11.046 0 20-8.954 20-20zm-78.571 412h-122.858c-6.651 0-13.065-3.452-17.156-9.233-6.75-9.538-11.95-19.892-15.544-30.767h188.258c-3.594 10.875-8.794 21.229-15.544 30.767-4.091 5.781-10.504 9.233-17.156 9.233zm32.665-352h-188.27c4.811-14.618 12.528-28.186 22.85-40h142.632c10.168 11.69 17.926 25.339 22.788 40z"/></g></svg>