<svg id="Capa_1" enable-background="new 0 0 512 512" height="512" viewBox="0 0 512 512" width="512" xmlns="http://www.w3.org/2000/svg"><g><circle cx="246" cy="416" r="20"/><circle cx="286" cy="336" r="20"/><path d="m378.815 40h37.185c11.046 0 20-8.954 20-20s-8.954-20-20-20h-37.185c-33.512 0-64.616 16.646-83.206 44.53l-.659.989c-12.37-3.588-25.438-5.519-38.95-5.519-71.474 0-130.602 53.841-138.976 123.093-23.809 7.961-41.024 30.454-41.024 56.907 0 27.243 18.258 50.289 43.175 57.582l37.965 186.094c5.534 28.007 30.274 48.324 58.86 48.324h80c28.566 0 53.294-20.293 58.85-48.271l25.034-119.633c2.262-10.811-4.668-21.41-15.48-23.672-10.806-2.258-21.409 4.668-23.672 15.48 0 0-25.091 119.907-25.107 119.99-1.831 9.332-10.084 16.106-19.625 16.106h-80c-9.541 0-17.794-6.774-19.625-16.106-.01-.05-35.883-175.894-35.883-175.894h215.508c33.084 0 60-26.916 60-60 0-26.453-17.215-48.946-41.024-56.907-5.094-42.126-28.967-78.545-62.978-100.615 11.334-14.162 28.473-22.478 46.817-22.478zm-122.815 40c48.293 0 88.698 34.411 97.989 80h-195.978c9.291-45.589 49.696-80 97.989-80zm120 160s-239.978-.002-240.031-.001c-11.014-.018-19.969-8.981-19.969-19.999 0-11.028 8.972-20 20-20h240c11.028 0 20 8.972 20 20s-8.972 20-20 20z"/></g></svg>