<svg id="Capa_1" enable-background="new 0 0 512 512" height="512" viewBox="0 0 512 512" width="512" xmlns="http://www.w3.org/2000/svg"><g><path d="m116 412c0 27.028 17.963 49.939 42.578 57.421 7.483 24.616 30.394 42.579 57.422 42.579h80c27.028 0 49.939-17.963 57.422-42.579 24.615-7.482 42.578-30.393 42.578-57.421s-17.963-49.939-42.578-57.421c-2.574-8.47-6.976-16.151-12.743-22.585 9.519-10.623 15.321-24.642 15.321-39.994 0-14.821-5.414-28.395-14.352-38.875 5.192-5.608 9.168-12.251 11.6-19.651 24.703-7.428 42.752-30.383 42.752-57.474 0-13.126-4.165-25.597-12.045-36.065-6.642-8.824-19.182-10.595-28.007-3.95-8.825 6.643-10.594 19.182-3.95 28.007 2.618 3.478 4.002 7.63 4.002 12.008 0 11.028-8.972 20-20 20-11.046 0-20 8.954-20 20 0 11.81-10.773 16-20 16h-80c-9.227 0-20-4.19-20-16 0-11.046-8.954-20-20-20-11.028 0-20-8.972-20-20s8.972-20 20-20c11.046 0 20-8.954 20-20 0-11.81 10.773-16 20-16h20v20c0 11.046 8.954 20 20 20s20-8.954 20-20v-20h20c33.084 0 60-26.916 60-60s-26.916-60-60-60h-80c-33.084 0-60 26.916-60 60 0 14.817 5.4 28.399 14.335 38.878-5.187 5.605-9.152 12.253-11.583 19.648-24.703 7.428-42.752 30.383-42.752 57.474s18.049 50.046 42.752 57.474c2.432 7.4 6.408 14.043 11.6 19.651-8.938 10.48-14.352 24.054-14.352 38.875 0 15.352 5.802 29.371 15.321 39.993-5.767 6.434-10.168 14.115-12.743 22.585-24.615 7.483-42.578 30.394-42.578 57.422zm100-372h80c11.028 0 20 8.972 20 20s-8.972 20-20 20h-80c-11.028 0-20-8.972-20-20s8.972-20 20-20zm0 232h80c11.028 0 20 8.972 20 20s-8.972 20-20 20h-80c-11.028 0-20-8.972-20-20s8.972-20 20-20zm-40 120c11.046 0 20-8.954 20-20 0-11.028 8.972-20 20-20h20v20c0 11.046 8.954 20 20 20s20-8.954 20-20v-20h20c11.028 0 20 8.972 20 20 0 11.046 8.954 20 20 20 11.028 0 20 8.972 20 20s-8.972 20-20 20c-11.046 0-20 8.954-20 20 0 11.028-8.972 20-20 20h-80c-11.028 0-20-8.972-20-20 0-11.046-8.954-20-20-20-11.028 0-20-8.972-20-20s8.972-20 20-20z"/><path d="m104.944 238.111-40-20c-9.88-4.939-21.895-.935-26.833 8.944-4.939 9.879-.936 21.893 8.944 26.833l40 20c9.879 4.94 21.893.935 26.833-8.944s.936-21.893-8.944-26.833z"/><path d="m87.056 318.111-40 20c-9.88 4.94-13.884 16.954-8.944 26.833 4.941 9.881 16.955 13.883 26.833 8.944l40-20c9.88-4.94 13.884-16.954 8.944-26.833-4.941-9.879-16.951-13.884-26.833-8.944z"/><path d="m447.056 218.111-40 20c-9.88 4.94-13.884 16.954-8.944 26.833 4.941 9.881 16.955 13.883 26.833 8.944l40-20c9.88-4.94 13.884-16.954 8.944-26.833-4.941-9.879-16.951-13.884-26.833-8.944z"/><path d="m464.944 338.111-40-20c-9.879-4.939-21.894-.935-26.833 8.944s-.936 21.893 8.944 26.833l40 20c9.879 4.94 21.893.935 26.833-8.944s.936-21.893-8.944-26.833z"/></g></svg>