<svg id="Capa_1" enable-background="new 0 0 512 512" height="512" viewBox="0 0 512 512" width="512" xmlns="http://www.w3.org/2000/svg"><g id="Sports_Bra_6_"><g id="Sports_Bra_2_"><g id="Sports_Bra"><g><path d="m372 512h-232c-30.818 0-56.285-23.358-59.628-53.299-48.594-22.885-80.372-72.175-80.372-126.701v-45.94c0-26.403 15.661-49.356 38.97-57.116 24.541-8.17 41.03-31.054 41.03-56.944v-112c0-33.084 26.916-60 60-60s60 26.916 60 60v70.295c0 34.09 23.02 59.318 54.735 59.987 15.25.326 28.884-4.951 39.403-15.251 11.518-11.278 17.862-27.166 17.862-44.736v-70.295c0-33.084 26.916-60 60-60s60 26.916 60 60v112c0 25.89 16.489 48.774 41.03 56.944 23.309 7.76 38.97 30.713 38.97 57.116v45.94c0 54.526-31.778 103.817-80.372 126.701-3.343 29.941-28.81 53.299-59.628 53.299zm-232-472c-11.028 0-20 8.972-20 20v112c0 43.141-27.486 81.277-68.396 94.896-6.723 2.239-11.604 10.298-11.604 19.164v45.94c0 42.318 26.791 80.22 66.665 94.315 7.992 2.825 13.335 10.38 13.335 18.856v6.829c0 11.028 8.972 20 20 20h232c11.028 0 20-8.972 20-20v-6.829c0-8.476 5.343-16.032 13.335-18.857 39.874-14.094 66.665-51.996 66.665-94.314v-45.94c0-8.865-4.881-16.925-11.604-19.164-40.91-13.619-68.396-51.755-68.396-94.896v-112c0-11.028-8.972-20-20-20s-20 8.972-20 20v70.295c0 28.414-10.61 54.452-29.877 73.317-18.116 17.739-42.323 27.208-68.231 26.661-26.332-.555-50.427-11.404-67.846-30.549-16.796-18.459-26.046-43.116-26.046-69.429v-70.295c0-11.028-8.972-20-20-20z"/></g><g><path d="m296 312h-80c-11.046 0-20-8.954-20-20s8.954-20 20-20h80c11.046 0 20 8.954 20 20s-8.954 20-20 20z"/></g></g></g></g></svg>