<svg id="Capa_1" enable-background="new 0 0 512 512" height="512" viewBox="0 0 512 512" width="512" xmlns="http://www.w3.org/2000/svg"><g><path d="m356 276c0-11.046-8.954-20-20-20h-40c-15.355 0-29.376 5.805-40 15.327-10.624-9.522-24.645-15.327-40-15.327h-40c-11.046 0-20 8.954-20 20v40c0 33.084 26.916 60 60 60h80c33.084 0 60-26.916 60-60zm-160 40v-20h20c11.028 0 20 8.972 20 20v20h-20c-11.028 0-20-8.972-20-20zm120 0c0 11.028-8.972 20-20 20h-20v-20c0-11.028 8.972-20 20-20h20z"/><path d="m492 216h-69.474c-14.042-29.587-37.898-52.887-66.745-66.539-2.943-45.365-36.265-82.582-79.781-91.45v-22.011c0-11.046-8.954-20-20-20s-20 8.954-20 20v22.011c-43.503 8.866-76.819 46.065-79.778 91.412-14.16 6.715-27.019 15.736-38.094 26.577h-58.128c-33.084 0-60 26.916-60 60v80c0 48.441 31.232 88.62 76 97.954v42.046h-20c-11.046 0-20 8.954-20 20s8.954 20 20 20h396c11.046 0 20-8.954 20-20s-8.954-20-20-20h-336v-180c0-55.14 44.86-100 100-100h80c42.319 0 80.221 26.791 94.315 66.665 2.825 7.992 10.38 13.335 18.857 13.335h60.805c-6.936 33.896-31.183 62.489-64.642 74.315-7.992 2.825-13.335 10.38-13.335 18.857v46.828c0 11.046 8.954 20 20 20s20-8.954 20-20v-33.474c48.38-22.961 80-72.14 80-126.526 0-11.046-8.954-20-20-20zm-452 100v-80c0-11.028 8.972-20 20-20h29.526c-8.667 18.196-13.526 38.54-13.526 60v96.338c-21.46-8.266-36-29.759-36-56.338zm176-180c-5.722 0-11.363.353-16.907 1.024 7.961-23.809 30.454-41.024 56.907-41.024 26.461 0 48.961 17.226 56.915 41.047-5.567-.679-11.21-1.047-16.915-1.047z"/></g></svg>