<svg id="Capa_1" enable-background="new 0 0 512.005 512.005" height="512" viewBox="0 0 512.005 512.005" width="512" xmlns="http://www.w3.org/2000/svg"><g><path d="m492.002 0h-472c-11.046 0-20 8.954-20 20s8.954 20 20 20h20v260c0 33.084 26.916 60 60 60h14.056l-33.397 126.91c-2.811 10.682 3.569 21.62 14.251 24.431 1.706.449 3.418.663 5.103.663 8.865 0 16.966-5.939 19.328-14.915l36.077-137.089h80.582v92c0 11.046 8.954 20 20 20s20-8.954 20-20v-92h80.582l36.076 137.09c2.362 8.977 10.462 14.915 19.328 14.915 1.685 0 3.397-.215 5.103-.663 10.682-2.811 17.062-13.75 14.251-24.431l-33.396-126.911h14.056c33.084 0 60-26.916 60-60v-200c0-11.046-8.954-20-20-20s-20 8.954-20 20v200c0 11.028-8.972 20-20 20h-312c-11.028 0-20-8.972-20-20v-260h412c11.046 0 20-8.954 20-20s-8.954-20-20-20z"/><path d="m176.002 160c-11.046 0-20 8.954-20 20v60h-16c-11.046 0-20 8.954-20 20s8.954 20 20 20h232c11.046 0 20-8.954 20-20s-8.954-20-20-20h-16v-100c0-11.046-8.954-20-20-20s-20 8.954-20 20v100h-40v-140c0-11.046-8.954-20-20-20s-20 8.954-20 20v140h-40v-60c0-11.046-8.954-20-20-20z"/></g></svg>