<svg id="Capa_1" enable-background="new 0 0 511.873 511.873" height="512" viewBox="0 0 511.873 511.873" width="512" xmlns="http://www.w3.org/2000/svg"><path d="m212.873 426.481h-193c-26.508-.983-26.488-39.026 0-40h18.928l122.827-344.799c18.661-54.002 96.474-54.011 115.165-.011l64.301 179.05c3.733 10.396-1.668 21.85-12.063 25.583-10.396 3.732-21.85-1.669-25.583-12.063l-9.969-27.76h-80.605c-26.508-.983-26.488-39.026 0-40h66.24l-39.98-111.328c-.012-.035-.024-.069-.037-.104-6.578-18.833-33.166-18.87-39.769 0l-118.065 331.432h131.61c26.508.983 26.488 39.026 0 40zm30-110h-69c-26.508-.983-26.488-39.026 0-40h69c26.508.983 26.488 39.026 0 40zm149-45c-66.168 0-120 53.832-120 120 6.032 158.978 233.992 158.934 240-.002 0-66.166-53.831-119.998-120-119.998zm-14.339 198.712.196-.156-9.885-25.758c-2.93-7.634-10.344-11.987-18.519-11.792h-26.123c-5.466-9.119-9.167-19.411-10.629-30.401l22.219-16.783c6.252-5.107 8.617-13.594 5.908-21.199l-9.007-25.28c7.688-8.775 17.259-15.86 28.076-20.618l21.616 14.958c6.724 4.653 15.301 4.067 21.943-.703l20.79-14.193c10.807 4.778 20.365 11.882 28.037 20.673l-8.965 25.162c-2.709 7.605-.344 16.092 5.908 21.199l22.088 16.684c-1.453 11.027-5.16 21.354-10.642 30.5h-26.123c-8.175-.194-15.589 4.158-18.519 11.792l-9.885 25.758.196.156c-9.258 1.712-19.423 1.712-28.68.001zm24.345-48.712h-19.567c-7.303 0-13.788-4.613-16.109-11.457l-6.448-19.017c-2.361-6.963.129-14.635 6.148-18.94l15.931-11.397c5.811-4.157 13.638-4.259 19.558-.254l16.087 10.885c6.12 4.141 8.815 11.726 6.659 18.74l-6.004 19.529c-2.174 7.075-8.775 11.911-16.255 11.911z"/></svg>