<svg id="Capa_1" enable-background="new 0 0 512 512" height="512" viewBox="0 0 512 512" width="512" xmlns="http://www.w3.org/2000/svg"><g id="Travel"><g><path d="m452 80v-20c0-33.084-26.916-60-60-60s-60 26.916-60 60v20c-33.084 0-60 26.916-60 60v40c0 33.084 26.916 60 60 60h120c33.084 0 60-26.916 60-60v-40c0-33.084-26.916-60-60-60zm-80-20c0-11.028 8.972-20 20-20s20 8.972 20 20v20h-40zm100 120c0 11.028-8.972 20-20 20h-120c-11.028 0-20-8.972-20-20v-40c0-11.028 8.972-20 20-20h40v20c0 11.046 8.954 20 20 20s20-8.954 20-20v-20h40c11.028 0 20 8.972 20 20z"/><circle cx="100" cy="252" r="20"/><path d="m100 152c-55.141 0-100 44.86-100 100 0 14.973 3.234 29.382 9.613 42.826l54.238 114.31c6.59 13.889 20.78 22.864 36.149 22.864s29.559-8.975 36.148-22.864l54.238-114.311c6.38-13.443 9.614-27.852 9.614-42.825 0-55.14-44.859-100-100-100zm54.248 125.679-54.238 114.311c-.002-.001-.013 0-.018 0-.001 0-.002 0-.002 0l-54.238-114.312c-3.816-8.043-5.752-16.682-5.752-25.678 0-33.084 26.916-60 60-60s60 26.916 60 60c0 8.996-1.936 17.635-5.752 25.679z"/><path d="m140 472h-80c-11.046 0-20 8.954-20 20s8.954 20 20 20h80c11.046 0 20-8.954 20-20s-8.954-20-20-20z"/></g><g><path d="m452 512h-232c-11.046 0-20-8.954-20-20s8.954-20 20-20h232c11.028 0 20-8.972 20-20s-8.972-20-20-20h-152c-33.084 0-60-26.916-60-60s26.916-60 60-60h60c11.028 0 20-8.972 20-20 0-11.046 8.954-20 20-20s20 8.954 20 20c0 33.084-26.916 60-60 60h-60c-11.028 0-20 8.972-20 20s8.972 20 20 20h152c33.084 0 60 26.916 60 60s-26.916 60-60 60z"/></g></g></svg>