<svg id="Capa_1" enable-background="new 0 0 512 512" height="512" viewBox="0 0 512 512" width="512" xmlns="http://www.w3.org/2000/svg"><g><path d="m296 0h-80c-33.084 0-60 26.916-60 60v72c0 33.084 26.916 60 60 60h80c33.084 0 60-26.916 60-60v-72c0-33.084-26.916-60-60-60zm20 132c0 11.028-8.972 20-20 20h-80c-11.028 0-20-8.972-20-20v-72c0-11.028 8.972-20 20-20h20v20c0 11.046 8.954 20 20 20s20-8.954 20-20v-20h20c11.028 0 20 8.972 20 20z"/><path d="m256 232c-143.591 0-256 116.409-256 260 0 11.046 8.954 20 20 20h472c11.046 0 20-8.954 20-20 0-142.014-110.855-260-256-260zm167.821 120h-82.292c-2.919-12.758-6.252-24.825-9.987-36.03-4.637-13.912-9.58-25.616-14.693-35.446 42.839 12.367 79.85 37.576 106.972 71.476zm-212.221 0c2.077-8.181 4.345-15.999 6.805-23.381 14.928-44.786 31.119-56.619 37.595-56.619s22.667 11.833 37.595 56.619c2.461 7.382 4.728 15.2 6.805 23.381zm96.939 40c3.952 24.878 6.39 51.893 7.177 80h-119.432c.786-28.107 3.225-55.122 7.177-80zm-113.388-111.477c-5.113 9.83-10.056 21.534-14.693 35.446-3.735 11.206-7.068 23.272-9.987 36.03h-20.191c-11.046 0-20 8.954-20 20s8.954 20 20 20h12.74c-3.716 25.191-6.006 52.155-6.749 80h-115.43c7.842-92.59 69.731-167.058 154.31-191.476zm160.578 191.477c-.743-27.845-3.033-54.809-6.749-80h100.197c11.904 24.288 19.548 51.27 21.982 80z"/></g></svg>