<svg id="Capa_1" enable-background="new 0 0 512 512" height="512" viewBox="0 0 512 512" width="512" xmlns="http://www.w3.org/2000/svg"><g><path d="m314.96 264.366c-14.473-4.824-30.166-1.123-40.949 9.662-10.784 10.783-14.487 26.474-9.663 40.95l56.569 169.71c1.949 5.843 5.29 11.243 9.661 15.615 15.598 15.596 40.971 15.596 56.569 0 4.962-4.962 8.542-11.158 10.353-17.917l11.954-44.63 62.546 62.547c7.81 7.81 20.475 7.81 28.285 0 7.811-7.811 7.81-20.474-.001-28.284l-62.546-62.547 44.629-11.954c6.759-1.81 12.955-5.39 17.918-10.354 15.594-15.595 15.594-40.971-.002-56.569-4.373-4.372-9.774-7.713-15.618-9.661zm90.104 112.447c-6.759 1.81-12.955 5.39-17.918 10.353-4.962 4.962-8.541 11.158-10.352 17.917l-17.932 66.952-56.553-169.721 169.708 56.566z"/><path d="m256 0c-143.551 0-256 112.448-256 256 0 143.551 112.449 256 256 256 2.75 0 5.534-.043 8.275-.129 11.041-.346 19.709-9.577 19.364-20.617-.346-11.041-9.607-19.701-20.617-19.364-2.325.073-4.688.11-7.022.11-121.122 0-216-94.878-216-216 0-121.121 94.878-216 216-216 123.141 0 216 91.14 216 212 0 2.864-.056 5.753-.164 8.587-.424 11.038 8.181 20.329 19.218 20.752 11.022.42 20.329-8.18 20.753-19.218.128-3.343.193-6.748.193-10.121 0-69.287-26.395-133.218-74.321-180.015-47.541-46.42-112.063-71.985-181.679-71.985z"/><path d="m240.576 256c0-11.046-8.954-20-20-20h-23.938c2.54-40.581 12.744-82.586 30.442-125.16 4.24-10.2-.591-21.905-10.791-26.145s-21.905.592-26.145 10.791c-19.766 47.548-31.029 94.718-33.581 140.515h-60.563c-11.046 0-20 8.954-20 20s8.954 20 20 20h60.563c2.553 45.796 13.815 92.966 33.581 140.515 4.24 10.201 15.945 15.031 26.145 10.791 10.199-4.24 15.031-15.945 10.791-26.145-17.698-42.574-27.902-84.579-30.442-125.16h23.938c11.046-.002 20-8.956 20-20.002z"/><path d="m335.627 231.068c10.954-1.424 18.679-11.458 17.255-22.411-4.837-37.205-15.275-75.281-31.025-113.171-4.239-10.2-15.945-15.03-26.145-10.791-10.199 4.24-15.031 15.945-10.791 26.145 14.394 34.627 23.914 69.272 28.295 102.974 1.424 10.952 11.458 18.68 22.411 17.254z"/></g></svg>